<svg xmlns="http://www.w3.org/2000/svg" xmlns:xlink="http://www.w3.org/1999/xlink" width="108" height="108" viewBox="0 0 108 108">
  <defs>
    <filter id="Trazado_978624" x="0" y="0" width="108" height="108" filterUnits="userSpaceOnUse">
      <feOffset dy="3" input="SourceAlpha"/>
      <feGaussianBlur stdDeviation="3" result="blur"/>
      <feFlood flood-opacity="0.161"/>
      <feComposite operator="in" in2="blur"/>
      <feComposite in="SourceGraphic"/>
    </filter>
  </defs>
  <g id="Grupo_1180093" data-name="Grupo 1180093" transform="translate(-721 -2110)">
    <g id="Grupo_1172416" data-name="Grupo 1172416" transform="translate(730 2116)">
      <g id="Grupo_1168543" data-name="Grupo 1168543">
        <g id="Grupo_1164524" data-name="Grupo 1164524">
          <g id="Grupo_1144123" data-name="Grupo 1144123">
            <g transform="matrix(1, 0, 0, 1, -9, -6)" filter="url(#Trazado_978624)">
              <g id="Trazado_978624-2" data-name="Trazado 978624" transform="translate(9 6)" fill="#ebe9f0">
                <path d="M 45 88.5 C 39.12687683105469 88.5 33.43022537231445 87.35007476806641 28.06830024719238 85.08217620849609 C 22.88852500915527 82.89131164550781 18.23629951477051 79.75458526611328 14.2408504486084 75.75914764404297 C 10.24541282653809 71.76370239257812 7.108687400817871 67.11147308349609 4.917825222015381 61.93170166015625 C 2.649924993515015 56.56977462768555 1.5 50.87312316894531 1.5 45 C 1.5 39.12687683105469 2.649924993515015 33.43022537231445 4.917825222015381 28.06830024719238 C 7.108687400817871 22.88852500915527 10.24541282653809 18.23629951477051 14.2408504486084 14.2408504486084 C 18.23629951477051 10.24541282653809 22.88852500915527 7.108687400817871 28.06830024719238 4.917825222015381 C 33.43022537231445 2.649924993515015 39.12687683105469 1.5 45 1.5 C 50.87312316894531 1.5 56.56977462768555 2.649924993515015 61.93170166015625 4.917825222015381 C 67.11147308349609 7.108687400817871 71.76370239257812 10.24541282653809 75.75914764404297 14.2408504486084 C 79.75458526611328 18.23629951477051 82.89131164550781 22.88852500915527 85.08217620849609 28.06830024719238 C 87.35007476806641 33.43022537231445 88.5 39.12687683105469 88.5 45 C 88.5 50.87312316894531 87.35007476806641 56.56977462768555 85.08217620849609 61.93170166015625 C 82.89131164550781 67.11147308349609 79.75458526611328 71.76370239257812 75.75914764404297 75.75914764404297 C 71.76370239257812 79.75458526611328 67.11147308349609 82.89131164550781 61.93170166015625 85.08217620849609 C 56.56977462768555 87.35007476806641 50.87312316894531 88.5 45 88.5 Z" stroke="none"/>
                <path d="M 45 3 C 39.32871246337891 3 33.82865524291992 4.110054016113281 28.65262985229492 6.299339294433594 C 23.65165710449219 8.414573669433594 19.15968322753906 11.44334411621094 15.301513671875 15.301513671875 C 11.44334411621094 19.15968322753906 8.414573669433594 23.65165710449219 6.299339294433594 28.65262985229492 C 4.110054016113281 33.82865524291992 3 39.32871246337891 3 45 C 3 50.67128753662109 4.110054016113281 56.17134475708008 6.299339294433594 61.34737396240234 C 8.414573669433594 66.34834289550781 11.44334411621094 70.84031677246094 15.301513671875 74.698486328125 C 19.15968322753906 78.55665588378906 23.65165710449219 81.58542633056641 28.65262985229492 83.70066070556641 C 33.82865524291992 85.88994598388672 39.32871246337891 87 45 87 C 50.67128753662109 87 56.17134475708008 85.88994598388672 61.34737396240234 83.70066070556641 C 66.34834289550781 81.58542633056641 70.84031677246094 78.55665588378906 74.698486328125 74.698486328125 C 78.55665588378906 70.84031677246094 81.58542633056641 66.34834289550781 83.70066070556641 61.34737396240234 C 85.88994598388672 56.17134475708008 87 50.67128753662109 87 45 C 87 39.32871246337891 85.88994598388672 33.82865524291992 83.70066070556641 28.65262985229492 C 81.58542633056641 23.65165710449219 78.55665588378906 19.15968322753906 74.698486328125 15.301513671875 C 70.84031677246094 11.44334411621094 66.34834289550781 8.414573669433594 61.34737396240234 6.299339294433594 C 56.17134475708008 4.110054016113281 50.67128753662109 3 45 3 M 45 0 C 69.85281372070312 0 90 20.14718627929688 90 45 C 90 69.85281372070312 69.85281372070312 90 45 90 C 20.14718627929688 90 0 69.85281372070312 0 45 C 0 20.14718627929688 20.14718627929688 0 45 0 Z" stroke="none" fill="#453179"/>
              </g>
            </g>
          </g>
        </g>
      </g>
    </g>
    <g id="hijo" transform="translate(741.997 2129.691)">
      <g id="Grupo_1180092" data-name="Grupo 1180092" transform="translate(2.847 0.917)">
        <g id="Grupo_1180088" data-name="Grupo 1180088" transform="translate(17.259 47.163)">
          <path id="Trazado_1042673" data-name="Trazado 1042673" d="M175.449,393.88a12.9,12.9,0,0,0-8.671,0l-7.492,7.011,4.3,5.86h15.063l4.3-5.86A12.965,12.965,0,0,0,175.449,393.88Z" transform="translate(-158.217 -393.13)" fill="#7ce3ff"/>
          <path id="Trazado_1042674" data-name="Trazado 1042674" d="M171.114,393.13a12.835,12.835,0,0,0-4.336.75,12.964,12.964,0,0,0-7.492,7.011l4.3,5.86h2.2v-.724a13.814,13.814,0,0,1,8.151-12.586A12.9,12.9,0,0,0,171.114,393.13Z" transform="translate(-158.217 -393.13)" fill="#55dafe"/>
          <g id="Grupo_1180087" data-name="Grupo 1180087" transform="translate(0 0.75)">
            <path id="Trazado_1042675" data-name="Trazado 1042675" d="M220.546,399.265a8.986,8.986,0,0,0,4.336,4.675,8.986,8.986,0,0,0,4.335-4.675Z" transform="translate(-211.985 -399.265)" fill="#ffbf9d"/>
            <path id="Trazado_1042676" data-name="Trazado 1042676" d="M155.911,459.7q-.287-.171-.572-.35a29.2,29.2,0,0,1-3.724-2.764,12.82,12.82,0,0,0-1.069,5.136v.724h5.364V459.7Z" transform="translate(-150.546 -449.576)" fill="#ffbf9d"/>
          </g>
        </g>
        <g id="Grupo_1180089" data-name="Grupo 1180089" transform="translate(0 18.147)">
          <circle id="Elipse_12476" data-name="Elipse 12476" cx="6.004" cy="6.004" r="6.004" fill="#ffbf9d"/>
          <circle id="Elipse_12477" data-name="Elipse 12477" cx="6.004" cy="6.004" r="6.004" transform="translate(48.303)" fill="#ffbf9d"/>
        </g>
        <path id="Trazado_1042677" data-name="Trazado 1042677" d="M82.677,7.5,58.526,31.652,69.35,46.45a21.883,21.883,0,0,0,17.662,8.964,24.13,24.13,0,0,0,19.816-23.762Z" transform="translate(-52.522 -7.5)" fill="#ffd4bd"/>
        <path id="Trazado_1042678" data-name="Trazado 1042678" d="M66.532,204.976H58.526a24.167,24.167,0,0,0,28.486,23.762C75.58,226.83,66.532,216.95,66.532,204.976Z" transform="translate(-52.522 -180.824)" fill="#ffbf9d"/>
        <g id="Grupo_1180090" data-name="Grupo 1180090" transform="translate(13.235 27.317)">
          <ellipse id="Elipse_12478" data-name="Elipse 12478" cx="4.281" cy="3.363" rx="4.281" ry="3.363" fill="#ff8e9e"/>
          <ellipse id="Elipse_12479" data-name="Elipse 12479" cx="4.281" cy="3.363" rx="4.281" ry="3.363" transform="translate(25.242)" fill="#ff8e9e"/>
        </g>
        <g id="Grupo_1180091" data-name="Grupo 1180091" transform="translate(6.004)">
          <path id="Trazado_1042679" data-name="Trazado 1042679" d="M363.116,96.613l-6.175,3.12-1.907,5.552a18.373,18.373,0,0,0,12.039,4.579,24.037,24.037,0,0,0-3.958-13.251Z" transform="translate(-318.771 -85.714)" fill="#e8b5b1"/>
          <path id="Trazado_1042680" data-name="Trazado 1042680" d="M149.972,23.77a32,32,0,0,1-4.926,2.637,24.19,24.19,0,0,0-3.305-2.123L112.9,28.969l5.021,15.541a1.59,1.59,0,0,0,1.514,1.1l8.732,0A26.69,26.69,0,0,0,153.24,26.164a2.16,2.16,0,0,0-3.267-2.395Z" transform="translate(-106.25 -21.461)" fill="#d6948c"/>
          <path id="Trazado_1042681" data-name="Trazado 1042681" d="M86.68,7.83a24.2,24.2,0,0,0-21.5,7.178,24.069,24.069,0,0,0-6.65,16.643H71.711a6.594,6.594,0,0,1-.8-5.375A20.382,20.382,0,0,1,87.284,11.449l6.733-1.127A23.965,23.965,0,0,0,86.68,7.83Z" transform="translate(-58.526 -7.5)" fill="#ce857a"/>
        </g>
        <path id="Trazado_1042682" data-name="Trazado 1042682" d="M321.873,456.586a29.334,29.334,0,0,1-4.3,3.115v2.745h5.366v-.724A12.818,12.818,0,0,0,321.873,456.586Z" transform="translate(-279.889 -401.662)" fill="#ffd4bd"/>
      </g>
      <path id="Trazado_1042683" data-name="Trazado 1042683" d="M179.417,222.981a.917.917,0,0,0-.917.917v1.645a.917.917,0,1,0,1.835,0V223.9A.917.917,0,0,0,179.417,222.981Z" transform="translate(-154.975 -195.71)"/>
      <path id="Trazado_1042684" data-name="Trazado 1042684" d="M319.417,222.981a.917.917,0,0,0-.917.917v1.645a.917.917,0,1,0,1.835,0V223.9A.917.917,0,0,0,319.417,222.981Z" transform="translate(-277.853 -195.71)"/>
      <path id="Trazado_1042685" data-name="Trazado 1042685" d="M236.078,236.257a.917.917,0,0,0-1.294.089,2.075,2.075,0,0,1-3.131,0,.917.917,0,1,0-1.383,1.205,3.91,3.91,0,0,0,5.9,0A.917.917,0,0,0,236.078,236.257Z" transform="translate(-200.216 -207.164)"/>
      <path id="Trazado_1042686" data-name="Trazado 1042686" d="M57.1,18.15a24.924,24.924,0,0,0-2.84-6.369,27.733,27.733,0,0,0,2.456-5.89,3.082,3.082,0,0,0-4.646-3.433,31.034,31.034,0,0,1-4.3,2.351A25.072,25.072,0,0,0,16.561,6.145a.917.917,0,0,0,1.2,1.384,23.24,23.24,0,0,1,27.972-1.9A30.988,30.988,0,0,1,35.694,7.5a.917.917,0,1,0,.035,1.834A32.8,32.8,0,0,0,53.076,3.993a1.246,1.246,0,0,1,1.878,1.393A25.624,25.624,0,0,1,30.76,24.146l-20.972,0a23.242,23.242,0,0,1,5.5-14.114.917.917,0,0,0-1.4-1.188,25.046,25.046,0,0,0-4.978,9.3,6.919,6.919,0,1,0-.055,13.838l.051,0A25.172,25.172,0,0,0,25.932,49.12a13.878,13.878,0,0,0-6.743,11.859V61.7a.917.917,0,0,0,.917.917H45.9a.917.917,0,0,0,.917-.917v-.722A13.694,13.694,0,0,0,44.5,53.348a.917.917,0,1,0-1.525,1.02A12.01,12.01,0,0,1,43.7,55.6a28.727,28.727,0,0,1-3.632,2.564.917.917,0,0,0-.448.788v1.828H26.388V58.955a.917.917,0,0,0-.448-.788A28.743,28.743,0,0,1,22.308,55.6,12.238,12.238,0,0,1,28.19,50.01a10.171,10.171,0,0,0,4.381,4.305.917.917,0,0,0,.865,0A10.176,10.176,0,0,0,37.8,50.033a11.944,11.944,0,0,1,2.906,1.8.917.917,0,1,0,1.181-1.4,13.843,13.843,0,0,0-1.841-1.3A25.172,25.172,0,0,0,57.1,31.987l.051,0A6.919,6.919,0,1,0,57.1,18.15ZM8.45,30.14A5.087,5.087,0,0,1,8.455,20a25.058,25.058,0,0,0-.52,5.072h0A25.094,25.094,0,0,0,8.45,30.14Zm33,29.332a30.781,30.781,0,0,0,2.974-2.1,11.809,11.809,0,0,1,.556,3.408h-3.53Zm-16.9,0v1.313H21.025a11.8,11.8,0,0,1,.556-3.408A30.779,30.779,0,0,0,24.553,59.471ZM53.185,13.553a23.12,23.12,0,0,1,3.032,10.57,17.376,17.376,0,0,1-9.594-3.585A27.86,27.86,0,0,0,53.185,13.553ZM33,52.453a8.548,8.548,0,0,1-2.692-2.461,25.081,25.081,0,0,0,5.384,0A8.541,8.541,0,0,1,33,52.453Zm0-4.15A23.261,23.261,0,0,1,9.789,25.985l20.981,0h.017a27.042,27.042,0,0,0,14.266-4.348A19.23,19.23,0,0,0,56.219,25.96,23.261,23.261,0,0,1,33,48.3ZM57.557,30.137a25.214,25.214,0,0,0,0-10.139,5.086,5.086,0,0,1,0,10.139Z" transform="translate(0)"/>
    </g>
  </g>
</svg>
