<svg xmlns="http://www.w3.org/2000/svg" xmlns:xlink="http://www.w3.org/1999/xlink" width="103" height="103" viewBox="0 0 103 103">
  <defs>
    <filter id="Trazado_978624" x="0" y="0" width="103" height="103" filterUnits="userSpaceOnUse">
      <feOffset dy="3" input="SourceAlpha"/>
      <feGaussianBlur stdDeviation="3" result="blur"/>
      <feFlood flood-opacity="0.161"/>
      <feComposite operator="in" in2="blur"/>
      <feComposite in="SourceGraphic"/>
    </filter>
  </defs>
  <g id="Grupo_1180936" data-name="Grupo 1180936" transform="translate(-612 -948)">
    <g id="Grupo_1179494" data-name="Grupo 1179494" transform="translate(621 954)">
      <g id="Grupo_1144531" data-name="Grupo 1144531">
        <g transform="matrix(1, 0, 0, 1, -9, -6)" filter="url(#Trazado_978624)">
          <g id="Trazado_978624-2" data-name="Trazado 978624" transform="translate(9 6)" fill="#effbfe">
            <path d="M 42.5 83.5 C 36.96437835693359 83.5 31.59512901306152 82.41617584228516 26.54141235351562 80.27863311767578 C 21.65934181213379 78.21369171142578 17.27447128295898 75.25723266601562 13.50862312316895 71.49137878417969 C 9.742764472961426 67.72553253173828 6.786305904388428 63.34066009521484 4.721364498138428 58.45858764648438 C 2.583823442459106 53.40486907958984 1.5 48.03562164306641 1.5 42.5 C 1.5 36.96437835693359 2.583823442459106 31.59512901306152 4.721364498138428 26.54141235351562 C 6.786305904388428 21.65934181213379 9.742764472961426 17.27447128295898 13.50862312316895 13.50862312316895 C 17.27447128295898 9.742764472961426 21.65934181213379 6.786305904388428 26.54141235351562 4.721364498138428 C 31.59512901306152 2.583823442459106 36.96437835693359 1.5 42.5 1.5 C 48.03562164306641 1.5 53.40486907958984 2.583823442459106 58.45858764648438 4.721364498138428 C 63.34066009521484 6.786305904388428 67.72553253173828 9.742764472961426 71.49137878417969 13.50862312316895 C 75.25723266601562 17.27447128295898 78.21369171142578 21.65934181213379 80.27863311767578 26.54141235351562 C 82.41617584228516 31.59512901306152 83.5 36.96437835693359 83.5 42.5 C 83.5 48.03562164306641 82.41617584228516 53.40486907958984 80.27863311767578 58.45858764648438 C 78.21369171142578 63.34066009521484 75.25723266601562 67.72553253173828 71.49137878417969 71.49137878417969 C 67.72553253173828 75.25723266601562 63.34066009521484 78.21369171142578 58.45858764648438 80.27863311767578 C 53.40486907958984 82.41617584228516 48.03562164306641 83.5 42.5 83.5 Z" stroke="none"/>
            <path d="M 42.5 3 C 37.16621398925781 3 31.99356079101562 4.043960571289062 27.125732421875 6.102882385253906 C 22.42246627807617 8.092185974121094 18.19785308837891 10.94070434570312 14.56928253173828 14.56928253173828 C 10.94070434570312 18.19785308837891 8.092185974121094 22.42246627807617 6.102882385253906 27.125732421875 C 4.043960571289062 31.99356079101562 3 37.16621398925781 3 42.5 C 3 47.83378601074219 4.043960571289062 53.00643920898438 6.102882385253906 57.87425231933594 C 8.092185974121094 62.57753372192383 10.94070434570312 66.80213165283203 14.56928253173828 70.43071746826172 C 18.19786834716797 74.05929565429688 22.42246627807617 76.90781402587891 27.125732421875 78.89711761474609 C 31.99356079101562 80.95603942871094 37.16621398925781 82 42.5 82 C 47.83378601074219 82 53.00642395019531 80.95603942871094 57.87425231933594 78.89711761474609 C 62.57753372192383 76.90781402587891 66.80213165283203 74.05929565429688 70.43071746826172 70.43071746826172 C 74.05929565429688 66.80213165283203 76.90781402587891 62.57753372192383 78.89711761474609 57.87425231933594 C 80.95603942871094 53.00642395019531 82 47.83378601074219 82 42.5 C 82 37.16621398925781 80.95603942871094 31.99356079101562 78.89711761474609 27.125732421875 C 76.90781402587891 22.42246627807617 74.05929565429688 18.19786834716797 70.43071746826172 14.56928253173828 C 66.80213165283203 10.94070434570312 62.57753372192383 8.092185974121094 57.87425231933594 6.102882385253906 C 53.00643920898438 4.043960571289062 47.83378601074219 3 42.5 3 M 42.5 0 C 65.97209167480469 0 85 19.02789306640625 85 42.5 C 85 65.97209167480469 65.97209167480469 85 42.5 85 C 19.02789306640625 85 0 65.97209167480469 0 42.5 C 0 19.02789306640625 19.02789306640625 0 42.5 0 Z" stroke="none" fill="#397b86"/>
          </g>
        </g>
      </g>
    </g>
    <g id="sentidos" transform="translate(632 959.11)">
      <g id="Grupo_1180925" data-name="Grupo 1180925" transform="translate(5.773 12.913)">
        <circle id="Elipse_12565" data-name="Elipse 12565" cx="25.4" cy="25.4" r="25.4" fill="#02c7dd"/>
      </g>
      <g id="Grupo_1180926" data-name="Grupo 1180926" transform="translate(17.408 14.475)">
        <path id="Trazado_1044446" data-name="Trazado 1044446" d="M162.462,74.888a25.408,25.408,0,0,1-22.555,45.189,25.4,25.4,0,1,0,22.555-45.189Z" transform="translate(-139.907 -74.888)" fill="#07b2cd"/>
      </g>
      <g id="Grupo_1180927" data-name="Grupo 1180927" transform="translate(19.941 6.823)">
        <path id="Trazado_1044447" data-name="Trazado 1044447" d="M160.263,20.539a4.161,4.161,0,0,0,.976,1.782c1.691,2.169,5.451,5.367,10.257,5.367,4.887,0,8.693-3.307,10.341-5.476a3.909,3.909,0,0,0,.892-1.672,3.909,3.909,0,0,0-.892-1.672c-1.648-2.169-5.454-5.476-10.341-5.476-4.588,0-8.222,2.914-10.014,5.065A4.858,4.858,0,0,0,160.263,20.539Z" transform="translate(-160.263 -13.391)" fill="#dcf5f8"/>
      </g>
      <g id="Grupo_1180928" data-name="Grupo 1180928" transform="translate(28.11 10.908)">
        <circle id="Elipse_12566" data-name="Elipse 12566" cx="3.064" cy="3.064" r="3.064" fill="#017297"/>
      </g>
      <g id="Grupo_1180929" data-name="Grupo 1180929" transform="translate(45.878 21.456)">
        <path id="Trazado_1044448" data-name="Trazado 1044448" d="M385.513,144.806a5.255,5.255,0,0,0-2.165-2.774,4.662,4.662,0,0,1-2.157-3.34l-.582-4.655a3.47,3.47,0,0,0-6.887,0l-.582,4.655a4.662,4.662,0,0,1-2.157,3.34,5.254,5.254,0,0,0-2.165,2.774,1.923,1.923,0,0,0,1.824,2.531H372.5a3.2,3.2,0,0,1,2.559,1.279,2.63,2.63,0,0,0,4.208,0,3.2,3.2,0,0,1,2.559-1.279h1.861A1.922,1.922,0,0,0,385.513,144.806Z" transform="translate(-368.718 -130.997)" fill="#ffe5c2"/>
      </g>
      <g id="Grupo_1180930" data-name="Grupo 1180930" transform="translate(37.708 48.816)">
        <path id="Trazado_1044449" data-name="Trazado 1044449" d="M310.837,369.27a5.9,5.9,0,0,1-5.785-4.743l-1.923-9.613a3.365,3.365,0,0,1,5.167-3.46,4.581,4.581,0,0,0,5.082,0,3.365,3.365,0,0,1,5.167,3.46l-1.923,9.613A5.9,5.9,0,0,1,310.837,369.27Z" transform="translate(-303.063 -350.889)" fill="#e94444"/>
      </g>
      <g id="Grupo_1180931" data-name="Grupo 1180931" transform="translate(0.933 19.651)">
        <path id="Trazado_1044450" data-name="Trazado 1044450" d="M7.5,133.7a5.064,5.064,0,0,0,10.119.311c0-.053.006-.107.007-.159A8.85,8.85,0,0,1,19.9,128.27a7.09,7.09,0,1,0-12.4-4.7Z" transform="translate(-7.5 -116.483)" fill="#ffdfcf"/>
      </g>
      <g id="Grupo_1180932" data-name="Grupo 1180932" transform="translate(23.839 33.535)">
        <path id="Trazado_1044451" data-name="Trazado 1044451" d="M202.772,234.952V228.4a.329.329,0,0,0-.329-.329H195.42a.329.329,0,0,0-.329.329v6.548a.329.329,0,0,1-.329.329h-2.836a.329.329,0,0,0-.259.532l7.005,8.94a.329.329,0,0,0,.518,0l7.005-8.94a.329.329,0,0,0-.259-.532H203.1A.329.329,0,0,1,202.772,234.952Z" transform="translate(-191.597 -228.075)" fill="#ffc344"/>
      </g>
      <g id="Grupo_1180933" data-name="Grupo 1180933" transform="translate(9.044 47.795)">
        <path id="Trazado_1044452" data-name="Trazado 1044452" d="M84.678,342.681h-5.5a2.192,2.192,0,0,0-2.192,2.192v3.953a2.192,2.192,0,0,0-3.091.009l-.885.885a1.1,1.1,0,0,0,0,1.55l5.644,5.644h0l.029.029a1.939,1.939,0,0,1,.571,1.374v2.539a.657.657,0,0,0,.657.657H85.4a.657.657,0,0,0,.657-.657v-2.526a1.983,1.983,0,0,1,.591-1.407,5.656,5.656,0,0,0,1.678-4.028v-6.559A3.653,3.653,0,0,0,84.678,342.681Z" transform="translate(-72.688 -342.681)" fill="#eb9c8d"/>
      </g>
      <g id="Grupo_1180934" data-name="Grupo 1180934" transform="translate(27.334 25.778)">
        <path id="Trazado_1044453" data-name="Trazado 1044453" d="M227.032,169.813h-7.023a.329.329,0,0,1-.329-.329v-3.427a.329.329,0,0,1,.329-.329h7.023a.329.329,0,0,1,.329.329v3.427A.329.329,0,0,1,227.032,169.813Z" transform="translate(-219.68 -165.728)" fill="#ffc344"/>
      </g>
      <g id="Grupo_1180935" data-name="Grupo 1180935" transform="translate(0 5.89)">
        <path id="Trazado_1044454" data-name="Trazado 1044454" d="M226.416,42.718a4,4,0,1,0-4,4A4,4,0,0,0,226.416,42.718Zm-6.127,0a2.13,2.13,0,1,1,2.13,2.131A2.133,2.133,0,0,1,220.288,42.718Z" transform="translate(-191.245 -34.636)"/>
        <path id="Trazado_1044455" data-name="Trazado 1044455" d="M63.557,34.97A6.213,6.213,0,0,0,61.008,31.7a3.728,3.728,0,0,1-1.732-2.669l-.582-4.655a4.4,4.4,0,0,0-7.2-2.821,26.526,26.526,0,0,0-8.375-6.722,2.168,2.168,0,0,0,.225-.866,5.59,5.59,0,0,0-1.435-2.68c-1.055-1.267-4.948-5.4-10.731-5.4A12.426,12.426,0,0,0,26.26,6.928.933.933,0,1,0,27,8.644a10.57,10.57,0,0,1,4.178-.887c3.95,0,7.393,2.443,9.3,4.729a6.294,6.294,0,0,1,.987,1.485,5.517,5.517,0,0,1-.685,1.109c-1.791,2.356-5.379,5.108-9.6,5.108-4.146,0-7.72-2.7-9.521-5.007a5.9,5.9,0,0,1-.762-1.209,6.291,6.291,0,0,1,.987-1.485A14.107,14.107,0,0,1,23.56,10.8a.933.933,0,0,0-1.208-1.423,16,16,0,0,0-1.91,1.917,5.589,5.589,0,0,0-1.435,2.68,2.17,2.17,0,0,0,.224.866A26.214,26.214,0,0,0,12.29,19.96,8.013,8.013,0,0,0,0,26.74V36.869a6.019,6.019,0,0,0,1.907,4.386,5.933,5.933,0,0,0,3.317,1.563A26.325,26.325,0,0,0,9.543,53.336l-.837.837a2.029,2.029,0,0,0,0,2.869l5.644,5.644.031.03h0a1.012,1.012,0,0,1,.3.713v2.539a1.592,1.592,0,0,0,1.591,1.591h5.493a1.592,1.592,0,0,0,1.591-1.591v-2.5a26.484,26.484,0,0,0,15.65,0,6.833,6.833,0,0,0,13.181-.826L54.1,53.025a4.3,4.3,0,0,0-.01-1.738A26.339,26.339,0,0,0,57.489,39.3a2.277,2.277,0,0,1,1.5-.567h1.861a2.856,2.856,0,0,0,2.709-3.759Zm-61.691,1.9V26.74a6.157,6.157,0,0,1,6.155-6.157q.128,0,.258.005a6.157,6.157,0,0,1,4.357,10.229,9.806,9.806,0,0,0-2.509,6.175c0,.044,0,.087-.006.131a4.131,4.131,0,0,1-8.254-.255Zm50.408,15.79-1.923,9.613a4.967,4.967,0,0,1-9.74,0l-1.923-9.613a2.434,2.434,0,0,1,3.734-2.5,5.52,5.52,0,0,0,2.126.849v9.742a.933.933,0,0,0,1.866,0V51.007a5.518,5.518,0,0,0,2.126-.849A2.434,2.434,0,0,1,52.2,51.411c.005.019.011.037.018.055A2.429,2.429,0,0,1,52.275,52.659Zm9.376-16.207a.979.979,0,0,1-.8.411H58.987a4.151,4.151,0,0,0-3.305,1.653,1.7,1.7,0,0,1-2.715,0,4.152,4.152,0,0,0-3.305-1.653H47.8a.989.989,0,0,1-.939-1.3,4.34,4.34,0,0,1,1.781-2.282,5.589,5.589,0,0,0,2.582-4.012.933.933,0,0,0-1.852-.231A3.728,3.728,0,0,1,47.641,31.7a6.213,6.213,0,0,0-2.549,3.266A2.856,2.856,0,0,0,47.8,38.729h1.861a2.276,2.276,0,0,1,1.812.906,3.533,3.533,0,0,0,2.851,1.425,3.582,3.582,0,0,0,1.184-.2,24.483,24.483,0,0,1-2.454,8.412q-.061-.067-.126-.131a4.31,4.31,0,0,0-5.424-.537,3.644,3.644,0,0,1-1.971.614h-.106a3.643,3.643,0,0,1-1.971-.614,4.3,4.3,0,0,0-6.6,4.42l1.723,8.615a24.626,24.626,0,0,1-14.179.192,6.555,6.555,0,0,0,1.218-3.825v-.3a.933.933,0,0,0-1.866,0v.3a4.707,4.707,0,0,1-1.4,3.365,2.9,2.9,0,0,0-.867,2.069v2.251H16.543V63.429a2.891,2.891,0,0,0-.846-2.035l-.029-.029-.028-.027-5.615-5.615a.163.163,0,0,1,0-.23l.885-.885a1.261,1.261,0,0,1,1.775,0l0,0,2.55,2.55a2.546,2.546,0,0,0,2.355.679,1.352,1.352,0,0,1,.286-.03,1.329,1.329,0,0,1,1.278.943.933.933,0,0,0,1.784-.548,3.186,3.186,0,0,0-3.062-2.261,3.22,3.22,0,0,0-.682.073.689.689,0,0,1-.639-.175l-2.284-2.284V49.987a1.26,1.26,0,0,1,1.259-1.259h.411v3.6a.933.933,0,0,0,1.866,0v-3.6h3.224a2.723,2.723,0,0,1,2.72,2.72V53.23a.933.933,0,1,0,1.866,0V51.448a4.591,4.591,0,0,0-4.586-4.586h-5.5a3.128,3.128,0,0,0-3.125,3.125v2.448a3.161,3.161,0,0,0-1.217,0,24.457,24.457,0,0,1-4.08-9.672,6.005,6.005,0,0,0,4.874-5.529c0-.063.006-.125.008-.187a7.938,7.938,0,0,1,2.041-4.992,7.992,7.992,0,0,0-.288-10.915,24.358,24.358,0,0,1,6.5-4.726c2.174,2.743,6.162,5.639,10.924,5.639,4.779,0,8.825-2.991,10.924-5.639a24.648,24.648,0,0,1,8.227,6.67,4.382,4.382,0,0,0-.37,1.3l-.028.223a.933.933,0,0,0,1.852.231l.028-.223a2.537,2.537,0,0,1,5.035,0l.582,4.655a5.588,5.588,0,0,0,2.582,4.012,4.341,4.341,0,0,1,1.781,2.282.978.978,0,0,1-.136.891Z" transform="translate(0 -5.89)"/>
        <path id="Trazado_1044456" data-name="Trazado 1044456" d="M199.363,227.782h-2.232v-5.944a1.263,1.263,0,0,0-1.262-1.262h-7.023a1.263,1.263,0,0,0-1.262,1.262v5.944h-2.232a1.262,1.262,0,0,0-.993,2.04l7.005,8.94a1.262,1.262,0,0,0,1.987,0l7.005-8.94a1.262,1.262,0,0,0-.993-2.04ZM192.358,237l-5.764-7.355h1.595a1.263,1.263,0,0,0,1.262-1.262v-5.944h5.814v5.944a1.263,1.263,0,0,0,1.262,1.262h1.595Z" transform="translate(-161.184 -193.864)"/>
        <path id="Trazado_1044457" data-name="Trazado 1044457" d="M35.673,156.856a.933.933,0,0,0-.933-.933.044.044,0,0,1-.033-.013.042.042,0,0,1-.013-.032v-2.645a.686.686,0,0,1,.2-.488l.023-.023a2.557,2.557,0,0,0,0-3.617l-.023-.023a.685.685,0,0,1-.2-.488v-2.845a2.075,2.075,0,0,1,2.072-2.073l.091,0a2.071,2.071,0,0,1,1.464,3.441.933.933,0,1,0,1.4,1.238,3.938,3.938,0,0,0-2.794-6.543c-.053,0-.1,0-.158,0a3.943,3.943,0,0,0-3.938,3.939v2.845a2.539,2.539,0,0,0,.749,1.808l.023.023a.691.691,0,0,1,0,.977l-.023.023a2.539,2.539,0,0,0-.749,1.808v2.645a1.912,1.912,0,0,0,1.913,1.912.934.934,0,0,0,.933-.933Z" transform="translate(-28.743 -124.898)"/>
        <path id="Trazado_1044458" data-name="Trazado 1044458" d="M213.442,164.179h7.023a1.263,1.263,0,0,0,1.262-1.262V159.49a1.263,1.263,0,0,0-1.262-1.262h-7.023a1.263,1.263,0,0,0-1.262,1.262v3.427A1.263,1.263,0,0,0,213.442,164.179Zm.6-4.085h5.814v2.218h-5.814Z" transform="translate(-185.78 -139.273)"/>
      </g>
    </g>
  </g>
</svg>
