<svg xmlns="http://www.w3.org/2000/svg" xmlns:xlink="http://www.w3.org/1999/xlink" width="93.934" height="93.934" viewBox="0 0 93.934 93.934">
  <defs>
    <filter id="Trazado_982547" x="0" y="0" width="93.934" height="93.934" filterUnits="userSpaceOnUse">
      <feOffset dy="3" input="SourceAlpha"/>
      <feGaussianBlur stdDeviation="3" result="blur"/>
      <feFlood flood-opacity="0.161"/>
      <feComposite operator="in" in2="blur"/>
      <feComposite in="SourceGraphic"/>
    </filter>
    <clipPath id="clip-path">
      <path id="path5115" d="M0-682.665H49.239v49.239H0Z" transform="translate(0 682.665)"/>
    </clipPath>
  </defs>
  <g id="Grupo_1180146" data-name="Grupo 1180146" transform="translate(-813.066 -2186.533)">
    <g id="Grupo_1179447" data-name="Grupo 1179447" transform="translate(630 223.533)">
      <g id="Grupo_1175230" data-name="Grupo 1175230" transform="translate(-5.967 -23)">
        <g id="Grupo_1167337" data-name="Grupo 1167337" transform="translate(198.033 1992)">
          <g id="Grupo_1166720" data-name="Grupo 1166720">
            <g id="Grupo_1164305" data-name="Grupo 1164305">
              <g id="Grupo_1163948" data-name="Grupo 1163948">
                <g id="Grupo_1158168" data-name="Grupo 1158168">
                  <g id="Grupo_1152576" data-name="Grupo 1152576">
                    <g id="Grupo_1148633" data-name="Grupo 1148633">
                      <g id="Grupo_1148525" data-name="Grupo 1148525">
                        <g transform="matrix(1, 0, 0, 1, -9, -6)" filter="url(#Trazado_982547)">
                          <g id="Trazado_982547-2" data-name="Trazado 982547" transform="translate(9 6)" fill="#fdfbec">
                            <path d="M 37.966796875 74.43359375 C 33.04315185546875 74.43359375 28.26757431030273 73.46962738037109 23.77274131774902 71.56847381591797 C 19.43047523498535 69.73184967041016 15.53040790557861 67.10224914550781 12.18087482452393 63.75271987915039 C 8.831341743469238 60.4031867980957 6.201741218566895 56.50312042236328 4.365118980407715 52.16086196899414 C 2.463963508605957 47.66601943969727 1.499996900558472 42.89044189453125 1.499996900558472 37.966796875 C 1.499996900558472 33.04315185546875 2.463963508605957 28.26757431030273 4.365118980407715 23.77274131774902 C 6.201741218566895 19.43047523498535 8.831341743469238 15.53040790557861 12.18087482452393 12.18087482452393 C 15.53040790557861 8.831341743469238 19.43047523498535 6.201741218566895 23.77274131774902 4.365118980407715 C 28.26757431030273 2.463963508605957 33.04315185546875 1.499996900558472 37.966796875 1.499996900558472 C 42.89044189453125 1.499996900558472 47.66601943969727 2.463963508605957 52.16086196899414 4.365118980407715 C 56.50312042236328 6.201741218566895 60.4031867980957 8.831341743469238 63.75271987915039 12.18087482452393 C 67.10224914550781 15.53040790557861 69.73184967041016 19.43047523498535 71.56847381591797 23.77274131774902 C 73.46962738037109 28.26757431030273 74.43359375 33.04315185546875 74.43359375 37.966796875 C 74.43359375 42.89044189453125 73.46962738037109 47.66601943969727 71.56847381591797 52.16086196899414 C 69.73184967041016 56.50313186645508 67.10224914550781 60.4031867980957 63.75271987915039 63.75271987915039 C 60.4031867980957 67.10224914550781 56.50313186645508 69.73184967041016 52.16086196899414 71.56847381591797 C 47.66601943969727 73.46962738037109 42.89044189453125 74.43359375 37.966796875 74.43359375 Z" stroke="none"/>
                            <path d="M 37.966796875 3 C 33.2449836730957 3 28.66600799560547 3.924095153808594 24.35705947875977 5.746635437011719 C 20.19359588623047 7.507637023925781 16.45379638671875 10.02928161621094 13.24153518676758 13.24153518676758 C 10.02927398681641 16.45379638671875 7.507621765136719 20.19359588623047 5.746635437011719 24.35705947875977 C 3.924095153808594 28.66600799560547 3 33.2449836730957 3 37.966796875 C 3 42.6886100769043 3.924095153808594 47.26758575439453 5.746635437011719 51.57653427124023 C 7.507621765136719 55.73999786376953 10.02927398681641 59.47979736328125 13.24153518676758 62.69205856323242 C 16.45379638671875 65.90431976318359 20.19359588623047 68.42597198486328 24.35705947875977 70.18695831298828 C 28.66600799560547 72.00949859619141 33.2449836730957 72.93359375 37.966796875 72.93359375 C 42.6886100769043 72.93359375 47.26758575439453 72.00949859619141 51.57653427124023 70.18695831298828 C 55.73999786376953 68.42597198486328 59.47979736328125 65.90431976318359 62.69205856323242 62.69205856323242 C 65.90431976318359 59.47979736328125 68.42597198486328 55.73999786376953 70.18695831298828 51.57653427124023 C 72.00949859619141 47.26758575439453 72.93359375 42.6886100769043 72.93359375 37.966796875 C 72.93359375 33.2449836730957 72.00949859619141 28.66600799560547 70.18695831298828 24.35705947875977 C 68.42597198486328 20.19359588623047 65.90431976318359 16.45379638671875 62.69205856323242 13.24153518676758 C 59.47979736328125 10.02928161621094 55.73999786376953 7.507637023925781 51.57653427124023 5.746635437011719 C 47.26758575439453 3.924095153808594 42.6886100769043 3 37.966796875 3 M 37.966796875 0 C 58.93528366088867 0 75.93359375 16.99832153320312 75.93359375 37.966796875 C 75.93359375 58.93528366088867 58.93528366088867 75.93359375 37.966796875 75.93359375 C 16.99831008911133 75.93359375 0 58.93528366088867 0 37.966796875 C 0 16.99832153320312 16.99831008911133 0 37.966796875 0 Z" stroke="none" fill="#84792b"/>
                          </g>
                        </g>
                      </g>
                    </g>
                  </g>
                </g>
              </g>
            </g>
          </g>
        </g>
      </g>
    </g>
    <g id="g5109" transform="translate(835.414 2889.426)">
      <g id="g5111" transform="translate(0 -682.665)">
        <g id="g5113" clip-path="url(#clip-path)">
          <g id="g5119" transform="translate(33.068 2.195)">
            <path id="path5121" d="M-184.715-86.244a6.762,6.762,0,0,1-3.151-2.2,11.511,11.511,0,0,1-1.208-1.716,5.711,5.711,0,0,0-7.768-2.018,5.663,5.663,0,0,0-2.232,2.364l7.64,7.643a4.139,4.139,0,0,0,1.45.929l.008,0c2.722,1.05,4.832-.983,6.1-2.812a1.425,1.425,0,0,0-.838-2.192" transform="translate(199.074 92.948)" fill="#fbc072"/>
          </g>
          <g id="g5123" transform="translate(13.511 35.43)">
            <path id="path5125" d="M-228.75-149.417H-242.1l-4.435-4.21a13.469,13.469,0,0,1,4.743-7.405h12.73a13.469,13.469,0,0,1,4.743,7.405Z" transform="translate(246.531 161.032)" fill="#9ae0eb"/>
          </g>
          <g id="g5127" transform="translate(13.512 35.43)">
            <path id="path5129" d="M-24.015-117.012a10.008,10.008,0,0,1,5.316-9.1h-2.44a13.469,13.469,0,0,0-4.743,7.405l1.868,1.773c0-.027,0-.055,0-.082" transform="translate(25.881 126.108)" fill="#64d1e1"/>
          </g>
          <g id="g5131" transform="translate(12.984 42.835)">
            <path id="path5133" d="M-63.836,0V4.21H-68.8A16.47,16.47,0,0,1-68.271,0Z" transform="translate(68.798)" fill="#ffd8d2"/>
          </g>
          <g id="g5135" transform="translate(31.293 42.835)">
            <path id="path5137" d="M-63.836-54.155H-68.8v-4.21h4.435a16.471,16.471,0,0,1,.528,4.21" transform="translate(68.798 58.365)" fill="#ffd8d2"/>
          </g>
          <g id="g5139" transform="translate(19.69 35.43)">
            <path id="path5141" d="M0,0V2.612a2.465,2.465,0,0,0,4.93,0V0Z" fill="#fff"/>
          </g>
          <g id="g5143" transform="translate(24.62 35.43)">
            <path id="path5145" d="M-63.416,0V2.612A2.465,2.465,0,0,1-65.88,5.077a2.465,2.465,0,0,1-2.465-2.465V0Z" transform="translate(68.345)" fill="#fff"/>
          </g>
          <g id="g5147" transform="translate(6.608 24.655)">
            <path id="path5149" d="M-5.485,0a14.363,14.363,0,0,1-.3,8.908A1.706,1.706,0,0,0-3.61,11.144C-1.5,10.37-.169,8.71.25,5.161V0Z" transform="translate(5.911)" fill="#fbc072"/>
          </g>
          <g id="g5151" transform="translate(36.47 24.655)">
            <path id="path5153" d="M-73.772,0a14.363,14.363,0,0,0,.3,8.908,1.706,1.706,0,0,1-2.171,2.236c-2.111-.774-3.441-2.434-3.86-5.982V0Z" transform="translate(79.506)" fill="#fbc072"/>
          </g>
          <g id="g5155" transform="translate(5.954 2.662)">
            <path id="path5157" d="M0-240.114a18.686,18.686,0,0,1,18.665-18.665A18.686,18.686,0,0,1,37.33-240.114Z" transform="translate(0 258.779)" fill="#fccb88"/>
          </g>
          <g id="g5159" transform="translate(35.721 17.872)">
            <path id="path5161" d="M0-56.191a4.368,4.368,0,0,0,4.368,4.368,4.368,4.368,0,0,0,4.368-4.368,4.368,4.368,0,0,0-4.368-4.368A4.368,4.368,0,0,0,0-56.191" transform="translate(0 60.559)" fill="#ffcabd"/>
          </g>
          <g id="g5163" transform="translate(0.721 2.195)">
            <path id="path5165" d="M-254.4-11.917A18.531,18.531,0,0,0-259.01-10.2a5.648,5.648,0,0,0-1.95-1.869,5.712,5.712,0,0,0-7.768,2.018,11.5,11.5,0,0,1-1.208,1.716,6.761,6.761,0,0,1-3.151,2.2,1.425,1.425,0,0,0-.838,2.192c1.267,1.829,3.378,3.862,6.1,2.812l.008,0a4.411,4.411,0,0,0,.523-.242,18.553,18.553,0,0,0-1.65,7.669h6.174c-.015-.336-.024-.674-.024-1.014A21.763,21.763,0,0,1-254.4-11.917" transform="translate(274.179 12.843)" fill="#fbc072"/>
          </g>
          <g id="g5167" transform="translate(9.151 10.982)">
            <path id="path5169" d="M-393.055-88.852a10.7,10.7,0,0,0-8.048-3.64,7.681,7.681,0,0,1-6.165-2.852,1.125,1.125,0,0,0-1.745,0,7.681,7.681,0,0,1-6.165,2.852,10.7,10.7,0,0,0-8.048,3.64,15.523,15.523,0,0,0-.384,3.506,15.582,15.582,0,0,0,15.72,15.4,15.469,15.469,0,0,0,15.218-15.467,15.519,15.519,0,0,0-.384-3.438" transform="translate(423.609 95.759)" fill="#ffd8d2"/>
          </g>
          <g id="g5171" transform="translate(4.783 15.452)">
            <path id="path5173" d="M-171.215-255.584a21.727,21.727,0,0,1-5.988-15.008,21.867,21.867,0,0,1,.545-4.86,10.213,10.213,0,0,0-3.114,2.436v0c-.121-.012-.248-.019-.384-.019a4.368,4.368,0,0,0-4.368,4.368,4.368,4.368,0,0,0,4.368,4.368,3.116,3.116,0,0,0,.905-.12,15.747,15.747,0,0,0,8.036,8.832" transform="translate(184.525 275.451)" fill="#ffcabd"/>
          </g>
          <g id="g5175" transform="translate(12.145 21.986)">
            <path id="path5177" d="M-86.506-34.445c0,1.479-1.505,2.678-3.362,2.678s-3.362-1.2-3.362-2.678,1.505-2.678,3.362-2.678,3.362,1.2,3.362,2.678" transform="translate(93.23 37.123)" fill="#ff9db0"/>
          </g>
          <g id="g5179" transform="translate(30.37 21.986)">
            <path id="path5181" d="M0-34.445c0,1.479,1.505,2.678,3.362,2.678s3.362-1.2,3.362-2.678-1.505-2.678-3.362-2.678S0-35.924,0-34.445" transform="translate(0 37.123)" fill="#ff9db0"/>
          </g>
          <g id="g5183" transform="translate(12.984 42.835)">
            <path id="path5185" d="M-30.805-21.751a11.166,11.166,0,0,1,.128-1.691h-2a16.467,16.467,0,0,0-.528,4.21h2.682a11.084,11.084,0,0,1-.288-2.519" transform="translate(33.2 23.441)" fill="#ffcabd"/>
          </g>
          <g id="g5187" transform="translate(17.467 20.712)">
            <path id="path5189" d="M0,0V1.374" fill="none" stroke="#000" stroke-linecap="round" stroke-linejoin="round" stroke-miterlimit="10" stroke-width="1"/>
          </g>
          <g id="g5191" transform="translate(31.772 20.712)">
            <path id="path5193" d="M0,0V1.374" fill="none" stroke="#000" stroke-linecap="round" stroke-linejoin="round" stroke-miterlimit="10" stroke-width="1"/>
          </g>
          <g id="g5195" transform="translate(22.734 22.045)">
            <path id="path5197" d="M0,0A2.5,2.5,0,0,0,1.886.859,2.5,2.5,0,0,0,3.772,0" fill="none" stroke="#000" stroke-linecap="round" stroke-linejoin="round" stroke-miterlimit="10" stroke-width="1"/>
          </g>
          <g id="g5199" transform="translate(24.041 41.667)">
            <path id="path5201" d="M-14.877-7.44a.578.578,0,0,1-.578.578.578.578,0,0,1-.578-.578.578.578,0,0,1,.578-.578.578.578,0,0,1,.578.578" transform="translate(16.033 8.019)"/>
          </g>
          <g id="g5203" transform="translate(24.041 44.257)">
            <path id="path5205" d="M-14.877-7.439a.578.578,0,0,1-.578.578.578.578,0,0,1-.578-.578.578.578,0,0,1,.578-.578.578.578,0,0,1,.578.578" transform="translate(16.033 8.017)"/>
          </g>
          <g id="g5207" transform="translate(6.608 26.24)">
            <path id="path5209" d="M-44.448-3.5a4.388,4.388,0,0,1-.912.1,4.352,4.352,0,0,1-1.755-.368,13.687,13.687,0,0,1-.658,7.323A1.706,1.706,0,0,0-45.6,5.789C-43.735,5.1-42.48,3.726-41.924.964A15.57,15.57,0,0,1-44.448-3.5Z" transform="translate(47.903 3.771)" fill="none" stroke="#000" stroke-linecap="round" stroke-linejoin="round" stroke-miterlimit="10" stroke-width="1"/>
          </g>
          <g id="g5211" transform="translate(36.664 26.24)">
            <path id="path5213" d="M-66.63,0a4.351,4.351,0,0,1-1.755.368,4.391,4.391,0,0,1-.893-.092,15.448,15.448,0,0,1-2.531,4.516C-71.248,7.517-70,8.88-68.143,9.559a1.706,1.706,0,0,0,2.171-2.236A13.688,13.688,0,0,1-66.63,0Z" transform="translate(71.809)" fill="none" stroke="#000" stroke-linecap="round" stroke-linejoin="round" stroke-miterlimit="10" stroke-width="1"/>
          </g>
          <g id="g5215" transform="translate(0.721 2.195)">
            <path id="path5217" d="M-155.117-60.663a18.727,18.727,0,0,1,3.11-2.078,5.649,5.649,0,0,0-1.95-1.868,5.711,5.711,0,0,0-7.768,2.018,11.51,11.51,0,0,1-1.208,1.716,6.763,6.763,0,0,1-3.151,2.2,1.425,1.425,0,0,0-.838,2.192c1.267,1.829,3.378,3.862,6.1,2.812l.008,0a4.441,4.441,0,0,0,.525-.243,18.726,18.726,0,0,1,3.115-4.773" transform="translate(167.176 65.379)" fill="none" stroke="#000" stroke-linecap="round" stroke-linejoin="round" stroke-miterlimit="10" stroke-width="1"/>
          </g>
          <g id="g5219" transform="translate(33.35 2.195)">
            <path id="path5221" d="M-181.084-86.244a6.763,6.763,0,0,1-3.151-2.2,11.511,11.511,0,0,1-1.208-1.716,5.711,5.711,0,0,0-7.768-2.018,5.65,5.65,0,0,0-1.95,1.868,18.786,18.786,0,0,1,8.283,8.824,4.44,4.44,0,0,0,.525.243l.008,0c2.722,1.05,4.832-.983,6.1-2.812A1.425,1.425,0,0,0-181.084-86.244Z" transform="translate(195.161 92.948)" fill="none" stroke="#000" stroke-linecap="round" stroke-linejoin="round" stroke-miterlimit="10" stroke-width="1"/>
          </g>
          <g id="g5223" transform="translate(6.084 2.661)">
            <path id="path5225" d="M-59.643-80.028A18.6,18.6,0,0,0-64.28-69.78a4.353,4.353,0,0,1,3.066-1.258c.13,0,.257.007.384.018h0a10.7,10.7,0,0,1,8.048-3.64,7.681,7.681,0,0,0,6.165-2.852,1.125,1.125,0,0,1,1.745,0,7.681,7.681,0,0,0,6.165,2.852,10.7,10.7,0,0,1,8.048,3.64h0c.127-.011.254-.018.384-.018a4.354,4.354,0,0,1,3.066,1.258A18.692,18.692,0,0,0-45.745-86.249,18.576,18.576,0,0,0-57.586-82" transform="translate(64.28 86.249)" fill="none" stroke="#000" stroke-linecap="round" stroke-linejoin="round" stroke-miterlimit="10" stroke-width="1"/>
          </g>
          <g id="g5227" transform="translate(4.783 17.872)">
            <path id="path5229" d="M-56.193-45.316a15.526,15.526,0,0,1,.384-3.5c-.127-.011-.254-.018-.384-.018a4.368,4.368,0,0,0-4.368,4.368A4.368,4.368,0,0,0-56.193-40.1a4.388,4.388,0,0,0,.912-.1A15.169,15.169,0,0,1-56.193-45.316Z" transform="translate(60.561 48.839)" fill="none" stroke="#000" stroke-linecap="round" stroke-linejoin="round" stroke-miterlimit="10" stroke-width="1"/>
          </g>
          <g id="g5231" transform="translate(39.196 17.872)">
            <path id="path5233" d="M-11.486,0c-.129,0-.257.007-.384.018a15.517,15.517,0,0,1,.384,3.437,15.442,15.442,0,0,1-.893,5.19,4.39,4.39,0,0,0,.893.092A4.368,4.368,0,0,0-7.118,4.368,4.368,4.368,0,0,0-11.486,0Z" transform="translate(12.379)" fill="none" stroke="#000" stroke-linecap="round" stroke-linejoin="round" stroke-miterlimit="10" stroke-width="1"/>
          </g>
          <g id="g5235" transform="translate(24.62 35.993)">
            <path id="path5237" d="M-3.231-10.307c-.084,0-.168,0-.251,0v1.247A2.465,2.465,0,0,0-1.018-6.594,2.465,2.465,0,0,0,1.447-9.059v-2.049A15.44,15.44,0,0,1-3.231-10.307Z" transform="translate(3.483 11.108)" fill="none" stroke="#000" stroke-linecap="round" stroke-linejoin="round" stroke-miterlimit="10" stroke-width="1"/>
          </g>
          <g id="g5239" transform="translate(19.69 35.97)">
            <path id="path5241" d="M0,0V2.071a2.465,2.465,0,0,0,4.93,0V.824A15.18,15.18,0,0,1,0,0Z" fill="none" stroke="#000" stroke-linecap="round" stroke-linejoin="round" stroke-miterlimit="10" stroke-width="1"/>
          </g>
          <g id="g5243" transform="translate(9.151 10.982)">
            <path id="path5245" d="M-393.055-88.852a10.7,10.7,0,0,0-8.048-3.64,7.681,7.681,0,0,1-6.165-2.852,1.125,1.125,0,0,0-1.745,0,7.681,7.681,0,0,1-6.165,2.852,10.7,10.7,0,0,0-8.048,3.64,15.524,15.524,0,0,0-.384,3.506,15.582,15.582,0,0,0,15.72,15.4,15.469,15.469,0,0,0,15.218-15.467A15.519,15.519,0,0,0-393.055-88.852Z" transform="translate(423.609 95.759)" fill="none" stroke="#000" stroke-linecap="round" stroke-linejoin="round" stroke-miterlimit="10" stroke-width="1"/>
          </g>
          <g id="g5247" transform="translate(12.984 42.835)">
            <path id="path5249" d="M-63.836,0V4.21H-68.8A16.467,16.467,0,0,1-68.271,0Z" transform="translate(68.798)" fill="none" stroke="#000" stroke-linecap="round" stroke-linejoin="round" stroke-miterlimit="10" stroke-width="1"/>
          </g>
          <g id="g5251" transform="translate(13.512 35.43)">
            <path id="path5253" d="M-254.865-30.724a11.21,11.21,0,0,0-2.339-2.388h0a15.4,15.4,0,0,1-6.111,1.364,15.216,15.216,0,0,1-6.541-1.364h-.075a13.469,13.469,0,0,0-4.743,7.405h4.435v4.21h13.347v-4.21h4.435a14.812,14.812,0,0,0-.929-2.562" transform="translate(274.677 33.112)" fill="none" stroke="#000" stroke-linecap="round" stroke-linejoin="round" stroke-miterlimit="10" stroke-width="1"/>
          </g>
          <g id="g5255" transform="translate(31.293 42.835)">
            <path id="path5257" d="M-63.836-54.155H-68.8v-4.21h4.435A16.471,16.471,0,0,1-63.836-54.155Z" transform="translate(68.798 58.365)" fill="none" stroke="#000" stroke-linecap="round" stroke-linejoin="round" stroke-miterlimit="10" stroke-width="1"/>
          </g>
        </g>
      </g>
    </g>
  </g>
</svg>
