<svg xmlns="http://www.w3.org/2000/svg" xmlns:xlink="http://www.w3.org/1999/xlink" width="103" height="103" viewBox="0 0 103 103">
  <defs>
    <filter id="Trazado_978624" x="0" y="0" width="103" height="103" filterUnits="userSpaceOnUse">
      <feOffset dy="3" input="SourceAlpha"/>
      <feGaussianBlur stdDeviation="3" result="blur"/>
      <feFlood flood-opacity="0.161"/>
      <feComposite operator="in" in2="blur"/>
      <feComposite in="SourceGraphic"/>
    </filter>
  </defs>
  <g id="Grupo_1180311" data-name="Grupo 1180311" transform="translate(-611 -3680)">
    <g id="Grupo_1164359" data-name="Grupo 1164359" transform="translate(620 3686)">
      <g id="Grupo_1144531" data-name="Grupo 1144531">
        <g transform="matrix(1, 0, 0, 1, -9, -6)" filter="url(#Trazado_978624)">
          <g id="Trazado_978624-2" data-name="Trazado 978624" transform="translate(9 6)" fill="#fbf4c9">
            <path d="M 42.5 83.5 C 36.96437835693359 83.5 31.59512901306152 82.41617584228516 26.54141235351562 80.27863311767578 C 21.65934181213379 78.21369171142578 17.27447128295898 75.25723266601562 13.50862312316895 71.49137878417969 C 9.742764472961426 67.72553253173828 6.786305904388428 63.34066009521484 4.721364498138428 58.45858764648438 C 2.583823442459106 53.40486907958984 1.5 48.03562164306641 1.5 42.5 C 1.5 36.96437835693359 2.583823442459106 31.59512901306152 4.721364498138428 26.54141235351562 C 6.786305904388428 21.65934181213379 9.742764472961426 17.27447128295898 13.50862312316895 13.50862312316895 C 17.27447128295898 9.742764472961426 21.65934181213379 6.786305904388428 26.54141235351562 4.721364498138428 C 31.59512901306152 2.583823442459106 36.96437835693359 1.5 42.5 1.5 C 48.03562164306641 1.5 53.40486907958984 2.583823442459106 58.45858764648438 4.721364498138428 C 63.34066009521484 6.786305904388428 67.72553253173828 9.742764472961426 71.49137878417969 13.50862312316895 C 75.25723266601562 17.27447128295898 78.21369171142578 21.65934181213379 80.27863311767578 26.54141235351562 C 82.41617584228516 31.59512901306152 83.5 36.96437835693359 83.5 42.5 C 83.5 48.03562164306641 82.41617584228516 53.40486907958984 80.27863311767578 58.45858764648438 C 78.21369171142578 63.34066009521484 75.25723266601562 67.72553253173828 71.49137878417969 71.49137878417969 C 67.72553253173828 75.25723266601562 63.34066009521484 78.21369171142578 58.45858764648438 80.27863311767578 C 53.40486907958984 82.41617584228516 48.03562164306641 83.5 42.5 83.5 Z" stroke="none"/>
            <path d="M 42.5 3 C 37.16621398925781 3 31.99356079101562 4.043960571289062 27.125732421875 6.102882385253906 C 22.42246627807617 8.092185974121094 18.19785308837891 10.94070434570312 14.56928253173828 14.56928253173828 C 10.94070434570312 18.19785308837891 8.092185974121094 22.42246627807617 6.102882385253906 27.125732421875 C 4.043960571289062 31.99356079101562 3 37.16621398925781 3 42.5 C 3 47.83378601074219 4.043960571289062 53.00643920898438 6.102882385253906 57.87425231933594 C 8.092185974121094 62.57753372192383 10.94070434570312 66.80213165283203 14.56928253173828 70.43071746826172 C 18.19786834716797 74.05929565429688 22.42246627807617 76.90781402587891 27.125732421875 78.89711761474609 C 31.99356079101562 80.95603942871094 37.16621398925781 82 42.5 82 C 47.83378601074219 82 53.00642395019531 80.95603942871094 57.87425231933594 78.89711761474609 C 62.57753372192383 76.90781402587891 66.80213165283203 74.05929565429688 70.43071746826172 70.43071746826172 C 74.05929565429688 66.80213165283203 76.90781402587891 62.57753372192383 78.89711761474609 57.87425231933594 C 80.95603942871094 53.00642395019531 82 47.83378601074219 82 42.5 C 82 37.16621398925781 80.95603942871094 31.99356079101562 78.89711761474609 27.125732421875 C 76.90781402587891 22.42246627807617 74.05929565429688 18.19786834716797 70.43071746826172 14.56928253173828 C 66.80213165283203 10.94070434570312 62.57753372192383 8.092185974121094 57.87425231933594 6.102882385253906 C 53.00643920898438 4.043960571289062 47.83378601074219 3 42.5 3 M 42.5 0 C 65.97209167480469 0 85 19.02789306640625 85 42.5 C 85 65.97209167480469 65.97209167480469 85 42.5 85 C 19.02789306640625 85 0 65.97209167480469 0 42.5 C 0 19.02789306640625 19.02789306640625 0 42.5 0 Z" stroke="none" fill="#bcac89"/>
          </g>
        </g>
      </g>
    </g>
    <g id="bloques_1_" data-name="bloques (1)" transform="translate(636.002 3675.363)">
      <g id="Grupo_1180309" data-name="Grupo 1180309" transform="translate(0.765 30.403)">
        <path id="Trazado_1043086" data-name="Trazado 1043086" d="M234.786,315.678H224.761v5.664h10.025a2.832,2.832,0,1,0,0-5.664Z" transform="translate(-202.555 -287.209)" fill="#ffcabd"/>
        <path id="Trazado_1043087" data-name="Trazado 1043087" d="M10.9,291.234a2.832,2.832,0,1,0-1.131,5.55l9.823,2,1.131-5.55Z" transform="translate(-7.5 -265.211)" fill="#ffdcce"/>
        <path id="Trazado_1043088" data-name="Trazado 1043088" d="M104.727,324.5c0-6.266-3.229-8.821-3.229-8.821H88.349s-3.229,2.555-3.229,8.821l9.8,3Z" transform="translate(-77.187 -287.208)" fill="#7de2ff"/>
        <path id="Trazado_1043089" data-name="Trazado 1043089" d="M232.977,396.921l-1.658,3.983,1.658,3.983h1.955a3.983,3.983,0,1,0,0-7.966h-1.955Z" transform="translate(-208.443 -360.148)" fill="#696eb1"/>
        <path id="Trazado_1043090" data-name="Trazado 1043090" d="M167.721,400.9a3.983,3.983,0,0,0,3.983,3.984h4.176v-7.966H171.7A3.983,3.983,0,0,0,167.721,400.9Z" transform="translate(-151.345 -360.149)" fill="#ffdcce"/>
        <path id="Trazado_1043091" data-name="Trazado 1043091" d="M62.367,396.921l1.658,3.983-1.658,3.983H60.412a3.983,3.983,0,1,1,0-7.966h1.955Z" transform="translate(-51.427 -360.148)" fill="#696eb1"/>
        <path id="Trazado_1043092" data-name="Trazado 1043092" d="M57.962,405.179a3.982,3.982,0,0,0,2.451,7.122h1.955l.964-2.316C59.8,409.429,58.447,407.6,57.962,405.179Z" transform="translate(-51.428 -367.562)" fill="#4c5698"/>
        <path id="Trazado_1043093" data-name="Trazado 1043093" d="M122.694,400.9a3.983,3.983,0,0,1-3.983,3.984h-4.176v-7.966h4.176A3.983,3.983,0,0,1,122.694,400.9Z" transform="translate(-103.596 -360.149)" fill="#ffdcce"/>
        <path id="Trazado_1043094" data-name="Trazado 1043094" d="M18.91,54.084H15.225A16.948,16.948,0,0,1,32.173,37.135H42.215A4.083,4.083,0,0,1,46.3,41.218a6.18,6.18,0,0,1-3.166,5.394l-.578,1.272Z" transform="translate(-14.435 -37.135)" fill="#d5938c"/>
        <path id="Trazado_1043095" data-name="Trazado 1043095" d="M98.774,318.148a16.163,16.163,0,0,0,8.285,2.338h.124a16.227,16.227,0,0,0,8.413-2.327,7.944,7.944,0,0,0-1.84-2.481H100.608A7.934,7.934,0,0,0,98.774,318.148Z" transform="translate(-89.445 -287.209)" fill="#2ecffb"/>
        <path id="Trazado_1043096" data-name="Trazado 1043096" d="M33.44,37.136H32.173A16.948,16.948,0,0,0,15.225,54.085H18.91l3.878-1.017A17.579,17.579,0,0,1,33.44,37.136Z" transform="translate(-14.435 -37.136)" fill="#cd847b"/>
        <path id="Trazado_1043097" data-name="Trazado 1043097" d="M77.563,134.794a13.173,13.173,0,0,0-2.064-4.94,6.137,6.137,0,0,1-3.01.782h-14.7a6.51,6.51,0,0,0-6.507,6.343q0,.083,0,.165a13.263,13.263,0,1,0,26.284-2.351Z" transform="translate(-46.803 -120.377)" fill="#ffdcce"/>
        <path id="Trazado_1043098" data-name="Trazado 1043098" d="M23.608,159.161a17.6,17.6,0,0,1-5.711-19.44,6.525,6.525,0,0,0-4.115,3.358,3.654,3.654,0,0,0-.8-.084,4.243,4.243,0,0,0,0,8.485,3.4,3.4,0,0,0,1.139-.181A13.353,13.353,0,0,0,23.608,159.161Z" transform="translate(-8.611 -129.236)" fill="#ffcabd"/>
        <g id="Grupo_1180308" data-name="Grupo 1180308" transform="translate(6.271 17.701)">
          <g id="Grupo_1180307" data-name="Grupo 1180307">
            <g id="Grupo_1180305" data-name="Grupo 1180305">
              <ellipse id="Elipse_12503" data-name="Elipse 12503" cx="3.091" cy="2.461" rx="3.091" ry="2.461" fill="#ff8d9d"/>
            </g>
            <g id="Grupo_1180306" data-name="Grupo 1180306" transform="translate(16.752)">
              <ellipse id="Elipse_12504" data-name="Elipse 12504" cx="3.091" cy="2.461" rx="3.091" ry="2.461" transform="translate(0)" fill="#ff8d9d"/>
            </g>
          </g>
        </g>
        <path id="Trazado_1043099" data-name="Trazado 1043099" d="M404.085,210.249l-3.425-5.208-3.425,5.208a2.168,2.168,0,0,0-2.168,2.168v6.849a2.168,2.168,0,0,0,2.168,2.168l3.425,5.931,3.425-5.931a2.168,2.168,0,0,0,2.168-2.168v-6.849A2.168,2.168,0,0,0,404.085,210.249Z" transform="translate(-355.455 -187.88)" fill="#c8a9f1"/>
        <path id="Trazado_1043100" data-name="Trazado 1043100" d="M404.085,37.135h-6.849a2.168,2.168,0,0,0-2.168,2.168v6.849a2.168,2.168,0,0,0,2.168,2.168L400.66,54.3l3.425-5.976a2.168,2.168,0,0,0,2.168-2.168V39.3A2.168,2.168,0,0,0,404.085,37.135Z" transform="translate(-355.455 -37.135)" fill="#ff8d9d"/>
        <path id="Trazado_1043101" data-name="Trazado 1043101" d="M404.085,146.568h-6.849a2.168,2.168,0,0,0-2.168,2.168v6.849a2.168,2.168,0,0,0,2.168,2.168h6.849a2.168,2.168,0,0,0,2.168-2.168v-6.849A2.168,2.168,0,0,0,404.085,146.568Z" transform="translate(-355.455 -135.383)" fill="#71dbba"/>
        <path id="Trazado_1043102" data-name="Trazado 1043102" d="M404.085,365.432h-6.849a2.168,2.168,0,0,0-2.168,2.168v6.849a2.168,2.168,0,0,0,2.168,2.168h6.849a2.168,2.168,0,0,0,2.168-2.168V367.6A2.168,2.168,0,0,0,404.085,365.432Z" transform="translate(-355.455 -331.877)" fill="#fce29f"/>
        <path id="Trazado_1043103" data-name="Trazado 1043103" d="M117.991,440.81a14.064,14.064,0,0,1-3.455-.373v2.512h4.176a3.982,3.982,0,0,0,3.966-3.633A8.069,8.069,0,0,1,117.991,440.81Z" transform="translate(-103.596 -398.21)" fill="#ffcabd"/>
        <path id="Trazado_1043104" data-name="Trazado 1043104" d="M398.015,369.69a8.126,8.126,0,0,1,1.2-4.257h-1.977a2.168,2.168,0,0,0-2.168,2.168v6.849a2.168,2.168,0,0,0,2.168,2.168h4.626A8.157,8.157,0,0,1,398.015,369.69Z" transform="translate(-355.454 -331.878)" fill="#ffcd71"/>
        <path id="Trazado_1043105" data-name="Trazado 1043105" d="M398.015,260.258a8.126,8.126,0,0,1,1.2-4.257h-1.977a2.168,2.168,0,0,0-2.168,2.168v6.849a2.168,2.168,0,0,0,2.168,2.168h4.626A8.157,8.157,0,0,1,398.015,260.258Z" transform="translate(-355.454 -233.631)" fill="#b18ae3"/>
        <path id="Trazado_1043106" data-name="Trazado 1043106" d="M398.015,150.825a8.126,8.126,0,0,1,1.2-4.257h-1.977a2.168,2.168,0,0,0-2.168,2.168v6.849a2.168,2.168,0,0,0,2.168,2.168h4.626A8.157,8.157,0,0,1,398.015,150.825Z" transform="translate(-355.454 -135.383)" fill="#30cc9b"/>
        <path id="Trazado_1043107" data-name="Trazado 1043107" d="M398.015,41.393a8.126,8.126,0,0,1,1.2-4.257h-1.977a2.168,2.168,0,0,0-2.168,2.168v6.849a2.168,2.168,0,0,0,2.168,2.168h4.626A8.157,8.157,0,0,1,398.015,41.393Z" transform="translate(-355.454 -37.136)" fill="#e95b70"/>
      </g>
      <g id="Grupo_1180310" data-name="Grupo 1180310" transform="translate(-0.002 29.637)">
        <path id="Trazado_1043108" data-name="Trazado 1043108" d="M109.218,192.128v1.263a.767.767,0,0,0,1.533,0v-1.263a.767.767,0,0,0-1.533,0Z" transform="translate(-98.055 -174.831)"/>
        <path id="Trazado_1043109" data-name="Trazado 1043109" d="M237.873,192.128v1.263a.767.767,0,0,0,1.533,0v-1.263a.767.767,0,0,0-1.533,0Z" transform="translate(-213.56 -174.831)"/>
        <path id="Trazado_1043110" data-name="Trazado 1043110" d="M160.241,203.616a1.531,1.531,0,0,1-2.311,0,.767.767,0,1,0-1.156,1.007,3.064,3.064,0,0,0,4.623,0,.767.767,0,1,0-1.156-1.007Z" transform="translate(-140.581 -185.598)"/>
        <path id="Trazado_1043111" data-name="Trazado 1043111" d="M397.352,29.637H390.5a2.938,2.938,0,0,0-2.934,2.934V39.42a2.927,2.927,0,0,0,.959,2.168,2.927,2.927,0,0,0-.959,2.168v6.849a2.927,2.927,0,0,0,.959,2.168,2.927,2.927,0,0,0-.959,2.168V61.79a2.928,2.928,0,0,0,.959,2.168,2.927,2.927,0,0,0-.959,2.168v6.849a2.938,2.938,0,0,0,2.934,2.934h6.849a2.938,2.938,0,0,0,2.934-2.934V66.126a2.927,2.927,0,0,0-.959-2.168,2.928,2.928,0,0,0,.959-2.168V54.941a2.927,2.927,0,0,0-.959-2.168,2.927,2.927,0,0,0,.959-2.168V43.756a2.927,2.927,0,0,0-.959-2.168,2.927,2.927,0,0,0,.959-2.168V32.571A2.938,2.938,0,0,0,397.352,29.637Zm1.4,36.489v6.849a1.4,1.4,0,0,1-1.4,1.4H390.5a1.4,1.4,0,0,1-1.4-1.4V66.126a1.4,1.4,0,0,1,1.4-1.4h6.849A1.4,1.4,0,0,1,398.753,66.126Zm0-11.185V61.79a1.4,1.4,0,0,1-1.4,1.4H390.5a1.4,1.4,0,0,1-1.4-1.4V54.941a1.4,1.4,0,0,1,1.4-1.4h6.849a1.4,1.4,0,0,1,1.4,1.4Zm0-11.185v6.849a1.4,1.4,0,0,1-1.4,1.4H390.5a1.4,1.4,0,0,1-1.4-1.4V43.756a1.4,1.4,0,0,1,1.4-1.4h6.849A1.4,1.4,0,0,1,398.753,43.756Zm-8.25-2.934a1.4,1.4,0,0,1-1.4-1.4V32.571a1.4,1.4,0,0,1,1.4-1.4h6.849a1.4,1.4,0,0,1,1.4,1.4V39.42a1.4,1.4,0,0,1-1.4,1.4H390.5Z" transform="translate(-347.955 -29.637)"/>
        <path id="Trazado_1043112" data-name="Trazado 1043112" d="M7.958,66.763A4.749,4.749,0,0,0,9.75,75.91h6.131a4.72,4.72,0,0,0,2.62-.791,4.744,4.744,0,0,0,2.623.791h6.131a4.749,4.749,0,0,0,1.792-9.148c-.026-.512-.074-1-.138-1.459H33a3.6,3.6,0,0,0,0-7.2H27.517a14.241,14.241,0,0,0,2.074-2.16.766.766,0,1,0-1.211-.94,12.469,12.469,0,0,1-16.046,3.2h0a12.522,12.522,0,0,1-6.3-9.972,6.576,6.576,0,0,1,.585-3.65h0a5.739,5.739,0,0,1,5.129-3.156h14.7a6.967,6.967,0,0,0,2.736-.561,12.323,12.323,0,0,1,1.585,4.1A12.648,12.648,0,0,1,31,47.353a12.392,12.392,0,0,1-1.13,5.2.767.767,0,1,0,1.394.639,13.916,13.916,0,0,0,1.269-5.838,14.19,14.19,0,0,0-.255-2.678,13.848,13.848,0,0,0-1.757-4.563,6.917,6.917,0,0,0,2.873-5.625,4.855,4.855,0,0,0-4.849-4.849H18.5a17.714,17.714,0,0,0-8.374,2.108.767.767,0,1,0,.727,1.35A16.176,16.176,0,0,1,18.5,31.171H28.544a3.32,3.32,0,0,1,3.316,3.316A5.408,5.408,0,0,1,26.451,39.9h-14.7a7.248,7.248,0,0,0-6.23,3.515,5.019,5.019,0,0,0-2.861.638,16.017,16.017,0,0,1,.975-3.083,16.319,16.319,0,0,1,4.732-6.219.767.767,0,1,0-.962-1.194A17.857,17.857,0,0,0,2.227,40.36,17.56,17.56,0,0,0,.857,45.8a5.007,5.007,0,0,0,4.975,7.564,14.059,14.059,0,0,0,1.954,3.018l-3.469-.707a3.6,3.6,0,0,0-1.438,7.052L8.37,63.847a15.9,15.9,0,0,0-.412,2.915Zm-1.426,4.4A3.221,3.221,0,0,1,9.75,67.944h1.189v6.433H9.75A3.221,3.221,0,0,1,6.533,71.16Zm5.939,3.217V67.944h3.409a3.217,3.217,0,0,1,0,6.433Zm7.195-.35a4.745,4.745,0,0,0,0-5.733,3.2,3.2,0,0,1,1.457-.351h3.409v6.433H21.124A3.21,3.21,0,0,1,19.666,74.027ZM30.472,71.16a3.221,3.221,0,0,1-3.217,3.217H26.066V67.944h1.189A3.221,3.221,0,0,1,30.472,71.16Zm-3.217-4.749H21.124a4.819,4.819,0,0,0-2.621.79,4.757,4.757,0,0,0-2.621-.79H9.718c-.067,0-.134,0-.2,0a11.274,11.274,0,0,1,2.544-6.6,13.914,13.914,0,0,0,6.335,1.57h0a14,14,0,0,0,6.556-1.559,11.219,11.219,0,0,1,2.535,6.594c-.066,0-.133,0-.2,0h-.034Zm7.806-4.705A2.068,2.068,0,0,1,33,63.771H28.618a12.189,12.189,0,0,0-1.843-4.131H33a2.068,2.068,0,0,1,2.065,2.065ZM5.134,51.882a3.475,3.475,0,0,1-.312-6.936A8.7,8.7,0,0,0,4.5,48.288a13.92,13.92,0,0,0,.719,3.593ZM8.811,62.372,3.185,61.226a2.065,2.065,0,0,1,.825-4.048l5.821,1.187q.432.343.887.648a11.116,11.116,0,0,0-1.907,3.36Z" transform="translate(0.002 -29.638)"/>
      </g>
    </g>
  </g>
</svg>
