<svg id="madre" xmlns="http://www.w3.org/2000/svg" width="71.921" height="76.853" viewBox="0 0 71.921 76.853">
  <g id="Grupo_1180094" data-name="Grupo 1180094" transform="translate(0.994 23.285)">
    <path id="Trazado_1042687" data-name="Trazado 1042687" d="M50.47,133.534l-.058-.409H17.6l-.058.409a36.723,36.723,0,0,1-7.653,17.594A10.236,10.236,0,0,0,7.5,157.509c0,8.476,11.868,15.347,26.508,15.347s26.508-6.871,26.508-15.347a10.236,10.236,0,0,0-2.393-6.381A36.725,36.725,0,0,1,50.47,133.534Z" transform="translate(-7.5 -133.125)" fill="#e7886e"/>
  </g>
  <g id="Grupo_1180095" data-name="Grupo 1180095" transform="translate(7.626 47.917)">
    <path id="Trazado_1042688" data-name="Trazado 1042688" d="M71.4,293.682S54.945,298.3,57.891,316.1a6.621,6.621,0,0,0,6.536,5.529H90.77V293.682Z" transform="translate(-57.538 -293.682)" fill="#ff9db0"/>
  </g>
  <g id="Grupo_1180098" data-name="Grupo 1180098" transform="translate(4.812 0.994)">
    <g id="Grupo_1180096" data-name="Grupo 1180096">
      <path id="Trazado_1042689" data-name="Trazado 1042689" d="M59,7.5A22.7,22.7,0,0,0,36.942,35.53H53.45Z" transform="translate(-36.308 -7.5)" fill="#e7886e"/>
    </g>
    <g id="Grupo_1180097" data-name="Grupo 1180097" transform="translate(15.32)">
      <path id="Trazado_1042690" data-name="Trazado 1042690" d="M181.321,35.53A22.7,22.7,0,0,0,159.265,7.5c-9.149,3-8.186,14.888-5.548,18.534v9.5Z" transform="translate(-151.895 -7.5)" fill="#ed9b83"/>
    </g>
  </g>
  <g id="Grupo_1180099" data-name="Grupo 1180099" transform="translate(3.325 27.725)">
    <circle id="Elipse_12480" data-name="Elipse 12480" cx="4.903" cy="4.903" r="4.903" fill="#f9bbaf"/>
  </g>
  <g id="Grupo_1180100" data-name="Grupo 1180100" transform="translate(44.8 27.725)">
    <circle id="Elipse_12481" data-name="Elipse 12481" cx="4.903" cy="4.903" r="4.903" fill="#ffcbbe"/>
  </g>
  <g id="Grupo_1180101" data-name="Grupo 1180101" transform="translate(9.58 23.405)">
    <path id="Trazado_1042691" data-name="Trazado 1042691" d="M84.652,145.876a2.214,2.214,0,0,0-2.519.4,8.016,8.016,0,0,1-8.05,2.323l-.011,0a1.056,1.056,0,0,0-1.367.761,17.92,17.92,0,0,0,22.788,21.015Z" transform="translate(-72.277 -145.652)" fill="#ffcbbe"/>
  </g>
  <g id="Grupo_1180102" data-name="Grupo 1180102" transform="translate(22.48 14.252)">
    <path id="Trazado_1042692" data-name="Trazado 1042692" d="M171.364,85.958a2.128,2.128,0,0,0-3.142,1.2l-.008.026c-1.684,5.261-6.557,8.4-10.885,7.018a6.769,6.769,0,0,1-.921-.371l-.022-.01a18.489,18.489,0,0,0,10.834,24.5h0a17.917,17.917,0,0,0,4.145-32.358Z" transform="translate(-154.97 -85.642)" fill="#ffded0"/>
  </g>
  <g id="Grupo_1180109" data-name="Grupo 1180109" transform="translate(13.674 27.963)">
    <g id="Grupo_1180105" data-name="Grupo 1180105" transform="translate(0 2.8)">
      <g id="Grupo_1180103" data-name="Grupo 1180103">
        <ellipse id="Elipse_12482" data-name="Elipse 12482" cx="4.087" cy="3.255" rx="4.087" ry="3.255" fill="#ffa1ac"/>
      </g>
      <g id="Grupo_1180104" data-name="Grupo 1180104" transform="translate(22.151)">
        <ellipse id="Elipse_12483" data-name="Elipse 12483" cx="4.087" cy="3.255" rx="4.087" ry="3.255" fill="#ffa1ac"/>
      </g>
    </g>
    <g id="Grupo_1180106" data-name="Grupo 1180106" transform="translate(5.474 0.297)">
      <path id="Trazado_1042693" data-name="Trazado 1042693" d="M135.4,188.709a.994.994,0,0,1-.994-.994v-1.59a.994.994,0,0,1,1.988,0v1.59A.994.994,0,0,1,135.4,188.709Z" transform="translate(-134.405 -185.13)"/>
    </g>
    <g id="Grupo_1180107" data-name="Grupo 1180107" transform="translate(11.876 1.878)">
      <path id="Trazado_1042694" data-name="Trazado 1042694" d="M185.992,200.09a4.035,4.035,0,0,1-3.042-1.385.994.994,0,0,1,1.5-1.306,2.044,2.044,0,0,0,3.086,0,.994.994,0,1,1,1.5,1.306A4.035,4.035,0,0,1,185.992,200.09Z" transform="translate(-182.706 -197.057)"/>
    </g>
    <g id="Grupo_1180108" data-name="Grupo 1180108" transform="translate(21.326)">
      <path id="Trazado_1042695" data-name="Trazado 1042695" d="M258.686,186.72a.994.994,0,0,1-.994-.994.849.849,0,0,0-1.7,0,.994.994,0,0,1-1.988,0,2.837,2.837,0,0,1,5.674,0A.994.994,0,0,1,258.686,186.72Z" transform="translate(-254.006 -182.889)"/>
    </g>
  </g>
  <g id="Grupo_1180110" data-name="Grupo 1180110" transform="translate(39.478 64.448)">
    <path id="Trazado_1042696" data-name="Trazado 1042696" d="M271.009,429.818h16.285a3.766,3.766,0,0,0,2.952-6.112,14.265,14.265,0,0,0-22.189,0A3.766,3.766,0,0,0,271.009,429.818Z" transform="translate(-267.223 -418.407)" fill="#5c586f"/>
  </g>
  <g id="Grupo_1180111" data-name="Grupo 1180111" transform="translate(33.076 34.656)">
    <path id="Trazado_1042697" data-name="Trazado 1042697" d="M252.192,220.044a17.06,17.06,0,0,0-22.929,20.535h13.126Z" transform="translate(-228.578 -218.734)" fill="#e7886e"/>
  </g>
  <g id="Grupo_1180112" data-name="Grupo 1180112" transform="translate(47.482 36.058)">
    <path id="Trazado_1042698" data-name="Trazado 1042698" d="M338.1,228.616a17.07,17.07,0,0,0-9.8,20.535H347.9a17.07,17.07,0,0,0-9.8-20.535Z" transform="translate(-327.614 -228.616)" fill="#ed9b83"/>
  </g>
  <g id="Grupo_1180113" data-name="Grupo 1180113" transform="translate(29.699 53.228)">
    <circle id="Elipse_12484" data-name="Elipse 12484" cx="3.776" cy="3.776" r="3.776" fill="#f9bbaf"/>
  </g>
  <g id="Grupo_1180114" data-name="Grupo 1180114" transform="translate(63.375 53.228)">
    <circle id="Elipse_12485" data-name="Elipse 12485" cx="3.776" cy="3.776" r="3.776" fill="#ffcbbe"/>
  </g>
  <g id="Grupo_1180115" data-name="Grupo 1180115" transform="translate(36.43 48.906)">
    <path id="Trazado_1042699" data-name="Trazado 1042699" d="M265.158,301.144h-5.449a4.539,4.539,0,0,0-4.109,2.6A13.649,13.649,0,0,0,271.927,322.6Z" transform="translate(-254.307 -301.144)" fill="#ffcbbe"/>
  </g>
  <g id="Grupo_1180116" data-name="Grupo 1180116" transform="translate(45.723 48.906)">
    <path id="Trazado_1042700" data-name="Trazado 1042700" d="M333.665,309.545a13.585,13.585,0,0,0-1.295-5.808,4.537,4.537,0,0,0-4.107-2.594H317.235A13.644,13.644,0,0,0,324,322.6,13.646,13.646,0,0,0,333.665,309.545Z" transform="translate(-314.341 -301.144)" fill="#ffded0"/>
  </g>
  <g id="Grupo_1180119" data-name="Grupo 1180119" transform="translate(9.58 49.628)">
    <g id="Grupo_1180117" data-name="Grupo 1180117">
      <path id="Trazado_1042701" data-name="Trazado 1042701" d="M87.093,314.047a23.016,23.016,0,0,1-3.214-2.88,24.955,24.955,0,0,1-1.948-2.377,5.334,5.334,0,0,0-8.645,6.251,35.521,35.521,0,0,0,4.4,5.035A33.091,33.091,0,0,0,80.7,322.6Z" transform="translate(-72.278 -306.59)" fill="#ffb2c1"/>
    </g>
    <g id="Grupo_1180118" data-name="Grupo 1180118" transform="translate(8.002 7.436)">
      <path id="Trazado_1042702" data-name="Trazado 1042702" d="M153.763,372.594a5.335,5.335,0,0,0-4.585-5.992,20.77,20.77,0,0,1-9.711-3.889,6.3,6.3,0,0,0-6.388,8.553,31.3,31.3,0,0,0,14.693,5.913A5.335,5.335,0,0,0,153.763,372.594Z" transform="translate(-132.653 -362.692)" fill="#ffded0"/>
    </g>
  </g>
  <g id="Grupo_1180120" data-name="Grupo 1180120" transform="translate(0 0)">
    <path id="Trazado_1042703" data-name="Trazado 1042703" d="M69.3,52A20.444,20.444,0,0,0,57.54,33.277a18.276,18.276,0,0,0-1.72-.665,6.906,6.906,0,0,0-1.612-4.346c.024-.48.039-.964.039-1.444C54.248,12.032,42.988,0,29.147,0s-25.1,12.032-25.1,26.822c0,.48.015.963.039,1.444A7,7,0,0,0,4.3,37.455c-.488.754-1,1.5-1.535,2.218A13.157,13.157,0,0,0,0,47.6c0,4.636,2.646,9.024,7.466,12.414a28.328,28.328,0,0,0-.049,9.638,8.217,8.217,0,0,0,7.967,7.2H58.809a5.009,5.009,0,0,0,4.567-3.084,5.6,5.6,0,0,0-.619-5.672,17,17,0,0,0-1.53-1.755,16.177,16.177,0,0,0,1.353-1.67,16.889,16.889,0,0,0,1.783-3.241,4.77,4.77,0,0,0,2.5.705,5.243,5.243,0,0,0,5.055-5.4A5.472,5.472,0,0,0,69.3,52Zm-2.122-.659c-.1-.007-.208-.011-.313-.011a4.759,4.759,0,0,0-1.456.228,17.2,17.2,0,0,0-1.194-3.9,5.868,5.868,0,0,0-5.306-3.583H41.447a5.87,5.87,0,0,0-5.307,3.587,17.209,17.209,0,0,0-1.192,3.9,4.759,4.759,0,0,0-1.456-.228c-.105,0-.21,0-.313.011.392-9.658,7.867-17.387,17-17.387a15.977,15.977,0,0,1,6.55,1.4,18.142,18.142,0,0,1,10.45,15.991Zm-49.6,10.066c-.328-.307-.653-.618-.97-.937a38.428,38.428,0,0,1-4.537-5.542,5.148,5.148,0,0,1-.691-4.214,4.8,4.8,0,0,1,2.678-3.2,4.4,4.4,0,0,1,5.466,1.654,29.123,29.123,0,0,0,2.147,2.8q.754.868,1.561,1.651A8.076,8.076,0,0,0,17.743,59.9,8.815,8.815,0,0,0,17.583,61.411Zm8.9-7.853a23.6,23.6,0,0,1-2.628-2.423,18.632,18.632,0,0,0,4.442.74q.42.019.84.019a18.931,18.931,0,0,0,1.927-.1c0,.071,0,.142,0,.213a5.362,5.362,0,0,0-2.374,3.072,21.033,21.033,0,0,1-2.2-1.518Zm7.014.027a2.778,2.778,0,0,1,1.2.273q-.02.428-.021.859a17.989,17.989,0,0,0,.217,2.789,20.194,20.194,0,0,1-4.279-1.415A3.008,3.008,0,0,1,33.492,53.585ZM50.179,31.707q-.512,0-1.018.029c.023-.421.035-.844.035-1.265,0-.711-.035-1.42-.1-2.125a3.913,3.913,0,0,1,.479-.032,4.245,4.245,0,0,1,4.092,3.733A18.02,18.02,0,0,0,50.179,31.707ZM29.147,2.252c12.626,0,22.906,10.931,22.992,24.4a5.849,5.849,0,0,0-3.364-.536,22.3,22.3,0,0,0-1.946-5.749,1.02,1.02,0,0,0-1.426-.46,1.166,1.166,0,0,0-.431,1.524,20.251,20.251,0,0,1,2.116,9.039c0,.5-.02,1.011-.056,1.514-8.256,1.467-14.742,8.6-15.82,17.528a16.937,16.937,0,0,1-2.832.113,16.746,16.746,0,0,1-7.358-2.074,6.641,6.641,0,0,0-3.383-2.394c-.022-.024-.046-.048-.071-.071A19.751,19.751,0,0,1,11.22,31.229a20.484,20.484,0,0,1,.414-4.922.037.037,0,0,1,.021-.029.1.1,0,0,1,.083,0l.008,0c3.247,1.11,6.833.024,9.594-2.9a1.237,1.237,0,0,1,1.474-.241l.025.012.006,0a7.958,7.958,0,0,0,1.1.472,8.521,8.521,0,0,0,7.711-1.278,13.668,13.668,0,0,0,5.15-7.4l.005-.017,0-.015a1.291,1.291,0,0,1,.752-.85,1.082,1.082,0,0,1,1.018.109A18.348,18.348,0,0,1,42.267,17.4a1.007,1.007,0,0,0,1.489.055,1.181,1.181,0,0,0,.051-1.591A20.485,20.485,0,0,0,39.7,12.256a3.07,3.07,0,0,0-2.859-.308,3.475,3.475,0,0,0-2.032,2.288l-.006.019a11.428,11.428,0,0,1-4.285,6.194,6.568,6.568,0,0,1-5.928,1.025,5.918,5.918,0,0,1-.833-.358L23.72,21.1l-.012-.006a3.247,3.247,0,0,0-3.852.682c-2.193,2.326-4.985,3.207-7.468,2.358l-.01,0a2.082,2.082,0,0,0-1.77.195,2.3,2.3,0,0,0-1.03,1.494c-.021.1-.038.2-.058.3a5.851,5.851,0,0,0-3.364.536c.085-13.471,10.366-24.4,22.992-24.4ZM4.578,32.741a4.3,4.3,0,0,1,4.143-4.427,3.922,3.922,0,0,1,.479.032,22.951,22.951,0,0,0-.086,2.971,22.479,22.479,0,0,0,.93,5.62,3.919,3.919,0,0,1-1.324.232,4.3,4.3,0,0,1-4.143-4.427ZM2.107,47.6a10.868,10.868,0,0,1,2.309-6.528c.555-.749,1.09-1.523,1.6-2.308a5.866,5.866,0,0,0,4.777.28,21.79,21.79,0,0,0,3.688,6,6.471,6.471,0,0,0-1.217.4,6.99,6.99,0,0,0-3.9,4.666,7.587,7.587,0,0,0,.054,4.125A21.447,21.447,0,0,0,8.031,57.7C4.2,54.813,2.107,51.263,2.107,47.6ZM9.5,69.282a23.557,23.557,0,0,1,1.152-12.627,40.521,40.521,0,0,0,4.519,5.457,36.952,36.952,0,0,0,3.29,2.945,34.491,34.491,0,0,0,3.787,2.609,1.019,1.019,0,0,0,1.433-.438,1.167,1.167,0,0,0-.41-1.531,32.327,32.327,0,0,1-3.3-2.249,6.385,6.385,0,0,1-.161-3.092,5.719,5.719,0,0,1,5.679-4.786,22.278,22.278,0,0,0,10.522,4.416,4.518,4.518,0,0,1,3.047,1.886,5.134,5.134,0,0,1,.907,3.636,4.673,4.673,0,0,1-5.167,4.225,31.445,31.445,0,0,1-7.207-1.906,1.035,1.035,0,0,0-1.355.662,1.15,1.15,0,0,0,.619,1.448,33.444,33.444,0,0,0,7.665,2.029,6.311,6.311,0,0,0,.889.063,6.235,6.235,0,0,0,1.1-.1,5.686,5.686,0,0,0,.94,2.673H15.384A6.07,6.07,0,0,1,9.5,69.282ZM61.474,72.8a2.888,2.888,0,0,1-2.666,1.8H41.4l-.052-.006a2.833,2.833,0,0,1-2.168-1.26,3.378,3.378,0,0,1-.581-2.182,6.988,6.988,0,0,0,2.675-2.841A14.916,14.916,0,0,0,50,71.29h.177a14.594,14.594,0,0,0,4.524-.717,15.2,15.2,0,0,0,4.938-2.733,14.793,14.793,0,0,1,1.477,1.672,3.2,3.2,0,0,1,.356,3.286Zm-.578-9.48a13.557,13.557,0,0,1-6.807,5.1,12.56,12.56,0,0,1-4.064.618,12.915,12.915,0,0,1-8.017-2.946c.016-.1.03-.192.042-.288a7.483,7.483,0,0,0-1.322-5.3,6.647,6.647,0,0,0-3.616-2.574,15.482,15.482,0,0,1-.336-3.212,15.011,15.011,0,0,1,1.27-6.094,3.76,3.76,0,0,1,3.4-2.3H58.911a3.757,3.757,0,0,1,3.4,2.292,15.013,15.013,0,0,1,1.272,6.1,14.847,14.847,0,0,1-2.685,8.6Zm5.969-3.433a2.8,2.8,0,0,1-1.763-.629,17.678,17.678,0,0,0,.587-4.539q0-.432-.021-.859a2.778,2.778,0,0,1,1.2-.273,3.157,3.157,0,0,1,0,6.3Z" transform="translate(0 0)"/>
    <path id="Trazado_1042704" data-name="Trazado 1042704" d="M410.717,340.846a.994.994,0,0,0-.994.994v1.528a.994.994,0,0,0,1.988,0V341.84A.994.994,0,0,0,410.717,340.846Z" transform="translate(-351.358 -289.357)"/>
    <path id="Trazado_1042705" data-name="Trazado 1042705" d="M290.717,340.846a.994.994,0,0,0-.994.994v1.528a.994.994,0,1,0,1.988,0V341.84A.994.994,0,0,0,290.717,340.846Z" transform="translate(-248.956 -289.357)"/>
    <path id="Trazado_1042706" data-name="Trazado 1042706" d="M339.744,352.277a.994.994,0,0,0-1.4.1,1.785,1.785,0,0,1-2.695,0,.994.994,0,1,0-1.5,1.306,3.773,3.773,0,0,0,5.692,0A.994.994,0,0,0,339.744,352.277Z" transform="translate(-286.735 -298.911)"/>
  </g>
</svg>
