<svg xmlns="http://www.w3.org/2000/svg" xmlns:xlink="http://www.w3.org/1999/xlink" width="295" height="210.307" viewBox="0 0 295 210.307">
  <defs>
    <clipPath id="clip-path">
      <rect id="Rectángulo_415811" data-name="Rectángulo 415811" width="295" height="188" transform="translate(285 9277)" fill="#fff" stroke="#707070" stroke-width="1" opacity="0.39"/>
    </clipPath>
  </defs>
  <g id="Grupo_1180633" data-name="Grupo 1180633" transform="translate(-285 -9277)">
    <g id="Enmascarar_grupo_1098827" data-name="Enmascarar grupo 1098827" clip-path="url(#clip-path)">
      <g id="Grupo_1180632" data-name="Grupo 1180632" transform="translate(2651 265.635)">
        <ellipse id="Elipse_12516" data-name="Elipse 12516" cx="109.5" cy="104" rx="109.5" ry="104" transform="translate(-2318 9040)" fill="#effbfe"/>
        <g id="Grupo_1180303" data-name="Grupo 1180303" transform="translate(-2810.226 8935)">
          <ellipse id="Elipse_12498" data-name="Elipse 12498" cx="70.441" cy="10.811" rx="70.441" ry="10.811" transform="translate(550.291 402.351)" fill="#efe8df"/>
          <g id="Grupo_1180302" data-name="Grupo 1180302">
            <path id="Trazado_1043010" data-name="Trazado 1043010" d="M634.136,363.476c-3.115,8.307-7.458,40.349-7.458,40.349-4.966,15.836,13.156,10.61,13.156,10.61s25.866,2.1,25.766-2.69-18.465-11.654-18.465-11.654c.426-3.926,12.8-26.154,15.392-43.74a4.653,4.653,0,0,0,.166-1.183c0-4.9-1.923-15.956-3.858-25.839a150.223,150.223,0,0,1-30.626,9.5Z" fill="#88564a"/>
            <path id="Trazado_1043011" data-name="Trazado 1043011" d="M624.271,322.458l3.938,16.375a150.178,150.178,0,0,0,30.626-9.5c-1.959-10.007-3.93-18.813-3.93-18.813Z" fill="#77463c"/>
            <g id="Grupo_1180266" data-name="Grupo 1180266">
              <g id="Grupo_1180260" data-name="Grupo 1180260">
                <path id="Trazado_1043012" data-name="Trazado 1043012" d="M657.754,404.334c7.6,3.413,10,6.8,10,6.8s-.354,1.107-10.81,2.534A14.9,14.9,0,0,1,657.754,404.334Z" fill="#fff"/>
                <path id="Trazado_1043013" data-name="Trazado 1043013" d="M626.084,402.23c9.933,5.3,21.678-2.242,21.678-2.242,4.135,1.068,7.295,3.135,9.991,4.346a14.894,14.894,0,0,0-.812,9.33c-2.7.368-6.049.757-10.254,1.154-20.522,1.938-21.493-3.616-21.493-3.616A31.908,31.908,0,0,1,626.084,402.23Z" fill="#4ca5a2"/>
              </g>
              <g id="Grupo_1180261" data-name="Grupo 1180261">
                <path id="Trazado_1043014" data-name="Trazado 1043014" d="M625.2,411.2a32.985,32.985,0,0,0,.477,3.33s5.971,1.992,22.1,1.655c18.024-.376,20.285-2.821,20.285-2.821a6.141,6.141,0,0,0-.306-2.236A95.8,95.8,0,0,1,625.2,411.2Z" fill="#fff"/>
              </g>
              <g id="Grupo_1180262" data-name="Grupo 1180262">
                <path id="Trazado_1043015" data-name="Trazado 1043015" d="M650.753,409.395h.022a.255.255,0,0,0,.218-.285,6.606,6.606,0,0,1,2.556-6.28.266.266,0,0,0,.078-.356.242.242,0,0,0-.34-.082,7.257,7.257,0,0,0-2.785,6.775A.254.254,0,0,0,650.753,409.395Z" fill="#429797"/>
              </g>
              <g id="Grupo_1180263" data-name="Grupo 1180263">
                <path id="Trazado_1043016" data-name="Trazado 1043016" d="M647.17,408.216h0a.254.254,0,0,0,.242-.264c-.108-4.534,2.448-6.279,2.474-6.3a.264.264,0,0,0,.076-.355.239.239,0,0,0-.34-.081c-.115.075-2.819,1.9-2.7,6.745A.253.253,0,0,0,647.17,408.216Z" fill="#429797"/>
              </g>
              <g id="Grupo_1180264" data-name="Grupo 1180264">
                <path id="Trazado_1043017" data-name="Trazado 1043017" d="M648.426,403.166a.249.249,0,0,1-.23-.154c-.175-.411-1.691-4.057-.856-5.379a1.091,1.091,0,0,1,.97-.492,1.137,1.137,0,0,1,.99.531c.862,1.357-.492,4.93-.649,5.333a.247.247,0,0,1-.224.16Zm-.673-5.248c-.494.781.172,2.995.658,4.29.429-1.273.992-3.442.478-4.251a.639.639,0,0,0-.585-.3c-.013,0-.026,0-.039,0A.556.556,0,0,0,647.753,397.918Z" fill="#429797"/>
              </g>
              <g id="Grupo_1180265" data-name="Grupo 1180265">
                <path id="Trazado_1043018" data-name="Trazado 1043018" d="M648.412,403.225c-.431-.02-4.232-.243-4.992-1.616a1.16,1.16,0,0,1,.011-1.126,1.146,1.146,0,0,1,.9-.685c1.566-.181,4.007,2.674,4.282,3a.264.264,0,0,1,.037.281.247.247,0,0,1-.217.146Zm-4.024-2.916a.655.655,0,0,0-.518.411.626.626,0,0,0-.022.632c.449.811,2.644,1.184,3.97,1.312-.874-.943-2.412-2.381-3.344-2.361A.768.768,0,0,0,644.388,400.309Z" fill="#429797"/>
              </g>
            </g>
            <path id="Trazado_1043019" data-name="Trazado 1043019" d="M587.925,363.476c-3.115,8.307-7.458,40.349-7.458,40.349-4.966,15.836,13.156,10.61,13.156,10.61s25.866,2.1,25.766-2.69-18.465-11.654-18.465-11.654c.426-3.926,12.8-26.154,15.392-43.74a4.653,4.653,0,0,0,.166-1.183,102.984,102.984,0,0,0-1.7-14.065,307.713,307.713,0,0,1-31.638,2.514Z" fill="#88564a"/>
            <path id="Trazado_1043020" data-name="Trazado 1043020" d="M578.06,322.458l5.089,21.16a307.422,307.422,0,0,0,31.638-2.514c-2.291-13.6-6.093-30.588-6.093-30.588Z" fill="#77463c"/>
            <g id="Grupo_1180273" data-name="Grupo 1180273">
              <g id="Grupo_1180267" data-name="Grupo 1180267">
                <path id="Trazado_1043021" data-name="Trazado 1043021" d="M611.544,404.334c7.6,3.413,10,6.8,10,6.8s-.354,1.107-10.81,2.534A14.88,14.88,0,0,1,611.544,404.334Z" fill="#fff"/>
                <path id="Trazado_1043022" data-name="Trazado 1043022" d="M579.874,402.23c9.933,5.3,21.678-2.242,21.678-2.242,4.135,1.068,7.295,3.135,9.991,4.346a14.894,14.894,0,0,0-.812,9.33c-2.7.368-6.049.757-10.254,1.154-20.522,1.938-21.493-3.616-21.493-3.616A31.859,31.859,0,0,1,579.874,402.23Z" fill="#4ca5a2"/>
              </g>
              <g id="Grupo_1180268" data-name="Grupo 1180268">
                <path id="Trazado_1043023" data-name="Trazado 1043023" d="M578.984,411.2a32.985,32.985,0,0,0,.477,3.33s5.971,1.992,22.1,1.655c18.024-.376,20.285-2.821,20.285-2.821a6.141,6.141,0,0,0-.306-2.236A95.8,95.8,0,0,1,578.984,411.2Z" fill="#fff"/>
              </g>
              <g id="Grupo_1180269" data-name="Grupo 1180269">
                <path id="Trazado_1043024" data-name="Trazado 1043024" d="M604.543,409.395h.022a.255.255,0,0,0,.218-.285,6.606,6.606,0,0,1,2.556-6.28.266.266,0,0,0,.078-.356.242.242,0,0,0-.34-.082,7.257,7.257,0,0,0-2.785,6.775A.253.253,0,0,0,604.543,409.395Z" fill="#429797"/>
              </g>
              <g id="Grupo_1180270" data-name="Grupo 1180270">
                <path id="Trazado_1043025" data-name="Trazado 1043025" d="M600.96,408.216h0a.254.254,0,0,0,.242-.264c-.108-4.534,2.448-6.279,2.474-6.3a.264.264,0,0,0,.076-.355.239.239,0,0,0-.34-.081c-.115.075-2.819,1.9-2.7,6.745A.252.252,0,0,0,600.96,408.216Z" fill="#429797"/>
              </g>
              <g id="Grupo_1180271" data-name="Grupo 1180271">
                <path id="Trazado_1043026" data-name="Trazado 1043026" d="M602.216,403.166a.249.249,0,0,1-.23-.154c-.175-.411-1.691-4.057-.856-5.379a1.091,1.091,0,0,1,.97-.492,1.137,1.137,0,0,1,.99.531c.862,1.357-.492,4.93-.649,5.333a.247.247,0,0,1-.224.16Zm-.674-5.248c-.493.781.172,2.995.658,4.29.429-1.273.992-3.442.478-4.251a.639.639,0,0,0-.585-.3c-.013,0-.026,0-.039,0A.558.558,0,0,0,601.542,397.918Z" fill="#429797"/>
              </g>
              <g id="Grupo_1180272" data-name="Grupo 1180272">
                <path id="Trazado_1043027" data-name="Trazado 1043027" d="M602.2,403.225c-.431-.02-4.232-.243-4.992-1.616a1.16,1.16,0,0,1,.011-1.126,1.148,1.148,0,0,1,.9-.685c1.566-.181,4.007,2.674,4.282,3a.264.264,0,0,1,.037.281.247.247,0,0,1-.217.146Zm-4.025-2.916a.655.655,0,0,0-.518.411.629.629,0,0,0-.023.632c.449.811,2.644,1.184,3.971,1.312-.874-.943-2.412-2.381-3.345-2.361A.8.8,0,0,0,598.177,400.309Z" fill="#429797"/>
              </g>
            </g>
            <path id="Trazado_1043028" data-name="Trazado 1043028" d="M664.756,243.315S648.711,236.9,640.4,231.423,651.92,211.6,651.92,211.6l17.555,2.076Z" fill="#77463c"/>
            <g id="Grupo_1180288" data-name="Grupo 1180288">
              <path id="Trazado_1043029" data-name="Trazado 1043029" d="M558.554,121.723a15.856,15.856,0,1,1-16.905-14.733A15.856,15.856,0,0,1,558.554,121.723Z" fill="#44332c"/>
              <circle id="Elipse_12499" data-name="Elipse 12499" cx="15.856" cy="15.856" r="15.856" transform="translate(586.273 107.145) rotate(-73.37)" fill="#44332c"/>
              <path id="Trazado_1043030" data-name="Trazado 1043030" d="M634.678,129.967s1.711,15.868,5.335,21.249,14.215,9.533,11,23.929-2.3,19.331,1.859,25.4c0,0-1.915,3.189-12.714,4.257l-3.768-9.963-1.228,10.329S583.6,216.7,562.954,210.454l-.266-14.34L558.4,209.678s-3.243.788-14.833-4.321c0,0,4.155-4.368,2.525-9.492s-8.626-13.326-7.361-24.722,5.781-27.576,6.57-38.5S634.678,129.967,634.678,129.967Z" fill="#44332c"/>
              <path id="Trazado_1043031" data-name="Trazado 1043031" d="M574.908,201.782" fill="#88564a"/>
              <g id="Grupo_1180285" data-name="Grupo 1180285">
                <path id="Trazado_1043032" data-name="Trazado 1043032" d="M626.106,162.422l-2.017-14.206s9.679-9.35,15.562,2.234S633.35,168.184,626.106,162.422Z" fill="#88564a"/>
                <path id="Trazado_1043033" data-name="Trazado 1043033" d="M570.6,173.2l-5.756-13.143s-13.149-2.861-12.061,10.085S567.468,181.91,570.6,173.2Z" fill="#88564a"/>
                <g id="Grupo_1180274" data-name="Grupo 1180274">
                  <path id="Trazado_1043034" data-name="Trazado 1043034" d="M586.575,186.458l1.217,7.835a54.337,54.337,0,0,0,24.985-1.079l-.651-11.284Z" fill="#77463c"/>
                  <path id="Trazado_1043035" data-name="Trazado 1043035" d="M582.745,257.183l-.292-14.875s-22.9-11.326-27.434-1.51c-1.562,3.383-2.375,8.681-2.761,14.212C561.266,258.749,572.123,258.272,582.745,257.183Z" fill="#77463c"/>
                  <path id="Trazado_1043036" data-name="Trazado 1043036" d="M552.258,255.011a150.479,150.479,0,0,0,.244,22.534l30.454-9.564-.212-10.8C572.123,258.272,561.266,258.749,552.258,255.011Z" fill="#88564a"/>
                  <path id="Trazado_1043037" data-name="Trazado 1043037" d="M638.223,229.114c6.993-5.128,11.254-12.078,14.423-19.779-5.632-4.822-13.654-11.407-17.9-13.59-6.984-3.587-28.5,0-33.223,1.133s-29.951,6.544-39.2,18.248c-5.908,7.476-9.99,17.127-12.171,23.129C579.108,250.578,612.865,249.189,638.223,229.114Z" fill="#e95336"/>
                  <path id="Trazado_1043038" data-name="Trazado 1043038" d="M652.646,209.335c-3.17,7.7-7.43,14.651-14.423,19.779-25.357,20.074-59.114,21.464-88.075,9.141-1.233,3.4-1.861,5.627-1.861,5.627s20.387,8.306,32.279,9.25c0,0-5.286,18.688-5.474,19.254s68.145-12.836,68.145-12.836-1.888-13.591-2.643-18.877c0,0,13.025-17.744,18.31-25.861C658.9,214.811,656.268,212.437,652.646,209.335Z" fill="#ffb525"/>
                  <path id="Trazado_1043039" data-name="Trazado 1043039" d="M585.5,201.954a2.3,2.3,0,0,0-.786,3.871c3.143,2.782,9.569,6.57,19.809,4.208,15.347-3.539,13.057-12.1,12.417-14.194C616.383,194.024,594.456,198.756,585.5,201.954Z" fill="#ffb525"/>
                  <path id="Trazado_1043040" data-name="Trazado 1043040" d="M587.792,194.293l1.5,6.833s1.875,6.311,11.664,5.619c10.97-.776,12.124-7.3,12.124-7.3l-.3-6.23A54.328,54.328,0,0,1,587.792,194.293Z" fill="#88564a"/>
                </g>
                <g id="Grupo_1180275" data-name="Grupo 1180275">
                  <path id="Trazado_1043041" data-name="Trazado 1043041" d="M625.009,120.992s2.754,15.089,5.2,33.075c1.981,14.561-7.727,30.389-25.35,33.95-16.564,3.346-34.835-1.032-43.215-23.765s-7.3-42.417,13.266-50.5S616.822,103.693,625.009,120.992Z" fill="#88564a"/>
                </g>
                <g id="Grupo_1180276" data-name="Grupo 1180276">
                  <path id="Trazado_1043042" data-name="Trazado 1043042" d="M599.681,119.362c-.109-.114-.178-.177-.178-.177S599.567,119.251,599.681,119.362Z" fill="#56372f"/>
                </g>
                <path id="Trazado_1043043" data-name="Trazado 1043043" d="M572.228,150.506s-3.289-2.87,2.183-7.754,7.709-4.275,8.96-2.373c1.142,1.736.14,4.705-2.981,7.365C576.644,150.937,574.027,152.167,572.228,150.506Z" fill="#44332c"/>
                <path id="Trazado_1043044" data-name="Trazado 1043044" d="M621.233,139.924s1.655-4.039-5.425-5.954-8.807-.369-9.074,1.893c-.244,2.063,1.983,4.269,5.964,5.249C617.477,142.287,620.368,142.215,621.233,139.924Z" fill="#44332c"/>
                <g id="Grupo_1180277" data-name="Grupo 1180277">
                  <path id="Trazado_1043045" data-name="Trazado 1043045" d="M566.246,174.168a.261.261,0,0,1-.284-.333c.02-.066,1.932-6.62-2.77-8.911a5.759,5.759,0,0,0-4.587-.451,7.172,7.172,0,0,0-3.586,3.466.26.26,0,0,1-.475-.211,7.577,7.577,0,0,1,3.88-3.742,6.259,6.259,0,0,1,5,.471c5.1,2.486,3.061,9.459,3.04,9.529A.262.262,0,0,1,566.246,174.168Z" fill="#44332c"/>
                </g>
                <g id="Grupo_1180278" data-name="Grupo 1180278">
                  <path id="Trazado_1043046" data-name="Trazado 1043046" d="M559.217,169.986a.26.26,0,0,1-.217-.444c.039-.038,3.935-3.779,7.578-1a.26.26,0,0,1-.315.414c-3.288-2.508-6.863.924-6.9.959A.261.261,0,0,1,559.217,169.986Z" fill="#44332c"/>
                </g>
                <g id="Grupo_1180279" data-name="Grupo 1180279">
                  <path id="Trazado_1043047" data-name="Trazado 1043047" d="M603.876,152.145a2.343,2.343,0,0,0-2.9.162c-.031.022-.079.059-.143.109-2.084,1.621-3.607,1.882-4.527.782-.779-.932-1.5-7.093-1.956-12.287a.117.117,0,0,1-.011.011,1.663,1.663,0,0,1-.484.367c.439,4.934,1.157,11.171,2.053,12.242.78.932,2.323,1.566,5.245-.705.056-.043.1-.076.125-.1a1.835,1.835,0,0,1,2.288-.17,4.432,4.432,0,0,1,1.086,4.5,7.035,7.035,0,0,1-2.616,3.215.262.262,0,0,0-.082.359.258.258,0,0,0,.255.119.248.248,0,0,0,.1-.038,7.429,7.429,0,0,0,2.833-3.489A4.933,4.933,0,0,0,603.876,152.145Z" fill="#44332c"/>
                </g>
                <g id="Grupo_1180280" data-name="Grupo 1180280">
                  <path id="Trazado_1043048" data-name="Trazado 1043048" d="M630.463,161.3a.265.265,0,0,0,.089-.065.261.261,0,0,0-.022-.367c-.052-.046-5.125-4.614-2.331-9.036a5.764,5.764,0,0,1,3.664-2.8,7.178,7.178,0,0,1,4.873,1.062.26.26,0,0,0,.293-.43,7.573,7.573,0,0,0-5.267-1.142,6.258,6.258,0,0,0-4,3.029c-3.031,4.8,2.371,9.654,2.426,9.7A.258.258,0,0,0,630.463,161.3Z" fill="#44332c"/>
                </g>
                <g id="Grupo_1180281" data-name="Grupo 1180281">
                  <path id="Trazado_1043049" data-name="Trazado 1043049" d="M634.243,154.05a.26.26,0,0,0-.049-.491c-.053-.012-5.334-1.145-6.971,3.135a.26.26,0,0,0,.486.186c1.478-3.862,6.323-2.823,6.372-2.813A.263.263,0,0,0,634.243,154.05Z" fill="#44332c"/>
                </g>
                <path id="Trazado_1043050" data-name="Trazado 1043050" d="M589.192,169.7c-.154,2.514-4.095,4.318-8.8,4.03s-8.4-2.56-8.246-5.074,4.1-4.318,8.8-4.03S589.346,167.181,589.192,169.7Z" fill="#77463c"/>
                <path id="Trazado_1043051" data-name="Trazado 1043051" d="M610.18,166.377c.922,2.344,5.228,2.845,9.617,1.118s7.2-5.026,6.279-7.37-5.228-2.844-9.617-1.118S609.258,164.033,610.18,166.377Z" fill="#77463c"/>
                <g id="Grupo_1180282" data-name="Grupo 1180282">
                  <path id="Trazado_1043052" data-name="Trazado 1043052" d="M579.61,160.442s-.457-5.22,3.687-6.16,5.811,4.007,5.811,4.007" fill="none" stroke="#000" stroke-linecap="round" stroke-linejoin="round" stroke-miterlimit="10" stroke-width="0.561"/>
                  <line id="Línea_713" data-name="Línea 713" x1="2.84" y1="0.694" transform="translate(576.759 159.082)" fill="none" stroke="#000" stroke-linecap="round" stroke-linejoin="round" stroke-miterlimit="10" stroke-width="0.561"/>
                  <line id="Línea_714" data-name="Línea 714" x1="1.922" y1="0.564" transform="translate(577.508 157.912)" fill="none" stroke="#000" stroke-linecap="round" stroke-linejoin="round" stroke-miterlimit="10" stroke-width="0.663"/>
                </g>
                <g id="Grupo_1180283" data-name="Grupo 1180283">
                  <path id="Trazado_1043053" data-name="Trazado 1043053" d="M618.4,153.92s-1.838-4.907-5.983-3.968-3.515,6.12-3.515,6.12" fill="none" stroke="#000" stroke-linecap="round" stroke-linejoin="round" stroke-miterlimit="10" stroke-width="0.561"/>
                  <line id="Línea_715" data-name="Línea 715" y1="1.85" x2="2.263" transform="translate(618.126 151.464)" fill="none" stroke="#000" stroke-linecap="round" stroke-linejoin="round" stroke-miterlimit="10" stroke-width="0.561"/>
                  <line id="Línea_716" data-name="Línea 716" y1="1.338" x2="1.491" transform="translate(617.718 150.731)" fill="none" stroke="#000" stroke-linecap="round" stroke-linejoin="round" stroke-miterlimit="10" stroke-width="0.663"/>
                </g>
                <g id="Grupo_1180284" data-name="Grupo 1180284">
                  <path id="Trazado_1043054" data-name="Trazado 1043054" d="M593.437,168.872a3.908,3.908,0,0,0,.484,1c1.542,2.235,4.583,3.572,9.178,2.145a7.318,7.318,0,0,0,3.8-2.531A20.052,20.052,0,0,0,593.437,168.872Z" fill="#e95236"/>
                  <path id="Trazado_1043055" data-name="Trazado 1043055" d="M608.014,165.762c-.276-1.057-1.953-2.5-4.57-.829,0,0-2.055,1.332-6.077-.029-3.475-1.175-4.663,1.717-3.929,3.967a20.049,20.049,0,0,1,13.462.613A5.019,5.019,0,0,0,608.014,165.762Z"/>
                </g>
              </g>
              <path id="Trazado_1043056" data-name="Trazado 1043056" d="M569.474,106.927s-23.86,6.807-24.862,21.465,10.382,30.85,10.382,30.85S569.107,151.631,574,123.4c0,0,58.9,24.005,62.628,21.311s-1.568-29.24-10.487-37.24S590.232,94.755,569.474,106.927Z" fill="#44332c"/>
              <path id="Trazado_1043057" data-name="Trazado 1043057" d="M566.877,114.266s-8.525-6.643-5.518-8.219,6.7,5.392,6.7,5.392-3.906-12.968.706-11.743,4.985,11.151,1.891,13.6" fill="#44332c"/>
              <g id="Grupo_1180286" data-name="Grupo 1180286">
                <path id="Trazado_1043058" data-name="Trazado 1043058" d="M652.146,199.157l.409-.256c-2.45-3.918-1.388-9.126-.189-13.225l.258-.877c1.254-4.242,2.549-8.628,1.225-12.809-1.219-3.847-4.371-6.525-7.42-9.114a31.149,31.149,0,0,1-6.034-6.158c-3.258-4.921-3.239-11.162-3.221-17.2,0-.586,0-1.169,0-1.747-.013-5.946-.461-13.609-3.837-20.149a30.753,30.753,0,0,0-15.959-14.049,44.811,44.811,0,0,0-21.279-2.658,57.866,57.866,0,0,0-21.906,6.835l.233.422A57.372,57.372,0,0,1,596.15,101.4a44.291,44.291,0,0,1,21.049,2.625,30.273,30.273,0,0,1,15.712,13.824c3.328,6.448,3.771,14.037,3.784,19.929,0,.578,0,1.161,0,1.746-.018,6.107-.038,12.422,3.3,17.464a31.506,31.506,0,0,0,6.123,6.26c3.135,2.662,6.095,5.177,7.272,8.893,1.28,4.04.005,8.354-1.228,12.526l-.259.879C650.676,189.737,649.595,195.076,652.146,199.157Z" fill="#44332c"/>
              </g>
              <g id="Grupo_1180287" data-name="Grupo 1180287">
                <path id="Trazado_1043059" data-name="Trazado 1043059" d="M544.466,205.909c3.826-1.079,5.742-5.331,5.6-8.783-.126-3.119-1.541-6.388-4.325-9.992-.8-1.039-1.668-2.056-2.5-3.041a47.627,47.627,0,0,1-4.234-5.51,23.8,23.8,0,0,1-2.575-19.048,47.958,47.958,0,0,1,2.456-6.136,35.536,35.536,0,0,0,3-8.391,35.592,35.592,0,0,0,.3-7.025c-.037-1.561-.075-3.176.031-4.75.8-11.851,11.065-22.536,22.874-23.818l-.052-.479c-12.03,1.306-22.483,12.19-23.3,24.264-.108,1.6-.07,3.222-.033,4.794a35.166,35.166,0,0,1-.291,6.93,35.155,35.155,0,0,1-2.96,8.275,48.151,48.151,0,0,0-2.479,6.2,24.284,24.284,0,0,0,2.628,19.439,47.92,47.92,0,0,0,4.275,5.568c.832.979,1.692,1.993,2.488,3.023,2.722,3.522,4.1,6.7,4.226,9.717.133,3.268-1.664,7.288-5.252,8.3Z" fill="#44332c"/>
              </g>
            </g>
            <g id="Grupo_1180290" data-name="Grupo 1180290">
              <path id="Trazado_1043060" data-name="Trazado 1043060" d="M574.4,205.562s6.544,26.931,6.292,31.965-5.034,26.176-5.034,26.176-2.769,29.7-3.272,43.542-.755,21.9-.755,21.9,19.632,11.074,46.311.755l-2.014-13.088,3.02-.5,4.027,13.088s22.9-1.007,35.237-15.605c0,0-7.8-24.162-10.823-32.468s-5.537-40.019-5.537-40.019-6.544-8.306-8.306-12.836-10.823-34.482-10.823-34.482l-6.544.252,9.816,32.971-36.243,7.3-9.313-31.713Z" fill="#5fafe2"/>
              <path id="Trazado_1043061" data-name="Trazado 1043061" d="M590.123,235.466l-9.045,2.214a2.516,2.516,0,0,1-3.043-1.846h0a2.516,2.516,0,0,1,1.846-3.043l9.045-2.215a2.516,2.516,0,0,1,3.043,1.846h0A2.518,2.518,0,0,1,590.123,235.466Z" fill="none" stroke="#2f2035" stroke-linecap="round" stroke-linejoin="round" stroke-miterlimit="10" stroke-width="0.598"/>
              <circle id="Elipse_12500" data-name="Elipse 12500" cx="2.737" cy="2.737" r="2.737" transform="translate(583.492 236.425)" fill="#2f2035"/>
              <g id="Grupo_1180289" data-name="Grupo 1180289">
                <path id="Trazado_1043062" data-name="Trazado 1043062" d="M593.624,244.9s26.466-5.955,32.752-6.617c0,0,4.632,17.865-9.925,22.5S593.624,244.9,593.624,244.9Z" fill="none" stroke="#2f2035" stroke-linecap="round" stroke-linejoin="round" stroke-miterlimit="10" stroke-width="0.524"/>
                <path id="Trazado_1043063" data-name="Trazado 1043063" d="M605.1,318.067a209.2,209.2,0,0,0,32.468-5.285" fill="none" stroke="#2f2035" stroke-linecap="round" stroke-linejoin="round" stroke-miterlimit="10" stroke-width="0.598"/>
                <line id="Línea_717" data-name="Línea 717" x2="7.676" y2="3.083" transform="translate(619.137 316.431)" fill="none" stroke="#2f2035" stroke-linecap="round" stroke-linejoin="round" stroke-miterlimit="10" stroke-width="0.598"/>
                <path id="Trazado_1043064" data-name="Trazado 1043064" d="M577.734,283.208s33.223,2.643,63.615-11.515" fill="none" stroke="#2f2035" stroke-linecap="round" stroke-linejoin="round" stroke-miterlimit="10" stroke-width="0.598"/>
                <line id="Línea_718" data-name="Línea 718" x1="3.209" y1="22.464" transform="translate(612.845 280.376)" fill="none" stroke="#2f2035" stroke-linecap="round" stroke-linejoin="round" stroke-miterlimit="10" stroke-width="0.598"/>
                <path id="Trazado_1043065" data-name="Trazado 1043065" d="M615.676,300.952s4.53.566,4.153-5.285a152.4,152.4,0,0,0-2.454-15.856" fill="none" stroke="#2f2035" stroke-linecap="round" stroke-linejoin="round" stroke-miterlimit="10" stroke-width="0.598"/>
                <path id="Trazado_1043066" data-name="Trazado 1043066" d="M636.358,274.376a35.774,35.774,0,0,0,14.254,15.416" fill="none" stroke="#2f2035" stroke-linecap="round" stroke-linejoin="round" stroke-miterlimit="10" stroke-width="0.598"/>
                <path id="Trazado_1043067" data-name="Trazado 1043067" d="M576.769,303.651A33.9,33.9,0,0,0,588.3,284.34" fill="none" stroke="#2f2035" stroke-linecap="round" stroke-linejoin="round" stroke-miterlimit="10" stroke-width="0.598"/>
                <path id="Trazado_1043068" data-name="Trazado 1043068" d="M574.714,323.038c0-.755,1.133-39.641,1.133-39.641" fill="none" stroke="#2f2035" stroke-linecap="round" stroke-linejoin="round" stroke-miterlimit="10" stroke-width="0.598"/>
                <path id="Trazado_1043069" data-name="Trazado 1043069" d="M634.168,226.028l-9.045,2.215a2.517,2.517,0,0,1-3.043-1.846h0a2.516,2.516,0,0,1,1.846-3.043l9.045-2.214a2.516,2.516,0,0,1,3.043,1.846h0A2.515,2.515,0,0,1,634.168,226.028Z" fill="none" stroke="#2f2035" stroke-linecap="round" stroke-linejoin="round" stroke-miterlimit="10" stroke-width="0.598"/>
                <path id="Trazado_1043070" data-name="Trazado 1043070" d="M633.011,229.724a2.737,2.737,0,1,1-2.737-2.737A2.737,2.737,0,0,1,633.011,229.724Z" fill="#2f2035"/>
              </g>
            </g>
            <path id="Trazado_1043071" data-name="Trazado 1043071" d="M669.223,175.925s12.178,51.287,11.7,56.819c-.566,6.607-6.8,15.479-18.877,9.438s-10.193-61.916-10.193-61.916Z" fill="#88564a"/>
            <g id="Grupo_1180301" data-name="Grupo 1180301">
              <circle id="Elipse_12501" data-name="Elipse 12501" cx="6.073" cy="6.073" r="6.073" transform="translate(651.716 155.675)" fill="none"/>
              <path id="Trazado_1043072" data-name="Trazado 1043072" d="M641.866,164.631a8.043,8.043,0,0,0,7.6,8.048,26.881,26.881,0,0,1,4.289.084c1.937.424,3.439,1.932,5.243,2.755a7.836,7.836,0,0,0,10.29-3.687c.9-1.84,1.045-3.95,1.671-5.9.7-2.167,1.977-4.114,2.625-6.295s.49-4.863-1.261-6.316c-1.164-.966-2.825-1.217-3.893-2.288s-1.341-2.747-2.481-3.721a4.679,4.679,0,0,0-3.405-.857c-1.2.088-2.376.392-3.577.416a7.692,7.692,0,0,1-3.479-.784,5.891,5.891,0,0,1-1.141,1.749,5.786,5.786,0,0,1-7.75,6.8,5.825,5.825,0,0,1-3.887,3.84c0,.141,0,.283-.007.421C642.569,160.824,641.87,162.7,641.866,164.631Zm15.923-8.956a6.073,6.073,0,1,1-6.073,6.073A6.073,6.073,0,0,1,657.789,155.675Z" fill="#e95336"/>
              <path id="Trazado_1043073" data-name="Trazado 1043073" d="M657.789,143.438a18.391,18.391,0,0,0-1.873.1c.006.1.031.205.031.312a5.734,5.734,0,0,1-.46,2.242,7.7,7.7,0,0,0,3.479.784c1.2-.023,2.379-.328,3.577-.416a4.68,4.68,0,0,1,3.405.857c1.14.974,1.423,2.659,2.481,3.721s2.729,1.322,3.893,2.288c1.751,1.453,1.909,4.134,1.261,6.316s-1.929,4.128-2.625,6.295c-.626,1.95-.771,4.06-1.671,5.9A7.836,7.836,0,0,1,659,175.519c-1.8-.823-3.306-2.33-5.243-2.755a26.877,26.877,0,0,0-4.289-.084,8.043,8.043,0,0,1-7.6-8.048c0-1.935.7-3.806.835-5.737.01-.138.006-.28.007-.421a5.745,5.745,0,0,1-1.642.252,5.816,5.816,0,0,1-1.294-.156,18.3,18.3,0,1,0,18.017-15.132Z" fill="#f3a07f"/>
              <g id="Grupo_1180291" data-name="Grupo 1180291">
                <path id="Trazado_1043074" data-name="Trazado 1043074" d="M644.841,165.087a.3.3,0,0,1-.274-.181.3.3,0,0,1,.156-.393l3.3-1.416a.3.3,0,0,1,.236.55l-3.3,1.416A.287.287,0,0,1,644.841,165.087Z" fill="#5fafe2"/>
              </g>
              <g id="Grupo_1180292" data-name="Grupo 1180292">
                <path id="Trazado_1043075" data-name="Trazado 1043075" d="M656.781,152.994a.3.3,0,0,1-.583-.058l-.375-3.574a.3.3,0,0,1,.595-.062l.375,3.574A.283.283,0,0,1,656.781,152.994Z" fill="#5fafe2"/>
              </g>
              <g id="Grupo_1180293" data-name="Grupo 1180293">
                <path id="Trazado_1043076" data-name="Trazado 1043076" d="M657.426,172.072a.3.3,0,0,1-.118-.574l3.3-1.416a.3.3,0,0,1,.236.55l-3.3,1.416A.312.312,0,0,1,657.426,172.072Z" fill="#5fafe2"/>
              </g>
              <g id="Grupo_1180294" data-name="Grupo 1180294">
                <path id="Trazado_1043077" data-name="Trazado 1043077" d="M666.172,155.775a.3.3,0,0,1-.274-.181.3.3,0,0,1,.156-.393l3.3-1.416a.3.3,0,0,1,.236.55l-3.3,1.416A.308.308,0,0,1,666.172,155.775Z" fill="#5fafe2"/>
              </g>
              <g id="Grupo_1180295" data-name="Grupo 1180295">
                <path id="Trazado_1043078" data-name="Trazado 1043078" d="M667.964,165.933a.3.3,0,0,1-.568.146l-1.572-3.231a.3.3,0,0,1,.538-.262l1.572,3.232A.277.277,0,0,1,667.964,165.933Z" fill="#5fafe2"/>
              </g>
              <g id="Grupo_1180296" data-name="Grupo 1180296">
                <path id="Trazado_1043079" data-name="Trazado 1043079" d="M652.579,171.5a.3.3,0,0,1-.575.111l-1.381-3.318a.3.3,0,0,1,.552-.23l1.381,3.318A.31.31,0,0,1,652.579,171.5Z" fill="#ffb525"/>
              </g>
              <g id="Grupo_1180297" data-name="Grupo 1180297">
                <path id="Trazado_1043080" data-name="Trazado 1043080" d="M663.464,153.944a.3.3,0,0,1-.575.111l-1.381-3.318a.3.3,0,0,1,.552-.23l1.381,3.318A.3.3,0,0,1,663.464,153.944Z" fill="#ffb525"/>
              </g>
              <g id="Grupo_1180298" data-name="Grupo 1180298">
                <path id="Trazado_1043081" data-name="Trazado 1043081" d="M666.107,169.738a.3.3,0,0,1-.575.111l-1.381-3.318a.3.3,0,0,1,.552-.23l1.381,3.318A.311.311,0,0,1,666.107,169.738Z" fill="#ffb525"/>
              </g>
              <g id="Grupo_1180299" data-name="Grupo 1180299">
                <path id="Trazado_1043082" data-name="Trazado 1043082" d="M671.438,157.512a.3.3,0,0,1,.205.548l-3.043,1.912a.3.3,0,0,1-.318-.506l3.043-1.912A.293.293,0,0,1,671.438,157.512Z" fill="#ffb525"/>
              </g>
              <g id="Grupo_1180300" data-name="Grupo 1180300">
                <path id="Trazado_1043083" data-name="Trazado 1043083" d="M648.016,158.453a.3.3,0,0,1-.1-.577l3.351-1.3a.3.3,0,0,1,.216.558l-3.351,1.3A.306.306,0,0,1,648.016,158.453Z" fill="#ffb525"/>
              </g>
            </g>
            <path id="Trazado_1043084" data-name="Trazado 1043084" d="M675.047,169.367c-.205-3.15-2.328-10.418-5.278-11.473s.493,10.84.493,10.84-3.5-8.511-5.182-7.991.934,10.337.934,10.337-2.918-7.3-4.483-7.8-1.224,5.191.721,9.245c0,0-3.688-7.912-5.462-6.594-1.648,1.224,1.424,8.9,1.87,9.987l-.291.126c-1,.013-4.035.387-7.161,4.092l.038.007c-.336.533-.091,1.145.92,2.34,2.076,2.454,9.438-.189,15.479-3.02,4.841-2.269,6.673-7.376,7.211-9.318A1.964,1.964,0,0,0,675.047,169.367Z" fill="#88564a"/>
            <path id="Trazado_1043085" data-name="Trazado 1043085" d="M609.8,259.018s10.025-3.879,9.415-5.783-10.865,2.575-10.865,2.575,9.874-5.164,9.409-6.989c-.911-3.061-11.8,4.177-11.8,4.177s8.046-6.84,6.786-8.8-11.5,7.132-11.5,7.132,3.165-5.3.329-5.309-7.884,9.326-7.884,9.326-31.131,7.85-35.661,10.115-7.047,9.564-5.034,14.346,8.809,8.557,20.387,5.789,28.344-18.464,28.344-18.464c5.708-1.922,17.555-6.694,17.063-8.7S609.8,259.018,609.8,259.018Z" fill="#88564a"/>
          </g>
        </g>
      </g>
    </g>
    <path id="Trazado_1043085-2" data-name="Trazado 1043085" d="M609.8,259.018s10.025-3.879,9.415-5.783-10.865,2.575-10.865,2.575,9.874-5.164,9.409-6.989c-.911-3.061-11.8,4.177-11.8,4.177s8.046-6.84,6.786-8.8-11.5,7.132-11.5,7.132,3.165-5.3.329-5.309-7.884,9.326-7.884,9.326-31.131,7.85-35.661,10.115-7.047,9.564-5.034,14.346,8.809,8.557,20.387,5.789,28.344-18.464,28.344-18.464c5.708-1.922,17.555-6.694,17.063-8.7S609.8,259.018,609.8,259.018Z" transform="translate(-159.247 9200.768)" fill="#88564a"/>
    <path id="Trazado_1043036-2" data-name="Trazado 1043036" d="M552.207,255.011a180.936,180.936,0,0,0,.2,22.534l25.314-9.564-.176-10.8C568.719,258.272,559.695,258.749,552.207,255.011Z" transform="translate(-159.761 9199.722)" fill="#88564a"/>
  </g>
</svg>
