<svg xmlns="http://www.w3.org/2000/svg" xmlns:xlink="http://www.w3.org/1999/xlink" width="295" height="255" viewBox="0 0 295 255">
  <defs>
    <clipPath id="clip-path">
      <rect id="Rectángulo_415813" data-name="Rectángulo 415813" width="295" height="255" transform="translate(1125 10562)" fill="#fff" stroke="#707070" stroke-width="1" opacity="0.81"/>
    </clipPath>
  </defs>
  <g id="Enmascarar_grupo_1098828" data-name="Enmascarar grupo 1098828" transform="translate(-1125 -10562)" clip-path="url(#clip-path)">
    <g id="Grupo_1180641" data-name="Grupo 1180641" transform="translate(6.5)">
      <ellipse id="Elipse_12523" data-name="Elipse 12523" cx="128" cy="121.5" rx="128" ry="121.5" transform="translate(1138 10618)" fill="#ebe9f0" opacity="0.68"/>
      <g id="Grupo_1180259" data-name="Grupo 1180259" transform="translate(1161.281 10565.462)">
        <ellipse id="Elipse_12497" data-name="Elipse 12497" cx="96.541" cy="14.817" rx="96.541" ry="14.817" transform="translate(0 442.529)" fill="#efe8df"/>
        <g id="Grupo_1180258" data-name="Grupo 1180258" transform="translate(21.526 0)">
          <path id="Trazado_1042931" data-name="Trazado 1042931" d="M319,145.7s-.171-12.57,2.5-19.622,7.162-12.779,11.1-13.537,15.694,2.47,17.226,7.719-5.133,21.7-10.957,30.559Z" transform="translate(-310.574 -67.247)" fill="#f8bc8d"/>
          <g id="Grupo_1180234" data-name="Grupo 1180234" transform="translate(83.923 432.88)">
            <g id="Grupo_1180228" data-name="Grupo 1180228" transform="translate(0)">
              <path id="Trazado_1042932" data-name="Trazado 1042932" d="M284.8,408.453c-7.279,7.749-8.44,12.908-8.44,12.908s.959,1.129,13.973-2.319A18.986,18.986,0,0,0,284.8,408.453Z" transform="translate(-276.363 -390.441)" fill="#fff"/>
              <path id="Trazado_1042933" data-name="Trazado 1042933" d="M286.214,395.311c-9.1,11.112-26.628,7.993-26.628,7.993-4.345,3.286-7.053,7.271-9.633,10.018a19,19,0,0,1,5.533,10.589c3.354-.888,7.494-2.076,12.64-3.672,25.116-7.785,23.536-14.8,23.536-14.8A40.6,40.6,0,0,0,286.214,395.311Z" transform="translate(-241.513 -395.311)" fill="#e95336"/>
            </g>
            <g id="Grupo_1180229" data-name="Grupo 1180229" transform="translate(0.001 10.128)">
              <path id="Trazado_1042934" data-name="Trazado 1042934" d="M299.333,402.7a42.385,42.385,0,0,1,1.072,4.155s-6.054,5.275-25.214,12.79c-21.41,8.4-25.271,6.628-25.271,6.628a7.83,7.83,0,0,1-.736-2.784A122.182,122.182,0,0,0,299.333,402.7Z" transform="translate(-249.184 -402.701)" fill="#fff"/>
            </g>
            <g id="Grupo_1180230" data-name="Grupo 1180230" transform="translate(12.383 13.527)">
              <path id="Trazado_1042935" data-name="Trazado 1042935" d="M279.214,412.191l-.027.01a.326.326,0,0,1-.4-.227,8.436,8.436,0,0,0-6.091-6.143.338.338,0,0,1-.266-.381.311.311,0,0,1,.36-.265,9.257,9.257,0,0,1,6.6,6.611A.323.323,0,0,1,279.214,412.191Z" transform="translate(-272.43 -405.181)" fill="#e55239"/>
            </g>
            <g id="Grupo_1180231" data-name="Grupo 1180231" transform="translate(16.123 10.35)">
              <path id="Trazado_1042936" data-name="Trazado 1042936" d="M276.457,409.9h0a.323.323,0,0,1-.414-.192c-2.1-5.393-5.963-6.193-6-6.2a.338.338,0,0,1-.265-.381.3.3,0,0,1,.36-.262c.173.032,4.253.857,6.492,6.617A.32.32,0,0,1,276.457,409.9Z" transform="translate(-269.773 -402.863)" fill="#e55239"/>
            </g>
            <g id="Grupo_1180232" data-name="Grupo 1180232" transform="translate(15.101 4.777)">
              <path id="Trazado_1042937" data-name="Trazado 1042937" d="M276.411,406.08a.317.317,0,0,0,.195-.293c.005-.57,0-5.607-1.631-6.754a1.392,1.392,0,0,0-1.384-.1,1.448,1.448,0,0,0-.9,1.112c-.349,2.021,3,5.564,3.38,5.962a.319.319,0,0,0,.343.079S276.411,406.081,276.411,406.08Zm-1.782-6.51c.965.678,1.266,3.611,1.329,5.375-1.129-1.29-2.856-3.567-2.648-4.771a.816.816,0,0,1,.541-.64l.047-.019A.707.707,0,0,1,274.63,399.57Z" transform="translate(-272.661 -398.797)" fill="#e55239"/>
            </g>
            <g id="Grupo_1180233" data-name="Grupo 1180233" transform="translate(18.441 6.032)">
              <path id="Trazado_1042938" data-name="Trazado 1042938" d="M269.508,405.8c.5-.236,4.864-2.361,5.086-4.351a1.48,1.48,0,0,0-.566-1.321,1.462,1.462,0,0,0-1.391-.367c-1.932.555-3.407,5.113-3.57,5.634a.341.341,0,0,0,.095.349.316.316,0,0,0,.328.066Zm3.308-5.408a.833.833,0,0,1,.811.23.8.8,0,0,1,.336.733c-.132,1.175-2.533,2.692-4.032,3.493.566-1.539,1.672-3.987,2.781-4.421C272.748,400.418,272.783,400.405,272.817,400.4Z" transform="translate(-269.052 -399.713)" fill="#e55239"/>
            </g>
          </g>
          <g id="Grupo_1180241" data-name="Grupo 1180241" transform="translate(9.617 436.205)">
            <g id="Grupo_1180235" data-name="Grupo 1180235" transform="translate(0.448 3.643)">
              <path id="Trazado_1042939" data-name="Trazado 1042939" d="M342.905,404.276c-9.775,4.183-12.9,8.444-12.9,8.444s.426,1.42,13.73,3.474A18.979,18.979,0,0,0,342.905,404.276Z" transform="translate(-330 -398.957)" fill="#fff"/>
              <path id="Trazado_1042940" data-name="Trazado 1042940" d="M341.218,403.742c-12.788,6.536-27.6-3.347-27.6-3.347-5.3,1.269-9.374,3.835-12.842,5.319a19,19,0,0,1,.826,11.919c3.429.53,7.7,1.1,13.053,1.7,26.131,2.933,27.5-4.128,27.5-4.128A40.588,40.588,0,0,0,341.218,403.742Z" transform="translate(-287.873 -400.395)" fill="#e95336"/>
            </g>
            <g id="Grupo_1180236" data-name="Grupo 1180236" transform="translate(0 17.406)">
              <path id="Trazado_1042941" data-name="Trazado 1042941" d="M355.57,411.485a41.932,41.932,0,0,1-.684,4.236s-7.66,2.407-28.226,1.615c-22.981-.885-25.808-4.054-25.808-4.054a7.834,7.834,0,0,1,.441-2.845A122.2,122.2,0,0,0,355.57,411.485Z" transform="translate(-300.844 -410.437)" fill="#fff"/>
            </g>
            <g id="Grupo_1180237" data-name="Grupo 1180237" transform="translate(18.607 6.531)">
              <path id="Trazado_1042942" data-name="Trazado 1042942" d="M327.859,411.544a.1.1,0,0,1-.029,0,.324.324,0,0,1-.271-.367,8.44,8.44,0,0,0-3.118-8.068.338.338,0,0,1-.092-.455.311.311,0,0,1,.436-.1,9.26,9.26,0,0,1,3.4,8.7A.321.321,0,0,1,327.859,411.544Z" transform="translate(-324.299 -402.503)" fill="#e55239"/>
            </g>
            <g id="Grupo_1180238" data-name="Grupo 1180238" transform="translate(23.307 5.117)">
              <path id="Trazado_1042943" data-name="Trazado 1042943" d="M324.455,410.5h0a.325.325,0,0,1-.3-.343c.238-5.781-2.981-8.064-3.014-8.086a.336.336,0,0,1-.089-.455.306.306,0,0,1,.436-.1c.145.1,3.552,2.489,3.3,8.663A.323.323,0,0,1,324.455,410.5Z" transform="translate(-320.997 -401.471)" fill="#e55239"/>
            </g>
            <g id="Grupo_1180239" data-name="Grupo 1180239" transform="translate(23.892)">
              <path id="Trazado_1042944" data-name="Trazado 1042944" d="M322.4,405.419a.316.316,0,0,0,.3-.191c.233-.519,2.248-5.135,1.213-6.842a1.394,1.394,0,0,0-1.227-.65,1.451,1.451,0,0,0-1.275.655c-1.129,1.712.517,6.3.709,6.817a.318.318,0,0,0,.282.21Zm.977-6.679c.611,1.007-.286,3.817-.936,5.457-.518-1.634-1.188-4.413-.514-5.433a.817.817,0,0,1,.752-.37h.051A.711.711,0,0,1,323.379,398.74Z" transform="translate(-321.017 -397.737)" fill="#e55239"/>
            </g>
            <g id="Grupo_1180240" data-name="Grupo 1180240" transform="translate(24.969 3.464)">
              <path id="Trazado_1042945" data-name="Trazado 1042945" d="M317.834,404.558c.55-.016,5.4-.215,6.4-1.949a1.638,1.638,0,0,0-1.117-2.33c-1.993-.266-5.171,3.319-5.529,3.732a.34.34,0,0,0-.053.358.316.316,0,0,0,.274.192A.065.065,0,0,1,317.834,404.558Zm5.2-3.629a.834.834,0,0,1,.651.536.8.8,0,0,1,.015.806c-.591,1.024-3.4,1.451-5.094,1.584,1.136-1.183,3.13-2.982,4.319-2.936A.911.911,0,0,1,323.032,400.928Z" transform="translate(-317.51 -400.265)" fill="#e55239"/>
            </g>
          </g>
          <path id="Trazado_1042946" data-name="Trazado 1042946" d="M276.628,273.546c-25.318-9.143-36.327-36.6-45.286-62.3a19.27,19.27,0,0,1,3.237,3.788c18.683,26.877,45.2,58.533,75.243,36.726,12.384-7.756,19.2-18.746,26.124-30.084.94,12.92-.14,26.464-.359,31.57a99.062,99.062,0,0,1-1.451,11.025C317.2,275.477,296.868,280.855,276.628,273.546Z" transform="translate(-176.726 -30.631)" fill="#253269"/>
          <g id="Grupo_1180242" data-name="Grupo 1180242" transform="translate(18.08 259.53)">
            <path id="Trazado_1042947" data-name="Trazado 1042947" d="M354.7,369.968l10.76,68.964s-12.68,13.156-41.179,15.6c0,0-20.308-65.041-21.257-82.948-1.457-27.5,5.053-57.588,5.053-57.588s-12.306,52.9-12.363,60.847,2.3,47.707,2.087,77.512c0,0-7.315,3.921-40.388-2.279,0,0-9.622-43.124-7.357-81.523,1.783-30.216,15.773-75.92,21.657-94.033,28.345,19.441,60.231,33.031,94.34,36.677C362.873,330.007,358.294,355.65,354.7,369.968Z" transform="translate(-249.711 -266.719)" fill="#5fafe2"/>
            <path id="Trazado_1042948" data-name="Trazado 1042948" d="M345.081,290.052s-1.556,9.912-3.811,23.246c-34.111-3.646-66-17.236-94.34-36.677,1.594-4.906,2.594-7.794,2.594-7.794Z" transform="translate(-224.925 -268.827)" fill="#4aa2d3"/>
            <path id="Trazado_1042949" data-name="Trazado 1042949" d="M268.73,283.551s-16.113,75.723-16.483,81.02,13.379,73.288,13.379,73.288" transform="translate(-155.852 -263.371)" fill="none" stroke="#2f2035" stroke-linecap="round" stroke-linejoin="round" stroke-miterlimit="10" stroke-width="0.574"/>
            <line id="Línea_710" data-name="Línea 710" x1="25.1" y1="9.786" transform="translate(42.81 46.166)" fill="none" stroke="#2f2035" stroke-linecap="round" stroke-linejoin="round" stroke-miterlimit="10" stroke-width="0.574"/>
            <line id="Línea_711" data-name="Línea 711" x1="8.973" y2="4.24" transform="translate(48.037 51.899)" fill="none" stroke="#2f2035" stroke-linecap="round" stroke-linejoin="round" stroke-miterlimit="10" stroke-width="0.574"/>
            <path id="Trazado_1042950" data-name="Trazado 1042950" d="M307.886,311.02S297.659,351.35,296.6,359.953s2.752,77.185,2.752,77.185" transform="translate(-255.557 -253.193)" fill="none" stroke="#2f2035" stroke-linecap="round" stroke-linejoin="round" stroke-miterlimit="10" stroke-width="0.574"/>
            <line id="Línea_712" data-name="Línea 712" x1="7.837" y2="30.412" transform="translate(57.751 10.564)" fill="none" stroke="#2f2035" stroke-linecap="round" stroke-linejoin="round" stroke-miterlimit="10" stroke-width="0.574"/>
            <path id="Trazado_1042951" data-name="Trazado 1042951" d="M294.141,305.834s-5.6-4.678-3.213-13.6,5.442-19.832,5.442-19.832" transform="translate(-235.709 -267.503)" fill="none" stroke="#2f2035" stroke-linecap="round" stroke-linejoin="round" stroke-miterlimit="10" stroke-width="0.574"/>
            <path id="Trazado_1042952" data-name="Trazado 1042952" d="M267.786,314.709s-14.818-11.7-9.344-35.835" transform="translate(-161.745 -265.104)" fill="none" stroke="#2f2035" stroke-linecap="round" stroke-linejoin="round" stroke-miterlimit="10" stroke-width="0.574"/>
            <path id="Trazado_1042953" data-name="Trazado 1042953" d="M328.514,268.887s-3.425,15.54-20.078,28.667" transform="translate(-292.656 -268.805)" fill="none" stroke="#2f2035" stroke-linecap="round" stroke-linejoin="round" stroke-miterlimit="10" stroke-width="0.574"/>
          </g>
          <path id="Trazado_1042954" data-name="Trazado 1042954" d="M236.226,249c5.592-29.4,7.4-37.528,7.805-39.271a16.17,16.17,0,0,1,2.836,2.076c8.959,25.695,19.97,53.156,45.286,62.3,20.24,7.309,40.568,1.931,57.506-9.273-2.855,16.282-9.723,42.854-19.171,47.113,0,0-49.975-4.667-64.516-8.747s-27.744-10.468-31.04-12.479C234.931,290.723,229.684,283.4,236.226,249Z" transform="translate(-192.251 -31.193)" fill="#334b9a"/>
          <path id="Trazado_1042955" data-name="Trazado 1042955" d="M265.6,158.113c.019,6.406.175,12.12.641,13.671,1.2,4,31.171,18.334,40.352,21.775v0c5.666,1.4,42.695,10.119,42.695,10.119s25.131,5.315,33.66,16.637c4.177,5.547,7.128,14.915,7.894,25.447-6.92,11.338-13.74,22.33-26.124,30.084-30.047,21.806-56.56-9.849-75.243-36.726a19.269,19.269,0,0,0-3.237-3.788q-.72-2.064-1.425-4.112.705,2.043,1.425,4.112a16.1,16.1,0,0,0-2.836-2.076c.07-.3.1-.414.1-.414l1.634-3.084c-6.914-3-31.617-14.269-44.9-27.476-10.955-10.9-9.588-37.859-6.087-56.041C243.98,152.524,254.492,157.224,265.6,158.113Z" transform="translate(-231.619 -54.718)" fill="#334b9a"/>
          <path id="Trazado_1042956" data-name="Trazado 1042956" d="M294.425,193.719s.221.049.6.148a30.184,30.184,0,0,1,9.132,3.924c3.822,2.749-13.206,11.109-31.58,6.174s-20.535-16-20.672-19.039S294.425,193.719,294.425,193.719Z" transform="translate(-173.289 -40.57)" fill="#e55239"/>
          <path id="Trazado_1042957" data-name="Trazado 1042957" d="M322.793,143.476a45.537,45.537,0,0,1,3.159-9.2s17.755,6.266,26.961,6.333c0,0-.078,2.922-.152,7.1A110.932,110.932,0,0,1,322.793,143.476Z" transform="translate(-318.651 -59.15)" fill="#e55239"/>
          <path id="Trazado_1042958" data-name="Trazado 1042958" d="M354.484,145.225c-.075,4.231-.148,9.75-.133,14.835-11.105-.889-21.617-5.588-31.447-11.869.5-2.611,1.051-5.024,1.612-7.2A110.932,110.932,0,0,0,354.484,145.225Z" transform="translate(-320.374 -56.664)" fill="#253269"/>
          <g id="Grupo_1180253" data-name="Grupo 1180253" transform="translate(71.144)">
            <g id="Grupo_1180251" data-name="Grupo 1180251">
              <g id="Grupo_1180250" data-name="Grupo 1180250">
                <g id="Grupo_1180249" data-name="Grupo 1180249">
                  <path id="Trazado_1042959" data-name="Trazado 1042959" d="M298.386,189.121l-2.32,10.893s-10.628,4.228-25.507.809-15.826-9.718-15.826-9.718l1.52-12.026C267.928,186.861,283.17,189.886,298.386,189.121Z" transform="translate(-241.99 -42.551)" fill="#f8bc8d"/>
                  <path id="Trazado_1042960" data-name="Trazado 1042960" d="M297.629,180.138l-2.822,13.246c-15.216.765-30.457-2.26-42.133-10.043l1.993-15.767Z" transform="translate(-238.411 -46.814)" fill="#eca278"/>
                  <path id="Trazado_1042961" data-name="Trazado 1042961" d="M242.135,114.872s-12.091,14.843-20.273,39.643c-6.384,19.349,2.816,43.385,25.935,52.713,21.728,8.767,47.746,7.439,64.941-21.421s15.572-56.893-10.4-73.137S254.276,97.454,242.135,114.872Z" transform="translate(-219.886 -71.437)" fill="#f8bc8d"/>
                  <path id="Trazado_1042962" data-name="Trazado 1042962" d="M283.525,186.862s-8.9-9.516-3.058-25.522c0,0-8.669-7.548-7.981-18.891,0,0-45.173-4.165-52.923-22.666,0,0-23.444-1.945-20.639-14.406s13.923-14.785,25.956-12.161c0,0-2.283-10.087,10.8-11.063s18.286,14.915,34.973,19.533,36.448,17.127,35.885,29.032c0,0-1.672-11.342,4.957-11.54s-4.116,15.436-4.116,15.436,5.978-8.567,11.66-5.626-8.788,6.857-8.788,6.857,12.691,29.9.252,30.982c0,0-.619,34.439-16.19,40.706,0,0-11.6,13.582-24.2,8.289-7.134,2.923-13.639-.674-6.953-7.6,0,0,3.267-8.214,9.358-10.134C272.525,198.089,273.584,191.929,283.525,186.862Z" transform="translate(-187.161 -78.481)" fill="#ffb525"/>
                  <g id="Grupo_1180243" data-name="Grupo 1180243" transform="translate(38.276)">
                    <path id="Trazado_1042963" data-name="Trazado 1042963" d="M288.822,135.825l-.688-.262a18.5,18.5,0,0,0-9-22.564c-4.231-2.027-9.18-2.357-13.964-2.674-5.892-.391-11.984-.794-16.692-4.414-3.763-2.893-5.867-7.3-7.9-11.552-1.953-4.087-3.972-8.312-7.447-11.118-5.985-4.827-15.863-3.8-20.72,2.168s-3.866,15.846,2.078,20.729l-.467.569c-6.24-5.127-7.28-15.5-2.182-21.763S227.3,77.6,233.591,82.668c3.607,2.91,5.663,7.212,7.65,11.373,2,4.179,4.061,8.5,7.685,11.286,4.531,3.485,10.243,3.864,16.291,4.264,4.853.322,9.872.655,14.234,2.745C287.854,116.363,292.145,127.119,288.822,135.825Z" transform="translate(-208.591 -79.462)" fill="#ffb525"/>
                  </g>
                  <g id="Grupo_1180244" data-name="Grupo 1180244" transform="translate(93.881 57.1)">
                    <path id="Trazado_1042964" data-name="Trazado 1042964" d="M206.39,195.71a9.011,9.011,0,0,1-6.3-5.133l.684-.271c1.2,3.012,4.694,5.093,8.318,4.945a13.41,13.41,0,0,0,9.08-4.668,30.615,30.615,0,0,0,5.314-9.159c3.31-8.107,6.17-19.784,1-29.381l-.532-.987,1.013.48c2.581,1.221,5.534,2.422,7.982,1.184,1.85-.935,3.029-3.123,3.5-6.5a33.039,33.039,0,0,0-6.683-24.633l.577-.458a33.785,33.785,0,0,1,6.835,25.192c-.51,3.635-1.821,6.01-3.9,7.06-2.329,1.177-5.026.429-7.664-.733,4.634,9.657,1.809,21.07-1.453,29.059a31.29,31.29,0,0,1-5.449,9.377,14.151,14.151,0,0,1-9.6,4.909A9.866,9.866,0,0,1,206.39,195.71Z" transform="translate(-200.094 -121.125)" fill="#ffb525"/>
                  </g>
                  <g id="Grupo_1180245" data-name="Grupo 1180245" transform="translate(59.79 43.073)">
                    <path id="Trazado_1042965" data-name="Trazado 1042965" d="M252.025,111.035c.2-.1.317-.145.317-.145S252.226,110.945,252.025,111.035Z" transform="translate(-252.025 -110.89)" fill="#32293f"/>
                  </g>
                  <path id="Trazado_1042966" data-name="Trazado 1042966" d="M219.711,174.241l11.184-16.455s18.65-.562,13.879,16.81S221.767,186.91,219.711,174.241Z" transform="translate(-141.161 -50.441)" fill="#f8bc8d"/>
                  <path id="Trazado_1042967" data-name="Trazado 1042967" d="M252.086,148.708s5.212-3.077-1.006-11.123-9.422-7.785-11.611-5.51c-2,2.075-1.384,6.377,2.194,10.8C245.957,148.173,249.21,150.516,252.086,148.708Z" transform="translate(-175.271 -60.479)" fill="#ffb525"/>
                  <path id="Trazado_1042968" data-name="Trazado 1042968" d="M269.981,126.14s-1.229-5.926,8.907-6.739,12.1,1.734,11.888,4.883c-.192,2.874-3.787,5.315-9.464,5.641C274.5,130.316,270.577,129.483,269.981,126.14Z" transform="translate(-255.229 -64.72)" fill="#ffb525"/>
                  <path id="Trazado_1042969" data-name="Trazado 1042969" d="M251.286,151c-.767,2.33.158,4.728,2.069,5.359s4.083-.747,4.852-3.075-.158-4.728-2.07-5.359S252.053,148.671,251.286,151Z" transform="translate(-196.987 -54.151)"/>
                  <path id="Trazado_1042970" data-name="Trazado 1042970" d="M279.158,138.394c-.769,2.329.158,4.728,2.069,5.359s4.083-.747,4.852-3.075-.158-4.728-2.07-5.359S279.927,136.065,279.158,138.394Z" transform="translate(-263.059 -58.822)"/>
                  <g id="Grupo_1180246" data-name="Grupo 1180246" transform="translate(83.768 113.768)">
                    <path id="Trazado_1042971" data-name="Trazado 1042971" d="M222,175.422a.352.352,0,0,0,.152.015.361.361,0,0,0,.319-.4c-.01-.1-.953-9.514,6.039-11.444a7.986,7.986,0,0,1,6.367.55,9.954,9.954,0,0,1,4.009,5.634.361.361,0,0,0,.7-.169,10.5,10.5,0,0,0-4.338-6.085,8.674,8.674,0,0,0-6.931-.626c-7.583,2.094-6.574,12.115-6.563,12.217A.36.36,0,0,0,222,175.422Z" transform="translate(-221.706 -162.472)" fill="#44332c"/>
                  </g>
                  <g id="Grupo_1180247" data-name="Grupo 1180247" transform="translate(84.841 118.2)">
                    <path id="Trazado_1042972" data-name="Trazado 1042972" d="M236.3,170.308a.364.364,0,0,0,.321-.047.361.361,0,0,0,.088-.5c-.043-.062-4.4-6.15-10.076-3.288a.36.36,0,1,0,.323.644c5.118-2.583,9.121,3,9.161,3.059A.362.362,0,0,0,236.3,170.308Z" transform="translate(-226.433 -165.706)" fill="#44332c"/>
                  </g>
                  <g id="Grupo_1180248" data-name="Grupo 1180248" transform="translate(28.638 69.919)">
                    <path id="Trazado_1042973" data-name="Trazado 1042973" d="M263.885,143.55a3.248,3.248,0,0,1,3.91.957c.037.037.093.1.167.185,2.429,2.738,4.438,3.481,5.973,2.215,1.309-1.081,3.883-9.428,5.836-16.428a2.249,2.249,0,0,0,.469,1.033c-1.846,6.577-4.369,14.73-5.847,15.95-1.3,1.072-3.563,1.545-6.971-2.293-.064-.073-.114-.129-.145-.16a2.541,2.541,0,0,0-3.075-.811c-1.691.829-2.941,3.622-2.623,5.862a9.747,9.747,0,0,0,2.751,5.046.36.36,0,0,1-.358.607.358.358,0,0,1-.132-.077,10.287,10.287,0,0,1-2.975-5.475C260.5,147.605,261.913,144.516,263.885,143.55Z" transform="translate(-260.808 -130.478)" fill="#44332c"/>
                  </g>
                </g>
              </g>
            </g>
            <path id="Trazado_1042974" data-name="Trazado 1042974" d="M246.743,163.258c-.855,3.417,3.637,7.484,10.035,9.087s12.277.132,13.134-3.284-3.637-7.484-10.035-9.087S247.6,159.841,246.743,163.258Z" transform="translate(-202.528 -49.87)" fill="#eca278"/>
            <path id="Trazado_1042975" data-name="Trazado 1042975" d="M298.022,156.85c-1.783,2.412-6.891,1.66-11.407-1.68s-6.732-8-4.949-10.415,6.891-1.66,11.407,1.68S299.806,154.438,298.022,156.85Z" transform="translate(-278.311 -55.793)" fill="#eca278"/>
            <g id="Grupo_1180252" data-name="Grupo 1180252" transform="translate(21.191 103.217)">
              <path id="Trazado_1042976" data-name="Trazado 1042976" d="M284.516,159.658a6.084,6.084,0,0,1-.652,1.62c-2.179,3.674-6.81,6.1-14.18,4.357a11.523,11.523,0,0,1-6.239-3.563A31.545,31.545,0,0,1,284.516,159.658Z" transform="translate(-261.251 -153.254)" fill="#e95236"/>
              <path id="Trazado_1042977" data-name="Trazado 1042977" d="M263.341,157.866c.319-1.69,2.8-4.132,7.087-1.794,0,0,3.369,1.869,9.539-.7,5.33-2.22,7.506,2.193,6.6,5.8a31.562,31.562,0,0,0-21.071,2.413A7.9,7.9,0,0,1,263.341,157.866Z" transform="translate(-263.298 -154.773)"/>
            </g>
          </g>
          <g id="Grupo_1180257" data-name="Grupo 1180257" transform="translate(10.074 45.615)">
            <path id="Trazado_1042978" data-name="Trazado 1042978" d="M351.977,167.544a4.8,4.8,0,0,0-3.177-6.237c-4.82-1.876-9.387-6.973-18.361-7.268s-23.692-2.244-29.431-4.357a25.6,25.6,0,0,1-9.618-6.744l10.9-10.97,23.4,10.067s17.728-.562,18.649-.555,8.2,11.338,8.2,11.338S356.871,159.063,351.977,167.544Z" transform="translate(-287.083 -105.622)" fill="#f3a07f"/>
            <path id="Trazado_1042979" data-name="Trazado 1042979" d="M346.122,112.745s-12.224,3.363-19.874,10.9-13.533,25.22-12.417,30.063,8.486,4.2,11.281-.378,4.191-6.644,5.834-11.007,3.06-9.416,7-12.609,7.175-5.473,8.567-7.073S354.631,113.958,346.122,112.745Z" transform="translate(-313.695 -112.745)" fill="#f3a07f"/>
            <path id="Trazado_1042980" data-name="Trazado 1042980" d="M313.068,117.114s19.015,12.337,24.272,17.439,5.677,10.628,7.949,14.788,9.6,8.586,7.709,16.168-5.189,17.225-10.241,15.577.5-5.981,1-10.811.766-10.352-2-9.681-1.9,7.582-5.827,10.086-5.521-.5-4.106-5.094,4.209-9.177-1.312-9.677-4.166,3.192-14.5.355-9.888-1.223-16.322-2.881-11.937-4.46-12.387-5.844.041-5.753,5.607-11.469,6.044-8.242,8.371-11.678S313.068,117.114,313.068,117.114Z" transform="translate(-280.301 -111.126)" fill="#ffb525"/>
            <g id="Grupo_1180254" data-name="Grupo 1180254" transform="translate(14.93 23.899)">
              <path id="Trazado_1042981" data-name="Trazado 1042981" d="M318.154,137.186c.273,3.485,3.987,6.037,8.3,5.7s7.58-3.436,7.309-6.92-3.987-6.037-8.3-5.7S317.882,133.7,318.154,137.186Z" transform="translate(-318.138 -130.163)" fill="#d83d2a"/>
              <path id="Trazado_1042982" data-name="Trazado 1042982" d="M318.2,136.272c.238,3.054,3.492,5.289,7.268,4.994s6.642-3.01,6.4-6.063-3.492-5.289-7.268-4.994S317.96,133.22,318.2,136.272Z" transform="translate(-316.311 -130.183)" fill="#e55239"/>
              <path id="Trazado_1042983" data-name="Trazado 1042983" d="M325.3,136.774c-.274.363-.707.732-1.133.572a.756.756,0,0,1-.433-.741,1.673,1.673,0,0,1,.325-.846,4.532,4.532,0,0,1,1.409-1.362,1.191,1.191,0,0,1,.567-.211C327.288,134.148,325.545,136.455,325.3,136.774Z" transform="translate(-318.522 -128.7)" fill="#d83d2a"/>
              <path id="Trazado_1042984" data-name="Trazado 1042984" d="M322.378,134.912c.408.2.854.554.777,1a.756.756,0,0,1-.644.567,1.688,1.688,0,0,1-.892-.156,4.551,4.551,0,0,1-1.606-1.121,1.187,1.187,0,0,1-.315-.517C319.42,133.467,322.019,134.736,322.378,134.912Z" transform="translate(-309.635 -128.708)" fill="#d83d2a"/>
              <path id="Trazado_1042985" data-name="Trazado 1042985" d="M322.224,131.614c.16-.311.44-.647.783-.581a.581.581,0,0,1,.425.5,1.294,1.294,0,0,1-.136.683,3.5,3.5,0,0,1-.888,1.216.9.9,0,0,1-.4.233C321.066,133.862,322.083,131.887,322.224,131.614Z" transform="translate(-312.563 -129.871)" fill="#d83d2a"/>
              <path id="Trazado_1042986" data-name="Trazado 1042986" d="M324.567,132.941c-.325-.127-.689-.37-.659-.718a.58.58,0,0,1,.458-.476,1.288,1.288,0,0,1,.692.063,3.48,3.48,0,0,1,1.3.757.923.923,0,0,1,.274.376C326.923,133.858,324.853,133.054,324.567,132.941Z" transform="translate(-318.929 -129.612)" fill="#d83d2a"/>
            </g>
            <g id="Grupo_1180255" data-name="Grupo 1180255" transform="translate(33.766 15.599)">
              <path id="Trazado_1042987" data-name="Trazado 1042987" d="M306.761,126.808c-1.39,2.7.189,6.277,3.524,7.994s7.165.922,8.553-1.775-.189-6.277-3.524-7.994S308.149,124.111,306.761,126.808Z" transform="translate(-306.256 -124.127)" fill="#d83d2a"/>
              <path id="Trazado_1042988" data-name="Trazado 1042988" d="M306.515,126.839c-1.217,2.363.166,5.5,3.088,7s6.277.809,7.494-1.556-.166-5.5-3.088-7S307.732,124.476,306.515,126.839Z" transform="translate(-304.203 -123.992)" fill="#e55239"/>
              <path id="Trazado_1042989" data-name="Trazado 1042989" d="M311.928,129.356c-.369.143-.857.218-1.1-.095a.659.659,0,0,1,.018-.746,1.458,1.458,0,0,1,.625-.476,3.947,3.947,0,0,1,1.661-.363,1.034,1.034,0,0,1,.515.1C314.591,128.323,312.252,129.231,311.928,129.356Z" transform="translate(-306.908 -122.811)" fill="#d83d2a"/>
              <path id="Trazado_1042990" data-name="Trazado 1042990" d="M310.036,130.331c.211.334.377.8.116,1.1a.66.66,0,0,1-.735.125,1.444,1.444,0,0,1-.587-.522,3.922,3.922,0,0,1-.674-1.561,1.023,1.023,0,0,1,0-.526C308.512,127.913,309.851,130.036,310.036,130.331Z" transform="translate(-299.761 -122.446)" fill="#d83d2a"/>
              <path id="Trazado_1042991" data-name="Trazado 1042991" d="M309.078,126.5c.26-.156.619-.277.843-.071a.506.506,0,0,1,.084.566,1.129,1.129,0,0,1-.411.443,3.012,3.012,0,0,1-1.21.492.792.792,0,0,1-.4-.011C307.2,127.63,308.849,126.637,309.078,126.5Z" transform="translate(-299.042 -123.314)" fill="#d83d2a"/>
              <path id="Trazado_1042992" data-name="Trazado 1042992" d="M310.292,126.236c-.182-.243-.34-.588-.159-.831a.506.506,0,0,1,.555-.143,1.121,1.121,0,0,1,.482.363,3.032,3.032,0,0,1,.617,1.153.793.793,0,0,1,.032.4C311.613,127.988,310.453,126.449,310.292,126.236Z" transform="translate(-303.952 -123.716)" fill="#d83d2a"/>
            </g>
            <g id="Grupo_1180256" data-name="Grupo 1180256" transform="translate(44.556 30.019)">
              <path id="Trazado_1042993" data-name="Trazado 1042993" d="M312.134,141.777c-.323,3.481-4.073,5.98-8.377,5.579s-7.53-3.544-7.208-7.025,4.073-5.978,8.377-5.579S312.456,138.3,312.134,141.777Z" transform="translate(-296.528 -134.626)" fill="#d83d2a"/>
              <path id="Trazado_1042994" data-name="Trazado 1042994" d="M311.559,140.84c-.282,3.049-3.569,5.238-7.339,4.889s-6.6-3.106-6.314-6.155,3.569-5.238,7.339-4.889S311.841,137.791,311.559,140.84Z" transform="translate(-297.811 -134.648)" fill="#e55239"/>
              <path id="Trazado_1042995" data-name="Trazado 1042995" d="M301.5,141.263c.269.367.7.741,1.124.588a.758.758,0,0,0,.444-.735,1.679,1.679,0,0,0-.312-.85,4.531,4.531,0,0,0-1.388-1.383,1.172,1.172,0,0,0-.565-.218C299.55,138.609,301.259,140.941,301.5,141.263Z" transform="translate(-292.67 -133.16)" fill="#d83d2a"/>
              <path id="Trazado_1042996" data-name="Trazado 1042996" d="M304.646,139.329c-.411.195-.862.541-.792.991a.76.76,0,0,0,.636.577,1.671,1.671,0,0,0,.894-.144,4.523,4.523,0,0,0,1.623-1.1,1.186,1.186,0,0,0,.322-.513C307.625,137.925,305.008,139.158,304.646,139.329Z" transform="translate(-301.754 -133.18)" fill="#d83d2a"/>
              <path id="Trazado_1042997" data-name="Trazado 1042997" d="M304.314,136.075c-.156-.312-.43-.652-.774-.592a.583.583,0,0,0-.433.5,1.3,1.3,0,0,0,.125.684,3.483,3.483,0,0,0,.87,1.228.916.916,0,0,0,.4.24C305.441,138.339,304.451,136.349,304.314,136.075Z" transform="translate(-298.277 -134.342)" fill="#d83d2a"/>
              <path id="Trazado_1042998" data-name="Trazado 1042998" d="M302.214,137.442c.328-.122.693-.36.67-.709a.583.583,0,0,0-.451-.482,1.277,1.277,0,0,0-.693.053,3.5,3.5,0,0,0-1.313.737.916.916,0,0,0-.28.371C299.846,138.326,301.926,137.55,302.214,137.442Z" transform="translate(-292.176 -134.065)" fill="#d83d2a"/>
            </g>
          </g>
          <path id="Trazado_1042999" data-name="Trazado 1042999" d="M332.813,112.429s13.726,2.98,15.139,6.853-14.267-.562-14.267-.562,11.227,4.534,10.556,6.754-13.608-1.146-13.608-1.146,9.632,3.781,10.3,5.836-6.82,1.653-12.17-.873c0,0,10.439,4.789,8.721,7.134s-13.337-2.453-13.337-2.453.62,4.849-5.309,9.912c0,0-1.894-9.572,2.35-17.134S329.012,112.795,332.813,112.429Z" transform="translate(-307.782 -67.247)" fill="#f8bc8d"/>
          <path id="Trazado_1043000" data-name="Trazado 1043000" d="M314.017,214.935s-25.548,6.521-29.9,12.368c0,0,10.564,4.713,20.3-1.675S314.017,214.935,314.017,214.935Z" transform="translate(-226.756 -29.265)" fill="#d83d2a"/>
          <path id="Trazado_1043001" data-name="Trazado 1043001" d="M302.323,235.351c-5.442-6.451-16.171-20.781-14.125-22.823s10.354,7.232,10.354,7.232-9.192-11.935-7.079-13.774,11.148,10.982,11.148,10.982-8.079-13.365-6.195-15.213c3.317-3.006,11.1,13.581,11.1,13.581s-4.671-14.044-1.738-15.473,8.592,16.9,8.592,16.9.058-8.649,3.465-6.6,2.668,16.905,2.668,16.905S318.011,235.2,302.323,235.351Z" transform="translate(-238.561 -34.88)" fill="#f8bc8d"/>
          <path id="Trazado_1043002" data-name="Trazado 1043002" d="M261.673,225.623c2.929,6.552,8.706,17.037,15.95,17.769,10.59,1.07,17.678-17.425,18.017-18.416s5.475-12.3,8.743-18.151c5.7-10.226,17.928-6.162,20.9-4.154s12.7,29.236-1.682,49.334-32.773,31.43-53.862,29.085c-19.8-2.2-33-30.134-37.914-42.492C242.841,236.637,253.174,233.018,261.673,225.623Z" transform="translate(-172.315 -34.74)" fill="#334b9a"/>
          <path id="Trazado_1043003" data-name="Trazado 1043003" d="M282.592,227.3a61.883,61.883,0,0,0,29.9-12.369s.746,2.189,2.1,5.213c-8.5,7.4-18.832,11.015-29.854,12.975C283.322,229.575,282.592,227.3,282.592,227.3Z" transform="translate(-225.227 -29.266)" fill="#e55239"/>
          <path id="Trazado_1043004" data-name="Trazado 1043004" d="M237.411,230.27c5.645,13.338,18.357,37.616,36.755,39.663,21.088,2.345,39.475-8.987,53.862-29.085" transform="translate(-176.747 -23.583)" fill="none" stroke="#2f2035" stroke-linecap="round" stroke-linejoin="round" stroke-miterlimit="10" stroke-width="0.574"/>
          <path id="Trazado_1043005" data-name="Trazado 1043005" d="M292.668,205.023c-3.267,5.856-8.4,17.16-8.743,18.151S276.5,242.66,265.909,241.59c-6.18-.625-11.293-8.347-14.48-14.669" transform="translate(-160.6 -32.938)" fill="none" stroke="#2f2035" stroke-linecap="round" stroke-linejoin="round" stroke-miterlimit="10" stroke-width="0.574"/>
          <path id="Trazado_1043006" data-name="Trazado 1043006" d="M307.406,270.33A98.007,98.007,0,0,1,293,244.246" transform="translate(-232.31 -18.405)" fill="none" stroke="#2f2035" stroke-linecap="round" stroke-linejoin="round" stroke-miterlimit="10" stroke-width="0.574"/>
          <path id="Trazado_1043007" data-name="Trazado 1043007" d="M314.078,270.608a64.106,64.106,0,0,1-9.983-30.618" transform="translate(-254.19 -19.982)" fill="none" stroke="#2f2035" stroke-linecap="round" stroke-linejoin="round" stroke-miterlimit="10" stroke-width="0.574"/>
          <path id="Trazado_1043008" data-name="Trazado 1043008" d="M338.818,191.831a131.319,131.319,0,0,1-35.771,1.066" transform="translate(-277.493 -37.826)" fill="none" stroke="#2f2035" stroke-linecap="round" stroke-linejoin="round" stroke-miterlimit="10" stroke-width="0.574"/>
          <path id="Trazado_1043009" data-name="Trazado 1043009" d="M337.434,188.833l-24.505-.715" transform="translate(-289.653 -39.202)" fill="none" stroke="#2f2035" stroke-linecap="round" stroke-linejoin="round" stroke-miterlimit="10" stroke-width="0.574"/>
        </g>
      </g>
    </g>
  </g>
</svg>
