<svg xmlns="http://www.w3.org/2000/svg" xmlns:xlink="http://www.w3.org/1999/xlink" width="113" height="113" viewBox="0 0 113 113">
  <defs>
    <filter id="Trazado_982547" x="0" y="0" width="113" height="113" filterUnits="userSpaceOnUse">
      <feOffset dy="3" input="SourceAlpha"/>
      <feGaussianBlur stdDeviation="3" result="blur"/>
      <feFlood flood-opacity="0.161"/>
      <feComposite operator="in" in2="blur"/>
      <feComposite in="SourceGraphic"/>
    </filter>
  </defs>
  <g id="Grupo_1180143" data-name="Grupo 1180143" transform="translate(-1217 -1483.166)">
    <g id="Grupo_1179386" data-name="Grupo 1179386" transform="translate(0 -1519.834)">
      <g id="Grupo_1175139" data-name="Grupo 1175139" transform="translate(1226 3009)">
        <g id="Grupo_1172010" data-name="Grupo 1172010">
          <g id="Grupo_1171046" data-name="Grupo 1171046">
            <g id="Grupo_1148525" data-name="Grupo 1148525">
              <g transform="matrix(1, 0, 0, 1, -9, -6)" filter="url(#Trazado_982547)">
                <g id="Trazado_982547-2" data-name="Trazado 982547" transform="translate(9 6)" fill="#effbfe">
                  <path d="M 47.5 93.5 C 41.28937149047852 93.5 35.26533508300781 92.28397369384766 29.59518623352051 89.88570404052734 C 24.11771965026855 87.56893157958984 19.19813346862793 84.25196075439453 14.97309303283691 80.02691650390625 C 10.74804019927979 75.80186462402344 7.431066513061523 70.88229370117188 5.114293098449707 65.40481567382812 C 2.716026782989502 59.73468017578125 1.5 53.71062850952148 1.5 47.5 C 1.5 41.28937149047852 2.716026782989502 35.26533508300781 5.114293098449707 29.59518623352051 C 7.431066513061523 24.11771965026855 10.74804019927979 19.19813346862793 14.97309303283691 14.97309303283691 C 19.19813346862793 10.74804019927979 24.11771965026855 7.431066513061523 29.59518623352051 5.114293098449707 C 35.26533508300781 2.716026782989502 41.28937149047852 1.5 47.5 1.5 C 53.71062850952148 1.5 59.73468017578125 2.716026782989502 65.40481567382812 5.114293098449707 C 70.88229370117188 7.431066513061523 75.80186462402344 10.74804019927979 80.02691650390625 14.97309303283691 C 84.25196075439453 19.19813346862793 87.56893157958984 24.11771965026855 89.88570404052734 29.59518623352051 C 92.28397369384766 35.26533508300781 93.5 41.28937149047852 93.5 47.5 C 93.5 53.71062850952148 92.28397369384766 59.73468017578125 89.88570404052734 65.40481567382812 C 87.56893157958984 70.88229370117188 84.25196075439453 75.80186462402344 80.02691650390625 80.02691650390625 C 75.80186462402344 84.25196075439453 70.88229370117188 87.56893157958984 65.40481567382812 89.88570404052734 C 59.73468017578125 92.28397369384766 53.71062850952148 93.5 47.5 93.5 Z" stroke="none"/>
                  <path d="M 47.5 3 C 41.49121475219727 3 35.66376876831055 4.176155090332031 30.17950439453125 6.495796203613281 C 24.88084411621094 8.736953735351562 20.12152099609375 11.94598388671875 16.03375244140625 16.03375244140625 C 11.94598388671875 20.12152099609375 8.736953735351562 24.88084411621094 6.495796203613281 30.17950439453125 C 4.176155090332031 35.66376876831055 3 41.49121475219727 3 47.5 C 3 53.50878524780273 4.176155090332031 59.33623123168945 6.495796203613281 64.82049560546875 C 8.736953735351562 70.11915588378906 11.94598388671875 74.87847900390625 16.03375244140625 78.96624755859375 C 20.12152099609375 83.05401611328125 24.88084411621094 86.26304626464844 30.17950439453125 88.50419616699219 C 35.66376876831055 90.82384490966797 41.49121475219727 92 47.5 92 C 53.50878524780273 92 59.33623123168945 90.82384490966797 64.82049560546875 88.50419616699219 C 70.11915588378906 86.26304626464844 74.87847900390625 83.05401611328125 78.96624755859375 78.96624755859375 C 83.05401611328125 74.87847900390625 86.26304626464844 70.11915588378906 88.50419616699219 64.82049560546875 C 90.82384490966797 59.33623123168945 92 53.50878524780273 92 47.5 C 92 41.49121475219727 90.82384490966797 35.66376876831055 88.50419616699219 30.17950439453125 C 86.26304626464844 24.88084411621094 83.05401611328125 20.12152099609375 78.96624755859375 16.03375244140625 C 74.87847900390625 11.94598388671875 70.11915588378906 8.736953735351562 64.82049560546875 6.495796203613281 C 59.33623123168945 4.176155090332031 53.50878524780273 3 47.5 3 M 47.5 0 C 73.7335205078125 0 95 21.2664794921875 95 47.5 C 95 73.7335205078125 73.7335205078125 95 47.5 95 C 21.2664794921875 95 0 73.7335205078125 0 47.5 C 0 21.2664794921875 21.2664794921875 0 47.5 0 Z" stroke="none" fill="#397b86"/>
                </g>
              </g>
            </g>
          </g>
        </g>
      </g>
    </g>
    <g id="terapia-del-lenguaje" transform="translate(1241.428 1504.594)">
      <g id="Grupo_1180141" data-name="Grupo 1180141" transform="translate(0.94 0.94)">
        <g id="Grupo_1180139" data-name="Grupo 1180139" transform="translate(0 19.561)">
          <g id="Grupo_1180133" data-name="Grupo 1180133" transform="translate(6.797 29.729)">
            <path id="Trazado_1042755" data-name="Trazado 1042755" d="M137.563,412.717a12.942,12.942,0,0,0-9.692-9.28l-8.2,1.431V416.1h15.306A2.68,2.68,0,0,0,137.563,412.717Z" transform="translate(-112.415 -403.124)" fill="#ff8e9e"/>
            <path id="Trazado_1042756" data-name="Trazado 1042756" d="M74.376,400.937a12.964,12.964,0,0,0-12.527,9.6,2.68,2.68,0,0,0,2.587,3.379H69.01a13.9,13.9,0,0,1,8.2-12.661A12.973,12.973,0,0,0,74.376,400.937Z" transform="translate(-61.755 -400.937)" fill="#ea5b70"/>
          </g>
          <g id="Grupo_1180137" data-name="Grupo 1180137">
            <path id="Trazado_1042757" data-name="Trazado 1042757" d="M132.014,388.26l-4.371,2.343a9.063,9.063,0,0,0,4.371,4.707,9.05,9.05,0,0,0,4.363-4.707Z" transform="translate(-112.591 -360.119)" fill="#c8866a"/>
            <g id="Grupo_1180135" data-name="Grupo 1180135" transform="translate(0 0.213)">
              <g id="Grupo_1180134" data-name="Grupo 1180134" transform="translate(0 11.473)">
                <circle id="Elipse_12490" data-name="Elipse 12490" cx="3.867" cy="3.867" r="3.867" fill="#c8866a"/>
                <circle id="Elipse_12491" data-name="Elipse 12491" cx="3.867" cy="3.867" r="3.867" transform="translate(31.104)" fill="#c8866a"/>
              </g>
              <path id="Trazado_1042758" data-name="Trazado 1042758" d="M56.493,165.334H53.522a6.43,6.43,0,0,0-5.059,2.462l-10.1,12.878,10.1,12.878a6.429,6.429,0,0,0,5.059,2.461h2.971a15.555,15.555,0,0,0,0-30.678Z" transform="translate(-34.496 -165.334)" fill="#db9e82"/>
            </g>
            <g id="Grupo_1180136" data-name="Grupo 1180136" transform="translate(3.867)">
              <path id="Trazado_1042759" data-name="Trazado 1042759" d="M99.08,170.09l-.4.795a15.561,15.561,0,0,1,10.573-7.035,15.678,15.678,0,0,0-4.307-.116,15.631,15.631,0,0,0-5.867,6.357Z" transform="translate(-91.124 -163.637)" fill="#c8866a"/>
              <path id="Trazado_1042760" data-name="Trazado 1042760" d="M43.518,248.992a15.513,15.513,0,0,1,1.022-5.555l-6.028,3.4a15.562,15.562,0,0,0,17.98,17.5A15.556,15.556,0,0,1,43.518,248.992Z" transform="translate(-38.363 -233.44)" fill="#c8866a"/>
              <path id="Trazado_1042761" data-name="Trazado 1042761" d="M42.537,255.721l0-.007Z" transform="translate(-42.014 -244.178)" fill="#4c5699"/>
            </g>
          </g>
          <g id="Grupo_1180138" data-name="Grupo 1180138" transform="translate(7.118 16.259)">
            <ellipse id="Elipse_12492" data-name="Elipse 12492" cx="3.315" cy="2.64" rx="3.315" ry="2.64" transform="translate(0 1.491)" fill="#fff"/>
            <ellipse id="Elipse_12493" data-name="Elipse 12493" cx="3.315" cy="2.64" rx="3.315" ry="2.64" transform="translate(17.97 1.491)" fill="#fff"/>
            <ellipse id="Elipse_12494" data-name="Elipse 12494" cx="1.879" cy="2.103" rx="1.879" ry="2.103" transform="translate(10.421)" fill="#495560"/>
          </g>
        </g>
        <g id="Grupo_1180140" data-name="Grupo 1180140" transform="translate(31.571)">
          <path id="Trazado_1042762" data-name="Trazado 1042762" d="M342.627,7.5l-5.64,1.225V30.661h4.86c9.484.359,16.127-5.516,16.127-11.573,0-5.532-5.782-11.588-15.346-11.588Z" transform="translate(-327.279 -7.5)" fill="#efedff"/>
          <path id="Trazado_1042763" data-name="Trazado 1042763" d="M269.431,18.911A15.862,15.862,0,0,1,274.848,7.5c-8.656,0-15.348,5.335-15.348,11.588,0,4.63,3.6,8.625,8.8,10.481a5.666,5.666,0,0,1-.119,2.414,1.446,1.446,0,0,0,1.939,1.693,9.419,9.419,0,0,0,3.95-3.014,15.862,15.862,0,0,1-4.637-11.75Z" transform="translate(-259.5 -7.5)" fill="#d4d4ff"/>
        </g>
        <path id="Trazado_1042764" data-name="Trazado 1042764" d="M111.194,149.264l-4.612-1.422H102.61l-8.539,6.4v3.983l2.033-.762a18.626,18.626,0,0,1,13.08,0l.695.347a5.2,5.2,0,0,1,2.31,2.353l.02.039a4.782,4.782,0,0,0,3.3,2.489l2.541.529A10.679,10.679,0,0,0,111.194,149.264Z" transform="translate(-83.225 -130.26)" fill="#676fb2"/>
        <path id="Trazado_1042765" data-name="Trazado 1042765" d="M38.1,145.069,26.274,150.6c-2.779,1.3-2.029,5.94,1.034,5.708l.083-.019a15.452,15.452,0,0,0-.961,3.624H27.4a5.527,5.527,0,0,0,5.057-3.4l1.4-2.829a16.164,16.164,0,0,1,6.241-7.072,15.623,15.623,0,0,1,5.667-2.075A10.694,10.694,0,0,0,38.1,145.069Z" transform="translate(-22.414 -126.955)" fill="#4c5699"/>
      </g>
      <g id="Grupo_1180142" data-name="Grupo 1180142" transform="translate(0 0)">
        <path id="Trazado_1042766" data-name="Trazado 1042766" d="M88.645,281.2a.94.94,0,0,0-.94.94v1.537a.94.94,0,0,0,1.879,0v-1.537A.94.94,0,0,0,88.645,281.2Z" transform="translate(-76.717 -245.967)"/>
        <path id="Trazado_1042767" data-name="Trazado 1042767" d="M142.819,285.914a3.051,3.051,0,1,0,2.819,3.042A2.94,2.94,0,0,0,142.819,285.914Zm0,4.206a1.19,1.19,0,1,1,.94-1.163A1.071,1.071,0,0,1,142.819,290.12Z" transform="translate(-122.461 -250.094)"/>
        <path id="Trazado_1042768" data-name="Trazado 1042768" d="M223.235,281.2a.94.94,0,0,0-.94.94v1.537a.94.94,0,0,0,1.879,0v-1.537A.94.94,0,0,0,223.235,281.2Z" transform="translate(-194.446 -245.967)"/>
        <path id="Trazado_1042769" data-name="Trazado 1042769" d="M37.307,150.9a11.62,11.62,0,0,0-8.121-12.411l-4.612-1.422a11.6,11.6,0,0,0-8.346.578L4.4,143.17c-3.224,1.508-2.869,6.449.223,7.366l-.047.156a4.8,4.8,0,0,0,.009,9.6,16.593,16.593,0,0,0,8.944,10.227,13.93,13.93,0,0,0-3.4,2.692.94.94,0,1,0,1.382,1.273,12.048,12.048,0,0,1,3.992-2.854,10.272,10.272,0,0,0,4.416,4.329.939.939,0,0,0,.886,0,10.254,10.254,0,0,0,4.408-4.328,12.063,12.063,0,0,1,6.765,7.877,1.739,1.739,0,0,1-1.679,2.2H10.418a1.738,1.738,0,0,1-1.68-2.194,12.123,12.123,0,0,1,.811-2.159.94.94,0,0,0-1.688-.826,14,14,0,0,0-.937,2.494,3.619,3.619,0,0,0,3.494,4.564H30.3a3.62,3.62,0,0,0,3.493-4.566,13.944,13.944,0,0,0-6.622-8.5,16.482,16.482,0,0,0,8.966-10.221,4.8,4.8,0,0,0,1.171-9.395ZM5.2,144.873l11.826-5.53a9.722,9.722,0,0,1,7-.485l4.612,1.422a9.71,9.71,0,0,1,6.69,11.177c-.052.264-.115.526-.189.785l-1.72-.358a3.812,3.812,0,0,1-2.668-2.028,6.119,6.119,0,0,0-2.731-2.774c-4.05-2.025-9.752-2.177-14.525-.387l-3.8,1.425a.939.939,0,0,0,.244,1.813,4.474,4.474,0,0,1-3.856,2.455,16.822,16.822,0,0,1,.75-2.446A.94.94,0,0,0,5.7,148.8h0c-1.934.082-2.334-3.066-.5-3.924ZM1.879,155.491a2.934,2.934,0,0,1,2.232-2.845,16.9,16.9,0,0,0,0,5.691,2.933,2.933,0,0,1-2.237-2.846ZM20.362,174.05a8.715,8.715,0,0,1-2.553-2.258,16.975,16.975,0,0,0,2.549.191,16.507,16.507,0,0,0,2.558-.2A8.68,8.68,0,0,1,20.362,174.05Zm11.015-8.96A14.606,14.606,0,0,1,20.358,170.1a14.422,14.422,0,0,1-12.092-6.422,14.626,14.626,0,0,1-2.471-9.408,6.353,6.353,0,0,0,5.83-3.52l.835-1.665,1.688-.633a17.3,17.3,0,0,1,13.025.308,4.27,4.27,0,0,1,1.913,1.978,5.677,5.677,0,0,0,3.944,2.983l1.876.391a14.63,14.63,0,0,1-3.529,10.975Zm6.473-7.407a2.9,2.9,0,0,1-1.249.654,16.542,16.542,0,0,0,.123-4.9c.079-.226.15-.455.216-.685a2.924,2.924,0,0,1,.91,4.929Z" transform="translate(0 -119.438)"/>
        <path id="Trazado_1042770" data-name="Trazado 1042770" d="M280.158,3.945a.94.94,0,0,0-1.206,1.441,9.573,9.573,0,0,1,3.742,7.141c0,5.037-5.618,10.994-15.151,10.634a.943.943,0,0,0-.781.367,8.489,8.489,0,0,1-3.555,2.714.505.505,0,0,1-.68-.58,6.608,6.608,0,0,0,.137-2.812.939.939,0,0,0-.611-.728c-4.965-1.772-8.174-5.539-8.174-9.6,0-5.872,6.464-10.648,14.408-10.648a17.839,17.839,0,0,1,7.7,1.625.94.94,0,0,0,.805-1.7A19.7,19.7,0,0,0,268.288,0,18.9,18.9,0,0,0,256.8,3.643a11.239,11.239,0,0,0-4.8,8.884c0,5.183,3.972,9.235,8.868,11.158a4.794,4.794,0,0,1-.158,1.494,2.389,2.389,0,0,0,3.2,2.806,10.353,10.353,0,0,0,4.038-2.934c10.34.177,16.626-6.5,16.626-12.525a11.433,11.433,0,0,0-4.416-8.583Z" transform="translate(-220.429 0)"/>
        <path id="Trazado_1042771" data-name="Trazado 1042771" d="M299.563,44.539a1.167,1.167,0,0,0-2.16,0l-3.781,9.928a.94.94,0,0,0,1.756.669l.709-1.862h4.765l.7,1.859a.94.94,0,1,0,1.758-.663c-3.881-10.281-3.74-9.912-3.749-9.932ZM296.8,51.4l1.678-4.405,1.662,4.405Z" transform="translate(-256.782 -38.326)"/>
        <path id="Trazado_1042772" data-name="Trazado 1042772" d="M393.049,55.742a.94.94,0,0,0,.878-.605l.709-1.862H399.4l.7,1.859a.94.94,0,1,0,1.758-.663l-3.749-9.932a1.167,1.167,0,0,0-2.16,0l-3.781,9.928A.941.941,0,0,0,393.049,55.742Zm3.981-8.752,1.662,4.405h-3.34Z" transform="translate(-342.985 -38.325)"/>
        <path id="Trazado_1042773" data-name="Trazado 1042773" d="M371.714,73.617a.94.94,0,0,0,0-1.879h-1.246a.94.94,0,0,0,0,1.879Z" transform="translate(-323.234 -62.751)"/>
      </g>
    </g>
  </g>
</svg>
