<svg xmlns="http://www.w3.org/2000/svg" xmlns:xlink="http://www.w3.org/1999/xlink" width="93.934" height="93.934" viewBox="0 0 93.934 93.934">
  <defs>
    <filter id="Trazado_982547" x="0" y="0" width="93.934" height="93.934" filterUnits="userSpaceOnUse">
      <feOffset dy="3" input="SourceAlpha"/>
      <feGaussianBlur stdDeviation="3" result="blur"/>
      <feFlood flood-opacity="0.161"/>
      <feComposite operator="in" in2="blur"/>
      <feComposite in="SourceGraphic"/>
    </filter>
  </defs>
  <g id="Grupo_1180145" data-name="Grupo 1180145" transform="translate(-183.066 -2187.033)">
    <g id="Grupo_1179446" data-name="Grupo 1179446" transform="translate(0 224.033)">
      <g id="Grupo_1175230" data-name="Grupo 1175230" transform="translate(-5.967 -23)">
        <g id="Grupo_1167337" data-name="Grupo 1167337" transform="translate(198.033 1992)">
          <g id="Grupo_1166720" data-name="Grupo 1166720">
            <g id="Grupo_1164305" data-name="Grupo 1164305">
              <g id="Grupo_1163948" data-name="Grupo 1163948">
                <g id="Grupo_1158168" data-name="Grupo 1158168">
                  <g id="Grupo_1152576" data-name="Grupo 1152576">
                    <g id="Grupo_1148633" data-name="Grupo 1148633">
                      <g id="Grupo_1148525" data-name="Grupo 1148525">
                        <g transform="matrix(1, 0, 0, 1, -9, -6)" filter="url(#Trazado_982547)">
                          <g id="Trazado_982547-2" data-name="Trazado 982547" transform="translate(9 6)" fill="#fdfbec">
                            <path d="M 37.966796875 74.43359375 C 33.04315185546875 74.43359375 28.26757431030273 73.46962738037109 23.77274131774902 71.56847381591797 C 19.43047523498535 69.73184967041016 15.53040790557861 67.10224914550781 12.18087482452393 63.75271987915039 C 8.831341743469238 60.4031867980957 6.201741218566895 56.50312042236328 4.365118980407715 52.16086196899414 C 2.463963508605957 47.66601943969727 1.499996900558472 42.89044189453125 1.499996900558472 37.966796875 C 1.499996900558472 33.04315185546875 2.463963508605957 28.26757431030273 4.365118980407715 23.77274131774902 C 6.201741218566895 19.43047523498535 8.831341743469238 15.53040790557861 12.18087482452393 12.18087482452393 C 15.53040790557861 8.831341743469238 19.43047523498535 6.201741218566895 23.77274131774902 4.365118980407715 C 28.26757431030273 2.463963508605957 33.04315185546875 1.499996900558472 37.966796875 1.499996900558472 C 42.89044189453125 1.499996900558472 47.66601943969727 2.463963508605957 52.16086196899414 4.365118980407715 C 56.50312042236328 6.201741218566895 60.4031867980957 8.831341743469238 63.75271987915039 12.18087482452393 C 67.10224914550781 15.53040790557861 69.73184967041016 19.43047523498535 71.56847381591797 23.77274131774902 C 73.46962738037109 28.26757431030273 74.43359375 33.04315185546875 74.43359375 37.966796875 C 74.43359375 42.89044189453125 73.46962738037109 47.66601943969727 71.56847381591797 52.16086196899414 C 69.73184967041016 56.50313186645508 67.10224914550781 60.4031867980957 63.75271987915039 63.75271987915039 C 60.4031867980957 67.10224914550781 56.50313186645508 69.73184967041016 52.16086196899414 71.56847381591797 C 47.66601943969727 73.46962738037109 42.89044189453125 74.43359375 37.966796875 74.43359375 Z" stroke="none"/>
                            <path d="M 37.966796875 3 C 33.2449836730957 3 28.66600799560547 3.924095153808594 24.35705947875977 5.746635437011719 C 20.19359588623047 7.507637023925781 16.45379638671875 10.02928161621094 13.24153518676758 13.24153518676758 C 10.02927398681641 16.45379638671875 7.507621765136719 20.19359588623047 5.746635437011719 24.35705947875977 C 3.924095153808594 28.66600799560547 3 33.2449836730957 3 37.966796875 C 3 42.6886100769043 3.924095153808594 47.26758575439453 5.746635437011719 51.57653427124023 C 7.507621765136719 55.73999786376953 10.02927398681641 59.47979736328125 13.24153518676758 62.69205856323242 C 16.45379638671875 65.90431976318359 20.19359588623047 68.42597198486328 24.35705947875977 70.18695831298828 C 28.66600799560547 72.00949859619141 33.2449836730957 72.93359375 37.966796875 72.93359375 C 42.6886100769043 72.93359375 47.26758575439453 72.00949859619141 51.57653427124023 70.18695831298828 C 55.73999786376953 68.42597198486328 59.47979736328125 65.90431976318359 62.69205856323242 62.69205856323242 C 65.90431976318359 59.47979736328125 68.42597198486328 55.73999786376953 70.18695831298828 51.57653427124023 C 72.00949859619141 47.26758575439453 72.93359375 42.6886100769043 72.93359375 37.966796875 C 72.93359375 33.2449836730957 72.00949859619141 28.66600799560547 70.18695831298828 24.35705947875977 C 68.42597198486328 20.19359588623047 65.90431976318359 16.45379638671875 62.69205856323242 13.24153518676758 C 59.47979736328125 10.02928161621094 55.73999786376953 7.507637023925781 51.57653427124023 5.746635437011719 C 47.26758575439453 3.924095153808594 42.6886100769043 3 37.966796875 3 M 37.966796875 0 C 58.93528366088867 0 75.93359375 16.99832153320312 75.93359375 37.966796875 C 75.93359375 58.93528366088867 58.93528366088867 75.93359375 37.966796875 75.93359375 C 16.99831008911133 75.93359375 0 58.93528366088867 0 37.966796875 C 0 16.99832153320312 16.99831008911133 0 37.966796875 0 Z" stroke="none" fill="#84792b"/>
                          </g>
                        </g>
                      </g>
                    </g>
                  </g>
                </g>
              </g>
            </g>
          </g>
        </g>
      </g>
    </g>
    <g id="XMLID_816_" transform="translate(176.203 2206)">
      <g id="XMLID_814_" transform="translate(30.801 0.794)">
        <path id="XMLID_570_" d="M170.434,273a9.526,9.526,0,0,0-3.678-7.527c-4.473-3.791-10.406-4-15.355,0h0A9.523,9.523,0,0,0,147.723,273a4.944,4.944,0,0,0,3.406,4.953,4.279,4.279,0,0,1,.821.169h14.258a4.288,4.288,0,0,1,.821-.169A4.945,4.945,0,0,0,170.434,273Z" transform="translate(-136.049 -235.544)" fill="#ffddcf"/>
        <path id="XMLID_1424_" d="M322.337,409.6h0Z" transform="translate(-292.179 -367.025)" fill="#ffddcf"/>
        <path id="XMLID_1426_" d="M152.194,273a9.524,9.524,0,0,1,3.678-7.526h0a12.952,12.952,0,0,1,5.51-2.691,11.849,11.849,0,0,0-9.981,2.691h0A9.523,9.523,0,0,0,147.723,273a4.944,4.944,0,0,0,3.406,4.953,4.281,4.281,0,0,1,.821.17h4.467a4.29,4.29,0,0,0-.817-.168A4.945,4.945,0,0,1,152.194,273Z" transform="translate(-136.049 -235.544)" fill="#ffc6be"/>
        <path id="XMLID_1813_" d="M229.875,409.6h0Z" transform="translate(-209.503 -367.026)" fill="#ffddcf"/>
        <path id="XMLID_2320_" d="M197.189,363.232a10.521,10.521,0,0,1-.637,3.236h0l-3.476,8.477a5.62,5.62,0,0,1-7.306,0l-3.476-8.477h0a10.4,10.4,0,0,1-.637-3.236,1.872,1.872,0,0,1,1.872-1.872h11.789A1.872,1.872,0,0,1,197.189,363.232Z" transform="translate(-166.393 -323.893)" fill="#d7f5f8"/>
        <path id="XMLID_820_" d="M289.551,409.989a4.28,4.28,0,0,0-7.079-.593l-1.534,1.917a4,4,0,0,0,5.629,5.629l1.917-1.534A4.28,4.28,0,0,0,289.551,409.989Z" transform="translate(-254.378 -365.409)" fill="#ffaec3"/>
        <path id="XMLID_1817_" d="M283.055,413.193l1.534-1.917a4.28,4.28,0,0,1,4.961-1.286,4.28,4.28,0,0,0-7.079-.593l-1.534,1.917a4.007,4.007,0,0,0,1.7,6.244A4,4,0,0,1,283.055,413.193Z" transform="translate(-254.378 -365.41)" fill="#ff91b3"/>
        <path id="XMLID_819_" d="M144.378,411.311l-1.534-1.917a4.277,4.277,0,1,0-6.012,6.012l1.917,1.534a4,4,0,0,0,5.629-5.629Z" transform="translate(-124.88 -365.407)" fill="#ffaec3"/>
        <path id="XMLID_1814_" d="M140.793,418.387l-1.917-1.534a4.279,4.279,0,0,1-1.192-5.175,4.28,4.28,0,0,0-.837,7.2l1.917,1.534a4.007,4.007,0,0,0,6.16-1.5,4.005,4.005,0,0,1-4.131-.532Z" transform="translate(-124.894 -368.884)" fill="#ff91b3"/>
        <path id="XMLID_2318_" d="M418.994,115.271a5.418,5.418,0,0,1-6.337,5.34,16.368,16.368,0,0,0,.048-10.688A5.419,5.419,0,0,1,418.994,115.271Z" transform="translate(-372.936 -99.015)" fill="#ffc6be"/>
        <path id="XMLID_2317_" d="M43.843,120.61a5.418,5.418,0,1,1-.048-10.688A16.37,16.37,0,0,0,43.843,120.61Z" transform="translate(-37.506 -99.015)" fill="#ffc6be"/>
        <path id="XMLID_568_" d="M110.122,7.852a20.835,20.835,0,0,0-3.834-.352c-9.727,0-17.611,6.53-17.611,16.256,0,9.764,7.921,14.9,17.611,14.9,9.765,0,17.611-5.2,17.611-14.9,0-8.41-5.895-14.428-13.777-15.9Z" transform="translate(-83.259 -7.5)" fill="#ffddcf"/>
        <path id="XMLID_2324_" d="M96.345,23.756c0-8.409,5.894-14.428,13.777-15.9a20.835,20.835,0,0,0-3.834-.352c-9.727,0-17.611,6.53-17.611,16.256,0,9.764,7.921,14.9,17.611,14.9a25.46,25.46,0,0,0,3.834-.284c-7.861-1.2-13.777-6.178-13.777-14.617Z" transform="translate(-83.259 -7.5)" fill="#ffc6be"/>
        <g id="Grupo_1180144" data-name="Grupo 1180144" transform="translate(11.668 15.967)">
          <ellipse id="XMLID_2312_" cx="3.062" cy="2.438" rx="3.062" ry="2.438" transform="translate(16.598)" fill="#fd9faa"/>
          <ellipse id="XMLID_2311_" cx="3.062" cy="2.438" rx="3.062" ry="2.438" fill="#fd9faa"/>
        </g>
      </g>
      <g id="XMLID_2211_" transform="translate(30.007 0)">
        <path id="XMLID_2215_" d="M158.467,48.114a15.909,15.909,0,0,0-4.371-6.236.794.794,0,1,0-1.05,1.192,14.66,14.66,0,0,1,4.967,11.247c0,9.28-7.539,14.106-16.817,14.106-5.307,0-9.361-1.563-12.021-3.681a.794.794,0,1,0-.989,1.242,16.769,16.769,0,0,0,3.84,2.271,10.261,10.261,0,0,0-2.979,7.232,5.9,5.9,0,0,0,1.835,4.533,5.072,5.072,0,0,0-1.259,8.659l1.917,1.534a4.791,4.791,0,0,0,6.066-.058,6.406,6.406,0,0,0,7.18,0,4.791,4.791,0,0,0,6.066.058l1.917-1.534a5.072,5.072,0,0,0-1.259-8.659,5.9,5.9,0,0,0,1.835-4.533,10.264,10.264,0,0,0-2.977-7.231,14.648,14.648,0,0,0,8.03-7.742,6.211,6.211,0,1,0,.068-12.4ZM132.533,88.973l-1.918-1.534a3.483,3.483,0,1,1,4.9-4.9l1.534,1.917a3.21,3.21,0,0,1-4.512,4.512Zm6.118-.033a4.787,4.787,0,0,0-.366-5.472l-1.534-1.917a5.039,5.039,0,0,0-2.038-1.526,8.331,8.331,0,0,1-.489-2.626,1.078,1.078,0,0,1,1.078-1.078h11.789a1.079,1.079,0,0,1,1.078,1.078,8.343,8.343,0,0,1-.489,2.626,5.038,5.038,0,0,0-2.038,1.526l-1.534,1.917a4.788,4.788,0,0,0-.367,5.472,4.819,4.819,0,0,1-5.089,0Zm13.126-1.5-1.917,1.534a3.21,3.21,0,0,1-4.512-4.512l1.535-1.918a3.483,3.483,0,1,1,4.9,4.9Zm-.018-11.874a4.184,4.184,0,0,1-2.265,3.912,8.3,8.3,0,0,0,.262-2.078,2.669,2.669,0,0,0-2.666-2.666h-1.13V73.266a.794.794,0,0,0-1.588,0v1.468H138.02V73.266a.794.794,0,0,0-1.588,0v1.468H135.3a2.665,2.665,0,0,0-2.666,2.666,8.4,8.4,0,0,0,.262,2.078,4.183,4.183,0,0,1-2.265-3.909c0-.018,0-.036,0-.055a8.69,8.69,0,0,1,3.048-6.633,25.485,25.485,0,0,0,15.028,0,8.7,8.7,0,0,1,3.047,6.633C151.758,75.529,151.759,75.549,151.759,75.565Zm7.2-16.628a17.41,17.41,0,0,0,.027-9.241,4.624,4.624,0,0,1-.027,9.241Z" transform="translate(-117.373 -37.266)"/>
        <path id="XMLID_2223_" d="M37.013,17.05c0-8.825,6.835-14.919,15.626-15.427-.6.578-1.732,1.19-1.732,2.718a2.971,2.971,0,0,0,1.35,2.384c.526.438.778.671.778,1.163a.794.794,0,0,0,1.588,0A2.971,2.971,0,0,0,53.274,5.5c-.526-.438-.778-.671-.778-1.163s.253-.725.778-1.163A3.45,3.45,0,0,0,54.5,1.6a18.572,18.572,0,0,1,8.291,2.184.794.794,0,1,0,.762-1.394A20.31,20.31,0,0,0,53.83,0c-7.995,0-14.7,4.236-17.272,10.847a6.211,6.211,0,1,0,.07,12.4,13.755,13.755,0,0,0,1.485,2.641.794.794,0,1,0,1.289-.928,13.3,13.3,0,0,1-2.389-7.911Zm-5.418,0a4.63,4.63,0,0,1,4.44-4.62,17.416,17.416,0,0,0,.027,9.241A4.629,4.629,0,0,1,31.6,17.05Z" transform="translate(-30.007 0)"/>
        <path id="XMLID_2224_" d="M172.217,137.251a.794.794,0,0,0,1.588,0,.663.663,0,0,1,1.327,0,.794.794,0,1,0,1.588,0,2.252,2.252,0,0,0-4.5,0Z" transform="translate(-157.16 -120.706)"/>
        <path id="XMLID_2225_" d="M295.267,137.251a.794.794,0,0,0,1.588,0,.663.663,0,0,1,1.327,0,.794.794,0,1,0,1.588,0,2.252,2.252,0,0,0-4.5,0Z" transform="translate(-267.181 -120.706)"/>
        <path id="XMLID_2226_" d="M236.194,165.123a1.253,1.253,0,0,1-1.893,0,.794.794,0,1,0-1.2,1.042,2.842,2.842,0,0,0,4.29,0,.794.794,0,0,0-1.2-1.042Z" transform="translate(-211.424 -147.396)"/>
      </g>
    </g>
  </g>
</svg>
