<svg xmlns="http://www.w3.org/2000/svg" xmlns:xlink="http://www.w3.org/1999/xlink" width="93.934" height="93.934" viewBox="0 0 93.934 93.934">
  <defs>
    <filter id="Trazado_982547" x="0" y="0" width="93.934" height="93.934" filterUnits="userSpaceOnUse">
      <feOffset dy="3" input="SourceAlpha"/>
      <feGaussianBlur stdDeviation="3" result="blur"/>
      <feFlood flood-opacity="0.161"/>
      <feComposite operator="in" in2="blur"/>
      <feComposite in="SourceGraphic"/>
    </filter>
  </defs>
  <g id="Grupo_1180686" data-name="Grupo 1180686" transform="translate(-183 -363)">
    <g id="Grupo_1179444" data-name="Grupo 1179444" transform="translate(-0.066 -1600)">
      <g id="Grupo_1175230" data-name="Grupo 1175230" transform="translate(-5.967 -23)">
        <g id="Grupo_1167337" data-name="Grupo 1167337" transform="translate(198.033 1992)">
          <g id="Grupo_1166720" data-name="Grupo 1166720">
            <g id="Grupo_1164305" data-name="Grupo 1164305">
              <g id="Grupo_1163948" data-name="Grupo 1163948">
                <g id="Grupo_1158168" data-name="Grupo 1158168">
                  <g id="Grupo_1152576" data-name="Grupo 1152576">
                    <g id="Grupo_1148633" data-name="Grupo 1148633">
                      <g id="Grupo_1148525" data-name="Grupo 1148525">
                        <g transform="matrix(1, 0, 0, 1, -9, -6)" filter="url(#Trazado_982547)">
                          <g id="Trazado_982547-2" data-name="Trazado 982547" transform="translate(9 6)" fill="#fdfbec">
                            <path d="M 37.966796875 74.43359375 C 33.04315185546875 74.43359375 28.26757431030273 73.46962738037109 23.77274131774902 71.56847381591797 C 19.43047523498535 69.73184967041016 15.53040790557861 67.10224914550781 12.18087482452393 63.75271987915039 C 8.831341743469238 60.4031867980957 6.201741218566895 56.50312042236328 4.365118980407715 52.16086196899414 C 2.463963508605957 47.66601943969727 1.499996900558472 42.89044189453125 1.499996900558472 37.966796875 C 1.499996900558472 33.04315185546875 2.463963508605957 28.26757431030273 4.365118980407715 23.77274131774902 C 6.201741218566895 19.43047523498535 8.831341743469238 15.53040790557861 12.18087482452393 12.18087482452393 C 15.53040790557861 8.831341743469238 19.43047523498535 6.201741218566895 23.77274131774902 4.365118980407715 C 28.26757431030273 2.463963508605957 33.04315185546875 1.499996900558472 37.966796875 1.499996900558472 C 42.89044189453125 1.499996900558472 47.66601943969727 2.463963508605957 52.16086196899414 4.365118980407715 C 56.50312042236328 6.201741218566895 60.4031867980957 8.831341743469238 63.75271987915039 12.18087482452393 C 67.10224914550781 15.53040790557861 69.73184967041016 19.43047523498535 71.56847381591797 23.77274131774902 C 73.46962738037109 28.26757431030273 74.43359375 33.04315185546875 74.43359375 37.966796875 C 74.43359375 42.89044189453125 73.46962738037109 47.66601943969727 71.56847381591797 52.16086196899414 C 69.73184967041016 56.50313186645508 67.10224914550781 60.4031867980957 63.75271987915039 63.75271987915039 C 60.4031867980957 67.10224914550781 56.50313186645508 69.73184967041016 52.16086196899414 71.56847381591797 C 47.66601943969727 73.46962738037109 42.89044189453125 74.43359375 37.966796875 74.43359375 Z" stroke="none"/>
                            <path d="M 37.966796875 3 C 33.2449836730957 3 28.66600799560547 3.924095153808594 24.35705947875977 5.746635437011719 C 20.19359588623047 7.507637023925781 16.45379638671875 10.02928161621094 13.24153518676758 13.24153518676758 C 10.02927398681641 16.45379638671875 7.507621765136719 20.19359588623047 5.746635437011719 24.35705947875977 C 3.924095153808594 28.66600799560547 3 33.2449836730957 3 37.966796875 C 3 42.6886100769043 3.924095153808594 47.26758575439453 5.746635437011719 51.57653427124023 C 7.507621765136719 55.73999786376953 10.02927398681641 59.47979736328125 13.24153518676758 62.69205856323242 C 16.45379638671875 65.90431976318359 20.19359588623047 68.42597198486328 24.35705947875977 70.18695831298828 C 28.66600799560547 72.00949859619141 33.2449836730957 72.93359375 37.966796875 72.93359375 C 42.6886100769043 72.93359375 47.26758575439453 72.00949859619141 51.57653427124023 70.18695831298828 C 55.73999786376953 68.42597198486328 59.47979736328125 65.90431976318359 62.69205856323242 62.69205856323242 C 65.90431976318359 59.47979736328125 68.42597198486328 55.73999786376953 70.18695831298828 51.57653427124023 C 72.00949859619141 47.26758575439453 72.93359375 42.6886100769043 72.93359375 37.966796875 C 72.93359375 33.2449836730957 72.00949859619141 28.66600799560547 70.18695831298828 24.35705947875977 C 68.42597198486328 20.19359588623047 65.90431976318359 16.45379638671875 62.69205856323242 13.24153518676758 C 59.47979736328125 10.02928161621094 55.73999786376953 7.507637023925781 51.57653427124023 5.746635437011719 C 47.26758575439453 3.924095153808594 42.6886100769043 3 37.966796875 3 M 37.966796875 0 C 58.93528366088867 0 75.93359375 16.99832153320312 75.93359375 37.966796875 C 75.93359375 58.93528366088867 58.93528366088867 75.93359375 37.966796875 75.93359375 C 16.99831008911133 75.93359375 0 58.93528366088867 0 37.966796875 C 0 16.99832153320312 16.99831008911133 0 37.966796875 0 Z" stroke="none" fill="#84792b"/>
                          </g>
                        </g>
                      </g>
                    </g>
                  </g>
                </g>
              </g>
            </g>
          </g>
        </g>
      </g>
    </g>
    <g id="recreo_1_" data-name="recreo (1)" transform="translate(207.5 382)">
      <path id="Trazado_1043853" data-name="Trazado 1043853" d="M188.813,297.665v4.056a12.236,12.236,0,0,0,3.207-.1V301.3a7.294,7.294,0,0,1,1.278-4.227,8.071,8.071,0,0,1-4.485.587Zm0,0" transform="translate(-170.593 -269.122)" fill="#a2f9f9"/>
      <path id="Trazado_1043854" data-name="Trazado 1043854" d="M225.468,285.157a2.535,2.535,0,0,1-.194,3.174v4.5h1.44a2.006,2.006,0,0,1,3.767-.686,2.007,2.007,0,0,1,3.767.686h5.831V282.69a7.053,7.053,0,0,0-3.2-6.057,9.592,9.592,0,0,1-4.181.953H229.87a10.954,10.954,0,0,1-4.038-.735,7.178,7.178,0,0,0-2.942,5.932v1.194l.239.024h0l-.07-.185a.777.777,0,0,1,.452-1l.2-.075a.778.778,0,0,1,1,.453Zm0,0" transform="translate(-201.463 -250.602)" fill="#48e5e1"/>
      <path id="Trazado_1043855" data-name="Trazado 1043855" d="M223.13,286.107h0l-.07-.185a.777.777,0,0,1,.453-1l.2-.075a.777.777,0,0,1,1,.453l.751,1.964a2.608,2.608,0,0,1,.227.391l.087.02v-2.785a7.181,7.181,0,0,1,2.238-5.341,10.3,10.3,0,0,1-2.188-.592,7.179,7.179,0,0,0-2.942,5.932v1.194Zm0,0" transform="translate(-201.464 -252.707)" fill="#41ceca"/>
      <path id="Trazado_1043856" data-name="Trazado 1043856" d="M247.355,435.082v-3.036a1.961,1.961,0,0,1,.225-.912,2.006,2.006,0,0,0-3.767.686h-1.44v4.644a.607.607,0,0,1-.608.6h4.173v-.007A2,2,0,0,0,247.58,436a1.959,1.959,0,0,1-.225-.914Zm0,0" transform="translate(-218.562 -389.593)" fill="#a2f9f9"/>
      <path id="Trazado_1043857" data-name="Trazado 1043857" d="M303.023,437.061v.007h8.118a2.623,2.623,0,1,0,0-5.246h-5.993a2,2,0,0,0-3.992.226v3.035A1.992,1.992,0,0,0,303.023,437.061Zm0,0" transform="translate(-272.364 -389.593)" fill="#a2f9f9"/>
      <path id="Trazado_1043858" data-name="Trazado 1043858" d="M304.026,435.082v-3.036a1.969,1.969,0,0,1,.569-1.384,2,2,0,0,0-3.435,1.384v3.036a1.991,1.991,0,0,0,1.867,1.978v.007h2.866v-.007A1.992,1.992,0,0,1,304.026,435.082Zm0,0" transform="translate(-272.368 -389.593)" fill="#91e0e0"/>
      <path id="Trazado_1043859" data-name="Trazado 1043859" d="M287.381,286.1H284.55a12.1,12.1,0,0,1-1.3-.069,2.29,2.29,0,0,0,4.577.059C287.679,286.093,287.53,286.1,287.381,286.1Zm0,0" transform="translate(-256.143 -259.112)" fill="#ffd5b3"/>
      <path id="Trazado_1043860" data-name="Trazado 1043860" d="M217.088,90.143h-.038V88.806c0-.1,0-.206-.006-.309a2.39,2.39,0,0,1-.7.383,4.992,4.992,0,0,1-1.659.3c-2.875,0-4.175-3.025-4.188-3.055l-.089-.212-.085.214c-.015.039-1.592,3.922-4.225,3.922a2.925,2.925,0,0,1-.879-.14c-1.248-.393-1.66-1.342-1.226-2.821l-.171-.075c-.809,1.351-2.051,2.961-3.368,2.961a1.623,1.623,0,0,1-.457-.066,1.59,1.59,0,0,1-1.042-.849,3.7,3.7,0,0,1,.219-2.862l-.172-.076c-1.091,2.287-2.251,3.4-3.548,3.4a2.3,2.3,0,0,1-.446-.045v5.77c0,6.213,4.3,9.568,9.6,9.568h2.83A9.6,9.6,0,0,0,216.73,97.7a2.356,2.356,0,0,0,.358.028c1.645,0,2.978-1.7,2.978-3.793s-1.333-3.793-2.978-3.793Zm0,0" transform="translate(-176.209 -77.833)" fill="#ffd5b3"/>
      <path id="Trazado_1043861" data-name="Trazado 1043861" d="M197.892,116.641V110.2c0-.224.008-.446.024-.666a3,3,0,0,1-2.9,1.435v5.675c0,6.214,4.3,9.568,9.6,9.568h2.847c-5.288-.014-9.569-3.367-9.569-9.568Zm0,0" transform="translate(-176.208 -99.225)" fill="#e5bfa1"/>
      <path id="Trazado_1043862" data-name="Trazado 1043862" d="M265.349,217.874a3.221,3.221,0,0,1-3.231-3.2.6.6,0,0,1,.608-.6h5.248a.6.6,0,0,1,.608.6A3.221,3.221,0,0,1,265.349,217.874Zm0,0" transform="translate(-236.999 -193.926)" fill="#fb8276"/>
      <path id="Trazado_1043863" data-name="Trazado 1043863" d="M265.018,214.673a.6.6,0,0,1,.608-.6h-2.9a.6.6,0,0,0-.608.6,3.235,3.235,0,0,0,4.682,2.86,3.2,3.2,0,0,1-1.782-2.86Zm0,0" transform="translate(-236.999 -193.926)" fill="#e1756a"/>
      <path id="Trazado_1043864" data-name="Trazado 1043864" d="M195.668,7.5h-3.062a10.369,10.369,0,0,0-10.388,10.35V18a2.808,2.808,0,0,0,.681.38c2.2.872,3.688-1.342,4.6-3.257-.68,1.646-.657,3.387.884,3.837,1.487.434,2.915-1.241,3.932-2.937-.348,1.186-.271,2.446,1.288,2.937,3.281,1.034,5.22-3.837,5.22-3.837s1.79,4.281,5.966,2.8a2.418,2.418,0,0,0,1.228-.945A10.372,10.372,0,0,0,195.668,7.5Zm0,0" transform="translate(-164.618 -6.794)" fill="#f7931e"/>
      <path id="Trazado_1043865" data-name="Trazado 1043865" d="M185.092,18.006v-.155A10.369,10.369,0,0,1,195.48,7.5h-2.869a10.369,10.369,0,0,0-10.388,10.35v.155a2.8,2.8,0,0,0,.681.38,2.424,2.424,0,0,0,2.365-.257c-.062-.039-.121-.08-.177-.123Zm0,0" transform="translate(-164.623 -6.795)" fill="#de841b"/>
      <path id="Trazado_1043866" data-name="Trazado 1043866" d="M100.45,247.106v-.687a1.331,1.331,0,0,0-1.337-1.325H95.224a1.331,1.331,0,0,0-1.337,1.325v.687Zm0,0" transform="translate(-84.599 -222.031)" fill="#89c947"/>
      <path id="Trazado_1043867" data-name="Trazado 1043867" d="M96.8,247.106v-.687a1.331,1.331,0,0,1,1.337-1.325H95.224a1.331,1.331,0,0,0-1.337,1.325v.687Zm0,0" transform="translate(-84.599 -222.031)" fill="#7bb540"/>
      <path id="Trazado_1043868" data-name="Trazado 1043868" d="M80.006,277.07a.607.607,0,0,1-.608.6H69.312a.607.607,0,0,1-.608-.6v-10a.606.606,0,0,1,.608-.6H79.4a.607.607,0,0,1,.608.6Zm0,0" transform="translate(-61.786 -241.397)" fill="#d5e962"/>
      <path id="Trazado_1043869" data-name="Trazado 1043869" d="M71.613,277.07V272.8l-.569-.547a1.045,1.045,0,0,1,.569-1.787v-3.393a.607.607,0,0,1,.608-.6H69.311a.606.606,0,0,0-.608.6v10a.606.606,0,0,0,.608.6H72.22a.606.606,0,0,1-.608-.6Zm0,0" transform="translate(-61.786 -241.397)" fill="#bfd158"/>
      <path id="Trazado_1043870" data-name="Trazado 1043870" d="M102.182,302.176a.348.348,0,0,1-.161-.039l-1.434-.743-1.434.743a.349.349,0,0,1-.364-.026.338.338,0,0,1-.137-.333l.273-1.574-1.16-1.114a.337.337,0,0,1-.088-.349.346.346,0,0,1,.279-.233l1.6-.229.717-1.431a.348.348,0,0,1,.62,0l.717,1.431,1.6.229a.345.345,0,0,1,.279.233.337.337,0,0,1-.087.349l-1.16,1.114.274,1.574a.338.338,0,0,1-.137.333A.35.35,0,0,1,102.182,302.176Zm0,0" transform="translate(-88.019 -268.741)" fill="#89c947"/>
      <path id="Trazado_1043871" data-name="Trazado 1043871" d="M19.3,396.086a.607.607,0,0,1-.608.6H8.608a.607.607,0,0,1-.608-.6v-10a.607.607,0,0,1,.608-.6H18.695a.607.607,0,0,1,.608.6Zm0,0" transform="translate(-6.795 -349.214)" fill="#fb8276"/>
      <path id="Trazado_1043872" data-name="Trazado 1043872" d="M10.882,396.086v-4.017l-.452-.442a2.22,2.22,0,0,1,0-3.181,2.3,2.3,0,0,1,.452-.343v-2.013a.607.607,0,0,1,.608-.6H8.608a.607.607,0,0,0-.608.6v10a.607.607,0,0,0,.608.6h2.882A.607.607,0,0,1,10.882,396.086Zm0,0" transform="translate(-6.795 -349.214)" fill="#e1756a"/>
      <path id="Trazado_1043873" data-name="Trazado 1043873" d="M37.373,422.677a.289.289,0,0,1-.2-.082l-2.526-2.471a1.513,1.513,0,0,1,0-2.172,1.595,1.595,0,0,1,2.22,0l.508.5.508-.5a1.595,1.595,0,0,1,2.22,0,1.513,1.513,0,0,1,0,2.172L37.574,422.6a.289.289,0,0,1-.2.082Zm0,0" transform="translate(-30.516 -378.216)" fill="#ef5050"/>
      <path id="Trazado_1043874" data-name="Trazado 1043874" d="M137.174,387.794l-2.339-.235a.72.72,0,0,1-.644-.789l.019-.2a.72.72,0,0,1,.789-.645l1.689.17.013-.126-2.062-.208a.717.717,0,0,1-.5-.279h-5.424a.607.607,0,0,0-.608.6v10a.607.607,0,0,0,.608.6H138.8a.607.607,0,0,0,.608-.6v-9.143a2.655,2.655,0,0,1-2.237.852Zm0,0" transform="translate(-115.601 -349.213)" fill="#ffc502"/>
      <path id="Trazado_1043875" data-name="Trazado 1043875" d="M130.984,396.086v-3.259l-.5-.862a1.841,1.841,0,0,1,0-1.754l.5-.862v-3.259a.607.607,0,0,1,.608-.6h-2.871a.606.606,0,0,0-.608.6v10a.606.606,0,0,0,.608.6h2.871A.607.607,0,0,1,130.984,396.086Zm0,0" transform="translate(-115.605 -349.214)" fill="#e5b102"/>
      <path id="Trazado_1043876" data-name="Trazado 1043876" d="M160.35,422.96a1.17,1.17,0,0,1-.912-.521l-.88-1.512a1.146,1.146,0,0,1,0-1.043l.88-1.511a1.17,1.17,0,0,1,.912-.521h1.761a1.169,1.169,0,0,1,.911.521l.881,1.511a1.146,1.146,0,0,1,0,1.043l-.881,1.512a1.169,1.169,0,0,1-.911.521Zm0,0" transform="translate(-143.072 -378.531)" fill="#fcdb67"/>
      <path id="Trazado_1043877" data-name="Trazado 1043877" d="M259.615,318.3a1.923,1.923,0,0,0-2.556.874,7.545,7.545,0,0,1-8.585,3.947,2.531,2.531,0,0,1-.439,2.8l.018-.018v1.009a11.393,11.393,0,0,0,12.435-6.081,1.882,1.882,0,0,0-.873-2.532Zm0,0" transform="translate(-224.242 -288.179)" fill="#a2f9f9"/>
      <path id="Trazado_1043878" data-name="Trazado 1043878" d="M190.821,346.466l.019-.2a.721.721,0,0,1,.789-.645l1.689.17.013-.126-2.062-.208a.72.72,0,0,1-.645-.789l.02-.2a.72.72,0,0,1,.789-.645l2.062.207.012-.126-1.689-.17a.72.72,0,0,1-.645-.789l.02-.2a.72.72,0,0,1,.789-.645l1.915.193h0l-.07-.185a.778.778,0,0,1,.452-1l.2-.075a.778.778,0,0,1,1,.453l.751,1.964a2.543,2.543,0,0,1,.454,1.721,2.612,2.612,0,0,1-2.886,2.3l-2.339-.235A.72.72,0,0,1,190.821,346.466Zm0,0" transform="translate(-172.231 -308.909)" fill="#ffd5b3"/>
      <path id="Trazado_1043879" data-name="Trazado 1043879" d="M41.041,20.6c1.956-.1,3.521-2.08,3.521-4.494a4.359,4.359,0,0,0-3.016-4.425V11.1a3.206,3.206,0,0,0,.437-.517.707.707,0,0,0,.119-.454A11.078,11.078,0,0,0,31.05,0H27.988A11.088,11.088,0,0,0,16.894,11.055v.155a.706.706,0,0,0,.276.56,3.528,3.528,0,0,0,.85.476c.026.01.051.018.077.028v5.143a10.088,10.088,0,0,0,3.038,7.631,9.222,9.222,0,0,0,1.946,1.38,7.939,7.939,0,0,0-.825.954,7.305,7.305,0,0,1-2.8.552c-.178,0-.355-.008-.532-.021V25.677a1.312,1.312,0,0,0-1.313-1.308H16.555a2.039,2.039,0,0,0-2.042-2.012H10.624a2.039,2.039,0,0,0-2.042,2.012H7.525a1.312,1.312,0,0,0-1.313,1.308v9.892h-4.4A1.312,1.312,0,0,0,.5,36.877v10A1.312,1.312,0,0,0,1.813,48.18H27.376a.694.694,0,0,0,.157-.018,2.7,2.7,0,0,0,1.484-.648,2.7,2.7,0,0,0,1.482.648.692.692,0,0,0,.16.018h8.118a3.327,3.327,0,0,0,.544-6.613V40.181a.706.706,0,1,0-1.412,0v1.341H33.336a2.716,2.716,0,0,0-4.319-1.1,2.715,2.715,0,0,0-4.319,1.1h-.182V39.568a11.96,11.96,0,0,0,1.522.1,12.085,12.085,0,0,0,10.84-6.7,2.587,2.587,0,0,0-1.2-3.48,2.633,2.633,0,0,0-3.5,1.2,6.735,6.735,0,0,1-2.753,2.9.706.706,0,1,0,.691,1.231,8.142,8.142,0,0,0,3.327-3.5,1.217,1.217,0,0,1,1.616-.552,1.176,1.176,0,0,1,.547,1.583,10.679,10.679,0,0,1-11.1,5.8v-.152a3.244,3.244,0,0,0,.645-1.641,3.169,3.169,0,0,0,.01-.518,8.216,8.216,0,0,0,1.455.032.706.706,0,1,0-.1-1.409,6.763,6.763,0,0,1-1.831-.126c-.021-.033-.042-.067-.063-.1l-.721-1.885a1.477,1.477,0,0,0-1.743-.915,6.462,6.462,0,0,1,2.308-4.387,11.241,11.241,0,0,0,1.992.5,3,3,0,0,0,5.827.093,10.3,10.3,0,0,0,3.043-.8,6.412,6.412,0,0,1,2.569,5.249v4.8a.706.706,0,1,0,1.412,0v-4.8A7.7,7.7,0,0,0,36.7,26.127,10.266,10.266,0,0,0,41.041,20.6ZM29.5,42.454a1.3,1.3,0,0,1,2.585-.146.706.706,0,0,0,.7.625h5.993a1.917,1.917,0,1,1,0,3.835H30.756l-.05-.005A1.288,1.288,0,0,1,29.5,45.489Zm-4.982.48h.734a.705.705,0,0,0,.7-.625,1.3,1.3,0,0,1,2.269-.689,2.658,2.658,0,0,0-.134.834v3.036a2.647,2.647,0,0,0,.134.832,1.3,1.3,0,0,1-.892.442l-.05.005H24.516ZM18.926,29.328c.176.011.354.017.532.017a8.8,8.8,0,0,0,1.823-.192,8.209,8.209,0,0,0-.554,2.733,11.622,11.622,0,0,1-1.269.069c-.178,0-.355-.005-.532-.014Zm.114,10.7a.508.508,0,0,1,.3.171l.881,1.512a.484.484,0,0,1,0,.333l-.881,1.511a.508.508,0,0,1-.3.171H17.279a.508.508,0,0,1-.3-.171L16.1,42.04a.483.483,0,0,1,0-.332l.881-1.512a.508.508,0,0,1,.3-.171H19.04ZM10.624,23.769h3.889a.626.626,0,0,1,.63.6H9.994a.625.625,0,0,1,.63-.6Zm-3,2.012h9.891v9.788H7.623ZM11.8,46.768H1.911V36.981H11.8Zm11.3,0H13.214V36.981h4.761a1.414,1.414,0,0,0-.068.31l-.02.2a1.422,1.422,0,0,0,.39,1.128h-1a1.866,1.866,0,0,0-1.521.872L14.877,41a1.841,1.841,0,0,0,0,1.754l.88,1.512a1.866,1.866,0,0,0,1.521.872H19.04a1.864,1.864,0,0,0,1.521-.872l.881-1.511a1.843,1.843,0,0,0,0-1.754l-.88-1.512a1.613,1.613,0,0,0-.254-.323l1.194.12c.114.011.23.017.344.017a3.387,3.387,0,0,0,1.258-.24Zm-.87-12.943a.706.706,0,0,0,.1-.674l-.07-.185a.069.069,0,0,1,0-.055.07.07,0,0,1,.04-.037l.2-.075a.073.073,0,0,1,.026-.005.074.074,0,0,1,.068.049l.751,1.964a.7.7,0,0,0,.082.154,1.846,1.846,0,0,1,.33,1.244,1.893,1.893,0,0,1-1.91,1.684c-.067,0-.135,0-.2-.01l-2.339-.235a.015.015,0,0,1-.013-.016l.02-.2a.015.015,0,0,1,.016-.013h0l1.689.17a.705.705,0,0,0,.773-.631l.012-.125a.706.706,0,0,0-.632-.773l-2.062-.208a.016.016,0,0,1-.013-.016l.019-.2c0-.011.012-.012.016-.013l2.062.208a.706.706,0,0,0,.773-.632l.012-.126a.706.706,0,0,0-.632-.773l-1.689-.17a.017.017,0,0,1-.013-.016l.02-.2c0-.011.012-.012.016-.013L21.6,34.1l.018,0A.7.7,0,0,0,22.234,33.825ZM29.4,28.463a1.586,1.586,0,0,1-1.368-.779c.126,0,.251.006.378.006H30.76a1.585,1.585,0,0,1-1.364.773Zm1.841-2.184H28.406c-5.4,0-8.9-3.478-8.9-8.862V12.478a3.48,3.48,0,0,0,2.027-.946q.175-.157.345-.339a2.639,2.639,0,0,0,.148.385,2.39,2.39,0,0,0,1.539,1.271c1.149.336,2.309-.157,3.462-1.468a2.633,2.633,0,0,0,1.743,1.464,3.733,3.733,0,0,0,1.128.179,4.554,4.554,0,0,0,3.47-1.935,9.8,9.8,0,0,0,.884-1.283,6.471,6.471,0,0,0,1.2,1.268.706.706,0,1,0,.877-1.106,5.5,5.5,0,0,1-1.475-1.906.706.706,0,0,0-.651-.434H34.2a.707.707,0,0,0-.65.445c-.017.043-1.727,4.253-4.351,3.425-.647-.2-1.25-.609-.823-2.065a.706.706,0,0,0-1.283-.561c-1.146,1.912-2.285,2.869-3.129,2.622a.981.981,0,0,1-.662-.527A3.173,3.173,0,0,1,23.535,8.6a.706.706,0,0,0-1.289-.573c-1.754,3.677-3.222,3.1-3.7,2.9a2.407,2.407,0,0,1-.232-.107,9.676,9.676,0,0,1,9.68-9.416H31.05a9.72,9.72,0,0,1,9.62,8.572,1.715,1.715,0,0,1-.734.488,4.826,4.826,0,0,1-.859.222.706.706,0,1,0,.22,1.394,6.143,6.143,0,0,0,.838-.2v.42a.705.705,0,0,0,.706.706h.046c1.249.006,2.265,1.388,2.265,3.088s-1.019,3.087-2.272,3.087a1.65,1.65,0,0,1-.252-.02.706.706,0,0,0-.788.516,8.9,8.9,0,0,1-8.6,6.591Zm0,0" transform="translate(0 0)"/>
      <path id="Trazado_1043880" data-name="Trazado 1043880" d="M343.382,156.6a.705.705,0,0,0-.706.706v1.158a.706.706,0,1,0,1.411,0V157.3A.706.706,0,0,0,343.382,156.6Zm0,0" transform="translate(-309.977 -141.862)"/>
      <path id="Trazado_1043881" data-name="Trazado 1043881" d="M232.565,156.6a.705.705,0,0,0-.706.706v1.158a.706.706,0,0,0,1.412,0V157.3A.706.706,0,0,0,232.565,156.6Zm0,0" transform="translate(-209.588 -141.862)"/>
      <path id="Trazado_1043882" data-name="Trazado 1043882" d="M283.566,168.01h.458a.706.706,0,1,0,0-1.412h-.209v-.655a.706.706,0,1,0-1.412,0v.89A1.171,1.171,0,0,0,283.566,168.01Zm0,0" transform="translate(-255.376 -149.689)"/>
      <path id="Trazado_1043883" data-name="Trazado 1043883" d="M261.179,206.566h-5.248a1.312,1.312,0,0,0-1.313,1.308,3.937,3.937,0,0,0,7.875,0A1.312,1.312,0,0,0,261.179,206.566Zm-2.624,3.8a2.516,2.516,0,0,1-2.524-2.393h5.048A2.516,2.516,0,0,1,258.555,210.37Zm0,0" transform="translate(-230.205 -187.128)"/>
      <path id="Trazado_1043884" data-name="Trazado 1043884" d="M96.528,291.014l-1.237-.177-.551-1.1a1.054,1.054,0,0,0-1.883,0l-.551,1.1-1.238.177a1.046,1.046,0,0,0-.58,1.789l.889.854-.209,1.2a1.052,1.052,0,0,0,1.522,1.107l1.109-.575,1.105.573a1.057,1.057,0,0,0,.489.12,1.049,1.049,0,0,0,1.036-1.226l-.209-1.2.888-.854a1.046,1.046,0,0,0-.58-1.79ZM94.971,292.9a.7.7,0,0,0-.206.63l.148.852-.79-.409a.706.706,0,0,0-.649,0l-.79.409.148-.852a.706.706,0,0,0-.207-.63l-.619-.594.865-.123a.707.707,0,0,0,.531-.383l.4-.791.4.791a.706.706,0,0,0,.531.383l.864.123Zm0,0" transform="translate(-81.229 -261.946)"/>
      <path id="Trazado_1043885" data-name="Trazado 1043885" d="M29.885,416.31a1,1,0,0,0,1.391,0l2.526-2.471a2.218,2.218,0,0,0,0-3.18,2.3,2.3,0,0,0-3.207,0l-.015.014-.014-.014a2.3,2.3,0,0,0-3.207,0,2.219,2.219,0,0,0,0,3.181Zm-1.539-4.642a.889.889,0,0,1,1.233,0l.508.5a.706.706,0,0,0,.987,0l.508-.5a.889.889,0,0,1,1.233,0,.808.808,0,0,1,0,1.162l-2.235,2.185-2.235-2.185a.808.808,0,0,1,0-1.162Zm0,0" transform="translate(-23.724 -371.426)"/>
      <path id="Trazado_1043886" data-name="Trazado 1043886" d="M422.163,157.857a.7.7,0,0,0,.335-.085,2.529,2.529,0,0,0,.92-3.309.706.706,0,0,0-1.3.56c.02.044.464,1.1-.3,1.507a.706.706,0,0,0,.336,1.327Zm0,0" transform="translate(-381.344 -139.542)"/>
    </g>
  </g>
</svg>
