<svg xmlns="http://www.w3.org/2000/svg" xmlns:xlink="http://www.w3.org/1999/xlink" width="190" height="182" viewBox="0 0 190 182">
  <defs>
    <clipPath id="clip-path">
      <rect id="Rect치ngulo_415828" data-name="Rect치ngulo 415828" width="190" height="182" fill="#fff" stroke="#707070" stroke-width="1" opacity="0.74"/>
    </clipPath>
    <clipPath id="clip-path-2">
      <rect id="Rect치ngulo_415827" data-name="Rect치ngulo 415827" width="162.38" height="177.751" transform="translate(0)" fill="none"/>
    </clipPath>
  </defs>
  <g id="Enmascarar_grupo_1098831" data-name="Enmascarar grupo 1098831" clip-path="url(#clip-path)">
    <g id="Grupo_1180767" data-name="Grupo 1180767" transform="translate(-22.052 -16.808)">
      <ellipse id="Elipse_12554" data-name="Elipse 12554" cx="94.424" cy="77.711" rx="94.424" ry="77.711" transform="matrix(-0.914, 0.407, -0.407, -0.914, 235.737, 145.613)" fill="#f3de50" opacity="0.6"/>
      <g id="Grupo_1180766" data-name="Grupo 1180766" transform="matrix(-0.966, 0.259, -0.259, -0.966, 215.996, 171.695)">
        <g id="Grupo_1180765" data-name="Grupo 1180765" clip-path="url(#clip-path-2)">
          <path id="Trazado_1044112" data-name="Trazado 1044112" d="M81.8,37.341c15.7,10.7,29.724,28.137,29.724,51.1A55.763,55.763,0,0,1,0,88.438c0-22.96,5.367-32.355,29.191-50.469,2.041-1.552,3.224-7.448,3.863-12.2a5.831,5.831,0,0,1-2.378-1.293c-4.383-5.092,4.149-20.083,8.387-22.083,6.652-3.14,28.775-3.244,33.981,0,3.834,2.389,13.74,20.724,6.366,23.446-.36.133-.736.259-1.122.381.492,4.483,1.492,9.743,3.513,11.121" transform="translate(25.427 0)" fill="#ffcc47"/>
          <path id="Trazado_1044113" data-name="Trazado 1044113" d="M20.394,5.538,3.388,2.921.954,2.546A1.318,1.318,0,0,1,.041.936,1.341,1.341,0,0,1,1.65.023L18.656,2.64l2.433.375A1.318,1.318,0,0,1,22,4.624a1.341,1.341,0,0,1-1.61.914" transform="translate(0 97.053)" fill="#d7741f"/>
          <path id="Trazado_1044114" data-name="Trazado 1044114" d="M14.016,2.544,1.65,4.382A1.351,1.351,0,0,1,.04,3.468a1.318,1.318,0,0,1,.914-1.61L13.32.021a1.351,1.351,0,0,1,1.61.914,1.318,1.318,0,0,1-.914,1.61" transform="translate(8.059 115.186)" fill="#d7741f"/>
          <path id="Trazado_1044115" data-name="Trazado 1044115" d="M18.227,2.2,2.271,16.392c-1.255,1.116-3.112-.728-1.851-1.85L16.377.346c1.255-1.116,3.112.728,1.851,1.851" transform="translate(10.86 128.705)" fill="#d7741f"/>
          <path id="Trazado_1044116" data-name="Trazado 1044116" d="M10.771,2.231,3.3,11.391,2.223,12.707a1.318,1.318,0,0,1-1.851,0,1.339,1.339,0,0,1,0-1.851L7.847,1.7,8.92.38a1.318,1.318,0,0,1,1.851,0,1.338,1.338,0,0,1,0,1.851" transform="translate(28.617 139.209)" fill="#d7741f"/>
          <path id="Trazado_1044117" data-name="Trazado 1044117" d="M13.166,1.951,3.757,17.926,2.45,20.145a1.309,1.309,0,0,1-2.26-1.321L9.6,2.849,10.906.63a1.309,1.309,0,0,1,2.26,1.321" transform="translate(41.633 148.842)" fill="#d7741f"/>
          <path id="Trazado_1044118" data-name="Trazado 1044118" d="M5.91,1.612l-2.9,9.679L2.585,12.7A1.31,1.31,0,0,1,.062,12l2.9-9.679L3.387.917a1.31,1.31,0,0,1,2.524.7" transform="translate(62.425 152.422)" fill="#d7741f"/>
          <path id="Trazado_1044119" data-name="Trazado 1044119" d="M3.811,1.309C3.24,7.665,2.978,14.055,2.7,20.429q-.041.922-.079,1.844C2.55,23.952-.068,23.96,0,22.273.215,17.063.468,11.852.8,6.648c.113-1.781.235-3.562.4-5.339A1.344,1.344,0,0,1,2.5,0,1.318,1.318,0,0,1,3.811,1.309" transform="translate(78.803 154.216)" fill="#d7741f"/>
          <path id="Trazado_1044120" data-name="Trazado 1044120" d="M.954,3.014,17.96.4,20.394.022A1.351,1.351,0,0,1,22,.936a1.318,1.318,0,0,1-.914,1.61L4.083,5.163,1.65,5.537A1.35,1.35,0,0,1,.04,4.623a1.318,1.318,0,0,1,.914-1.61" transform="translate(140.336 95.216)" fill="#d7741f"/>
          <path id="Trazado_1044121" data-name="Trazado 1044121" d="M1.65.022,14.016,1.859a1.318,1.318,0,0,1,.914,1.61,1.342,1.342,0,0,1-1.61.914L.954,2.545A1.318,1.318,0,0,1,.04.935,1.342,1.342,0,0,1,1.65.022" transform="translate(139.35 113.348)" fill="#d7741f"/>
          <path id="Trazado_1044122" data-name="Trazado 1044122" d="M2.271.346l15.956,14.2c1.261,1.122-.6,2.967-1.85,1.85L.421,2.2C-.84,1.075,1.016-.771,2.271.346" transform="translate(130.718 128.705)" fill="#d7741f"/>
          <path id="Trazado_1044123" data-name="Trazado 1044123" d="M2.222.378l8.416,9.284L11.848,11a1.337,1.337,0,0,1,0,1.85,1.322,1.322,0,0,1-1.851,0L1.581,3.562.372,2.229a1.338,1.338,0,0,1,0-1.851,1.322,1.322,0,0,1,1.851,0" transform="translate(120.466 141.907)" fill="#d7741f"/>
          <path id="Trazado_1044124" data-name="Trazado 1044124" d="M2.45.63l9.409,15.975,1.307,2.219a1.31,1.31,0,0,1-2.26,1.321L1.5,4.17.19,1.951A1.309,1.309,0,0,1,2.45.63" transform="translate(106.43 148.842)" fill="#d7741f"/>
          <path id="Trazado_1044125" data-name="Trazado 1044125" d="M2.585.917l2.9,9.679L5.91,12a1.31,1.31,0,0,1-2.524.7L.484,3.02.062,1.613a1.31,1.31,0,0,1,2.524-.7" transform="translate(93.023 152.421)" fill="#d7741f"/>
          <path id="Trazado_1044126" data-name="Trazado 1044126" d="M.789,0A19.706,19.706,0,0,1,6.373,2.662,11.283,11.283,0,0,1,11.09,14.1a7.647,7.647,0,0,1-3.1,4.986,5.646,5.646,0,0,1-5.938-.275A12.2,12.2,0,0,1,0,17.3,56.189,56.189,0,0,0,1.088,2.119,15.794,15.794,0,0,0,.789,0" transform="translate(98.694 78.706)" fill="#ffb438"/>
          <path id="Trazado_1044127" data-name="Trazado 1044127" d="M3.658,1.822c-.12,3.033-.258,6.067-.384,9.1C1.208,7.9-.244,5.537.034,4.3A6.3,6.3,0,0,1,3.73,0q-.036.911-.072,1.822" transform="translate(85.633 48.41)" fill="#ffb438"/>
          <path id="Trazado_1044128" data-name="Trazado 1044128" d="M37.164,54.18c-4.036,10.9-12,20.137-21.69,26.555C12.015,83.026,7.523,85,3.876,83.027.829,81.376-.35,77.449.088,74.011s2.144-6.561,3.614-9.7A70.337,70.337,0,0,0,8.2,51.8a10.642,10.642,0,0,0,5.6,2.286,7.7,7.7,0,0,0,6.564-3.094c3.242-4.147,3.03-10.252.365-14.634-2.469-4.06-7.2-6.528-11.731-7.535-.059-.013-.118-.02-.177-.033-1.589-4.453-4.562-9-7.27-12.924.08-1.925.171-3.849.247-5.772q.19-4.816.38-9.631A20.832,20.832,0,0,1,9.245.178c11.51,1.6,21.712,9.637,26.781,20.094S41.2,43.283,37.164,54.18" transform="translate(89.842 47.053)" fill="#ffb438"/>
          <path id="Trazado_1044129" data-name="Trazado 1044129" d="M58.524,70a7.7,7.7,0,0,1-6.564,3.094A11.64,11.64,0,0,1,44.8,69.44c-3.573-3.571-5.677-8.492-6.742-13.364-.287-1.313-.507-2.637-.677-3.967a17.023,17.023,0,0,0-5.571,5.281A24.494,24.494,0,0,1,34.5,61.369a23.963,23.963,0,0,1,2.609,7.562c.424,2.687.071,6.015-2.711,7.332-2.55,1.207-5.006-.418-6.263-2.652a15.162,15.162,0,0,1-1.605-7.569,19.065,19.065,0,0,1,2.084-8.3,23.1,23.1,0,0,0-2.169-1.99,26.4,26.4,0,0,0-3.082-2.141,34.509,34.509,0,0,1-3.012,9.775c-2.2,4.461-6.193,9.484-11.587,9.724C3.186,73.354,0,67.589,0,62.665A14.269,14.269,0,0,1,8.076,49.931a15.008,15.008,0,0,1,6.818-1.583,18.126,18.126,0,0,1,6.318,1.33A101.282,101.282,0,0,0,21.3,37.559C20.867,25.7,20.365,13.84,19.9,1.981L19.819,0q1.287.115,2.625.206Q23.073,16.154,23.7,32.1c.241,6.1.675,12.522.029,18.732a26.788,26.788,0,0,1,6.279,4.594,18.794,18.794,0,0,1,2.918-3.268,20.007,20.007,0,0,1,4.176-2.847c-.227-2.945-.249-5.91-.184-8.855.135-6.09.452-12.179.692-18.266l.771-19.559q.046-1.157.091-2.314Q39.806.239,41.1.125,40.529,14.613,39.957,29.1c-.207,5.241-.526,10.5-.44,15.743.019,1.137.059,2.276.129,3.413a14.255,14.255,0,0,1,7.511-.427c4.534,1.007,9.263,3.475,11.731,7.535,2.665,4.383,2.878,10.488-.365,14.634M13.16,51.045A12.239,12.239,0,0,0,3.433,58.4C2,62.093,2.27,67.606,6.08,69.844c4.185,2.458,8.583-2.146,10.643-5.353a29.763,29.763,0,0,0,4.193-12.138,14.881,14.881,0,0,0-7.756-1.308M30.008,71.493c.529,1.338,1.976,3.429,3.565,2.227,1.867-1.412,1.02-4.532.511-6.4a22.1,22.1,0,0,0-3.629-7.409,15.648,15.648,0,0,0-.448,11.582M53.389,53.328c-3.243-2.2-7.523-3.815-11.469-2.993a14.39,14.39,0,0,0-2.042.594,38.416,38.416,0,0,0,1.6,7.756c1.336,4.1,3.747,8.56,7.59,10.79A5.645,5.645,0,0,0,55,69.749a7.648,7.648,0,0,0,3.1-4.986,11.283,11.283,0,0,0-4.717-11.435" transform="translate(51.678 28.04)" fill="#d7741f"/>
          <path id="Trazado_1044130" data-name="Trazado 1044130" d="M1.218,24.477C-3.165,19.385,5.368,4.394,9.605,2.394c6.652-3.14,28.775-3.245,33.981,0,3.833,2.389,13.74,20.724,6.365,23.445C36.576,30.775,4.4,28.173,1.218,24.477" transform="translate(54.885 0)" fill="#3a4d8e"/>
          <path id="Trazado_1044131" data-name="Trazado 1044131" d="M11.472,7.661l.654.022-.261,1.928A33.88,33.88,0,0,1,.276,1.689C-.594.773.792-.617,1.664.3A31.581,31.581,0,0,0,12.386,7.718a1,1,0,0,1,.7,1.077.977.977,0,0,1-.964.851l-.654-.022c-1.26-.043-1.265-2.006,0-1.963" transform="translate(46.552 120.489)" fill="#fff"/>
          <path id="Trazado_1044132" data-name="Trazado 1044132" d="M9.029,33.407a28.644,28.644,0,0,1-7.2-12.95A50.759,50.759,0,0,1,0,6.591,38.292,38.292,0,0,1,.425.717.988.988,0,0,1,1.632.031a1.006,1.006,0,0,1,.685,1.207c-.095.6-.167,1.253-.226,2.012-.069.882-.107,1.766-.122,2.651a52.546,52.546,0,0,0,.266,6.146A39.9,39.9,0,0,0,5.827,25.555a23,23,0,0,0,4.589,6.465c.909.88-.48,2.267-1.388,1.388" transform="translate(32.817 81.602)" fill="#fff"/>
          <path id="Trazado_1044133" data-name="Trazado 1044133" d="M7.183,11.026A29.344,29.344,0,0,1,.116,1.469,1.01,1.01,0,0,1,.468.126.989.989,0,0,1,1.811.478a27.954,27.954,0,0,0,6.76,9.16c.943.844-.449,2.228-1.388,1.388" transform="translate(44.013 107.055)" fill="#fff"/>
          <path id="Trazado_1044134" data-name="Trazado 1044134" d="M.948,0a.982.982,0,0,1,0,1.963A.982.982,0,0,1,.948,0" transform="translate(55.895 119.91)" fill="#fff"/>
          <path id="Trazado_1044135" data-name="Trazado 1044135" d="M.948,0a.982.982,0,0,1,0,1.963A.982.982,0,0,1,.948,0" transform="translate(60.465 122.926)" fill="#fff"/>
          <path id="Trazado_1044136" data-name="Trazado 1044136" d="M.516,16.663A31.968,31.968,0,0,1,1.687.675C2.093-.513,3.989,0,3.579,1.2A29.912,29.912,0,0,0,2.408,16.141c.222,1.235-1.669,1.765-1.893.522" transform="translate(38.703 72.57)" fill="#fff"/>
          <path id="Trazado_1044137" data-name="Trazado 1044137" d="M34.429,3.1a75.814,75.814,0,0,0-26.17-.738Q4.585,2.9.977,3.8A.786.786,0,0,1,.56,2.29,77.567,77.567,0,0,1,27.3.42q3.8.4,7.544,1.167c.989.2.571,1.716-.417,1.514" transform="translate(63.341 17.757)" fill="#fff"/>
          <path id="Trazado_1044138" data-name="Trazado 1044138" d="M11.859,1.57l-11.1.007a.786.786,0,0,1,0-1.57L11.859,0a.786.786,0,0,1,0,1.57" transform="translate(86.401 12.621)" fill="#fff"/>
          <path id="Trazado_1044139" data-name="Trazado 1044139" d="M5.823,1.571.786,1.757A.791.791,0,0,1,0,.972.8.8,0,0,1,.786.187L5.823,0a.791.791,0,0,1,.785.785.8.8,0,0,1-.785.785" transform="translate(72.567 12.304)" fill="#fff"/>
          <path id="Trazado_1044140" data-name="Trazado 1044140" d="M.758,0a.786.786,0,0,1,0,1.57A.786.786,0,0,1,.758,0" transform="translate(66.065 12.5)" fill="#fff"/>
          <path id="Trazado_1044141" data-name="Trazado 1044141" d="M.758,0a.786.786,0,0,1,0,1.57A.786.786,0,0,1,.758,0" transform="translate(62.054 12.593)" fill="#fff"/>
          <path id="Trazado_1044142" data-name="Trazado 1044142" d="M16.706,1.571.758,2.028a.786.786,0,0,1,0-1.57L16.706,0a.786.786,0,0,1,0,1.57" transform="translate(73.807 6.968)" fill="#fff"/>
        </g>
      </g>
    </g>
  </g>
</svg>
