<svg xmlns="http://www.w3.org/2000/svg" xmlns:xlink="http://www.w3.org/1999/xlink" width="124.19" height="124.19" viewBox="0 0 124.19 124.19">
  <defs>
    <filter id="Trazado_978624" x="0" y="0" width="124.19" height="124.19" filterUnits="userSpaceOnUse">
      <feOffset dy="3" input="SourceAlpha"/>
      <feGaussianBlur stdDeviation="3" result="blur"/>
      <feFlood flood-opacity="0.161"/>
      <feComposite operator="in" in2="blur"/>
      <feComposite in="SourceGraphic"/>
    </filter>
  </defs>
  <g id="Grupo_1180771" data-name="Grupo 1180771" transform="translate(-1286 -5404)">
    <g id="Grupo_1179464" data-name="Grupo 1179464" transform="translate(1295 5410)">
      <g id="Grupo_1144531" data-name="Grupo 1144531">
        <g transform="matrix(1, 0, 0, 1, -9, -6)" filter="url(#Trazado_978624)">
          <g id="Trazado_978624-2" data-name="Trazado 978624" transform="translate(9 6)" fill="#edf3fc">
            <path d="M 53.094970703125 104.68994140625 C 46.1290283203125 104.68994140625 39.37225723266602 103.3259887695312 33.0123405456543 100.6359710693359 C 26.86862754821777 98.03739929199219 21.35069847106934 94.31700134277344 16.61181449890137 89.578125 C 11.8729419708252 84.83924102783203 8.152542114257812 79.32131195068359 5.553970813751221 73.17759704589844 C 2.863956451416016 66.81768798828125 1.499999284744263 60.0609130859375 1.499999284744263 53.094970703125 C 1.499999284744263 46.1290283203125 2.863956451416016 39.37225723266602 5.553970813751221 33.0123405456543 C 8.152542114257812 26.86862754821777 11.8729419708252 21.35069847106934 16.61181449890137 16.61181449890137 C 21.35069847106934 11.8729419708252 26.86862754821777 8.152542114257812 33.0123405456543 5.553970813751221 C 39.37225723266602 2.863956451416016 46.1290283203125 1.499999284744263 53.094970703125 1.499999284744263 C 60.0609130859375 1.499999284744263 66.81768798828125 2.863956451416016 73.17759704589844 5.553970813751221 C 79.32131195068359 8.152542114257812 84.83924102783203 11.8729419708252 89.578125 16.61181449890137 C 94.31700134277344 21.35069847106934 98.03739929199219 26.86862754821777 100.6359710693359 33.0123405456543 C 103.3259887695312 39.37225723266602 104.68994140625 46.1290283203125 104.68994140625 53.094970703125 C 104.68994140625 60.0609130859375 103.3259887695312 66.81768798828125 100.6359710693359 73.17759704589844 C 98.03739929199219 79.32131195068359 94.31700134277344 84.83924102783203 89.578125 89.578125 C 84.83924102783203 94.31700134277344 79.32131195068359 98.03739929199219 73.17759704589844 100.6359710693359 C 66.81768798828125 103.3259887695312 60.0609130859375 104.68994140625 53.094970703125 104.68994140625 Z" stroke="none"/>
            <path d="M 53.094970703125 3.000007629394531 C 46.33087158203125 3.000007629394531 39.77069091796875 4.324089050292969 33.59667205810547 6.93548583984375 C 27.63175201416016 9.45843505859375 22.27408599853516 13.07086944580078 17.67247009277344 17.6724853515625 C 13.07086944580078 22.27408599853516 9.458419799804688 27.63175201416016 6.93548583984375 33.59667205810547 C 4.324089050292969 39.77070617675781 3.000007629394531 46.33087158203125 3.000007629394531 53.094970703125 C 3.000007629394531 59.85906982421875 4.324089050292969 66.41923522949219 6.93548583984375 72.59326934814453 C 9.458419799804688 78.55818939208984 13.07086944580078 83.91585540771484 17.67247009277344 88.5174560546875 C 22.27408599853516 93.11907196044922 27.63175201416016 96.73150634765625 33.59667205810547 99.25445556640625 C 39.77069091796875 101.865852355957 46.33087158203125 103.1899337768555 53.094970703125 103.1899337768555 C 59.85906982421875 103.1899337768555 66.41923522949219 101.865852355957 72.59326934814453 99.25445556640625 C 78.55818939208984 96.73150634765625 83.91585540771484 93.11905670166016 88.5174560546875 88.5174560546875 C 93.11905670166016 83.91585540771484 96.73150634765625 78.55818939208984 99.25445556640625 72.59326934814453 C 101.865852355957 66.41923522949219 103.1899337768555 59.85906982421875 103.1899337768555 53.094970703125 C 103.1899337768555 46.33087158203125 101.865852355957 39.77070617675781 99.25445556640625 33.59667205810547 C 96.73150634765625 27.63175201416016 93.11905670166016 22.27408599853516 88.5174560546875 17.6724853515625 C 83.91585540771484 13.07088470458984 78.55818939208984 9.45843505859375 72.59326934814453 6.93548583984375 C 66.41923522949219 4.324089050292969 59.85906982421875 3.000007629394531 53.094970703125 3.000007629394531 M 53.094970703125 7.62939453125e-06 C 82.41850280761719 7.62939453125e-06 106.1899337768555 23.77143859863281 106.1899337768555 53.094970703125 C 106.1899337768555 82.41850280761719 82.41850280761719 106.1899337768555 53.094970703125 106.1899337768555 C 23.77142333984375 106.1899337768555 7.62939453125e-06 82.41850280761719 7.62939453125e-06 53.094970703125 C 7.62939453125e-06 23.77143859863281 23.77142333984375 7.62939453125e-06 53.094970703125 7.62939453125e-06 Z" stroke="none" fill="#5692e8"/>
          </g>
        </g>
      </g>
    </g>
    <g id="nino" transform="translate(1316.61 5427.235)">
      <g id="Grupo_1180769" data-name="Grupo 1180769" transform="translate(1.052 1.052)">
        <path id="Trazado_1044143" data-name="Trazado 1044143" d="M97.07,366.593S88.3,368.686,88.3,381.368H99.84V373.33Z" transform="translate(-81.388 -316.226)" fill="#475066"/>
        <path id="Trazado_1044144" data-name="Trazado 1044144" d="M343.869,365.348s9.091,2.267,9.091,14.95H341.419V365.523Z" transform="translate(-299.004 -315.155)" fill="#475066"/>
        <path id="Trazado_1044145" data-name="Trazado 1044145" d="M47.582,36.733a29.233,29.233,0,0,1,58.467,0Z" transform="translate(-46.382 -7.5)" fill="#d3918a"/>
        <path id="Trazado_1044146" data-name="Trazado 1044146" d="M60.83,36.066c0-10.243,4.87-21.038,12.643-27.2A29.275,29.275,0,0,0,47.582,37.911h13.31C60.852,37.3,60.83,36.686,60.83,36.066Z" transform="translate(-46.382 -8.678)" fill="#cb827c"/>
        <circle id="Elipse_12555" data-name="Elipse 12555" cx="6.911" cy="6.911" r="6.911" transform="translate(47.044 22.476)" fill="#ffbe9c"/>
        <path id="Trazado_1044147" data-name="Trazado 1044147" d="M132.241,97.279a2.182,2.182,0,0,0-2.563-.579,7.433,7.433,0,0,1-3.093.66,7.126,7.126,0,0,1-4.556-1.573,2.2,2.2,0,0,0-2.815,0,7.385,7.385,0,0,1-9.111,0,2.2,2.2,0,0,0-2.815,0,7.125,7.125,0,0,1-4.556,1.573,7.434,7.434,0,0,1-3.093-.66,2.186,2.186,0,0,0-2.567.583,23.059,23.059,0,1,0,35.167,0Z" transform="translate(-84.226 -82.966)" fill="#ffd3bc"/>
        <path id="Trazado_1044148" data-name="Trazado 1044148" d="M68.507,142.768a28.1,28.1,0,0,1-15.034-24.884,36.248,36.248,0,0,1,2.56-13.143,7.222,7.222,0,0,1-1.593-.511,2.186,2.186,0,0,0-2.567.583,23.012,23.012,0,0,0-4.512,8.306,6.912,6.912,0,1,0,.08,13.509,22.987,22.987,0,0,0,21.065,16.139Z" transform="translate(-39.025 -90.496)" fill="#ffbe9c"/>
        <ellipse id="Elipse_12556" data-name="Elipse 12556" cx="4.775" cy="3.803" rx="4.775" ry="3.803" transform="translate(12.716 31.738)" fill="#fd8b9b"/>
        <ellipse id="Elipse_12557" data-name="Elipse 12557" cx="4.775" cy="3.803" rx="4.775" ry="3.803" transform="translate(38.6 31.738)" fill="#fd8b9b"/>
        <ellipse id="Elipse_12558" data-name="Elipse 12558" cx="2.535" cy="2.837" rx="2.535" ry="2.837" transform="translate(27.899 29.782)" fill="#303646"/>
        <path id="Trazado_1044149" data-name="Trazado 1044149" d="M194.541,297.149v-1.508a2.868,2.868,0,0,0-3.848-2.7c-1.112.4-2.572.934-4.5,1.629a11.08,11.08,0,0,1-7.542,0l-4.229-1.534a2.867,2.867,0,0,0-3.845,2.7v9.14h23.962v-7.729Z" transform="translate(-152.127 -252.758)" fill="#ecebfd"/>
        <path id="Trazado_1044150" data-name="Trazado 1044150" d="M165.58,327.474a11.06,11.06,0,0,1-3.907-.661l-7.928-2.876a2.175,2.175,0,0,0-2.917,2.045v13.271a4.616,4.616,0,0,0,3.042,4.339l7.8,2.831a11.062,11.062,0,0,0,3.907.661l7.241-12.1Z" transform="translate(-135.146 -279.439)" fill="#7ce0fd"/>
        <path id="Trazado_1044151" data-name="Trazado 1044151" d="M267.564,323.936l-7.929,2.876a11.022,11.022,0,0,1-3.635.661v19.611a11.025,11.025,0,0,0,3.635-.661l7.8-2.831a4.616,4.616,0,0,0,3.042-4.34V325.981A2.175,2.175,0,0,0,267.564,323.936Z" transform="translate(-225.566 -279.438)" fill="#2ecdf9"/>
        <path id="Trazado_1044152" data-name="Trazado 1044152" d="M329.8,439.367h6.22a4.568,4.568,0,0,1,0,9.136H329.8a4.568,4.568,0,0,1,0-9.136Z" transform="translate(-285.085 -378.792)" fill="#ffd3bc"/>
        <path id="Trazado_1044153" data-name="Trazado 1044153" d="M177.44,294.723l-3.015-1.094a2.867,2.867,0,0,0-3.845,2.7v9.141h3.878C174.694,300.72,175.607,297.219,177.44,294.723Z" transform="translate(-152.128 -253.346)" fill="#d1d1fd"/>
        <path id="Trazado_1044154" data-name="Trazado 1044154" d="M157.413,334.241a34.925,34.925,0,0,1,.89-8.651l-4.558-1.654a2.175,2.175,0,0,0-2.917,2.045v13.272a4.616,4.616,0,0,0,3.042,4.339l7.8,2.831c.119.043.238.082.358.12A18.628,18.628,0,0,1,157.413,334.241Z" transform="translate(-135.146 -279.439)" fill="#2ecdf9"/>
        <path id="Trazado_1044155" data-name="Trazado 1044155" d="M88.082,439.367h-6.22a4.568,4.568,0,0,0,0,9.136h6.22a4.568,4.568,0,0,0,0-9.136Z" transform="translate(-71.926 -378.792)" fill="#ffd3bc"/>
        <g id="Grupo_1180768" data-name="Grupo 1180768" transform="translate(5.368 60.703)">
          <path id="Trazado_1044156" data-name="Trazado 1044156" d="M89.346,446.248a9.122,9.122,0,0,1-8.558-5.966,4.568,4.568,0,0,0,1.075,9.007h6.22a4.569,4.569,0,0,0,4.469-3.622,9.093,9.093,0,0,1-3.205.581Z" transform="translate(-77.294 -440.282)" fill="#ffbe9c"/>
          <path id="Trazado_1044157" data-name="Trazado 1044157" d="M337.28,446.248a9.122,9.122,0,0,1-8.558-5.966,4.568,4.568,0,0,0,1.075,9.007h6.22a4.569,4.569,0,0,0,4.469-3.622A9.092,9.092,0,0,1,337.28,446.248Z" transform="translate(-290.452 -440.282)" fill="#ffbe9c"/>
        </g>
      </g>
      <g id="Grupo_1180770" data-name="Grupo 1180770" transform="translate(0 0)">
        <path id="Trazado_1044158" data-name="Trazado 1044158" d="M162.973,211.417a1.052,1.052,0,0,0,1.052-1.052v-1.852a1.052,1.052,0,0,0-2.1,0v1.852A1.052,1.052,0,0,0,162.973,211.417Z" transform="translate(-143.631 -178.362)"/>
        <path id="Trazado_1044159" data-name="Trazado 1044159" d="M234.015,220.106a3.9,3.9,0,1,0-3.587-3.889A3.751,3.751,0,0,0,234.015,220.106Zm0-5.673a1.815,1.815,0,1,1-1.483,1.785A1.657,1.657,0,0,1,234.015,214.433Z" transform="translate(-202.529 -182.547)"/>
        <path id="Trazado_1044160" data-name="Trazado 1044160" d="M336.131,211.417a1.052,1.052,0,0,0,1.052-1.052v-1.852a1.052,1.052,0,0,0-2.1,0v1.852A1.052,1.052,0,0,0,336.131,211.417Z" transform="translate(-292.502 -178.362)"/>
        <path id="Trazado_1044161" data-name="Trazado 1044161" d="M39.488,38.4a7.888,7.888,0,0,0,.79-.042,23.984,23.984,0,0,0,6.929,10.165v2.135a12.177,12.177,0,0,0-3.317,1.967,15.12,15.12,0,0,0-5.106,9.365,5.616,5.616,0,0,0,3.728,9.82h6.22a5.629,5.629,0,0,0,5.492-4.429l4.522,1.64a12.129,12.129,0,0,0,8.258,0l4.773-1.731a5.629,5.629,0,0,0,5.511,4.52h6.22a5.616,5.616,0,0,0,3.724-9.823,17.308,17.308,0,0,0-1.876-5.461,1.052,1.052,0,0,0-1.837,1.025A14.279,14.279,0,0,1,84.8,60.723a6.035,6.035,0,0,0-1.291-.148H78.544V52.888a9.741,9.741,0,0,1,2.6,1.664,1.052,1.052,0,0,0,1.406-1.565,11.89,11.89,0,0,0-4-2.353V48.722a24.049,24.049,0,0,0,7.193-10.362A7.957,7.957,0,0,0,92.95,25.731,30.266,30.266,0,0,0,45.838,5.353a1.052,1.052,0,1,0,1.2,1.731A28.193,28.193,0,0,1,90.35,23.447a7.965,7.965,0,0,0-4.511-.941,23.942,23.942,0,0,0-4.445-7.823,3.244,3.244,0,0,0-3.8-.854,6.377,6.377,0,0,1-6.538-.765,3.252,3.252,0,0,0-4.161,0,6.331,6.331,0,0,1-7.766,0,3.254,3.254,0,0,0-4.161,0,6.377,6.377,0,0,1-6.537.765,3.244,3.244,0,0,0-3.807.859,23.939,23.939,0,0,0-4.441,7.818,8.043,8.043,0,0,0-4.51.94A28.317,28.317,0,0,1,43.852,9.64,1.052,1.052,0,1,0,42.42,8.1a30.369,30.369,0,0,0-9.349,17.633A7.958,7.958,0,0,0,39.488,38.4Zm46.954-13.82A5.859,5.859,0,1,1,86.367,36.3a24.3,24.3,0,0,0,.075-11.714ZM47.207,52.95v7.625H42.512a6.09,6.09,0,0,0-1.292.148,11.719,11.719,0,0,1,5.986-7.774Zm1.526,16.761h-6.22a3.516,3.516,0,0,1,0-7.032h6.22a3.519,3.519,0,0,1,3.509,3.31v0a3.519,3.519,0,0,1-3.51,3.719Zm13.226-2.105a9.995,9.995,0,0,1-2.5-.557l-5.206-1.889A5.631,5.631,0,0,0,49.311,60.6V47.6a1.126,1.126,0,0,1,1.506-1.056h0l7.928,2.877a12.282,12.282,0,0,0,3.213.69Zm-2.5-20.168-7.38-2.678v-.728a1.814,1.814,0,0,1,2.434-1.707l4.23,1.534a12.117,12.117,0,0,0,8.257,0c1.927-.7,3.388-1.225,4.5-1.63a1.814,1.814,0,0,1,2.436,1.707v.726l-7.653,2.776A10.019,10.019,0,0,1,59.462,47.437ZM71.785,65.053l-5.5,1.995a9.966,9.966,0,0,1-2.224.529V50.082A12.276,12.276,0,0,0,67,49.415l7.929-2.876.005,0a1.124,1.124,0,0,1,1.5,1.058V60.639a5.634,5.634,0,0,0-4.655,4.414Zm11.723-2.375a3.516,3.516,0,1,1,0,7.032h-6.22a3.516,3.516,0,1,1,0-7.032ZM46.227,16.05a1.133,1.133,0,0,1,1.327-.308,8.477,8.477,0,0,0,8.759-1.061,1.148,1.148,0,0,1,1.469,0,8.431,8.431,0,0,0,10.457,0,1.148,1.148,0,0,1,1.469,0,8.475,8.475,0,0,0,8.76,1.061,1.129,1.129,0,0,1,1.323.3,22.007,22.007,0,0,1-1.568,30.142,3.253,3.253,0,0,0-2.179-1.739v-.514a3.922,3.922,0,0,0-5.259-3.684c-1.111.4-2.571.934-4.5,1.629a10.016,10.016,0,0,1-6.824,0l-4.229-1.534a3.922,3.922,0,0,0-5.256,3.685V44.4a3.272,3.272,0,0,0-2.373,1.64A22.054,22.054,0,0,1,46.227,16.05Zm-6.648,8.532a24.388,24.388,0,0,0,.07,11.714,5.859,5.859,0,1,1-.07-11.714Z" transform="translate(-31.525 0)"/>
      </g>
    </g>
  </g>
</svg>
