<svg xmlns="http://www.w3.org/2000/svg" xmlns:xlink="http://www.w3.org/1999/xlink" width="93.934" height="93.934" viewBox="0 0 93.934 93.934">
  <defs>
    <filter id="Trazado_982547" x="0" y="0" width="93.934" height="93.934" filterUnits="userSpaceOnUse">
      <feOffset dy="3" input="SourceAlpha"/>
      <feGaussianBlur stdDeviation="3" result="blur"/>
      <feFlood flood-opacity="0.161"/>
      <feComposite operator="in" in2="blur"/>
      <feComposite in="SourceGraphic"/>
    </filter>
  </defs>
  <g id="Grupo_1180694" data-name="Grupo 1180694" transform="translate(-183 -1444)">
    <g id="Grupo_1179448" data-name="Grupo 1179448" transform="translate(-0.066 -519)">
      <g id="Grupo_1175230" data-name="Grupo 1175230" transform="translate(-5.967 -23)">
        <g id="Grupo_1167337" data-name="Grupo 1167337" transform="translate(198.033 1992)">
          <g id="Grupo_1166720" data-name="Grupo 1166720">
            <g id="Grupo_1164305" data-name="Grupo 1164305">
              <g id="Grupo_1163948" data-name="Grupo 1163948">
                <g id="Grupo_1158168" data-name="Grupo 1158168">
                  <g id="Grupo_1152576" data-name="Grupo 1152576">
                    <g id="Grupo_1148633" data-name="Grupo 1148633">
                      <g id="Grupo_1148525" data-name="Grupo 1148525">
                        <g transform="matrix(1, 0, 0, 1, -9, -6)" filter="url(#Trazado_982547)">
                          <g id="Trazado_982547-2" data-name="Trazado 982547" transform="translate(9 6)" fill="#fdfbec">
                            <path d="M 37.966796875 74.43359375 C 33.04315185546875 74.43359375 28.26757431030273 73.46962738037109 23.77274131774902 71.56847381591797 C 19.43047523498535 69.73184967041016 15.53040790557861 67.10224914550781 12.18087482452393 63.75271987915039 C 8.831341743469238 60.4031867980957 6.201741218566895 56.50312042236328 4.365118980407715 52.16086196899414 C 2.463963508605957 47.66601943969727 1.499996900558472 42.89044189453125 1.499996900558472 37.966796875 C 1.499996900558472 33.04315185546875 2.463963508605957 28.26757431030273 4.365118980407715 23.77274131774902 C 6.201741218566895 19.43047523498535 8.831341743469238 15.53040790557861 12.18087482452393 12.18087482452393 C 15.53040790557861 8.831341743469238 19.43047523498535 6.201741218566895 23.77274131774902 4.365118980407715 C 28.26757431030273 2.463963508605957 33.04315185546875 1.499996900558472 37.966796875 1.499996900558472 C 42.89044189453125 1.499996900558472 47.66601943969727 2.463963508605957 52.16086196899414 4.365118980407715 C 56.50312042236328 6.201741218566895 60.4031867980957 8.831341743469238 63.75271987915039 12.18087482452393 C 67.10224914550781 15.53040790557861 69.73184967041016 19.43047523498535 71.56847381591797 23.77274131774902 C 73.46962738037109 28.26757431030273 74.43359375 33.04315185546875 74.43359375 37.966796875 C 74.43359375 42.89044189453125 73.46962738037109 47.66601943969727 71.56847381591797 52.16086196899414 C 69.73184967041016 56.50313186645508 67.10224914550781 60.4031867980957 63.75271987915039 63.75271987915039 C 60.4031867980957 67.10224914550781 56.50313186645508 69.73184967041016 52.16086196899414 71.56847381591797 C 47.66601943969727 73.46962738037109 42.89044189453125 74.43359375 37.966796875 74.43359375 Z" stroke="none"/>
                            <path d="M 37.966796875 3 C 33.2449836730957 3 28.66600799560547 3.924095153808594 24.35705947875977 5.746635437011719 C 20.19359588623047 7.507637023925781 16.45379638671875 10.02928161621094 13.24153518676758 13.24153518676758 C 10.02927398681641 16.45379638671875 7.507621765136719 20.19359588623047 5.746635437011719 24.35705947875977 C 3.924095153808594 28.66600799560547 3 33.2449836730957 3 37.966796875 C 3 42.6886100769043 3.924095153808594 47.26758575439453 5.746635437011719 51.57653427124023 C 7.507621765136719 55.73999786376953 10.02927398681641 59.47979736328125 13.24153518676758 62.69205856323242 C 16.45379638671875 65.90431976318359 20.19359588623047 68.42597198486328 24.35705947875977 70.18695831298828 C 28.66600799560547 72.00949859619141 33.2449836730957 72.93359375 37.966796875 72.93359375 C 42.6886100769043 72.93359375 47.26758575439453 72.00949859619141 51.57653427124023 70.18695831298828 C 55.73999786376953 68.42597198486328 59.47979736328125 65.90431976318359 62.69205856323242 62.69205856323242 C 65.90431976318359 59.47979736328125 68.42597198486328 55.73999786376953 70.18695831298828 51.57653427124023 C 72.00949859619141 47.26758575439453 72.93359375 42.6886100769043 72.93359375 37.966796875 C 72.93359375 33.2449836730957 72.00949859619141 28.66600799560547 70.18695831298828 24.35705947875977 C 68.42597198486328 20.19359588623047 65.90431976318359 16.45379638671875 62.69205856323242 13.24153518676758 C 59.47979736328125 10.02928161621094 55.73999786376953 7.507637023925781 51.57653427124023 5.746635437011719 C 47.26758575439453 3.924095153808594 42.6886100769043 3 37.966796875 3 M 37.966796875 0 C 58.93528366088867 0 75.93359375 16.99832153320312 75.93359375 37.966796875 C 75.93359375 58.93528366088867 58.93528366088867 75.93359375 37.966796875 75.93359375 C 16.99831008911133 75.93359375 0 58.93528366088867 0 37.966796875 C 0 16.99832153320312 16.99831008911133 0 37.966796875 0 Z" stroke="none" fill="#84792b"/>
                          </g>
                        </g>
                      </g>
                    </g>
                  </g>
                </g>
              </g>
            </g>
          </g>
        </g>
      </g>
    </g>
    <g id="repetitivo_1_" data-name="repetitivo (1)" transform="translate(208 1464.837)">
      <g id="Grupo_1180692" data-name="Grupo 1180692" transform="translate(0.645 0.808)">
        <path id="Trazado_1043887" data-name="Trazado 1043887" d="M122.282,330.335c0-7.521,4.776-10.411,4.776-10.411l13.454-.86a14.739,14.739,0,0,1,4.776,11.271Z" transform="translate(-112.408 -292.275)" fill="#ffb4bf"/>
        <path id="Trazado_1043888" data-name="Trazado 1043888" d="M352.017,9.036a4.5,4.5,0,1,1,6.368,6.368c-1.758,1.758-5.2,2.352-6.961.593s-1.165-5.2.593-6.961Z" transform="translate(-320.869 -7.713)" fill="#4c5698"/>
        <path id="Trazado_1043889" data-name="Trazado 1043889" d="M65.465,24.054a16.391,16.391,0,0,1,32.782,0Z" transform="translate(-60.479 -7.663)" fill="#696eb1"/>
        <path id="Trazado_1043890" data-name="Trazado 1043890" d="M61.686,10.309a5.351,5.351,0,0,0-.927-1.273A4.5,4.5,0,0,0,54.391,15.4a5.506,5.506,0,0,0,1.62,1.1,16.287,16.287,0,0,0-1.873,7.6h5.819a20.627,20.627,0,0,1,8.211-16.22A16.288,16.288,0,0,0,61.686,10.309Z" transform="translate(-49.152 -7.713)" fill="#4c5698"/>
        <circle id="Elipse_12545" data-name="Elipse 12545" cx="3.408" cy="3.408" r="3.408" transform="translate(31.591 14.494)" fill="#c7856a"/>
        <path id="Trazado_1043891" data-name="Trazado 1043891" d="M174.876,319.064l-13.454.86a8.009,8.009,0,0,0-1.542,1.344,16.564,16.564,0,0,0,8.252,2.142h.154a16.589,16.589,0,0,0,8.449-2.305A11.137,11.137,0,0,0,174.876,319.064Z" transform="translate(-146.771 -292.275)" fill="#ff8d9d"/>
        <path id="Trazado_1043892" data-name="Trazado 1043892" d="M125.114,115.119a1.029,1.029,0,0,0-1.536-.372,4.328,4.328,0,0,1-5.8-.568,1.023,1.023,0,0,0-1.509,0,4.329,4.329,0,0,1-6.421,0,1.023,1.023,0,0,0-1.509,0,4.328,4.328,0,0,1-5.8.568,1.026,1.026,0,0,0-1.53.362,13.4,13.4,0,0,0-1.407,5.995c0,7.425,6.148,12.658,13.573,12.593,7.375-.064,13.335-5.2,13.335-12.593A13.4,13.4,0,0,0,125.114,115.119Z" transform="translate(-91.684 -104.713)" fill="#da9d81"/>
        <path id="Trazado_1043893" data-name="Trazado 1043893" d="M67.049,138.718a20.719,20.719,0,0,1-1.626-16.075,4.325,4.325,0,0,1-.865-.5,1.026,1.026,0,0,0-1.53.362,13.362,13.362,0,0,0-1.275,4.112c-.1-.009-.2-.014-.3-.014a3.408,3.408,0,0,0,0,6.815,2.914,2.914,0,0,0,1.08-.2A12.224,12.224,0,0,0,67.049,138.718Z" transform="translate(-53.697 -112.108)" fill="#c7856a"/>
        <g id="Grupo_1180691" data-name="Grupo 1180691" transform="translate(10.747 19.647)">
          <g id="Grupo_1180690" data-name="Grupo 1180690">
            <g id="Grupo_1180688" data-name="Grupo 1180688">
              <ellipse id="Elipse_12546" data-name="Elipse 12546" cx="2.865" cy="2.282" rx="2.865" ry="2.282" fill="#eeedff"/>
            </g>
            <g id="Grupo_1180689" data-name="Grupo 1180689" transform="translate(15.531)">
              <ellipse id="Elipse_12547" data-name="Elipse 12547" cx="2.865" cy="2.282" rx="2.865" ry="2.282" fill="#eeedff"/>
            </g>
          </g>
        </g>
        <path id="Trazado_1043894" data-name="Trazado 1043894" d="M7.5,438.69H50.255v5.647H7.5Z" transform="translate(-7.5 -401.611)" fill="#71dbba"/>
        <path id="Trazado_1043895" data-name="Trazado 1043895" d="M103.579,305.64a3.972,3.972,0,0,0-3.972,3.972A2.389,2.389,0,0,0,102,312h3.167a2.389,2.389,0,0,0,2.389-2.389A3.972,3.972,0,0,0,103.579,305.64Z" transform="translate(-91.683 -280.006)" fill="#c7856a"/>
        <path id="Trazado_1043896" data-name="Trazado 1043896" d="M189.146,385.642H178.757l-1.587-3.033,1.587-3.033h10.389l1.576,3.033Z" transform="translate(-162.574 -347.582)" fill="#fce29f"/>
        <path id="Trazado_1043897" data-name="Trazado 1043897" d="M76.889,379.576a2.038,2.038,0,0,0-2.038,2.038v1.99a2.038,2.038,0,0,0,2.038,2.038H85.24v-6.066Z" transform="translate(-69.057 -347.582)" fill="#ff8d9d"/>
        <path id="Trazado_1043898" data-name="Trazado 1043898" d="M324.734,379.576h-8.351v6.066h8.351a2.038,2.038,0,0,0,2.038-2.038v-1.99A2.038,2.038,0,0,0,324.734,379.576Z" transform="translate(-289.811 -347.582)" fill="#c8a9f1"/>
        <path id="Trazado_1043899" data-name="Trazado 1043899" d="M77.76,381.077a6.616,6.616,0,0,1,.173-1.5H76.889a2.038,2.038,0,0,0-2.038,2.038v1.99a2.038,2.038,0,0,0,2.038,2.038h2.7A6.58,6.58,0,0,1,77.76,381.077Z" transform="translate(-69.057 -347.582)" fill="#e95b70"/>
        <path id="Trazado_1043900" data-name="Trazado 1043900" d="M200.36,385.642a6.594,6.594,0,0,1-1.661-6.066h-3.082v6.066Z" transform="translate(-179.434 -347.582)" fill="#ffcd71"/>
        <path id="Trazado_1043901" data-name="Trazado 1043901" d="M321.126,385.642a6.594,6.594,0,0,1-1.661-6.066h-3.082v6.066Z" transform="translate(-289.811 -347.582)" fill="#b18ae3"/>
      </g>
      <g id="Grupo_1180693" data-name="Grupo 1180693" transform="translate(0 0.163)">
        <path id="Trazado_1043902" data-name="Trazado 1043902" d="M178.289,215.918a.645.645,0,0,0-.645.645v1.171a.645.645,0,1,0,1.29,0v-1.171A.645.645,0,0,0,178.289,215.918Z" transform="translate(-162.362 -197.357)"/>
        <path id="Trazado_1043903" data-name="Trazado 1043903" d="M320,215.918a.645.645,0,0,0-.645.645v1.171a.645.645,0,1,0,1.29,0v-1.171A.645.645,0,0,0,320,215.918Z" transform="translate(-291.883 -197.357)"/>
        <path id="Trazado_1043904" data-name="Trazado 1043904" d="M234.1,229.286a.645.645,0,0,0-.91.063,1.485,1.485,0,0,1-2.241,0,.645.645,0,1,0-.973.848,2.775,2.775,0,0,0,4.187,0A.645.645,0,0,0,234.1,229.286Z" transform="translate(-210.049 -209.43)"/>
        <path id="Trazado_1043905" data-name="Trazado 1043905" d="M43.4,37.242H38.22a2.694,2.694,0,0,0,.032-.412V34.84a2.686,2.686,0,0,0-2.683-2.683H32.8A15.125,15.125,0,0,0,30.2,28.113,12.757,12.757,0,0,0,34.941,22.7a4.05,4.05,0,0,0,4.1-6.194,16.932,16.932,0,0,0-1.637-6.63,5.928,5.928,0,0,0,1.211-.92,5.154,5.154,0,0,0,0-7.28,5.1,5.1,0,0,0-2-1.241A.645.645,0,0,0,36.2,1.658a3.816,3.816,0,0,1,1.5.93,3.862,3.862,0,0,1,0,5.456,4.592,4.592,0,0,1-.9.69,17.225,17.225,0,0,0-5.069-5.525,4.369,4.369,0,0,1,.513-.621,3.852,3.852,0,0,1,1.745-1A.645.645,0,1,0,33.666.338a5.145,5.145,0,0,0-2.33,1.338,5.68,5.68,0,0,0-.686.835,17.029,17.029,0,0,0-17.256,0,5.68,5.68,0,0,0-.686-.835,5.148,5.148,0,1,0-7.28,7.28,5.929,5.929,0,0,0,1.211.92A16.933,16.933,0,0,0,5,16.506,4.049,4.049,0,0,0,9.117,22.7a12.619,12.619,0,0,0,2.194,3.266,4.624,4.624,0,0,0-3.387,4.449,3.016,3.016,0,0,0,.553,1.743A2.686,2.686,0,0,0,5.794,34.84v1.99a2.7,2.7,0,0,0,.032.412H.645A.645.645,0,0,0,0,37.888v5.647a.645.645,0,0,0,.645.645h8.57a.645.645,0,0,0,0-1.29H1.29V38.533H6.4a2.667,2.667,0,0,0,2.065.98h27.11a2.666,2.666,0,0,0,2.065-.98h5.112V42.89H11.8a.645.645,0,0,0,0,1.29H43.4a.645.645,0,0,0,.645-.645V37.888a.645.645,0,0,0-.645-.645Zm-6.439-2.4v1.99a1.4,1.4,0,0,1-1.393,1.393H27.862V33.447h7.706a1.4,1.4,0,0,1,1.393,1.393Zm-5.585-2.683H16.606a3.244,3.244,0,0,0,.489-2.5,15.771,15.771,0,0,0,11.964-.877,13.543,13.543,0,0,1,2.318,3.382Zm-9.239-3.01a13.993,13.993,0,0,1-5.631-1.1A4.631,4.631,0,0,0,13,25.82a11.4,11.4,0,0,1-3.748-7.664c0-.009,0-.018,0-.027a12.813,12.813,0,0,1,1.3-6.636.381.381,0,0,1,.567-.133,4.975,4.975,0,0,0,6.661-.652.378.378,0,0,1,.553,0,4.976,4.976,0,0,0,7.378,0,.378.378,0,0,1,.553,0,4.975,4.975,0,0,0,6.661.651.384.384,0,0,1,.572.143,12.844,12.844,0,0,1,1.334,5.7c0,6.987-5.624,11.885-12.7,11.948Zm13.508-7.675q-.1,0-.207-.008a13.333,13.333,0,0,0,.685-4.265c0-.394-.022-.868-.051-1.217a2.762,2.762,0,0,1-.426,5.49Zm2-6.288a4.057,4.057,0,0,0-1.744-.52,14.029,14.029,0,0,0-1.243-3.737,1.674,1.674,0,0,0-2.5-.6,3.685,3.685,0,0,1-4.932-.483,1.669,1.669,0,0,0-2.466,0,3.685,3.685,0,0,1-5.464,0,1.669,1.669,0,0,0-2.466,0,3.685,3.685,0,0,1-4.932.483,1.668,1.668,0,0,0-1.387-.286c-.923.219-1.193.99-1.533,1.82a13.863,13.863,0,0,0-.822,2.806,4.047,4.047,0,0,0-1.744.52,15.747,15.747,0,0,1,31.234,0ZM6.341,8.043A3.858,3.858,0,0,1,11.8,2.588a4.374,4.374,0,0,1,.513.621A17.225,17.225,0,0,0,7.24,8.734a4.6,4.6,0,0,1-.9-.69Zm2.279,13.42a2.762,2.762,0,0,1-.644-5.482,14.221,14.221,0,0,0-.011,2.266v.016A13.027,13.027,0,0,0,8.619,21.463Zm3.921,5.624c.054,0,.108,0,.161,0h0a3.334,3.334,0,0,1,3.165,3.323,1.745,1.745,0,0,1-1.743,1.743H10.957a1.745,1.745,0,0,1-1.743-1.743A3.331,3.331,0,0,1,12.541,27.087ZM7.084,34.84a1.394,1.394,0,0,1,1.393-1.393h7.706v4.775H8.477A1.4,1.4,0,0,1,7.084,36.83Zm10.389-1.393h9.1v4.775h-9.1Z" transform="translate(0 -0.163)"/>
      </g>
    </g>
  </g>
</svg>
