<svg xmlns="http://www.w3.org/2000/svg" xmlns:xlink="http://www.w3.org/1999/xlink" width="400" height="358" viewBox="0 0 400 358">
  <defs>
    <clipPath id="clip-path">
      <rect id="Rectángulo_415835" data-name="Rectángulo 415835" width="400" height="358" transform="translate(1020 240)" fill="#fff" stroke="#707070" stroke-width="1"/>
    </clipPath>
  </defs>
  <g id="Enmascarar_grupo_1098832" data-name="Enmascarar grupo 1098832" transform="translate(-1020 -240)" clip-path="url(#clip-path)">
    <g id="Grupo_1180867" data-name="Grupo 1180867">
      <ellipse id="Elipse_12563" data-name="Elipse 12563" cx="170.5" cy="147.5" rx="170.5" ry="147.5" transform="translate(1060 255)" fill="#ebe9f0" opacity="0.64"/>
      <g id="Grupo_1180866" data-name="Grupo 1180866" transform="translate(-6275.644 -184.206)">
        <g id="OBJECTS" transform="translate(7315.644 432.13)">
          <g id="Grupo_1180848" data-name="Grupo 1180848" transform="translate(0 13.472)">
            <path id="Trazado_1044178" data-name="Trazado 1044178" d="M376.7,407.944c0-14.121-53.056-25.567-118.5-25.567-50.662,0-93.891,6.86-110.841,16.509-.654,0-1.307,0-1.964,0-71.658,0-129.747,11.447-129.747,25.567s58.089,25.567,129.747,25.567c55.59,0,103.008-6.89,121.48-16.573C328.268,432.484,376.7,421.435,376.7,407.944Z" transform="translate(-15.644 -124.509)" fill="#ebe9f0" opacity="0.6"/>
            <g id="Grupo_1180847" data-name="Grupo 1180847" transform="translate(21.76)">
              <g id="Grupo_1180786" data-name="Grupo 1180786" transform="translate(135.913 102.487)">
                <g id="Grupo_1180780" data-name="Grupo 1180780" transform="translate(0 16.49)">
                  <path id="Trazado_1044179" data-name="Trazado 1044179" d="M302.8,215c-12.089-14.031-11.441-13.168-21.154-12.736s-29.142,7.771-43.6,33.243-26.12,105.989-9.714,119.8,50.656,15.255,80.877,10.073,5.757-27.343,5.757-27.343-58.139,10.073-65.622-2.591-7.2-96.418,28.782-118l9.785,12.952Z" transform="translate(-220.331 -202.071)" fill="#dd334d"/>
                  <path id="Trazado_1044180" data-name="Trazado 1044180" d="M249.339,338.263c-7.484-12.664-7.2-96.418,28.782-118l-4.231-5.911a119.038,119.038,0,0,0-16.227.76c-6.694,5.129-13.588,12.59-19.619,23.212C224.852,261.55,214,330.563,224.64,353l58.586.52-.348-9.1C268.044,345.172,252.913,344.311,249.339,338.263Z" transform="translate(-220.332 -204.887)" fill="#dd334d" opacity="0.61"/>
                  <path id="Trazado_1044181" data-name="Trazado 1044181" d="M287.821,211.376c2.7,4.209,15.586,21.154,15.586,21.154" transform="translate(-235.832 -204.208)" fill="none" stroke="#282425" stroke-linecap="round" stroke-linejoin="round" stroke-miterlimit="10" stroke-width="0.75"/>
                </g>
                <path id="Trazado_1044182" data-name="Trazado 1044182" d="M362.152,193.838c-19.715-2.589-25.328,4.895-25.328,4.895l3.166,12.088L361,208.806S366,194.342,362.152,193.838Z" transform="translate(-247.088 -183.566)" fill="#dd334d"/>
                <g id="Grupo_1180782" data-name="Grupo 1180782" transform="translate(45.95 0)">
                  <path id="Trazado_1044183" data-name="Trazado 1044183" d="M368.379,209.825c-20.839-7.28-38.28-5.757-57.276,3.741s-22.45,24.176-27.343,54.11-5.18,80.3,0,93.541,42.021,18.132,78.574,16.405,56.124-9.786,56.988-25.328-10.65-82.6-22.737-106.78S375.7,212.383,368.379,209.825Z" transform="translate(-279.982 -186.312)" fill="#6fb4a8"/>
                  <path id="Trazado_1044184" data-name="Trazado 1044184" d="M417.288,339.919c-1.2-8.5-2.863-18.263-4.855-28.183-13.98,2.461-35.306,3.982-58.47-2.423C313.574,298.147,305,257.129,305,257.129s-10.452,1.806-16.559-1.83c-1.762,6.676-3.15,14.531-4.677,23.873-3.209,19.631-4.437,48.051-3.441,69.022l40.773,4.995Z" transform="translate(-279.983 -197.807)" fill="#6fb4a8"/>
                  <path id="Trazado_1044185" data-name="Trazado 1044185" d="M320.111,187.917c-5.5,5.287,5.18,18.852,8.923,21.442l3.6-1.439s-6.622-12.074-5.037-14.678c2.014-3.31,18.564-4.893,23.889-4.461s1.871,15.542,1.871,15.542h5.185s8.487-17.126,1.578-21.442S327.594,180.721,320.111,187.917Z" transform="translate(-288.845 -180.665)" fill="#6468b0"/>
                  <path id="Trazado_1044186" data-name="Trazado 1044186" d="M402.967,248.259a168.4,168.4,0,0,0-12.034-20.849h0c-20.315-16.183-57.33-10.775-69.131,0s-14.966,39.269-13.816,69.778,22.162,33.674,22.162,33.674l92.787-4.667C418.9,299.891,411.065,264.454,402.967,248.259Z" transform="translate(-286.364 -189.057)" fill="#6468b0"/>
                  <g id="Grupo_1180781" data-name="Grupo 1180781" transform="translate(84.08 39.631)">
                    <path id="Trazado_1044187" data-name="Trazado 1044187" d="M389.133,232.113c3.454,17.269,12.664,67.061,12.088,87.784h4.03c-1.079-20.723-4.617-48.725-12.664-87.784h-3.454Z" transform="translate(-389.133 -232.113)" fill="#fff"/>
                    <path id="Trazado_1044188" data-name="Trazado 1044188" d="M392.785,234.369c-.939.532,3.454,13.06,8.2,11.117S395.027,233.1,392.785,234.369Z" transform="translate(-389.942 -232.607)" fill="#3b2b32"/>
                  </g>
                  <path id="Trazado_1044189" data-name="Trazado 1044189" d="M422.934,335.494c-.062-.4-.122-.8-.186-1.21-.035-.228-.071-.455-.107-.685-.326-2.07-.675-4.19-1.044-6.347q-.073-.429-.149-.86-.216-1.254-.442-2.521c-.049-.276-.1-.549-.147-.826q-.291-1.625-.6-3.268c-.031-.166-.063-.335-.095-.5q-.262-1.4-.534-2.814-.1-.5-.195-1-.251-1.288-.509-2.582c-.039-.2-.078-.394-.118-.591-13.98,2.461-35.306,3.982-58.469-2.423-40.335-11.152-48.942-52.072-48.965-52.182-3.241,13.391-4.073,30.745-3.392,48.807,1.151,30.508,22.162,33.674,22.162,33.674Z" transform="translate(-286.364 -198.354)" fill="#6468b0" opacity="0.41"/>
                  <path id="Trazado_1044190" data-name="Trazado 1044190" d="M353.443,217.319c-13.371.635-25.7,4.7-31.64,10.119-11.8,10.775-14.966,39.269-13.816,69.778s22.162,33.674,22.162,33.674l23.659-1.19C350.512,314.495,342.071,266.676,353.443,217.319Z" transform="translate(-286.364 -189.084)" fill="#f8bd57"/>
                  <path id="Trazado_1044191" data-name="Trazado 1044191" d="M353.573,337.865c-.016-.078-.032-.154-.049-.233q-.121-.579-.25-1.207l-.037-.182q-.275-1.354-.573-2.923c-.009-.047-.018-.093-.027-.141q-.151-.8-.307-1.655l-.012-.065q-.322-1.772-.656-3.765c0-.006,0-.012,0-.018-1.011-6.052-2.054-13.565-2.817-22.149v0c-30.514-14.839-37.441-47.749-37.462-47.846-.189.784-.37,1.585-.543,2.395-.042.2-.082.4-.123.6q-.194.936-.375,1.892c-.046.246-.092.5-.136.743q-.166.922-.321,1.863c-.042.251-.083.5-.122.756-.106.672-.206,1.353-.3,2.038-.029.2-.059.406-.088.611q-.371,2.711-.65,5.548c-.019.2-.036.394-.055.591q-.105,1.107-.2,2.23c-.024.29-.046.583-.069.875q-.077,1.006-.146,2.026-.031.473-.061.948-.062,1.023-.116,2.057c-.015.3-.032.6-.046.91q-.056,1.19-.1,2.4c-.007.194-.016.386-.022.58q-.051,1.515-.082,3.049c0,.179-.005.359-.008.538q-.023,1.243-.035,2.5c0,.343,0,.687-.005,1.031q0,1.027,0,2.06,0,.57.006,1.142.007,1,.021,2.008c.005.381.01.763.017,1.145.012.714.029,1.43.047,2.148.008.33.015.659.024.99q.044,1.567.1,3.142c1.151,30.508,22.162,33.674,22.162,33.674l23.659-1.19C353.733,338.621,353.654,338.249,353.573,337.865Z" transform="translate(-286.365 -198.354)" fill="#f8bd57" opacity="0.42"/>
                  <path id="Trazado_1044192" data-name="Trazado 1044192" d="M308.469,242.392c3.7-16.281,12.978-24.112,33.858-27.591s40.652,2.148,44.4,6.1" transform="translate(-286.525 -188.255)" fill="none" stroke="#6468b0" stroke-linecap="round" stroke-linejoin="round" stroke-miterlimit="10" stroke-width="0.75"/>
                </g>
                <g id="Grupo_1180785" data-name="Grupo 1180785" transform="translate(67.054 118.261)">
                  <g id="Grupo_1180784" data-name="Grupo 1180784">
                    <g id="Grupo_1180783" data-name="Grupo 1180783">
                      <path id="Trazado_1044193" data-name="Trazado 1044193" d="M312.694,403.637c26.094,15.684,98.531,1.873,110.154-3.02s9.675-19.571,6.8-38.28-9.852-27.014-9.852-27.014-81.243,16.869-110.628-1.135C306.156,358.836,306.7,382.212,312.694,403.637Z" transform="translate(-307.378 -334.188)" fill="#6468b0"/>
                      <path id="Trazado_1044194" data-name="Trazado 1044194" d="M401.315,341.472c7.878,21.573,9.376,50.314,9.512,66.8,16.045-2.325,29.191-5.46,33.6-7.315,11.623-4.893,9.675-19.571,6.8-38.28s-9.852-27.014-9.852-27.014S423.4,339.392,401.315,341.472Z" transform="translate(-328.954 -334.527)" fill="#dd334d"/>
                    </g>
                    <path id="Trazado_1044195" data-name="Trazado 1044195" d="M350.917,355.447C393.8,358.2,431.509,348,431.509,348" transform="translate(-317.379 -337.36)" fill="none" stroke="#6468b0" stroke-linecap="round" stroke-linejoin="round" stroke-miterlimit="10" stroke-width="0.75"/>
                  </g>
                  <path id="Trazado_1044196" data-name="Trazado 1044196" d="M388.884,411.862c-17.709.545-32.039-.423-32.039-.423s23.37-31.835-12.421-60.372l-36.687,2.956c-1.068,18.8.278,36.745,4.961,53.491C328.824,417.207,362.65,415.633,388.884,411.862Z" transform="translate(-307.382 -338.065)" fill="#6468b0" opacity="0.41"/>
                </g>
              </g>
              <g id="Grupo_1180846" data-name="Grupo 1180846">
                <g id="Grupo_1180808" data-name="Grupo 1180808" transform="translate(33.521)">
                  <g id="Grupo_1180787" data-name="Grupo 1180787" transform="translate(62.94 87.505)">
                    <path id="Trazado_1044197" data-name="Trazado 1044197" d="M169.116,172.443c7.691,12.307,2.243,29.291,2.243,29.291s0,13.78,13.46,17.626,30.444-19.306,30.444-19.306-10.576-8.8-4.486-30S169.116,172.443,169.116,172.443Z" transform="translate(-169.116 -161.216)" fill="#db8c68"/>
                    <path id="Trazado_1044198" data-name="Trazado 1044198" d="M209.646,185.407a41.671,41.671,0,0,1,1.593-14.737,10.037,10.037,0,0,1-.106-6.619c.025-.085.04-.163.063-.246-4.791-7.733-31.6,4.023-39.35,7.637a34.893,34.893,0,0,1,1.722,12.369c.037.3.074.592.1.887C185.78,194.122,198.835,191.981,209.646,185.407Z" transform="translate(-169.743 -161.218)" fill="#db8c68" opacity="0.62"/>
                  </g>
                  <g id="Grupo_1180788" data-name="Grupo 1180788" transform="translate(27.214 8.811)">
                    <path id="Trazado_1044199" data-name="Trazado 1044199" d="M132.026,92.465c-6.008,12.257-11.777,19.708-8.171,27.159a10.756,10.756,0,0,0,11.056,6.249S132.266,137.65,140.2,143.9s18.266,0,18.266,0l46.146-4.807s11.777,6.489,16.344-7.45,2.4-18.987,2.4-18.987,8.893-3.605,3.845-13.219-5.768-25.717-16.824-33.888-17.065,0-17.065,0c-3.384-7.329-9.044-7.91-16.344-3.632,0,0-7.691-7.184-22.352,1.229S132.026,92.465,132.026,92.465Z" transform="translate(-122.738 -59.057)" fill="#3b2b32"/>
                    <path id="Trazado_1044200" data-name="Trazado 1044200" d="M227.2,103.619c-3.764-7.169-5.124-17.944-10.155-26.35a22.453,22.453,0,0,1-3.631,3.678c-.231.183-.464.353-.7.522a23.65,23.65,0,0,1-8.294,13.688,21.659,21.659,0,0,1-12.556,4.561,23.978,23.978,0,0,1-5.714,6.749c-5.224,4.131-10.64,4.706-17.021,4.706a15.5,15.5,0,0,1-7.751-2.37c-5.357-.491-10.468-4.518-13.821-8.4-3.432-3.975-4.8-9.247-4.809-14.406-1.616-.3-3.2-.676-4.757-1.132a78.474,78.474,0,0,0-5.971,11.786c-6.008,12.258-11.777,19.708-8.171,27.159a10.756,10.756,0,0,0,11.056,6.249s-2.644,11.777,5.287,18.026,18.266,0,18.266,0l46.146-4.807s11.777,6.489,16.344-7.45,2.4-18.987,2.4-18.987S232.249,113.233,227.2,103.619Z" transform="translate(-122.738 -63.24)" fill="#3b2b32"/>
                  </g>
                  <g id="Grupo_1180791" data-name="Grupo 1180791" transform="translate(25.831 59.206)">
                    <g id="Grupo_1180789" data-name="Grupo 1180789" transform="translate(0 2.504)">
                      <path id="Trazado_1044201" data-name="Trazado 1044201" d="M139.144,132.513c-14.06-11.525-22.753-.318-15.7,13.38s19.336,8.658,19.923-1.239S139.144,132.513,139.144,132.513Z" transform="translate(-120.941 -127.728)" fill="#db8c68"/>
                      <path id="Trazado_1044202" data-name="Trazado 1044202" d="M139.868,132.513c-7.035-5.766-12.725-5.841-15.773-2.762a27.429,27.429,0,0,1,9.352,7.2c3.936,4.558,5.156,10.822,4.729,16.667a10.143,10.143,0,0,0,5.913-8.969C144.675,134.757,139.868,132.513,139.868,132.513Z" transform="translate(-121.666 -127.728)" fill="#db8c68" opacity="0.62"/>
                      <path id="Trazado_1044203" data-name="Trazado 1044203" d="M126.37,134.046c7.811-1.562,12.645,8.369,12.645,8.369s-7.554-4.421-9.979-.746,5.026,12.169,10.915,5.639" transform="translate(-122.188 -129.141)" fill="none" stroke="#282425" stroke-linecap="round" stroke-linejoin="round" stroke-miterlimit="10" stroke-width="0.75"/>
                    </g>
                    <g id="Grupo_1180790" data-name="Grupo 1180790" transform="translate(93.36)">
                      <path id="Trazado_1044204" data-name="Trazado 1044204" d="M246.408,129.263c14.06-11.525,22.753-.318,15.7,13.38s-19.336,8.658-19.923-1.239S246.408,129.263,246.408,129.263Z" transform="translate(-242.138 -124.478)" fill="#db8c68"/>
                      <path id="Trazado_1044205" data-name="Trazado 1044205" d="M248.728,144.1c.468-5.536,4.167-11.515,8.451-14.9a20.222,20.222,0,0,1,4.829-2.857c-3.087-2.911-8.692-2.742-15.6,2.919,0,0-4.807,2.243-4.22,12.141.273,4.609,3.084,8.161,6.72,9.262A28.7,28.7,0,0,1,248.728,144.1Z" transform="translate(-242.139 -124.479)" fill="#db8c68" opacity="0.62"/>
                      <path id="Trazado_1044206" data-name="Trazado 1044206" d="M261.833,130.8c-7.811-1.562-12.645,8.369-12.645,8.369s7.554-4.421,9.979-.746-5.026,12.169-10.915,5.638" transform="translate(-243.543 -125.891)" fill="none" stroke="#282425" stroke-linecap="round" stroke-linejoin="round" stroke-miterlimit="10" stroke-width="0.75"/>
                    </g>
                  </g>
                  <path id="Trazado_1044207" data-name="Trazado 1044207" d="M209.215,101.773c-8.973-1.09-15.222-7.562-15.222-7.562s-2.243,5.127-6.89,5.287-8.011-5.287-8.011-5.287a11.682,11.682,0,0,1-8.652,4.967c-6.089.641-7.37-3.2-7.37-3.2S159.258,110,143.9,109.3c-2.149,9.963-1.768,22.921,6.432,36.609C162.084,165.528,174,168.4,183.5,168.4s21.415-2.869,33.167-22.49a49.856,49.856,0,0,0,7.285-31.236C223.681,110.938,218.163,102.861,209.215,101.773Z" transform="translate(-100.128 -58.321)" fill="#db8c68"/>
                  <g id="Grupo_1180797" data-name="Grupo 1180797" transform="translate(49.961 47.748)">
                    <path id="Trazado_1044208" data-name="Trazado 1044208" d="M199.027,109.6c-4.326,8.652-1.762,26.6-1.762,26.6h3.525s.481,6.89-6.089,5.287" transform="translate(-162.013 -109.604)" fill="none" stroke="#282425" stroke-linecap="round" stroke-linejoin="round" stroke-miterlimit="10" stroke-width="0.75"/>
                    <g id="Grupo_1180793" data-name="Grupo 1180793" transform="translate(21.151 34.85)">
                      <g id="Grupo_1180792" data-name="Grupo 1180792">
                        <path id="Trazado_1044209" data-name="Trazado 1044209" d="M179.724,156.527l24.836-1.682s-.961,14.341-12.417,14.822S179.724,156.527,179.724,156.527Z" transform="translate(-179.724 -154.845)" fill="#3b2b32"/>
                        <path id="Trazado_1044210" data-name="Trazado 1044210" d="M204.189,154.925l-22.114,1.5C188.459,162.183,200.24,160.663,204.189,154.925Z" transform="translate(-180.264 -154.863)" fill="#fff"/>
                        <path id="Trazado_1044211" data-name="Trazado 1044211" d="M202.817,165.893c-7.022-1.783-15.358-.834-18.985,1.767a10.306,10.306,0,0,0,9.253,4.333A11.387,11.387,0,0,0,202.817,165.893Z" transform="translate(-180.668 -157.173)" fill="#f4a39d"/>
                      </g>
                      <path id="Trazado_1044212" data-name="Trazado 1044212" d="M204.56,154.845s-.961,14.341-12.417,14.822-12.417-13.139-12.417-13.139" transform="translate(-179.724 -154.845)" fill="none" stroke="#282425" stroke-linecap="round" stroke-linejoin="round" stroke-miterlimit="10" stroke-width="0.75"/>
                    </g>
                    <g id="Grupo_1180796" data-name="Grupo 1180796" transform="translate(0 7.837)">
                      <g id="Grupo_1180794" data-name="Grupo 1180794" transform="translate(45.826)">
                        <path id="Trazado_1044213" data-name="Trazado 1044213" d="M232.746,126.521,229.061,128c-4.486-9.573-12.659-11.737-17.305-1.4" transform="translate(-211.756 -119.778)" fill="none" stroke="#282425" stroke-linecap="round" stroke-linejoin="round" stroke-miterlimit="10" stroke-width="1"/>
                        <line id="Línea_781" data-name="Línea 781" x1="3.091" y2="2.404" transform="translate(16.128 3.621)" fill="none" stroke="#282425" stroke-linecap="round" stroke-linejoin="round" stroke-miterlimit="10" stroke-width="1"/>
                      </g>
                      <g id="Grupo_1180795" data-name="Grupo 1180795">
                        <path id="Trazado_1044214" data-name="Trazado 1044214" d="M152.266,126.521,155.951,128c4.486-9.573,12.659-11.737,17.305-1.4" transform="translate(-152.266 -119.778)" fill="none" stroke="#282425" stroke-linecap="round" stroke-linejoin="round" stroke-miterlimit="10" stroke-width="1"/>
                        <line id="Línea_782" data-name="Línea 782" x2="3.091" y2="2.404" transform="translate(1.77 3.621)" fill="none" stroke="#282425" stroke-linecap="round" stroke-linejoin="round" stroke-miterlimit="10" stroke-width="1"/>
                      </g>
                    </g>
                  </g>
                  <g id="Grupo_1180801" data-name="Grupo 1180801" transform="translate(41.78 43.193)">
                    <g id="Grupo_1180800" data-name="Grupo 1180800">
                      <g id="Grupo_1180798" data-name="Grupo 1180798">
                        <path id="Trazado_1044215" data-name="Trazado 1044215" d="M159.08,103.691c-9.629,0-17.434,8.537-17.434,19.068s7.806,19.068,17.434,19.068,17.435-8.537,17.435-19.068S168.71,103.691,159.08,103.691Zm0,34.716c-7.9,0-14.308-7.006-14.308-15.648s6.406-15.648,14.308-15.648,14.309,7.006,14.309,15.648S166.983,138.407,159.08,138.407Z" transform="translate(-141.646 -103.691)" fill="#b92b40"/>
                        <path id="Trazado_1044216" data-name="Trazado 1044216" d="M220.181,103.691c-9.629,0-17.435,8.537-17.435,19.068s7.806,19.068,17.435,19.068,17.435-8.537,17.435-19.068S229.81,103.691,220.181,103.691Zm0,34.716c-7.9,0-14.308-7.006-14.308-15.648s6.406-15.648,14.308-15.648,14.308,7.006,14.308,15.648S228.083,138.407,220.181,138.407Z" transform="translate(-155.68 -103.691)" fill="#b92b40"/>
                      </g>
                      <g id="Grupo_1180799" data-name="Grupo 1180799" transform="translate(0 1.551)">
                        <path id="Trazado_1044217" data-name="Trazado 1044217" d="M159.08,105.7c-9.629,0-17.434,8.537-17.434,19.068s7.806,19.068,17.434,19.068,17.435-8.537,17.435-19.068S168.71,105.7,159.08,105.7Zm0,34.716c-7.9,0-14.308-7.006-14.308-15.648s6.406-15.648,14.308-15.648,14.309,7.006,14.309,15.648S166.983,140.42,159.08,140.42Z" transform="translate(-141.646 -105.704)" fill="#dd334d"/>
                        <path id="Trazado_1044218" data-name="Trazado 1044218" d="M220.181,105.7c-9.629,0-17.435,8.537-17.435,19.068s7.806,19.068,17.435,19.068,17.435-8.537,17.435-19.068S229.81,105.7,220.181,105.7Zm0,34.716c-7.9,0-14.308-7.006-14.308-15.648s6.406-15.648,14.308-15.648,14.308,7.006,14.308,15.648S228.083,140.42,220.181,140.42Z" transform="translate(-155.68 -105.704)" fill="#dd334d"/>
                      </g>
                    </g>
                    <path id="Trazado_1044219" data-name="Trazado 1044219" d="M200.165,125.934c-8.412-6.772-15.262,1.641-15.262,1.641l-.421-3.371c4.326-3.96,10.92-5.8,16.754-.906Z" transform="translate(-151.485 -107.518)" fill="#dd334d"/>
                  </g>
                  <g id="Grupo_1180806" data-name="Grupo 1180806">
                    <g id="Grupo_1180804" data-name="Grupo 1180804" transform="translate(4.259 2.593)">
                      <g id="Grupo_1180802" data-name="Grupo 1180802">
                        <path id="Trazado_1044220" data-name="Trazado 1044220" d="M137.438,77.153c8.839-16.743-5.768-33.167-27.64-23.073S90.33,84.6,100.185,93.737s22.592,6.97,26.678,1.923,3.365-12.5,3.365-12.5S135.576,80.681,137.438,77.153Z" transform="translate(-92.938 -50.985)" fill="#3b2b32"/>
                        <path id="Trazado_1044221" data-name="Trazado 1044221" d="M111.394,87.841c6.008-13.94,21.871-10.815,23.073,1.682" transform="translate(-97.177 -57.348)" fill="none" stroke="#4c3b42" stroke-linecap="round" stroke-linejoin="round" stroke-miterlimit="10" stroke-width="1"/>
                      </g>
                      <g id="Grupo_1180803" data-name="Grupo 1180803" transform="translate(106.39 1.243)">
                        <path id="Trazado_1044222" data-name="Trazado 1044222" d="M247.753,52.768c-16.824,1.2-21.15,18.266-12.017,25,0,0-4.326,13.7,10.575,17.545s30.043-13.94,22.112-29.562S247.753,52.768,247.753,52.768Z" transform="translate(-231.05 -52.599)" fill="#3b2b32"/>
                        <path id="Trazado_1044223" data-name="Trazado 1044223" d="M256.6,74.241c-13.219-5.768-19.468,8.171-19.468,8.171" transform="translate(-232.447 -57.248)" fill="none" stroke="#4c3b42" stroke-linecap="round" stroke-linejoin="round" stroke-miterlimit="10" stroke-width="1"/>
                      </g>
                    </g>
                    <g id="Grupo_1180805" data-name="Grupo 1180805">
                      <path id="Trazado_1044224" data-name="Trazado 1044224" d="M247.188,47.619A18.8,18.8,0,0,0,231.05,56.43" transform="translate(-120.401 -47.619)" fill="none" stroke="#3b2b32" stroke-linecap="round" stroke-linejoin="round" stroke-miterlimit="10" stroke-width="1"/>
                      <path id="Trazado_1044225" data-name="Trazado 1044225" d="M88.761,76.679c-2.673,7.612-1.5,16.658,4.549,22.358" transform="translate(-87.408 -54.294)" fill="none" stroke="#3b2b32" stroke-linecap="round" stroke-linejoin="round" stroke-miterlimit="10" stroke-width="1"/>
                      <path id="Trazado_1044226" data-name="Trazado 1044226" d="M279.254,95.813c-3.634,7.446-8.637,10.063-11.537,11.038" transform="translate(-128.823 -58.689)" fill="none" stroke="#3b2b32" stroke-linecap="round" stroke-linejoin="round" stroke-miterlimit="10" stroke-width="1"/>
                    </g>
                  </g>
                  <g id="Grupo_1180807" data-name="Grupo 1180807" transform="translate(46.518 32.282)">
                    <path id="Trazado_1044227" data-name="Trazado 1044227" d="M169.19,93.145c.615-6.77-22.616-3.276-21.342,4.731S168.469,101.077,169.19,93.145Z" transform="translate(-147.797 -89.533)" fill="#4c3b42"/>
                    <path id="Trazado_1044228" data-name="Trazado 1044228" d="M218.087,92.1c-3.177,4.767,14.022,14.521,19.31,7.38S222.331,85.729,218.087,92.1Z" transform="translate(-163.853 -89.527)" fill="#4c3b42"/>
                  </g>
                </g>
                <g id="Grupo_1180812" data-name="Grupo 1180812" transform="translate(54.245 112.927)">
                  <path id="Trazado_1044229" data-name="Trazado 1044229" d="M159.315,207.285c10.993,15.168,29.525,11.507,39.647-4.848,0,0,18.217-15.11,27.855-4.353s20.625,49.686,16.187,71.157-87.357,40.7-105.824,36.853-25.517-25.178-21.992-55.691,16.982-51.372,28.36-52.319S159.315,207.285,159.315,207.285Z" transform="translate(-114.312 -194.218)" fill="#6468b0"/>
                  <path id="Trazado_1044230" data-name="Trazado 1044230" d="M155.478,254.263c-2.775,15.1-3.622,29.137,0,40.706,0,0,68.853,2.289,71.092-7.109s-4.888-32.751-4.888-32.751-3.615,29.525-23.083,32.3S161.634,280.085,155.478,254.263Z" transform="translate(-123.214 -208.01)" fill="#6468b0" opacity="0.41"/>
                  <g id="Grupo_1180809" data-name="Grupo 1180809" transform="translate(29.746 8.366)">
                    <path id="Trazado_1044231" data-name="Trazado 1044231" d="M168.076,207.963c2.4,16.664,37.334,21.952,45.345-2.884" transform="translate(-156.407 -205.079)" fill="none" stroke="#6468b0" stroke-linecap="round" stroke-linejoin="round" stroke-miterlimit="10" stroke-width="0.75"/>
                    <path id="Trazado_1044232" data-name="Trazado 1044232" d="M157.866,237.711c-7.21,31.565-5.928,45.185,0,56.08s66.519,4.807,68.67-8.172-5.049-39.061-10.988-52.876" transform="translate(-152.928 -211.433)" fill="none" stroke="#6468b0" stroke-linecap="round" stroke-linejoin="round" stroke-miterlimit="10" stroke-width="0.75"/>
                  </g>
                  <g id="Grupo_1180811" data-name="Grupo 1180811" transform="translate(46.422 43.697)">
                    <ellipse id="Elipse_12562" data-name="Elipse 12562" cx="18.867" cy="15.142" rx="18.867" ry="15.142" fill="#f8bd57"/>
                    <g id="Grupo_1180810" data-name="Grupo 1180810" transform="translate(5.728 5.185)">
                      <path id="Trazado_1044233" data-name="Trazado 1044233" d="M203.437,257.7a30.947,30.947,0,0,1,2.152,10.575" transform="translate(-186.933 -257.682)" fill="none" stroke="#282425" stroke-linecap="round" stroke-linejoin="round" stroke-miterlimit="10" stroke-width="0.75"/>
                      <path id="Trazado_1044234" data-name="Trazado 1044234" d="M193.341,257.675a35.977,35.977,0,0,1,.581,10.619" transform="translate(-184.614 -257.675)" fill="none" stroke="#282425" stroke-linecap="round" stroke-linejoin="round" stroke-miterlimit="10" stroke-width="0.75"/>
                      <path id="Trazado_1044235" data-name="Trazado 1044235" d="M182.012,270.339c12.018,12.337,24.928,4.6,26.278-.879" transform="translate(-182.012 -260.382)" fill="none" stroke="#282425" stroke-linecap="round" stroke-linejoin="round" stroke-miterlimit="10" stroke-width="0.75"/>
                    </g>
                  </g>
                </g>
                <g id="Grupo_1180817" data-name="Grupo 1180817" transform="translate(6.733 213.007)">
                  <g id="Grupo_1180814" data-name="Grupo 1180814">
                    <g id="Grupo_1180813" data-name="Grupo 1180813">
                      <path id="Trazado_1044236" data-name="Trazado 1044236" d="M94.933,324.838C58.4,321.193,52.632,333,52.632,333V346.9l60.506,3.062Z" transform="translate(-52.632 -324.139)" fill="#b1bfcf"/>
                      <path id="Trazado_1044237" data-name="Trazado 1044237" d="M262.983,329.1c25.957.28,36.533,7.367,36.533,7.367s3.2,7.014-1.6,13.423-10.555,4.146-40.378,17.14C225.712,380.9,149.915,402.7,149.9,395.91,132.242,355.693,189.4,339.736,262.983,329.1Z" transform="translate(-74.232 -325.279)" fill="#b1bfcf"/>
                    </g>
                    <path id="Trazado_1044238" data-name="Trazado 1044238" d="M330.113,341.9l11.462,7.48a14.279,14.279,0,0,0,.074-10.81C335.641,337.016,330.113,341.9,330.113,341.9Z" transform="translate(-116.366 -327.384)" fill="#b1bfcf"/>
                  </g>
                  <g id="Grupo_1180816" data-name="Grupo 1180816" transform="translate(72.441 13.272)">
                    <g id="Grupo_1180815" data-name="Grupo 1180815">
                      <path id="Trazado_1044239" data-name="Trazado 1044239" d="M263.777,352.883c-14.879.232-29.893.98-43.944-4.938a22.451,22.451,0,0,1-8.8-6.575C165.189,352.23,136.73,368.73,149.9,398.727c.015,6.79,75.811-15.01,107.634-28.877,29.275-12.756,35.35-10.815,40.111-16.8C286.371,353.171,275.076,352.919,263.777,352.883Z" transform="translate(-146.672 -341.369)" fill="#b1bfcf"/>
                    </g>
                  </g>
                </g>
                <g id="Grupo_1180828" data-name="Grupo 1180828" transform="translate(31.809 172.427)">
                  <g id="Grupo_1180822" data-name="Grupo 1180822">
                    <g id="Grupo_1180818" data-name="Grupo 1180818" transform="translate(5.368)">
                      <path id="Trazado_1044240" data-name="Trazado 1044240" d="M92.794,285.939c24.515,11.3,30.123,10.174,54.478,7.29s37.014,6.089,37.014,6.089,3.445-6.649,19.789-10.736,37.014-8.53,49.511-17.123l6.489,5.938s-47.829,31.661-76.189,33.681S92.153,298.2,92.153,298.2Z" transform="translate(-92.153 -271.459)" fill="#fff"/>
                      <path id="Trazado_1044241" data-name="Trazado 1044241" d="M220.712,315.116c-11.519-2.158-15.879,4.475-15.879,4.475l11.492.509Z" transform="translate(-118.034 -281.387)" fill="#fbe4d2"/>
                    </g>
                    <g id="Grupo_1180821" data-name="Grupo 1180821" transform="translate(0 2.608)">
                      <path id="Trazado_1044242" data-name="Trazado 1044242" d="M85.185,294.409,176.276,309.1c5.448,1.234,11.54-.246,18.106-3.721L260.4,274.845s7.691,28.7,3.845,48.4c0,0-45.425,38.7-63.932,42.541a31.876,31.876,0,0,1-17.305,2.4s-40.378,1.2-66.335-19.228C104.442,333.9,94.215,315.234,85.185,294.409Z" transform="translate(-85.185 -274.845)" fill="#dd334d"/>
                      <g id="Grupo_1180819" data-name="Grupo 1180819" transform="translate(6.723 12.129)" opacity="0.58">
                        <path id="Trazado_1044243" data-name="Trazado 1044243" d="M267.209,325.2l-66.627,33.12-17.7,1.357s-25.627,2.668-88.967-40.48c7.334,14.976,15.469,28.51,24.762,39.958,25.957,20.429,66.335,19.228,66.335,19.228a31.877,31.877,0,0,0,17.305-2.4c18.507-3.845,63.932-42.541,63.932-42.541A59.541,59.541,0,0,0,267.209,325.2Z" transform="translate(-93.913 -297.16)" fill="#dd334d"/>
                        <path id="Trazado_1044244" data-name="Trazado 1044244" d="M176.657,314.991l-18.116-2.921v22.211C166.356,342.494,177.14,332.3,176.657,314.991Z" transform="translate(-108.757 -295.524)" fill="#dd334d"/>
                        <path id="Trazado_1044245" data-name="Trazado 1044245" d="M273.94,290.59l-15.61,7.219,2.156,20.49C262.477,322.422,270.88,323.891,273.94,290.59Z" transform="translate(-131.678 -290.59)" fill="#dd334d"/>
                      </g>
                      <path id="Trazado_1044246" data-name="Trazado 1044246" d="M252.835,319.689l34.743-14.923-.211,18.747-32.89,13.071Z" transform="translate(-123.692 -281.717)" fill="#6468b0"/>
                      <path id="Trazado_1044247" data-name="Trazado 1044247" d="M260.526,319.44l.465,4.41c1.505,3.118,6.677,4.714,10.432-9.091Z" transform="translate(-125.459 -284.013)" fill="#6468b0" opacity="0.5"/>
                      <g id="Grupo_1180820" data-name="Grupo 1180820" transform="translate(91.091 30.531)">
                        <line id="Línea_783" data-name="Línea 783" x2="5.929" y2="60.416" transform="translate(18.105)" fill="none" stroke="#dd334d" stroke-linecap="round" stroke-linejoin="round" stroke-miterlimit="10" stroke-width="0.75"/>
                        <line id="Línea_784" data-name="Línea 784" x2="6.729" y2="59.098" transform="translate(0 3.721)" fill="none" stroke="#dd334d" stroke-linecap="round" stroke-linejoin="round" stroke-miterlimit="10" stroke-width="0.75"/>
                      </g>
                    </g>
                  </g>
                  <g id="Grupo_1180827" data-name="Grupo 1180827" transform="translate(35.43 8.265)">
                    <g id="Grupo_1180824" data-name="Grupo 1180824" transform="translate(0 11.166)">
                      <path id="Trazado_1044248" data-name="Trazado 1044248" d="M131.793,300.9c12.867-5.321,29.014-6.583,32.815,2.009,4.866,11,.721,28.841-3.424,26.114-.221,3.729-1.9,5.011-4.508,3.329-1.843,1.83-4.462,1.245-8.008-2.23,0,0-4.37,2.951-12.181-7.864S131.793,300.9,131.793,300.9Z" transform="translate(-131.179 -296.684)" fill="#db8c68"/>
                      <g id="Grupo_1180823" data-name="Grupo 1180823" transform="translate(5.309 6.226)">
                        <path id="Trazado_1044249" data-name="Trazado 1044249" d="M168.751,330.88c.18-6.886-2.464-18.423-4.627-26.114" transform="translate(-144.055 -304.766)" fill="none" stroke="#282425" stroke-linecap="round" stroke-linejoin="round" stroke-miterlimit="10" stroke-width="0.75"/>
                        <path id="Trazado_1044250" data-name="Trazado 1044250" d="M161.2,334.746c-2.043-6.249-10.335-27.64-10.335-27.64" transform="translate(-141.009 -305.303)" fill="none" stroke="#282425" stroke-linecap="round" stroke-linejoin="round" stroke-miterlimit="10" stroke-width="0.75"/>
                        <path id="Trazado_1044251" data-name="Trazado 1044251" d="M138.071,307.73c2.644,11.656,12.181,24.929,12.181,24.929" transform="translate(-138.071 -305.447)" fill="none" stroke="#282425" stroke-linecap="round" stroke-linejoin="round" stroke-miterlimit="10" stroke-width="0.75"/>
                      </g>
                    </g>
                    <g id="Grupo_1180826" data-name="Grupo 1180826" transform="translate(78.998)">
                      <path id="Trazado_1044252" data-name="Trazado 1044252" d="M266.447,283.007c-11.829-3.175-29.968,3.563-32.018,8.618-3.351,8.265,6.253,36.7,10.214,26.7,1.532,5.217,4.566,5.037,6.85.6,1.513,2.845,4.927.24,6.008-6.291,0,0,2.724,4.05,5.047-3.083C263.87,305.5,266.447,283.007,266.447,283.007Z" transform="translate(-233.732 -282.188)" fill="#db8c68"/>
                      <g id="Grupo_1180825" data-name="Grupo 1180825" transform="translate(8.781 5.254)">
                        <path id="Trazado_1044253" data-name="Trazado 1044253" d="M245.22,294.781c-.6,11.3,2.043,26.438,2.043,26.438" transform="translate(-245.131 -290.335)" fill="none" stroke="#282425" stroke-linecap="round" stroke-linejoin="round" stroke-miterlimit="10" stroke-width="0.75"/>
                        <path id="Trazado_1044254" data-name="Trazado 1044254" d="M258.714,291.973c0,13.579-1.082,25-1.923,29.2" transform="translate(-247.809 -289.69)" fill="none" stroke="#282425" stroke-linecap="round" stroke-linejoin="round" stroke-miterlimit="10" stroke-width="0.75"/>
                        <path id="Trazado_1044255" data-name="Trazado 1044255" d="M266.874,289.009a157.61,157.61,0,0,1-2.283,25.195" transform="translate(-249.6 -289.009)" fill="none" stroke="#282425" stroke-linecap="round" stroke-linejoin="round" stroke-miterlimit="10" stroke-width="0.75"/>
                      </g>
                    </g>
                  </g>
                </g>
                <g id="Grupo_1180845" data-name="Grupo 1180845" transform="translate(0 220.549)">
                  <g id="Grupo_1180837" data-name="Grupo 1180837" transform="translate(45.818 6.977)">
                    <g id="Grupo_1180834" data-name="Grupo 1180834" transform="translate(54.85)">
                      <g id="Grupo_1180830" data-name="Grupo 1180830">
                        <path id="Trazado_1044256" data-name="Trazado 1044256" d="M294.388,342.987c25.316,4.326,35.378,15.863,30.828,31.886s-35.766,31.594-81.3,41.98c-9.905,2.259-31.605,3.622-40.538,2.884-24.407-2.016-28.8-27.239-28.8-27.239,38.986-14.519,76.634-27.667,106.032-32.366C282.834,354.277,287.3,348.554,294.388,342.987Z" transform="translate(-174.576 -342.987)" fill="#db8c68"/>
                        <g id="Grupo_1180829" data-name="Grupo 1180829" transform="translate(79.289)" opacity="0.62">
                          <path id="Trazado_1044257" data-name="Trazado 1044257" d="M277.507,426.389c32.639-8.388,56.621-19.515,66.683-31.363-15.087,9.072-45.454,17.22-61.1,17.9C283.094,412.93,280.094,419.9,277.507,426.389Z" transform="translate(-277.507 -354.94)" fill="#db8c68"/>
                          <path id="Trazado_1044258" data-name="Trazado 1044258" d="M326,342.987c-7.084,5.567-11.554,11.29-13.78,17.145,11.733-6.8,24.323-9.69,33.309-10.92C340.548,346.468,334.05,344.362,326,342.987Z" transform="translate(-285.481 -342.987)" fill="#db8c68"/>
                        </g>
                      </g>
                      <g id="Grupo_1180833" data-name="Grupo 1180833" transform="translate(0 28.984)">
                        <g id="Grupo_1180832" data-name="Grupo 1180832" transform="translate(0)">
                          <path id="Trazado_1044259" data-name="Trazado 1044259" d="M233.3,380.613c-18.567,5.811-38.462,12.983-58.722,20.527,0,0,4.395,25.223,28.8,27.239,8.933.738,30.632-.625,40.538-2.884q9.363-2.135,17.875-4.555C261.774,420.746,258.744,386.7,233.3,380.613Z" transform="translate(-174.576 -380.613)" fill="#fff"/>
                          <g id="Grupo_1180831" data-name="Grupo 1180831" transform="translate(48.671 3.232)">
                            <path id="Trazado_1044260" data-name="Trazado 1044260" d="M237.759,384.809c20.429,8.643,25.034,34.521,24.774,40.689" transform="translate(-237.759 -384.809)" fill="none" stroke="#b1bfcf" stroke-linecap="round" stroke-linejoin="round" stroke-miterlimit="10" stroke-width="0.75"/>
                            <line id="Línea_785" data-name="Línea 785" x1="13.346" y2="3.186" transform="translate(23.592 28.429)" fill="none" stroke="#b1bfcf" stroke-linecap="round" stroke-linejoin="round" stroke-miterlimit="10" stroke-width="0.75"/>
                            <line id="Línea_786" data-name="Línea 786" x1="13.178" y2="3.315" transform="translate(20.422 18.601)" fill="none" stroke="#b1bfcf" stroke-linecap="round" stroke-linejoin="round" stroke-miterlimit="10" stroke-width="0.75"/>
                            <line id="Línea_787" data-name="Línea 787" y1="4.107" x2="12.457" transform="translate(15.367 8.643)" fill="none" stroke="#b1bfcf" stroke-linecap="round" stroke-linejoin="round" stroke-miterlimit="10" stroke-width="0.75"/>
                            <line id="Línea_788" data-name="Línea 788" x1="10.586" y2="4.69" transform="translate(8.671 0.664)" fill="none" stroke="#b1bfcf" stroke-linecap="round" stroke-linejoin="round" stroke-miterlimit="10" stroke-width="0.75"/>
                          </g>
                        </g>
                        <path id="Trazado_1044261" data-name="Trazado 1044261" d="M192.551,398.681q-8.917,3.233-17.975,6.609s4.395,25.223,28.8,27.239c8.933.738,30.632-.625,40.538-2.884q9.363-2.135,17.875-4.555a63.293,63.293,0,0,0-2.339-11.322C242.331,413.817,213.35,411.7,192.551,398.681Z" transform="translate(-174.576 -384.763)" fill="#b1bfcf" opacity="0.53"/>
                      </g>
                    </g>
                    <g id="Grupo_1180836" data-name="Grupo 1180836" transform="translate(0 48.061)">
                      <g id="Grupo_1180835" data-name="Grupo 1180835" transform="translate(0)">
                        <path id="Trazado_1044262" data-name="Trazado 1044262" d="M150.17,409.713c-13.075-5.676-38.372-9.293-45.826,12.5-2.936,8.581,1.129,22.432,7.454,23.394s32.843-9.531,38.492-11.335S150.17,409.713,150.17,409.713Z" transform="translate(-103.372 -405.378)" fill="#f8bd57"/>
                        <path id="Trazado_1044263" data-name="Trazado 1044263" d="M136.36,448.274c-4.166-7.477,10.156-14.48,10.156-14.48" transform="translate(-110.774 -411.905)" fill="none" stroke="#fff" stroke-linecap="round" stroke-linejoin="round" stroke-miterlimit="10" stroke-width="0.75"/>
                        <path id="Trazado_1044264" data-name="Trazado 1044264" d="M150.17,409.713c-13.075-5.676-38.372-9.293-45.826,12.5-2.936,8.581,1.129,22.432,7.454,23.394a15.187,15.187,0,0,0,4.575-.368c-7.836-6.136-8.181-25.59,14.889-31.807H151.01C150.545,411.2,150.17,409.713,150.17,409.713Z" transform="translate(-103.372 -405.378)" fill="#fff"/>
                      </g>
                      <path id="Trazado_1044265" data-name="Trazado 1044265" d="M150.289,434.272c5.648-1.8-.12-24.557-.12-24.557-7.224-3.136-18.175-5.634-27.79-3.576L110.52,412.2a24.709,24.709,0,0,0-6.176,10.008,23.661,23.661,0,0,0-.437,11.812A125.319,125.319,0,0,1,121,444.149C131.38,441.356,146.229,435.568,150.289,434.272Z" transform="translate(-103.371 -405.381)" fill="#f8bd57" opacity="0.42"/>
                    </g>
                  </g>
                  <g id="Grupo_1180844" data-name="Grupo 1180844">
                    <g id="Grupo_1180838" data-name="Grupo 1180838">
                      <path id="Trazado_1044266" data-name="Trazado 1044266" d="M77.223,335.248C51.586,328.16,32.358,351,51.906,371.831s66.9,41.742,84.721,46.027S170.155,398.3,170.155,398.3s-12.818-3.352-30.6-18.914S102.539,342.248,77.223,335.248Z" transform="translate(-43.892 -333.93)" fill="#db8c68"/>
                      <path id="Trazado_1044267" data-name="Trazado 1044267" d="M141.145,417.794c-7.794-.35-68.706-29.417-97.232-58.579-.24,5.748,2.131,12.176,7.994,18.424,19.548,20.83,66.9,41.742,84.721,46.027a19.236,19.236,0,0,0,8.808-.005C141.887,420.641,141.145,417.794,141.145,417.794Z" transform="translate(-43.893 -339.738)" fill="#db8c68" opacity="0.62"/>
                    </g>
                    <g id="Grupo_1180841" data-name="Grupo 1180841" transform="translate(22.28 19.441)">
                      <g id="Grupo_1180840" data-name="Grupo 1180840">
                        <path id="Trazado_1044268" data-name="Trazado 1044268" d="M176.8,404.094s-12.818-3.352-30.6-18.914c-8.9-7.792-18.171-17.089-28.381-25.311-30.2-4.02-45.124,9.689-45,29.882,22.708,16.261,56.122,30.459,70.456,33.9C161.1,427.94,176.8,404.094,176.8,404.094Z" transform="translate(-72.815 -359.168)" fill="#fff"/>
                        <g id="Grupo_1180839" data-name="Grupo 1180839" transform="translate(1.587 0.063)">
                          <path id="Trazado_1044269" data-name="Trazado 1044269" d="M132.3,371.348c-26.087-7.333-48.661,10.446-40.859,30.278" transform="translate(-78.32 -361.642)" fill="none" stroke="#b1bfcf" stroke-linecap="round" stroke-linejoin="round" stroke-miterlimit="10" stroke-width="0.75"/>
                          <line id="Línea_789" data-name="Línea 789" x2="11.903" y2="8.656" transform="translate(0 19.675)" fill="none" stroke="#b1bfcf" stroke-linecap="round" stroke-linejoin="round" stroke-miterlimit="10" stroke-width="0.75"/>
                          <line id="Línea_790" data-name="Línea 790" x2="11.403" y2="8.189" transform="translate(5.951 9.626)" fill="none" stroke="#b1bfcf" stroke-linecap="round" stroke-linejoin="round" stroke-miterlimit="10" stroke-width="0.75"/>
                          <line id="Línea_791" data-name="Línea 791" x2="10.212" y2="8.394" transform="translate(17.354 2.426)" fill="none" stroke="#b1bfcf" stroke-linecap="round" stroke-linejoin="round" stroke-miterlimit="10" stroke-width="0.75"/>
                          <line id="Línea_792" data-name="Línea 792" x2="7.18" y2="8.269" transform="translate(30.378)" fill="none" stroke="#b1bfcf" stroke-linecap="round" stroke-linejoin="round" stroke-miterlimit="10" stroke-width="0.75"/>
                        </g>
                      </g>
                      <path id="Trazado_1044270" data-name="Trazado 1044270" d="M147.787,423.7c-6-.269-43.455-17.545-73.4-38.784a34.075,34.075,0,0,0-1.571,10.752c22.708,16.26,56.122,30.459,70.456,33.9a19.236,19.236,0,0,0,8.808-.005C148.529,426.544,147.787,423.7,147.787,423.7Z" transform="translate(-72.815 -365.081)" fill="#b1bfcf" opacity="0.53"/>
                    </g>
                    <g id="Grupo_1180843" data-name="Grupo 1180843" transform="translate(84.728 56.066)">
                      <g id="Grupo_1180842" data-name="Grupo 1180842" transform="translate(0.001)">
                        <path id="Trazado_1044271" data-name="Trazado 1044271" d="M218.493,418.432c-6.008-4.807-32.744-7.581-32.744-7.581s-12.441-6.119-18.209-3.475,3.365,18.453,3.365,18.453c-5.576,4.141-11.253,6.2-17.021,6.376a49.979,49.979,0,0,0,29.279,13.769C203.844,448.255,218.633,423.851,218.493,418.432Z" transform="translate(-153.884 -406.714)" fill="#f8bd57"/>
                        <path id="Trazado_1044272" data-name="Trazado 1044272" d="M175.98,427.062c21.872,3.659,29.322-2.538,26.919-6.676s-12.075-8.3-12.075-8.3" transform="translate(-158.959 -407.947)" fill="none" stroke="#fff" stroke-linecap="round" stroke-linejoin="round" stroke-miterlimit="10" stroke-width="0.75"/>
                        <path id="Trazado_1044273" data-name="Trazado 1044273" d="M223.569,421.063a20.955,20.955,0,0,0-6.557-2.894c-4.875,11.286-18.737,29.5-41.031,27.464a49.6,49.6,0,0,0,12.256,2.972C208.92,450.887,223.708,426.482,223.569,421.063Z" transform="translate(-158.959 -409.345)" fill="#fff"/>
                      </g>
                      <path id="Trazado_1044274" data-name="Trazado 1044274" d="M166.408,435.261a27.892,27.892,0,0,1-12.525,3.5,49.979,49.979,0,0,0,29.279,13.769,27.255,27.255,0,0,0,17.676-4.473C170.12,449.546,166.408,435.263,166.408,435.261Z" transform="translate(-153.883 -413.271)" fill="#f8bd57" opacity="0.42"/>
                    </g>
                  </g>
                </g>
              </g>
            </g>
          </g>
          <g id="Grupo_1180857" data-name="Grupo 1180857" transform="translate(7.41 17.167)">
            <g id="Grupo_1180854" data-name="Grupo 1180854">
              <g id="Grupo_1180849" data-name="Grupo 1180849" transform="translate(297.89 84.362)">
                <path id="Trazado_1044275" data-name="Trazado 1044275" d="M443.728,161.988c-19.673-1.02-30.871,12.517-31.751,18.762C426.4,180.806,438.353,176.8,443.728,161.988Z" transform="translate(-411.977 -161.933)" fill="#dd334d"/>
                <path id="Trazado_1044276" data-name="Trazado 1044276" d="M443.728,162c-15.958,5.424-31.751,18.762-31.751,18.762" transform="translate(-411.977 -161.949)" fill="none" stroke="#fbe4d2" stroke-linecap="round" stroke-linejoin="round" stroke-miterlimit="10" stroke-width="1"/>
              </g>
              <g id="Grupo_1180850" data-name="Grupo 1180850" transform="translate(7.064)">
                <path id="Trazado_1044277" data-name="Trazado 1044277" d="M54.227,52.416C36.377,60.749,32.842,77.958,35,83.886,47.762,77.165,56.431,68.015,54.227,52.416Z" transform="translate(-34.434 -52.416)" fill="#dd334d"/>
                <path id="Trazado_1044278" data-name="Trazado 1044278" d="M54.4,52.416c-11.545,12.279-19.23,31.47-19.23,31.47" transform="translate(-34.602 -52.416)" fill="none" stroke="#fbe4d2" stroke-linecap="round" stroke-linejoin="round" stroke-miterlimit="10" stroke-width="1"/>
              </g>
              <g id="Grupo_1180851" data-name="Grupo 1180851" transform="translate(307.641 107.276)">
                <path id="Trazado_1044279" data-name="Trazado 1044279" d="M459,202.305c-8.792-14.956-27.371-11.441-34.368-5.655C436.381,203.268,447.935,206.752,459,202.305Z" transform="translate(-424.636 -191.679)" fill="#6fb4a8"/>
                <path id="Trazado_1044280" data-name="Trazado 1044280" d="M459,203.446a46.277,46.277,0,0,0-34.368-5.655" transform="translate(-424.636 -192.82)" fill="none" stroke="#fbe4d2" stroke-linecap="round" stroke-linejoin="round" stroke-miterlimit="10" stroke-width="1"/>
              </g>
              <g id="Grupo_1180852" data-name="Grupo 1180852" transform="translate(25.316 131.057)">
                <path id="Trazado_1044281" data-name="Trazado 1044281" d="M58.129,222.551c4.486,25.637,29.162,34.609,29.162,34.609Q84.567,232.165,58.129,222.551Z" transform="translate(-58.129 -222.551)" fill="#f8bd57"/>
                <path id="Trazado_1044282" data-name="Trazado 1044282" d="M58.129,222.551A196.186,196.186,0,0,1,87.291,257.16" transform="translate(-58.129 -222.551)" fill="none" stroke="#fbe4d2" stroke-linecap="round" stroke-linejoin="round" stroke-miterlimit="10" stroke-width="1"/>
              </g>
              <g id="Grupo_1180853" data-name="Grupo 1180853" transform="translate(0 161.012)">
                <path id="Trazado_1044283" data-name="Trazado 1044283" d="M25.264,266.092c26.919-14.1,44.224,8.332,44.224,8.332C52.676,277.185,37.689,275.065,25.264,266.092Z" transform="translate(-25.264 -261.437)" fill="#6fb4a8"/>
                <path id="Trazado_1044284" data-name="Trazado 1044284" d="M25.264,267.48c21.15,0,44.224,8.332,44.224,8.332" transform="translate(-25.264 -262.825)" fill="none" stroke="#fbe4d2" stroke-linecap="round" stroke-linejoin="round" stroke-miterlimit="10" stroke-width="1"/>
              </g>
            </g>
            <g id="Grupo_1180856" data-name="Grupo 1180856" transform="translate(20.454 56.275)">
              <path id="Trazado_1044285" data-name="Trazado 1044285" d="M83.34,173.661c-20.212-1.9-40.322-19.93-27.484-37.515s30.444-10.232,33.936-.792-.883,22.032,2.659,30.5Z" transform="translate(-51.817 -125.471)" fill="#f8bd57"/>
              <path id="Trazado_1044286" data-name="Trazado 1044286" d="M88.765,173.414c-13.42-20.289-24.949-26.989-26.494-22.108s15.671,11.456,20.373,2.76-3.324-19.564-5.8-17.528,9.583,29.4,13.62,34.515" transform="translate(-54.195 -127.956)" fill="none" stroke="#fff" stroke-linecap="round" stroke-linejoin="round" stroke-miterlimit="10" stroke-width="0.75"/>
              <path id="Trazado_1044287" data-name="Trazado 1044287" d="M87.844,184.407l12.069-9.8s7.849,10.535,7.433,12.552-9.722,9.525-12.559,7.267C93.046,193.036,87.844,184.407,87.844,184.407Z" transform="translate(-60.092 -136.756)" fill="#6468b0"/>
              <g id="Grupo_1180855" data-name="Grupo 1180855" transform="translate(27.282 42.516)">
                <line id="Línea_793" data-name="Línea 793" y1="6.357" x2="16.573" transform="translate(4.439 6.388)" fill="none" stroke="#282425" stroke-linecap="round" stroke-linejoin="round" stroke-miterlimit="10" stroke-width="0.75"/>
                <line id="Línea_794" data-name="Línea 794" x1="17.287" y2="6.848" transform="translate(2.181 3.056)" fill="none" stroke="#282425" stroke-linecap="round" stroke-linejoin="round" stroke-miterlimit="10" stroke-width="0.75"/>
                <line id="Línea_795" data-name="Línea 795" y1="6.673" x2="17.626" fill="none" stroke="#282425" stroke-linecap="round" stroke-linejoin="round" stroke-miterlimit="10" stroke-width="0.75"/>
              </g>
            </g>
          </g>
          <g id="Grupo_1180865" data-name="Grupo 1180865" transform="translate(14.474 0)">
            <g id="Grupo_1180858" data-name="Grupo 1180858" transform="translate(326.421 161.21)">
              <line id="Línea_796" data-name="Línea 796" y2="9.715" transform="translate(4.858)" fill="none" stroke="#282425" stroke-linecap="round" stroke-linejoin="round" stroke-miterlimit="10" stroke-width="0.75"/>
              <line id="Línea_797" data-name="Línea 797" x2="9.715" transform="translate(0 4.858)" fill="none" stroke="#282425" stroke-linecap="round" stroke-linejoin="round" stroke-miterlimit="10" stroke-width="0.75"/>
            </g>
            <g id="Grupo_1180859" data-name="Grupo 1180859" transform="translate(138.054 4.938)">
              <line id="Línea_798" data-name="Línea 798" y2="9.715" transform="translate(4.858)" fill="none" stroke="#282425" stroke-linecap="round" stroke-linejoin="round" stroke-miterlimit="10" stroke-width="0.75"/>
              <line id="Línea_799" data-name="Línea 799" x2="9.715" transform="translate(0 4.858)" fill="none" stroke="#282425" stroke-linecap="round" stroke-linejoin="round" stroke-miterlimit="10" stroke-width="0.75"/>
            </g>
            <g id="Grupo_1180860" data-name="Grupo 1180860" transform="translate(0 129.409)">
              <line id="Línea_800" data-name="Línea 800" y2="5.753" transform="translate(2.876)" fill="none" stroke="#282425" stroke-linecap="round" stroke-linejoin="round" stroke-miterlimit="10" stroke-width="0.75"/>
              <line id="Línea_801" data-name="Línea 801" x2="5.753" transform="translate(0 2.877)" fill="none" stroke="#282425" stroke-linecap="round" stroke-linejoin="round" stroke-miterlimit="10" stroke-width="0.75"/>
            </g>
            <g id="Grupo_1180861" data-name="Grupo 1180861" transform="translate(319.701 177.93)">
              <line id="Línea_802" data-name="Línea 802" y2="5.754" transform="translate(2.877)" fill="none" stroke="#282425" stroke-linecap="round" stroke-linejoin="round" stroke-miterlimit="10" stroke-width="0.75"/>
              <line id="Línea_803" data-name="Línea 803" x2="5.754" transform="translate(0 2.877)" fill="none" stroke="#282425" stroke-linecap="round" stroke-linejoin="round" stroke-miterlimit="10" stroke-width="0.75"/>
            </g>
            <g id="Grupo_1180862" data-name="Grupo 1180862" transform="translate(237.507 338.99)">
              <line id="Línea_804" data-name="Línea 804" y2="5.754" transform="translate(2.877)" fill="none" stroke="#282425" stroke-linecap="round" stroke-linejoin="round" stroke-miterlimit="10" stroke-width="0.75"/>
              <line id="Línea_805" data-name="Línea 805" x2="5.754" transform="translate(0 2.877)" fill="none" stroke="#282425" stroke-linecap="round" stroke-linejoin="round" stroke-miterlimit="10" stroke-width="0.75"/>
            </g>
            <g id="Grupo_1180863" data-name="Grupo 1180863" transform="translate(4.857 207.158)">
              <line id="Línea_806" data-name="Línea 806" y2="9.714" transform="translate(4.858)" fill="none" stroke="#282425" stroke-linecap="round" stroke-linejoin="round" stroke-miterlimit="10" stroke-width="0.75"/>
              <line id="Línea_807" data-name="Línea 807" x2="9.715" transform="translate(0 4.858)" fill="none" stroke="#282425" stroke-linecap="round" stroke-linejoin="round" stroke-miterlimit="10" stroke-width="0.75"/>
            </g>
            <g id="Grupo_1180864" data-name="Grupo 1180864" transform="translate(205.932 105.796)">
              <line id="Línea_808" data-name="Línea 808" y2="7.571" transform="translate(3.786)" fill="none" stroke="#282425" stroke-linecap="round" stroke-linejoin="round" stroke-miterlimit="10" stroke-width="0.75"/>
              <line id="Línea_809" data-name="Línea 809" x2="7.572" transform="translate(0 3.785)" fill="none" stroke="#282425" stroke-linecap="round" stroke-linejoin="round" stroke-miterlimit="10" stroke-width="0.75"/>
            </g>
            <rect id="Rectángulo_415831" data-name="Rectángulo 415831" width="7.105" height="7.105" transform="translate(223.536 94.568) rotate(45)" fill="none" stroke="#282425" stroke-linecap="round" stroke-linejoin="round" stroke-miterlimit="10" stroke-width="0.75"/>
            <rect id="Rectángulo_415832" data-name="Rectángulo 415832" width="7.105" height="7.105" transform="translate(58.298 146.757) rotate(45)" fill="none" stroke="#282425" stroke-linecap="round" stroke-linejoin="round" stroke-miterlimit="10" stroke-width="0.75"/>
            <rect id="Rectángulo_415833" data-name="Rectángulo 415833" width="7.105" height="7.105" transform="translate(278.9 326.339) rotate(45)" fill="none" stroke="#282425" stroke-linecap="round" stroke-linejoin="round" stroke-miterlimit="10" stroke-width="0.75"/>
            <rect id="Rectángulo_415834" data-name="Rectángulo 415834" width="7.105" height="7.105" transform="translate(45.658 0) rotate(45)" fill="none" stroke="#282425" stroke-linecap="round" stroke-linejoin="round" stroke-miterlimit="10" stroke-width="0.75"/>
          </g>
        </g>
      </g>
    </g>
  </g>
</svg>
