<svg xmlns="http://www.w3.org/2000/svg" xmlns:xlink="http://www.w3.org/1999/xlink" width="295" height="193" viewBox="0 0 295 193">
  <defs>
    <clipPath id="clip-path">
      <rect id="Rectángulo_415752" data-name="Rectángulo 415752" width="295" height="193" transform="translate(285 3228)" fill="#fff" stroke="#707070" stroke-width="1" opacity="0.39"/>
    </clipPath>
  </defs>
  <g id="Enmascarar_grupo_1098823" data-name="Enmascarar grupo 1098823" transform="translate(-285 -3228)" clip-path="url(#clip-path)">
    <g id="Grupo_1180304" data-name="Grupo 1180304" transform="translate(-5)">
      <ellipse id="Elipse_12502" data-name="Elipse 12502" cx="109.5" cy="104" rx="109.5" ry="104" transform="translate(338 3292)" fill="#effbfe"/>
      <g id="Grupo_1180183" data-name="Grupo 1180183" transform="translate(2.858 3132.161)">
        <ellipse id="Elipse_12495" data-name="Elipse 12495" cx="74.326" cy="11.407" rx="74.326" ry="11.407" transform="translate(377.142 419.029)" fill="#efe8df"/>
        <g id="Grupo_1180182" data-name="Grupo 1180182" transform="translate(386.046 99.968)">
          <g id="Grupo_1180156" data-name="Grupo 1180156" transform="translate(16.022 215.974)">
            <g id="Grupo_1180155" data-name="Grupo 1180155">
              <g id="Grupo_1180147" data-name="Grupo 1180147" transform="translate(2.463)">
                <path id="Trazado_1042774" data-name="Trazado 1042774" d="M416.638,363.349c2.181,17.718,4.453,35.467,4.887,39.472,0,0-18.326,6.852-18.425,11.629s25.711,2.683,25.711,2.683,18.082,5.216,13.127-10.587c0,0,1.323-17.716,2.852-38.6A123.042,123.042,0,0,1,416.638,363.349Z" transform="translate(-403.1 -301.416)" fill="#f3a07f"/>
                <path id="Trazado_1042775" data-name="Trazado 1042775" d="M448.845,304.653c-6.263.059-30.7,24.716-36.943,24.431.443,6.03,2.311,21.755,4.249,37.5a123.108,123.108,0,0,0,28.153,4.6C446.5,341.187,449.116,304.65,448.845,304.653Z" transform="translate(-402.614 -304.653)" fill="#f08864"/>
              </g>
              <g id="Grupo_1180154" data-name="Grupo 1180154" transform="translate(0 98.461)">
                <g id="Grupo_1180148" data-name="Grupo 1180148" transform="translate(0.317 2.842)">
                  <path id="Trazado_1042776" data-name="Trazado 1042776" d="M411.04,404.769c-7.587,3.406-9.975,6.781-9.975,6.781s.353,1.1,10.787,2.528A14.862,14.862,0,0,0,411.04,404.769Z" transform="translate(-401.065 -400.433)" fill="#fff"/>
                  <path id="Trazado_1042777" data-name="Trazado 1042777" d="M442.12,402.9c-9.911,5.287-21.631-2.237-21.631-2.237-4.126,1.066-7.28,3.129-9.97,4.337a14.864,14.864,0,0,1,.81,9.311c2.689.367,6.035.754,10.232,1.151,20.477,1.933,21.447-3.608,21.447-3.608A31.762,31.762,0,0,0,442.12,402.9Z" transform="translate(-400.544 -400.66)" fill="#5fafe2"/>
                </g>
                <g id="Grupo_1180149" data-name="Grupo 1180149" transform="translate(0 13.958)">
                  <path id="Trazado_1042778" data-name="Trazado 1042778" d="M443.546,411.268a32.9,32.9,0,0,1-.476,3.323s-5.957,1.988-22.054,1.651c-17.985-.376-20.241-2.815-20.241-2.815a6.142,6.142,0,0,1,.306-2.232A95.568,95.568,0,0,0,443.546,411.268Z" transform="translate(-400.765 -411.195)" fill="#fff"/>
                </g>
                <g id="Grupo_1180150" data-name="Grupo 1180150" transform="translate(14.373 5.2)">
                  <path id="Trazado_1042779" data-name="Trazado 1042779" d="M417.292,409.922h-.022a.255.255,0,0,1-.217-.284,6.593,6.593,0,0,0-2.55-6.267.266.266,0,0,1-.078-.356.244.244,0,0,1,.34-.082,7.243,7.243,0,0,1,2.778,6.76A.251.251,0,0,1,417.292,409.922Z" transform="translate(-414.387 -402.895)" fill="#429797"/>
                </g>
                <g id="Grupo_1180151" data-name="Grupo 1180151" transform="translate(18.03 4.029)">
                  <path id="Trazado_1042780" data-name="Trazado 1042780" d="M420.676,408.807h0a.253.253,0,0,1-.241-.264c.108-4.525-2.443-6.266-2.468-6.282a.263.263,0,0,1-.076-.355.238.238,0,0,1,.339-.081c.115.074,2.813,1.9,2.7,6.731A.253.253,0,0,1,420.676,408.807Z" transform="translate(-417.853 -401.785)" fill="#429797"/>
                </g>
                <g id="Grupo_1180152" data-name="Grupo 1180152" transform="translate(18.444)">
                  <path id="Trazado_1042781" data-name="Trazado 1042781" d="M419.4,403.979a.247.247,0,0,1-.223-.16c-.157-.4-1.508-3.967-.648-5.321a1.137,1.137,0,0,1,.988-.531,1.091,1.091,0,0,1,.969.491c.834,1.32-.68,4.957-.854,5.368a.248.248,0,0,1-.229.153Zm.163-5.5c-.013,0-.026,0-.039,0a.638.638,0,0,0-.584.3c-.513.806.05,2.97.477,4.242.485-1.292,1.149-3.5.656-4.281A.552.552,0,0,0,419.562,398.483Z" transform="translate(-418.245 -397.967)" fill="#429797"/>
                </g>
                <g id="Grupo_1180153" data-name="Grupo 1180153" transform="translate(19.356 2.642)">
                  <path id="Trazado_1042782" data-name="Trazado 1042782" d="M419.351,403.9a.247.247,0,0,1-.217-.146.266.266,0,0,1,.037-.281c.274-.327,2.71-3.175,4.272-2.995a1.147,1.147,0,0,1,.894.684,1.162,1.162,0,0,1,.012,1.124c-.759,1.371-4.552,1.592-4.981,1.612Zm3.946-2.916c-.931-.019-2.465,1.415-3.337,2.356,1.323-.128,3.514-.5,3.962-1.309a.623.623,0,0,0-.022-.63.65.65,0,0,0-.516-.41A.782.782,0,0,0,423.3,400.984Z" transform="translate(-419.109 -400.471)" fill="#429797"/>
                </g>
              </g>
            </g>
          </g>
          <g id="Grupo_1180166" data-name="Grupo 1180166" transform="translate(64.594 215.974)">
            <g id="Grupo_1180165" data-name="Grupo 1180165">
              <g id="Grupo_1180157" data-name="Grupo 1180157">
                <path id="Trazado_1042783" data-name="Trazado 1042783" d="M479.272,363.349c-2.181,17.718-4.453,35.467-4.887,39.472,0,0,18.326,6.852,18.425,11.629s-25.711,2.683-25.711,2.683-18.082,5.216-13.127-10.587c0,0-1.323-17.716-2.852-38.6A123.042,123.042,0,0,0,479.272,363.349Z" transform="translate(-446.559 -301.416)" fill="#f3a07f"/>
                <path id="Trazado_1042784" data-name="Trazado 1042784" d="M446.817,304.653c6.263.059,30.7,24.716,36.943,24.431-.443,6.03-2.311,21.755-4.249,37.5a123.108,123.108,0,0,1-28.153,4.6C449.163,341.187,446.546,304.65,446.817,304.653Z" transform="translate(-446.798 -304.653)" fill="#f08864"/>
              </g>
              <g id="Grupo_1180164" data-name="Grupo 1180164" transform="translate(5.892 98.462)">
                <g id="Grupo_1180158" data-name="Grupo 1180158" transform="translate(0 2.84)">
                  <path id="Trazado_1042785" data-name="Trazado 1042785" d="M483.274,404.769c7.587,3.406,9.975,6.781,9.975,6.781s-.353,1.1-10.787,2.528A14.863,14.863,0,0,1,483.274,404.769Z" transform="translate(-450.745 -400.433)" fill="#fff"/>
                  <path id="Trazado_1042786" data-name="Trazado 1042786" d="M453.309,402.9c9.911,5.287,21.632-2.237,21.632-2.237,4.126,1.066,7.28,3.129,9.97,4.337a14.864,14.864,0,0,0-.81,9.311c-2.689.367-6.035.754-10.232,1.151-20.477,1.933-21.447-3.608-21.447-3.608A31.881,31.881,0,0,1,453.309,402.9Z" transform="translate(-452.382 -400.66)" fill="#5fafe2"/>
                </g>
                <g id="Grupo_1180159" data-name="Grupo 1180159" transform="translate(0.04 13.957)">
                  <path id="Trazado_1042787" data-name="Trazado 1042787" d="M452.42,411.268a32.91,32.91,0,0,0,.476,3.323s5.957,1.988,22.054,1.651c17.985-.376,20.241-2.815,20.241-2.815a6.153,6.153,0,0,0-.3-2.232A95.572,95.572,0,0,1,452.42,411.268Z" transform="translate(-452.42 -411.195)" fill="#fff"/>
                </g>
                <g id="Grupo_1180160" data-name="Grupo 1180160" transform="translate(25.241 5.199)">
                  <path id="Trazado_1042788" data-name="Trazado 1042788" d="M476.606,409.922h.022a.255.255,0,0,0,.217-.284,6.594,6.594,0,0,1,2.55-6.267.266.266,0,0,0,.078-.356.244.244,0,0,0-.34-.082,7.243,7.243,0,0,0-2.779,6.76A.252.252,0,0,0,476.606,409.922Z" transform="translate(-476.303 -402.895)" fill="#429797"/>
                </g>
                <g id="Grupo_1180161" data-name="Grupo 1180161" transform="translate(21.713 4.028)">
                  <path id="Trazado_1042789" data-name="Trazado 1042789" d="M473.215,408.807h0a.253.253,0,0,0,.241-.264c-.108-4.525,2.443-6.266,2.468-6.282a.263.263,0,0,0,.076-.355.238.238,0,0,0-.339-.081c-.115.074-2.813,1.9-2.7,6.731A.253.253,0,0,0,473.215,408.807Z" transform="translate(-472.96 -401.785)" fill="#429797"/>
                </g>
                <g id="Grupo_1180162" data-name="Grupo 1180162" transform="translate(21.889)">
                  <path id="Trazado_1042790" data-name="Trazado 1042790" d="M474.459,403.979a.247.247,0,0,1-.229-.153c-.175-.41-1.687-4.048-.855-5.368a1.089,1.089,0,0,1,.969-.491,1.134,1.134,0,0,1,.988.531c.86,1.354-.491,4.919-.648,5.321a.247.247,0,0,1-.223.16S474.46,403.979,474.459,403.979Zm-.671-5.237c-.493.78.172,2.989.656,4.281.427-1.27.99-3.435.477-4.242a.64.64,0,0,0-.583-.3c-.014,0-.026,0-.039,0A.556.556,0,0,0,473.788,398.742Z" transform="translate(-473.127 -397.968)" fill="#429797"/>
                </g>
                <g id="Grupo_1180163" data-name="Grupo 1180163" transform="translate(18.088 2.641)">
                  <path id="Trazado_1042791" data-name="Trazado 1042791" d="M474.645,403.9c-.429-.02-4.223-.243-4.981-1.612a1.283,1.283,0,0,1,.905-1.807c1.563-.18,4,2.667,4.272,2.995a.264.264,0,0,1,.037.281.246.246,0,0,1-.217.146Zm-4.017-2.909a.648.648,0,0,0-.516.41.62.62,0,0,0-.022.63c.448.809,2.639,1.182,3.962,1.309-.872-.941-2.407-2.375-3.337-2.356A.781.781,0,0,0,470.628,400.99Z" transform="translate(-469.525 -400.471)" fill="#429797"/>
                </g>
              </g>
            </g>
          </g>
          <g id="Grupo_1180180" data-name="Grupo 1180180">
            <path id="Trazado_1042792" data-name="Trazado 1042792" d="M471.056,188.826c9.622-3.822,16.73-12.629,20.081-22.425s3.276-20.49,1.551-30.7c-1.134-6.713-3.1-13.568-7.637-18.646-4.425-4.954-10.9-7.7-17.446-8.834s-13.246-.782-19.88-.431" transform="translate(-382.153 -99.555)" fill="none" stroke="#e95336" stroke-miterlimit="10" stroke-width="0.583"/>
            <path id="Trazado_1042793" data-name="Trazado 1042793" d="M436.6,106.828a36.663,36.663,0,0,0-47.272,36.489c.249,6.506,2.219,12.813,4.347,18.966,3.643,10.535,8.385,21.615,17.9,27.429" transform="translate(-385.375 -99.674)" fill="none" stroke="#e95336" stroke-miterlimit="10" stroke-width="0.583"/>
            <path id="Trazado_1042794" data-name="Trazado 1042794" d="M432.1,109.135l-1.775-4.542c-.3-.758-.569-1.69-.052-2.318a1.6,1.6,0,0,1,2.161-.02,4.64,4.64,0,0,1,1.219,2.034,5.805,5.805,0,0,1,.31-3.079,2,2,0,0,1,2.591-1.054,2.477,2.477,0,0,1,1,1.792,7.908,7.908,0,0,1-.914,5.256" transform="translate(-383.131 -99.968)" fill="#e95336"/>
            <path id="Trazado_1042795" data-name="Trazado 1042795" d="M409.66,174.084c-.26.777-13.212,16.838-19.429,22.278a23.586,23.586,0,0,0,9.585,7.513l8.289-9.325s-4.145,9.585-4.145,10.362,4.663,3.108,10.621,4.145l3.108-6.217.518,6.995a17.6,17.6,0,0,0,11.916,1.036s-.777-17.356,2.85-26.164S409.66,174.084,409.66,174.084Z" transform="translate(-385.324 -95.88)" fill="#e95336"/>
            <path id="Trazado_1042796" data-name="Trazado 1042796" d="M507.974,251.016c-.9-4.847-7.824-28.486-19.494-42.849s-29.55-6.882-29.55-6.882H434.5s-19.27-6.044-30.94,8.319-17,36.565-17.893,41.413,12.92,19.291,26.566,19.65c0,0-3.046,20.745,9.7,22.9,9.163,1.549,19.624.963,24.782.513,5.159.452,15.621,1.036,24.782-.513,12.747-2.155,9.574-24.43,9.574-24.43C494.717,268.778,508.871,255.864,507.974,251.016Z" transform="translate(-385.578 -94.487)" fill="#ffb525"/>
            <path id="Trazado_1042797" data-name="Trazado 1042797" d="M426.3,201.636s5.546,12.621,17.784,12.43,15.107-9.753,15.49-12.239" transform="translate(-383.334 -94.361)" fill="none" stroke="#f59d0b" stroke-miterlimit="10" stroke-width="0.574"/>
            <g id="Grupo_1180167" data-name="Grupo 1180167" transform="translate(7.238 181.046)">
              <path id="Trazado_1042798" data-name="Trazado 1042798" d="M481.812,271.55s19.817,45.852,25.257,71.5a63.467,63.467,0,0,0-11.17,1.722c-5.1,1.163-11.742,3.691-19.519,4.779-6.192.866-13.1.377-20.52.76-4.974.257-10.177,1.573-15.545,1.469-5.469-.107-11.11-1.642-16.855-2.246-4.191-.441-8.439.181-12.717-.58-2.638-.47-7.3-2.84-9.954-3.447-3.45-.788-4.895.139-8.349-.9,0,0,14.766-65.28,19.04-71.886Z" transform="translate(-392.44 -271.55)" fill="#4ca5a2"/>
            </g>
            <path id="Trazado_1042799" data-name="Trazado 1042799" d="M410.117,267.621s36.915,5.829,70.72-2.332v6.605s-23.315,7.771-70.331,1.166Z" transform="translate(-384.227 -90.85)" fill="#429797"/>
            <path id="Trazado_1042800" data-name="Trazado 1042800" d="M452.517,183.739c.541.615,7.888,19.895,9.455,28.007a23.587,23.587,0,0,0,11.319-4.495l-3.88-11.859s6.192,8.41,6.863,8.8,5.034-2.462,8.931-7.086l-3.8-5.817,6.3,3.076a17.61,17.61,0,0,0,6.9-9.772s-15.384-8.073-21.165-15.643S452.517,183.739,452.517,183.739Z" transform="translate(-381.888 -96.25)" fill="#e95336"/>
            <path id="Trazado_1042801" data-name="Trazado 1042801" d="M392.151,132.973c-1.436,13.409.747,27.331,7.127,39.212s17.086,21.575,29.884,25.825a48.742,48.742,0,0,0,29.914.186,47.1,47.1,0,0,0,7.745-86.724" transform="translate(-385.241 -99.334)" fill="#e95336"/>
            <g id="Grupo_1180178" data-name="Grupo 1180178" transform="translate(5.633 7.19)">
              <g id="Grupo_1180177" data-name="Grupo 1180177">
                <g id="Grupo_1180176" data-name="Grupo 1180176">
                  <g id="Grupo_1180168" data-name="Grupo 1180168" transform="translate(40.872 84.665)">
                    <path id="Trazado_1042802" data-name="Trazado 1042802" d="M429.654,189.826l.686,8a55.039,55.039,0,0,0,25.326.643l.126-11.45Z" transform="translate(-429.654 -187.021)" fill="#f08864"/>
                    <path id="Trazado_1042803" data-name="Trazado 1042803" d="M430.3,197.263l1.042,7.009s1.457,6.508,11.4,6.488c11.14-.023,12.76-6.538,12.76-6.538l.126-6.317A55.025,55.025,0,0,1,430.3,197.263Z" transform="translate(-429.618 -186.456)" fill="#f3a07f"/>
                  </g>
                  <path id="Trazado_1042804" data-name="Trazado 1042804" d="M476.861,126.635s5.793,15.071,5.838,37.094c.036,17.183-13.65,34.031-34.626,35.436-19.716,1.321-40.218-6.576-46.422-34.22s2.458-49.685,27.543-55.883S471.7,109.487,476.861,126.635Z" transform="translate(-390.433 -106.782)" fill="#f3a07f"/>
                  <path id="Trazado_1042805" data-name="Trazado 1042805" d="M470.1,173.4l4.576-16.143s14.777-5.408,15.577,9.763S475.11,182.989,470.1,173.4Z" transform="translate(-386.551 -104.05)" fill="#f3a07f"/>
                  <g id="Grupo_1180169" data-name="Grupo 1180169" transform="translate(87.342 57.035)">
                    <path id="Trazado_1042806" data-name="Trazado 1042806" d="M475.086,174.017a.31.31,0,0,0,.126-.027.3.3,0,0,0,.15-.4c-.034-.074-3.292-7.361,1.79-10.764a6.737,6.737,0,0,1,5.243-1.254,8.392,8.392,0,0,1,4.706,3.444.3.3,0,1,0,.516-.32,8.862,8.862,0,0,0-5.09-3.717,7.319,7.319,0,0,0-5.714,1.342c-5.513,3.692-2.041,11.444-2,11.523A.31.31,0,0,0,475.086,174.017Z" transform="translate(-473.695 -160.835)" fill="#763633"/>
                  </g>
                  <g id="Grupo_1180170" data-name="Grupo 1180170" transform="translate(87.364 62.042)">
                    <path id="Trazado_1042807" data-name="Trazado 1042807" d="M482.562,167.792a.3.3,0,0,0,.18-.549c-.051-.038-5.16-3.751-8.938.047a.3.3,0,1,0,.432.429c3.409-3.428,8.1-.022,8.145.013A.3.3,0,0,0,482.562,167.792Z" transform="translate(-473.716 -165.581)" fill="#763633"/>
                  </g>
                  <g id="Grupo_1180171" data-name="Grupo 1180171" transform="translate(53.049 69.532)">
                    <path id="Trazado_1042808" data-name="Trazado 1042808" d="M446.692,172.824a.312.312,0,0,0-.417-.106c-2.328,1.38-3.986,1.059-5.023.475,0,.043.017.083.017.128l-.066.491c0,.007-.006.013-.008.02a5.07,5.07,0,0,0,4.592-.165c.259-.121.525-.263.8-.425A.306.306,0,0,0,446.692,172.824Z" transform="translate(-441.195 -172.679)" fill="#763633"/>
                  </g>
                  <g id="Grupo_1180172" data-name="Grupo 1180172" transform="translate(50.961 66.238)">
                    <path id="Trazado_1042809" data-name="Trazado 1042809" d="M441.008,170.5c1.975,4.2-1.292,6.334-1.326,6.356a.3.3,0,0,1-.418-.094.307.307,0,0,1,.093-.42c.132-.084,3.2-2.118.7-6.33a.312.312,0,0,1,.106-.417.3.3,0,0,1,.417.106C440.746,169.98,440.886,170.246,441.008,170.5Z" transform="translate(-439.216 -169.558)" fill="#763633"/>
                  </g>
                  <path id="Trazado_1042810" data-name="Trazado 1042810" d="M432.949,174.855c-.567,2.89-5.414,4.374-10.827,3.312s-9.341-4.265-8.775-7.155,5.414-4.373,10.827-3.312S433.516,171.965,432.949,174.855Z" transform="translate(-389.684 -103.441)" fill="#f08864"/>
                  <path id="Trazado_1042811" data-name="Trazado 1042811" d="M411.123,173.518l-4.643-16.124s-14.8-5.348-15.537,9.828S406.149,183.131,411.123,173.518Z" transform="translate(-390.919 -104.041)" fill="#f3a07f"/>
                  <path id="Trazado_1042812" data-name="Trazado 1042812" d="M416.65,151.739s-3.03-2.682,3.359-6.057,8.638-2.64,9.678-.961c.95,1.531-.511,3.832-4.137,5.655C421.2,152.564,418.294,153.281,416.65,151.739Z" transform="translate(-389.539 -104.767)" fill="#e95336"/>
                  <path id="Trazado_1042813" data-name="Trazado 1042813" d="M428.57,161.192c0,2.068-1.369,3.748-3.065,3.752s-3.077-1.67-3.081-3.739,1.369-3.748,3.065-3.752S428.566,159.123,428.57,161.192Z" transform="translate(-389.181 -103.987)" fill="#000100"/>
                  <path id="Trazado_1042814" data-name="Trazado 1042814" d="M450.908,174.819c.578,2.888,5.432,4.35,10.841,3.268s9.323-4.3,8.745-7.191-5.432-4.35-10.841-3.268S450.33,171.931,450.908,174.819Z" transform="translate(-387.613 -103.446)" fill="#f08864"/>
                  <path id="Trazado_1042815" data-name="Trazado 1042815" d="M466.817,151.636s3.02-2.695-3.383-6.043-8.648-2.6-9.682-.921c-.943,1.535.527,3.83,4.16,5.638C462.275,152.479,465.179,153.184,466.817,151.636Z" transform="translate(-387.468 -104.771)" fill="#e95336"/>
                  <path id="Trazado_1042816" data-name="Trazado 1042816" d="M453.243,161.141c0,2.068,1.383,3.743,3.081,3.739s3.069-1.683,3.065-3.751-1.383-3.743-3.081-3.739S453.239,159.073,453.243,161.141Z" transform="translate(-387.481 -103.991)" fill="#000100"/>
                  <g id="Grupo_1180173" data-name="Grupo 1180173" transform="translate(2.407 57.208)">
                    <path id="Trazado_1042817" data-name="Trazado 1042817" d="M405.813,174.159a.293.293,0,0,1-.126-.027.3.3,0,0,1-.152-.4c.033-.074,3.262-7.374-1.834-10.757a6.735,6.735,0,0,0-5.247-1.231,8.4,8.4,0,0,0-4.692,3.463.3.3,0,0,1-.518-.319,8.858,8.858,0,0,1,5.074-3.738,7.321,7.321,0,0,1,5.719,1.318c5.528,3.669,2.087,11.436,2.052,11.515A.3.3,0,0,1,405.813,174.159Z" transform="translate(-393.199 -161)" fill="#763633"/>
                  </g>
                  <g id="Grupo_1180174" data-name="Grupo 1180174" transform="translate(7.213 62.206)">
                    <path id="Trazado_1042818" data-name="Trazado 1042818" d="M398.06,167.966a.3.3,0,0,1-.184-.548c.051-.038,5.145-3.772,8.938.011a.3.3,0,0,1-.429.432c-3.424-3.414-8.1.012-8.145.046A.308.308,0,0,1,398.06,167.966Z" transform="translate(-397.755 -165.736)" fill="#763633"/>
                  </g>
                  <g id="Grupo_1180175" data-name="Grupo 1180175" transform="translate(49.146 33.435)">
                    <path id="Trazado_1042819" data-name="Trazado 1042819" d="M444.359,169.711a.3.3,0,0,1-.127-.58,8.225,8.225,0,0,0,3.53-3.322c.843-1.711.574-4.279-.562-5.387a2.144,2.144,0,0,0-2.678-.156c-.034.018-.088.05-.159.091-3.738,2.181-5.428,1.208-6.189.007-1.395-2.205-.228-19.632-.091-21.612a.31.31,0,0,1,.325-.283.3.3,0,0,1,.282.325c-.37,5.325-1.092,19.521,0,21.245.9,1.418,2.7,1.35,5.369-.207.082-.047.143-.084.183-.1a2.737,2.737,0,0,1,3.385.26c1.326,1.293,1.646,4.138.684,6.09a8.678,8.678,0,0,1-3.823,3.607A.313.313,0,0,1,444.359,169.711Z" transform="translate(-437.495 -138.47)" fill="#763633"/>
                  </g>
                </g>
              </g>
            </g>
            <path id="Trazado_1042820" data-name="Trazado 1042820" d="M436.944,105.781s-56.812-7.873-43.654,56.935a23.36,23.36,0,0,0,8.3-3.235c.92-.554,2.728-5.252,3.9-5.713,1.63-.642,5.007-2.83,7.076-3.553,0,0,.267-9.21,1.871-9.7,1.254-.384,3.713,8.932,5.07,8.568,7.78-2.089,21.58-2.388,31.867-2.078,1.665.051,3.508-17.6,5.216-17.442s6.52,17.57,8.263,17.85a45.044,45.044,0,0,1,8.067,2.68s-.311-10.335.845-9.7,2.993,11.673,4.438,12.475c1.018.566,2.147,1.173,3.442,1.828.988.5.187,4.054,1.169,4.6,3.533,1.968,8.519,1.9,9.382,3.217s10.687-28.232-4.893-44.633C468.158,97.728,448.556,101.472,436.944,105.781Z" transform="translate(-385.264 -99.836)" fill="#e95336"/>
            <g id="Grupo_1180179" data-name="Grupo 1180179" transform="translate(43.655 106.064)">
              <path id="Trazado_1042821" data-name="Trazado 1042821" d="M453.577,210.659a2.766,2.766,0,0,1-4.155.764,1.623,1.623,0,0,1-.758.265l-4.871.388a1.636,1.636,0,0,1-1.761-1.5l-.388-4.871a1.631,1.631,0,0,1,.175-.865,4.068,4.068,0,0,1-1.106-4.35l-13.76.9,1.5,37.092,26.12-.637Zm-23.181.906-.387-4.871a1.636,1.636,0,0,1,1.5-1.761l4.87-.388a1.636,1.636,0,0,1,1.761,1.5l.388,4.871a1.636,1.636,0,0,1-1.5,1.761l-4.871.387A1.635,1.635,0,0,1,430.4,211.565Zm7.779,25.4-4.87.388a1.636,1.636,0,0,1-1.761-1.5l-.388-4.871a1.636,1.636,0,0,1,1.5-1.761l4.871-.387a1.636,1.636,0,0,1,1.761,1.5l.388,4.871A1.637,1.637,0,0,1,438.175,236.964Zm0-12.047-4.87.388a1.636,1.636,0,0,1-1.761-1.5l-.388-4.871a1.636,1.636,0,0,1,1.5-1.761l4.871-.388a1.636,1.636,0,0,1,1.761,1.5l.388,4.871A1.638,1.638,0,0,1,438.175,224.917Zm4.043-6.88a1.636,1.636,0,0,1,1.5-1.761l4.871-.388a1.636,1.636,0,0,1,1.761,1.5l.387,4.871a1.636,1.636,0,0,1-1.5,1.761l-4.871.388a1.636,1.636,0,0,1-1.761-1.5ZM450,235.877l-4.87.388a1.636,1.636,0,0,1-1.761-1.5l-.387-4.871a1.636,1.636,0,0,1,1.5-1.761l4.87-.388a1.636,1.636,0,0,1,1.761,1.5l.388,4.871A1.637,1.637,0,0,1,450,235.877Z" transform="translate(-426.953 -200.488)" fill="#ac644a"/>
              <path id="Trazado_1042822" data-name="Trazado 1042822" d="M436.868,212.467a1.636,1.636,0,0,0,1.5-1.761l-.388-4.871a1.636,1.636,0,0,0-1.761-1.5l-4.87.388a1.636,1.636,0,0,0-1.5,1.761l.387,4.871a1.636,1.636,0,0,0,1.761,1.5Z" transform="translate(-426.794 -200.276)" fill="#96503b"/>
              <path id="Trazado_1042823" data-name="Trazado 1042823" d="M441.265,210.347a1.636,1.636,0,0,0,1.761,1.5l4.871-.388a1.622,1.622,0,0,0,.758-.265,6.247,6.247,0,0,1-1.229-1.064c-4.487.9-4.713-4.262-4.713-4.262a7.506,7.506,0,0,1-1.66-1.259,1.611,1.611,0,0,0-.175.865Z" transform="translate(-426.185 -200.261)" fill="#96503b"/>
              <path id="Trazado_1042824" data-name="Trazado 1042824" d="M437.308,215.932l-4.871.388a1.636,1.636,0,0,0-1.5,1.761l.388,4.871a1.636,1.636,0,0,0,1.761,1.5l4.87-.388a1.636,1.636,0,0,0,1.5-1.761l-.388-4.871A1.635,1.635,0,0,0,437.308,215.932Z" transform="translate(-426.734 -199.636)" fill="#96503b"/>
              <path id="Trazado_1042825" data-name="Trazado 1042825" d="M443.57,223.6l4.871-.388a1.636,1.636,0,0,0,1.5-1.761l-.387-4.871a1.636,1.636,0,0,0-1.761-1.5l-4.871.388a1.636,1.636,0,0,0-1.5,1.761l.387,4.871A1.636,1.636,0,0,0,443.57,223.6Z" transform="translate(-426.155 -199.683)" fill="#96503b"/>
              <path id="Trazado_1042826" data-name="Trazado 1042826" d="M437.308,227.35l-4.871.387a1.636,1.636,0,0,0-1.5,1.761l.388,4.871a1.636,1.636,0,0,0,1.761,1.5l4.87-.388a1.636,1.636,0,0,0,1.5-1.761l-.388-4.871A1.634,1.634,0,0,0,437.308,227.35Z" transform="translate(-426.734 -199.007)" fill="#96503b"/>
              <path id="Trazado_1042827" data-name="Trazado 1042827" d="M448.517,226.319l-4.87.388a1.636,1.636,0,0,0-1.5,1.761l.387,4.871a1.636,1.636,0,0,0,1.761,1.5l4.87-.388a1.636,1.636,0,0,0,1.5-1.761l-.388-4.871A1.635,1.635,0,0,0,448.517,226.319Z" transform="translate(-426.115 -199.064)" fill="#96503b"/>
            </g>
            <path id="Trazado_1042828" data-name="Trazado 1042828" d="M432.684,242.422a31.313,31.313,0,0,0-11.091-7.139l4.335,12.3,11.474,4.462S434.6,244.3,432.684,242.422Z" transform="translate(-383.594 -92.505)" fill="#f59d0b"/>
            <path id="Trazado_1042829" data-name="Trazado 1042829" d="M459.042,239.753a31.3,31.3,0,0,0-7.369,10.94l12.39-4.077,2.086-11.345S460.954,237.875,459.042,239.753Z" transform="translate(-381.935 -92.505)" fill="#f59d0b"/>
            <path id="Trazado_1042830" data-name="Trazado 1042830" d="M420.876,265.626c11.505-10.482,7.541-7.075,16.467-16.827,5.4-2.832,16.5-9.493,15.685-11.419s-8.906,2.013-8.906,2.013,9.411-5.477,8.5-7.286-10.46,4.306-10.46,4.306,9.056-6.739,8.3-8.491c-1.4-2.918-11.139,6.058-11.139,6.058s6.961-8.124,5.389-9.882-10.366,8.966-10.366,8.966,2.322-5.8-.516-5.364-6.4,10.585-6.4,10.585-6.83,3.233-17.829,9.818A65.191,65.191,0,0,1,420.876,265.626Z" transform="translate(-384.255 -93.132)" fill="#f3a07f"/>
            <path id="Trazado_1042831" data-name="Trazado 1042831" d="M423.849,235.27s7.587,13.355,15.666,16.587c0,0-21.468,17.213-30.086,21.162s-15.081,2.155-19.929-4.847-3.832-19.137-3.832-19.137,5.685.958,14.482-2.095S423.849,235.27,423.849,235.27Z" transform="translate(-385.58 -92.506)" fill="#ffb525"/>
            <path id="Trazado_1042832" data-name="Trazado 1042832" d="M415.339,267.7c9.792-6.5,22.535-16.714,22.535-16.714s-14.38,16.8-17.439,17.31A8.485,8.485,0,0,1,415.339,267.7Z" transform="translate(-383.939 -91.638)" fill="#f59d0b"/>
            <path id="Trazado_1042833" data-name="Trazado 1042833" d="M400.048,246.692c8.863-3.245,23-11.421,23-11.421" transform="translate(-384.782 -92.505)" fill="none" stroke="#f59d0b" stroke-miterlimit="10" stroke-width="0.574"/>
            <path id="Trazado_1042834" data-name="Trazado 1042834" d="M468.638,265.626c-11.505-10.482-7.541-7.075-16.467-16.827-5.4-2.832-16.5-9.493-15.685-11.419s8.906,2.013,8.906,2.013-9.411-5.477-8.5-7.286,10.46,4.306,10.46,4.306-9.055-6.739-8.3-8.491c1.4-2.918,11.139,6.058,11.139,6.058s-6.96-8.124-5.389-9.882,10.366,8.966,10.366,8.966-2.322-5.8.516-5.364,6.4,10.585,6.4,10.585.9-2.177,17.829,9.818A65.19,65.19,0,0,0,468.638,265.626Z" transform="translate(-382.775 -93.132)" fill="#f3a07f"/>
            <path id="Trazado_1042835" data-name="Trazado 1042835" d="M468.638,265.626c-11.505-10.482-7.541-7.075-16.467-16.827-5.4-2.832-16.5-9.493-15.685-11.419s8.906,2.013,8.906,2.013-9.411-5.477-8.5-7.286,10.46,4.306,10.46,4.306-9.055-6.739-8.3-8.491c1.4-2.918,11.139,6.058,11.139,6.058s-6.96-8.124-5.389-9.882,10.366,8.966,10.366,8.966-2.322-5.8.516-5.364,6.4,10.585,6.4,10.585,4.326,2.34,17.829,9.818A65.19,65.19,0,0,0,468.638,265.626Z" transform="translate(-382.775 -93.132)" fill="#f3a07f"/>
            <path id="Trazado_1042836" data-name="Trazado 1042836" d="M451.75,248.577c-5.537-2.944-16.056-9.319-15.265-11.2.811-1.927,8.906,2.013,8.906,2.013s-9.411-5.477-8.5-7.286,10.46,4.306,10.46,4.306-9.055-6.739-8.3-8.491c1.4-2.917,11.139,6.058,11.139,6.058s-6.96-8.124-5.389-9.882,10.366,8.966,10.366,8.966-2.322-5.8.516-5.364" transform="translate(-382.775 -93.132)" fill="none" stroke="#763633" stroke-miterlimit="10" stroke-width="0.287"/>
            <path id="Trazado_1042837" data-name="Trazado 1042837" d="M466.143,235.27s-6.283,12.208-14.363,15.44c0,0,19.788,18.617,28.406,22.567s15.081,2.155,19.929-4.847,4.21-19.395,4.21-19.395-5.685.958-14.482-2.094S466.143,235.27,466.143,235.27Z" transform="translate(-381.929 -92.506)" fill="#ffb525"/>
            <path id="Trazado_1042838" data-name="Trazado 1042838" d="M451.78,249.9s16.719,15.17,20.671,17.719c0,0-7.878,1.246-13.487-4.617A30.5,30.5,0,0,1,451.78,249.9Z" transform="translate(-381.929 -91.698)" fill="#f59d0b"/>
            <path id="Trazado_1042839" data-name="Trazado 1042839" d="M466.054,235.525a130.47,130.47,0,0,0,21.8,11.091" transform="translate(-381.142 -92.491)" fill="none" stroke="#f59d0b" stroke-miterlimit="10" stroke-width="0.574"/>
            <path id="Trazado_1042840" data-name="Trazado 1042840" d="M407.336,243.881s1.912-15.681,2.549-18.867" transform="translate(-384.38 -93.071)" fill="none" stroke="#f59d0b" stroke-miterlimit="10" stroke-width="0.574"/>
            <line id="Línea_699" data-name="Línea 699" x1="3.314" y1="16.828" transform="translate(95.239 133.6)" fill="none" stroke="#f59d0b" stroke-miterlimit="10" stroke-width="0.574"/>
            <path id="Trazado_1042841" data-name="Trazado 1042841" d="M434.491,261.247a55.048,55.048,0,0,0,16.435-8.457" transform="translate(-382.882 -91.539)" fill="none" stroke="#f59d0b" stroke-miterlimit="10" stroke-width="0.574"/>
            <path id="Trazado_1042842" data-name="Trazado 1042842" d="M442.662,264.684l9.9-8.715" transform="translate(-382.432 -91.364)" fill="none" stroke="#f59d0b" stroke-miterlimit="10" stroke-width="0.574"/>
          </g>
          <g id="Grupo_1180181" data-name="Grupo 1180181" transform="translate(21.284 186.442)">
            <path id="Trazado_1042843" data-name="Trazado 1042843" d="M405.767,334.307c-.51-2.04,12.239-54.562,12.239-54.562" transform="translate(-405.752 -276.494)" fill="none" stroke="#035a5b" stroke-linecap="round" stroke-linejoin="round" stroke-miterlimit="10" stroke-width="0.574"/>
            <line id="Línea_700" data-name="Línea 700" y1="47.424" x2="3.251" transform="translate(20.157 6.693)" fill="none" stroke="#035a5b" stroke-linecap="round" stroke-linejoin="round" stroke-miterlimit="10" stroke-width="0.574"/>
            <line id="Línea_701" data-name="Línea 701" x2="7.84" y2="58.898" transform="translate(42.53 3.633)" fill="none" stroke="#035a5b" stroke-linecap="round" stroke-linejoin="round" stroke-miterlimit="10" stroke-width="0.574"/>
            <line id="Línea_702" data-name="Línea 702" x2="10.327" y2="44.747" transform="translate(55.533 4.207)" fill="none" stroke="#035a5b" stroke-linecap="round" stroke-linejoin="round" stroke-miterlimit="10" stroke-width="0.574"/>
            <line id="Línea_703" data-name="Línea 703" x2="11.473" y2="38.436" transform="translate(66.625 21.8)" fill="none" stroke="#035a5b" stroke-linecap="round" stroke-linejoin="round" stroke-miterlimit="10" stroke-width="0.574"/>
            <line id="Línea_704" data-name="Línea 704" x2="10.135" y2="30.596" transform="translate(72.361)" fill="none" stroke="#035a5b" stroke-linecap="round" stroke-linejoin="round" stroke-miterlimit="10" stroke-width="0.574"/>
          </g>
        </g>
      </g>
    </g>
  </g>
</svg>
