<svg xmlns="http://www.w3.org/2000/svg" xmlns:xlink="http://www.w3.org/1999/xlink" width="103" height="103" viewBox="0 0 103 103">
  <defs>
    <filter id="Trazado_978624" x="0" y="0" width="103" height="103" filterUnits="userSpaceOnUse">
      <feOffset dy="3" input="SourceAlpha"/>
      <feGaussianBlur stdDeviation="3" result="blur"/>
      <feFlood flood-opacity="0.161"/>
      <feComposite operator="in" in2="blur"/>
      <feComposite in="SourceGraphic"/>
    </filter>
  </defs>
  <g id="Grupo_1180764" data-name="Grupo 1180764" transform="translate(-191 -4458)">
    <g id="Grupo_1179463" data-name="Grupo 1179463" transform="translate(200 4464)">
      <g id="Grupo_1144531" data-name="Grupo 1144531">
        <g transform="matrix(1, 0, 0, 1, -9, -6)" filter="url(#Trazado_978624)">
          <g id="Trazado_978624-2" data-name="Trazado 978624" transform="translate(9 6)" fill="#fbf4c9">
            <path d="M 42.5 83.5 C 36.96437835693359 83.5 31.59512901306152 82.41617584228516 26.54141235351562 80.27863311767578 C 21.65934181213379 78.21369171142578 17.27447128295898 75.25723266601562 13.50862312316895 71.49137878417969 C 9.742764472961426 67.72553253173828 6.786305904388428 63.34066009521484 4.721364498138428 58.45858764648438 C 2.583823442459106 53.40486907958984 1.5 48.03562164306641 1.5 42.5 C 1.5 36.96437835693359 2.583823442459106 31.59512901306152 4.721364498138428 26.54141235351562 C 6.786305904388428 21.65934181213379 9.742764472961426 17.27447128295898 13.50862312316895 13.50862312316895 C 17.27447128295898 9.742764472961426 21.65934181213379 6.786305904388428 26.54141235351562 4.721364498138428 C 31.59512901306152 2.583823442459106 36.96437835693359 1.5 42.5 1.5 C 48.03562164306641 1.5 53.40486907958984 2.583823442459106 58.45858764648438 4.721364498138428 C 63.34066009521484 6.786305904388428 67.72553253173828 9.742764472961426 71.49137878417969 13.50862312316895 C 75.25723266601562 17.27447128295898 78.21369171142578 21.65934181213379 80.27863311767578 26.54141235351562 C 82.41617584228516 31.59512901306152 83.5 36.96437835693359 83.5 42.5 C 83.5 48.03562164306641 82.41617584228516 53.40486907958984 80.27863311767578 58.45858764648438 C 78.21369171142578 63.34066009521484 75.25723266601562 67.72553253173828 71.49137878417969 71.49137878417969 C 67.72553253173828 75.25723266601562 63.34066009521484 78.21369171142578 58.45858764648438 80.27863311767578 C 53.40486907958984 82.41617584228516 48.03562164306641 83.5 42.5 83.5 Z" stroke="none"/>
            <path d="M 42.5 3 C 37.16621398925781 3 31.99356079101562 4.043960571289062 27.125732421875 6.102882385253906 C 22.42246627807617 8.092185974121094 18.19785308837891 10.94070434570312 14.56928253173828 14.56928253173828 C 10.94070434570312 18.19785308837891 8.092185974121094 22.42246627807617 6.102882385253906 27.125732421875 C 4.043960571289062 31.99356079101562 3 37.16621398925781 3 42.5 C 3 47.83378601074219 4.043960571289062 53.00643920898438 6.102882385253906 57.87425231933594 C 8.092185974121094 62.57753372192383 10.94070434570312 66.80213165283203 14.56928253173828 70.43071746826172 C 18.19786834716797 74.05929565429688 22.42246627807617 76.90781402587891 27.125732421875 78.89711761474609 C 31.99356079101562 80.95603942871094 37.16621398925781 82 42.5 82 C 47.83378601074219 82 53.00642395019531 80.95603942871094 57.87425231933594 78.89711761474609 C 62.57753372192383 76.90781402587891 66.80213165283203 74.05929565429688 70.43071746826172 70.43071746826172 C 74.05929565429688 66.80213165283203 76.90781402587891 62.57753372192383 78.89711761474609 57.87425231933594 C 80.95603942871094 53.00642395019531 82 47.83378601074219 82 42.5 C 82 37.16621398925781 80.95603942871094 31.99356079101562 78.89711761474609 27.125732421875 C 76.90781402587891 22.42246627807617 74.05929565429688 18.19786834716797 70.43071746826172 14.56928253173828 C 66.80213165283203 10.94070434570312 62.57753372192383 8.092185974121094 57.87425231933594 6.102882385253906 C 53.00643920898438 4.043960571289062 47.83378601074219 3 42.5 3 M 42.5 0 C 65.97209167480469 0 85 19.02789306640625 85 42.5 C 85 65.97209167480469 65.97209167480469 85 42.5 85 C 19.02789306640625 85 0 65.97209167480469 0 42.5 C 0 19.02789306640625 19.02789306640625 0 42.5 0 Z" stroke="none" fill="#bcac89"/>
          </g>
        </g>
      </g>
    </g>
    <g id="mejor-amiga_1_" data-name="mejor-amiga (1)" transform="translate(212 4420.959)">
      <g id="Grupo_1180736" data-name="Grupo 1180736" transform="translate(29.149 62.939)">
        <path id="Trazado_1044092" data-name="Trazado 1044092" d="M258.122,71.479a14.816,14.816,0,0,1,3.506.419,2.972,2.972,0,0,1,2.686-2.36c1.576,0,2.854,1.6,2.854,3.566,0,.145-.008.287-.021.427a3.056,3.056,0,0,1,3.85.061c1.115,1.114.889,3.147-.5,4.539l-.015.014a14.713,14.713,0,0,1,2.427,8.117v2.795H243.339V86.263a14.783,14.783,0,0,1,14.783-14.783Z" transform="translate(-243.339 -69.539)" fill="#f2b88f"/>
      </g>
      <g id="Grupo_1180737" data-name="Grupo 1180737" transform="translate(29.149 62.939)">
        <path id="Trazado_1044093" data-name="Trazado 1044093" d="M258.122,71.479a14.816,14.816,0,0,1,3.506.419,2.972,2.972,0,0,1,2.686-2.36c1.576,0,2.854,1.6,2.854,3.566,0,.145-.008.287-.021.427a3.056,3.056,0,0,1,3.85.061c1.115,1.114.889,3.147-.5,4.539l-.015.014a14.713,14.713,0,0,1,2.427,8.117v2.795H243.339V86.263a14.783,14.783,0,0,1,14.783-14.783Z" transform="translate(-243.339 -69.539)" fill="#f2b88f"/>
      </g>
      <g id="Grupo_1180738" data-name="Grupo 1180738" transform="translate(29.149 64.879)">
        <path id="Trazado_1044094" data-name="Trazado 1044094" d="M243.339,100.52v2.795h5.92v-2.228c0-5.807,3.024-14.152,8.863-15.35A14.783,14.783,0,0,0,243.339,100.52Z" transform="translate(-243.339 -85.737)" fill="#e3a67b"/>
      </g>
      <g id="Grupo_1180739" data-name="Grupo 1180739" transform="translate(21.018 92.202)">
        <path id="Trazado_1044095" data-name="Trazado 1044095" d="M211.165,326.293c-1.208-6.88-6.56-12.065-12.979-12.065a11.922,11.922,0,0,0-5.912,1.579,12.808,12.808,0,0,0-7.127-1.97c-5.348,0-9.683,2.729-9.683,6.1v2.081l7.223,7.223,26.331.009A2.407,2.407,0,0,0,211.165,326.293Z" transform="translate(-175.463 -313.836)" fill="#a4e7ff"/>
      </g>
      <g id="Grupo_1180740" data-name="Grupo 1180740" transform="translate(21.018 92.211)">
        <path id="Trazado_1044096" data-name="Trazado 1044096" d="M190.735,326.365c1.03-5.864,5.07-10.5,10.215-11.736a11.779,11.779,0,0,0-2.765-.329,11.922,11.922,0,0,0-5.912,1.578,12.808,12.808,0,0,0-7.127-1.97c-5.348,0-9.683,2.729-9.683,6.1v2.081l7.223,7.223,10.2.009A2.407,2.407,0,0,1,190.735,326.365Z" transform="translate(-175.463 -313.908)" fill="#5ad6ff"/>
      </g>
      <g id="Grupo_1180741" data-name="Grupo 1180741" transform="translate(40.147 92.767)">
        <circle id="Elipse_12548" data-name="Elipse 12548" cx="3.594" cy="3.594" r="3.594" transform="translate(0 0)" fill="#ffcdbe"/>
      </g>
      <g id="Grupo_1180742" data-name="Grupo 1180742" transform="translate(53.938 80.899)">
        <circle id="Elipse_12549" data-name="Elipse 12549" cx="3.247" cy="3.247" r="3.247" transform="translate(0 0)" fill="#ffdecf"/>
      </g>
      <g id="Grupo_1180743" data-name="Grupo 1180743" transform="translate(30.691 72.586)">
        <path id="Trazado_1044097" data-name="Trazado 1044097" d="M277.191,157.314a13.981,13.981,0,0,1-7.751-7.242,13.98,13.98,0,0,1-7.751,7.242,15.731,15.731,0,0,1-5.226,1.176,13.049,13.049,0,1,0,25.6-.036A15.6,15.6,0,0,1,277.191,157.314Z" transform="translate(-256.215 -150.072)" fill="#ffeee5"/>
      </g>
      <g id="Grupo_1180744" data-name="Grupo 1180744" transform="translate(30.691 80.23)">
        <path id="Trazado_1044098" data-name="Trazado 1044098" d="M260.567,214.841c0-.321.01-.639.025-.956a15.5,15.5,0,0,1-4.13.773A13.055,13.055,0,0,0,268.1,230.193,19.376,19.376,0,0,1,260.567,214.841Z" transform="translate(-256.214 -213.885)" fill="#ffdecf"/>
      </g>
      <g id="Grupo_1180748" data-name="Grupo 1180748" transform="translate(36.254 82.658)">
        <g id="Grupo_1180745" data-name="Grupo 1180745" transform="translate(0 0)">
          <path id="Trazado_1044099" data-name="Trazado 1044099" d="M303.551,237.223a.9.9,0,0,1-.9-.9v-1.266a.9.9,0,1,1,1.8,0v1.266A.9.9,0,0,1,303.551,237.223Z" transform="translate(-302.653 -234.16)"/>
        </g>
        <g id="Grupo_1180746" data-name="Grupo 1180746" transform="translate(13.176 0)">
          <path id="Trazado_1044100" data-name="Trazado 1044100" d="M413.551,237.223a.9.9,0,0,1-.9-.9v-1.266a.9.9,0,0,1,1.8,0v1.266A.9.9,0,0,1,413.551,237.223Z" transform="translate(-412.653 -234.16)"/>
        </g>
        <g id="Grupo_1180747" data-name="Grupo 1180747" transform="translate(4.851 1.228)">
          <path id="Trazado_1044101" data-name="Trazado 1044101" d="M345.787,247a3.2,3.2,0,0,1-2.414-1.1.9.9,0,1,1,1.355-1.18,1.4,1.4,0,0,0,2.119,0,.9.9,0,1,1,1.355,1.18A3.2,3.2,0,0,1,345.787,247Z" transform="translate(-343.152 -244.414)"/>
        </g>
      </g>
      <g id="Grupo_1180749" data-name="Grupo 1180749" transform="translate(4.285 92.611)">
        <path id="Trazado_1044102" data-name="Trazado 1044102" d="M61.744,329.3c-1.207-6.872-6.553-12.051-12.965-12.051S37.022,322.426,35.815,329.3a2.4,2.4,0,0,0,2.145,2.948H59.6A2.4,2.4,0,0,0,61.744,329.3Z" transform="translate(-35.773 -317.247)" fill="#fad989"/>
      </g>
      <g id="Grupo_1180750" data-name="Grupo 1180750" transform="translate(4.285 92.611)">
        <path id="Trazado_1044103" data-name="Trazado 1044103" d="M41.337,329.3c1.029-5.857,5.064-10.484,10.2-11.723a11.763,11.763,0,0,0-2.762-.329c-6.412,0-11.758,5.179-12.965,12.051a2.4,2.4,0,0,0,2.145,2.947h5.523A2.4,2.4,0,0,1,41.337,329.3Z" transform="translate(-35.772 -317.247)" fill="#f6ca56"/>
      </g>
      <g id="Grupo_1180751" data-name="Grupo 1180751" transform="translate(13.698 92.75)">
        <circle id="Elipse_12550" data-name="Elipse 12550" cx="3.594" cy="3.594" r="3.594" fill="#d69a8a"/>
      </g>
      <g id="Grupo_1180752" data-name="Grupo 1180752" transform="translate(0.898 63.698)">
        <path id="Trazado_1044104" data-name="Trazado 1044104" d="M39.664,94.27a4.011,4.011,0,0,0-1.127-5.5A4.011,4.011,0,0,0,35.642,82.7c.013-.133.02-.267.02-.4a4.011,4.011,0,0,0-5.272-3.808A4.011,4.011,0,0,0,23.9,76.947a4.011,4.011,0,0,0-6.488,1.539,4.011,4.011,0,0,0-5.272,3.808c0,.136.007.271.02.4A4.011,4.011,0,0,0,9.267,88.77a4.011,4.011,0,0,0-1.127,5.5Z" transform="translate(-7.5 -75.875)" fill="#6b7d8e"/>
      </g>
      <g id="Grupo_1180753" data-name="Grupo 1180753" transform="translate(0.898 66.106)">
        <path id="Trazado_1044105" data-name="Trazado 1044105" d="M16.153,95.98a4.011,4.011,0,0,0-4.011,4.011c0,.136.007.271.02.4a4.011,4.011,0,0,0-2.895,6.073,4.011,4.011,0,0,0-1.127,5.5h7.229c.053-1.77.118-3.125.194-3.572a5.317,5.317,0,0,1,.975-2.515,3.414,3.414,0,0,1-1.346-3.42,3.721,3.721,0,0,1,2.691-2.982,3.817,3.817,0,0,1-.471-3.294,4.008,4.008,0,0,0-1.26-.2Z" transform="translate(-7.5 -95.98)" fill="#5f7080"/>
      </g>
      <g id="Grupo_1180756" data-name="Grupo 1180756" transform="translate(0.984 80.649)">
        <g id="Grupo_1180754" data-name="Grupo 1180754" transform="translate(26.122 0)">
          <circle id="Elipse_12551" data-name="Elipse 12551" cx="3.247" cy="3.247" r="3.247" fill="#e1ac9a"/>
        </g>
        <g id="Grupo_1180755" data-name="Grupo 1180755" transform="translate(0 0)">
          <circle id="Elipse_12552" data-name="Elipse 12552" cx="3.247" cy="3.247" r="3.247" fill="#d69a8a"/>
        </g>
      </g>
      <g id="Grupo_1180757" data-name="Grupo 1180757" transform="translate(4.249 77.775)">
        <path id="Trazado_1044106" data-name="Trazado 1044106" d="M48.4,195.679a24.284,24.284,0,0,1-10.339-2.061,1.2,1.2,0,0,0-1.64.628,13.052,13.052,0,1,0,24.159-.109,1.2,1.2,0,0,0-1.653-.612A24.02,24.02,0,0,1,48.4,195.679Z" transform="translate(-35.469 -193.395)" fill="#e7beaf"/>
      </g>
      <g id="Grupo_1180758" data-name="Grupo 1180758" transform="translate(4.24 77.877)">
        <path id="Trazado_1044107" data-name="Trazado 1044107" d="M39.652,199.118a19.8,19.8,0,0,1,.392-3.924h0a16.628,16.628,0,0,1-2.057-.829,1.2,1.2,0,0,0-1.64.628,13.057,13.057,0,0,0,8.472,17.431A19.647,19.647,0,0,1,39.652,199.118Z" transform="translate(-35.396 -194.242)" fill="#e1ac9a"/>
      </g>
      <g id="Grupo_1180762" data-name="Grupo 1180762" transform="translate(9.814 82.642)">
        <g id="Grupo_1180759" data-name="Grupo 1180759">
          <path id="Trazado_1044108" data-name="Trazado 1044108" d="M82.826,237.083a.9.9,0,0,1-.9-.9v-1.266a.9.9,0,0,1,1.8,0v1.266A.9.9,0,0,1,82.826,237.083Z" transform="translate(-81.928 -234.02)"/>
        </g>
        <g id="Grupo_1180760" data-name="Grupo 1180760" transform="translate(13.176)">
          <path id="Trazado_1044109" data-name="Trazado 1044109" d="M192.826,237.083a.9.9,0,0,1-.9-.9v-1.266a.9.9,0,0,1,1.8,0v1.266A.9.9,0,0,1,192.826,237.083Z" transform="translate(-191.928 -234.02)"/>
        </g>
        <g id="Grupo_1180761" data-name="Grupo 1180761" transform="translate(4.851 1.228)">
          <path id="Trazado_1044110" data-name="Trazado 1044110" d="M125.063,246.863a3.2,3.2,0,0,1-2.414-1.1.9.9,0,1,1,1.355-1.18,1.4,1.4,0,0,0,2.119,0,.9.9,0,0,1,1.355,1.18A3.2,3.2,0,0,1,125.063,246.863Z" transform="translate(-122.428 -244.275)"/>
        </g>
      </g>
      <g id="Grupo_1180763" data-name="Grupo 1180763" transform="translate(6.746 92.187)">
        <circle id="Elipse_12553" data-name="Elipse 12553" cx="4.192" cy="4.192" r="4.192" fill="#ffdecf"/>
      </g>
      <path id="Trazado_1044111" data-name="Trazado 1044111" d="M56.859,88.278c.108.009.217.014.326.014a4.143,4.143,0,0,0,2.429-7.5V79.663A15.617,15.617,0,0,0,57.4,71.636a4.807,4.807,0,0,0,.983-2.378,3.464,3.464,0,0,0-.946-2.9,3.637,3.637,0,0,0-3.65-.8,3.979,3.979,0,0,0-3.668-3.52,3.69,3.69,0,0,0-3.246,2.218,15.718,15.718,0,0,0-10.921,1.9.9.9,0,1,0,.915,1.546,13.921,13.921,0,0,1,10.354-1.532.9.9,0,0,0,1.076-.625,2.1,2.1,0,0,1,1.823-1.71c1.06,0,1.956,1.221,1.956,2.667,0,.11-.006.222-.017.342a.9.9,0,0,0,1.389.835,2.177,2.177,0,0,1,2.719-.054,1.707,1.707,0,0,1,.431,1.431,3.135,3.135,0,0,1-.927,1.831l-.018.017a.9.9,0,0,0-.119,1.133,13.825,13.825,0,0,1,2.279,7.623v.386a4.131,4.131,0,0,0-1.333.012A14.672,14.672,0,0,1,52.007,79a13.189,13.189,0,0,1-7.261-6.752.9.9,0,0,0-1.662,0A13.189,13.189,0,0,1,35.824,79c-.41.168-.827.316-1.246.448a4.9,4.9,0,0,0-1.515-3.095,4.9,4.9,0,0,0-.511-4.641,14,14,0,0,1,1.684-1.984.9.9,0,0,0-1.255-1.286,15.78,15.78,0,0,0-1.723,1.99,4.873,4.873,0,0,0-1.309-.627,4.91,4.91,0,0,0-5.661-4.534A4.909,4.909,0,0,0,17.3,63.629a4.909,4.909,0,0,0-6.988,1.639A4.91,4.91,0,0,0,4.652,69.8,4.91,4.91,0,0,0,1.539,76.35a4.9,4.9,0,0,0-1.029,5.74A4.144,4.144,0,0,0,4.09,88.037a13.871,13.871,0,0,0,3.017,5,5.078,5.078,0,0,0-1.017,4.9,16.915,16.915,0,0,0-2.648,6.576,3.551,3.551,0,0,0,.757,2.91,2.978,2.978,0,0,0,2.273,1.091H19.089a.9.9,0,0,0,0-1.8H6.472a1.19,1.19,0,0,1-.9-.45,1.784,1.784,0,0,1-.363-1.444A15.238,15.238,0,0,1,7.09,99.706a5.08,5.08,0,0,0,7.495.221,4.491,4.491,0,0,0,7.18-3.183,13.755,13.755,0,0,0,2.218-.973,14.319,14.319,0,0,1,5.389,9.047,1.784,1.784,0,0,1-.363,1.444,1.189,1.189,0,0,1-.9.45H22.682a.9.9,0,0,0,0,1.8h31.89a2.981,2.981,0,0,0,2.275-1.092A3.555,3.555,0,0,0,57.6,104.5a16.256,16.256,0,0,0-5.554-9.769,14.015,14.015,0,0,0,4.808-6.457Zm.515-1.793a13.986,13.986,0,0,0,.21-4.651,2.346,2.346,0,0,1-.21,4.651ZM17.125,95.676c-.385-.005-.772-.031-1.155-.073a5.09,5.09,0,0,0-7.458-3.7,12.126,12.126,0,0,1-2.49-12.94.3.3,0,0,1,.413-.159,25.087,25.087,0,0,0,10.734,2.152A24.768,24.768,0,0,0,28.1,78.707a.293.293,0,0,1,.24-.014.3.3,0,0,1,.177.171A12.157,12.157,0,0,1,17.125,95.676ZM30.5,88.038h.037a13.823,13.823,0,0,0,1.672,3.345q-.744-.069-1.507-.069a16.253,16.253,0,0,0-1.909.113A13.767,13.767,0,0,0,30.5,88.038Zm.5-1.883a14.117,14.117,0,0,0,.125-4.48A2.346,2.346,0,0,1,31,86.155ZM3.169,77.338a.9.9,0,0,0,.262-1.215,3.112,3.112,0,0,1,2.246-4.711.9.9,0,0,0,.778-.98c-.01-.1-.016-.21-.016-.314a3.112,3.112,0,0,1,4.091-2.955.9.9,0,0,0,1.124-.539,3.112,3.112,0,0,1,5.035-1.195.9.9,0,0,0,1.223,0,3.112,3.112,0,0,1,5.035,1.195.9.9,0,0,0,1.124.539,3.113,3.113,0,0,1,4.091,2.955c0,.1-.005.209-.016.314a.9.9,0,0,0,.778.98,3.112,3.112,0,0,1,2.246,4.712.9.9,0,0,0,.262,1.215,3.1,3.1,0,0,1,1.315,3.171,4.12,4.12,0,0,0-2.016-.741,13.908,13.908,0,0,0-.552-1.594,2.1,2.1,0,0,0-2.89-1.069,23.3,23.3,0,0,1-10.12,2.057,23.621,23.621,0,0,1-9.945-1.969,2.1,2.1,0,0,0-2.867,1.1,13.907,13.907,0,0,0-.5,1.478,4.12,4.12,0,0,0-2,.739,3.1,3.1,0,0,1,1.315-3.171ZM1.891,83.9a2.351,2.351,0,0,1,1.571-2.214,14.1,14.1,0,0,0,.128,4.469,2.352,2.352,0,0,1-1.7-2.255Zm9.048,15.778a3.294,3.294,0,1,1,3.294-3.294A3.3,3.3,0,0,1,10.939,99.673Zm6.353-.635a2.686,2.686,0,0,1-1.7-.6,5.048,5.048,0,0,0,.332-1.031c.391.038.784.062,1.176.067h.192a14.107,14.107,0,0,0,2.538-.23,2.7,2.7,0,0,1-2.54,1.795Zm38.543,5.776a1.787,1.787,0,0,1-.364,1.447,1.192,1.192,0,0,1-.9.45H30.841a3.605,3.605,0,0,0,.3-2.2,16.239,16.239,0,0,0-5.555-9.764A14.12,14.12,0,0,0,26.9,93.632a13.6,13.6,0,0,1,3.8-.523,13.854,13.854,0,0,1,3.282.385,14.066,14.066,0,0,0,5.283,3.251,4.491,4.491,0,0,0,8.948.007,13.883,13.883,0,0,0,2.236-.988A14.336,14.336,0,0,1,55.835,104.814ZM41.2,97.25a13.837,13.837,0,0,0,5.085.006A2.695,2.695,0,0,1,41.2,97.25Zm2.544-1.558a12.194,12.194,0,0,1-11.464-8.121,4.142,4.142,0,0,0,1.816-5.482,4.891,4.891,0,0,0,.288-.72,17.333,17.333,0,0,0,2.125-.711,15.439,15.439,0,0,0,7.411-6.09,15.438,15.438,0,0,0,7.411,6.09A16.539,16.539,0,0,0,55.767,81.8,12.158,12.158,0,0,1,43.74,95.691Z" transform="translate(0)"/>
    </g>
  </g>
</svg>
