<svg xmlns="http://www.w3.org/2000/svg" xmlns:xlink="http://www.w3.org/1999/xlink" width="400" height="340" viewBox="0 0 400 340">
  <defs>
    <clipPath id="clip-path">
      <rect id="Rectángulo_415805" data-name="Rectángulo 415805" width="400" height="340" transform="translate(180 4665)" fill="#fff" stroke="#707070" stroke-width="1"/>
    </clipPath>
    <clipPath id="clip-path-2">
      <rect id="Rectángulo_415760" data-name="Rectángulo 415760" width="356.93" height="356.93" fill="none"/>
    </clipPath>
    <clipPath id="clip-path-3">
      <rect id="Rectángulo_415754" data-name="Rectángulo 415754" width="273.496" height="231.622" fill="#dce8fa"/>
    </clipPath>
    <clipPath id="clip-path-4">
      <rect id="Rectángulo_415755" data-name="Rectángulo 415755" width="122.137" height="66.52" fill="none"/>
    </clipPath>
    <clipPath id="clip-path-5">
      <rect id="Rectángulo_415757" data-name="Rectángulo 415757" width="121.852" height="109.895" fill="none"/>
    </clipPath>
    <clipPath id="clip-path-7">
      <rect id="Rectángulo_415758" data-name="Rectángulo 415758" width="93.893" height="61.178" fill="none"/>
    </clipPath>
    <clipPath id="clip-path-8">
      <rect id="Rectángulo_415759" data-name="Rectángulo 415759" width="86.35" height="61.938" fill="none"/>
    </clipPath>
    <clipPath id="clip-path-11">
      <rect id="Rectángulo_415762" data-name="Rectángulo 415762" width="0.038" height="0.045" fill="none"/>
    </clipPath>
    <clipPath id="clip-path-12">
      <rect id="Rectángulo_415763" data-name="Rectángulo 415763" width="4.385" height="5.876" fill="none"/>
    </clipPath>
    <clipPath id="clip-path-13">
      <rect id="Rectángulo_415764" data-name="Rectángulo 415764" width="5.667" height="4.693" fill="none"/>
    </clipPath>
    <clipPath id="clip-path-14">
      <rect id="Rectángulo_415778" data-name="Rectángulo 415778" width="31.304" height="10.318" fill="none"/>
    </clipPath>
    <clipPath id="clip-path-15">
      <rect id="Rectángulo_415765" data-name="Rectángulo 415765" width="0.498" height="0.498" fill="none"/>
    </clipPath>
    <clipPath id="clip-path-28">
      <rect id="Rectángulo_415779" data-name="Rectángulo 415779" width="51.765" height="23.71" fill="none"/>
    </clipPath>
    <clipPath id="clip-path-29">
      <rect id="Rectángulo_415780" data-name="Rectángulo 415780" width="4.7" height="5.662" fill="none"/>
    </clipPath>
    <clipPath id="clip-path-30">
      <rect id="Rectángulo_415781" data-name="Rectángulo 415781" width="5.425" height="4.988" fill="none"/>
    </clipPath>
    <clipPath id="clip-path-31">
      <rect id="Rectángulo_415782" data-name="Rectángulo 415782" width="75.366" height="51.801" fill="none"/>
    </clipPath>
    <clipPath id="clip-path-32">
      <rect id="Rectángulo_415783" data-name="Rectángulo 415783" width="91.196" height="65.263" fill="none"/>
    </clipPath>
    <clipPath id="clip-path-34">
      <rect id="Rectángulo_415785" data-name="Rectángulo 415785" width="4.981" height="5.434" fill="none"/>
    </clipPath>
    <clipPath id="clip-path-35">
      <rect id="Rectángulo_415786" data-name="Rectángulo 415786" width="5.178" height="5.25" fill="none"/>
    </clipPath>
    <clipPath id="clip-path-36">
      <rect id="Rectángulo_415787" data-name="Rectángulo 415787" width="53.149" height="20.147" fill="none"/>
    </clipPath>
    <clipPath id="clip-path-38">
      <rect id="Rectángulo_415797" data-name="Rectángulo 415797" width="16.31" height="11.477" fill="none"/>
    </clipPath>
    <clipPath id="clip-path-39">
      <rect id="Rectángulo_415798" data-name="Rectángulo 415798" width="31.445" height="17.794" fill="none"/>
    </clipPath>
    <clipPath id="clip-path-40">
      <rect id="Rectángulo_415799" data-name="Rectángulo 415799" width="10.123" height="59.363" fill="none"/>
    </clipPath>
    <clipPath id="clip-path-41">
      <rect id="Rectángulo_415800" data-name="Rectángulo 415800" width="31.623" height="31.624" fill="none"/>
    </clipPath>
    <clipPath id="clip-path-42">
      <rect id="Rectángulo_415801" data-name="Rectángulo 415801" width="32.93" height="32.933" fill="none"/>
    </clipPath>
    <clipPath id="clip-path-43">
      <rect id="Rectángulo_415802" data-name="Rectángulo 415802" width="32.926" height="32.929" fill="none"/>
    </clipPath>
  </defs>
  <g id="Enmascarar_grupo_1098824" data-name="Enmascarar grupo 1098824" transform="translate(-180 -4665)" clip-path="url(#clip-path)">
    <g id="Grupo_1180433" data-name="Grupo 1180433" transform="translate(3209.834 -400.557)">
      <g id="Grupo_1180331" data-name="Grupo 1180331" transform="translate(-3005 5048)">
        <g id="Grupo_1180330" data-name="Grupo 1180330" transform="translate(0 0)" clip-path="url(#clip-path-2)">
          <g id="Grupo_1180314" data-name="Grupo 1180314" transform="translate(40.288 54.998)" style="mix-blend-mode: multiply;isolation: isolate">
            <g id="Grupo_1180313" data-name="Grupo 1180313">
              <g id="Grupo_1180312" data-name="Grupo 1180312" clip-path="url(#clip-path-3)">
                <path id="Trazado_1043113" data-name="Trazado 1043113" d="M87.81,94.361c-35.086,29.16-42.889,101.7-12.419,136.327a67.68,67.68,0,0,0,24.24,17.458c9.519,4.05,16.664,1.784,26.655,1.674,14.248-.156,18.508,14.258,25.3,23.89a83.186,83.186,0,0,0,36.126,28.377c75.129,30.722,154.838-52.04,140.543-126.267-5.155-26.768-18.575-44.913-43.608-56.514-21.521-9.974-45.591-12.754-69.228-14.741-10.515-.884-22.321-1.95-31.368-7.932-3.831-2.533-6.407-6.337-10.09-8.657-3.863-2.434-9.775-4.673-14.09-6.393a65.855,65.855,0,0,0-22.193-4.5A74.129,74.129,0,0,0,95.338,88.819a78.811,78.811,0,0,0-7.528,5.542" transform="translate(-56.437 -77.044)" fill="#dce8fa"/>
              </g>
            </g>
          </g>
          <path id="Trazado_1043114" data-name="Trazado 1043114" d="M293.737,187.654A66.353,66.353,0,1,1,227.385,121.3a66.353,66.353,0,0,1,66.353,66.353" transform="translate(-46.078 -34.71)" fill="#fdda5f"/>
          <path id="Trazado_1043115" data-name="Trazado 1043115" d="M290.757,189.384a61.133,61.133,0,0,1-41.994,58.135,61.305,61.305,0,0,1-39.687-.428,59.361,59.361,0,0,1-10.668-4.974c-.266-.158-.53-.316-.792-.478q-1.258-.777-2.477-1.61c-.281-.19-.558-.384-.831-.578q-.848-.6-1.678-1.227c-.166-.126-.336-.257-.5-.388-.2-.154-.4-.308-.6-.47-.293-.23-.586-.468-.871-.7-.249-.206-.5-.412-.74-.617-.61-.518-1.207-1.044-1.792-1.587-.289-.269-.578-.538-.863-.811-.229-.218-.458-.439-.684-.665-.289-.281-.574-.57-.855-.859-.213-.213-.423-.435-.629-.653q-1.265-1.335-2.449-2.746c-.135-.163-.273-.325-.4-.487a61.315,61.315,0,0,1-8.554-13.758c-.012-.024-.02-.047-.032-.071q-.825-1.833-1.527-3.731c-.083-.213-.162-.431-.238-.649-.091-.249-.178-.5-.265-.747q-.385-1.128-.728-2.267c-.031-.107-.067-.218-.1-.328-.044-.146-.083-.289-.126-.432q-.178-.629-.344-1.258c-.071-.269-.138-.543-.206-.812-.075-.3-.146-.593-.213-.894-.011-.044-.024-.087-.031-.131-.118-.523-.233-1.044-.341-1.571-.067-.336-.131-.672-.193-1.009q-.5-2.671-.756-5.425c0-.059-.012-.115-.016-.174-.044-.475-.084-.958-.115-1.436q-.137-2.066-.138-4.159c0-1.341.056-2.659.134-3.973q.131-2.054.4-4.064c.044-.328.087-.657.135-.981q.344-2.35.87-4.646a59.31,59.31,0,0,1,4.341-12.515,61.149,61.149,0,0,1,10.39-15.369s0,0,0-.008c.6-.652,1.219-1.294,1.852-1.915s1.278-1.246,1.939-1.844l.665-.593c.222-.2.448-.392.673-.585a60.788,60.788,0,0,1,7.326-5.4l.1-.064c.616-.385,1.236-.762,1.867-1.125a.206.206,0,0,0,.051-.031q.623-.357,1.259-.7l.66-.356q1.324-.707,2.691-1.338c.455-.213.914-.419,1.377-.621.23-.1.459-.2.692-.3.253-.111.507-.218.764-.317,0,0,0,0,0,0a0,0,0,0,0,0,0c.222-.091.443-.178.669-.265a60.327,60.327,0,0,1,13.276-3.538,59.706,59.706,0,0,1,9.077-.672,60.516,60.516,0,0,1,21.913,4.055q2,.767,3.925,1.662h0c.3.139.59.277.882.42a60.49,60.49,0,0,1,5.442,3l0,0c.321.2.641.4.957.6.059.036.115.076.174.111.123.075.246.154.364.237.625.412,1.246.835,1.856,1.279.285.2.57.408.851.613s.585.435.874.657c.217.166.435.333.649.506.268.206.53.415.791.63.325.265.649.53.966.8.087.071.17.143.253.218.266.226.53.455.792.692.138.118.277.241.411.368.3.266.59.538.883.812.407.383.811.775,1.206,1.175.2.2.4.4.6.6q.588.6,1.164,1.223t1.127,1.254a61.077,61.077,0,0,1,7.321,10.355q.416.742.815,1.5t.771,1.52c.21.431.415.862.618,1.3.079.162.151.328.222.49.2.439.391.882.581,1.326.226.526.44,1.061.649,1.595.084.213.166.427.246.641s.162.435.241.652.154.435.233.653c.131.372.258.744.38,1.12.095.285.19.57.277.862.138.443.273.89.4,1.337.142.495.281.994.411,1.5.044.178.091.356.135.535.118.459.226.926.332,1.393.051.221.1.443.146.668.008.036.016.071.024.107.091.428.174.854.257,1.282.071.376.138.756.2,1.131.055.317.106.637.154.954q.059.362.106.724l.071.5c.028.234.059.463.087.7a62.036,62.036,0,0,1,.451,7.471" transform="translate(-48.162 -36.673)" fill="#4887fc"/>
          <g id="Grupo_1180317" data-name="Grupo 1180317" transform="translate(120.306 146.894)" opacity="0.4" style="mix-blend-mode: multiply;isolation: isolate">
            <g id="Grupo_1180316" data-name="Grupo 1180316">
              <g id="Grupo_1180315" data-name="Grupo 1180315" clip-path="url(#clip-path-4)">
                <path id="Trazado_1043116" data-name="Trazado 1043116" d="M275.118,251.83a61.227,61.227,0,0,1-99.366-11.323,59.251,59.251,0,0,1-5.7-14.547,61.491,61.491,0,0,1-1.527-8.833q3.909,2.306,8.182,4.987c60.382,37.929,101.206-1.322,113.725-16.339a61.072,61.072,0,0,1-15.318,46.055" transform="translate(-168.529 -205.775)" fill="#4887fc"/>
              </g>
            </g>
          </g>
          <g id="Grupo_1180323" data-name="Grupo 1180323" transform="translate(120.293 95.548)" opacity="0.7">
            <g id="Grupo_1180322" data-name="Grupo 1180322">
              <g id="Grupo_1180321" data-name="Grupo 1180321" clip-path="url(#clip-path-5)">
                <g id="Grupo_1180320" data-name="Grupo 1180320" style="mix-blend-mode: multiply;isolation: isolate">
                  <g id="Grupo_1180319" data-name="Grupo 1180319">
                    <g id="Grupo_1180318" data-name="Grupo 1180318" clip-path="url(#clip-path-5)">
                      <path id="Trazado_1043117" data-name="Trazado 1043117" d="M308.2,185.283c-.024-.166-.048-.332-.071-.5q-.047-.362-.107-.724c-.047-.317-.1-.637-.154-.954-.064-.376-.131-.756-.2-1.131-.083-.431-.166-.855-.257-1.282l-.024-.107c-.048-.226-.095-.447-.146-.669-.107-.467-.213-.934-.333-1.393-.044-.182-.087-.36-.134-.534-.131-.506-.269-1.005-.412-1.5-.131-.447-.265-.894-.4-1.337-.087-.293-.182-.578-.277-.863-.118-.376-.249-.747-.38-1.119-.079-.218-.154-.435-.233-.653s-.162-.435-.241-.652-.163-.428-.246-.641c-.21-.535-.423-1.069-.649-1.595-.186-.447-.38-.887-.582-1.326-.071-.162-.142-.328-.221-.49-.2-.435-.4-.867-.617-1.3q-.374-.766-.772-1.52c-.265-.5-.534-1-.815-1.5a61.035,61.035,0,0,0-7.32-10.355c-.368-.423-.748-.843-1.128-1.254s-.772-.823-1.163-1.223c-.2-.2-.4-.4-.6-.6q-.594-.6-1.207-1.176c-.293-.273-.585-.546-.882-.811-.134-.126-.273-.249-.411-.368-.261-.238-.527-.467-.792-.692-.083-.076-.166-.146-.253-.218-.316-.273-.641-.538-.965-.8-.261-.214-.523-.424-.792-.63-.214-.174-.431-.34-.649-.506-.289-.222-.582-.44-.875-.657s-.565-.412-.851-.614a1.682,1.682,0,0,1-1.4.594.223.223,0,0,0-.163.091c-.114.115-.233.321-.356.459-.126-.218-.233-.391-.372-.625-.74.752-1.93.617-2.935.652-.076.269-.123.431-.178.625-.6-.3-1.088-.534-1.622-.792.356-.134.621-.233.878-.328-.375-.957-1.234-.724-2.188-.7.246.2.372.3.5.408l-.316.273a7.47,7.47,0,0,1,.581.8,5.744,5.744,0,0,0-1.82.293c-.024-.55-.043-.989-.059-1.3-1.67-.851-4.123-.428-5.065-.8a6.151,6.151,0,0,1-2.049-.839c-.174-.151-.807.4-1.25,0-.032-.028-.415.162-.649.218a16.652,16.652,0,0,1-2.691.6c-.993.071-1.879.677-2.742.677-.221,0-.859.66-.364.922-1.092,1.773-3.24,2.414-5.635,3,.629.336-.906.609-.039,1.017a5.88,5.88,0,0,0-.53,1.433c.107.946,2.611.637,4,.091.309.633.586,1.2.847,1.745-.25.206-.412.336-.7.577-.241-.554-.455-1.049-.665-1.523-.53.289-1.492.641-1.6.874a7.206,7.206,0,0,0,.423,1.99c-.9.213-1.7.4-2.694.641a7.707,7.707,0,0,1-2.782,1.808c-.368.879-1.326.871-1.967,1.294-.226-.2-.372-.328-.577-.515-.143.443-.265.839-.4,1.286-.246-.2-.4-.321-.577-.471-.487.221-.969.447-1.4.649.68.633,1.361,1.266,1.9,1.769a12.488,12.488,0,0,1-.2,2.544c-.384.352-4.254-1.041-6.011.368.618,1.488.032,2.833-.858,4.1a8.351,8.351,0,0,0,.5,1.9c.586.372,2.513,2.164.692,3.217a7.083,7.083,0,0,0-2.56,3c.166.213.515.558.5.649-.119.74-5.718,5.607-6.984,8.934.6,2.4,1.341,4.879-.3,6.944.056.372.091.764.123,1.148a5.921,5.921,0,0,0,.336,1.852c.605,1.226,2.354,2.92,3.09,4.539.079.17.221.467.388.542,1.836.843,3.506,4.57,5.6,2.785a2.124,2.124,0,0,1,2.437-.316c2.065,1.476,3.162-1.808,6.937-1.037.447.724.811,1.3,1.2,1.935l2.516.012a8.582,8.582,0,0,1,.989,1.733c.321,3.224,2.149,9.5,3.545,13.393a.3.3,0,0,1,.02.048,1.5,1.5,0,0,1-.166,1.124c-2.314,2.774-.206,6.244.982,8.4.573,1.037.249,3.225,1.191,4.1.958.89,1.282,2.16,2.208,3.055.1.1-.174.408-.285.649a8.889,8.889,0,0,0,1.294,1.2c.926.4,3.478-.229,3.727-.241a5.412,5.412,0,0,0,1.78-.388,17.089,17.089,0,0,0,3.684-3c.652-.72,1.547-1.583,1.547-2.663.775-.325,1.428-.6,2.105-.887-.083-1.175.431-2.457-.3-3.632.638-.681,1.9-.732,2.1-1.785a.454.454,0,0,1,.313-.269c1.531-.028,2.085-1.274,2.983-1.84.083-1.511.495-3.439.213-4.2-.13-.345-.961-.72-.807-1.436.059-.289-.246-.618-.241-.934.008-.344.375-.815.249-1.021a1.68,1.68,0,0,1,.1-2.2c.562-.685.277-1.84,1.044-2.339a6.369,6.369,0,0,0,1.523-1.519,13.746,13.746,0,0,1,2.454-2.913c3.157-2.291,6.086-10.232,5.357-10.81-.213-.17-7.285,3.462-6.66-.2,2.98-1.282,6.082-2.153,8.488-4.6h1.286c.372-.285.135-1.206.942-1.009,1.57-1.286,3.145-4.3,3.09-5.1-.044-.586-3.913-1.461-3.344-3.487,2.35.685,7.091.368,7.759.443.72.084,3.229,3.347,4.408,5.263.269-.15.613-.364.922-.55-.028-.233-.059-.463-.087-.7m-31.944-25.3c.011.408.024.72.036,1.155-.633,0-1.175,0-2.109-.008.887-.49,1.433-.791,2.074-1.147m-3.039-14.253c.008.273.02.523.031.946-.408-.123-.732-.213-1.08-.317-.19.151-.428.341-.744.59-.182-.415-.352-.8-.542-1.222.72,0,1.5,0,2.334,0m-2.192,15.175c.629,0,1.183,0,1.836,0-.2.2-.3.3-.463.451.511.352,1.029.712,1.563,1.088a4.676,4.676,0,0,1,.744-.732c.938-.5,2.726.665,4.1,1.425.241.134.467.253.677.352.55.258.752.843.478,1.607-.665-.064-1.341-.016-2.017-.036a4.573,4.573,0,0,1-2.548-.7c-.57-.38-1.571-.166-2.315-.218-.328.316-.593.566-.894.859a3.24,3.24,0,0,1-3.075-1.12c.66-1.029,1.31-2.034,1.919-2.98M258.8,152.829c.776-.36,1.492-.692,2.22-1.029-.221-.3-.352-.483-.538-.74.487-.431.966-.854,1.559-1.373-.289-.182-.558-.348-.9-.558.011-.25.028-.582.051-1.017.843-.605,1.773-1.262,2.96-2.089h1.516c-1.041.645-2.572,1.338-2.7,1.7-.206.6,2.6,2,2.6,2.038a29.161,29.161,0,0,0-2.963,3.925c-.871.024-1.369-.823-2.287-.173-.328.233-1.259.858-1.931.059l.411-.74m-13.67,16.943c.641-.708,1.314-1.452,2.018-2.224-.028-.04-.166-.261-.286-.448.657-1.586,2.382-1.863,3.281-3.022a8.128,8.128,0,0,1-.554-.63,44.644,44.644,0,0,1,5.255-1.064c.573.036,1.116,2.738,3.13,2.695.633.685,1.278,1.433,1.923,2.157-.1.095-.317.313-.618.613a16.522,16.522,0,0,0-2.659.016,21.461,21.461,0,0,0,2.782,1.923c-.075-1.428,1.393-1.816,1.551-3.019-.119-.182-.257-.408-.582-.918a8.659,8.659,0,0,0,1.357.487c.222-.135-4.689-4.654-4.115-4.99.186-.111,2.346,2.41,3.9,2.469.237.008.8.574.787.8-.107,1.725,1.729,3.106,2.548,4.97.217,0,.578,0,1.013,0,.063-.427.131-.85.2-1.3l1.112.6-1.63-2.794c.665-.229,1.357-.47,2.2-.763,0,1.06,0,1.879-.008,2.683a3.424,3.424,0,0,1,2.161,2.049c.613-.712,1.381.582,1.88-.056.772-.989,1.278.388,1.982.131a7.957,7.957,0,0,1,1.511-.344c.233-.036.475-.075.724-.126.253,1.693.163,4.736-.534,5.176-.585.372-2.306.427-4.21.186a17.326,17.326,0,0,1-3.984-.949,5.609,5.609,0,0,0-3.688-.554c-.171.605-.388,1.381-.657,2.334-1.3-.858-3.082-.76-4.02-2.386-.669,0-1.337,0-1.927.008-.558-.582-1.037-1.08-1.389-1.448.123-.962.566-2.521.368-2.821a2.536,2.536,0,0,0-1.461-.392c-2.9,1.338-5.892-.332-9.5,2.39a3.816,3.816,0,0,0-2.354-.451c.661-1.3,1.623-.847,2.5-.973M275.7,207.715c.879,1.049-.044,1.705-.249,2.489-.47,0-1.077.111-1.215,0-.355-.277.669-1.693,1.464-2.493m8.349-12.979s-1.749-2.208-2.509-2.972c-.942-.942-.966-3.189-2.533-3.478.471-3.035-1.673-3.96-2.184-6.176-.226-.977-1.627-2.8-1.528-3.237.186-.831,3.585,3.489,3.969,3.751a2.625,2.625,0,0,1,.66,1.912,2.09,2.09,0,0,0,.708,1.844c1.2.914,3.13,3.668,3.031,5.3a17.134,17.134,0,0,0,.384,3.058m.087-32.945c2.022-1.987,2.508-2.121,4.305-1.061a22.71,22.71,0,0,0-2.568,1.341s1.239.554,1.243.72c.008.633.526.562.835.756,1.535.965.538,3.478,2.568,4.1.019.51.044,1.021.067,1.583a3.894,3.894,0,0,1-3.629-1.128c.044-.7.091-1.519.151-2.5a9.409,9.409,0,0,1-2.972-3.806m8.543,20.758a5.313,5.313,0,0,1-1.539-.008c-.289-.2.17-1.919-.926-2.287a4.8,4.8,0,0,1-.309.835c-.019,0-.281-.163-.281-.21.221-1.69-2.343-2.429-1.919-4.412a1.266,1.266,0,0,1,1.835.82c.745,1.832,4.23,2.445,5.231,2.382.364-.024-1.693,2.18-2.093,2.88" transform="translate(-186.434 -136.288)" fill="#4887fc"/>
                      <path id="Trazado_1043118" data-name="Trazado 1043118" d="M188.829,150.21c.356-.143.831-.214.974-.38.182-.218.134-.6-.028-1.037-.226.194-.451.388-.673.586l-.665.593c-.657.6-1.306,1.215-1.939,1.844s-1.246,1.262-1.852,1.915c0,0,0,0,0,.008.016,0,.031,0,.047,0,.115.55.226,1.049.368,1.71.368.118.918.3,1.476.479l.807-.7c.095.106.186.209.483.546.182-1.176.3-1.907.435-2.656.221.1.411.186.637.293a15.057,15.057,0,0,0,1.817-1.626c-.661-.55-1.259-1.049-1.884-1.57m10.782,63.733c-.463-.016-.858-.032-1.143-.044a18.385,18.385,0,0,0-2.406-2.216c-1.194-.495-3.383-.764-4.93-1.995-.862-.685-2.137-.708-2.9-1.713a2.882,2.882,0,0,0,.316-.594c.064-2.267-3.2-4.048-5.46-5.14-.57-.273-.783-1.638-1.5-1.9-.859-.321-.859-1.705-1.65-2.271a2.254,2.254,0,0,0-1.907.384c-.543-.72-1.223-.34-1.82-.534-.079-.261-.158-.515-.261-.847-.443-.008-.907-.016-1.341-.027-.091-.333-.162-.586-.253-.918-.9.53-1.753,1.041-2.521,1.5-.288.72-.554,1.381-.815,2.038-.546-.4-.949-.748-1.368-1-.586-.353-.7.819-1.124.807a.283.283,0,0,0-.016-.024c.031.479.071.962.115,1.436,0,.059.012.115.016.174.115.079.23.146.344.21.016-.044.032-.091.048-.143.218-.649.431-1.634.613-1.527a6.011,6.011,0,0,1,.946,2.457c.019.316-.044.566-.25.669.452.483.293,1.144.333,1.8-.57.448-.823,1.358-1.278,1.963.063.336.126.672.193,1.009.107.526.222,1.049.34,1.571.008.044.02.087.032.13.067.3.138.6.213.894.067.269.134.543.206.811q.166.63.344,1.259c.044.143.084.285.127.431.031.111.067.222.1.328q.345,1.14.728,2.267c.087.25.174.5.265.748.076.218.155.435.238.649q.7,1.9,1.528,3.731a.524.524,0,0,0,.027.067l0,0c.039.044.083.087.123.126a12.972,12.972,0,0,0,2.667,2.164,5.486,5.486,0,0,1,2.7,3.411,55.729,55.729,0,0,0,2.789,7.427c.016.04.036.076.051.115.071.162.151.333.222.515,0,0,0,.011.008.016.131.158.261.316.4.47.787.942,1.607,1.856,2.449,2.746.206.218.415.439.629.653.281.288.566.578.855.859.226.225.455.447.685.665.285.273.573.542.862.811.585.542,1.183,1.069,1.793,1.587.241.206.49.411.74.617.285.238.578.475.87.7.2.162.4.317.6.471.166.131.337.261.5.388q.831.629,1.678,1.226a2.23,2.23,0,0,1,.193-.783c-.49-.163-.938-.317-1.4-.479-.218-.075-.435-.154-.665-.233-.051-.119-.111-.257-.162-.384-.028-.067-.056-.131-.079-.186.253-.044.388-.067.562-.1-.459-.562-.495-1.013-.087-1.326.036-.028-.079-.166-.15-.3-.376-.083-.756-.166-1.171-.261-.02-.193-.031-.313-.044-.439.257.134.475.249.61.316.949-.1.253-.8.146-1.3,1.357.111,2.39-.372,2.01-1.33-.143-.364-1.179-.542-1.041-1.167l1.523.131c.047-.78.886-1.2.131-2.354,1.452.118.233-1.511,1.175-1.666-.328-.965-1.037-2.465-.9-2.8a5.57,5.57,0,0,1,2.711-1.3,1.222,1.222,0,0,0,1.243-1.254c.138-1.741-.7-4.954-.692-6.066a10.077,10.077,0,0,1,1.871-3.938,1.443,1.443,0,0,0,.333-.791,8.388,8.388,0,0,0-.871-3.4m-1.068,33.7a7.794,7.794,0,0,1-.87-.1c.261.163.522.321.787.479h0a.964.964,0,0,0,.328-.237.827.827,0,0,0,.095-.131c-.115,0-.229,0-.344-.012" transform="translate(-168.51 -138.124)" fill="#4887fc"/>
                      <path id="Trazado_1043119" data-name="Trazado 1043119" d="M224.3,135.281c-.554-.657-2.838.233-2.948.079-.04-.051-.949-1.5-1.958-1.5a7.442,7.442,0,0,0-2.069.126l-.04.012a3.384,3.384,0,0,0-.669.265,0,0,0,0,1,0,0s0,0,0,0a3.406,3.406,0,0,0-.463.3c-.1,0-.2.008-.3.016-.234.1-.463.2-.692.3q-.695.3-1.377.621-1.359.635-2.691,1.337l-.662.356q-.635.345-1.259.7a.2.2,0,0,1-.051.032q-1.948,1.128-3.8,2.386a.478.478,0,0,1,.316.151c.146.178.5.685.3.929-.391.507.06.859-.428,1.282-.64.554-.443,1.207-.582,1.472s-.466.732-.767,1.191c.574-.052.969-.087,1.654-.146-.692.4-1.108.648-1.559.917-.213.622-.443,1.3-.645,1.923.578,1.191.285,2.9,1.184,4.068,1.171-.72,1.777,1.045,2.417.38.732-.756,1.737-3.913,3.355-4.444,2.6-.851,1.516-1.785,4.412-2.691a7.764,7.764,0,0,0,3.541-2.228c.478-.55.158-.827.174-1.211A1.861,1.861,0,0,1,219,141a7.314,7.314,0,0,1,1.48-1.528c.166-.142.17-.486.246-.72.225-.068.446-.135.869-.258-.273-.408-.759-.949-.739-1.1.039-.344,2.413-1.452,3.442-2.113" transform="translate(-178.551 -133.848)" fill="#4887fc"/>
                      <path id="Trazado_1043120" data-name="Trazado 1043120" d="M303.344,261.527c-.211-.563.373-1.256-.253-1.825-.145-.131.069-.687.282-.954.977-1.228.612-3.729,1.231-4.34a26.866,26.866,0,0,1,4.911-3.528c.394-.086,1.033,2.331,1,2.839-.022.341-1.072,1.231-1.192,1.961a14.224,14.224,0,0,1-3.144,5.464,9.671,9.671,0,0,1-1.87.782l-.965-.4" transform="translate(-207.005 -167.335)" fill="#4887fc"/>
                      <path id="Trazado_1043121" data-name="Trazado 1043121" d="M253.607,159.282c-.383-.281-.78.575-1.384.232-.832-.473-3.347.563-3.349.551a13.109,13.109,0,0,1,1.084-2.406c.043-.073-.228-.266-.406-.461l1.5-.262-1.616-1.041c-.089.714-.169,1.391-.238,2a3.772,3.772,0,0,1-3.021.719c.5-2.382.914-2.808,2.675-3.053.067-.516.138-1.042.225-1.665l-.752-1.024c.935-.237,1.972-.71,2.376-.167s1.259.632,1.416,1.355c-.166.217-.353.463-.612.806.852.9,1.735,1.837,2.7,2.862-.162.415-.388,1-.6,1.553" transform="translate(-190.734 -139.172)" fill="#4887fc"/>
                      <path id="Trazado_1043122" data-name="Trazado 1043122" d="M269.66,135.022l1.538,0c.8-.757,2.731-.7,4.591.116-.52.489-.529.5-2.421.364.684.365,1.259.681,1.824,1-1.062.477-1.091.443-2.24-.6-.583.368-1.147,1.25-1.3,1.316a8.3,8.3,0,0,1-1.669-.521c0-.089.007-.267.013-.447-1.348-.5-1.35-.58-.338-1.224" transform="translate(-197.247 -134.031)" fill="#4887fc"/>
                      <path id="Trazado_1043123" data-name="Trazado 1043123" d="M300.983,142.305a4.807,4.807,0,0,1-.534-.067,14.642,14.642,0,0,1-2.157-.649,4.012,4.012,0,0,0,.605-.633c.32.2.641.4.957.6.059.036.115.076.174.111.123.083.246.162.368.245.2.127.391.261.585.392" transform="translate(-205.646 -135.882)" fill="#4887fc"/>
                      <path id="Trazado_1043124" data-name="Trazado 1043124" d="M228.152,150.577c-.079.323-.159.662-.232.976-.745.454-1.485.913-2.244,1.391-.742-.143-1.438-.229-2.168-.337-.023-.172-.049-.37-.078-.595-.2.151-.359.273-.532.4-.108-.37-.213-.737-.328-1.148.291-.235.553-.444.8-.64.7.454,1.634-.342,2.234-.111.393-.311.675-.515.9-.673l1.647.733" transform="translate(-183.979 -138.425)" fill="#4887fc"/>
                      <path id="Trazado_1043125" data-name="Trazado 1043125" d="M173.307,204.012c-.894,1-.926,1.009-2.066.93.1-.182.171-.321.3-.558-.791-.36-1.665-1.824-2.477-2.125.044-.328.087-.657.135-.981l.862-.024c1.1.942,2.172,1.852,3.249,2.758" transform="translate(-168.668 -153.136)" fill="#4887fc"/>
                      <path id="Trazado_1043126" data-name="Trazado 1043126" d="M175.7,206.521c-.16-.4-.273-.685-.419-1.054l2.082-.024c.342.48,1.007.89.72,2-.931-.675-1.369-.29-1.369-.29a3.442,3.442,0,0,0-1.6-.011c-.124.044-.339.509-.438.236a2.988,2.988,0,0,1-.021-.55l1.049-.306" transform="translate(-170.268 -154.334)" fill="#4887fc"/>
                      <path id="Trazado_1043127" data-name="Trazado 1043127" d="M290.745,136.592c-.162.075-.336.151-.518.233-.352-.1-.775-.221-1.4-.4l1.029-.258h0c.3.138.59.277.882.42" transform="translate(-202.938 -134.513)" fill="#4887fc"/>
                      <path id="Trazado_1043128" data-name="Trazado 1043128" d="M297.855,144.388l-1.573-.006c0-.315,0-.58.006-.971.686.274,1.193.478,1.7.685l-.136.292" transform="translate(-205.071 -136.584)" fill="#4887fc"/>
                      <path id="Trazado_1043129" data-name="Trazado 1043129" d="M213.632,285.745c-.341.32-.341.32-1.735.22.338-.324.338-.324,1.735-.22" transform="translate(-180.925 -177.294)" fill="#4887fc"/>
                      <path id="Trazado_1043130" data-name="Trazado 1043130" d="M262.641,175.657a9.584,9.584,0,0,1,.316-3.381,7.237,7.237,0,0,1,.922-.6,1.021,1.021,0,0,1-.231,1.584c.985.78-.119,2.6-.57,2.637-.073.006-.291-.158-.436-.238" transform="translate(-195.434 -144.672)" fill="#4887fc"/>
                      <path id="Trazado_1043131" data-name="Trazado 1043131" d="M280.017,181.914c.875.114,1.876-.525,2.591.548-1.153.379-1.156.377-2.591-.548" transform="translate(-200.417 -147.577)" fill="#4887fc"/>
                      <path id="Trazado_1043132" data-name="Trazado 1043132" d="M290.281,182.543c.49-.66,1.019-.918,1.727-.533.455,1.125-.953.606-1.055,1.283l-.672-.75" transform="translate(-203.353 -147.578)" fill="#4887fc"/>
                    </g>
                  </g>
                </g>
              </g>
            </g>
          </g>
          <g id="Grupo_1180326" data-name="Grupo 1180326" transform="translate(121.693 91.489)" opacity="0.45" style="mix-blend-mode: screen;isolation: isolate">
            <g id="Grupo_1180325" data-name="Grupo 1180325">
              <g id="Grupo_1180324" data-name="Grupo 1180324" clip-path="url(#clip-path-7)">
                <path id="Trazado_1043133" data-name="Trazado 1043133" d="M264.365,144.584a37.433,37.433,0,0,1-2.928,14.49q-.4.973-.862,1.923a41.515,41.515,0,0,1-2.671,4.716c-.174.269-.353.535-.538.8-.281.412-.574.823-.871,1.227-.815,1.1-1.69,2.176-2.611,3.212-9.168,10.285-23.555,17.24-39.973,18.261-1.381.087-2.781.131-4.19.131-15.4,0-29.316-5.219-39.248-13.62a59.276,59.276,0,0,1,4.341-12.515,61.149,61.149,0,0,1,10.39-15.369s0,0,0-.008c.6-.652,1.219-1.294,1.852-1.915s1.278-1.246,1.939-1.844l.665-.593c.222-.2.448-.392.673-.585a60.785,60.785,0,0,1,7.326-5.4l.1-.064c.616-.385,1.236-.762,1.867-1.125a.23.23,0,0,0,.051-.031q.623-.357,1.259-.7l.66-.356q1.324-.707,2.691-1.338c.455-.213.914-.419,1.377-.621l.692-.3c.253-.111.507-.217.764-.316,0,0,0,0,0,0a0,0,0,0,0,0,0,3.355,3.355,0,0,1,.669-.265,60.327,60.327,0,0,1,13.276-3.538,59.706,59.706,0,0,1,9.077-.672,60.516,60.516,0,0,1,21.913,4.055q2,.766,3.925,1.662h0c.3.139.59.277.882.42a60.5,60.5,0,0,1,5.442,3l0,0c.32.2.641.4.957.6.059.036.115.076.174.111.123.075.246.154.364.237a.012.012,0,0,1,0,.008c.019.107.036.218.051.325.091.538.166,1.084.233,1.63a37.355,37.355,0,0,1,.257,4.377" transform="translate(-170.472 -128.162)" fill="#4887fc"/>
              </g>
            </g>
          </g>
          <g id="Grupo_1180329" data-name="Grupo 1180329" transform="translate(125.475 81.171)" style="mix-blend-mode: multiply;isolation: isolate">
            <g id="Grupo_1180328" data-name="Grupo 1180328">
              <g id="Grupo_1180327" data-name="Grupo 1180327" clip-path="url(#clip-path-8)">
                <path id="Trazado_1043134" data-name="Trazado 1043134" d="M262.12,159.17s-6.176-.326-16.572-7.829a27.294,27.294,0,0,0,.9-11.18c-2.169-16.919-19.7-28.612-39.156-26.118s-33.471,18.231-31.3,35.15,19.7,28.612,39.156,26.119a38.4,38.4,0,0,0,23.031-11.385c5.955.84,14.351.416,23.941-4.756" transform="translate(-175.77 -113.708)" fill="#fdda5f"/>
              </g>
            </g>
          </g>
          <path id="Trazado_1043135" data-name="Trazado 1043135" d="M264.1,151.375s-6.084-1.109-15.442-9.873a27.279,27.279,0,0,0,2.316-10.975c0-17.057-15.9-30.884-35.517-30.884S179.94,113.47,179.94,130.527s15.9,30.885,35.518,30.885a38.4,38.4,0,0,0,24.291-8.364c5.8,1.59,14.182,2.238,24.352-1.674" transform="translate(-51.488 -28.513)" fill="#fff"/>
          <path id="Trazado_1043136" data-name="Trazado 1043136" d="M213.814,99.82c-.034.415-.079.834-.142,1.255-1.635,10.781-13.007,18-25.408,16.125a24.477,24.477,0,0,1-2.935-.625c5.417-9.244,16.028-15.8,28.485-16.755" transform="translate(-53.03 -28.563)" fill="#050012"/>
        </g>
      </g>
      <text id="hello" transform="translate(-2859.29 5159.834)" fill="#212429" font-size="18" font-family="SegoeUI-Bold, Segoe UI" font-weight="700"><tspan x="0" y="0">hello</tspan></text>
      <g id="Grupo_1180333" data-name="Grupo 1180333" transform="translate(-3005 5048)">
        <g id="Grupo_1180332" data-name="Grupo 1180332" transform="translate(0 0)" clip-path="url(#clip-path-2)">
          <path id="Trazado_1043137" data-name="Trazado 1043137" d="M133.152,88.66s4.807-.876,12.2-7.8a21.56,21.56,0,0,1-1.83-8.672c0-13.477,12.564-24.4,28.063-24.4s28.063,10.926,28.063,24.4-12.565,24.4-28.063,24.4a30.34,30.34,0,0,1-19.194-6.608,30.406,30.406,0,0,1-19.241-1.323" transform="translate(-38.1 -13.674)" fill="#917aeb"/>
        </g>
      </g>
      <text id="ni_hao" data-name="ni hao" transform="translate(-2888.921 5112.345)" fill="#212429" font-size="18" font-family="SegoeUI-Bold, Segoe UI" font-weight="700"><tspan x="0" y="0">ni hao</tspan></text>
      <g id="Grupo_1180401" data-name="Grupo 1180401" transform="translate(-3005 5048)">
        <g id="Grupo_1180400" data-name="Grupo 1180400" transform="translate(0 0)" clip-path="url(#clip-path-2)">
          <path id="Trazado_1043138" data-name="Trazado 1043138" d="M309.61,117.47a11.3,11.3,0,0,0-8.673,4.478c-1.36,1.755-2.228,4.567-.835,6.289a8.756,8.756,0,0,0-5.5,4.748,10.586,10.586,0,0,0-.447,7.755,2.31,2.31,0,0,0,.859,1.312.819.819,0,0,0,1.215-.477c-1.595-.464-4.706.468-6,1.605A6.4,6.4,0,0,0,288.173,148a3.294,3.294,0,0,0,1.356,2.907,6.539,6.539,0,0,0,.991,6.88,4.937,4.937,0,0,0,6.178.911c.021.238.465,4.578,4.1,6.375a8.061,8.061,0,0,0,9.823-2.74,16.55,16.55,0,0,0,9.954,8.906,16.254,16.254,0,0,0,16.038-4.275c.291,2.923,1.491,5.692,4.093,6.126a6.1,6.1,0,0,0,6.411-3.989c2.26,3.534,6.837,3.942,9.083,1.876,1.909-1.755,2.228-5.384.1-8.1,2.326-1.244,4.716-2.3,4.729-5.183a8.043,8.043,0,0,0-3.863-6.973,7.052,7.052,0,0,0,2.683-6.475,6.555,6.555,0,0,0-4.175-5.4,11.061,11.061,0,0,0,1.431-9c-.551-1.969-1.812-2.7-5.767-6.484-5.844-5.584-5.15-5.615-7.189-7.129a26.105,26.105,0,0,0-12.6-4.7c-11.107-1.4-19.656,4.312-21.931,5.941" transform="translate(-82.457 -31.851)" fill="#992b1e"/>
          <g id="Grupo_1180336" data-name="Grupo 1180336" transform="translate(218.658 71.21)" style="mix-blend-mode: screen;isolation: isolate">
            <g id="Grupo_1180335" data-name="Grupo 1180335">
              <g id="Grupo_1180334" data-name="Grupo 1180334" clip-path="url(#clip-path-11)">
                <path id="Trazado_1043139" data-name="Trazado 1043139" d="M306.311,99.8c.012-.017.018-.028.03-.045-.035.017-.047.034-.03.045" transform="translate(-306.303 -99.755)" fill="#050012"/>
              </g>
            </g>
          </g>
          <path id="Trazado_1043140" data-name="Trazado 1043140" d="M307.2,141.642a13.217,13.217,0,0,0-.061-6.793c-.775-2.708-2.489-5.012-6.276-1.4-6.732,6.421-.333,14.95,5.238,12.649Z" transform="translate(-85.261 -37.654)" fill="#f29e79"/>
          <g id="Grupo_1180339" data-name="Grupo 1180339" transform="translate(216.218 98.17)" style="mix-blend-mode: multiply;isolation: isolate">
            <g id="Grupo_1180338" data-name="Grupo 1180338">
              <g id="Grupo_1180337" data-name="Grupo 1180337" clip-path="url(#clip-path-12)">
                <path id="Trazado_1043141" data-name="Trazado 1043141" d="M303.2,137.641a3.3,3.3,0,0,1,3.245.9,3.125,3.125,0,0,1,.631,3.222,3.263,3.263,0,0,1-1.2,1.573.449.449,0,0,1-.608-.158.455.455,0,0,1,.158-.608,2.393,2.393,0,0,0,.871-2.561.322.322,0,0,1-.153.027,2.7,2.7,0,0,0-.395-.013c-.063,0-.125.007-.188.014l-.043.006-.086.015a3.057,3.057,0,0,0-.363.1c-.06.02-.118.044-.177.066.091-.034-.023.011-.034.016l-.085.041a3.02,3.02,0,0,0-.325.191c-.026.017-.052.035-.078.054l-.057.044c-.039.032-.078.064-.115.1a2.752,2.752,0,0,0-.261.271c-.019.023-.038.046-.056.069-.006.007-.013.016-.021.029-.04.056-.076.115-.112.174a.444.444,0,1,1-.774-.435,3.4,3.4,0,0,1,2.808-1.63,2.408,2.408,0,0,0-2.343-.642.444.444,0,0,1-.24-.854" transform="translate(-302.885 -137.521)" fill="#e66239"/>
              </g>
            </g>
          </g>
          <path id="Trazado_1043142" data-name="Trazado 1043142" d="M345.309,153.462c-9.426,5.946-19.239,3.406-24.85,1.955-3.135-.814-12.836-3.323-15.357-10.175-.18-.491-.283-.9-.4-1.348a16.072,16.072,0,0,1-.485-3.429,24.493,24.493,0,0,1,.271-4.293,40.448,40.448,0,0,1,1.326-5.9c.082-.279.163-.559.25-.832.458-1.462.957-2.831,1.476-4.1.607-1.494,1.246-2.86,1.871-4.095a43.535,43.535,0,0,1,5.032-7.822,29.25,29.25,0,0,1,3.717-3.847,15.637,15.637,0,0,1,1.975-1.433,24.271,24.271,0,0,1,8.6-2.969,12.024,12.024,0,0,1,3.138-.168c16.258.715,23.327,8.391,25.285,18.107a32.754,32.754,0,0,1,.58,7.318c0,.1-.009.228-.012.4-.14,2.891-1.353,15.664-12.413,22.634" transform="translate(-87.045 -30.037)" fill="#f29e79"/>
          <path id="Trazado_1043143" data-name="Trazado 1043143" d="M338.009,105.848a50.749,50.749,0,0,1-4.276,5.016c-.191.2-.383.4-.592.591a48.961,48.961,0,0,1-4.964,4.368,52.019,52.019,0,0,1-20.992,9.748,20.894,20.894,0,0,1,1.965-11.151A19.373,19.373,0,0,1,310.7,111.8a21.186,21.186,0,0,1,5.243-5.283,19.743,19.743,0,0,1,20.668-1.45c.546.276,1.019.546,1.4.776" transform="translate(-87.87 -29.421)" fill="#992b1e"/>
          <path id="Trazado_1043144" data-name="Trazado 1043144" d="M373.109,130.633c0,.153-.009.31-.021.458a17.364,17.364,0,0,1-2.5,8.893c-1.757,2.755-2.92,4.05-6.183,4.333a41.074,41.074,0,0,1-18.654-24.53,39.9,39.9,0,0,1-1.284-7.061c-.032-.332-.056-.668-.079-1a38.5,38.5,0,0,1,.049-5.488c.947-.135,1.9-.24,2.826-.3,6.323-.482,12.213.563,17.079,4.868a25.655,25.655,0,0,1,5.452,6.836,26.145,26.145,0,0,1,3.319,13" transform="translate(-98.52 -30.281)" fill="#992b1e"/>
          <path id="Trazado_1043145" data-name="Trazado 1043145" d="M332.545,137.171c-.307.947.124,1.926-.146,2.865a1.011,1.011,0,0,1-.9.833,1.822,1.822,0,0,0-1.162.315,1.57,1.57,0,0,0-.136,1.948c.545.858,1.7.993,2.624,1.075a.271.271,0,0,0,.039-.54c-.8-.071-2.015-.163-2.326-1.069a1.042,1.042,0,0,1,.081-.924c.237-.32.681-.239,1.029-.278a1.606,1.606,0,0,0,1.32-1.419c.173-.869-.188-1.77.089-2.625.108-.331-.4-.513-.51-.181" transform="translate(-94.405 -39.2)" fill="#dd541d"/>
          <path id="Trazado_1043146" data-name="Trazado 1043146" d="M325.41,136.01c-.337.176-1.06-1.938-3.17-2.607-1.94-.614-3.566.462-3.7.159-.176-.4,2.313-3.055,4.664-2.218s2.618,4.452,2.206,4.666" transform="translate(-91.144 -37.537)" fill="#050012"/>
          <path id="Trazado_1043147" data-name="Trazado 1043147" d="M352.608,143.668c-.336.176-1.059-1.939-3.17-2.608-1.94-.614-3.566.462-3.7.159-.177-.4,2.312-3.054,4.664-2.218s2.618,4.452,2.205,4.667" transform="translate(-98.927 -39.728)" fill="#050012"/>
          <path id="Trazado_1043148" data-name="Trazado 1043148" d="M341.569,153.349c-.215.131-.421.257-.631.375-16.437,9.63-23.752-5.008-23.752-5.008.337.068.7.136,1.094.2Z" transform="translate(-90.759 -42.554)" fill="#e66239"/>
          <path id="Trazado_1043149" data-name="Trazado 1043149" d="M341.569,153.349c-.215.131-.421.257-.631.375-.021,0-.038.007-.059.007-17.807,1.945-23.694-5.016-23.694-5.016.337.068.7.136,1.094.2Z" transform="translate(-90.759 -42.554)" fill="#fff7e6"/>
          <path id="Trazado_1043150" data-name="Trazado 1043150" d="M363.923,162.3a13.21,13.21,0,0,1,3.676-5.713c2.1-1.876,4.779-2.91,6.054,2.165,2.266,9.023-7.7,12.821-11.18,7.9Z" transform="translate(-103.718 -44.365)" fill="#f29e79"/>
          <g id="Grupo_1180342" data-name="Grupo 1180342" transform="translate(262.265 114.93)" style="mix-blend-mode: multiply;isolation: isolate">
            <g id="Grupo_1180341" data-name="Grupo 1180341">
              <g id="Grupo_1180340" data-name="Grupo 1180340" clip-path="url(#clip-path-13)">
                <path id="Trazado_1043151" data-name="Trazado 1043151" d="M372.943,162.069a3.3,3.3,0,0,0-3.224-.972,3.123,3.123,0,0,0-2.253,2.388,3.266,3.266,0,0,0,.177,1.971.448.448,0,0,0,.6.19.453.453,0,0,0,.191-.6,2.4,2.4,0,0,1,.63-2.631.315.315,0,0,0,.116.1,2.857,2.857,0,0,1,.341.2c.051.036.1.073.151.112l.034.027c.021.019.044.039.064.059a2.929,2.929,0,0,1,.256.276c.04.049.077.1.115.15-.059-.078.014.021.02.031.017.026.034.053.05.08a2.906,2.906,0,0,1,.173.334c.013.029.025.058.037.086,0,.009.024.068.024.068.016.049.031.1.045.145a2.693,2.693,0,0,1,.076.368c0,.03.007.059.011.089l0,.036c0,.069,0,.138,0,.207a.444.444,0,0,0,.887.046,3.4,3.4,0,0,0-1.506-2.878,2.408,2.408,0,0,1,2.324.707.444.444,0,0,0,.659-.595" transform="translate(-367.39 -160.999)" fill="#e66239"/>
              </g>
            </g>
          </g>
          <g id="Grupo_1180384" data-name="Grupo 1180384" transform="translate(222.766 97.197)" opacity="0.38">
            <g id="Grupo_1180383" data-name="Grupo 1180383">
              <g id="Grupo_1180382" data-name="Grupo 1180382" clip-path="url(#clip-path-14)">
                <g id="Grupo_1180345" data-name="Grupo 1180345" style="mix-blend-mode: multiply;isolation: isolate">
                  <g id="Grupo_1180344" data-name="Grupo 1180344">
                    <g id="Grupo_1180343" data-name="Grupo 1180343" clip-path="url(#clip-path-15)">
                      <path id="Trazado_1043152" data-name="Trazado 1043152" d="M312.552,136.451a.249.249,0,1,1-.2-.288.249.249,0,0,1,.2.288" transform="translate(-312.058 -136.158)" fill="#dd541d"/>
                    </g>
                  </g>
                </g>
                <g id="Grupo_1180348" data-name="Grupo 1180348" transform="translate(16.239 3.888)" style="mix-blend-mode: multiply;isolation: isolate">
                  <g id="Grupo_1180347" data-name="Grupo 1180347">
                    <g id="Grupo_1180346" data-name="Grupo 1180346" clip-path="url(#clip-path-15)">
                      <path id="Trazado_1043153" data-name="Trazado 1043153" d="M335.3,141.9a.249.249,0,1,1-.2-.288.249.249,0,0,1,.2.288" transform="translate(-334.806 -141.604)" fill="#dd541d"/>
                    </g>
                  </g>
                </g>
                <g id="Grupo_1180351" data-name="Grupo 1180351" transform="translate(8.345 4.869)" style="mix-blend-mode: multiply;isolation: isolate">
                  <g id="Grupo_1180350" data-name="Grupo 1180350">
                    <g id="Grupo_1180349" data-name="Grupo 1180349" clip-path="url(#clip-path-15)">
                      <path id="Trazado_1043154" data-name="Trazado 1043154" d="M324.242,143.272a.249.249,0,1,1-.2-.288.248.248,0,0,1,.2.288" transform="translate(-323.748 -142.979)" fill="#dd541d"/>
                    </g>
                  </g>
                </g>
                <g id="Grupo_1180354" data-name="Grupo 1180354" transform="translate(5.558 3.586)" style="mix-blend-mode: multiply;isolation: isolate">
                  <g id="Grupo_1180353" data-name="Grupo 1180353">
                    <g id="Grupo_1180352" data-name="Grupo 1180352" clip-path="url(#clip-path-15)">
                      <path id="Trazado_1043155" data-name="Trazado 1043155" d="M320.339,141.475a.249.249,0,1,1-.2-.288.249.249,0,0,1,.2.288" transform="translate(-319.844 -141.182)" fill="#dd541d"/>
                    </g>
                  </g>
                </g>
                <g id="Grupo_1180357" data-name="Grupo 1180357" transform="translate(8.45 2.715)" style="mix-blend-mode: multiply;isolation: isolate">
                  <g id="Grupo_1180356" data-name="Grupo 1180356">
                    <g id="Grupo_1180355" data-name="Grupo 1180355" clip-path="url(#clip-path-15)">
                      <path id="Trazado_1043156" data-name="Trazado 1043156" d="M324.389,140.254a.249.249,0,1,1-.2-.288.249.249,0,0,1,.2.288" transform="translate(-323.895 -139.961)" fill="#dd541d"/>
                    </g>
                  </g>
                </g>
                <g id="Grupo_1180360" data-name="Grupo 1180360" transform="translate(2.913 1.919)" style="mix-blend-mode: multiply;isolation: isolate">
                  <g id="Grupo_1180359" data-name="Grupo 1180359">
                    <g id="Grupo_1180358" data-name="Grupo 1180358" clip-path="url(#clip-path-15)">
                      <path id="Trazado_1043157" data-name="Trazado 1043157" d="M316.634,139.139a.249.249,0,1,1-.2-.289.25.25,0,0,1,.2.289" transform="translate(-316.139 -138.846)" fill="#dd541d"/>
                    </g>
                  </g>
                </g>
                <g id="Grupo_1180363" data-name="Grupo 1180363" transform="translate(18.968 6.223)" style="mix-blend-mode: multiply;isolation: isolate">
                  <g id="Grupo_1180362" data-name="Grupo 1180362">
                    <g id="Grupo_1180361" data-name="Grupo 1180361" clip-path="url(#clip-path-15)">
                      <path id="Trazado_1043158" data-name="Trazado 1043158" d="M339.124,145.168a.249.249,0,1,1-.2-.288.25.25,0,0,1,.2.288" transform="translate(-338.629 -144.875)" fill="#dd541d"/>
                    </g>
                  </g>
                </g>
                <g id="Grupo_1180366" data-name="Grupo 1180366" transform="translate(30.806 9.821)" style="mix-blend-mode: multiply;isolation: isolate">
                  <g id="Grupo_1180365" data-name="Grupo 1180365">
                    <g id="Grupo_1180364" data-name="Grupo 1180364" clip-path="url(#clip-path-15)">
                      <path id="Trazado_1043159" data-name="Trazado 1043159" d="M355.706,150.208a.249.249,0,1,1-.2-.289.248.248,0,0,1,.2.289" transform="translate(-355.212 -149.915)" fill="#dd541d"/>
                    </g>
                  </g>
                </g>
                <g id="Grupo_1180369" data-name="Grupo 1180369" transform="translate(30.178 6.914)" style="mix-blend-mode: multiply;isolation: isolate">
                  <g id="Grupo_1180368" data-name="Grupo 1180368">
                    <g id="Grupo_1180367" data-name="Grupo 1180367" clip-path="url(#clip-path-15)">
                      <path id="Trazado_1043160" data-name="Trazado 1043160" d="M354.827,146.136a.249.249,0,1,1-.2-.289.249.249,0,0,1,.2.289" transform="translate(-354.332 -145.843)" fill="#dd541d"/>
                    </g>
                  </g>
                </g>
                <g id="Grupo_1180372" data-name="Grupo 1180372" transform="translate(19.002 3.856)" style="mix-blend-mode: multiply;isolation: isolate">
                  <g id="Grupo_1180371" data-name="Grupo 1180371">
                    <g id="Grupo_1180370" data-name="Grupo 1180370" clip-path="url(#clip-path-15)">
                      <path id="Trazado_1043161" data-name="Trazado 1043161" d="M339.171,141.852a.249.249,0,1,1-.2-.288.249.249,0,0,1,.2.288" transform="translate(-338.677 -141.559)" fill="#dd541d"/>
                    </g>
                  </g>
                </g>
                <g id="Grupo_1180375" data-name="Grupo 1180375" transform="translate(27.329 9.449)" style="mix-blend-mode: multiply;isolation: isolate">
                  <g id="Grupo_1180374" data-name="Grupo 1180374">
                    <g id="Grupo_1180373" data-name="Grupo 1180373" clip-path="url(#clip-path-15)">
                      <path id="Trazado_1043162" data-name="Trazado 1043162" d="M350.835,149.687a.249.249,0,1,1-.2-.288.249.249,0,0,1,.2.288" transform="translate(-350.341 -149.394)" fill="#dd541d"/>
                    </g>
                  </g>
                </g>
                <g id="Grupo_1180378" data-name="Grupo 1180378" transform="translate(21.767 7.533)" style="mix-blend-mode: multiply;isolation: isolate">
                  <g id="Grupo_1180377" data-name="Grupo 1180377">
                    <g id="Grupo_1180376" data-name="Grupo 1180376" clip-path="url(#clip-path-15)">
                      <path id="Trazado_1043163" data-name="Trazado 1043163" d="M343.044,147a.249.249,0,1,1-.2-.288.249.249,0,0,1,.2.288" transform="translate(-342.55 -146.71)" fill="#dd541d"/>
                    </g>
                  </g>
                </g>
                <g id="Grupo_1180381" data-name="Grupo 1180381" transform="translate(11.076 1.609)" style="mix-blend-mode: multiply;isolation: isolate">
                  <g id="Grupo_1180380" data-name="Grupo 1180380">
                    <g id="Grupo_1180379" data-name="Grupo 1180379" clip-path="url(#clip-path-15)">
                      <path id="Trazado_1043164" data-name="Trazado 1043164" d="M328.068,138.7a.249.249,0,1,1-.2-.288.249.249,0,0,1,.2.288" transform="translate(-327.574 -138.412)" fill="#dd541d"/>
                    </g>
                  </g>
                </g>
              </g>
            </g>
          </g>
          <g id="Grupo_1180387" data-name="Grupo 1180387" transform="translate(222.827 77.101)" style="mix-blend-mode: screen;isolation: isolate">
            <g id="Grupo_1180386" data-name="Grupo 1180386">
              <g id="Grupo_1180385" data-name="Grupo 1180385" clip-path="url(#clip-path-28)">
                <path id="Trazado_1043165" data-name="Trazado 1043165" d="M334.588,112.939a48.881,48.881,0,0,1-4.965,4.367c-.181-.15-.36-.291-.541-.441a13.708,13.708,0,0,1-1.613-1.605,18.94,18.94,0,0,1-8.626.573,18.147,18.147,0,0,1-1.78-.386,17.366,17.366,0,0,1-4.919-2.159,21.187,21.187,0,0,1,5.243-5.283,9.565,9.565,0,0,0,1.434,1.067,11.9,11.9,0,0,0,8.81,1.206,10.105,10.105,0,0,0,3.462-1.568,8.51,8.51,0,0,0,1.862,2.887,9.553,9.553,0,0,0,1.633,1.341" transform="translate(-312.143 -108.006)" fill="#992b1e"/>
                <path id="Trazado_1043166" data-name="Trazado 1043166" d="M373.171,133.083c0,.153-.009.31-.021.458-.46-.418-.9-.865-1.331-1.328l0-.009a22.523,22.523,0,0,1-3.511-5.118,9.225,9.225,0,0,1-8.23.5c-2.62-1.138-5.036-3.441-5.318-6.022a15.72,15.72,0,0,1-8.947.672,39.9,39.9,0,0,1-1.284-7.061,9.992,9.992,0,0,0,2.319.93,10.376,10.376,0,0,0,7.406-.934,8.187,8.187,0,0,0,1.194-.79,9.612,9.612,0,0,0,.8,1.413l0,.009a11.634,11.634,0,0,0,6.659,4.562,12.231,12.231,0,0,0,6.946-.282,26.144,26.144,0,0,1,3.319,13" transform="translate(-321.408 -109.831)" fill="#992b1e"/>
              </g>
            </g>
          </g>
          <path id="Trazado_1043167" data-name="Trazado 1043167" d="M317.529,139.22a8.164,8.164,0,1,1,9.363-6.271,7.982,7.982,0,0,1-9.363,6.271m3.225-14.493a6.7,6.7,0,1,0,4.71,7.9,6.52,6.52,0,0,0-4.71-7.9" transform="translate(-89.133 -35.23)" fill="#917aeb"/>
          <path id="Trazado_1043168" data-name="Trazado 1043168" d="M345.209,147.907a8.164,8.164,0,1,1,9.364-6.271,7.982,7.982,0,0,1-9.364,6.271m3.225-14.493a6.7,6.7,0,1,0,4.711,7.9,6.519,6.519,0,0,0-4.711-7.9" transform="translate(-97.054 -37.716)" fill="#917aeb"/>
          <path id="Trazado_1043169" data-name="Trazado 1043169" d="M337.365,141.461a.73.73,0,0,1-.468-.336,4.684,4.684,0,0,0-5.437-1.89.732.732,0,0,1-.514-1.371,6.126,6.126,0,0,1,7.2,2.5.732.732,0,0,1-.785,1.092" transform="translate(-94.561 -39.348)" fill="#917aeb"/>
          <path id="Trazado_1043170" data-name="Trazado 1043170" d="M370.251,152.6a.728.728,0,0,1-.5-.391,8.838,8.838,0,0,0-11.02-4.372.732.732,0,1,1-.512-1.371,10.3,10.3,0,0,1,12.844,5.1.731.731,0,0,1-.814,1.037" transform="translate(-102.365 -41.727)" fill="#917aeb"/>
          <path id="Trazado_1043171" data-name="Trazado 1043171" d="M175.786,206.309a13.209,13.209,0,0,1,.894-6.735c1.1-2.592,3.085-4.669,6.4-.62,5.892,7.2-1.5,14.878-6.751,11.91Z" transform="translate(-50.27 -56.278)" fill="#f29e79"/>
          <g id="Grupo_1180390" data-name="Grupo 1180390" transform="translate(127.144 144.792)" style="mix-blend-mode: multiply;isolation: isolate">
            <g id="Grupo_1180389" data-name="Grupo 1180389">
              <g id="Grupo_1180388" data-name="Grupo 1180388" clip-path="url(#clip-path-29)">
                <path id="Trazado_1043172" data-name="Trazado 1043172" d="M182.545,203.079a3.3,3.3,0,0,0-3.331.493,3.125,3.125,0,0,0-1.022,3.12,3.257,3.257,0,0,0,1,1.708.448.448,0,0,0,.622-.082.453.453,0,0,0-.083-.622,2.393,2.393,0,0,1-.55-2.648.314.314,0,0,0,.148.045,2.807,2.807,0,0,1,.393.036c.061.01.123.023.184.037l.042.01.084.026a3.068,3.068,0,0,1,.349.14c.057.027.112.058.168.087-.086-.046.021.013.031.019l.079.051a3.092,3.092,0,0,1,.3.228l.071.063.051.051c.035.037.069.074.1.112a2.707,2.707,0,0,1,.226.3c.016.025.031.05.047.076l.018.031c.032.061.061.124.089.187a.444.444,0,0,0,.822-.336,3.4,3.4,0,0,0-2.587-1.963,2.408,2.408,0,0,1,2.4-.35.444.444,0,0,0,.343-.819" transform="translate(-178.107 -202.83)" fill="#e66239"/>
              </g>
            </g>
          </g>
          <path id="Trazado_1043173" data-name="Trazado 1043173" d="M118.126,212.269c8.625,7.058,18.675,5.742,24.423,4.99,3.211-.423,13.146-1.722,16.489-8.212.238-.465.392-.863.563-1.289a16.072,16.072,0,0,0,.9-3.344,24.44,24.44,0,0,0,.257-4.295,40.405,40.405,0,0,0-.592-6.019c-.047-.288-.093-.575-.146-.856-.275-1.508-.6-2.928-.962-4.251-.42-1.558-.885-2.992-1.354-4.294a43.545,43.545,0,0,0-4.035-8.38,29.32,29.32,0,0,0-3.216-4.274,15.707,15.707,0,0,0-1.784-1.665,24.284,24.284,0,0,0-8.168-4,12.045,12.045,0,0,0-3.094-.552c-16.223-1.286-24.181,5.465-27.317,14.867a32.824,32.824,0,0,0-1.473,7.191c-.011.095-.02.228-.037.4-.216,2.886-.58,15.711,9.541,23.986" transform="translate(-31.05 -47.406)" fill="#f29e79"/>
          <path id="Trazado_1043174" data-name="Trazado 1043174" d="M135.8,173.185a37.783,37.783,0,0,1-23.3,19.751c-.817,1.693-2.695,4.182-3.512,5.875a37.515,37.515,0,0,1-3.743-10.975,25.3,25.3,0,0,1,45.234-18.95c4.282,5.689,7.581,12.1,7.6,19.216-3.425-2.746-7.421-4.672-11.136-7.013s-9.287-3.926-11.146-7.9" transform="translate(-30.045 -45.478)" fill="#050012"/>
          <path id="Trazado_1043175" data-name="Trazado 1043175" d="M153.778,198.935c.188.977-.359,1.9-.207,2.862a1.009,1.009,0,0,0,.793.937,1.823,1.823,0,0,1,1.115.455,1.57,1.57,0,0,1-.1,1.95,3.28,3.28,0,0,1-2.737.745.271.271,0,0,1,.027-.54c.8.027,2.021.084,2.441-.775a1.039,1.039,0,0,0,.033-.927c-.2-.347-.646-.321-.987-.4a1.607,1.607,0,0,1-1.136-1.571c-.065-.884.4-1.734.234-2.616-.066-.342.463-.46.528-.118" transform="translate(-43.605 -56.865)" fill="#dd541d"/>
          <path id="Trazado_1043176" data-name="Trazado 1043176" d="M159.595,198.608c.312.216,1.289-1.794,3.466-2.2,2-.372,3.481.9,3.652.612.225-.375-1.92-3.315-4.357-2.774s-3.145,4.1-2.761,4.361" transform="translate(-45.639 -55.564)" fill="#050012"/>
          <path id="Trazado_1043177" data-name="Trazado 1043177" d="M131.662,202.869c.312.215,1.289-1.794,3.466-2.2,2-.372,3.482.9,3.652.612.225-.375-1.92-3.315-4.357-2.774s-3.145,4.1-2.761,4.361" transform="translate(-37.646 -56.783)" fill="#050012"/>
          <path id="Trazado_1043178" data-name="Trazado 1043178" d="M137.951,214.4a6.431,6.431,0,0,0,3.758,4.255c.1.052.2.1.309.141a14.653,14.653,0,0,0,2.4.8,15.024,15.024,0,0,0,4.768.333c.111-.009.221-.021.331-.029a10.269,10.269,0,0,0,6.808-3.123c.08-.093.156-.185.229-.286a6.194,6.194,0,0,0,1.017-2.056,3.772,3.772,0,0,0-.317-3.091c-.919-1.39-2.2-1.034-3.438-.449-.1.047-.2.094-.3.146-.349.174-.689.353-1.018.511a13.893,13.893,0,0,1-3.359,1.1c-.109.021-.218.038-.331.056a13.91,13.91,0,0,1-5.537-.178c-.107-.028-.214-.052-.323-.084-.064-.013-.13-.034-.2-.051-1.166-.33-3.129-1.2-4.242-.351a1.7,1.7,0,0,0-.657,1.164,3.146,3.146,0,0,0,.094,1.19" transform="translate(-39.44 -60.197)" fill="#fff"/>
          <path id="Trazado_1043179" data-name="Trazado 1043179" d="M153.589,220.837c.111-.008.221-.021.331-.029-.057-1.358-.258-5.088-.378-7.247-.109.021-.218.039-.332.056.152,2.718.328,6.027.378,7.22" transform="translate(-43.84 -61.109)" fill="#dd541d"/>
          <path id="Trazado_1043180" data-name="Trazado 1043180" d="M143.263,219.48c.1.051.2.1.308.141l1.256-6.263c-.107-.029-.214-.052-.322-.085Z" transform="translate(-40.993 -61.026)" fill="#dd541d"/>
          <path id="Trazado_1043181" data-name="Trazado 1043181" d="M159.807,211.243l2.809,5.737c.08-.094.156-.186.229-.286l-2.738-5.6c-.1.046-.2.094-.3.145" transform="translate(-45.727 -60.404)" fill="#dd541d"/>
          <path id="Trazado_1043182" data-name="Trazado 1043182" d="M116.245,219.753a13.212,13.212,0,0,0-2.948-6.121c-1.854-2.12-4.386-3.475-6.274,1.4-3.357,8.677,6.066,13.669,10.125,9.215Z" transform="translate(-30.42 -60.579)" fill="#f29e79"/>
          <g id="Grupo_1180393" data-name="Grupo 1180393" transform="translate(78.355 155.534)" style="mix-blend-mode: multiply;isolation: isolate">
            <g id="Grupo_1180392" data-name="Grupo 1180392">
              <g id="Grupo_1180391" data-name="Grupo 1180391" clip-path="url(#clip-path-30)">
                <path id="Trazado_1043183" data-name="Trazado 1043183" d="M109.914,218.665a3.3,3.3,0,0,1,3.319-.569,3.125,3.125,0,0,1,1.942,2.646,3.256,3.256,0,0,1-.418,1.935.448.448,0,0,1-.617.116.454.454,0,0,1-.116-.617,2.394,2.394,0,0,0-.3-2.688.326.326,0,0,1-.127.089,2.762,2.762,0,0,0-.363.156c-.056.029-.111.06-.164.093l-.037.023-.071.051a2.823,2.823,0,0,0-.288.241c-.046.044-.088.089-.132.134.068-.069-.016.02-.024.029s-.04.048-.059.073a2.953,2.953,0,0,0-.213.311q-.025.041-.047.081c0,.008-.032.064-.033.064-.021.046-.044.091-.062.138a2.752,2.752,0,0,0-.121.356c-.008.029-.014.058-.021.086,0,.009,0,.021-.006.036-.012.069-.021.137-.027.206a.444.444,0,0,1-.886-.064,3.4,3.4,0,0,1,1.847-2.671,2.408,2.408,0,0,0-2.394.416.444.444,0,0,1-.581-.671" transform="translate(-109.763 -217.878)" fill="#e66239"/>
              </g>
            </g>
          </g>
          <path id="Trazado_1043184" data-name="Trazado 1043184" d="M165.727,162.392q-3.431,1.593-7.159,3.2l-.335.144c-4.771,2.035-9.893,4.062-15.364,6.017l-.311.109c-4.264,1.518-8.736,2.99-13.418,4.381-.1.031-.2.061-.3.091q-3.584,1.064-7.325,2.062-2.9.772-5.743,1.461c-.106.024-.211.054-.313.076q-7.33,1.774-14.219,3.031c-.111.024-.222.042-.333.06-6.073,1.121-11.867,1.97-17.329,2.616-.123.012-.246.03-.369.042l0,0c-3.654.424-7.161.756-10.5,1.014l31.743-45.269,0,0,1.11-1.588,0,0,2.143-3.055a6.735,6.735,0,0,1,1.638-1.653c.119-.084.241-.164.365-.242a6.936,6.936,0,0,1,1.229-.6c.1-.039.2-.073.308-.106a6.531,6.531,0,0,1,1.049-.246,3.025,3.025,0,0,1,.328-.043,6.34,6.34,0,0,1,1.352-.009c.143.009.289.029.435.053a6.776,6.776,0,0,1,2.313.805l3.616,2.04,0,0,1.988,1.12.006.006Z" transform="translate(-20.802 -38.3)" fill="#fdda5f"/>
          <g id="Grupo_1180396" data-name="Grupo 1180396" transform="translate(62.4 95.58)" style="mix-blend-mode: multiply;isolation: isolate">
            <g id="Grupo_1180395" data-name="Grupo 1180395">
              <g id="Grupo_1180394" data-name="Grupo 1180394" clip-path="url(#clip-path-31)">
                <path id="Trazado_1043185" data-name="Trazado 1043185" d="M177.663,166.766l-.336.144-37.894-28.956,1.988,1.12.006.006Z" transform="translate(-102.298 -135.055)" fill="#fdda5f"/>
                <path id="Trazado_1043186" data-name="Trazado 1043186" d="M130.949,133.945l28.462,37.82-.311.109-28.587-37.982c.143.009.289.029.435.053" transform="translate(-99.745 -133.893)" fill="#fdda5f"/>
                <path id="Trazado_1043187" data-name="Trazado 1043187" d="M128.489,133.9l16.52,42.355c-.1.031-.2.061-.3.091l-16.542-42.4a3.016,3.016,0,0,1,.327-.043" transform="translate(-99.072 -133.896)" fill="#fdda5f"/>
                <path id="Trazado_1043188" data-name="Trazado 1043188" d="M126.568,134.309l4.524,45.68c-.106.024-.211.054-.313.076l-4.519-45.65c.1-.039.2-.072.308-.106" transform="translate(-98.528 -134.012)" fill="#fdda5f"/>
                <path id="Trazado_1043189" data-name="Trazado 1043189" d="M121.009,135.3l-8.471,48.077c-.111.024-.222.042-.333.06l8.44-47.9c.118-.084.241-.164.365-.242" transform="translate(-94.506 -134.296)" fill="#fdda5f"/>
                <path id="Trazado_1043190" data-name="Trazado 1043190" d="M109.766,142.24l-21.985,45.8c-.123.012-.246.03-.369.042l21.241-44.252,0,0Z" transform="translate(-87.412 -136.281)" fill="#fdda5f"/>
              </g>
            </g>
          </g>
          <g id="Grupo_1180399" data-name="Grupo 1180399" transform="translate(218.349 148.118)" style="mix-blend-mode: color-burn;isolation: isolate">
            <g id="Grupo_1180398" data-name="Grupo 1180398">
              <g id="Grupo_1180397" data-name="Grupo 1180397" clip-path="url(#clip-path-32)">
                <path id="Trazado_1043191" data-name="Trazado 1043191" d="M305.871,254.156s6.507-.2,17.627-7.843a28.7,28.7,0,0,1-.682-11.786c2.686-17.752,21.413-29.639,41.828-26.55s34.787,19.985,32.1,37.736-21.414,29.639-41.829,26.55a40.416,40.416,0,0,1-23.964-12.53c-6.287.741-15.112.1-25.081-5.577" transform="translate(-305.871 -207.489)" fill="#fdda5f"/>
              </g>
            </g>
          </g>
          <path id="Trazado_1043192" data-name="Trazado 1043192" d="M306.492,249.186s6.4-1.166,16.255-10.392a28.713,28.713,0,0,1-2.438-11.552c0-17.954,16.738-32.509,37.386-32.509s37.385,14.555,37.385,32.509-16.738,32.509-37.385,32.509a40.417,40.417,0,0,1-25.569-8.8c-6.106,1.673-14.927,2.356-25.633-1.762" transform="translate(-87.699 -55.721)" fill="#f46968"/>
          <path id="Trazado_1043193" data-name="Trazado 1043193" d="M308.286,268q-1.326-.425-2.693-.95a14.152,14.152,0,0,0,2.7-.92" transform="translate(-87.442 -76.15)" fill="none" stroke="#fff" stroke-miterlimit="10" stroke-width="1"/>
          <path id="Trazado_1043194" data-name="Trazado 1043194" d="M315.063,261.57a51.272,51.272,0,0,0,5.609-3.969" transform="translate(-90.152 -73.711)" fill="none" stroke="#fff" stroke-miterlimit="10" stroke-width="1" stroke-dasharray="6.423 6.423"/>
          <path id="Trazado_1043195" data-name="Trazado 1043195" d="M325.391,253.7q1.031-.893,2.122-1.912-.573-1.309-1.018-2.668" transform="translate(-93.107 -71.284)" fill="none" stroke="#fff" stroke-miterlimit="10" stroke-width="1"/>
          <path id="Trazado_1043196" data-name="Trazado 1043196" d="M325.145,227a28.44,28.44,0,0,1-.2-3.352c0-17.954,16.738-32.509,37.385-32.509s37.386,14.555,37.386,32.509-16.738,32.509-37.386,32.509a41.208,41.208,0,0,1-20.9-5.557" transform="translate(-92.98 -54.692)" fill="none" stroke="#fff" stroke-miterlimit="10" stroke-width="1" stroke-dasharray="7.948 7.948"/>
          <path id="Trazado_1043197" data-name="Trazado 1043197" d="M342.667,271.6q-1.18-.819-2.281-1.717c-.872.239-1.8.458-2.78.645" transform="translate(-96.602 -77.225)" fill="none" stroke="#fff" stroke-miterlimit="10" stroke-width="1"/>
          <path id="Trazado_1043198" data-name="Trazado 1043198" d="M324.073,271.236a41.436,41.436,0,0,1-10.117-1.2" transform="translate(-89.835 -77.269)" fill="none" stroke="#fff" stroke-miterlimit="10" stroke-width="1" stroke-dasharray="9.534 9.534"/>
        </g>
      </g>
      <text id="namaste" transform="translate(-2762.795 5226.792)" fill="#212429" font-size="18" font-family="SegoeUI-Bold, Segoe UI" font-weight="700"><tspan x="0" y="0">namaste</tspan></text>
      <g id="Grupo_1180412" data-name="Grupo 1180412" transform="translate(-3005 5048)">
        <g id="Grupo_1180411" data-name="Grupo 1180411" transform="translate(0 0)" clip-path="url(#clip-path-2)">
          <path id="Trazado_1043199" data-name="Trazado 1043199" d="M293.451,284.028a13.208,13.208,0,0,1,1.664-6.587c1.392-2.448,3.6-4.282,6.428.122,5.025,7.829-3.208,14.606-8.077,11.053Z" transform="translate(-83.968 -78.659)" fill="#c86858"/>
          <g id="Grupo_1180404" data-name="Grupo 1180404" transform="translate(211.321 200.699)" style="mix-blend-mode: multiply;isolation: isolate">
            <g id="Grupo_1180403" data-name="Grupo 1180403">
              <g id="Grupo_1180402" data-name="Grupo 1180402" clip-path="url(#clip-path-34)">
                <path id="Trazado_1043200" data-name="Trazado 1043200" d="M300.788,281.558a3.3,3.3,0,0,0-3.366.106,3.125,3.125,0,0,0-1.373,2.982,3.258,3.258,0,0,0,.8,1.812.448.448,0,0,0,.627-.011.453.453,0,0,0-.01-.627,2.394,2.394,0,0,1-.242-2.694.322.322,0,0,0,.143.062,2.754,2.754,0,0,1,.387.081c.06.017.119.036.178.058l.041.015.08.035a2.915,2.915,0,0,1,.331.18c.053.033.1.07.156.1-.081-.055.02.016.029.024q.037.029.073.06a3.028,3.028,0,0,1,.271.261l.063.071c.006.006.044.056.045.056.03.04.06.081.089.123a2.816,2.816,0,0,1,.189.324c.013.026.026.054.038.081l.014.034c.025.064.047.13.068.2a.444.444,0,0,0,.855-.24,3.4,3.4,0,0,0-2.344-2.248,2.407,2.407,0,0,1,2.428-.071.444.444,0,0,0,.436-.774" transform="translate(-296.026 -281.147)" fill="#992b1e"/>
              </g>
            </g>
          </g>
          <path id="Trazado_1043201" data-name="Trazado 1043201" d="M234.667,284.178c7.754,8,17.89,7.854,23.685,7.77,3.238-.05,13.258-.2,17.325-6.259.291-.435.488-.812.708-1.215a16.07,16.07,0,0,0,1.282-3.217,24.514,24.514,0,0,0,.75-4.237,40.342,40.342,0,0,0,.1-6.046c-.013-.291-.026-.582-.046-.867-.1-1.528-.261-2.977-.466-4.334-.237-1.595-.534-3.073-.85-4.421a43.6,43.6,0,0,0-3.042-8.788,29.242,29.242,0,0,0-2.7-4.617,15.622,15.622,0,0,0-1.58-1.858,24.278,24.278,0,0,0-7.653-4.916,12.011,12.011,0,0,0-3.01-.905c-15.967-3.145-24.649,2.644-28.847,11.622a32.812,32.812,0,0,0-2.292,6.974c-.021.094-.046.223-.082.39-.547,2.843-2.386,15.541,6.715,24.925" transform="translate(-65.076 -68.503)" fill="#c86858"/>
          <path id="Trazado_1043202" data-name="Trazado 1043202" d="M272.523,274.042c.075.992-.575,1.842-.535,2.818a1.009,1.009,0,0,0,.68,1.023,1.823,1.823,0,0,1,1.055.581,1.569,1.569,0,0,1-.328,1.924c-.733.705-1.89.563-2.8.426a.271.271,0,0,1,.089-.534c.8.119,2,.316,2.513-.49a1.04,1.04,0,0,0,.139-.917c-.155-.367-.605-.393-.934-.513a1.606,1.606,0,0,1-.948-1.69c.037-.887.6-1.676.534-2.572a.271.271,0,0,1,.538-.056" transform="translate(-77.364 -78.348)" fill="#992b1e"/>
          <path id="Trazado_1043203" data-name="Trazado 1043203" d="M278.468,274.488c.286.25,1.488-1.634,3.7-1.785,2.03-.139,3.356,1.291,3.557,1.028.267-.346-1.524-3.514-4.008-3.257s-3.6,3.707-3.245,4.014" transform="translate(-79.663 -77.39)" fill="#050012"/>
          <path id="Trazado_1043204" data-name="Trazado 1043204" d="M250.23,275.5c.286.25,1.488-1.634,3.7-1.785,2.029-.139,3.355,1.291,3.556,1.028.267-.346-1.525-3.514-4.008-3.257s-3.6,3.707-3.245,4.014" transform="translate(-71.583 -77.68)" fill="#050012"/>
          <path id="Trazado_1043205" data-name="Trazado 1043205" d="M257.406,288.313s8.321,6.538,16.344,0" transform="translate(-73.654 -82.498)" fill="none" stroke="#992b1e" stroke-miterlimit="10" stroke-width="1"/>
          <path id="Trazado_1043206" data-name="Trazado 1043206" d="M232.839,237.259a19.828,19.828,0,0,1,2.7-2.045c1.9-1.211,4.108-2.222,14.9-3.349a235.608,235.608,0,0,1,27.178-1.264c.122.312.251.67.368,1.08a11.563,11.563,0,0,1,.036,7.192,9.518,9.518,0,0,1-.9,1.91,11.978,11.978,0,0,1-4.974,4.36c-.4.195-.805.377-1.2.546a25.791,25.791,0,0,1-5.537,1.5,9.794,9.794,0,0,1-1.679.109,17.483,17.483,0,0,1-4.423-.637,3.2,3.2,0,0,1-1.154-.657c-2.153,6.379-11.447,8.086-15.174,2.1.843,6.017-5.492,11.193-11.223,9.168A20.057,20.057,0,0,1,233.1,271.86c-.2.036-.4.071-.588.1-1.834.241-2.878-.1-3.865-1.9a22.937,22.937,0,0,1-1.32-2.741l-.007-.006c-.121-.26-.223-.514-.318-.774a.009.009,0,0,0,0-.014,29.735,29.735,0,0,1-1.573-14.7,25.65,25.65,0,0,1,3.306-9.541,21.288,21.288,0,0,1,2.489-3.409,18.741,18.741,0,0,1,1.612-1.618" transform="translate(-64.417 -65.98)" fill="#050012"/>
          <path id="Trazado_1043207" data-name="Trazado 1043207" d="M232.822,290.52a13.209,13.209,0,0,0-2.224-6.42c-1.6-2.319-3.957-3.957-6.394.674-4.334,8.232,4.451,14.276,9,10.318Z" transform="translate(-63.819 -80.64)" fill="#c86858"/>
          <g id="Grupo_1180407" data-name="Grupo 1180407" transform="translate(161.873 205.645)" style="mix-blend-mode: multiply;isolation: isolate">
            <g id="Grupo_1180406" data-name="Grupo 1180406">
              <g id="Grupo_1180405" data-name="Grupo 1180405" clip-path="url(#clip-path-35)">
                <path id="Trazado_1043208" data-name="Trazado 1043208" d="M226.945,288.634a3.3,3.3,0,0,1,3.362-.183,3.124,3.124,0,0,1,1.625,2.853,3.255,3.255,0,0,1-.637,1.873.448.448,0,0,1-.626.044.453.453,0,0,1-.044-.626,2.4,2.4,0,0,0,.009-2.7.323.323,0,0,1-.137.074,2.81,2.81,0,0,0-.378.114c-.059.022-.116.046-.173.073l-.04.019-.076.041a3.133,3.133,0,0,0-.314.208c-.05.038-.1.079-.146.118.076-.061-.019.018-.027.026s-.045.044-.067.066a3.008,3.008,0,0,0-.248.283l-.056.076c0,.007-.039.06-.04.06-.026.043-.053.086-.078.13a2.835,2.835,0,0,0-.161.34c-.011.028-.021.056-.031.084l-.011.035c-.02.066-.036.133-.051.2a.444.444,0,0,1-.872-.165,3.4,3.4,0,0,1,2.142-2.441,2.407,2.407,0,0,0-2.426.138.444.444,0,0,1-.5-.734" transform="translate(-226.757 -288.076)" fill="#992b1e"/>
              </g>
            </g>
          </g>
          <path id="Trazado_1043209" data-name="Trazado 1043209" d="M275.874,244.9a4.614,4.614,0,0,0,.127,1.138,7,7,0,0,0,2.249,3.459,17.318,17.318,0,0,0,3.415,2.3,14.281,14.281,0,0,0,6.855,1.655,14.267,14.267,0,0,0-.466,3.269,10.348,10.348,0,0,0,.5,4.023,7.88,7.88,0,0,0,3.148,3.628,5.358,5.358,0,0,0,.486.274,7.543,7.543,0,0,0,2.616.823c-.26-.227-.52-.454-.786-.682.014-.054.027-.116.041-.176.782-3.586,2.127-11.828-1.042-19.042a18.552,18.552,0,0,0-1.009-2c-.118-.209-.243-.407-.363-.6a11.812,11.812,0,0,0-2.951-3.3,6.867,6.867,0,0,0-1.708-.922,8.821,8.821,0,0,0-8.272,1.251,5.935,5.935,0,0,0-.561.475,10.421,10.421,0,0,0-.873.918,5.741,5.741,0,0,0-1.4,3.509" transform="translate(-78.938 -68.167)" fill="#050012"/>
          <g id="Grupo_1180410" data-name="Grupo 1180410" transform="translate(161.015 165.7)" style="mix-blend-mode: screen;isolation: isolate">
            <g id="Grupo_1180409" data-name="Grupo 1180409">
              <g id="Grupo_1180408" data-name="Grupo 1180408" clip-path="url(#clip-path-36)">
                <path id="Trazado_1043210" data-name="Trazado 1043210" d="M232.962,237.7a10.124,10.124,0,0,0,5.176,2.621.01.01,0,0,0,.014,0,9.877,9.877,0,0,0,1.911.143,10.063,10.063,0,0,0,6.753-2.926v-.013a9.6,9.6,0,0,0,1-1.179,7.943,7.943,0,0,0,.844,1.015l.014.013a8.194,8.194,0,0,0,10.757.967,8.079,8.079,0,0,0,2.242-2.372,8.793,8.793,0,0,0,2.634,2.278,9.518,9.518,0,0,0,7.858.792,8.681,8.681,0,0,0,2.122-1.121,9.641,9.641,0,0,0,3.816-5.8,11.562,11.562,0,0,1,.036,7.192,9.521,9.521,0,0,1-.9,1.91c.126.188.253.388.368.59a21.156,21.156,0,0,1,1.009,2,14.292,14.292,0,0,1-6.35,1.77,14.677,14.677,0,0,1-1.615-.024l-.006-.006a15.291,15.291,0,0,1-7.3-2.454,12.262,12.262,0,0,1-1.749,1.189,13.6,13.6,0,0,1-14.778-.864c-.822,2.424-3.414,4.122-5.931,4.641a7.549,7.549,0,0,1-6.984-2.314,22.32,22.32,0,0,1-4.153,4.165h-.014a16.855,16.855,0,0,1-4.185,2.354,25.65,25.65,0,0,1,3.306-9.541,10,10,0,0,0,2.489-3.409,18.735,18.735,0,0,1,1.612-1.618" transform="translate(-225.555 -232.119)" fill="#050012"/>
              </g>
            </g>
          </g>
        </g>
      </g>
      <text id="A" transform="translate(-2980.893 5147.747)" fill="#4887fc" font-size="41" font-family="SegoeUI, Segoe UI"><tspan x="0" y="0">A</tspan></text>
      <path id="Trazado_1043211" data-name="Trazado 1043211" d="M89.963,116.526V133.5H86.18v-2.193a7,7,0,0,1-5.625,2.416c-4.958,0-8.582-3.433-8.582-8.709s3.624-8.677,8.582-8.677a7.055,7.055,0,0,1,5.435,2.257v-2.066Zm-3.91,8.486A5.045,5.045,0,1,0,81,130.32,4.943,4.943,0,0,0,86.053,125.012Z" transform="translate(-3025.594 5014.712)" fill="#4887fc"/>
      <text id="b" transform="translate(-2723.834 5169.557)" fill="#917aeb" font-size="33" font-family="SegoeUI, Segoe UI"><tspan x="0" y="0">b</tspan></text>
      <text id="b-2" data-name="b" transform="translate(-2706.348 5169.794)" fill="#917aeb" font-size="29" font-family="Montserrat-SemiBold, Montserrat" font-weight="600"><tspan x="0" y="0">b</tspan></text>
      <g id="Grupo_1180432" data-name="Grupo 1180432" transform="translate(-3005 5048)">
        <g id="Grupo_1180431" data-name="Grupo 1180431" transform="translate(0 0)" clip-path="url(#clip-path-2)">
          <rect id="Rectángulo_415789" data-name="Rectángulo 415789" width="13.637" height="13.637" transform="translate(50.189 209.381) rotate(-62.143)" fill="#fdda5f"/>
          <rect id="Rectángulo_415790" data-name="Rectángulo 415790" width="13.637" height="13.637" transform="translate(312.918 154.122) rotate(-62.141)" fill="#90d4b9"/>
          <rect id="Rectángulo_415791" data-name="Rectángulo 415791" width="5.057" height="5.057" transform="matrix(0.975, -0.224, 0.224, 0.975, 113.673, 217.109)" fill="#917aeb"/>
          <rect id="Rectángulo_415792" data-name="Rectángulo 415792" width="5.057" height="5.057" transform="matrix(0.975, -0.224, 0.224, 0.975, 278.64, 71.821)" fill="#917aeb"/>
          <rect id="Rectángulo_415793" data-name="Rectángulo 415793" width="5.057" height="5.057" transform="matrix(0.975, -0.224, 0.224, 0.975, 322.132, 182.254)" fill="#4887fc"/>
          <rect id="Rectángulo_415794" data-name="Rectángulo 415794" width="5.057" height="5.057" transform="matrix(0.975, -0.224, 0.224, 0.975, 92.76, 181.768)" fill="#f46968"/>
          <rect id="Rectángulo_415795" data-name="Rectángulo 415795" width="5.057" height="5.057" transform="matrix(0.975, -0.224, 0.224, 0.975, 251.99, 214.137)" fill="#fdda5f"/>
          <rect id="Rectángulo_415796" data-name="Rectángulo 415796" width="5.057" height="5.057" transform="matrix(0.975, -0.224, 0.224, 0.975, 114.84, 89.085)" fill="#4887fc"/>
          <path id="Trazado_1043212" data-name="Trazado 1043212" d="M237.88,463.765l-13.423,2.847-4.268,48.474,47.255.3L268.663,466l-12.123-1.763Z" transform="translate(-63.005 -132.702)" fill="#f46968"/>
          <path id="Trazado_1043213" data-name="Trazado 1043213" d="M207.191,396.676c.781-2.845.378-10.39,1.162-13.242l7.982-.212-.743,10.445Z" transform="translate(-59.285 -109.656)" fill="#f29e79"/>
          <path id="Trazado_1043214" data-name="Trazado 1043214" d="M220.061,369.674a41.343,41.343,0,0,0-4.017,7.8c.805,2.43-1.461,5.36-3.9,6.134a10.221,10.221,0,0,1-7.057-.36c-.179-.523-1.054-.992-1.281-1.5a62.774,62.774,0,0,1-4.321-13.065,3.12,3.12,0,0,1,2.523-1.484,2.628,2.628,0,0,1,1.455.538q.287.668.569,1.381c.188.473.373.956.54,1.433a18.466,18.466,0,0,1-.266-3.008,2.452,2.452,0,0,1,4.016-.954,6.944,6.944,0,0,0,.711,2.289c-.5-2.485-.367-5.056,1.36-6.954a1.606,1.606,0,0,1,2.008-.375c.6.375.586,1.024.571,1.618a29.68,29.68,0,0,0,1.219,8.541,7.1,7.1,0,0,1,4.9-3.54.977.977,0,0,1,.969,1.508" transform="translate(-57.081 -103.394)" fill="#f29e79"/>
          <path id="Trazado_1043215" data-name="Trazado 1043215" d="M203.816,377.992c-.428,0-.991-.242-1.585-1.158a20.271,20.271,0,0,1-2.471-5.4.268.268,0,0,1,.515-.149,19.736,19.736,0,0,0,2.406,5.258c.253.39.754,1.029,1.282.9.421-.1.632-.937.733-1.337a5.46,5.46,0,0,0,.111-2.016,8.44,8.44,0,0,1-.52-1.911.268.268,0,0,1,.512-.142,7.8,7.8,0,0,1,.53,1.916l.006.014a5.015,5.015,0,0,0,.63,1.156,2.516,2.516,0,0,0,1,.934,1.5,1.5,0,0,0,1.248.084,1.758,1.758,0,0,0,.808-1.091,4.61,4.61,0,0,0-.211-3.344.268.268,0,0,1,.494-.206,5.134,5.134,0,0,1,.218,3.738,2.232,2.232,0,0,1-1.092,1.394,2.018,2.018,0,0,1-1.683-.084,3.01,3.01,0,0,1-1.213-1.1c-.058-.078-.111-.154-.161-.228a5.7,5.7,0,0,1-.161,1.021c-.136.54-.39,1.547-1.125,1.726a1.16,1.16,0,0,1-.273.034" transform="translate(-57.156 -106.185)" fill="#e66239"/>
          <path id="Trazado_1043216" data-name="Trazado 1043216" d="M215.306,380.766H215.3a.268.268,0,0,1-.259-.276,3.178,3.178,0,0,1,2.526-2.921l.773-2.111a.268.268,0,1,1,.5.184l-.827,2.259a.266.266,0,0,1-.218.173,2.614,2.614,0,0,0-2.22,2.432.267.267,0,0,1-.268.259" transform="translate(-61.531 -107.384)" fill="#e66239"/>
          <path id="Trazado_1043217" data-name="Trazado 1043217" d="M226.526,454.117c-13.993-14.683-29.373-41.382-20.484-54.969l10.379-4.669s-1.469,30.944,28.3,47.514Z" transform="translate(-58.205 -112.877)" fill="#f46968"/>
          <path id="Trazado_1043218" data-name="Trazado 1043218" d="M260.495,446.744l.217,4.517.51,10.506-14.087,1.649s-.259-1.393-.618-3.347c-.805-4.4-2.105-11.629-2.015-12.07Z" transform="translate(-69.96 -127.832)" fill="#f29e79"/>
          <path id="Trazado_1043219" data-name="Trazado 1043219" d="M260.495,446.744l.217,4.517c-4.053,8.057-10.4,9.05-14.194,8.808-.805-4.4-2.105-11.629-2.015-12.07Z" transform="translate(-69.96 -127.832)" fill="#e66239"/>
          <path id="Trazado_1043220" data-name="Trazado 1043220" d="M271.453,423.543c14.9-9.244,15.908-26.821,15.98-29.1,3.513-22.122-23.966-41.179-47.493-28.633-7.9,4.214-13.341,14.518-13.789,23.233-.028.535-1.21,1.856-1.525,2.434a24.791,24.791,0,0,0-1.53,3.407,26.726,26.726,0,0,0-1.506,7.042c-.513,6.631.838,13.6,6.121,18.03,6.136,5.145,13.886,7.262,21.86,7.914,7.336.6,15.606-.118,21.881-4.324" transform="translate(-63.377 -103.529)" fill="#f29e79"/>
          <path id="Trazado_1043221" data-name="Trazado 1043221" d="M231.852,394.736S237,388.931,241.877,394c0,0-4.469-10.023-10.025.732" transform="translate(-66.342 -111.526)" fill="#fdda5f"/>
          <path id="Trazado_1043222" data-name="Trazado 1043222" d="M267.4,398.039s7.4-2.32,8.969,4.541c0,0,1.336-10.892-8.969-4.541" transform="translate(-76.513 -113.326)" fill="#fdda5f"/>
          <g id="Grupo_1180415" data-name="Grupo 1180415" transform="translate(189.07 296.88)" opacity="0.39" style="mix-blend-mode: multiply;isolation: isolate">
            <g id="Grupo_1180414" data-name="Grupo 1180414">
              <g id="Grupo_1180413" data-name="Grupo 1180413" clip-path="url(#clip-path-38)">
                <path id="Trazado_1043223" data-name="Trazado 1043223" d="M264.856,421.62c0,3.17,3.651,5.739,8.155,5.739s8.155-2.569,8.155-5.739-3.651-5.739-8.155-5.739-8.155,2.569-8.155,5.739" transform="translate(-264.856 -415.881)" fill="#f29e79"/>
              </g>
            </g>
          </g>
          <path id="Trazado_1043224" data-name="Trazado 1043224" d="M251.142,399.837c-.717.97-.6,2.261-1.269,3.237a1.224,1.224,0,0,1-1.357.61,2.2,2.2,0,0,0-1.456-.084,1.9,1.9,0,0,0-.905,2.185c.3,1.2,1.576,1.8,2.6,2.245a.329.329,0,0,0,.253-.606c-.893-.39-2.253-.963-2.263-2.122a1.26,1.26,0,0,1,.448-1.03c.4-.277.874-.014,1.289.076a1.948,1.948,0,0,0,2.063-1.123c.533-.934.464-2.107,1.111-2.982.251-.339-.265-.745-.516-.4" transform="translate(-70.418 -114.373)" fill="#e66239"/>
          <path id="Trazado_1043225" data-name="Trazado 1043225" d="M235.723,398.506c-.248,1.566.358,2.986,1.352,3.172s2-.934,2.25-2.5-.357-2.985-1.352-3.171-2,.933-2.25,2.5" transform="translate(-67.434 -113.308)" fill="#050012"/>
          <path id="Trazado_1043226" data-name="Trazado 1043226" d="M268.874,404.893c-.248,1.566.358,2.986,1.352,3.172s2-.934,2.25-2.5-.357-2.985-1.352-3.171-2,.933-2.25,2.5" transform="translate(-76.92 -115.136)" fill="#050012"/>
          <path id="Trazado_1043227" data-name="Trazado 1043227" d="M255.245,422.6a8.124,8.124,0,0,1-.066.857,8.562,8.562,0,0,1-3.773,5.8,5.668,5.668,0,0,1-4.248.85,10.288,10.288,0,0,1-5.509-2.879,8.867,8.867,0,0,1-1.546-2.154,9.239,9.239,0,0,1-1-3.985,9.888,9.888,0,0,1,.659-3.677,3.719,3.719,0,0,1,1.451-1.758,4.077,4.077,0,0,1,4.168-.08,5.041,5.041,0,0,0,3.89.535,3.668,3.668,0,0,1,2.828.322,5.839,5.839,0,0,1,2.161,2.264,7.9,7.9,0,0,1,.982,3.9" transform="translate(-68.418 -118.761)" fill="#992b1e"/>
          <path id="Trazado_1043228" data-name="Trazado 1043228" d="M256.263,425.173a8.124,8.124,0,0,1-.066.857,8.562,8.562,0,0,1-3.773,5.8,5.668,5.668,0,0,1-4.248.85,10.288,10.288,0,0,1-5.509-2.879c1.026-3.325,4.586-5.772,8.827-5.772a10.277,10.277,0,0,1,4.769,1.143" transform="translate(-69.437 -121.332)" fill="#f46968"/>
          <path id="Trazado_1043229" data-name="Trazado 1043229" d="M255.109,418.7c-9.911,2.1-12.5-1.853-13.046-3.04a4.076,4.076,0,0,1,4.168-.081,5.038,5.038,0,0,0,3.89.535,3.668,3.668,0,0,1,2.828.322,5.849,5.849,0,0,1,2.161,2.264" transform="translate(-69.264 -118.761)" fill="#feffff"/>
          <path id="Trazado_1043230" data-name="Trazado 1043230" d="M226.905,378.387a11.3,11.3,0,0,0,1.371,4.866,53.525,53.525,0,0,1,10.238-11.346c-.29,3.838.258,10.08,4.41,11.5-1.167-2.8-1.2-7.214.947-9.594,2,5.208,4.715,10.495,9.109,14.277-.784-3.587.525-9.163,2.373-12.413,1.927,2.638,1.853,7.319,3.885,10.283,6.524,8.279,6.226,9.665,9.249-1.253,1.458,9.529-.635,12.844,6.024,20.879,2.1,3.828-3.227,14.434,4.823,10.049,13.372-9.205,12.605-36,6.706-43.819-8.681-13.638-33.09-17.306-45.691-16.822.193,1.727,3.059,5.756,5,6.592-2.833-3.015-12.289-2.7-14.094,2.046.255,1.108,3.348.971,3.41,1.819-.308.868-4.571,1.972-4.546,5.228.069-.081.109-.118.118-.113a4.924,4.924,0,0,1-.522.9,15.352,15.352,0,0,0-1.576,2.329,9.648,9.648,0,0,0-.891,1.987,8.149,8.149,0,0,0-.343,2.6" transform="translate(-64.925 -101.566)" fill="#fdda5f"/>
          <g id="Grupo_1180418" data-name="Grupo 1180418" transform="translate(193.756 282.049)" style="mix-blend-mode: screen;isolation: isolate">
            <g id="Grupo_1180417" data-name="Grupo 1180417">
              <g id="Grupo_1180416" data-name="Grupo 1180416" clip-path="url(#clip-path-39)">
                <path id="Trazado_1043231" data-name="Trazado 1043231" d="M271.42,396.49a6.135,6.135,0,0,0,.556.956c6.524,8.278,6.226,9.664,9.25-1.254.7,3.047.58,6.508.885,9.806a7.481,7.481,0,0,0,5.7,4.832,7.844,7.844,0,0,0,7.487-3.07,11.752,11.752,0,0,0,5.819,5.138,29.545,29.545,0,0,0,1.746-8.169,3.148,3.148,0,0,1-1.426-.431,17.843,17.843,0,0,1-7.8-7.73,5.782,5.782,0,0,1-1.754,3.783,4.946,4.946,0,0,1-3.626,1.308,6.64,6.64,0,0,1-4.37-2.3,19.512,19.512,0,0,1-2.741-4.252,4.783,4.783,0,0,1-4.629,3.422,8.256,8.256,0,0,1-5.1-2.036" transform="translate(-271.42 -395.104)" fill="#fdda5f"/>
              </g>
            </g>
          </g>
          <path id="Trazado_1043232" data-name="Trazado 1043232" d="M288,435.2a16.769,16.769,0,0,1,4.5-7.35c2.611-2.439,5.98-3.826,7.74,2.576,3.129,11.38-9.4,16.479-13.958,10.337Z" transform="translate(-81.917 -121.842)" fill="#f29e79"/>
          <path id="Trazado_1043233" data-name="Trazado 1043233" d="M299.385,434.561a4.326,4.326,0,0,0-4.253-1.182,4.1,4.1,0,0,0-2.892,3.188,4.305,4.305,0,0,0,.291,2.6.711.711,0,0,0,.957.281.719.719,0,0,0,.281-.956,2.774,2.774,0,0,1-.1-1.852,3.024,3.024,0,0,1,.7-1.251c.027.02.043.05.075.065a3.542,3.542,0,0,1,.438.243c.066.044.131.09.195.138l.009.008-.019-.018c.031.034.075.063.108.093a3.862,3.862,0,0,1,.333.342c.04.047.133.128.15.186-.054-.075-.066-.091-.036-.049l.041.059c.022.034.044.066.065.1a3.736,3.736,0,0,1,.23.419c.017.036.034.072.049.109l.028.066c.02.049.012.029-.023-.059a.7.7,0,0,1,.076.226,3.442,3.442,0,0,1,.107.465c0,.021.006.044.009.066l0,.026c0,.016,0,.034.006.05l0-.021c.006.087.008.175.008.263a.7.7,0,1,0,1.408.041,4.48,4.48,0,0,0-1.771-3.538,2.867,2.867,0,0,1,2.5.855c.618.665,1.643-.3,1.025-.967" transform="translate(-83.598 -123.964)" fill="#e66239"/>
          <path id="Trazado_1043234" data-name="Trazado 1043234" d="M297.829,439.734c0-.009,0-.016,0-.026a.2.2,0,0,0,.006.054l0-.029" transform="translate(-85.22 -125.818)" fill="#e66239"/>
          <path id="Trazado_1043235" data-name="Trazado 1043235" d="M296.259,436.9c.036.034.052.041,0,0" transform="translate(-84.771 -125.014)" fill="#e66239"/>
          <path id="Trazado_1043236" data-name="Trazado 1043236" d="M263.631,464.24c-.333,3.652-4.527,6.434-9.549,6.27-4.959-.162-8.925-3.137-9.112-6.745q1.869.087,3.754.158,7.584.288,14.906.316" transform="translate(-70.096 -132.702)" fill="#f29e79"/>
          <path id="Trazado_1043237" data-name="Trazado 1043237" d="M268.253,480.935c15.925,13.226,45.993,16.7,45.993,16.7.545-4.366,5.033-9.234,2.184-14.189-2.1-.522-3.734-1.022-4.652-1.314-4.564-1.451-10.637-3.913-28.761-14.868-1.194-.721-2.168-1.321-2.8-1.712l-11.962,15.385" transform="translate(-76.758 -133.213)" fill="#f46968"/>
          <path id="Trazado_1043238" data-name="Trazado 1043238" d="M315.167,378.689s-2.911,3.144-6.056.7c0,0,1.979-3.261,6.056-.7" transform="translate(-88.449 -108.078)" fill="#fdda5f"/>
          <path id="Trazado_1043239" data-name="Trazado 1043239" d="M311.361,372.389s1.234,4.1-2.469,5.573c0,0-1.807-3.359,2.469-5.573" transform="translate(-88.278 -106.556)" fill="#fdda5f"/>
          <path id="Trazado_1043240" data-name="Trazado 1043240" d="M169.388,442.838,183.7,499.814,267.1,507.69,282.577,450.1s-29.163-19.164-56.237-4.143l-5.669-.442s-13.612-15.02-51.283-2.681" transform="translate(-48.469 -125.322)" fill="#fff"/>
          <path id="Trazado_1043241" data-name="Trazado 1043241" d="M169.388,442.838,183.7,499.814,267.1,507.69,282.577,450.1s-29.163-19.164-56.237-4.143l-5.669-.442S207.059,430.5,169.388,442.838Z" transform="translate(-48.469 -125.322)" fill="none" stroke="#050012" stroke-miterlimit="10" stroke-width="0.5"/>
          <path id="Trazado_1043242" data-name="Trazado 1043242" d="M159.754,448.7l16.756,57.026,95.6,8.117,17.378-57.549s-33.531-19.251-64.458-4.306l-6.5-.458s-15.689-15.062-58.774-2.83" transform="translate(-45.712 -127.02)" fill="#fff"/>
          <path id="Trazado_1043243" data-name="Trazado 1043243" d="M159.754,448.7l16.756,57.026,95.6,8.117,17.378-57.549s-33.531-19.251-64.458-4.306l-6.5-.458S202.839,436.465,159.754,448.7Z" transform="translate(-45.712 -127.02)" fill="none" stroke="#050012" stroke-miterlimit="10" stroke-width="0.5"/>
          <path id="Trazado_1043244" data-name="Trazado 1043244" d="M289.195,461.319,273.643,518.66l-49.62-4.146-8.314-.7-44.94-3.758q-6.713-27.415-13.433-54.843c6.014-3.062,22.993-10.679,43.247-5.911a58.59,58.59,0,0,1,16.877,6.922c.176.1.351.213.52.316h8.593c24.114-13.588,62.622,4.776,62.622,4.776" transform="translate(-45.02 -128.127)" fill="#4887fc"/>
          <g id="Grupo_1180421" data-name="Grupo 1180421" transform="translate(170.646 328.101)" style="mix-blend-mode: multiply;isolation: isolate">
            <g id="Grupo_1180420" data-name="Grupo 1180420">
              <g id="Grupo_1180419" data-name="Grupo 1180419" clip-path="url(#clip-path-40)">
                <path id="Trazado_1043245" data-name="Trazado 1043245" d="M249.169,459.931,247.4,517.9l-.029,1.077-8.329-.256.044-1.516,1.75-57.59c.176.1.352.212.52.315Z" transform="translate(-239.046 -459.616)" fill="#4887fc"/>
              </g>
            </g>
          </g>
          <path id="Trazado_1043246" data-name="Trazado 1043246" d="M327.355,502.219c-2.169-2.493-6.26-6.018-8.434-8.519l4.781-7.561,7.415,4.012Z" transform="translate(-91.256 -139.104)" fill="#f29e79"/>
          <path id="Trazado_1043247" data-name="Trazado 1043247" d="M318.86,480.378a46.076,46.076,0,0,1-4.777-8.576,1.1,1.1,0,0,0-2.013-.036,7.937,7.937,0,0,0,.247,6.757,33.727,33.727,0,0,1-8.737-4.17c-.541-.383-1.137-.8-1.864-.48a1.8,1.8,0,0,0-.9,2.107c.941,3.811,4.9,5.617,8.576,6.54-2.5-.922-6.206-1.823-8.7-2.746a2.25,2.25,0,0,0-1.406-.194,1.5,1.5,0,0,0-.833,1.81,3.823,3.823,0,0,0,1.258,1.765,20.457,20.457,0,0,0,9.24,4.827c-2.27-1.112-6.859-1.962-9.364-2.308-1.511-.208-3.638.215-3.425,1.893a1.979,1.979,0,0,0,1.186,1.508,71,71,0,0,0,17.868,5.355c.611.1,1.6-.422,2.2-.268a11.473,11.473,0,0,0,4.737-6.339c.8-2.754-.521-6.683-3.294-7.445" transform="translate(-84.739 -134.808)" fill="#f29e79"/>
          <path id="Trazado_1043248" data-name="Trazado 1043248" d="M306.412,484.356a.377.377,0,0,1-.014-.363.384.384,0,0,1,.512-.171,30.354,30.354,0,0,0,5.441,2.082.38.38,0,1,1-.2.732,31.33,31.33,0,0,1-5.579-2.133.388.388,0,0,1-.158-.147" transform="translate(-87.661 -138.43)" fill="#e66239"/>
          <path id="Trazado_1043249" data-name="Trazado 1043249" d="M305.877,492.392a.375.375,0,0,1-.026-.333.38.38,0,0,1,.494-.213c1.7.666,3.431,1.251,5.154,1.736a.38.38,0,1,1-.208.731c-1.748-.493-3.506-1.085-5.226-1.761a.379.379,0,0,1-.188-.16" transform="translate(-87.508 -140.73)" fill="#e66239"/>
          <path id="Trazado_1043250" data-name="Trazado 1043250" d="M227.966,333.1a36.7,36.7,0,0,1-31.531-18.687,26.832,26.832,0,0,1-8.576-.79,46.74,46.74,0,0,1-29.7-68.907l.617.358a46.027,46.027,0,0,0,29.247,67.855,26.527,26.527,0,0,0,8.049.8q-.281-.548-.541-1.107c-1.71-3.675-2.3-6.827-1.793-9.634.558-3.112,3-6.468,6.583-6.859a6.5,6.5,0,0,1,5.249,1.964,8.232,8.232,0,0,1,2.514,6.349c-.308,3.973-3.457,7.658-7.837,9.171a15.806,15.806,0,0,1-3.047.715c6.533,11.767,20.386,19.217,33.818,17.913l.069.711c-1.038.1-2.081.15-3.121.15M200.957,296.81a5.224,5.224,0,0,0-.558.031c-3.235.353-5.446,3.425-5.958,6.276-.477,2.658.091,5.669,1.737,9.206q.315.676.66,1.334a15.282,15.282,0,0,0,3.177-.717c3.424-1.183,7.027-4.285,7.358-8.552a7.5,7.5,0,0,0-2.3-5.781,5.931,5.931,0,0,0-4.116-1.8" transform="translate(-43.483 -70.025)" fill="#4887fc"/>
          <g id="Grupo_1180424" data-name="Grupo 1180424" transform="translate(75.443 222.533)" style="mix-blend-mode: multiply;isolation: isolate">
            <g id="Grupo_1180423" data-name="Grupo 1180423">
              <g id="Grupo_1180422" data-name="Grupo 1180422" clip-path="url(#clip-path-41)">
                <path id="Trazado_1043251" data-name="Trazado 1043251" d="M135.87,320.969a15.808,15.808,0,1,1-28.751,13.154,15.635,15.635,0,0,1-.993-2.874,15.807,15.807,0,0,1,28.218-12.91,15.59,15.59,0,0,1,1.526,2.631" transform="translate(-105.683 -311.732)" fill="#ffedd7"/>
              </g>
            </g>
          </g>
          <path id="Trazado_1043252" data-name="Trazado 1043252" d="M130.66,314.2a15.814,15.814,0,1,1-1.526-2.631,15.792,15.792,0,0,1,1.526,2.631" transform="translate(-28.749 -87.262)" fill="#f46968"/>
          <path id="Trazado_1043253" data-name="Trazado 1043253" d="M129.135,311.567l-28.218,12.91a15.807,15.807,0,0,1,28.218-12.91" transform="translate(-28.749 -87.262)" fill="#050012"/>
          <path id="Trazado_1043254" data-name="Trazado 1043254" d="M134.184,326.637a15.816,15.816,0,0,1-26.4,12.079Z" transform="translate(-30.841 -93.464)" fill="#fdda5f"/>
          <g id="Grupo_1180427" data-name="Grupo 1180427" transform="translate(186.099 38.564)" style="mix-blend-mode: multiply;isolation: isolate">
            <g id="Grupo_1180426" data-name="Grupo 1180426">
              <g id="Grupo_1180425" data-name="Grupo 1180425" clip-path="url(#clip-path-42)">
                <path id="Trazado_1043255" data-name="Trazado 1043255" d="M292.322,76.9A16.462,16.462,0,1,1,262,64.084,16.278,16.278,0,0,1,263.5,61.3a16.462,16.462,0,0,1,28.818,15.6" transform="translate(-260.694 -54.023)" fill="#ffedd7"/>
              </g>
            </g>
          </g>
          <path id="Trazado_1043256" data-name="Trazado 1043256" d="M293.4,69.126a16.408,16.408,0,0,1-19.157,8.452,16.82,16.82,0,0,1-2.958-1.144,16.464,16.464,0,0,1,8.363-31.141A16.471,16.471,0,0,1,293.4,69.126" transform="translate(-75.034 -12.953)" fill="#fff"/>
          <path id="Trazado_1043257" data-name="Trazado 1043257" d="M298.976,71.065A16.487,16.487,0,0,1,281.7,79.933l14.035-27.891c.29.223.565.453.832.691a16.47,16.47,0,0,1,2.409,18.332" transform="translate(-80.605 -14.892)" fill="#f46968"/>
          <path id="Trazado_1043258" data-name="Trazado 1043258" d="M266.067,72.3a16.47,16.47,0,0,1,13.588-27.007Z" transform="translate(-75.034 -12.952)" fill="#4887fc"/>
          <g id="Grupo_1180430" data-name="Grupo 1180430" transform="translate(217.905 219.83)" style="mix-blend-mode: multiply;isolation: isolate">
            <g id="Grupo_1180429" data-name="Grupo 1180429">
              <g id="Grupo_1180428" data-name="Grupo 1180428" clip-path="url(#clip-path-43)">
                <path id="Trazado_1043259" data-name="Trazado 1043259" d="M337.973,326.973a16.469,16.469,0,1,1,.188-3.161,16.444,16.444,0,0,1-.188,3.161" transform="translate(-305.248 -307.946)" fill="#ffedd7"/>
              </g>
            </g>
          </g>
          <path id="Trazado_1043260" data-name="Trazado 1043260" d="M327.759,330.279a15.9,15.9,0,0,1-2.483,1.256,15.106,15.106,0,0,1-2.654.81c-.52.111-1.033.2-1.553.26a16.138,16.138,0,0,1-5.679-.312h-.008a16.493,16.493,0,0,1-9.552-6.333,15.506,15.506,0,0,1-1.45-2.394c-.186-.371-.364-.758-.52-1.152-.186-.468-.357-.944-.5-1.42a17.2,17.2,0,0,1-.535-2.409,16.482,16.482,0,0,1,2.877-11.849,16.156,16.156,0,0,1,4.044-4c.245-.171.49-.335.751-.491a16.022,16.022,0,0,1,5.129-2.067,16.467,16.467,0,0,1,17.254,7.025,17.152,17.152,0,0,1,.892,1.539,14.135,14.135,0,0,1,.625,1.368,17.546,17.546,0,0,1,.625,1.851,17.089,17.089,0,0,1,.423,2.074,16.477,16.477,0,0,1-7.686,16.243" transform="translate(-86.604 -85.784)" fill="#4887fc"/>
          <path id="Trazado_1043261" data-name="Trazado 1043261" d="M322.287,333.783a16.157,16.157,0,0,1-5.679-.312H316.6l-4.267-11.278-1.843-4.869-3.569-9.411a16.16,16.16,0,0,1,4.044-4l4.386,11.567,1.844,4.869Z" transform="translate(-87.822 -86.962)" fill="#fdda5f"/>
          <path id="Trazado_1043262" data-name="Trazado 1043262" d="M335.088,314.93l-19.046,7.211-4.861,1.844-6.735,2.55c-.186-.372-.364-.759-.52-1.152-.186-.469-.357-.945-.5-1.42a17.249,17.249,0,0,1-.535-2.409l6.445-2.439,4.862-1.844,18.748-7.1a17.44,17.44,0,0,1,.892,1.539,14.31,14.31,0,0,1,.624,1.368,17.588,17.588,0,0,1,.625,1.85" transform="translate(-86.669 -88.753)" fill="#fdda5f"/>
          <path id="Trazado_1043263" data-name="Trazado 1043263" d="M271.139,347.007a.36.36,0,0,1-.027-.064l-3.277-10.3a.357.357,0,0,1,.68-.216l3.277,10.3a.357.357,0,0,1-.653.28" transform="translate(-76.633 -96.194)" fill="#4887fc"/>
          <path id="Trazado_1043264" data-name="Trazado 1043264" d="M279.3,347.983a.353.353,0,0,1,0-.211l3.255-11.148a.357.357,0,0,1,.685.2l-3.256,11.148a.357.357,0,0,1-.682.011" transform="translate(-79.913 -96.249)" fill="#4887fc"/>
          <path id="Trazado_1043265" data-name="Trazado 1043265" d="M285.651,354.111a.355.355,0,0,1,.087-.365l7.226-7.151a.357.357,0,0,1,.5.508l-7.226,7.151a.357.357,0,0,1-.5,0,.337.337,0,0,1-.085-.14" transform="translate(-81.731 -99.146)" fill="#4887fc"/>
        </g>
      </g>
      <rect id="Rectángulo_415804" data-name="Rectángulo 415804" width="356.93" height="438.182" transform="translate(-3005 5048)" fill="none"/>
    </g>
  </g>
</svg>
