<svg xmlns="http://www.w3.org/2000/svg" xmlns:xlink="http://www.w3.org/1999/xlink" width="108" height="108" viewBox="0 0 108 108">
  <defs>
    <filter id="Trazado_978624" x="0" y="0" width="108" height="108" filterUnits="userSpaceOnUse">
      <feOffset dy="3" input="SourceAlpha"/>
      <feGaussianBlur stdDeviation="3" result="blur"/>
      <feFlood flood-opacity="0.161"/>
      <feComposite operator="in" in2="blur"/>
      <feComposite in="SourceGraphic"/>
    </filter>
  </defs>
  <g id="Grupo_1179841" data-name="Grupo 1179841" transform="translate(-196 -525)">
    <g id="Grupo_1172348" data-name="Grupo 1172348" transform="translate(-420 79.5)">
      <g id="Grupo_1171897" data-name="Grupo 1171897" transform="translate(625 451.5)">
        <g id="Grupo_1171052" data-name="Grupo 1171052" transform="translate(0)">
          <g id="Grupo_1164581" data-name="Grupo 1164581">
            <g id="Grupo_1144123" data-name="Grupo 1144123">
              <g transform="matrix(1, 0, 0, 1, -9, -6)" filter="url(#Trazado_978624)">
                <g id="Trazado_978624-2" data-name="Trazado 978624" transform="translate(9 6)" fill="#ebe9f0">
                  <path d="M 45 88.5 C 39.12687683105469 88.5 33.43022537231445 87.35007476806641 28.06830024719238 85.08217620849609 C 22.88852500915527 82.89131164550781 18.23629951477051 79.75458526611328 14.2408504486084 75.75914764404297 C 10.24541282653809 71.76370239257812 7.108687400817871 67.11147308349609 4.917825222015381 61.93170166015625 C 2.649924993515015 56.56977462768555 1.5 50.87312316894531 1.5 45 C 1.5 39.12687683105469 2.649924993515015 33.43022537231445 4.917825222015381 28.06830024719238 C 7.108687400817871 22.88852500915527 10.24541282653809 18.23629951477051 14.2408504486084 14.2408504486084 C 18.23629951477051 10.24541282653809 22.88852500915527 7.108687400817871 28.06830024719238 4.917825222015381 C 33.43022537231445 2.649924993515015 39.12687683105469 1.5 45 1.5 C 50.87312316894531 1.5 56.56977462768555 2.649924993515015 61.93170166015625 4.917825222015381 C 67.11147308349609 7.108687400817871 71.76370239257812 10.24541282653809 75.75914764404297 14.2408504486084 C 79.75458526611328 18.23629951477051 82.89131164550781 22.88852500915527 85.08217620849609 28.06830024719238 C 87.35007476806641 33.43022537231445 88.5 39.12687683105469 88.5 45 C 88.5 50.87312316894531 87.35007476806641 56.56977462768555 85.08217620849609 61.93170166015625 C 82.89131164550781 67.11147308349609 79.75458526611328 71.76370239257812 75.75914764404297 75.75914764404297 C 71.76370239257812 79.75458526611328 67.11147308349609 82.89131164550781 61.93170166015625 85.08217620849609 C 56.56977462768555 87.35007476806641 50.87312316894531 88.5 45 88.5 Z" stroke="none"/>
                  <path d="M 45 3 C 39.32871246337891 3 33.82865524291992 4.110054016113281 28.65262985229492 6.299339294433594 C 23.65165710449219 8.414573669433594 19.15968322753906 11.44334411621094 15.301513671875 15.301513671875 C 11.44334411621094 19.15968322753906 8.414573669433594 23.65165710449219 6.299339294433594 28.65262985229492 C 4.110054016113281 33.82865524291992 3 39.32871246337891 3 45 C 3 50.67128753662109 4.110054016113281 56.17134475708008 6.299339294433594 61.34737396240234 C 8.414573669433594 66.34834289550781 11.44334411621094 70.84031677246094 15.301513671875 74.698486328125 C 19.15968322753906 78.55665588378906 23.65165710449219 81.58542633056641 28.65262985229492 83.70066070556641 C 33.82865524291992 85.88994598388672 39.32871246337891 87 45 87 C 50.67128753662109 87 56.17134475708008 85.88994598388672 61.34737396240234 83.70066070556641 C 66.34834289550781 81.58542633056641 70.84031677246094 78.55665588378906 74.698486328125 74.698486328125 C 78.55665588378906 70.84031677246094 81.58542633056641 66.34834289550781 83.70066070556641 61.34737396240234 C 85.88994598388672 56.17134475708008 87 50.67128753662109 87 45 C 87 39.32871246337891 85.88994598388672 33.82865524291992 83.70066070556641 28.65262985229492 C 81.58542633056641 23.65165710449219 78.55665588378906 19.15968322753906 74.698486328125 15.301513671875 C 70.84031677246094 11.44334411621094 66.34834289550781 8.414573669433594 61.34737396240234 6.299339294433594 C 56.17134475708008 4.110054016113281 50.67128753662109 3 45 3 M 45 0 C 69.85281372070312 0 90 20.14718627929688 90 45 C 90 69.85281372070312 69.85281372070312 90 45 90 C 20.14718627929688 90 0 69.85281372070312 0 45 C 0 20.14718627929688 20.14718627929688 0 45 0 Z" stroke="none" fill="#453179"/>
                </g>
              </g>
            </g>
          </g>
        </g>
      </g>
    </g>
    <g id="impresion-de-la-mano" transform="translate(221 545.64)">
      <path id="Trazado_1042103" data-name="Trazado 1042103" d="M44.756,239.171c-5.756,4.293-13.749,3.2-20.291-3.337-5.382-5.382-8.31-10.125-7.413-14.937.744-3.99,4.145-5.187,7.145-6.2,3.828-1.3,3.541-5.254,7.759-6.421,4.2-1.162,9,1.044,14.011,6.06C55.656,224.02,51.167,234.39,44.756,239.171Z" transform="translate(-14.96 -182.982)" fill="#00ce8e"/>
      <path id="Trazado_1042104" data-name="Trazado 1042104" d="M44.757,240.168a17.6,17.6,0,0,0,1.538-1.293c-18.161.535-18.021-20.893-13.562-29.781q-.391.069-.776.175c-4.218,1.167-3.931,5.123-7.759,6.421-3,1.018-6.4,2.214-7.145,6.2-.9,4.811,2.031,9.555,7.413,14.937C31.008,243.373,39,244.461,44.757,240.168Z" transform="translate(-14.961 -183.978)" fill="#00c172"/>
      <path id="Trazado_1042105" data-name="Trazado 1042105" d="M182.994,19.467l4.9-8.487a4.222,4.222,0,1,1,7.312,4.222l-4.9,8.487a4.222,4.222,0,0,1-7.312-4.222Z" transform="translate(-161.566 -6.65)" fill="#ffbbd5"/>
      <path id="Trazado_1042106" data-name="Trazado 1042106" d="M356.786,218.938a4.222,4.222,0,0,1,1.545-5.767l8.512-4.915a4.222,4.222,0,1,1,4.222,7.312l-8.512,4.915A4.222,4.222,0,0,1,356.786,218.938Z" transform="translate(-315.484 -182.735)" fill="#827cd1"/>
      <path id="Trazado_1042107" data-name="Trazado 1042107" d="M364.3,225.483l-5.969,3.446a4.222,4.222,0,0,0,4.222,7.312l4.609-2.661C363.524,232.286,363.768,227.664,364.3,225.483Z" transform="translate(-315.483 -198.493)" fill="#625ac4"/>
      <path id="Trazado_1042108" data-name="Trazado 1042108" d="M369.2,372.65a4.222,4.222,0,0,1,3.838-4.574l5.932-.519a4.222,4.222,0,0,1,.736,8.411l-5.932.519A4.222,4.222,0,0,1,369.2,372.65Z" transform="translate(-326.965 -324.306)" fill="#ffb25a"/>
      <path id="Trazado_1042109" data-name="Trazado 1042109" d="M283.641,90.487a4.222,4.222,0,0,1,0-5.97l8.826-8.826a4.222,4.222,0,0,1,5.97,5.97l-8.826,8.826a4.222,4.222,0,0,1-5.97,0Z" transform="translate(-250.109 -64.735)" fill="#ff6e80"/>
      <path id="Trazado_1042110" data-name="Trazado 1042110" d="M7.5,90.414V84.156a4.222,4.222,0,1,1,8.443,0v6.258a4.222,4.222,0,0,1-8.443,0Z" transform="translate(-6.642 -69.588)" fill="#59d5ff"/>
      <g id="Grupo_1179840" data-name="Grupo 1179840" transform="translate(8.89 33.235)">
        <g id="Grupo_1179839" data-name="Grupo 1179839" transform="translate(0 0)">
          <ellipse id="Elipse_12463" data-name="Elipse 12463" cx="2.634" cy="3.307" rx="2.634" ry="3.307" transform="translate(0 3.724) rotate(-45)" fill="#fff"/>
          <ellipse id="Elipse_12464" data-name="Elipse 12464" cx="2.634" cy="3.307" rx="2.634" ry="3.307" transform="translate(12.673 16.4) rotate(-45)" fill="#fff"/>
        </g>
      </g>
      <path id="Trazado_1042111" data-name="Trazado 1042111" d="M187.72,29.957l-4.727,8.187a4.222,4.222,0,1,0,7.312,4.222l2.149-3.722C188.4,37.485,186.908,32.941,187.72,29.957Z" transform="translate(-161.566 -25.327)" fill="#ff96c0"/>
      <path id="Trazado_1042112" data-name="Trazado 1042112" d="M11.722,104.782a4.222,4.222,0,0,0,4.222-4.222V98.218a6.881,6.881,0,0,1-7.277-6.827A4.207,4.207,0,0,0,7.5,94.3v6.258a4.221,4.221,0,0,0,4.222,4.222Z" transform="translate(-6.642 -79.735)" fill="#00c4fc"/>
      <path id="Trazado_1042113" data-name="Trazado 1042113" d="M290.513,102.348l-6.872,6.872a4.222,4.222,0,0,0,5.97,5.97l4.082-4.082C290.128,110.123,289.538,105.163,290.513,102.348Z" transform="translate(-250.109 -89.439)" fill="#f8475e"/>
      <path id="Trazado_1042114" data-name="Trazado 1042114" d="M378.182,378.328c-4.1-2.252-3.288-6.5-2.31-8.274l-2.834.248a4.222,4.222,0,0,0,.736,8.411Z" transform="translate(-326.965 -326.531)" fill="#ff8b43"/>
      <path id="Trazado_1042115" data-name="Trazado 1042115" d="M32.925,26.358a5.077,5.077,0,0,0,7.183,0l8.826-8.826a5.079,5.079,0,0,0-3.545-8.671h-.008a.858.858,0,0,0-.008,1.715,3.364,3.364,0,0,1,2.348,5.742L38.9,25.145a3.364,3.364,0,0,1-4.757-4.757l8.221-8.221a.858.858,0,0,0-1.213-1.213l-8.221,8.221a5.085,5.085,0,0,0,0,7.183ZM22.544,19.327a5.076,5.076,0,0,0,6.939-1.859l4.9-8.487a5.079,5.079,0,1,0-8.8-5.079l-4.9,8.486a5.077,5.077,0,0,0,1.859,6.939Zm-.374-6.081,4.9-8.486A3.364,3.364,0,1,1,32.9,8.123L28,16.61a3.364,3.364,0,0,1-5.827-3.364ZM5.079,25.9h0a5.085,5.085,0,0,0,5.079-5.079V14.567A5.076,5.076,0,0,0,5.08,9.488h0A5.085,5.085,0,0,0,0,14.567v6.258A5.076,5.076,0,0,0,5.079,25.9ZM1.715,20.825V14.567a3.364,3.364,0,0,1,6.728,0v6.258a3.364,3.364,0,0,1-6.728,0ZM51.93,42.4,46,42.917a5.079,5.079,0,1,0,.885,10.12l5.932-.519A5.079,5.079,0,0,0,51.93,42.4Zm.736,8.411-5.932.519a3.364,3.364,0,1,1-.586-6.7l5.932-.519a3.364,3.364,0,0,1,.586,6.7ZM16.991,36.268a.716.716,0,0,1,0,1.013A.858.858,0,0,0,18.2,38.494a2.432,2.432,0,1,0-3.439-3.439.858.858,0,0,0,1.213,1.213A.716.716,0,0,1,16.991,36.268ZM57.87,26.638a5.076,5.076,0,0,0-6.939-1.859l-8.512,4.915a5.085,5.085,0,0,0-1.859,6.938h0A5.077,5.077,0,0,0,47.5,38.491l8.512-4.915a5.076,5.076,0,0,0,1.859-6.938Zm-2.717,5.453-8.512,4.915a3.362,3.362,0,0,1-4.6-1.231h0a3.362,3.362,0,0,1,1.231-4.6l8.512-4.915a3.364,3.364,0,1,1,3.364,5.827ZM26.941,48.444a.858.858,0,0,0,1.213,0A2.432,2.432,0,1,0,24.715,45a.858.858,0,0,0,1.213,1.213.716.716,0,1,1,1.013,1.013A.858.858,0,0,0,26.941,48.444Zm-7.9-7.43a.859.859,0,0,0-.914.8A3.071,3.071,0,0,0,21.4,45.086a.858.858,0,1,0-.117-1.711,1.355,1.355,0,0,1-1.447-1.447.858.858,0,0,0-.8-.915Zm-2.27-16.55a8.017,8.017,0,0,0-4.6,3.638,6.359,6.359,0,0,1-3.2,2.8c-2.9.983-6.868,2.33-7.713,6.86-.875,4.693,1.484,9.535,7.65,15.7a24.563,24.563,0,0,0,3.514,2.93.858.858,0,0,0,.966-1.418,22.823,22.823,0,0,1-3.267-2.725C4.388,46.523,2.175,42.152,2.935,38.073c.66-3.542,3.8-4.609,6.578-5.549A8.024,8.024,0,0,0,13.558,29.1c.948-1.32,1.767-2.46,3.666-2.986,4.738-1.31,9.69,2.354,13.176,5.84,3.8,3.8,5.638,8.067,5.328,12.353A15.76,15.76,0,0,1,29.283,55.5,12.405,12.405,0,0,1,16.777,56.81a.858.858,0,1,0-.645,1.589,14.25,14.25,0,0,0,14.177-1.522,17.494,17.494,0,0,0,7.13-12.444c.347-4.8-1.667-9.531-5.825-13.69-3.992-3.992-9.411-7.784-14.847-6.28Z" transform="translate(0)"/>
    </g>
  </g>
</svg>
