<svg xmlns="http://www.w3.org/2000/svg" width="71.921" height="76.853" viewBox="0 0 71.921 76.853">
  <g id="madre" transform="translate(0)">
    <g id="Grupo_1180094" data-name="Grupo 1180094" transform="translate(17.911 23.285)">
      <path id="Trazado_1042687" data-name="Trazado 1042687" d="M17.546,133.534l.058-.409H50.412l.058.409a36.723,36.723,0,0,0,7.653,17.594,10.236,10.236,0,0,1,2.393,6.381c0,8.476-11.868,15.347-26.508,15.347S7.5,165.985,7.5,157.509a10.236,10.236,0,0,1,2.393-6.381A36.725,36.725,0,0,0,17.546,133.534Z" transform="translate(-7.5 -133.125)" fill="#e7886e"/>
    </g>
    <g id="Grupo_1180095" data-name="Grupo 1180095" transform="translate(31.063 47.917)">
      <path id="Trazado_1042688" data-name="Trazado 1042688" d="M76.9,293.682S93.363,298.3,90.417,316.1a6.621,6.621,0,0,1-6.536,5.529H57.538V293.682Z" transform="translate(-57.538 -293.682)" fill="#ff9db0"/>
    </g>
    <g id="Grupo_1180098" data-name="Grupo 1180098" transform="translate(21.729 0.994)">
      <g id="Grupo_1180096" data-name="Grupo 1180096" transform="translate(22.69)">
        <path id="Trazado_1042689" data-name="Trazado 1042689" d="M36.308,7.5A22.7,22.7,0,0,1,58.364,35.53H41.856Z" transform="translate(-36.308 -7.5)" fill="#e7886e"/>
      </g>
      <g id="Grupo_1180097" data-name="Grupo 1180097" transform="translate(0)">
        <path id="Trazado_1042690" data-name="Trazado 1042690" d="M152.529,35.53A22.7,22.7,0,0,1,174.585,7.5c9.149,3,8.186,14.888,5.548,18.534v9.5Z" transform="translate(-151.895 -7.5)" fill="#ed9b83"/>
      </g>
    </g>
    <g id="Grupo_1180099" data-name="Grupo 1180099" transform="translate(58.788 27.725)">
      <ellipse id="Elipse_12480" data-name="Elipse 12480" cx="4.903" cy="4.903" rx="4.903" ry="4.903" transform="translate(0)" fill="#f9bbaf"/>
    </g>
    <g id="Grupo_1180100" data-name="Grupo 1180100" transform="translate(17.314 27.725)">
      <ellipse id="Elipse_12481" data-name="Elipse 12481" cx="4.903" cy="4.903" rx="4.903" ry="4.903" transform="translate(0)" fill="#ffcbbe"/>
    </g>
    <g id="Grupo_1180101" data-name="Grupo 1180101" transform="translate(39.125 23.405)">
      <path id="Trazado_1042691" data-name="Trazado 1042691" d="M83.119,145.876a2.214,2.214,0,0,1,2.519.4,8.016,8.016,0,0,0,8.05,2.323l.011,0a1.056,1.056,0,0,1,1.367.761,17.92,17.92,0,0,1-22.788,21.015Z" transform="translate(-72.277 -145.652)" fill="#ffcbbe"/>
    </g>
    <g id="Grupo_1180102" data-name="Grupo 1180102" transform="translate(24.556 14.252)">
      <path id="Trazado_1042692" data-name="Trazado 1042692" d="M163.461,85.958a2.128,2.128,0,0,1,3.142,1.2l.008.026c1.684,5.261,6.557,8.4,10.885,7.018a6.769,6.769,0,0,0,.921-.371l.022-.01a18.489,18.489,0,0,1-10.834,24.5h0a17.917,17.917,0,0,1-4.145-32.358Z" transform="translate(-154.97 -85.642)" fill="#ffded0"/>
    </g>
    <g id="Grupo_1180109" data-name="Grupo 1180109" transform="translate(27.921 27.963)">
      <g id="Grupo_1180105" data-name="Grupo 1180105" transform="translate(0 2.8)">
        <g id="Grupo_1180103" data-name="Grupo 1180103" transform="translate(22.151)">
          <ellipse id="Elipse_12482" data-name="Elipse 12482" cx="4.087" cy="3.255" rx="4.087" ry="3.255" fill="#ffa1ac"/>
        </g>
        <g id="Grupo_1180104" data-name="Grupo 1180104">
          <ellipse id="Elipse_12483" data-name="Elipse 12483" cx="4.087" cy="3.255" rx="4.087" ry="3.255" fill="#ffa1ac"/>
        </g>
      </g>
      <g id="Grupo_1180106" data-name="Grupo 1180106" transform="translate(22.862 0.297)">
        <path id="Trazado_1042693" data-name="Trazado 1042693" d="M135.4,188.709a.994.994,0,0,0,.994-.994v-1.59a.994.994,0,0,0-1.988,0v1.59A.994.994,0,0,0,135.4,188.709Z" transform="translate(-134.405 -185.13)"/>
      </g>
      <g id="Grupo_1180107" data-name="Grupo 1180107" transform="translate(11.876 1.878)">
        <path id="Trazado_1042694" data-name="Trazado 1042694" d="M185.993,200.09a4.035,4.035,0,0,0,3.042-1.385.994.994,0,0,0-1.5-1.306,2.044,2.044,0,0,1-3.086,0,.994.994,0,1,0-1.5,1.306A4.035,4.035,0,0,0,185.993,200.09Z" transform="translate(-182.706 -197.057)"/>
      </g>
      <g id="Grupo_1180108" data-name="Grupo 1180108" transform="translate(3.324)">
        <path id="Trazado_1042695" data-name="Trazado 1042695" d="M255,186.72a.994.994,0,0,0,.994-.994.849.849,0,0,1,1.7,0,.994.994,0,1,0,1.988,0,2.837,2.837,0,0,0-5.674,0A.994.994,0,0,0,255,186.72Z" transform="translate(-254.006 -182.889)"/>
      </g>
    </g>
    <g id="Grupo_1180110" data-name="Grupo 1180110" transform="translate(8.586 64.448)">
      <path id="Trazado_1042696" data-name="Trazado 1042696" d="M287.294,429.818H271.009a3.766,3.766,0,0,1-2.952-6.112,14.265,14.265,0,0,1,22.189,0A3.766,3.766,0,0,1,287.294,429.818Z" transform="translate(-267.223 -418.407)" fill="#5c586f"/>
    </g>
    <g id="Grupo_1180111" data-name="Grupo 1180111" transform="translate(15.231 34.656)">
      <path id="Trazado_1042697" data-name="Trazado 1042697" d="M228.578,220.044a17.06,17.06,0,0,1,22.929,20.535H238.381Z" transform="translate(-228.578 -218.734)" fill="#e7886e"/>
    </g>
    <g id="Grupo_1180112" data-name="Grupo 1180112" transform="translate(3.464 36.058)">
      <path id="Trazado_1042698" data-name="Trazado 1042698" d="M338.1,228.616a17.07,17.07,0,0,1,9.8,20.535H328.3a17.07,17.07,0,0,1,9.8-20.535Z" transform="translate(-327.614 -228.616)" fill="#ed9b83"/>
    </g>
    <g id="Grupo_1180113" data-name="Grupo 1180113" transform="translate(34.67 53.228)">
      <ellipse id="Elipse_12484" data-name="Elipse 12484" cx="3.776" cy="3.776" rx="3.776" ry="3.776" transform="translate(0)" fill="#f9bbaf"/>
    </g>
    <g id="Grupo_1180114" data-name="Grupo 1180114" transform="translate(0.994 53.228)">
      <ellipse id="Elipse_12485" data-name="Elipse 12485" cx="3.776" cy="3.776" rx="3.776" ry="3.776" fill="#ffcbbe"/>
    </g>
    <g id="Grupo_1180115" data-name="Grupo 1180115" transform="translate(17.871 48.906)">
      <path id="Trazado_1042699" data-name="Trazado 1042699" d="M261.076,301.144h5.449a4.539,4.539,0,0,1,4.109,2.6A13.649,13.649,0,0,1,254.307,322.6Z" transform="translate(-254.307 -301.144)" fill="#ffcbbe"/>
    </g>
    <g id="Grupo_1180116" data-name="Grupo 1180116" transform="translate(6.874 48.906)">
      <path id="Trazado_1042700" data-name="Trazado 1042700" d="M314.341,309.545a13.585,13.585,0,0,1,1.295-5.808,4.537,4.537,0,0,1,4.107-2.594h11.028A13.644,13.644,0,0,1,324,322.6,13.646,13.646,0,0,1,314.341,309.545Z" transform="translate(-314.341 -301.144)" fill="#ffded0"/>
    </g>
    <g id="Grupo_1180119" data-name="Grupo 1180119" transform="translate(33.182 49.628)">
      <g id="Grupo_1180117" data-name="Grupo 1180117" transform="translate(14.344)">
        <path id="Trazado_1042701" data-name="Trazado 1042701" d="M72.278,314.047a23.016,23.016,0,0,0,3.214-2.88,24.955,24.955,0,0,0,1.948-2.377,5.334,5.334,0,0,1,8.645,6.251,35.521,35.521,0,0,1-4.4,5.035,33.09,33.09,0,0,1-3.014,2.524Z" transform="translate(-72.278 -306.59)" fill="#ffb2c1"/>
      </g>
      <g id="Grupo_1180118" data-name="Grupo 1180118" transform="translate(0 7.436)">
        <path id="Trazado_1042702" data-name="Trazado 1042702" d="M132.7,372.594a5.335,5.335,0,0,1,4.585-5.992A20.77,20.77,0,0,0,147,362.713a6.3,6.3,0,0,1,6.388,8.553,31.3,31.3,0,0,1-14.693,5.913A5.335,5.335,0,0,1,132.7,372.594Z" transform="translate(-132.653 -362.692)" fill="#ffded0"/>
      </g>
    </g>
    <g id="Grupo_1180120" data-name="Grupo 1180120" transform="translate(0 0)">
      <path id="Trazado_1042703" data-name="Trazado 1042703" d="M2.62,52A20.444,20.444,0,0,1,14.38,33.277a18.276,18.276,0,0,1,1.72-.665,6.906,6.906,0,0,1,1.612-4.346c-.024-.48-.039-.964-.039-1.444C17.672,12.032,28.933,0,42.773,0s25.1,12.032,25.1,26.822c0,.48-.015.963-.039,1.444a7,7,0,0,1-.212,9.189c.488.754,1,1.5,1.535,2.218A13.157,13.157,0,0,1,71.921,47.6c0,4.636-2.646,9.024-7.466,12.414A28.328,28.328,0,0,1,64.5,69.65a8.217,8.217,0,0,1-7.967,7.2H13.112a5.009,5.009,0,0,1-4.567-3.084A5.6,5.6,0,0,1,9.164,68.1a17,17,0,0,1,1.53-1.755,16.177,16.177,0,0,1-1.353-1.67,16.889,16.889,0,0,1-1.783-3.241,4.77,4.77,0,0,1-2.5.705A5.243,5.243,0,0,1,0,56.735,5.472,5.472,0,0,1,2.62,52Zm2.122-.659c.1-.007.208-.011.313-.011a4.759,4.759,0,0,1,1.456.228A17.2,17.2,0,0,1,7.7,47.66a5.868,5.868,0,0,1,5.306-3.583H30.473a5.87,5.87,0,0,1,5.307,3.587,17.209,17.209,0,0,1,1.192,3.9,4.759,4.759,0,0,1,1.456-.228c.105,0,.21,0,.313.011-.392-9.658-7.867-17.387-17-17.387a15.977,15.977,0,0,0-6.55,1.4A18.142,18.142,0,0,0,4.742,51.345Zm49.6,10.066c.328-.307.653-.618.97-.937a38.429,38.429,0,0,0,4.537-5.542,5.148,5.148,0,0,0,.691-4.214,4.8,4.8,0,0,0-2.678-3.2,4.4,4.4,0,0,0-5.466,1.654,29.123,29.123,0,0,1-2.147,2.8q-.754.868-1.561,1.651A8.076,8.076,0,0,1,54.177,59.9,8.815,8.815,0,0,1,54.338,61.411Zm-8.9-7.853a23.6,23.6,0,0,0,2.628-2.423,18.632,18.632,0,0,1-4.442.74q-.42.019-.84.019a18.931,18.931,0,0,1-1.927-.1c0,.071,0,.142,0,.213a5.362,5.362,0,0,1,2.374,3.072,21.033,21.033,0,0,0,2.2-1.518Zm-7.014.027a2.778,2.778,0,0,0-1.2.273q.02.428.021.859a17.989,17.989,0,0,1-.217,2.789,20.194,20.194,0,0,0,4.279-1.415A3.008,3.008,0,0,0,38.428,53.585ZM21.742,31.707q.512,0,1.018.029c-.023-.421-.035-.844-.035-1.265,0-.711.035-1.42.1-2.125a3.913,3.913,0,0,0-.479-.032,4.245,4.245,0,0,0-4.092,3.733A18.02,18.02,0,0,1,21.742,31.707ZM42.773,2.252c-12.626,0-22.906,10.931-22.992,24.4a5.849,5.849,0,0,1,3.364-.536,22.3,22.3,0,0,1,1.946-5.749,1.02,1.02,0,0,1,1.426-.46,1.166,1.166,0,0,1,.431,1.524,20.251,20.251,0,0,0-2.116,9.039c0,.5.02,1.011.056,1.514,8.256,1.467,14.742,8.6,15.82,17.528a16.937,16.937,0,0,0,2.832.113A16.746,16.746,0,0,0,50.9,47.552a6.641,6.641,0,0,1,3.383-2.394c.022-.024.046-.048.071-.071A19.751,19.751,0,0,0,60.7,31.229a20.484,20.484,0,0,0-.414-4.922.037.037,0,0,0-.021-.029.1.1,0,0,0-.083,0l-.008,0c-3.247,1.11-6.833.024-9.594-2.9a1.237,1.237,0,0,0-1.474-.241l-.025.012-.006,0a7.958,7.958,0,0,1-1.1.472,8.521,8.521,0,0,1-7.711-1.278,13.668,13.668,0,0,1-5.15-7.4l-.005-.017,0-.015a1.291,1.291,0,0,0-.752-.85,1.082,1.082,0,0,0-1.018.109A18.348,18.348,0,0,0,29.654,17.4a1.007,1.007,0,0,1-1.489.055,1.181,1.181,0,0,1-.051-1.591,20.485,20.485,0,0,1,4.109-3.605,3.07,3.07,0,0,1,2.859-.308,3.475,3.475,0,0,1,2.032,2.288l.006.019A11.428,11.428,0,0,0,41.4,20.45a6.568,6.568,0,0,0,5.928,1.025,5.918,5.918,0,0,0,.833-.358L48.2,21.1l.012-.006a3.247,3.247,0,0,1,3.852.682c2.193,2.326,4.985,3.207,7.468,2.358l.01,0a2.082,2.082,0,0,1,1.77.195,2.3,2.3,0,0,1,1.03,1.494c.021.1.038.2.058.3a5.85,5.85,0,0,1,3.364.536c-.085-13.471-10.366-24.4-22.992-24.4Zm24.57,30.49A4.3,4.3,0,0,0,63.2,28.314a3.922,3.922,0,0,0-.479.032,22.95,22.95,0,0,1,.086,2.971,22.479,22.479,0,0,1-.93,5.62,3.919,3.919,0,0,0,1.324.232A4.3,4.3,0,0,0,67.343,32.741ZM69.814,47.6A10.868,10.868,0,0,0,67.5,41.069c-.555-.749-1.09-1.523-1.6-2.308a5.866,5.866,0,0,1-4.777.28,21.79,21.79,0,0,1-3.688,6,6.471,6.471,0,0,1,1.217.4,6.99,6.99,0,0,1,3.9,4.666,7.587,7.587,0,0,1-.054,4.125A21.447,21.447,0,0,1,63.89,57.7c3.83-2.885,5.923-6.434,5.923-10.1ZM62.425,69.282a23.557,23.557,0,0,0-1.152-12.627,40.521,40.521,0,0,1-4.519,5.457,36.952,36.952,0,0,1-3.29,2.945,34.491,34.491,0,0,1-3.787,2.609,1.019,1.019,0,0,1-1.433-.438,1.167,1.167,0,0,1,.41-1.531,32.328,32.328,0,0,0,3.3-2.249,6.385,6.385,0,0,0,.161-3.092,5.719,5.719,0,0,0-5.679-4.786,22.278,22.278,0,0,1-10.522,4.416,4.518,4.518,0,0,0-3.047,1.886,5.134,5.134,0,0,0-.907,3.636,4.673,4.673,0,0,0,5.167,4.225,31.445,31.445,0,0,0,7.207-1.906,1.035,1.035,0,0,1,1.355.662,1.15,1.15,0,0,1-.619,1.448A33.444,33.444,0,0,1,37.4,71.964a6.311,6.311,0,0,1-.889.063,6.235,6.235,0,0,1-1.1-.1,5.686,5.686,0,0,1-.94,2.673h22.06a6.07,6.07,0,0,0,5.888-5.319ZM10.446,72.8a2.888,2.888,0,0,0,2.666,1.8h17.4l.052-.006a2.833,2.833,0,0,0,2.168-1.26,3.378,3.378,0,0,0,.581-2.182,6.988,6.988,0,0,1-2.675-2.841,14.916,14.916,0,0,1-8.722,2.978h-.177a14.594,14.594,0,0,1-4.524-.717,15.2,15.2,0,0,1-4.938-2.733A14.793,14.793,0,0,0,10.8,69.513a3.2,3.2,0,0,0-.356,3.286Zm.578-9.48a13.557,13.557,0,0,0,6.807,5.1,12.56,12.56,0,0,0,4.064.618,12.915,12.915,0,0,0,8.017-2.946c-.016-.1-.03-.192-.042-.288a7.483,7.483,0,0,1,1.322-5.3,6.647,6.647,0,0,1,3.616-2.574,15.482,15.482,0,0,0,.336-3.212,15.011,15.011,0,0,0-1.27-6.094,3.76,3.76,0,0,0-3.4-2.3H13.01a3.757,3.757,0,0,0-3.4,2.292,15.013,15.013,0,0,0-1.272,6.1,14.847,14.847,0,0,0,2.685,8.6ZM5.055,59.885a2.8,2.8,0,0,0,1.763-.629,17.678,17.678,0,0,1-.587-4.539q0-.432.021-.859a2.778,2.778,0,0,0-1.2-.273,3.157,3.157,0,0,0,0,6.3Z" transform="translate(0 0)"/>
      <path id="Trazado_1042704" data-name="Trazado 1042704" d="M410.717,340.846a.994.994,0,0,1,.994.994v1.528a.994.994,0,0,1-1.988,0V341.84A.994.994,0,0,1,410.717,340.846Z" transform="translate(-398.155 -289.357)"/>
      <path id="Trazado_1042705" data-name="Trazado 1042705" d="M290.717,340.846a.994.994,0,0,1,.994.994v1.528a.994.994,0,1,1-1.988,0V341.84A.994.994,0,0,1,290.717,340.846Z" transform="translate(-260.557 -289.357)"/>
      <path id="Trazado_1042706" data-name="Trazado 1042706" d="M334.244,352.277a.994.994,0,0,1,1.4.1,1.785,1.785,0,0,0,2.695,0,.994.994,0,1,1,1.5,1.306,3.773,3.773,0,0,1-5.692,0A.994.994,0,0,1,334.244,352.277Z" transform="translate(-315.333 -298.911)"/>
    </g>
  </g>
</svg>
