<svg xmlns="http://www.w3.org/2000/svg" xmlns:xlink="http://www.w3.org/1999/xlink" width="93.934" height="93.934" viewBox="0 0 93.934 93.934">
  <defs>
    <filter id="Trazado_982547" x="0" y="0" width="93.934" height="93.934" filterUnits="userSpaceOnUse">
      <feOffset dy="3" input="SourceAlpha"/>
      <feGaussianBlur stdDeviation="3" result="blur"/>
      <feFlood flood-opacity="0.161"/>
      <feComposite operator="in" in2="blur"/>
      <feComposite in="SourceGraphic"/>
    </filter>
  </defs>
  <g id="Grupo_1180441" data-name="Grupo 1180441" transform="translate(-199 -5153)">
    <g id="Grupo_1179411" data-name="Grupo 1179411" transform="translate(10 4418)">
      <g id="Grupo_1175133" data-name="Grupo 1175133" transform="translate(-0.033 -1251)">
        <g id="Grupo_1167337" data-name="Grupo 1167337" transform="translate(198.033 1992)">
          <g id="Grupo_1166720" data-name="Grupo 1166720">
            <g id="Grupo_1164305" data-name="Grupo 1164305">
              <g id="Grupo_1163948" data-name="Grupo 1163948">
                <g id="Grupo_1158168" data-name="Grupo 1158168">
                  <g id="Grupo_1152576" data-name="Grupo 1152576">
                    <g id="Grupo_1148633" data-name="Grupo 1148633">
                      <g id="Grupo_1148525" data-name="Grupo 1148525">
                        <g transform="matrix(1, 0, 0, 1, -9, -6)" filter="url(#Trazado_982547)">
                          <g id="Trazado_982547-2" data-name="Trazado 982547" transform="translate(9 6)" fill="#fdfbec">
                            <path d="M 37.966796875 74.43359375 C 33.04315185546875 74.43359375 28.26757431030273 73.46962738037109 23.77274131774902 71.56847381591797 C 19.43047523498535 69.73184967041016 15.53040790557861 67.10224914550781 12.18087482452393 63.75271987915039 C 8.831341743469238 60.4031867980957 6.201741218566895 56.50312042236328 4.365118980407715 52.16086196899414 C 2.463963508605957 47.66601943969727 1.499996900558472 42.89044189453125 1.499996900558472 37.966796875 C 1.499996900558472 33.04315185546875 2.463963508605957 28.26757431030273 4.365118980407715 23.77274131774902 C 6.201741218566895 19.43047523498535 8.831341743469238 15.53040790557861 12.18087482452393 12.18087482452393 C 15.53040790557861 8.831341743469238 19.43047523498535 6.201741218566895 23.77274131774902 4.365118980407715 C 28.26757431030273 2.463963508605957 33.04315185546875 1.499996900558472 37.966796875 1.499996900558472 C 42.89044189453125 1.499996900558472 47.66601943969727 2.463963508605957 52.16086196899414 4.365118980407715 C 56.50312042236328 6.201741218566895 60.4031867980957 8.831341743469238 63.75271987915039 12.18087482452393 C 67.10224914550781 15.53040790557861 69.73184967041016 19.43047523498535 71.56847381591797 23.77274131774902 C 73.46962738037109 28.26757431030273 74.43359375 33.04315185546875 74.43359375 37.966796875 C 74.43359375 42.89044189453125 73.46962738037109 47.66601943969727 71.56847381591797 52.16086196899414 C 69.73184967041016 56.50313186645508 67.10224914550781 60.4031867980957 63.75271987915039 63.75271987915039 C 60.4031867980957 67.10224914550781 56.50313186645508 69.73184967041016 52.16086196899414 71.56847381591797 C 47.66601943969727 73.46962738037109 42.89044189453125 74.43359375 37.966796875 74.43359375 Z" stroke="none"/>
                            <path d="M 37.966796875 3 C 33.2449836730957 3 28.66600799560547 3.924095153808594 24.35705947875977 5.746635437011719 C 20.19359588623047 7.507637023925781 16.45379638671875 10.02928161621094 13.24153518676758 13.24153518676758 C 10.02927398681641 16.45379638671875 7.507621765136719 20.19359588623047 5.746635437011719 24.35705947875977 C 3.924095153808594 28.66600799560547 3 33.2449836730957 3 37.966796875 C 3 42.6886100769043 3.924095153808594 47.26758575439453 5.746635437011719 51.57653427124023 C 7.507621765136719 55.73999786376953 10.02927398681641 59.47979736328125 13.24153518676758 62.69205856323242 C 16.45379638671875 65.90431976318359 20.19359588623047 68.42597198486328 24.35705947875977 70.18695831298828 C 28.66600799560547 72.00949859619141 33.2449836730957 72.93359375 37.966796875 72.93359375 C 42.6886100769043 72.93359375 47.26758575439453 72.00949859619141 51.57653427124023 70.18695831298828 C 55.73999786376953 68.42597198486328 59.47979736328125 65.90431976318359 62.69205856323242 62.69205856323242 C 65.90431976318359 59.47979736328125 68.42597198486328 55.73999786376953 70.18695831298828 51.57653427124023 C 72.00949859619141 47.26758575439453 72.93359375 42.6886100769043 72.93359375 37.966796875 C 72.93359375 33.2449836730957 72.00949859619141 28.66600799560547 70.18695831298828 24.35705947875977 C 68.42597198486328 20.19359588623047 65.90431976318359 16.45379638671875 62.69205856323242 13.24153518676758 C 59.47979736328125 10.02928161621094 55.73999786376953 7.507637023925781 51.57653427124023 5.746635437011719 C 47.26758575439453 3.924095153808594 42.6886100769043 3 37.966796875 3 M 37.966796875 0 C 58.93528366088867 0 75.93359375 16.99832153320312 75.93359375 37.966796875 C 75.93359375 58.93528366088867 58.93528366088867 75.93359375 37.966796875 75.93359375 C 16.99831008911133 75.93359375 0 58.93528366088867 0 37.966796875 C 0 16.99832153320312 16.99831008911133 0 37.966796875 0 Z" stroke="none" fill="#84792b"/>
                          </g>
                        </g>
                      </g>
                    </g>
                  </g>
                </g>
              </g>
            </g>
          </g>
        </g>
      </g>
    </g>
    <g id="leer_1_" data-name="leer (1)" transform="translate(195.885 5171)">
      <g id="Grupo_1180439" data-name="Grupo 1180439" transform="translate(27.852 0.737)">
        <g id="Grupo_1180435" data-name="Grupo 1180435" transform="translate(5.559)">
          <path id="Trazado_1043266" data-name="Trazado 1043266" d="M123.574,23.922a16.2,16.2,0,1,0-32.407,0c0,9.07,7.255,9.754,16.2,9.754S123.574,32.992,123.574,23.922Z" transform="translate(-91.167 -7.5)" fill="#665e66"/>
          <path id="Trazado_1043267" data-name="Trazado 1043267" d="M107.158,33.679c-8.851-.011-15.991-.755-15.991-9.753A16.314,16.314,0,0,1,107.371,7.5c-4.555,0-8.247,7.352-8.247,16.422C99.124,32.854,102.7,33.657,107.158,33.679Z" transform="translate(-91.167 -7.504)" fill="#454045"/>
          <path id="Trazado_1043268" data-name="Trazado 1043268" d="M160.424,81.349a6.514,6.514,0,0,1-6.2,6.175q-4.311.2-8.622.082h-.005q-1.094-.031-2.186-.082a6.513,6.513,0,0,1-6.2-6.175q-.19-3.689-.031-7.379h0q.048-1.149.132-2.3c.531-2.524,2.611-4.681,5.516-5.946.086-.037.172-.074.26-.11a14.683,14.683,0,0,1,3.866-.981,15.965,15.965,0,0,1,5.886.406h0c3.921,1.042,6.851,3.569,7.491,6.639a0,0,0,0,0,0,0,78.578,78.578,0,0,1,.1,9.667Z" transform="translate(-132.584 -58.919)" fill="#f1d0a5"/>
          <path id="Trazado_1043269" data-name="Trazado 1043269" d="M145.6,97.606h-.005q-1.094-.031-2.186-.082a6.513,6.513,0,0,1-6.2-6.175,78.464,78.464,0,0,1,.1-9.678c.531-2.524,2.611-4.681,5.516-5.946.086-.037.172-.074.26-.11-.2,4.857-.246,11.893-.145,15.871C143.014,94.544,144.131,97.037,145.6,97.606Z" transform="translate(-132.584 -68.92)" fill="#f1b986"/>
          <path id="Trazado_1043270" data-name="Trazado 1043270" d="M153.5,65.039h0c-1.931,3.311-6.559,7.664-8.4,6.624-.674-.381-.586-1.165-.206-2.009a14.957,14.957,0,0,1-2.876,3.532c-1.239,1.044-2.732,1.692-4.177.782h0q.048-1.149.132-2.3c.531-2.524,2.611-4.681,5.516-5.946.086-.037.172-.074.26-.11a14.683,14.683,0,0,1,3.866-.981,15.965,15.965,0,0,1,5.886.406Z" transform="translate(-133.25 -58.918)" fill="#665e66"/>
          <path id="Trazado_1043271" data-name="Trazado 1043271" d="M142.015,73.187c-1.239,1.044-2.732,1.692-4.177.782h0q.048-1.149.132-2.3c.531-2.524,2.611-4.681,5.516-5.946.086-.037.172-.074.26-.11a14.683,14.683,0,0,1,3.866-.981,15.742,15.742,0,0,1,1.868-.109C145.433,65.936,137.08,73.187,142.015,73.187Z" transform="translate(-133.25 -58.918)" fill="#454045"/>
          <g id="Grupo_1180434" data-name="Grupo 1180434" transform="translate(6.995 20.939)">
            <ellipse id="Elipse_12505" data-name="Elipse 12505" cx="1.982" cy="1.257" rx="1.982" ry="1.257" transform="translate(0 0)" fill="#df9380"/>
            <ellipse id="Elipse_12506" data-name="Elipse 12506" cx="1.982" cy="1.257" rx="1.982" ry="1.257" transform="translate(14.503 0)" fill="#f9a58e"/>
          </g>
          <path id="Trazado_1043272" data-name="Trazado 1043272" d="M161.119,49.064a6.219,6.219,0,0,1-.112,1.178c-.787-4.1-5.648-7.253-11.529-7.253a15.733,15.733,0,0,0-1.868.109,14.7,14.7,0,0,0-3.639.891q-.246.095-.486.2c-2.945,1.282-5.042,3.481-5.537,6.049a6.232,6.232,0,0,1-.11-1.174c0-3.066,2.264-5.75,5.648-7.222q.526-.229,1.086-.417a14.845,14.845,0,0,1,3.039-.675,15.731,15.731,0,0,1,1.868-.108C155.908,40.641,161.119,44.412,161.119,49.064Z" transform="translate(-133.249 -37.383)" fill="#da4a54"/>
          <path id="Trazado_1043273" data-name="Trazado 1043273" d="M144.573,48.612l-.6,2.564q-.246.095-.486.2c-2.945,1.282-5.042,3.481-5.537,6.049a6.232,6.232,0,0,1-.11-1.174c0-3.066,2.264-5.75,5.648-7.222q.525-.229,1.086-.417Z" transform="translate(-133.251 -44.571)" fill="#c32430"/>
        </g>
        <path id="Trazado_1043274" data-name="Trazado 1043274" d="M275.167,259.718v16.617a2.261,2.261,0,0,1-1.781,2.209l-14.76,3.2H256.72V260.5h1.905l13.8-2.991A2.26,2.26,0,0,1,275.167,259.718Z" transform="translate(-234.886 -232.886)" fill="#80b4fb"/>
        <path id="Trazado_1043275" data-name="Trazado 1043275" d="M86.218,260.5v21.241H84.171l-14.76-3.2a2.261,2.261,0,0,1-1.781-2.209V259.718a2.26,2.26,0,0,1,2.739-2.208l13.8,2.991Z" transform="translate(-64.384 -232.886)" fill="#5490f9"/>
        <path id="Trazado_1043276" data-name="Trazado 1043276" d="M235.9,309.66V288.419h3.951V309.66" transform="translate(-216.115 -260.804)" fill="#bed8fb"/>
        <g id="Grupo_1180438" data-name="Grupo 1180438" transform="translate(0 28.872)">
          <g id="Grupo_1180436" data-name="Grupo 1180436" transform="translate(0 0)">
            <path id="Trazado_1043277" data-name="Trazado 1043277" d="M37.454,307.189h-.773a2.067,2.067,0,0,1-2.067-2.067v-1.855a2.067,2.067,0,0,1,2.067-2.067h.773a2.067,2.067,0,0,1,2.067,2.067v1.855A2.067,2.067,0,0,1,37.454,307.189Z" transform="translate(-34.614 -301.2)" fill="#f1d0a5"/>
            <path id="Trazado_1043278" data-name="Trazado 1043278" d="M37.852,307.15a1.959,1.959,0,0,1-.4.039h-.774a2.067,2.067,0,0,1-2.066-2.067v-1.855a2.066,2.066,0,0,1,2.066-2.067h.774a1.957,1.957,0,0,1,.4.039,2.066,2.066,0,0,0-1.668,2.028v1.855A2.066,2.066,0,0,0,37.852,307.15Z" transform="translate(-34.615 -301.2)" fill="#f1b986"/>
          </g>
          <g id="Grupo_1180437" data-name="Grupo 1180437" transform="translate(38.619 0)">
            <path id="Trazado_1043279" data-name="Trazado 1043279" d="M430.309,307.189h-.773a2.067,2.067,0,0,1-2.067-2.067v-1.855a2.067,2.067,0,0,1,2.067-2.067h.773a2.067,2.067,0,0,1,2.067,2.067v1.855A2.067,2.067,0,0,1,430.309,307.189Z" transform="translate(-427.469 -301.2)" fill="#f1d0a5"/>
            <path id="Trazado_1043280" data-name="Trazado 1043280" d="M430.707,307.15a1.959,1.959,0,0,1-.4.039h-.774a2.067,2.067,0,0,1-2.066-2.067v-1.855a2.066,2.066,0,0,1,2.066-2.067h.774a1.957,1.957,0,0,1,.4.039,2.066,2.066,0,0,0-1.668,2.028v1.855A2.066,2.066,0,0,0,430.707,307.15Z" transform="translate(-427.47 -301.2)" fill="#f1b986"/>
          </g>
        </g>
      </g>
      <g id="Grupo_1180440" data-name="Grupo 1180440" transform="translate(27.115 0)">
        <path id="Trazado_1043281" data-name="Trazado 1043281" d="M230.352,230.749a.737.737,0,0,0-.982.35,1.9,1.9,0,0,1-3.429,0,.737.737,0,1,0-1.332.632,3.372,3.372,0,0,0,6.094,0A.737.737,0,0,0,230.352,230.749Z" transform="translate(-205.13 -208.002)"/>
        <path id="Trazado_1043282" data-name="Trazado 1043282" d="M298.09,180.974a5.66,5.66,0,0,0-1.076-.1,2.2,2.2,0,0,0,.12-.725c0-.87-.475-1.577-1.06-1.577s-1.06.707-1.06,1.577a2.071,2.071,0,0,0,.254,1.022,3.21,3.21,0,0,0-.5.22.738.738,0,0,0,.37,1.377.729.729,0,0,0,.37-.1,3.571,3.571,0,0,1,2.3-.242.737.737,0,0,0,.279-1.448Z" transform="translate(-268.132 -161.014)"/>
        <path id="Trazado_1043283" data-name="Trazado 1043283" d="M178.472,181.387a3.218,3.218,0,0,0-.5-.22,2.071,2.071,0,0,0,.254-1.022c0-.87-.475-1.577-1.06-1.577s-1.06.707-1.06,1.577a2.2,2.2,0,0,0,.12.725,5.658,5.658,0,0,0-1.076.1.737.737,0,0,0,.279,1.448,3.576,3.576,0,0,1,2.3.241.737.737,0,0,0,.74-1.275Z" transform="translate(-160.063 -161.013)"/>
        <path id="Trazado_1043284" data-name="Trazado 1043284" d="M328.044,312.6l-8.164,1.769a.737.737,0,1,0,.312,1.441l8.164-1.769a.737.737,0,0,0-.312-1.441Z" transform="translate(-290.576 -281.851)"/>
        <path id="Trazado_1043285" data-name="Trazado 1043285" d="M328.044,340.465l-8.164,1.769a.737.737,0,1,0,.312,1.441l8.164-1.769a.737.737,0,0,0-.312-1.441Z" transform="translate(-290.576 -306.981)"/>
        <path id="Trazado_1043286" data-name="Trazado 1043286" d="M69.311,28.872H68.87v-1.3a3,3,0,0,0-3.632-2.928l-2.1.455c2.3-1.687,3.419-4.305,3.419-7.936a16.942,16.942,0,1,0-33.881,0c0,3.631,1.124,6.249,3.421,7.937l-2.1-.456a3,3,0,0,0-3.632,2.928v1.3h-.441a2.807,2.807,0,0,0-2.8,2.8v1.855a2.807,2.807,0,0,0,2.8,2.8h.441v7.851a3.014,3.014,0,0,0,2.362,2.929l14.76,3.2a.738.738,0,0,0,.156.017h3.952a.738.738,0,0,0,.156-.017l14.76-3.2a3.014,3.014,0,0,0,2.362-2.929V36.335h.441a2.807,2.807,0,0,0,2.8-2.8V31.676A2.807,2.807,0,0,0,69.311,28.872ZM34.149,17.16a15.468,15.468,0,1,1,30.932,0c0,3.344-1.029,5.612-3.209,7.012a7.3,7.3,0,0,0,.115-.967c.02-.4.036-.763.05-1.113a.737.737,0,1,0-1.473-.055c-.013.344-.029.7-.049,1.093a5.78,5.78,0,0,1-.84,2.717l-8.163,1.769H47.718l-8.1-1.756a5.761,5.761,0,0,1-.847-2.73c-.107-2.072-.128-4.165-.067-6.255a3.289,3.289,0,0,0,.745.086,3.677,3.677,0,0,0,.9-.115,8.5,8.5,0,0,0,4.06-3.123,1.8,1.8,0,0,0,.493.4c1.444.815,3.518-.507,5-1.759a21.746,21.746,0,0,0,4.093-4.642c3.343,1.034,5.853,3.222,6.427,5.886.13,1.831.2,3.686.2,5.516a.737.737,0,0,0,.737.737h0a.737.737,0,0,0,.737-.738c0-1.805-.065-3.635-.189-5.442a6.952,6.952,0,0,0,.117-1.265A8.136,8.136,0,0,0,58.3,5.865,14.845,14.845,0,0,0,49.64,3.258a16.509,16.509,0,0,0-1.953.114A15.266,15.266,0,0,0,43.353,4.52a11.379,11.379,0,0,0-4.375,3.23,7.46,7.46,0,0,0-1.716,4.669,7.01,7.01,0,0,0,.117,1.272,79.518,79.518,0,0,0-.086,9.514,7.269,7.269,0,0,0,.121,1c-2.219-1.4-3.266-3.677-3.266-7.048ZM49.64,5.606a16.5,16.5,0,0,0-1.953.114,15.273,15.273,0,0,0-4.334,1.148A11.9,11.9,0,0,0,39.7,9.285a9.422,9.422,0,0,1,4.241-3.414A13.8,13.8,0,0,1,47.86,4.836a15.046,15.046,0,0,1,1.78-.1c4.468,0,8.317,1.9,10,4.621A10.966,10.966,0,0,0,57.71,7.81a15.209,15.209,0,0,0-8.07-2.2Zm-5.7,2.613A13.8,13.8,0,0,1,47.86,7.184a15.271,15.271,0,0,1,4.614.163,20.773,20.773,0,0,1-3.524,3.892c-2.447,2.061-3.295,1.622-3.33,1.6-.262-.148-.046-.731.105-1.066a.737.737,0,0,0-1.313-.669c-.59,1.037-2.538,3.834-4.432,4.309a1.947,1.947,0,0,1-1.222-.064c.029-.585.062-1.17.1-1.754.486-2.226,2.328-4.181,5.079-5.378ZM28.59,33.531V31.676a1.331,1.331,0,0,1,1.33-1.33h.773a1.331,1.331,0,0,1,1.33,1.33v1.855a1.331,1.331,0,0,1-1.33,1.33h-.773A1.331,1.331,0,0,1,28.59,33.531Zm3.245,10.655v-8.1a2.808,2.808,0,0,0,1.661-2.56V31.676a2.807,2.807,0,0,0-1.661-2.56V27.569a1.523,1.523,0,0,1,1.845-1.487L46.9,28.947v4.668a.737.737,0,1,0,1.475,0V29.09h2.477V48.856H48.376V36.564a.737.737,0,1,0-1.475,0V48.68L33.035,45.674a1.531,1.531,0,0,1-1.2-1.488Zm34.36,1.488L52.328,48.68V28.947L65.55,26.082A1.523,1.523,0,0,1,67.4,27.569v1.547a2.808,2.808,0,0,0-1.661,2.56v1.855a2.807,2.807,0,0,0,1.661,2.56v8.1A1.532,1.532,0,0,1,66.195,45.674Zm4.446-12.143a1.331,1.331,0,0,1-1.33,1.33h-.773a1.331,1.331,0,0,1-1.33-1.33V31.676a1.331,1.331,0,0,1,1.33-1.33h.773a1.331,1.331,0,0,1,1.33,1.33Z" transform="translate(-27.115 0)"/>
      </g>
    </g>
  </g>
</svg>
