<svg xmlns="http://www.w3.org/2000/svg" xmlns:xlink="http://www.w3.org/1999/xlink" width="93.934" height="93.934" viewBox="0 0 93.934 93.934">
  <defs>
    <filter id="Trazado_982547" x="0" y="0" width="93.934" height="93.934" filterUnits="userSpaceOnUse">
      <feOffset dy="3" input="SourceAlpha"/>
      <feGaussianBlur stdDeviation="3" result="blur"/>
      <feFlood flood-opacity="0.161"/>
      <feComposite operator="in" in2="blur"/>
      <feComposite in="SourceGraphic"/>
    </filter>
  </defs>
  <g id="Grupo_1180444" data-name="Grupo 1180444" transform="translate(-619 -5152.533)">
    <g id="Grupo_1179412" data-name="Grupo 1179412" transform="translate(10 4417.533)">
      <g id="Grupo_1175134" data-name="Grupo 1175134" transform="translate(419.967 -1251)">
        <g id="Grupo_1167337" data-name="Grupo 1167337" transform="translate(198.033 1992)">
          <g id="Grupo_1166720" data-name="Grupo 1166720">
            <g id="Grupo_1164305" data-name="Grupo 1164305">
              <g id="Grupo_1163948" data-name="Grupo 1163948">
                <g id="Grupo_1158168" data-name="Grupo 1158168">
                  <g id="Grupo_1152576" data-name="Grupo 1152576">
                    <g id="Grupo_1148633" data-name="Grupo 1148633">
                      <g id="Grupo_1148525" data-name="Grupo 1148525">
                        <g transform="matrix(1, 0, 0, 1, -9, -6)" filter="url(#Trazado_982547)">
                          <g id="Trazado_982547-2" data-name="Trazado 982547" transform="translate(9 6)" fill="#fdfbec">
                            <path d="M 37.966796875 74.43359375 C 33.04315185546875 74.43359375 28.26757431030273 73.46962738037109 23.77274131774902 71.56847381591797 C 19.43047523498535 69.73184967041016 15.53040790557861 67.10224914550781 12.18087482452393 63.75271987915039 C 8.831341743469238 60.4031867980957 6.201741218566895 56.50312042236328 4.365118980407715 52.16086196899414 C 2.463963508605957 47.66601943969727 1.499996900558472 42.89044189453125 1.499996900558472 37.966796875 C 1.499996900558472 33.04315185546875 2.463963508605957 28.26757431030273 4.365118980407715 23.77274131774902 C 6.201741218566895 19.43047523498535 8.831341743469238 15.53040790557861 12.18087482452393 12.18087482452393 C 15.53040790557861 8.831341743469238 19.43047523498535 6.201741218566895 23.77274131774902 4.365118980407715 C 28.26757431030273 2.463963508605957 33.04315185546875 1.499996900558472 37.966796875 1.499996900558472 C 42.89044189453125 1.499996900558472 47.66601943969727 2.463963508605957 52.16086196899414 4.365118980407715 C 56.50312042236328 6.201741218566895 60.4031867980957 8.831341743469238 63.75271987915039 12.18087482452393 C 67.10224914550781 15.53040790557861 69.73184967041016 19.43047523498535 71.56847381591797 23.77274131774902 C 73.46962738037109 28.26757431030273 74.43359375 33.04315185546875 74.43359375 37.966796875 C 74.43359375 42.89044189453125 73.46962738037109 47.66601943969727 71.56847381591797 52.16086196899414 C 69.73184967041016 56.50313186645508 67.10224914550781 60.4031867980957 63.75271987915039 63.75271987915039 C 60.4031867980957 67.10224914550781 56.50313186645508 69.73184967041016 52.16086196899414 71.56847381591797 C 47.66601943969727 73.46962738037109 42.89044189453125 74.43359375 37.966796875 74.43359375 Z" stroke="none"/>
                            <path d="M 37.966796875 3 C 33.2449836730957 3 28.66600799560547 3.924095153808594 24.35705947875977 5.746635437011719 C 20.19359588623047 7.507637023925781 16.45379638671875 10.02928161621094 13.24153518676758 13.24153518676758 C 10.02927398681641 16.45379638671875 7.507621765136719 20.19359588623047 5.746635437011719 24.35705947875977 C 3.924095153808594 28.66600799560547 3 33.2449836730957 3 37.966796875 C 3 42.6886100769043 3.924095153808594 47.26758575439453 5.746635437011719 51.57653427124023 C 7.507621765136719 55.73999786376953 10.02927398681641 59.47979736328125 13.24153518676758 62.69205856323242 C 16.45379638671875 65.90431976318359 20.19359588623047 68.42597198486328 24.35705947875977 70.18695831298828 C 28.66600799560547 72.00949859619141 33.2449836730957 72.93359375 37.966796875 72.93359375 C 42.6886100769043 72.93359375 47.26758575439453 72.00949859619141 51.57653427124023 70.18695831298828 C 55.73999786376953 68.42597198486328 59.47979736328125 65.90431976318359 62.69205856323242 62.69205856323242 C 65.90431976318359 59.47979736328125 68.42597198486328 55.73999786376953 70.18695831298828 51.57653427124023 C 72.00949859619141 47.26758575439453 72.93359375 42.6886100769043 72.93359375 37.966796875 C 72.93359375 33.2449836730957 72.00949859619141 28.66600799560547 70.18695831298828 24.35705947875977 C 68.42597198486328 20.19359588623047 65.90431976318359 16.45379638671875 62.69205856323242 13.24153518676758 C 59.47979736328125 10.02928161621094 55.73999786376953 7.507637023925781 51.57653427124023 5.746635437011719 C 47.26758575439453 3.924095153808594 42.6886100769043 3 37.966796875 3 M 37.966796875 0 C 58.93528366088867 0 75.93359375 16.99832153320312 75.93359375 37.966796875 C 75.93359375 58.93528366088867 58.93528366088867 75.93359375 37.966796875 75.93359375 C 16.99831008911133 75.93359375 0 58.93528366088867 0 37.966796875 C 0 16.99832153320312 16.99831008911133 0 37.966796875 0 Z" stroke="none" fill="#84792b"/>
                          </g>
                        </g>
                      </g>
                    </g>
                  </g>
                </g>
              </g>
            </g>
          </g>
        </g>
      </g>
    </g>
    <g id="cubitos" transform="translate(644.983 5173)">
      <g id="Grupo_1180442" data-name="Grupo 1180442" transform="translate(0.615 0.615)">
        <path id="Trazado_1043287" data-name="Trazado 1043287" d="M25.832,256H9.537A2.037,2.037,0,0,0,7.5,258.037v16.295a2.037,2.037,0,0,0,2.037,2.037H25.832a2.037,2.037,0,0,0,2.037-2.037V258.037A2.037,2.037,0,0,0,25.832,256Z" transform="translate(-7.5 -235.631)" fill="#b3e59f"/>
        <path id="Trazado_1043288" data-name="Trazado 1043288" d="M274.332,256H258.037A2.037,2.037,0,0,0,256,258.037v16.295a2.037,2.037,0,0,0,2.037,2.037h16.295a2.037,2.037,0,0,0,2.037-2.037V258.037A2.037,2.037,0,0,0,274.332,256Z" transform="translate(-235.631 -235.631)" fill="#a4ccff"/>
        <path id="Trazado_1043289" data-name="Trazado 1043289" d="M150.082,7.5H133.787a2.037,2.037,0,0,0-2.037,2.037V25.832a2.037,2.037,0,0,0,2.037,2.037h16.295a2.037,2.037,0,0,0,2.037-2.037V9.537A2.037,2.037,0,0,0,150.082,7.5Z" transform="translate(-121.566 -7.5)" fill="#ff8086"/>
        <path id="Trazado_1043290" data-name="Trazado 1043290" d="M151.994,25.832H137.182a3.4,3.4,0,0,1-3.395-3.395V7.5a2.037,2.037,0,0,0-2.037,2.037V25.832a2.037,2.037,0,0,0,2.037,2.037h16.295a2.037,2.037,0,0,0,2.037-2.037Z" transform="translate(-121.566 -7.5)" fill="#e5646e"/>
        <path id="Trazado_1043291" data-name="Trazado 1043291" d="M27.744,274.332H12.932a3.4,3.4,0,0,1-3.395-3.395V256A2.037,2.037,0,0,0,7.5,258.037v16.295a2.037,2.037,0,0,0,2.037,2.037H25.832a2.037,2.037,0,0,0,2.037-2.037Z" transform="translate(-7.5 -235.631)" fill="#95d6a4"/>
        <path id="Trazado_1043292" data-name="Trazado 1043292" d="M276.244,274.332H261.432a3.4,3.4,0,0,1-3.395-3.395V256A2.037,2.037,0,0,0,256,258.037v16.295a2.037,2.037,0,0,0,2.037,2.037h16.295a2.037,2.037,0,0,0,2.037-2.037Z" transform="translate(-235.631 -235.631)" fill="#8bb3ea"/>
      </g>
      <g id="Grupo_1180443" data-name="Grupo 1180443" transform="translate(0 0)">
        <path id="Trazado_1043293" data-name="Trazado 1043293" d="M39.315,20.369H31.367a2.635,2.635,0,0,0,.415-1.422V2.652A2.655,2.655,0,0,0,29.131,0H12.836a2.655,2.655,0,0,0-2.652,2.652V18.947a2.635,2.635,0,0,0,.415,1.422H2.652A2.655,2.655,0,0,0,0,23.02V39.315a2.655,2.655,0,0,0,2.652,2.652H18.947a2.647,2.647,0,0,0,2.037-.956,2.647,2.647,0,0,0,2.037.956H39.315a2.655,2.655,0,0,0,2.652-2.652V23.02a2.655,2.655,0,0,0-2.652-2.652ZM18.947,40.737H2.652a1.424,1.424,0,0,1-1.422-1.422V23.02A1.424,1.424,0,0,1,2.652,21.6H18.947a1.424,1.424,0,0,1,1.422,1.422V39.315a1.424,1.424,0,0,1-1.422,1.422Zm21.791-1.422a1.424,1.424,0,0,1-1.422,1.422H23.02A1.424,1.424,0,0,1,21.6,39.315V23.02A1.424,1.424,0,0,1,23.02,21.6h2.037a.615.615,0,1,0,0-1.229H12.836a1.424,1.424,0,0,1-1.422-1.422V2.652a1.424,1.424,0,0,1,1.422-1.422H29.131a1.424,1.424,0,0,1,1.422,1.422V18.947a1.424,1.424,0,0,1-1.422,1.422H27.773a.615.615,0,1,0,0,1.229H39.315a1.424,1.424,0,0,1,1.422,1.422Z" transform="translate(0 0)"/>
        <path id="Trazado_1043294" data-name="Trazado 1043294" d="M206.186,64.625l-.007-.017a.831.831,0,0,0-.772-.517h0a.832.832,0,0,0-.771.519l-.005.014-3.64,9.557a.615.615,0,0,0,1.149.438l.756-1.984h5l.748,1.983a.615.615,0,1,0,1.15-.434Zm-2.823,6.78,2.043-5.364,2.024,5.364Z" transform="translate(-184.479 -58.838)"/>
        <path id="Trazado_1043295" data-name="Trazado 1043295" d="M103.7,324.879a2.7,2.7,0,0,0-1.95-4.558H99.125a.615.615,0,0,0-.615.615v9.05a.615.615,0,0,0,.615.615h0c.024,0,2.427-.011,3.085-.011a3.05,3.05,0,0,0,1.491-5.711Zm-1.95-3.328a1.468,1.468,0,0,1,0,2.935l-2.014,0v-2.938h2.014Zm.459,7.81c-.45,0-1.708,0-2.473.008v-3.646l2.473,0a1.821,1.821,0,0,1,0,3.642Z" transform="translate(-90.435 -294.065)"/>
        <path id="Trazado_1043296" data-name="Trazado 1043296" d="M329.755,328.238a.615.615,0,0,0-.866.076,2.949,2.949,0,0,1-2.38,1.058,3.91,3.91,0,1,1,2.186-7.153.615.615,0,1,0,.688-1.019,5.14,5.14,0,1,0-2.874,9.4,4.177,4.177,0,0,0,3.322-1.5A.615.615,0,0,0,329.755,328.238Z" transform="translate(-295.028 -294.065)"/>
      </g>
    </g>
  </g>
</svg>
