<svg xmlns="http://www.w3.org/2000/svg" xmlns:xlink="http://www.w3.org/1999/xlink" width="93.934" height="93.934" viewBox="0 0 93.934 93.934">
  <defs>
    <filter id="Trazado_982547" x="0" y="0" width="93.934" height="93.934" filterUnits="userSpaceOnUse">
      <feOffset dy="3" input="SourceAlpha"/>
      <feGaussianBlur stdDeviation="3" result="blur"/>
      <feFlood flood-opacity="0.161"/>
      <feComposite operator="in" in2="blur"/>
      <feComposite in="SourceGraphic"/>
    </filter>
  </defs>
  <g id="Grupo_1180450" data-name="Grupo 1180450" transform="translate(-1039.033 -5152.533)">
    <g id="Grupo_1179413" data-name="Grupo 1179413" transform="translate(10 4417.061)">
      <g id="Grupo_1175135" data-name="Grupo 1175135" transform="translate(840 -1250.527)">
        <g id="Grupo_1167337" data-name="Grupo 1167337" transform="translate(198.033 1992)">
          <g id="Grupo_1166720" data-name="Grupo 1166720">
            <g id="Grupo_1164305" data-name="Grupo 1164305">
              <g id="Grupo_1163948" data-name="Grupo 1163948">
                <g id="Grupo_1158168" data-name="Grupo 1158168">
                  <g id="Grupo_1152576" data-name="Grupo 1152576">
                    <g id="Grupo_1148633" data-name="Grupo 1148633">
                      <g id="Grupo_1148525" data-name="Grupo 1148525">
                        <g transform="matrix(1, 0, 0, 1, -9, -6)" filter="url(#Trazado_982547)">
                          <g id="Trazado_982547-2" data-name="Trazado 982547" transform="translate(9 6)" fill="#fdfbec">
                            <path d="M 37.966796875 74.43359375 C 33.04315185546875 74.43359375 28.26757431030273 73.46962738037109 23.77274131774902 71.56847381591797 C 19.43047523498535 69.73184967041016 15.53040790557861 67.10224914550781 12.18087482452393 63.75271987915039 C 8.831341743469238 60.4031867980957 6.201741218566895 56.50312042236328 4.365118980407715 52.16086196899414 C 2.463963508605957 47.66601943969727 1.499996900558472 42.89044189453125 1.499996900558472 37.966796875 C 1.499996900558472 33.04315185546875 2.463963508605957 28.26757431030273 4.365118980407715 23.77274131774902 C 6.201741218566895 19.43047523498535 8.831341743469238 15.53040790557861 12.18087482452393 12.18087482452393 C 15.53040790557861 8.831341743469238 19.43047523498535 6.201741218566895 23.77274131774902 4.365118980407715 C 28.26757431030273 2.463963508605957 33.04315185546875 1.499996900558472 37.966796875 1.499996900558472 C 42.89044189453125 1.499996900558472 47.66601943969727 2.463963508605957 52.16086196899414 4.365118980407715 C 56.50312042236328 6.201741218566895 60.4031867980957 8.831341743469238 63.75271987915039 12.18087482452393 C 67.10224914550781 15.53040790557861 69.73184967041016 19.43047523498535 71.56847381591797 23.77274131774902 C 73.46962738037109 28.26757431030273 74.43359375 33.04315185546875 74.43359375 37.966796875 C 74.43359375 42.89044189453125 73.46962738037109 47.66601943969727 71.56847381591797 52.16086196899414 C 69.73184967041016 56.50313186645508 67.10224914550781 60.4031867980957 63.75271987915039 63.75271987915039 C 60.4031867980957 67.10224914550781 56.50313186645508 69.73184967041016 52.16086196899414 71.56847381591797 C 47.66601943969727 73.46962738037109 42.89044189453125 74.43359375 37.966796875 74.43359375 Z" stroke="none"/>
                            <path d="M 37.966796875 3 C 33.2449836730957 3 28.66600799560547 3.924095153808594 24.35705947875977 5.746635437011719 C 20.19359588623047 7.507637023925781 16.45379638671875 10.02928161621094 13.24153518676758 13.24153518676758 C 10.02927398681641 16.45379638671875 7.507621765136719 20.19359588623047 5.746635437011719 24.35705947875977 C 3.924095153808594 28.66600799560547 3 33.2449836730957 3 37.966796875 C 3 42.6886100769043 3.924095153808594 47.26758575439453 5.746635437011719 51.57653427124023 C 7.507621765136719 55.73999786376953 10.02927398681641 59.47979736328125 13.24153518676758 62.69205856323242 C 16.45379638671875 65.90431976318359 20.19359588623047 68.42597198486328 24.35705947875977 70.18695831298828 C 28.66600799560547 72.00949859619141 33.2449836730957 72.93359375 37.966796875 72.93359375 C 42.6886100769043 72.93359375 47.26758575439453 72.00949859619141 51.57653427124023 70.18695831298828 C 55.73999786376953 68.42597198486328 59.47979736328125 65.90431976318359 62.69205856323242 62.69205856323242 C 65.90431976318359 59.47979736328125 68.42597198486328 55.73999786376953 70.18695831298828 51.57653427124023 C 72.00949859619141 47.26758575439453 72.93359375 42.6886100769043 72.93359375 37.966796875 C 72.93359375 33.2449836730957 72.00949859619141 28.66600799560547 70.18695831298828 24.35705947875977 C 68.42597198486328 20.19359588623047 65.90431976318359 16.45379638671875 62.69205856323242 13.24153518676758 C 59.47979736328125 10.02928161621094 55.73999786376953 7.507637023925781 51.57653427124023 5.746635437011719 C 47.26758575439453 3.924095153808594 42.6886100769043 3 37.966796875 3 M 37.966796875 0 C 58.93528366088867 0 75.93359375 16.99832153320312 75.93359375 37.966796875 C 75.93359375 58.93528366088867 58.93528366088867 75.93359375 37.966796875 75.93359375 C 16.99831008911133 75.93359375 0 58.93528366088867 0 37.966796875 C 0 16.99832153320312 16.99831008911133 0 37.966796875 0 Z" stroke="none" fill="#84792b"/>
                          </g>
                        </g>
                      </g>
                    </g>
                  </g>
                </g>
              </g>
            </g>
          </g>
        </g>
      </g>
    </g>
    <g id="pensar" transform="translate(1058.836 5173.791)">
      <g id="Grupo_1180448" data-name="Grupo 1180448" transform="translate(5.552 4.218)">
        <g id="Grupo_1180446" data-name="Grupo 1180446" transform="translate(6.451 10.021)">
          <path id="Trazado_1043297" data-name="Trazado 1043297" d="M115.038,348.649h.017a2.7,2.7,0,0,0,0-5.408H90.185a2.7,2.7,0,0,0,0,5.408H90.2" transform="translate(-87.271 -327.031)" fill="#f1b986"/>
          <path id="Trazado_1043298" data-name="Trazado 1043298" d="M142.088,257.793a121.955,121.955,0,0,0-23.592,0,83.625,83.625,0,0,0-.539,14.669,6.92,6.92,0,0,0,6.591,6.56q5.744.271,11.489,0a6.92,6.92,0,0,0,6.591-6.56A83.635,83.635,0,0,0,142.088,257.793Z" transform="translate(-114.942 -248.643)" fill="#f1d0a5"/>
          <path id="Trazado_1043299" data-name="Trazado 1043299" d="M118.5,257.79q5.9-.572,11.8-.571a31.408,31.408,0,0,0-5.973.577q-.465,7.4-.273,14.809c.083,3.248,1.271,5.9,2.829,6.5q-1.163-.032-2.328-.087a6.921,6.921,0,0,1-6.591-6.56A83.74,83.74,0,0,1,118.5,257.79Z" transform="translate(-114.947 -248.64)" fill="#f1b986"/>
          <path id="Trazado_1043300" data-name="Trazado 1043300" d="M107.006,173.735c-4.52,1.746-10.941.976-14.176-2.26,0,0-.768,5.254-4.749,5.254l-1.736.584c-4.637-18.2,5.253-13.337,5.253-13.337a4.7,4.7,0,0,1,3.715-2.739c.125-.015.25-.027.376-.035l.03,0a8.246,8.246,0,0,1,2.915.439c.314.1.614.212.9.327a13.7,13.7,0,0,1,2.128,1.094l.034.023c1.018-1.347,1.989-2.565,3.056-2.565a1.113,1.113,0,0,1,.944.436c.77,1.009.138,3.437.087,3.627l0,.009,0-.009.005-.014c.137-.344,1.666-4.049,4.408-4.049a2.142,2.142,0,0,1,.466.047c2.044.452.444,4.027.268,4.406l0,.011-.009.019c.087-.111,3.511-4.458,5.032-2.464l0,0C117.479,164.562,111.524,171.989,107.006,173.735Z" transform="translate(-85.107 -160.518)" fill="#f4dd45"/>
          <g id="Grupo_1180445" data-name="Grupo 1180445" transform="translate(0 0)">
            <path id="Trazado_1043301" data-name="Trazado 1043301" d="M380.982,177.914h0c-.769-.768-3.433,2.859-5.034,2.466l.012-.022-.009.019C376.038,180.266,379.461,175.92,380.982,177.914Z" transform="translate(-350.146 -175.895)" fill="#ecc32e"/>
            <path id="Trazado_1043302" data-name="Trazado 1043302" d="M322.936,160.565c-1.156-.262-2.227,1.937-2.832,3.5a1.293,1.293,0,0,1-1.887.631l-.165-.1v0l0-.009h0l.005-.014c.137-.344,1.666-4.049,4.408-4.049A2.15,2.15,0,0,1,322.936,160.565Z" transform="translate(-297.386 -160.518)" fill="#ecc32e"/>
            <path id="Trazado_1043303" data-name="Trazado 1043303" d="M95.309,168.615c-3.307.583-4.556,8.164-2.482,10.239,0,0-.768,5.254-4.749,5.254l-1.736.584c-4.637-18.2,5.253-13.337,5.253-13.337A4.7,4.7,0,0,1,95.309,168.615Z" transform="translate(-85.104 -167.897)" fill="#ecc32e"/>
            <path id="Trazado_1043304" data-name="Trazado 1043304" d="M240.955,160.954c-1.162-1.162-1.937,4.8-4.553,5.753s-2.861-.266-2.861-.266h0c1.288-.476,2.375-1.982,3.414-3.357h0l.1-.126c.039-.053.08-.107.12-.159.941-1.229,1.849-2.281,2.84-2.281A1.113,1.113,0,0,1,240.955,160.954Z" transform="translate(-220.372 -160.518)" fill="#ecc32e"/>
          </g>
        </g>
        <circle id="Elipse_12507" data-name="Elipse 12507" cx="3.294" cy="3.294" r="3.294" transform="translate(35.128)" fill="#80b4fb"/>
        <path id="Trazado_1043305" data-name="Trazado 1043305" d="M414.593,56.022a3.294,3.294,0,1,1-4.431-4.431,3.3,3.3,0,0,0,4.431,4.431Z" transform="translate(-373.235 -51.233)" fill="#5490f9"/>
        <g id="Grupo_1180447" data-name="Grupo 1180447" transform="translate(0 5.958)">
          <circle id="Elipse_12508" data-name="Elipse 12508" cx="3.782" cy="3.782" r="3.782" fill="#f6f1f1"/>
        </g>
      </g>
      <g id="Grupo_1180449" data-name="Grupo 1180449" transform="translate(4.887 -0.001)">
        <path id="Trazado_1043306" data-name="Trazado 1043306" d="M225.309,409.748a3.481,3.481,0,0,0,3.13-1.98.665.665,0,0,0-1.2-.571,2.134,2.134,0,0,1-3.857,0,.665.665,0,0,0-1.2.571A3.481,3.481,0,0,0,225.309,409.748Z" transform="translate(-202.843 -370.727)"/>
        <path id="Trazado_1043307" data-name="Trazado 1043307" d="M182.842,345.854c0-.922-.5-1.672-1.122-1.672s-1.122.75-1.122,1.672.5,1.672,1.122,1.672S182.842,346.775,182.842,345.854Z" transform="translate(-165.01 -313.649)"/>
        <path id="Trazado_1043308" data-name="Trazado 1043308" d="M312.61,345.854c0-.922-.5-1.672-1.122-1.672s-1.122.75-1.122,1.672.5,1.672,1.122,1.672S312.61,346.775,312.61,345.854Z" transform="translate(-283.266 -313.649)"/>
        <path id="Trazado_1043309" data-name="Trazado 1043309" d="M108.2,154.52a4.3,4.3,0,0,0-2.617,1.235,2.844,2.844,0,0,0-.313-1.845,1.994,1.994,0,0,0-1.82-.886,4.641,4.641,0,0,0-3.507,1.9,2.6,2.6,0,0,0-.463-1.2,1.778,1.778,0,0,0-1.475-.7c-1.237,0-2.227,1.07-3.221,2.351a14.943,14.943,0,0,0-1.744-.853c-.311-.127-.628-.244-.943-.345a8.841,8.841,0,0,0-3.154-.47H88.9c-.139.009-.279.021-.419.039a5.232,5.232,0,0,0-3.92,2.563c-1.04-.371-3.253-.9-4.936.462-2.272,1.844-2.53,6.382-.769,13.488a3.366,3.366,0,0,0,1.786,5.651q.026.818.067,1.631a7.537,7.537,0,0,0,.834,3.091.665.665,0,0,0,1.182-.611,6.214,6.214,0,0,1-.687-2.549c-.118-2.3-.138-4.635-.062-6.951a5.056,5.056,0,0,0,3.813-2.941,9.588,9.588,0,0,0,.686-1.708A13.175,13.175,0,0,0,92.6,168.3a15.886,15.886,0,0,0,7.906-.776,15.214,15.214,0,0,0,4.527-3.021,83.208,83.208,0,0,1,.355,12.969,6.238,6.238,0,0,1-5.958,5.93c-3.791.179-7.636.179-11.426,0a6.207,6.207,0,0,1-3.78-1.5.665.665,0,0,0-.866,1.011,7.526,7.526,0,0,0,4.582,1.816c1.917.091,3.846.136,5.776.136s3.86-.045,5.776-.136a7.565,7.565,0,0,0,7.225-7.191q.042-.814.067-1.631a3.368,3.368,0,0,0-.052-6.627q-.141-2.993-.494-5.972a15.989,15.989,0,0,0,3.716-5.7,2.539,2.539,0,0,0-.223-2.3,1.888,1.888,0,0,0-1.532-.784ZM79.24,172.6a2.042,2.042,0,0,1,1.4-1.937c-.039,1.286-.049,2.576-.03,3.864A2.041,2.041,0,0,1,79.24,172.6Zm28.946,0a2.041,2.041,0,0,1-1.375,1.926q.029-1.929-.031-3.864A2.042,2.042,0,0,1,108.186,172.6Zm.484-15.355c-.771,2.732-5.188,7.7-8.648,9.037a14.745,14.745,0,0,1-7.233.7,11.093,11.093,0,0,1-6.233-2.81.666.666,0,0,0-1.129.373,8.614,8.614,0,0,1-.828,2.443,3.636,3.636,0,0,1-3.256,2.242h-.067a3.348,3.348,0,0,0-1.241.238c-1.866-7.8-.816-10.65.426-11.662,1.563-1.274,4.074-.077,4.1-.066a.666.666,0,0,0,.885-.292,4.039,4.039,0,0,1,3.2-2.384c.107-.013.216-.023.323-.03l.043,0a7.539,7.539,0,0,1,2.668.409c.282.091.567.2.848.31a13.545,13.545,0,0,1,1.436.691,7.375,7.375,0,0,1-2.669,2.544.665.665,0,0,0,.461,1.248c1.408-.52,2.5-1.972,3.561-3.376.929-1.232,1.89-2.506,2.68-2.506a.457.457,0,0,1,.415.174c.412.541.231,2.114-.029,3.057a.665.665,0,0,0,1.263.414c.014-.036,1.416-3.645,3.8-3.645.527,0,.648.192.693.264.389.617-.1,2.283-.574,3.268a.665.665,0,0,0,1.125.7c.695-.892,2.462-2.731,3.495-2.731h0a.56.56,0,0,1,.481.261,1.439,1.439,0,0,1,0,1.136Z" transform="translate(-71.247 -139.448)"/>
        <path id="Trazado_1043310" data-name="Trazado 1043310" d="M59.415,5.6H61.16l1.255,4.661a.665.665,0,0,0,.629.492h.013a.665.665,0,0,0,.635-.467l2.8-8.956h3.975a.665.665,0,0,0,0-1.331H66a.665.665,0,0,0-.635.467L63.1,7.707l-.793-2.945a.665.665,0,0,0-.642-.492H59.415a.665.665,0,1,0,0,1.331Z" transform="translate(-53.972 -0.001)"/>
        <path id="Trazado_1043311" data-name="Trazado 1043311" d="M144.59,43.833c-1.115,1.594-1.781,2.465-2.139,2.934-.437.572-.6.786-.484,1.163a.7.7,0,0,0,.455.46,6.059,6.059,0,0,0,1.533.063c.534,0,1.264-.005,2.269-.018a.665.665,0,0,0-.008-1.331h-.009c-.816.01-1.685.016-2.354.016.4-.526.986-1.324,1.827-2.524a5.215,5.215,0,0,0,.851-1.758.664.664,0,0,0,.012-.066l.035-.272a.672.672,0,0,0,.005-.085,2.465,2.465,0,0,0-4.883-.477.665.665,0,1,0,1.306.256,1.134,1.134,0,0,1,2.246.183l-.024.189A4.009,4.009,0,0,1,144.59,43.833Z" transform="translate(-129.552 -36.407)"/>
        <path id="Trazado_1043312" data-name="Trazado 1043312" d="M394.355,28.5c1.965-2.5,1.751-3.309,1.331-3.729s-1.227-.635-3.73,1.331a3.952,3.952,0,0,0-1.584-.222.665.665,0,1,0,.086,1.328,2.62,2.62,0,0,1,2.323,1.118c-.523.619-1.123,1.27-1.756,1.9s-1.284,1.233-1.9,1.756a2.626,2.626,0,0,1-.518-3.834.665.665,0,0,0-1.023-.852,3.935,3.935,0,0,0-.687,3.865c-1.961,2.5-1.747,3.305-1.327,3.725a.916.916,0,0,0,.688.282c.557,0,1.462-.372,3.042-1.613a3.958,3.958,0,0,0,5.058-5.058Zm.061-2.46a9.761,9.761,0,0,1-.785,1.214c-.066-.076-.133-.152-.206-.224s-.147-.14-.224-.205A9.751,9.751,0,0,1,394.417,26.035Zm-7.58,7.58a9.746,9.746,0,0,1,.785-1.214c.066.076.133.151.206.223s.147.14.224.206A9.759,9.759,0,0,1,386.837,33.616Zm5.649-1.932a2.62,2.62,0,0,1-1.879.768c.452-.4.91-.838,1.36-1.287s.883-.908,1.287-1.36a2.621,2.621,0,0,1-.768,1.879Z" transform="translate(-351.539 -22.312)"/>
        <path id="Trazado_1043313" data-name="Trazado 1043313" d="M224.074,16.219a.666.666,0,0,0,.859-.385l.525-1.378h3.521l.52,1.377a.665.665,0,1,0,1.245-.47l-2.738-7.256L228,8.088a.829.829,0,0,0-.77-.516h0a.829.829,0,0,0-.769.517l-.006.015-2.763,7.255a.665.665,0,0,0,.385.859Zm3.152-6.407,1.25,3.313h-2.512Z" transform="translate(-204.239 -6.901)"/>
        <path id="Trazado_1043314" data-name="Trazado 1043314" d="M15.107,14.911a.665.665,0,0,0,.941,0l.32-.32.32.32a.665.665,0,0,0,.941-.941l-.32-.32.32-.32a.665.665,0,1,0-.941-.941l-.32.32-.32-.32a.665.665,0,1,0-.941.941l.32.32-.32.32A.665.665,0,0,0,15.107,14.911Z" transform="translate(-14.023 -11.112)"/>
        <path id="Trazado_1043315" data-name="Trazado 1043315" d="M474.893,144.305a.665.665,0,0,0-.941,0l-.32.32-.32-.32a.665.665,0,1,0-.941.941l.32.32-.32.32a.665.665,0,1,0,.941.941l.32-.32.32.32a.665.665,0,1,0,.941-.941l-.32-.32.32-.32A.666.666,0,0,0,474.893,144.305Z" transform="translate(-430.721 -131.326)"/>
        <path id="Trazado_1043316" data-name="Trazado 1043316" d="M319.535,108.123a.665.665,0,0,0,.941,0l.32-.32.32.32a.665.665,0,1,0,.941-.941l-.32-.32.32-.32a.665.665,0,1,0-.941-.941l-.32.32-.32-.32a.665.665,0,1,0-.941.941l.32.32-.32.32A.665.665,0,0,0,319.535,108.123Z" transform="translate(-291.445 -96.055)"/>
        <path id="Trazado_1043317" data-name="Trazado 1043317" d="M18.016,287.693H16.734V286.41a.665.665,0,1,0-1.331,0v1.283H14.12a.665.665,0,0,0,0,1.331H15.4v1.283a.665.665,0,0,0,1.331,0v-1.283h1.283a.665.665,0,0,0,0-1.331Z" transform="translate(-12.695 -260.396)"/>
        <path id="Trazado_1043318" data-name="Trazado 1043318" d="M9.335,116.111a4.448,4.448,0,1,0-4.448-4.448,4.453,4.453,0,0,0,4.448,4.448Zm0-7.565a3.117,3.117,0,1,1-3.117,3.117,3.121,3.121,0,0,1,3.117-3.117Z" transform="translate(-4.887 -97.704)"/>
        <path id="Trazado_1043319" data-name="Trazado 1043319" d="M48.188,131.635h1a.665.665,0,0,0,0-1.331h-.331v-1.238a.665.665,0,0,0-1.331,0v1.9A.665.665,0,0,0,48.188,131.635Z" transform="translate(-43.741 -117.01)"/>
        <path id="Trazado_1043320" data-name="Trazado 1043320" d="M346.215,4.533H347.6l-1.081,2.249a.665.665,0,1,0,1.2.577l1.54-3.2a.665.665,0,0,0-.6-.954h-1.381L348.355.953a.665.665,0,0,0-1.2-.577l-1.54,3.2a.665.665,0,0,0,.6.954Z" transform="translate(-315.329 0.001)"/>
        <path id="Trazado_1043321" data-name="Trazado 1043321" d="M451.379,215.429a2.17,2.17,0,0,0-1.742-3.467h-1.9a.665.665,0,0,0-.665.665v6.545a.665.665,0,0,0,.665.665h0s1.748-.008,2.23-.008a2.426,2.426,0,0,0,1.41-4.4Zm-1.741-2.136a.841.841,0,0,1,0,1.682l-.694,0H448.4v-1.683Zm.332,5.207-1.568,0v-2.2l.547,0h1.021a1.1,1.1,0,1,1,0,2.193Z" transform="translate(-407.844 -193.158)"/>
      </g>
    </g>
  </g>
</svg>
