<svg xmlns="http://www.w3.org/2000/svg" xmlns:xlink="http://www.w3.org/1999/xlink" width="295" height="193" viewBox="0 0 295 193">
  <defs>
    <clipPath id="clip-path">
      <rect id="Rectángulo_415806" data-name="Rectángulo 415806" width="295" height="193" transform="translate(285 5866)" fill="#fff" stroke="#707070" stroke-width="1" opacity="0.39"/>
    </clipPath>
  </defs>
  <g id="Enmascarar_grupo_1098825" data-name="Enmascarar grupo 1098825" transform="translate(-285 -5866)" clip-path="url(#clip-path)">
    <g id="Grupo_1180488" data-name="Grupo 1180488" transform="translate(-18)">
      <ellipse id="Elipse_12509" data-name="Elipse 12509" cx="109.5" cy="104" rx="109.5" ry="104" transform="translate(341 5921)" fill="#effbfe"/>
      <g id="Grupo_1180227" data-name="Grupo 1180227" transform="translate(331.173 5771.921)">
        <ellipse id="Elipse_12496" data-name="Elipse 12496" cx="74.08" cy="11.37" rx="74.08" ry="11.37" transform="translate(58.827 420.447)" fill="#efe8df"/>
        <g id="Grupo_1180226" data-name="Grupo 1180226" transform="translate(60.23 94.98)">
          <path id="Trazado_1042844" data-name="Trazado 1042844" d="M176.469,241.391s-4.066,8.958-12.833,10.673-8.767-6.861-8.767-6.861Z" transform="translate(-55.268 -87.415)" fill="#035a5b"/>
          <path id="Trazado_1042845" data-name="Trazado 1042845" d="M63.168,241.391s2.923,4.828,13.087,8.513,16.264,2.16,16.264,2.16l.762-6.734Z" transform="translate(-60.006 -87.415)" fill="#035a5b"/>
          <path id="Trazado_1042846" data-name="Trazado 1042846" d="M92.475,240.82l-24.4-5.591s-.754,8.562-1.6,20.289a69.2,69.2,0,0,0,21.489,5.243C89.533,252.8,91.107,245.608,92.475,240.82Z" transform="translate(-59.835 -87.733)" fill="#eca278"/>
          <path id="Trazado_1042847" data-name="Trazado 1042847" d="M66.8,254.522c-1.194,16.48-2.577,39.211-2.319,53.244-2.091,6.13-5.76,19.366-3.727,20.256s5.383-8.059,5.383-8.059-3.24,11.1-1.217,11.821,4.9-10.96,4.9-10.96-2.044,11.808-.183,12.6c3.209,1.223,4.147-12.806,4.147-12.806s.581,11.342,3.075,11.545,1.425-14.479,1.425-14.479,2.455,6.166,4.318,3.752S79.8,308.61,79.8,308.61s4.23-27.237,8.491-48.845A69.258,69.258,0,0,1,66.8,254.522Z" transform="translate(-60.161 -86.737)" fill="#f8bc8d"/>
          <path id="Trazado_1042848" data-name="Trazado 1042848" d="M174.07,241.512s8.386,14.231,7.624,21.855-24.4,2.541-24.4,2.541l-7.624-14.231Z" transform="translate(-55.536 -87.409)" fill="#eca278"/>
          <path id="Trazado_1042849" data-name="Trazado 1042849" d="M84.432,290.878s37.864,10.419,76.744-2.287c0,0-9.911-11.181-36.085-8.641S93.58,283.255,84.432,290.878Z" transform="translate(-58.907 -85.442)" fill="#429797"/>
          <g id="Grupo_1180193" data-name="Grupo 1180193" transform="translate(14.491 223.83)">
            <g id="Grupo_1180192" data-name="Grupo 1180192">
              <g id="Grupo_1180184" data-name="Grupo 1180184" transform="translate(2.416)">
                <path id="Trazado_1042850" data-name="Trazado 1042850" d="M89.518,365.585c2.14,17.381,4.369,34.792,4.795,38.722,0,0-17.977,6.721-18.075,11.407s25.222,2.632,25.222,2.632,17.738,5.116,12.878-10.386c0,0,1.3-17.379,2.8-37.867A120.754,120.754,0,0,1,89.518,365.585Z" transform="translate(-76.238 -304.828)" fill="#f8bc8d"/>
                <path id="Trazado_1042851" data-name="Trazado 1042851" d="M121.142,307.813c-6.145.058-30.113,24.246-36.24,23.966.434,5.916,2.266,21.341,4.169,36.79a120.759,120.759,0,0,0,27.617,4.51C118.841,343.653,121.409,307.811,121.142,307.813Z" transform="translate(-75.79 -307.813)" fill="#eca278"/>
              </g>
              <g id="Grupo_1180191" data-name="Grupo 1180191" transform="translate(0 96.589)">
                <g id="Grupo_1180185" data-name="Grupo 1180185" transform="translate(0.31 2.786)">
                  <path id="Trazado_1042852" data-name="Trazado 1042852" d="M84.022,406.352C76.579,409.693,74.235,413,74.235,413s.347,1.083,10.582,2.48A14.575,14.575,0,0,0,84.022,406.352Z" transform="translate(-74.235 -402.097)" fill="#fff"/>
                  <path id="Trazado_1042853" data-name="Trazado 1042853" d="M114.541,404.5c-9.723,5.187-21.219-2.195-21.219-2.195-4.048,1.045-7.141,3.069-9.781,4.254a14.578,14.578,0,0,1,.8,9.134c2.638.36,5.921.74,10.037,1.13,20.088,1.9,21.039-3.539,21.039-3.539A31.187,31.187,0,0,0,114.541,404.5Z" transform="translate(-73.754 -402.306)" fill="#e95336"/>
                </g>
                <g id="Grupo_1180186" data-name="Grupo 1180186" transform="translate(0 13.693)">
                  <path id="Trazado_1042854" data-name="Trazado 1042854" d="M115.908,412.747a32.291,32.291,0,0,1-.467,3.26s-5.844,1.95-21.634,1.621c-17.644-.368-19.857-2.762-19.857-2.762a6.019,6.019,0,0,1,.3-2.19A93.748,93.748,0,0,0,115.908,412.747Z" transform="translate(-73.94 -412.677)" fill="#fff"/>
                </g>
                <g id="Grupo_1180187" data-name="Grupo 1180187" transform="translate(14.099 5.1)">
                  <path id="Trazado_1042855" data-name="Trazado 1042855" d="M90.2,411.4h-.022a.25.25,0,0,1-.213-.279,6.472,6.472,0,0,0-2.5-6.148.26.26,0,0,1-.077-.348.239.239,0,0,1,.333-.081,7.1,7.1,0,0,1,2.726,6.632A.246.246,0,0,1,90.2,411.4Z" transform="translate(-87.346 -404.507)" fill="#d83c27"/>
                </g>
                <g id="Grupo_1180188" data-name="Grupo 1180188" transform="translate(17.687 3.952)">
                  <path id="Trazado_1042856" data-name="Trazado 1042856" d="M93.528,410.3h0a.249.249,0,0,1-.237-.259c.105-4.438-2.4-6.146-2.421-6.164a.258.258,0,0,1-.075-.347.234.234,0,0,1,.332-.08c.113.073,2.76,1.861,2.647,6.6A.249.249,0,0,1,93.528,410.3Z" transform="translate(-90.758 -403.415)" fill="#d83c27"/>
                </g>
                <g id="Grupo_1180189" data-name="Grupo 1180189" transform="translate(18.094)">
                  <path id="Trazado_1042857" data-name="Trazado 1042857" d="M92.278,405.555a.243.243,0,0,1-.219-.157c-.154-.394-1.479-3.892-.635-5.22a1.114,1.114,0,0,1,.969-.521,1.069,1.069,0,0,1,.95.482c.817,1.295-.667,4.863-.838,5.266a.244.244,0,0,1-.225.15Zm.159-5.393c-.013,0-.025,0-.039,0a.625.625,0,0,0-.572.293c-.5.791.048,2.914.468,4.16.475-1.267,1.127-3.435.644-4.2A.544.544,0,0,0,92.436,400.162Z" transform="translate(-91.145 -399.657)" fill="#d83c27"/>
                </g>
                <g id="Grupo_1180190" data-name="Grupo 1180190" transform="translate(18.989 2.592)">
                  <path id="Trazado_1042858" data-name="Trazado 1042858" d="M92.233,405.485a.241.241,0,0,1-.212-.143.258.258,0,0,1,.037-.276c.269-.321,2.659-3.115,4.191-2.937a1.257,1.257,0,0,1,.888,1.773c-.745,1.344-4.465,1.563-4.887,1.582Zm3.871-2.861c-.913-.019-2.418,1.388-3.274,2.312,1.3-.125,3.446-.491,3.887-1.284a.614.614,0,0,0-.022-.618.639.639,0,0,0-.507-.4A.555.555,0,0,0,96.1,402.625Z" transform="translate(-91.996 -402.121)" fill="#d83c27"/>
                </g>
              </g>
            </g>
          </g>
          <g id="Grupo_1180203" data-name="Grupo 1180203" transform="translate(77.105 251.177)">
            <g id="Grupo_1180202" data-name="Grupo 1180202">
              <g id="Grupo_1180194" data-name="Grupo 1180194">
                <path id="Trazado_1042859" data-name="Trazado 1042859" d="M163.979,333.817c-5.922,1.6-24.483,13.975-30.494,15.247-.174.037,3,9.713,6.932,21.474a189.917,189.917,0,0,0,27.794-5.948C166.412,351.252,164.721,338.906,163.979,333.817Z" transform="translate(-133.479 -333.817)" fill="#eca278"/>
                <path id="Trazado_1042860" data-name="Trazado 1042860" d="M173.8,408.288c-.485-4.394-3.322-25.848-5.932-45.209a189.917,189.917,0,0,1-27.794,5.948c6.1,18.274,14.027,41.581,14.027,41.581-1.392,16.186,14.82,7.354,14.82,7.354s21.491,3.773,20.381-.78S173.8,408.288,173.8,408.288Z" transform="translate(-133.138 -332.305)" fill="#f8bc8d"/>
              </g>
              <g id="Grupo_1180201" data-name="Grupo 1180201" transform="translate(19.409 71.917)">
                <g id="Grupo_1180195" data-name="Grupo 1180195" transform="translate(0 2.791)">
                  <path id="Trazado_1042861" data-name="Trazado 1042861" d="M182.276,408.8c7.479,3.257,9.86,6.542,9.86,6.542s-.334,1.087-10.552,2.6A14.58,14.58,0,0,1,182.276,408.8Z" transform="translate(-150.424 -404.651)" fill="#fff"/>
                  <path id="Trazado_1042862" data-name="Trazado 1042862" d="M152.764,407.29c9.781,5.077,21.194-2.435,21.194-2.435,4.059,1,7.174,2.988,9.828,4.144a14.58,14.58,0,0,0-.692,9.142c-2.633.39-5.912.808-10.023,1.242-20.066,2.123-21.078-3.3-21.078-3.3A31.2,31.2,0,0,1,152.764,407.29Z" transform="translate(-151.934 -404.855)" fill="#e95336"/>
                </g>
                <g id="Grupo_1180196" data-name="Grupo 1180196" transform="translate(0.059 13.477)">
                  <path id="Trazado_1042863" data-name="Trazado 1042863" d="M151.99,415.557a32.333,32.333,0,0,0,.5,3.254s5.866,1.884,21.651,1.377c17.639-.568,19.824-2.986,19.824-2.986a6.021,6.021,0,0,0-.325-2.185A93.777,93.777,0,0,1,151.99,415.557Z" transform="translate(-151.99 -415.016)" fill="#fff"/>
                </g>
                <g id="Grupo_1180197" data-name="Grupo 1180197" transform="translate(24.746 5.044)">
                  <path id="Trazado_1042864" data-name="Trazado 1042864" d="M175.773,413.919h.022a.25.25,0,0,0,.21-.281,6.473,6.473,0,0,1,2.433-6.175.259.259,0,0,0,.073-.349.238.238,0,0,0-.334-.077,7.108,7.108,0,0,0-2.651,6.662A.247.247,0,0,0,175.773,413.919Z" transform="translate(-175.464 -406.997)" fill="#d83c27"/>
                </g>
                <g id="Grupo_1180198" data-name="Grupo 1180198" transform="translate(21.278 3.937)">
                  <path id="Trazado_1042865" data-name="Trazado 1042865" d="M172.425,412.86h0a.248.248,0,0,0,.233-.261c-.156-4.437,2.326-6.173,2.352-6.19a.257.257,0,0,0,.07-.348.233.233,0,0,0-.333-.076c-.111.075-2.737,1.892-2.572,6.632A.248.248,0,0,0,172.425,412.86Z" transform="translate(-172.167 -405.944)" fill="#d83c27"/>
                </g>
                <g id="Grupo_1180199" data-name="Grupo 1180199" transform="translate(21.353)">
                  <path id="Trazado_1042866" data-name="Trazado 1042866" d="M173.594,408.1a.242.242,0,0,1-.226-.148c-.177-.4-1.7-3.952-.9-5.255a1.066,1.066,0,0,1,.944-.492,1.113,1.113,0,0,1,.975.509c.858,1.319-.427,4.831-.576,5.227a.242.242,0,0,1-.217.159Zm-.717-5.13c-.474.77.2,2.93.691,4.192.406-1.251.933-3.38.421-4.166a.624.624,0,0,0-.575-.287c-.013,0-.026,0-.039,0A.544.544,0,0,0,172.876,402.967Z" transform="translate(-172.238 -402.201)" fill="#d83c27"/>
                </g>
                <g id="Grupo_1180200" data-name="Grupo 1180200" transform="translate(17.65 2.633)">
                  <path id="Trazado_1042867" data-name="Trazado 1042867" d="M173.763,408.024c-.422-.015-4.145-.191-4.9-1.527a1.258,1.258,0,0,1,.869-1.783c1.531-.195,3.951,2.572,4.225,2.89a.261.261,0,0,1,.04.274.241.241,0,0,1-.211.145A.049.049,0,0,1,173.763,408.024Zm-3.972-2.809a.638.638,0,0,0-.5.408.61.61,0,0,0-.015.618c.449.789,2.6,1.13,3.9,1.241-.866-.914-2.387-2.3-3.3-2.274A.551.551,0,0,0,169.791,405.215Z" transform="translate(-168.717 -404.705)" fill="#d83c27"/>
                </g>
              </g>
            </g>
          </g>
          <g id="Grupo_1180205" data-name="Grupo 1180205" transform="translate(19.172 195.145)">
            <path id="Trazado_1042868" data-name="Trazado 1042868" d="M160.823,297.933l-3.066-14.465s-56.415-2.668-71.281,2.668L84.2,304.224A429,429,0,0,1,160.823,297.933Z" transform="translate(-78.091 -280.42)" fill="#253269"/>
            <path id="Trazado_1042869" data-name="Trazado 1042869" d="M84.5,303.482,78.391,352.1s10.673,9.148,42.692,8.005l1.906-36.594,2.287-.381,8.386,36.594s24.015,3.431,39.262-6.861l-11.8-55.673A428.9,428.9,0,0,0,84.5,303.482Z" transform="translate(-78.391 -279.677)" fill="#334b9a"/>
            <g id="Grupo_1180204" data-name="Grupo 1180204" transform="translate(1.334)">
              <line id="Línea_705" data-name="Línea 705" x2="1.525" y2="29.732" transform="translate(40.596 1.906)" fill="none" stroke="#2f2035" stroke-linecap="round" stroke-linejoin="round" stroke-miterlimit="10" stroke-width="0.574"/>
              <path id="Trazado_1042870" data-name="Trazado 1042870" d="M119.59,309.633s5.083.381,5.463-6.226-.508-22.871-.508-22.871" transform="translate(-77.596 -280.537)" fill="none" stroke="#2f2035" stroke-linecap="round" stroke-linejoin="round" stroke-miterlimit="10" stroke-width="0.574"/>
              <path id="Trazado_1042871" data-name="Trazado 1042871" d="M143.27,283.678s2.923,13.722,15.12,21.855" transform="translate(-76.372 -280.375)" fill="none" stroke="#2f2035" stroke-linecap="round" stroke-linejoin="round" stroke-miterlimit="10" stroke-width="0.574"/>
              <path id="Trazado_1042872" data-name="Trazado 1042872" d="M86.546,308.026s13.341-5.845,13.469-24.65" transform="translate(-79.303 -280.39)" fill="none" stroke="#2f2035" stroke-linecap="round" stroke-linejoin="round" stroke-miterlimit="10" stroke-width="0.574"/>
              <line id="Línea_706" data-name="Línea 706" y1="4.828" x2="26.302" transform="translate(34.879 40.658)" fill="none" stroke="#2f2035" stroke-linecap="round" stroke-linejoin="round" stroke-miterlimit="10" stroke-width="0.574"/>
              <line id="Línea_707" data-name="Línea 707" x2="8.259" y2="4.829" transform="translate(45.552 43.454)" fill="none" stroke="#2f2035" stroke-linecap="round" stroke-linejoin="round" stroke-miterlimit="10" stroke-width="0.574"/>
              <line id="Línea_708" data-name="Línea 708" x2="6.48" y2="28.589" transform="translate(51.27 51.649)" fill="none" stroke="#2f2035" stroke-linecap="round" stroke-linejoin="round" stroke-miterlimit="10" stroke-width="0.574"/>
              <line id="Línea_709" data-name="Línea 709" y1="63.658" x2="9.911" transform="translate(0 9.147)" fill="none" stroke="#2f2035" stroke-linecap="round" stroke-linejoin="round" stroke-miterlimit="10" stroke-width="0.574"/>
            </g>
          </g>
          <g id="Grupo_1180207" data-name="Grupo 1180207" transform="translate(3.162 110.109)">
            <path id="Trazado_1042873" data-name="Trazado 1042873" d="M118.512,212.416c10.565.267,16.552-5.588,19.857-11.2-1.6-.308-3.19-.561-4.736-.748-9.235-1.119-12.3-.8-13.278-.552-.98-.248-4.043-.567-13.278.552a73.142,73.142,0,0,0-8.431,1.563C101.121,206.525,106.59,212.114,118.512,212.416Z" transform="translate(-61.335 -199.679)" fill="#429797"/>
            <g id="Grupo_1180206" data-name="Grupo 1180206" transform="translate(0 1.541)">
              <path id="Trazado_1042874" data-name="Trazado 1042874" d="M86.935,248.821c.592.02,1.05.019,1.324.013l1.125-3.7S88.319,246.721,86.935,248.821Z" transform="translate(-61.94 -198.871)" fill="#429797"/>
              <path id="Trazado_1042875" data-name="Trazado 1042875" d="M64.833,237.9c-1.023,2.242-1.665,3.668-1.665,3.668,11.824,6.5,21.318,7.5,24.995,7.624,1.384-2.1,2.449-3.685,2.449-3.685C80.2,244.907,70.773,240.986,64.833,237.9Z" transform="translate(-63.168 -199.245)" fill="#429797"/>
              <path id="Trazado_1042876" data-name="Trazado 1042876" d="M152.958,248.735l-3.471-3.155c-.18.013-.358.032-.538.042l3.089,10.15c-.606-2.466-1.254-4.827-1.946-6.974A24.29,24.29,0,0,0,152.958,248.735Z" transform="translate(-58.736 -198.848)" fill="#429797"/>
              <path id="Trazado_1042877" data-name="Trazado 1042877" d="M152.932,249.12c4.31-.3,13.115-1.673,23.818-7.56,0,0-.6-1.327-1.552-3.421-5.8,3.068-15.241,7.1-25.736,7.827Z" transform="translate(-58.71 -199.233)" fill="#429797"/>
              <path id="Trazado_1042878" data-name="Trazado 1042878" d="M166.2,213.742c-3.647-5.53-15.476-10.45-26.643-12.6-3.3,5.609-9.291,11.463-19.857,11.2-11.922-.3-17.391-5.89-19.867-10.381-10.233,2.492-20.222,7.088-23.206,12.16-.27.46-.576,1.01-.905,1.62C105.694,223.026,137.43,223.4,166.2,213.742Z" transform="translate(-62.52 -201.144)" fill="#fab94c"/>
              <path id="Trazado_1042879" data-name="Trazado 1042879" d="M166.517,213.123c-28.765,9.662-60.5,9.283-90.478,2-1.733,3.21-4.2,8.305-6.533,13.264,34.36,9.9,70.162,8.507,103.856-1.8-2.517-5.306-5.066-10.5-6.586-13.08C166.7,213.374,166.6,213.249,166.517,213.123Z" transform="translate(-62.841 -200.525)" fill="#4ca5a2"/>
              <path id="Trazado_1042880" data-name="Trazado 1042880" d="M69.752,227.723c-1.917,4.073-3.746,8.049-5,10.8,5.94,3.085,15.367,7,25.781,7.608l62.514-.255.792.72c10.5-.726,19.933-4.759,25.736-7.827-1.436-3.149-3.687-8.047-5.966-12.85C139.914,236.23,104.111,237.618,69.752,227.723Z" transform="translate(-63.086 -199.864)" fill="#fab94c"/>
              <path id="Trazado_1042881" data-name="Trazado 1042881" d="M85.487,273.711c-.726,9.574-1.056,17.6-1.056,17.6,8.081-4.919,33.363-6.008,36.657-6.089,3.294.081,32.006-1.117,40.087,3.8,0,0-.806-7.535-2.318-16.894C134.35,270.282,109.581,271.276,85.487,273.711Z" transform="translate(-62.069 -197.526)" fill="#4ca5a2"/>
              <path id="Trazado_1042882" data-name="Trazado 1042882" d="M158.807,272.808c-.68-4.213-1.5-8.8-2.462-13.227-23.38-.871-46.631-3.042-69.531.212-.563,4.72-1.018,9.846-1.378,14.594C109.529,271.953,134.3,270.96,158.807,272.808Z" transform="translate(-62.017 -198.203)" fill="#fab94c"/>
              <path id="Trazado_1042883" data-name="Trazado 1042883" d="M152.163,245.657c.181-.01.359-.029.538-.042l-.792-.72L89.4,245.15l-1.125,3.7c.219-.005.363-.013.363-.013a110.008,110.008,0,0,0-1.887,11.641c22.9-3.255,46.151-1.083,69.531-.212-.326-1.509-.668-3-1.024-4.455Z" transform="translate(-61.95 -198.884)" fill="#4ca5a2"/>
            </g>
            <path id="Trazado_1042884" data-name="Trazado 1042884" d="M112.185,268.709a146.511,146.511,0,0,0,22.676-33.347" transform="translate(-60.635 -197.835)" fill="none" stroke="#429797" stroke-linecap="round" stroke-linejoin="round" stroke-miterlimit="10" stroke-width="0.574"/>
            <path id="Trazado_1042885" data-name="Trazado 1042885" d="M123.541,273.3a51.088,51.088,0,0,0,13.545-28.189" transform="translate(-60.049 -197.332)" fill="none" stroke="#429797" stroke-linecap="round" stroke-linejoin="round" stroke-miterlimit="10" stroke-width="0.574"/>
            <path id="Trazado_1042886" data-name="Trazado 1042886" d="M89.267,244.947c-.508-1.27,2.287-19.314,4.066-23.888s6.1-16.517,6.1-16.517" transform="translate(-61.823 -199.428)" fill="none" stroke="#429797" stroke-linecap="round" stroke-linejoin="round" stroke-miterlimit="10" stroke-width="0.574"/>
            <path id="Trazado_1042887" data-name="Trazado 1042887" d="M137.834,204.541S146.728,220.3,148,225.888s1.778,18.8,1.778,18.8" transform="translate(-59.31 -199.428)" fill="none" stroke="#429797" stroke-linecap="round" stroke-linejoin="round" stroke-miterlimit="10" stroke-width="0.574"/>
            <path id="Trazado_1042888" data-name="Trazado 1042888" d="M84.915,286.779s31.766-12.452,74.966-3.05" transform="translate(-62.044 -195.518)" fill="none" stroke="#429797" stroke-linecap="round" stroke-linejoin="round" stroke-miterlimit="10" stroke-width="0.574"/>
          </g>
          <g id="Grupo_1180220" data-name="Grupo 1180220" transform="translate(2.213)">
            <g id="Grupo_1180208" data-name="Grupo 1180208" transform="translate(42.718 97.535)">
              <path id="Trazado_1042889" data-name="Trazado 1042889" d="M102.885,190.28l.712,7.443a66.679,66.679,0,0,0,26.926.647l.159-10.646Z" transform="translate(-102.885 -187.723)" fill="#eca278"/>
              <path id="Trazado_1042890" data-name="Trazado 1042890" d="M103.563,197.232l1.082,5.273s1.535,6.054,12.1,6.054c11.845,0,13.58-6.054,13.58-6.054l.159-4.626A66.712,66.712,0,0,1,103.563,197.232Z" transform="translate(-102.85 -187.232)" fill="#f8bc8d"/>
            </g>
            <path id="Trazado_1042891" data-name="Trazado 1042891" d="M87.067,106.06a37.029,37.029,0,0,0-20.044,18.9c-.869,1.9-1.585,4.017-1.091,6.046s2.654,3.762,4.629,3.086a16.326,16.326,0,0,0,9.314,30.519" transform="translate(-62.266 -94.407)" fill="none" stroke="#be6854" stroke-miterlimit="10" stroke-width="0.656"/>
            <g id="Grupo_1180209" data-name="Grupo 1180209" transform="translate(13.66 11.108)">
              <path id="Trazado_1042892" data-name="Trazado 1042892" d="M154.437,128.52s4.307,15.556,2.223,37.474c-1.626,17.1-16.872,32.543-37.88,31.913C99.035,197.315,79.4,187.475,75.9,159.368s7.25-49.2,32.808-52.942S150.963,110.959,154.437,128.52Z" transform="translate(-75.254 -105.542)" fill="#f8bc8d"/>
            </g>
            <path id="Trazado_1042893" data-name="Trazado 1042893" d="M148.771,107.758c5.375,3.547,10.947,7.3,14.115,12.909s3.054,13.635-2.01,17.614l2.773,12.269a29.916,29.916,0,0,1,1.095,9.219c-.28,3.1-1.694,6.251-4.355,7.858-3.407,2.057-8.115.959-10.913-1.871s-3.9-7-3.818-10.977,1.219-7.853,2.347-11.669a98.062,98.062,0,0,1-9.66-18.646c-1.291-3.325-2.416-6.933-1.629-10.413s4.175-6.6,7.662-5.855" transform="translate(-58.432 -94.319)" fill="#be6854"/>
            <path id="Trazado_1042894" data-name="Trazado 1042894" d="M157.057,169.115a10.69,10.69,0,0,0,8.355-8.481c.556-3.249-.446-6.548-1.56-9.65a124.46,124.46,0,0,0-6.722-15.38c1,1.7,2.438,3.566,4.414,3.506a3.8,3.8,0,0,0,3.17-2.423,8.616,8.616,0,0,0,.441-4.147,24.742,24.742,0,0,0-18.871-21.924" transform="translate(-57.925 -94.172)" fill="none" stroke="#be6854" stroke-miterlimit="10" stroke-width="0.656"/>
            <path id="Trazado_1042895" data-name="Trazado 1042895" d="M77.358,156.782s7.628-1.025,9.767-13.95c0,0,6.553-2,9.859-14.816,0,0,32.071,15.886,42.079,10.42a6.312,6.312,0,0,0,2.315-7.657s4.953,4.2,14.526,2.189,5.777-16.012-.129-18.324c0,0,5-17.364-14.179-16.563s-22.005-2.608-33.047-3.075A23.993,23.993,0,0,0,86.777,106.04s-27.28,11.7-19.121,28.279c0,0-9.79,14.973,1,21.636S77.358,156.782,77.358,156.782Z" transform="translate(-62.197 -94.98)" fill="#be6854"/>
            <path id="Trazado_1042896" data-name="Trazado 1042896" d="M83.942,111.561a33.471,33.471,0,0,1-5.856-7.991c-.35-.666-.554-1.707.145-1.982.53-.209,1.061.271,1.428.707q1.977,2.333,3.952,4.668A23.318,23.318,0,0,1,81.119,98.4c-.1-1.1.029-2.459,1.034-2.911a1.945,1.945,0,0,1,2.2.714,5.694,5.694,0,0,1,.914,2.3q1.388,5.879,2.775,11.76" transform="translate(-61.465 -94.96)" fill="#be6854"/>
            <path id="Trazado_1042897" data-name="Trazado 1042897" d="M91.733,124.652A270.84,270.84,0,0,0,122.826,137.5c3.518,1.2,7.21,2.349,10.893,1.836s7.332-3.182,7.739-6.878c.3-2.759-1.186-5.362-2.621-7.737a14.62,14.62,0,0,0,21.869,3.53" transform="translate(-60.743 -93.447)" fill="none" stroke="#be6854" stroke-miterlimit="10" stroke-width="0.656"/>
            <path id="Trazado_1042898" data-name="Trazado 1042898" d="M143.269,174.751l2.405-15.816s18.936-3.757,18.265,11.417S147.329,184.781,143.269,174.751Z" transform="translate(-58.08 -91.697)" fill="#f8bc8d"/>
            <g id="Grupo_1180210" data-name="Grupo 1180210" transform="translate(89.357 71.863)">
              <path id="Trazado_1042899" data-name="Trazado 1042899" d="M148.142,175.87a.305.305,0,0,0,.317-.4c-.026-.077-2.564-7.642,2.822-10.538a6.735,6.735,0,0,1,5.337-.74,8.389,8.389,0,0,1,4.35,3.882.3.3,0,1,0,.545-.269,8.859,8.859,0,0,0-4.705-4.191,7.317,7.317,0,0,0-5.815.782c-5.843,3.14-3.137,11.191-3.109,11.272A.3.3,0,0,0,148.142,175.87Z" transform="translate(-147.233 -163.312)" fill="#763633"/>
            </g>
            <g id="Grupo_1180211" data-name="Grupo 1180211" transform="translate(89.507 76.526)">
              <path id="Trazado_1042900" data-name="Trazado 1042900" d="M156.151,170.431a.3.3,0,0,0,.232-.529c-.046-.042-4.771-4.232-8.9-.817a.3.3,0,1,0,.387.469c3.724-3.081,8.06.761,8.1.8A.306.306,0,0,0,156.151,170.431Z" transform="translate(-147.375 -167.746)" fill="#763633"/>
            </g>
            <path id="Trazado_1042901" data-name="Trazado 1042901" d="M105.914,172.635c-.843,2.822-5.809,3.828-11.093,2.248s-8.882-5.147-8.039-7.967,5.809-3.828,11.093-2.248S106.757,169.814,105.914,172.635Z" transform="translate(-61.005 -91.418)" fill="#eca278"/>
            <path id="Trazado_1042902" data-name="Trazado 1042902" d="M84.294,169.139l-3.06-16.492s-14.209-6.752-16.41,8.277S78.416,178.224,84.294,169.139Z" transform="translate(-62.144 -92.078)" fill="#f8bc8d"/>
            <path id="Trazado_1042903" data-name="Trazado 1042903" d="M91.958,147.961s-2.756-2.963,3.927-5.7,8.85-1.791,9.723-.021c.8,1.615-.878,3.764-4.663,5.227C96.4,149.221,93.446,149.654,91.958,147.961Z" transform="translate(-60.761 -92.626)" fill="#be6854"/>
            <path id="Trazado_1042904" data-name="Trazado 1042904" d="M104.1,159.138c-.157,2.061-1.656,3.629-3.347,3.5s-2.936-1.9-2.779-3.967,1.656-3.629,3.347-3.5S104.254,157.076,104.1,159.138Z" transform="translate(-60.421 -91.87)" fill="#000100"/>
            <path id="Trazado_1042905" data-name="Trazado 1042905" d="M123.924,174.324c.3,2.93,4.984,4.854,10.47,4.3s9.693-3.38,9.4-6.31-4.985-4.854-10.47-4.3S123.627,171.395,123.924,174.324Z" transform="translate(-59.081 -91.211)" fill="#eca278"/>
            <path id="Trazado_1042906" data-name="Trazado 1042906" d="M141.99,152.757s3.265-2.389-2.782-6.34-8.353-3.427-9.545-1.853c-1.086,1.437.154,3.863,3.595,6.012C137.388,153.157,140.21,154.139,141.99,152.757Z" transform="translate(-58.803 -92.479)" fill="#be6854"/>
            <path id="Trazado_1042907" data-name="Trazado 1042907" d="M128.431,160.839c-.157,2.061,1.086,3.838,2.779,3.967s3.191-1.438,3.347-3.5-1.086-3.838-2.779-3.967S128.588,158.778,128.431,160.839Z" transform="translate(-58.848 -91.758)" fill="#000100"/>
            <g id="Grupo_1180212" data-name="Grupo 1180212" transform="translate(5.233 63.729)">
              <path id="Trazado_1042908" data-name="Trazado 1042908" d="M78.914,169.294a.312.312,0,0,1-.123-.039.3.3,0,0,1-.111-.415c.04-.07,3.958-7.023-.786-10.881a6.736,6.736,0,0,0-5.1-1.733,8.386,8.386,0,0,0-5,2.993.3.3,0,1,1-.485-.367,8.861,8.861,0,0,1,5.411-3.229,7.316,7.316,0,0,1,5.563,1.865c5.146,4.186.972,11.581.929,11.656A.3.3,0,0,1,78.914,169.294Z" transform="translate(-67.241 -155.578)" fill="#763633"/>
            </g>
            <g id="Grupo_1180213" data-name="Grupo 1180213" transform="translate(9.739 69.027)">
              <path id="Trazado_1042909" data-name="Trazado 1042909" d="M71.8,162.406a.3.3,0,0,1-.129-.563c.054-.033,5.483-3.256,8.893.875a.3.3,0,1,1-.469.387c-3.076-3.728-8.059-.772-8.108-.741A.31.31,0,0,1,71.8,162.406Z" transform="translate(-71.526 -160.615)" fill="#763633"/>
            </g>
            <g id="Grupo_1180214" data-name="Grupo 1180214" transform="translate(54.492 55.089)">
              <path id="Trazado_1042910" data-name="Trazado 1042910" d="M122.2,158.6a2.285,2.285,0,0,0-2.792-.489c-.035.014-.088.039-.16.072-2.341,1.079-3.847.99-4.478-.262-.48-.951.025-5.9.65-10.556a1.72,1.72,0,0,1-.52,0c-.611,4.528-1.143,9.678-.585,10.787.535,1.059,1.861,2,5.144.493.063-.028.11-.05.14-.062a1.789,1.789,0,0,1,2.213.346,4.324,4.324,0,0,1,.033,4.522,6.862,6.862,0,0,1-3.2,2.476.254.254,0,0,0,.059.493.264.264,0,0,0,.106-.013,7.248,7.248,0,0,0,3.468-2.689A4.811,4.811,0,0,0,122.2,158.6Z" transform="translate(-114.08 -147.362)" fill="#763633"/>
            </g>
            <g id="Grupo_1180218" data-name="Grupo 1180218" transform="translate(19.002 50.217)">
              <g id="Grupo_1180215" data-name="Grupo 1180215" transform="translate(44.611 2.508)">
                <path id="Trazado_1042911" data-name="Trazado 1042911" d="M122.779,160.541a16.343,16.343,0,1,1,15.4,17.235A16.362,16.362,0,0,1,122.779,160.541Zm.868.048a15.475,15.475,0,1,0,16.319-14.583A15.492,15.492,0,0,0,123.647,160.589Z" transform="translate(-122.753 -145.114)" fill="#151723"/>
              </g>
              <g id="Grupo_1180216" data-name="Grupo 1180216">
                <path id="Trazado_1042912" data-name="Trazado 1042912" d="M80.36,158.157a16.343,16.343,0,1,1,15.4,17.234A16.363,16.363,0,0,1,80.36,158.157Zm.867.048a15.475,15.475,0,1,0,16.32-14.582A15.492,15.492,0,0,0,81.227,158.205Z" transform="translate(-80.334 -142.729)" fill="#151723"/>
              </g>
              <g id="Grupo_1180217" data-name="Grupo 1180217" transform="translate(31.92 13.182)">
                <path id="Trazado_1042913" data-name="Trazado 1042913" d="M111.1,157.48a.428.428,0,0,0,.222-.047c6.414-3.289,12.506.666,12.567.707a.435.435,0,0,0,.481-.725c-.065-.042-6.583-4.271-13.445-.756a.435.435,0,0,0,.175.821Z" transform="translate(-110.686 -155.263)" fill="#151723"/>
              </g>
            </g>
            <g id="Grupo_1180219" data-name="Grupo 1180219" transform="translate(51.392 76.961)">
              <path id="Trazado_1042914" data-name="Trazado 1042914" d="M115.231,174.951a10.767,10.767,0,0,1-3.021-2.426,17.922,17.922,0,0,0,.459-3.169,1.419,1.419,0,0,1,.49-1.057,1.106,1.106,0,0,1,1.107.02,2.219,2.219,0,0,1,.764.807,5.912,5.912,0,0,1,.167,5.917c-.068,0-.02-.129.035-.091" transform="translate(-111.077 -168.159)" fill="#e95236"/>
              <path id="Trazado_1042915" data-name="Trazado 1042915" d="M111.133,171.13s3.741,6.034,9.881,3.952" transform="translate(-111.133 -168.006)" fill="none" stroke="#763633" stroke-linecap="round" stroke-linejoin="round" stroke-miterlimit="10" stroke-width="0.638"/>
            </g>
          </g>
          <path id="Trazado_1042916" data-name="Trazado 1042916" d="M139.364,219.564a10.216,10.216,0,0,1-1.738-2.373,1.262,1.262,0,0,1-.146-1.22c.283-.45.952-.4,1.461-.242a9.445,9.445,0,0,1,5.116,3.825" transform="translate(-56.172 -88.747)" fill="#f8bc8d"/>
          <g id="Grupo_1180225" data-name="Grupo 1180225" transform="translate(68.153 85.236)">
            <g id="Grupo_1180221" data-name="Grupo 1180221" transform="translate(0 0.8)">
              <path id="Trazado_1042917" data-name="Trazado 1042917" d="M125.793,196.084l-.826.434v15.937a1.277,1.277,0,0,0,1.277,1.277H145.38a2.077,2.077,0,0,0,2.056-1.855l-.453-15.794h-21.19Z" transform="translate(-124.966 -175.792)" fill="#d83d2a"/>
              <path id="Trazado_1042918" data-name="Trazado 1042918" d="M146.983,197.081l-.264-9.2a11.091,11.091,0,0,0-11.091-11.091h-.339a10.323,10.323,0,0,0-10.323,10.323v10.4l.826-.434h21.191Z" transform="translate(-124.966 -176.789)" fill="#f59f2d"/>
            </g>
            <g id="Grupo_1180222" data-name="Grupo 1180222" transform="translate(8.257 38.276)">
              <path id="Trazado_1042919" data-name="Trazado 1042919" d="M136.427,229.607a3.23,3.23,0,0,1-3.231-3.231V216.039c-.126,0-.253.016-.38.019v10.783a3.23,3.23,0,0,0,5.916,1.8A3.219,3.219,0,0,1,136.427,229.607Z" transform="translate(-132.817 -212.237)" fill="#dd8d66"/>
              <path id="Trazado_1042920" data-name="Trazado 1042920" d="M133.2,215.78v-3.355h-.38v3.819c.126,0,.253-.015.38-.019Z" transform="translate(-132.817 -212.424)" fill="#dd8d66"/>
              <path id="Trazado_1042921" data-name="Trazado 1042921" d="M138.962,212.425v2.554c.126-.03.253-.054.38-.086v-2.468Z" transform="translate(-132.5 -212.424)" fill="#dd8d66"/>
              <path id="Trazado_1042922" data-name="Trazado 1042922" d="M133.178,215.78a28.1,28.1,0,0,0,6.082-.8v-2.555h-6.082Z" transform="translate(-132.798 -212.424)" fill="#dd8d66"/>
              <path id="Trazado_1042923" data-name="Trazado 1042923" d="M138.989,215.236v11.669a3.215,3.215,0,0,1-.546,1.8,3.217,3.217,0,0,0,.925-2.259V214.772c-.126.033-.253.056-.38.086v.378Z" transform="translate(-132.526 -212.303)" fill="#eca278"/>
              <path id="Trazado_1042924" data-name="Trazado 1042924" d="M139.261,215.213a28.215,28.215,0,0,1-6.082.869v10.337a3.063,3.063,0,1,0,6.082.464Z" transform="translate(-132.798 -212.28)" fill="#eca278"/>
              <path id="Trazado_1042925" data-name="Trazado 1042925" d="M133.178,216.1a28.214,28.214,0,0,0,6.082-.869v-.378a28.249,28.249,0,0,1-6.082.8Z" transform="translate(-132.798 -212.298)" fill="#eca278"/>
            </g>
            <g id="Grupo_1180223" data-name="Grupo 1180223" transform="translate(0.801)">
              <path id="Trazado_1042926" data-name="Trazado 1042926" d="M147.481,197.12v-10a11.091,11.091,0,0,0-11.091-11.091h-.339a10.323,10.323,0,0,0-10.323,10.323v10.782l.025-.013Z" transform="translate(-125.728 -176.028)" fill="#ffcb24"/>
              <path id="Trazado_1042927" data-name="Trazado 1042927" d="M125.753,196.084l-.025.013v15.558A1.277,1.277,0,0,0,127,212.932h19.136a1.339,1.339,0,0,0,1.339-1.339V196.084H125.753Z" transform="translate(-125.728 -174.992)" fill="#e95236"/>
            </g>
            <g id="Grupo_1180224" data-name="Grupo 1180224" transform="translate(4.647 8.094)" opacity="0.2">
              <path id="Trazado_1042928" data-name="Trazado 1042928" d="M132.3,209.047h0a2.918,2.918,0,0,1-2.918-2.918V186.642a2.918,2.918,0,0,1,2.918-2.918h0a2.918,2.918,0,0,1,2.918,2.918v19.486A2.919,2.919,0,0,1,132.3,209.047Z" transform="translate(-129.385 -183.724)" fill="#fff"/>
              <path id="Trazado_1042929" data-name="Trazado 1042929" d="M140.123,209.047h0a3.044,3.044,0,0,1-2.918-3.156V186.88a3.044,3.044,0,0,1,2.918-3.156h0a3.044,3.044,0,0,1,2.918,3.156v19.012A3.043,3.043,0,0,1,140.123,209.047Z" transform="translate(-128.981 -183.724)" fill="#fff"/>
            </g>
          </g>
          <path id="Trazado_1042930" data-name="Trazado 1042930" d="M146.061,219.626s-3.113-3.4-12.961-1.525c0,0-2.611.667-1.27,2.8.54.858,2.287.508,2.287.508s-3.3.255-3.05,1.778,0,2.033,3.558,1.525c0,0-3.558,0-3.3,1.778s2.8,1.27,2.8,1.27-2.287.255-2.287,1.778,2.827.794,2.827.794,2.509,3.017,9.117,6.067c0,0,7.624,32.528,22.108,37.356s21.855-7.624,15.247-19.059S151.144,224.708,146.061,219.626Z" transform="translate(-56.498 -88.647)" fill="#f8bc8d"/>
        </g>
      </g>
    </g>
  </g>
</svg>
