<svg xmlns="http://www.w3.org/2000/svg" xmlns:xlink="http://www.w3.org/1999/xlink" width="108" height="108" viewBox="0 0 108 108">
  <defs>
    <filter id="Trazado_978624" x="0" y="0" width="108" height="108" filterUnits="userSpaceOnUse">
      <feOffset dy="3" input="SourceAlpha"/>
      <feGaussianBlur stdDeviation="3" result="blur"/>
      <feFlood flood-opacity="0.161"/>
      <feComposite operator="in" in2="blur"/>
      <feComposite in="SourceGraphic"/>
    </filter>
  </defs>
  <g id="Grupo_1180779" data-name="Grupo 1180779" transform="translate(-616 -7890)">
    <g id="Grupo_1179493" data-name="Grupo 1179493" transform="translate(0 6638)">
      <g id="Grupo_1172348" data-name="Grupo 1172348" transform="translate(0 806.5)">
        <g id="Grupo_1171897" data-name="Grupo 1171897" transform="translate(625 451.5)">
          <g id="Grupo_1171052" data-name="Grupo 1171052" transform="translate(0)">
            <g id="Grupo_1164581" data-name="Grupo 1164581">
              <g id="Grupo_1144123" data-name="Grupo 1144123">
                <g transform="matrix(1, 0, 0, 1, -9, -6)" filter="url(#Trazado_978624)">
                  <g id="Trazado_978624-2" data-name="Trazado 978624" transform="translate(9 6)" fill="#fdfbec">
                    <path d="M 45 88.5 C 39.12687683105469 88.5 33.43022537231445 87.35007476806641 28.06830024719238 85.08217620849609 C 22.88852500915527 82.89131164550781 18.23629951477051 79.75458526611328 14.2408504486084 75.75914764404297 C 10.24541282653809 71.76370239257812 7.108687400817871 67.11147308349609 4.917825222015381 61.93170166015625 C 2.649924993515015 56.56977462768555 1.5 50.87312316894531 1.5 45 C 1.5 39.12687683105469 2.649924993515015 33.43022537231445 4.917825222015381 28.06830024719238 C 7.108687400817871 22.88852500915527 10.24541282653809 18.23629951477051 14.2408504486084 14.2408504486084 C 18.23629951477051 10.24541282653809 22.88852500915527 7.108687400817871 28.06830024719238 4.917825222015381 C 33.43022537231445 2.649924993515015 39.12687683105469 1.5 45 1.5 C 50.87312316894531 1.5 56.56977462768555 2.649924993515015 61.93170166015625 4.917825222015381 C 67.11147308349609 7.108687400817871 71.76370239257812 10.24541282653809 75.75914764404297 14.2408504486084 C 79.75458526611328 18.23629951477051 82.89131164550781 22.88852500915527 85.08217620849609 28.06830024719238 C 87.35007476806641 33.43022537231445 88.5 39.12687683105469 88.5 45 C 88.5 50.87312316894531 87.35007476806641 56.56977462768555 85.08217620849609 61.93170166015625 C 82.89131164550781 67.11147308349609 79.75458526611328 71.76370239257812 75.75914764404297 75.75914764404297 C 71.76370239257812 79.75458526611328 67.11147308349609 82.89131164550781 61.93170166015625 85.08217620849609 C 56.56977462768555 87.35007476806641 50.87312316894531 88.5 45 88.5 Z" stroke="none"/>
                    <path d="M 45 3 C 39.32871246337891 3 33.82865524291992 4.110054016113281 28.65262985229492 6.299339294433594 C 23.65165710449219 8.414573669433594 19.15968322753906 11.44334411621094 15.301513671875 15.301513671875 C 11.44334411621094 19.15968322753906 8.414573669433594 23.65165710449219 6.299339294433594 28.65262985229492 C 4.110054016113281 33.82865524291992 3 39.32871246337891 3 45 C 3 50.67128753662109 4.110054016113281 56.17134475708008 6.299339294433594 61.34737396240234 C 8.414573669433594 66.34834289550781 11.44334411621094 70.84031677246094 15.301513671875 74.698486328125 C 19.15968322753906 78.55665588378906 23.65165710449219 81.58542633056641 28.65262985229492 83.70066070556641 C 33.82865524291992 85.88994598388672 39.32871246337891 87 45 87 C 50.67128753662109 87 56.17134475708008 85.88994598388672 61.34737396240234 83.70066070556641 C 66.34834289550781 81.58542633056641 70.84031677246094 78.55665588378906 74.698486328125 74.698486328125 C 78.55665588378906 70.84031677246094 81.58542633056641 66.34834289550781 83.70066070556641 61.34737396240234 C 85.88994598388672 56.17134475708008 87 50.67128753662109 87 45 C 87 39.32871246337891 85.88994598388672 33.82865524291992 83.70066070556641 28.65262985229492 C 81.58542633056641 23.65165710449219 78.55665588378906 19.15968322753906 74.698486328125 15.301513671875 C 70.84031677246094 11.44334411621094 66.34834289550781 8.414573669433594 61.34737396240234 6.299339294433594 C 56.17134475708008 4.110054016113281 50.67128753662109 3 45 3 M 45 0 C 69.85281372070312 0 90 20.14718627929688 90 45 C 90 69.85281372070312 69.85281372070312 90 45 90 C 20.14718627929688 90 0 69.85281372070312 0 45 C 0 20.14718627929688 20.14718627929688 0 45 0 Z" stroke="none" fill="#84792b"/>
                  </g>
                </g>
              </g>
            </g>
          </g>
        </g>
      </g>
    </g>
    <g id="muchacha" transform="translate(616.606 7912.5)">
      <g id="Grupo_1180777" data-name="Grupo 1180777" transform="translate(25.966 0.877)">
        <path id="Trazado_1044162" data-name="Trazado 1044162" d="M173.7,416.156c0-7.547-3.183-11.7-3.183-11.7H144.832s-3.183,4.154-3.183,11.7Z" transform="translate(-128.894 -358.03)" fill="#ff8d9d"/>
        <path id="Trazado_1044163" data-name="Trazado 1044163" d="M88.851,29.7a22.2,22.2,0,1,1,44.4,0Z" transform="translate(-82.271 -7.5)" fill="#696eb1"/>
        <circle id="Elipse_12559" data-name="Elipse 12559" cx="5.249" cy="5.249" r="5.249" transform="translate(41.758 18.121)" fill="#c7856a"/>
        <path id="Trazado_1044164" data-name="Trazado 1044164" d="M59.926,7.914a22.051,22.051,0,0,0-10.033,3.159A6.348,6.348,0,0,0,38.534,12.8a6.376,6.376,0,0,1-3.449,4.07,7.487,7.487,0,0,1-1.05.379,1.984,1.984,0,0,0-.859,3.313,7.86,7.86,0,0,0,7.107,2.566,22.111,22.111,0,0,0-1.111,6.937h9.35a21.489,21.489,0,0,1,11.4-22.153Z" transform="translate(-32.593 -7.866)" fill="#4c5698"/>
        <path id="Trazado_1044165" data-name="Trazado 1044165" d="M159.635,97.4a3.882,3.882,0,0,0-4.339-2.982,33.075,33.075,0,0,1-4.515.308,30.485,30.485,0,0,1-17.7-5.416,3.9,3.9,0,0,0-5.332.745A18.1,18.1,0,1,0,159.635,97.4Z" transform="translate(-113.165 -79.095)" fill="#da9d81"/>
        <path id="Trazado_1044166" data-name="Trazado 1044166" d="M88.358,98.228a21.378,21.378,0,0,1,2.279-9.633,3.894,3.894,0,0,0-3.406,1.461,18.037,18.037,0,0,0-3.457,7.193,5.314,5.314,0,0,0-.572-.032,5.249,5.249,0,1,0,1.242,10.35A18.115,18.115,0,0,0,104.772,119.1,21.478,21.478,0,0,1,88.358,98.228Z" transform="translate(-72.647 -79.097)" fill="#c7856a"/>
        <g id="Grupo_1180775" data-name="Grupo 1180775" transform="translate(15.328 22.896)">
          <g id="Grupo_1180774" data-name="Grupo 1180774">
            <g id="Grupo_1180772" data-name="Grupo 1180772">
              <ellipse id="Elipse_12560" data-name="Elipse 12560" cx="3.626" cy="2.887" rx="3.626" ry="2.887" fill="#eeedff"/>
            </g>
            <g id="Grupo_1180773" data-name="Grupo 1180773" transform="translate(19.654)">
              <ellipse id="Elipse_12561" data-name="Elipse 12561" cx="3.626" cy="2.887" rx="3.626" ry="2.887" fill="#eeedff"/>
            </g>
          </g>
        </g>
        <path id="Trazado_1044167" data-name="Trazado 1044167" d="M201.854,248.527h-6.246V247a3.728,3.728,0,0,0-7.456,0v1.522h-6.246a1.522,1.522,0,0,0-1.522,1.522v18.778a1.522,1.522,0,0,0,1.522,1.522h6.246v-1.522a3.728,3.728,0,0,1,7.456,0v1.522h6.246a1.522,1.522,0,0,0,1.522-1.522V250.05A1.522,1.522,0,0,0,201.854,248.527Z" transform="translate(-163.1 -215.702)" fill="#fce29f"/>
        <path id="Trazado_1044168" data-name="Trazado 1044168" d="M148.763,411.131a15.957,15.957,0,0,1,1.454-6.676h-5.387s-3.183,4.154-3.183,11.7h7.92A16,16,0,0,1,148.763,411.131Z" transform="translate(-128.894 -358.03)" fill="#e95b70"/>
        <path id="Trazado_1044169" data-name="Trazado 1044169" d="M184.99,291.448a19.69,19.69,0,0,1,.275-3.278h-3.356a1.522,1.522,0,0,0-1.522,1.522V308.47a1.522,1.522,0,0,0,1.522,1.522h6.246V308.47a3.723,3.723,0,0,1,1.6-3.062A22.535,22.535,0,0,1,184.99,291.448Z" transform="translate(-163.101 -255.345)" fill="#ffcd71"/>
        <path id="Trazado_1044170" data-name="Trazado 1044170" d="M133.08,368.411a3.728,3.728,0,0,0-4.732-2.324l-4.581,1.564a3.728,3.728,0,1,0,2.409,7.056l4.581-1.564A3.728,3.728,0,0,0,133.08,368.411Z" transform="translate(-110.874 -323.972)" fill="#da9d81"/>
        <path id="Trazado_1044171" data-name="Trazado 1044171" d="M333.382,368.411a3.728,3.728,0,0,1,4.732-2.324l4.581,1.564a3.728,3.728,0,1,1-2.409,7.056l-4.581-1.564A3.728,3.728,0,0,1,333.382,368.411Z" transform="translate(-298.026 -323.972)" fill="#da9d81"/>
        <g id="Grupo_1180776" data-name="Grupo 1180776" transform="translate(10.368 42.08)">
          <path id="Trazado_1044172" data-name="Trazado 1044172" d="M133.082,385.411c-.032-.093-.068-.184-.107-.273a7.557,7.557,0,0,1-11.329,1.36,3.727,3.727,0,0,0,4.531,5.209l4.581-1.564A3.728,3.728,0,0,0,133.082,385.411Z" transform="translate(-121.245 -383.052)" fill="#c7856a"/>
          <path id="Trazado_1044173" data-name="Trazado 1044173" d="M343.312,373.89a7.557,7.557,0,0,1-7.493-6.589,3.727,3.727,0,0,0-.111,7.091l4.581,1.564A3.727,3.727,0,0,0,345,373.7a7.575,7.575,0,0,1-1.684.191Z" transform="translate(-308.395 -367.301)" fill="#c7856a"/>
        </g>
      </g>
      <g id="Grupo_1180778" data-name="Grupo 1180778" transform="translate(25.089 0)">
        <path id="Trazado_1044174" data-name="Trazado 1044174" d="M205.228,184.891v1.482a.877.877,0,1,0,1.754,0v-1.482a.877.877,0,1,0-1.754,0Z" transform="translate(-184.16 -162.493)"/>
        <path id="Trazado_1044175" data-name="Trazado 1044175" d="M338.892,186.373v-1.482a.877.877,0,1,0-1.754,0v1.482a.877.877,0,1,0,1.754,0Z" transform="translate(-300.643 -162.493)"/>
        <path id="Trazado_1044176" data-name="Trazado 1044176" d="M254.01,197.764a3.573,3.573,0,0,0,5.39,0,.877.877,0,0,0-1.323-1.153,1.818,1.818,0,0,1-2.745,0,.877.877,0,0,0-1.323,1.153Z" transform="translate(-227.046 -173.351)"/>
        <path id="Trazado_1044177" data-name="Trazado 1044177" d="M32.445,17.146a22.938,22.938,0,0,0-.607,3.157,6.119,6.119,0,0,0,5.37,10.031,19.064,19.064,0,0,0,5.166,7.118V42.43l-3.8,1.3a4.6,4.6,0,0,0,.1,8.749A25.19,25.19,0,0,0,37.844,59a.877.877,0,0,0,.877.877H70.774A.877.877,0,0,0,71.651,59a25.191,25.191,0,0,0-.833-6.529,4.6,4.6,0,0,0,.1-8.748l-3.8-1.3V37.478A18.965,18.965,0,0,0,72.3,30.335,6.121,6.121,0,0,0,77.657,20.3,22.986,22.986,0,0,0,69.7,5.515.877.877,0,1,0,68.564,6.85a21.258,21.258,0,0,1,7.061,11.874,6.162,6.162,0,0,0-2.614-.6,4.777,4.777,0,0,0-5.032-2.79,32.326,32.326,0,0,1-4.4.3,31.421,31.421,0,0,1-9.275-1.376.877.877,0,0,0-.517,1.676,33.16,33.16,0,0,0,9.792,1.454,34.057,34.057,0,0,0,4.634-.316h.007a3.016,3.016,0,0,1,3.355,2.3,17.267,17.267,0,0,1-4.464,15.708,2.412,2.412,0,0,0-2.4-2.253H59.353V32.18a4.605,4.605,0,1,0-9.21,0v.645H44.774a2.409,2.409,0,0,0-2.393,2.225,17.191,17.191,0,0,1-1.143-22.669,3.025,3.025,0,0,1,4.134-.577,28.791,28.791,0,0,0,4.718,2.718.877.877,0,0,0,.729-1.6,26.627,26.627,0,0,1-4.426-2.55,4.778,4.778,0,0,0-6.529.913,18.837,18.837,0,0,0-3.454,6.831,6.15,6.15,0,0,0-2.537.6A21.313,21.313,0,0,1,65.8,4.849a.877.877,0,0,0,.912-1.5,23.032,23.032,0,0,0-23.217-.413A7.274,7.274,0,0,0,38.527.414a7.194,7.194,0,0,0-7.46,5.149,5.461,5.461,0,0,1-3.892,3.854,2.861,2.861,0,0,0-1.244,4.78,9.066,9.066,0,0,0,6.514,2.948ZM72.913,28.619a19.162,19.162,0,0,0,.821-5.541A19.4,19.4,0,0,0,73.47,19.9a4.372,4.372,0,0,1-.557,8.716ZM37.366,49.005a2.849,2.849,0,0,1,1.777-3.619l4.581-1.564a2.851,2.851,0,1,1,1.842,5.4l-4.581,1.564A2.849,2.849,0,0,1,37.366,49.005Zm2.248,9.121a23.012,23.012,0,0,1,.828-5.45,4.79,4.79,0,0,0,1.11-.233l.823-.281V54a2.4,2.4,0,0,0,2.4,2.4H51.02a.877.877,0,0,0,.877-.877V54a2.851,2.851,0,0,1,5.7,0v1.522a.877.877,0,0,0,.877.877h6.246a2.4,2.4,0,0,0,2.4-2.4V52.162a7.9,7.9,0,0,0,1.933.513,23.017,23.017,0,0,1,.828,5.451ZM72.13,49.005a2.854,2.854,0,0,1-3.619,1.777L63.93,49.219a2.851,2.851,0,0,1,1.842-5.4l.188.064,4.392,1.5a2.849,2.849,0,0,1,1.777,3.619ZM51.02,34.58A.877.877,0,0,0,51.9,33.7V32.18a2.851,2.851,0,1,1,5.7,0V33.7a.877.877,0,0,0,.877.877h6.246a.646.646,0,0,1,.645.645v6.719h-.015a4.605,4.605,0,0,0-1.989,8.936l1.945.664.058.02V54a.646.646,0,0,1-.645.645H59.353V54a4.605,4.605,0,1,0-9.21,0v.645H44.774A.646.646,0,0,1,44.129,54v-2.44l2-.684a4.605,4.605,0,0,0-1.99-8.936h-.014V35.225a.646.646,0,0,1,.645-.645ZM36.59,28.619A4.372,4.372,0,0,1,36,19.907l.024,0a19.411,19.411,0,0,0-.238,4.074A18.783,18.783,0,0,0,36.59,28.619ZM27.643,11.108a7.217,7.217,0,0,0,5.106-5.045,5.466,5.466,0,0,1,9.223-2.194A23.193,23.193,0,0,0,33,15.356a7.033,7.033,0,0,1-5.831-2.4A1.107,1.107,0,0,1,27.643,11.108Z" transform="translate(-25.089 0)"/>
      </g>
    </g>
  </g>
</svg>
