<svg xmlns="http://www.w3.org/2000/svg" xmlns:xlink="http://www.w3.org/1999/xlink" width="108" height="108" viewBox="0 0 108 108">
  <defs>
    <filter id="Trazado_978624" x="0" y="0" width="108" height="108" filterUnits="userSpaceOnUse">
      <feOffset dy="3" input="SourceAlpha"/>
      <feGaussianBlur stdDeviation="3" result="blur"/>
      <feFlood flood-opacity="0.161"/>
      <feComposite operator="in" in2="blur"/>
      <feComposite in="SourceGraphic"/>
    </filter>
  </defs>
  <g id="Grupo_1180490" data-name="Grupo 1180490" transform="translate(-616 -6440)">
    <g id="Grupo_1172348" data-name="Grupo 1172348" transform="translate(0 5994.5)">
      <g id="Grupo_1171897" data-name="Grupo 1171897" transform="translate(625 451.5)">
        <g id="Grupo_1171052" data-name="Grupo 1171052" transform="translate(0)">
          <g id="Grupo_1164581" data-name="Grupo 1164581">
            <g id="Grupo_1144123" data-name="Grupo 1144123">
              <g transform="matrix(1, 0, 0, 1, -9, -6)" filter="url(#Trazado_978624)">
                <g id="Trazado_978624-2" data-name="Trazado 978624" transform="translate(9 6)" fill="#effbfe">
                  <path d="M 45 88.5 C 39.12687683105469 88.5 33.43022537231445 87.35007476806641 28.06830024719238 85.08217620849609 C 22.88852500915527 82.89131164550781 18.23629951477051 79.75458526611328 14.2408504486084 75.75914764404297 C 10.24541282653809 71.76370239257812 7.108687400817871 67.11147308349609 4.917825222015381 61.93170166015625 C 2.649924993515015 56.56977462768555 1.5 50.87312316894531 1.5 45 C 1.5 39.12687683105469 2.649924993515015 33.43022537231445 4.917825222015381 28.06830024719238 C 7.108687400817871 22.88852500915527 10.24541282653809 18.23629951477051 14.2408504486084 14.2408504486084 C 18.23629951477051 10.24541282653809 22.88852500915527 7.108687400817871 28.06830024719238 4.917825222015381 C 33.43022537231445 2.649924993515015 39.12687683105469 1.5 45 1.5 C 50.87312316894531 1.5 56.56977462768555 2.649924993515015 61.93170166015625 4.917825222015381 C 67.11147308349609 7.108687400817871 71.76370239257812 10.24541282653809 75.75914764404297 14.2408504486084 C 79.75458526611328 18.23629951477051 82.89131164550781 22.88852500915527 85.08217620849609 28.06830024719238 C 87.35007476806641 33.43022537231445 88.5 39.12687683105469 88.5 45 C 88.5 50.87312316894531 87.35007476806641 56.56977462768555 85.08217620849609 61.93170166015625 C 82.89131164550781 67.11147308349609 79.75458526611328 71.76370239257812 75.75914764404297 75.75914764404297 C 71.76370239257812 79.75458526611328 67.11147308349609 82.89131164550781 61.93170166015625 85.08217620849609 C 56.56977462768555 87.35007476806641 50.87312316894531 88.5 45 88.5 Z" stroke="none"/>
                  <path d="M 45 3 C 39.32871246337891 3 33.82865524291992 4.110054016113281 28.65262985229492 6.299339294433594 C 23.65165710449219 8.414573669433594 19.15968322753906 11.44334411621094 15.301513671875 15.301513671875 C 11.44334411621094 19.15968322753906 8.414573669433594 23.65165710449219 6.299339294433594 28.65262985229492 C 4.110054016113281 33.82865524291992 3 39.32871246337891 3 45 C 3 50.67128753662109 4.110054016113281 56.17134475708008 6.299339294433594 61.34737396240234 C 8.414573669433594 66.34834289550781 11.44334411621094 70.84031677246094 15.301513671875 74.698486328125 C 19.15968322753906 78.55665588378906 23.65165710449219 81.58542633056641 28.65262985229492 83.70066070556641 C 33.82865524291992 85.88994598388672 39.32871246337891 87 45 87 C 50.67128753662109 87 56.17134475708008 85.88994598388672 61.34737396240234 83.70066070556641 C 66.34834289550781 81.58542633056641 70.84031677246094 78.55665588378906 74.698486328125 74.698486328125 C 78.55665588378906 70.84031677246094 81.58542633056641 66.34834289550781 83.70066070556641 61.34737396240234 C 85.88994598388672 56.17134475708008 87 50.67128753662109 87 45 C 87 39.32871246337891 85.88994598388672 33.82865524291992 83.70066070556641 28.65262985229492 C 81.58542633056641 23.65165710449219 78.55665588378906 19.15968322753906 74.698486328125 15.301513671875 C 70.84031677246094 11.44334411621094 66.34834289550781 8.414573669433594 61.34737396240234 6.299339294433594 C 56.17134475708008 4.110054016113281 50.67128753662109 3 45 3 M 45 0 C 69.85281372070312 0 90 20.14718627929688 90 45 C 90 69.85281372070312 69.85281372070312 90 45 90 C 20.14718627929688 90 0 69.85281372070312 0 45 C 0 20.14718627929688 20.14718627929688 0 45 0 Z" stroke="none" fill="#397b86"/>
                </g>
              </g>
            </g>
          </g>
        </g>
      </g>
    </g>
    <g id="maternidad" transform="translate(642 6462.997)">
      <g id="Grupo_1180489" data-name="Grupo 1180489" transform="translate(1.083 1.086)">
        <path id="Trazado_1043392" data-name="Trazado 1043392" d="M423.273,64a2.63,2.63,0,0,1-3.888,0,2.711,2.711,0,0,0-2.676,2.745c0,2.123,4.62,5.655,4.62,5.655s4.62-3.532,4.62-5.655A2.711,2.711,0,0,0,423.273,64Z" transform="translate(-372.653 -58.152)" fill="#fe90c5"/>
        <path id="Trazado_1043393" data-name="Trazado 1043393" d="M16.563,10a2.637,2.637,0,0,0-1.944.859A2.637,2.637,0,0,0,12.676,10,2.711,2.711,0,0,0,10,12.747c0,2.123,4.62,5.655,4.62,5.655s4.62-3.532,4.62-5.655A2.711,2.711,0,0,0,16.563,10Z" transform="translate(-10 -10.002)" fill="#fe90c5"/>
      </g>
      <path id="Trazado_1043394" data-name="Trazado 1043394" d="M99.245,123.54l12.2-12.2-5.818-5.818.007-4.829a15.5,15.5,0,0,0-2.626-8.655l-4.768-7.11a3.233,3.233,0,0,0-4.554-.837,3.288,3.288,0,0,0-.854,4.383l1.822,3.006a.466.466,0,0,1-.728.571L80.513,78.636A3.214,3.214,0,0,0,76,78.566a3.161,3.161,0,0,0-.163,4.324L73.88,80.934a3.163,3.163,0,0,0-4.43-.042,3.231,3.231,0,0,0,.015,4.574l1.9,1.9a3.161,3.161,0,0,0-4.324.163,3.214,3.214,0,0,0,.07,4.514l2.126,2.126a3.161,3.161,0,0,0-4.309.148h0a3.163,3.163,0,0,0,0,4.473L75.2,109.064h0l4.123,4.123a15.5,15.5,0,0,0,10.982,4.54l3.121,0Z" transform="translate(-57.065 -69.258)" fill="#ffd4ac"/>
      <path id="Trazado_1043395" data-name="Trazado 1043395" d="M18.771,248.534l4.763-4.763,3.472,0a11.144,11.144,0,0,0,6.222-1.888l5.112-3.428a2.324,2.324,0,0,0,.609-3.263h0a2.324,2.324,0,0,0-3.109-.654l-2.21,1.339a.335.335,0,0,1-.411-.523l7.314-7.314a2.274,2.274,0,0,0,0-3.216h0a2.274,2.274,0,0,0-3.216,0l-5.109,5.109,1.6-1.587,5.109-5.109a2.274,2.274,0,0,0,0-3.216h0a2.274,2.274,0,0,0-3.216,0l-5.109,5.109L29,226.734l5.109-5.109a2.274,2.274,0,0,0,0-3.216h0a2.274,2.274,0,0,0-3.216,0l-5.109,5.109.006.006,1.338-1.338a2.274,2.274,0,0,0,0-3.216h0a2.274,2.274,0,0,0-3.216,0L20.987,221.9l2.412-2.412-5.376,5.376a11.143,11.143,0,0,0-3.264,7.9l0,2.244L10,239.763Z" transform="translate(-8.917 -194.153)" fill="#ffcc9c"/>
      <path id="Trazado_1043396" data-name="Trazado 1043396" d="M37.127,107.89a1.084,1.084,0,0,0-.766-.317h0l-3.121,0h-.02a14.5,14.5,0,0,1-5.065-.921l1.873-1.256a3.406,3.406,0,0,0-1.9-6.235h-.053l4.315-4.315a3.361,3.361,0,0,0-1.094-5.479,3.359,3.359,0,0,0-4.6-4.6,3.359,3.359,0,0,0-5.48-1.094l-1.549,1.549a3.359,3.359,0,0,0-5.433-.988l-.687.687-2.792-2.776a2.08,2.08,0,0,1,2.782-3.085l2.7,2.7a1.083,1.083,0,0,0,1.532-1.532l-4.664-4.664a2.08,2.08,0,0,1,2.941-2.941l8.172,8.188a1.083,1.083,0,0,0,1.532-1.532l-6.211-6.227a2.08,2.08,0,0,1,3.086-2.782L24.9,72.557a1.083,1.083,0,0,0,1.532-1.532l-2.276-2.276a4.243,4.243,0,0,0-7.1,1.907,4.246,4.246,0,0,0-5.926,5.926A4.242,4.242,0,0,0,8.959,83.4a4.243,4.243,0,0,0-1.865,7.092l.483.483A12.132,12.132,0,0,0,4.76,98.8l0,1.794L.318,105.037a1.083,1.083,0,1,0,1.532,1.532l4.763-4.763a1.083,1.083,0,0,0,.317-.768l0-2.244a9.993,9.993,0,0,1,2.946-7.128l5.376-5.376h0l.516-.516a1.19,1.19,0,0,1,1.773,1.584L16.1,88.791a1.083,1.083,0,0,0,0,1.532l0,0,0,0a1.083,1.083,0,0,0,1.532,0l5.1-5.115A1.191,1.191,0,0,1,24.519,86.8l-5.2,5.21a1.083,1.083,0,1,0,1.532,1.532l6.7-6.708a1.191,1.191,0,0,1,1.684,1.684l-6.708,6.7a1.083,1.083,0,0,0,1.532,1.532l5.21-5.2a1.19,1.19,0,0,1,1.584,1.773l-7.314,7.314a1.418,1.418,0,0,0,1.738,2.216l2.21-1.339a1.241,1.241,0,0,1,1.334,2.092l-5.112,3.428a10.025,10.025,0,0,1-5.6,1.7H18.09l-3.472,0h0a1.083,1.083,0,0,0-.766.317l-4.763,4.763a1.083,1.083,0,1,0,1.532,1.532l4.445-4.445,3.022,0H18.1a12.185,12.185,0,0,0,6.81-2.072l1.095-.734a16.673,16.673,0,0,0,7.209,1.65h.024l2.672,0,5.5,5.5a1.083,1.083,0,0,0,1.532-1.532ZM8.626,86.015a2.083,2.083,0,0,1,2.782-.144l.6.6-.7.7h0L9.072,89.4l-.447-.447A2.082,2.082,0,0,1,8.626,86.015Z" transform="translate(0 -60.192)"/>
      <path id="Trazado_1043397" data-name="Trazado 1043397" d="M493.083,378.452a1.084,1.084,0,1,0,.766.317A1.087,1.087,0,0,0,493.083,378.452Z" transform="translate(-438.703 -337.453)"/>
      <path id="Trazado_1043398" data-name="Trazado 1043398" d="M294.07,144.051l.006-4.38a16.526,16.526,0,0,0-2.81-9.259L286.5,123.3a4.316,4.316,0,0,0-6.06-1.132,4.33,4.33,0,0,0-1.639,4.839l-2.831-2.831a1.083,1.083,0,0,0-1.532,1.532l6.082,6.082a1.549,1.549,0,0,0,2.42-1.9l-1.863-3.073a2.149,2.149,0,0,1,2.233-3.227,2.133,2.133,0,0,1,1.391.916l4.768,7.11a14.366,14.366,0,0,1,2.443,8.05L291.9,144.5a1.083,1.083,0,0,0,.317.768l2.905,2.905a1.083,1.083,0,0,0,1.532-1.532Z" transform="translate(-244.425 -108.235)"/>
      <path id="Trazado_1043399" data-name="Trazado 1043399" d="M251.694,122.879a1.084,1.084,0,1,0-.767-.317A1.089,1.089,0,0,0,251.694,122.879Z" transform="translate(-223.462 -107.633)"/>
      <path id="Trazado_1043400" data-name="Trazado 1043400" d="M331.5,263.6a1.083,1.083,0,1,0-1.532-1.532l-.473.473a5.194,5.194,0,0,0,0,7.337,1.083,1.083,0,1,0,1.532-1.532,3.025,3.025,0,0,1,0-4.273Z" transform="translate(-292.446 -233.396)"/>
      <path id="Trazado_1043401" data-name="Trazado 1043401" d="M414.357,54a3.694,3.694,0,0,1-3.888,0,3.8,3.8,0,0,0-3.759,3.828c0,1.2.86,2.633,2.629,4.392a27.6,27.6,0,0,0,2.416,2.124,1.083,1.083,0,0,0,1.316,0,27.618,27.618,0,0,0,2.416-2.124c1.769-1.759,2.629-3.2,2.629-4.392A3.8,3.8,0,0,0,414.357,54Zm-1.944,8.1c-1.81-1.5-3.536-3.422-3.536-4.269a1.63,1.63,0,0,1,1.593-1.661,1.548,1.548,0,0,1,1.148.51,1.083,1.083,0,0,0,1.592,0,1.549,1.549,0,0,1,1.148-.51,1.63,1.63,0,0,1,1.592,1.661C415.949,58.675,414.223,60.594,412.413,62.1Z" transform="translate(-362.653 -48.149)"/>
      <path id="Trazado_1043402" data-name="Trazado 1043402" d="M5.045,10.346a1.083,1.083,0,0,0,1.316,0A27.617,27.617,0,0,0,8.777,8.223c1.769-1.759,2.629-3.2,2.629-4.392A3.8,3.8,0,0,0,7.647,0,3.721,3.721,0,0,0,5.7.556,3.721,3.721,0,0,0,3.759,0,3.8,3.8,0,0,0,0,3.831c0,1.2.86,2.633,2.629,4.392A27.625,27.625,0,0,0,5.045,10.346ZM3.759,2.169a1.548,1.548,0,0,1,1.148.51,1.083,1.083,0,0,0,1.592,0,1.549,1.549,0,0,1,1.148-.51A1.63,1.63,0,0,1,9.239,3.831c0,.845-1.726,2.764-3.537,4.269C3.892,6.6,2.167,4.678,2.167,3.831A1.63,1.63,0,0,1,3.759,2.169Z"/>
    </g>
  </g>
</svg>
