<svg xmlns="http://www.w3.org/2000/svg" xmlns:xlink="http://www.w3.org/1999/xlink" width="103" height="103" viewBox="0 0 103 103">
  <defs>
    <filter id="Trazado_978624" x="0" y="0" width="103" height="103" filterUnits="userSpaceOnUse">
      <feOffset dy="3" input="SourceAlpha"/>
      <feGaussianBlur stdDeviation="3" result="blur"/>
      <feFlood flood-opacity="0.161"/>
      <feComposite operator="in" in2="blur"/>
      <feComposite in="SourceGraphic"/>
    </filter>
  </defs>
  <g id="Grupo_1180509" data-name="Grupo 1180509" transform="translate(-215 -7174)">
    <g id="Grupo_1174730" data-name="Grupo 1174730" transform="translate(224 7185)">
      <g id="Grupo_1173798" data-name="Grupo 1173798" transform="translate(0 -5)">
        <g id="Grupo_1171925" data-name="Grupo 1171925">
          <g id="Grupo_1164524" data-name="Grupo 1164524">
            <g id="Grupo_1144123" data-name="Grupo 1144123">
              <g transform="matrix(1, 0, 0, 1, -9, -6)" filter="url(#Trazado_978624)">
                <g id="Trazado_978624-2" data-name="Trazado 978624" transform="translate(9 6)" fill="#ebe9f0">
                  <path d="M 42.5 83.5 C 36.96437835693359 83.5 31.59512901306152 82.41617584228516 26.54141235351562 80.27863311767578 C 21.65934181213379 78.21369171142578 17.27447128295898 75.25723266601562 13.50862312316895 71.49137878417969 C 9.742764472961426 67.72553253173828 6.786305904388428 63.34066009521484 4.721364498138428 58.45858764648438 C 2.583823442459106 53.40486907958984 1.5 48.03562164306641 1.5 42.5 C 1.5 36.96437835693359 2.583823442459106 31.59512901306152 4.721364498138428 26.54141235351562 C 6.786305904388428 21.65934181213379 9.742764472961426 17.27447128295898 13.50862312316895 13.50862312316895 C 17.27447128295898 9.742764472961426 21.65934181213379 6.786305904388428 26.54141235351562 4.721364498138428 C 31.59512901306152 2.583823442459106 36.96437835693359 1.5 42.5 1.5 C 48.03562164306641 1.5 53.40486907958984 2.583823442459106 58.45858764648438 4.721364498138428 C 63.34066009521484 6.786305904388428 67.72553253173828 9.742764472961426 71.49137878417969 13.50862312316895 C 75.25723266601562 17.27447128295898 78.21369171142578 21.65934181213379 80.27863311767578 26.54141235351562 C 82.41617584228516 31.59512901306152 83.5 36.96437835693359 83.5 42.5 C 83.5 48.03562164306641 82.41617584228516 53.40486907958984 80.27863311767578 58.45858764648438 C 78.21369171142578 63.34066009521484 75.25723266601562 67.72553253173828 71.49137878417969 71.49137878417969 C 67.72553253173828 75.25723266601562 63.34066009521484 78.21369171142578 58.45858764648438 80.27863311767578 C 53.40486907958984 82.41617584228516 48.03562164306641 83.5 42.5 83.5 Z" stroke="none"/>
                  <path d="M 42.5 3 C 37.16621398925781 3 31.99356079101562 4.043960571289062 27.125732421875 6.102882385253906 C 22.42246627807617 8.092185974121094 18.19785308837891 10.94070434570312 14.56928253173828 14.56928253173828 C 10.94070434570312 18.19785308837891 8.092185974121094 22.42246627807617 6.102882385253906 27.125732421875 C 4.043960571289062 31.99356079101562 3 37.16621398925781 3 42.5 C 3 47.83378601074219 4.043960571289062 53.00643920898438 6.102882385253906 57.87425231933594 C 8.092185974121094 62.57753372192383 10.94070434570312 66.80213165283203 14.56928253173828 70.43071746826172 C 18.19786834716797 74.05929565429688 22.42246627807617 76.90781402587891 27.125732421875 78.89711761474609 C 31.99356079101562 80.95603942871094 37.16621398925781 82 42.5 82 C 47.83378601074219 82 53.00642395019531 80.95603942871094 57.87425231933594 78.89711761474609 C 62.57753372192383 76.90781402587891 66.80213165283203 74.05929565429688 70.43071746826172 70.43071746826172 C 74.05929565429688 66.80213165283203 76.90781402587891 62.57753372192383 78.89711761474609 57.87425231933594 C 80.95603942871094 53.00642395019531 82 47.83378601074219 82 42.5 C 82 37.16621398925781 80.95603942871094 31.99356079101562 78.89711761474609 27.125732421875 C 76.90781402587891 22.42246627807617 74.05929565429688 18.19786834716797 70.43071746826172 14.56928253173828 C 66.80213165283203 10.94070434570312 62.57753372192383 8.092185974121094 57.87425231933594 6.102882385253906 C 53.00643920898438 4.043960571289062 47.83378601074219 3 42.5 3 M 42.5 0 C 65.97209167480469 0 85 19.02789306640625 85 42.5 C 85 65.97209167480469 65.97209167480469 85 42.5 85 C 19.02789306640625 85 0 65.97209167480469 0 42.5 C 0 19.02789306640625 19.02789306640625 0 42.5 0 Z" stroke="none" fill="#c6c0d6"/>
                </g>
              </g>
            </g>
          </g>
        </g>
      </g>
    </g>
    <g id="dibujar_1_" data-name="dibujar (1)" transform="translate(241 7195.636)">
      <g id="Grupo_1180507" data-name="Grupo 1180507" transform="translate(0.787 0.96)">
        <path id="Trazado_1043403" data-name="Trazado 1043403" d="M28.214,52.941,11.206,35.953a.42.42,0,0,1,0-.594L24.639,21.942l3.572-2.5a.42.42,0,0,1,.593,0l17,15.921a.42.42,0,0,1,0,.594l-17,16.98a.42.42,0,0,1-.593,0Z" transform="translate(-10.707 -18.255)" fill="#eef5f6"/>
        <path id="Trazado_1043404" data-name="Trazado 1043404" d="M161.429,26.855l-4.167,4.163a2.4,2.4,0,0,0-.057-3.332l-14.211-14.2a3.383,3.383,0,0,0-2.735-.655l3.568-3.564a.419.419,0,0,1,.593,0l17.008,16.988A.421.421,0,0,1,161.429,26.855Z" transform="translate(-126.328 -9.15)" fill="#deecf1"/>
        <path id="Trazado_1043405" data-name="Trazado 1043405" d="M230.181,213.624,227.5,215.2l-19.207,7.391a.42.42,0,0,1-.542-.241L199.1,199.933a.42.42,0,0,1,.241-.543l19.115-7.356,3.168-.521a.42.42,0,0,1,.542.241l8.257,21.326A.42.42,0,0,1,230.181,213.624Z" transform="translate(-178.967 -172.352)" fill="#ade194"/>
        <path id="Trazado_1043406" data-name="Trazado 1043406" d="M396.065,207.478l-3.927,1.511a1.621,1.621,0,0,0,.931-2.1l-7.782-20.168a2.4,2.4,0,0,0-1.5-1.162l3.324-1.279a.421.421,0,0,1,.543.241l8.649,22.412A.419.419,0,0,1,396.065,207.478Z" transform="translate(-344.303 -165.879)" fill="#97da7b"/>
        <path id="Trazado_1043407" data-name="Trazado 1043407" d="M31.444,291.852l-4.371.633H7.92a.42.42,0,0,1-.42-.42V268.048a.42.42,0,0,1,.42-.42H31.969a.42.42,0,0,1,.42.42l-.525,23.385A.42.42,0,0,1,31.444,291.852Z" transform="translate(-7.5 -240.504)" fill="#8ac9fe"/>
        <path id="Trazado_1043408" data-name="Trazado 1043408" d="M193.607,268.05v24.017a.42.42,0,0,1-.42.42h-5.5a1.724,1.724,0,0,0,1.724-1.724v-10.43l-1.789-2.371,1.789-10.332h3.778A.42.42,0,0,1,193.607,268.05Z" transform="translate(-168.718 -240.506)" fill="#60b7ff"/>
        <path id="Trazado_1043409" data-name="Trazado 1043409" d="M292.913,287.941l-1.467.566a6.685,6.685,0,0,0-12.474,4.815l-1.467.566a1.125,1.125,0,0,1-1.5-.782,9.462,9.462,0,0,1,17.5-6.752A1.126,1.126,0,0,1,292.913,287.941Z" transform="translate(-247.596 -252.875)" fill="#fe7ab6"/>
        <path id="Trazado_1043410" data-name="Trazado 1043410" d="M315.124,312.189h0l-1.832.706a1.118,1.118,0,0,1-1.327-.4,3.727,3.727,0,0,0-6.77,2.612,1.119,1.119,0,0,1-.714,1.191L302.65,317a6.685,6.685,0,0,1,12.474-4.815Z" transform="translate(-271.274 -276.558)" fill="#8ac9fe"/>
        <path id="Trazado_1043411" data-name="Trazado 1043411" d="M55.414,323.764c-.823.233-1.8-.91-2.613-.94-.841-.032-1.9,1.025-2.676.74s-.905-1.784-1.56-2.3-2.134-.273-2.6-.972c-.452-.674.324-1.954.091-2.777s-1.565-1.5-1.535-2.316c.032-.841,1.42-1.42,1.7-2.193s-.392-2.12.121-2.775,1.968-.307,2.667-.775c.674-.452.907-1.938,1.73-2.172s1.8.909,2.613.94c.841.032,1.9-1.025,2.676-.74s.905,1.784,1.56,2.3,2.134.273,2.6.972c.452.674-.324,1.954-.091,2.777s1.565,1.5,1.535,2.316c-.032.841-1.42,1.42-1.7,2.193s.392,2.12-.121,2.775-1.968.307-2.667.775C56.47,322.044,56.237,323.53,55.414,323.764Z" transform="translate(-40.633 -275.973)" fill="#fece85"/>
        <circle id="Elipse_12511" data-name="Elipse 12511" cx="3.675" cy="3.675" r="3.675" transform="translate(8.769 35.878)" fill="#fec165"/>
        <path id="Trazado_1043412" data-name="Trazado 1043412" d="M139.894,264.538l-2.77-2.768-.972.461-2.473.79a8.23,8.23,0,0,0-5.249,6.058l2.286.5A2.285,2.285,0,0,1,133,271.865l.485.3A13.306,13.306,0,0,0,139.894,264.538Z" transform="translate(-115.74 -235.26)" fill="#d78878"/>
        <path id="Trazado_1043413" data-name="Trazado 1043413" d="M129.058,336.382c-.085.019-.46-.252-.545-.237l-3.161.553a1.424,1.424,0,0,1-1.758-1.758l-.135-.943.51-2.527c0-.017.007-.034.012-.05h2.763a2.285,2.285,0,0,1,2.286,2.286Z" transform="translate(-111.29 -297.601)" fill="#fec165"/>
        <path id="Trazado_1043414" data-name="Trazado 1043414" d="M174.7,265.322l-.411,1.022-.76,2.356a8.238,8.238,0,0,1-6,5.34l-1.088-1.6a11.39,11.39,0,0,0,1.023-1.488,7.945,7.945,0,0,0,3.747-6.848,8.364,8.364,0,0,0-.305-2.248l.24-.087Z" transform="translate(-149.761 -235.26)" fill="#ca6e59"/>
        <path id="Trazado_1043415" data-name="Trazado 1043415" d="M126.741,352.367c-.085.019-.17.037-.255.052l-3.655.69a1.651,1.651,0,0,1-1.927-1.948l.238-1.18a6.875,6.875,0,0,0,5.533-.7,2.307,2.307,0,0,1,.037.411Z" transform="translate(-108.974 -313.587)" fill="#fdb441"/>
        <path id="Trazado_1043416" data-name="Trazado 1043416" d="M206.132,224.466l-.7-.055a3.71,3.71,0,0,1-3.419-3.7v-.36l5.044-5.034a1.151,1.151,0,0,1,1.627,0l2.489,2.488a1.148,1.148,0,0,1,0,1.625Z" transform="translate(-181.604 -193.382)" fill="#deecf1"/>
        <path id="Trazado_1043417" data-name="Trazado 1043417" d="M239.6,42.613l-1.218-.781a3.109,3.109,0,0,1-.225-4.149l2.634-3.273a35.51,35.51,0,0,1,6.121-5.967l13.859-10.58a1.951,1.951,0,0,1,1.5-.413c1.229.774,1.42,1.8.369,3.174L252.5,33.73a33.092,33.092,0,0,1-5.57,6.084l-3.18,3.027a3.119,3.119,0,0,1-4.154-.228Z" transform="translate(-213.336 -16.56)" fill="#7a8c98"/>
        <path id="Trazado_1043418" data-name="Trazado 1043418" d="M269.17,20.856l-10.6,13.834a35.49,35.49,0,0,1-5.978,6.108l-3.279,2.628a3.119,3.119,0,0,1-4.155-.228l-1.187-1.186a3.061,3.061,0,0,1-.257-.292,3.119,3.119,0,0,0,3.869-.024l3.279-2.628a35.458,35.458,0,0,0,5.978-6.11l10.6-13.833a1.942,1.942,0,0,0,.413-1.5A2.017,2.017,0,0,1,269.17,20.856Z" transform="translate(-218.922 -16.74)" fill="#687c87"/>
        <path id="Trazado_1043419" data-name="Trazado 1043419" d="M124.441,108.868a2.812,2.812,0,0,0-3.778.107,2.782,2.782,0,0,0-.26.29.31.31,0,0,1-.477.009q-.078-.089-.164-.175a3.666,3.666,0,0,0-6.16,3.434.316.316,0,0,1-.227.381,2.092,2.092,0,0,0-.946.545,2.116,2.116,0,0,0,.164,3.123.306.306,0,0,1,.056.431,2.8,2.8,0,0,0,4.164,3.723l7.775-7.775A2.8,2.8,0,0,0,124.441,108.868Z" transform="translate(-100.872 -97.649)" fill="#8ac9fe"/>
      </g>
      <g id="Grupo_1180508" data-name="Grupo 1180508" transform="translate(0 0)">
        <path id="Trazado_1043420" data-name="Trazado 1043420" d="M34.2,48.775,30.17,50.328l-3.707-9.605V32.011l2.9-2.893a3.9,3.9,0,0,0,2.3-.857l3.28-2.628A36.332,36.332,0,0,0,38.8,22.054l4.739-1.824.866,2.245a.787.787,0,1,0,1.469-.567L44.724,18.93a.787.787,0,0,0-1.017-.451l-2.775,1.068L51.659,5.555a2.733,2.733,0,0,0-.24-3.67,2.739,2.739,0,0,0-3.677-.247l-6.262,4.78a.787.787,0,1,0,.955,1.251L48.7,2.889A1.173,1.173,0,0,1,50.305,3a1.154,1.154,0,0,1,.1,1.6l-10.6,13.834A34.769,34.769,0,0,1,33.961,24.4l-3.279,2.628a2.329,2.329,0,0,1-3.106-.17l-1.187-1.187a2.319,2.319,0,0,1-.168-3.1L28.854,19.3a34.767,34.767,0,0,1,5.985-5.834L39.515,9.9a.787.787,0,1,0-.955-1.251l-4.676,3.57q-.775.592-1.516,1.225L19.139.23a.787.787,0,0,0-1.112,0L6.362,11.882A.787.787,0,1,0,7.474,13L18.583,1.9,31.19,14.491a36.317,36.317,0,0,0-3.562,3.825L24.993,21.59a3.887,3.887,0,0,0-.86,2.3l-3.2,3.19-.6.217H11.05L2.1,18.36l2.773-2.77a.787.787,0,1,0-1.112-1.114L.433,17.8a.787.787,0,0,0,0,1.114l8.39,8.38H.787A.787.787,0,0,0,0,28.085V52.942a.787.787,0,0,0,.787.787H25.676a.787.787,0,0,0,.787-.787V45.095l2.521,6.534A.786.786,0,0,0,30,52.08l4.769-1.835a.787.787,0,0,0-.565-1.469Zm-13.75-8.649a2.684,2.684,0,0,1,.549.681c-.014.139-.425.5-.622.678a3.4,3.4,0,0,0-1.035,1.273,3.424,3.424,0,0,0-.039,1.654,2.6,2.6,0,0,1,.039.9,2.585,2.585,0,0,1-.88.176,3.456,3.456,0,0,0-1.608.433,3.3,3.3,0,0,0-.981,1.292c-.127.24-.39.738-.526.777s-.622-.247-.855-.385a3.3,3.3,0,0,0-1.513-.584,3.434,3.434,0,0,0-1.6.475,2.673,2.673,0,0,1-.837.314,2.538,2.538,0,0,1-.446-.792,3.421,3.421,0,0,0-.9-1.388,3.4,3.4,0,0,0-1.549-.541,2.618,2.618,0,0,1-.882-.245,2.592,2.592,0,0,1,.106-.874,3.492,3.492,0,0,0,.085-1.685,3.492,3.492,0,0,0-.957-1.39,2.684,2.684,0,0,1-.549-.681c.014-.139.425-.5.622-.678a3.4,3.4,0,0,0,1.035-1.273,3.423,3.423,0,0,0,.039-1.654,2.6,2.6,0,0,1-.039-.9A2.584,2.584,0,0,1,8,35.533,3.456,3.456,0,0,0,9.6,35.1a3.3,3.3,0,0,0,.981-1.292c.126-.24.39-.738.526-.777s.622.247.855.385a5.317,5.317,0,0,0,.927.468c-.078.259-.144.522-.2.789L12.4,36.128a4.463,4.463,0,0,0-.3,8.7,4.488,4.488,0,0,0,1.135.147,4.435,4.435,0,0,0,2.248-.614,4.485,4.485,0,0,0,2.2-3.654l.757-.143a8.987,8.987,0,0,0,1.881-.575l.129.135ZM17.739,39.1,14.5,39.71a.864.864,0,0,1-1.009-1.018l.631-3.127h2.12a1.5,1.5,0,0,1,1.5,1.5ZM12.6,40.574a2.438,2.438,0,0,0,2.189.683l1.283-.243a2.9,2.9,0,0,1-1.382,1.991,2.888,2.888,0,1,1-2.644-5.126l-.1.5A2.433,2.433,0,0,0,12.6,40.574ZM19.313,38.7V37.064a3.076,3.076,0,0,0-3.073-3.072H14.513A7.5,7.5,0,0,1,19,29.461l1.463-.532A4.527,4.527,0,0,0,24.3,32.745l-.485,1.4a7.469,7.469,0,0,1-4.5,4.558Zm7.149-10.725a3.907,3.907,0,0,0,1.06.754l-2.507,2.5a2.977,2.977,0,0,1-3.029-2.974l2.534-2.529a3.905,3.905,0,0,0,.755,1.061ZM1.574,52.155V28.872H16.667a9.126,9.126,0,0,0-3.189,3.547,3.557,3.557,0,0,1-.713-.358,2.7,2.7,0,0,0-2.083-.543,2.7,2.7,0,0,0-1.488,1.556,2.7,2.7,0,0,1-.465.719,2.678,2.678,0,0,1-.889.175,2.661,2.661,0,0,0-1.959.768,2.675,2.675,0,0,0-.283,2.1,2.661,2.661,0,0,1,.042.891,2.715,2.715,0,0,1-.6.639,2.683,2.683,0,0,0-1.151,1.8,2.6,2.6,0,0,0,.989,1.834,2.677,2.677,0,0,1,.575.727,2.681,2.681,0,0,1-.108.921,2.6,2.6,0,0,0,.121,2.08,2.683,2.683,0,0,0,1.923.925,2.713,2.713,0,0,1,.847.228,2.662,2.662,0,0,1,.432.78,2.675,2.675,0,0,0,1.342,1.637,2.66,2.66,0,0,0,2.071-.375,2.629,2.629,0,0,1,.848-.318,2.7,2.7,0,0,1,.773.368,3.355,3.355,0,0,0,1.637.6,1.629,1.629,0,0,0,.446-.062,2.7,2.7,0,0,0,1.488-1.556,2.7,2.7,0,0,1,.465-.719,2.678,2.678,0,0,1,.889-.175,2.661,2.661,0,0,0,1.959-.768,2.675,2.675,0,0,0,.283-2.1,2.661,2.661,0,0,1-.042-.891,2.715,2.715,0,0,1,.6-.639,2.683,2.683,0,0,0,1.151-1.8,2.325,2.325,0,0,0-.816-1.653,9.049,9.049,0,0,0,3.127-3.573V52.155Z" transform="translate(0 0)"/>
        <path id="Trazado_1043421" data-name="Trazado 1043421" d="M370.374,253.92l-6.479-16.79a.787.787,0,1,0-1.469.567l6.2,16.055-14.289,5.5a.787.787,0,1,0,.565,1.469l15.024-5.781a.787.787,0,0,0,.452-1.018Z" transform="translate(-316.698 -211.795)"/>
        <path id="Trazado_1043422" data-name="Trazado 1043422" d="M277.446,281.513a2.926,2.926,0,0,1,3.485,1.082,1.9,1.9,0,0,0,2.262.694l3.3-1.273a1.913,1.913,0,0,0,.993-2.7,10.249,10.249,0,0,0-18.951,7.313,1.914,1.914,0,0,0,2.55,1.333l3.3-1.273a1.9,1.9,0,0,0,1.209-2.034,2.926,2.926,0,0,1,1.854-3.143Zm-6.929,4.981a.341.341,0,0,1-.284-.017.327.327,0,0,1-.168-.214,8.676,8.676,0,0,1,16.04-6.19.327.327,0,0,1,.02.272.341.341,0,0,1-.2.2l-.771.3a7.472,7.472,0,0,0-13.865,5.351Zm3.515-1.622a.334.334,0,0,1-.217.349l-1.048.4a5.9,5.9,0,0,1,10.906-4.209l-1.047.4a.334.334,0,0,1-.395-.113,4.515,4.515,0,0,0-8.2,3.164Z" transform="translate(-240.105 -245.257)"/>
        <path id="Trazado_1043423" data-name="Trazado 1043423" d="M105.039,110.175a3.585,3.585,0,0,0,5.592,4.4l7.775-7.775a3.584,3.584,0,0,0-5-5.138,4.42,4.42,0,0,0-2.976-1.141h0a4.455,4.455,0,0,0-4.412,5.061,2.887,2.887,0,0,0-.98,4.588Zm1.208-2.871a1.3,1.3,0,0,1,.791-.377.787.787,0,0,0,.664-1.033,2.879,2.879,0,0,1,2.73-3.794h0a2.86,2.86,0,0,1,2.035.843,2.964,2.964,0,0,1,.331.395.787.787,0,0,0,1.329-.064,2.01,2.01,0,1,1,3.165,2.419l-7.775,7.775a2.01,2.01,0,0,1-2.844-2.841l.013-.013a.787.787,0,0,0-.168-1.242,1.264,1.264,0,0,1-.271-.208A1.316,1.316,0,0,1,106.248,107.3Z" transform="translate(-93.346 -89.977)"/>
      </g>
    </g>
  </g>
</svg>
