<svg xmlns="http://www.w3.org/2000/svg" xmlns:xlink="http://www.w3.org/1999/xlink" width="400" height="369" viewBox="0 0 400 369">
  <defs>
    <clipPath id="clip-path">
      <rect id="Rectángulo_415810" data-name="Rectángulo 415810" width="400" height="369" transform="translate(180 7958)" fill="#fff" stroke="#707070" stroke-width="1"/>
    </clipPath>
  </defs>
  <g id="Enmascarar_grupo_1098826" data-name="Enmascarar grupo 1098826" transform="translate(-180 -7958)" clip-path="url(#clip-path)">
    <g id="Grupo_1180631" data-name="Grupo 1180631" transform="translate(3037.706 -4.171)">
      <ellipse id="Elipse_12515" data-name="Elipse 12515" cx="186.779" cy="171.722" rx="186.779" ry="171.722" transform="translate(-2847 8043.726)" fill="#f3de50"/>
      <g id="OBJECTS" transform="translate(-2831.042 7994.435)">
        <g id="Grupo_1180535" data-name="Grupo 1180535" transform="translate(75.849 4.622)">
          <g id="Grupo_1180531" data-name="Grupo 1180531" transform="translate(13.7 3.059)">
            <path id="Trazado_1043443" data-name="Trazado 1043443" d="M169.8,71.739a89.19,89.19,0,0,1,9.232,19.241,44.249,44.249,0,0,1,2.166,10.534,18.867,18.867,0,0,1-.39,5.467,6.7,6.7,0,0,1-8.715,5.409A18.892,18.892,0,0,1,167,110.314,44.684,44.684,0,0,1,158.5,103.7a92.916,92.916,0,0,1-22.352-36.146,44.684,44.684,0,0,1-2.113-10.568,18.891,18.891,0,0,1,.418-5.48,6.713,6.713,0,0,1,8.746-5.383,18.882,18.882,0,0,1,5.067,2.1,44.065,44.065,0,0,1,8.446,6.66,89.247,89.247,0,0,1,13.118,16.839Zm-.752.465a88.251,88.251,0,0,0-13.121-16.512,43.965,43.965,0,0,0-8.265-6.411,17.636,17.636,0,0,0-4.729-1.938,5.46,5.46,0,0,0-7.213,4.481,17.63,17.63,0,0,0-.354,5.087,43.367,43.367,0,0,0,2.1,10.224A88.842,88.842,0,0,0,146.48,86.15a88.036,88.036,0,0,0,12.969,16.573,43.366,43.366,0,0,0,8.207,6.455,17.664,17.664,0,0,0,4.711,1.96,5.47,5.47,0,0,0,7.246-4.456,17.629,17.629,0,0,0,.382-5.1,43.8,43.8,0,0,0-2.051-10.258,88.24,88.24,0,0,0-8.865-19.142Z" transform="translate(-133.996 -45.873)" fill="#3c3c3b"/>
          </g>
          <g id="Grupo_1180532" data-name="Grupo 1180532" transform="translate(18.794)">
            <path id="Trazado_1043444" data-name="Trazado 1043444" d="M172.319,83.171a89.2,89.2,0,0,1-9.013,19.344,44.2,44.2,0,0,1-6.768,8.358,18.826,18.826,0,0,1-4.473,3.168,6.7,6.7,0,0,1-9.71-3.3,18.886,18.886,0,0,1-1.623-5.247,44.636,44.636,0,0,1-.285-10.771,89.443,89.443,0,0,1,4.547-20.9,88.6,88.6,0,0,1,9.207-19.31,44.645,44.645,0,0,1,6.827-8.339,18.888,18.888,0,0,1,4.5-3.154,6.713,6.713,0,0,1,9.711,3.344,18.845,18.845,0,0,1,1.594,5.247,44.067,44.067,0,0,1,.212,10.753,89.282,89.282,0,0,1-4.69,20.823Zm-.836-.286a88.237,88.237,0,0,0,4.436-20.619,43.96,43.96,0,0,0-.291-10.456,17.643,17.643,0,0,0-1.5-4.885,5.46,5.46,0,0,0-8.041-2.732,17.614,17.614,0,0,0-4.156,2.954,43.4,43.4,0,0,0-6.568,8.114,88.872,88.872,0,0,0-8.975,19.033,88.036,88.036,0,0,0-4.58,20.54,43.364,43.364,0,0,0,.218,10.439,17.634,17.634,0,0,0,1.476,4.885,5.469,5.469,0,0,0,8.041,2.774,17.657,17.657,0,0,0,4.184-2.94,43.825,43.825,0,0,0,6.627-8.095,88.26,88.26,0,0,0,9.169-19Z" transform="translate(-140.256 -42.113)" fill="#3c3c3b"/>
          </g>
          <g id="Grupo_1180533" data-name="Grupo 1180533" transform="translate(0 18.649)">
            <path id="Trazado_1043445" data-name="Trazado 1043445" d="M156.567,93.44a88.258,88.258,0,0,0,20.564-4.706,43.8,43.8,0,0,0,9.368-4.657,17.624,17.624,0,0,0,3.8-3.424,6.326,6.326,0,0,0,1.563-4.451,6.323,6.323,0,0,0-2.474-4.007,17.645,17.645,0,0,0-4.433-2.526,43.4,43.4,0,0,0-10.128-2.538,95.3,95.3,0,0,0-41.6,4.4,43.383,43.383,0,0,0-9.374,4.594,17.613,17.613,0,0,0-3.806,3.394,5.459,5.459,0,0,0,.872,8.448,17.648,17.648,0,0,0,4.427,2.554,43.965,43.965,0,0,0,10.129,2.612,88.265,88.265,0,0,0,21.09.269Zm.093.879a89.275,89.275,0,0,1-21.346-.067,44.066,44.066,0,0,1-10.436-2.6,18.853,18.853,0,0,1-4.76-2.723,6.713,6.713,0,0,1-1.1-10.212,18.9,18.9,0,0,1,4.077-3.684,44.723,44.723,0,0,1,9.651-4.8,92.93,92.93,0,0,1,42.267-4.449,44.661,44.661,0,0,1,10.437,2.678,18.884,18.884,0,0,1,4.754,2.751,7.568,7.568,0,0,1,2.9,4.86,7.551,7.551,0,0,1-1.846,5.342,18.845,18.845,0,0,1-4.085,3.654,44.212,44.212,0,0,1-9.656,4.735,89.205,89.205,0,0,1-20.867,4.476Z" transform="translate(-117.162 -65.028)" fill="#3c3c3b"/>
          </g>
          <g id="Grupo_1180534" data-name="Grupo 1180534" transform="translate(6.407 9.105)">
            <path id="Trazado_1043446" data-name="Trazado 1043446" d="M166.033,80.927a4.831,4.831,0,1,1-6.649-1.57A4.831,4.831,0,0,1,166.033,80.927Z" transform="translate(-131.002 -58.017)" fill="#c361a2"/>
            <path id="Trazado_1043447" data-name="Trazado 1043447" d="M186.706,54.722a2.995,2.995,0,1,1-4.122-.973A2.995,2.995,0,0,1,186.706,54.722Z" transform="translate(-135.483 -53.301)" fill="#c361a2"/>
            <path id="Trazado_1043448" data-name="Trazado 1043448" d="M161.1,124.391a2.4,2.4,0,1,1-3.3-.78A2.4,2.4,0,0,1,161.1,124.391Z" transform="translate(-130.922 -66.322)" fill="#c361a2"/>
            <path id="Trazado_1043449" data-name="Trazado 1043449" d="M130.217,73.717a2.8,2.8,0,1,1-3.854-.91A2.8,2.8,0,0,1,130.217,73.717Z" transform="translate(-125.035 -56.854)" fill="#c361a2"/>
          </g>
        </g>
        <g id="Grupo_1180560" data-name="Grupo 1180560" transform="translate(0 137.389)">
          <path id="Trazado_1043450" data-name="Trazado 1043450" d="M23.965,227.136c.819,1.069,1.806,2.232,3.15,2.316a3.187,3.187,0,0,0,2.552-1.272,9.075,9.075,0,0,0,1.342-2.624c.029-.079.109-.447.054-.383l16.7,6s-.562,13.338,8.2,22.011c19.861,19.659,36.756,2.814,39.212-.166,5.889-7.147,7.848-20.21,4.533-28.857a26.872,26.872,0,0,0-20.663-16.61c-9.157-1.379-18.283,1.22-26.085,10.826l-17.119-6.493a3.039,3.039,0,0,0,.42-1.277,5.074,5.074,0,0,0,.194-1.578,4.511,4.511,0,0,0-.793-1.969,4.392,4.392,0,0,0-1.291-1.437,2.569,2.569,0,0,0-2.461-.124Z" transform="translate(-23.965 -205.248)" fill="#8cd2f5"/>
          <path id="Trazado_1043451" data-name="Trazado 1043451" d="M73.114,255.468c14.541,9.246,25.26-1.722,27.144-3.789,5.289-5.806,7.5-16.788,5.055-24.253a22.79,22.79,0,0,0-16.8-14.939" transform="translate(-33.114 -206.595)" fill="#cf7fb3"/>
          <path id="Trazado_1043452" data-name="Trazado 1043452" d="M87.934,212.291c2.892,1.017,1.834,11.5-2.361,23.4s-9.941,20.738-12.833,19.721-1.834-11.5,2.361-23.4S85.042,211.273,87.934,212.291Z" transform="translate(-32.741 -206.544)" fill="#c361a2"/>
          <path id="Trazado_1043453" data-name="Trazado 1043453" d="M89.149,211.119a6.927,6.927,0,0,1,3.821,1.952,2.936,2.936,0,0,1,.042,3.942c-.888.794-2.221.735-3.411.67a23.07,23.07,0,0,0-5.283.2c-3.525.623-6.694,2.5-10.119,3.541-2.734.832-5.888.277-5.738-3.17a5.448,5.448,0,0,1,3.246-5A27.54,27.54,0,0,1,89.149,211.119Z" transform="translate(-32.247 -206.229)" fill="#fff" opacity="0.49"/>
          <g id="Grupo_1180542" data-name="Grupo 1180542" transform="translate(39.756 8.573)">
            <g id="Grupo_1180536" data-name="Grupo 1180536" transform="translate(2.738 1.034)">
              <path id="Trazado_1043454" data-name="Trazado 1043454" d="M88.955,217.051a25.906,25.906,0,0,1-1.231,9.427c-.837,3.066-1.779,6.106-2.894,9.085s-2.366,5.908-3.755,8.771a73.538,73.538,0,0,1-4.724,8.286l-.173-.106c1.551-2.769,3.086-5.539,4.474-8.388q2.123-4.251,3.837-8.692c1.156-2.951,2.162-5.962,3.026-9.013a25.7,25.7,0,0,0,1.238-9.349Z" transform="translate(-76.178 -217.051)" fill="#fff"/>
            </g>
            <g id="Grupo_1180537" data-name="Grupo 1180537" transform="translate(6.069)">
              <path id="Trazado_1043455" data-name="Trazado 1043455" d="M87.97,215.983a2.09,2.09,0,0,0-1.458,1c-.383.506-.74,1.033-1.073,1.574a32.608,32.608,0,0,0-1.744,3.393c-1.048,2.324-1.987,4.7-3.238,6.941l-.185-.081c.414-1.213.931-2.383,1.449-3.552s1.065-2.323,1.647-3.465a36.226,36.226,0,0,1,1.891-3.349c.343-.543.708-1.07,1.1-1.58a2.361,2.361,0,0,1,1.606-1.085Z" transform="translate(-80.271 -215.781)" fill="#fff"/>
            </g>
            <g id="Grupo_1180538" data-name="Grupo 1180538" transform="translate(0 17.617)">
              <path id="Trazado_1043456" data-name="Trazado 1043456" d="M77.479,237.491c-1.029,3.011-1.9,6.075-2.648,9.166-.376,1.545-.732,3.094-1.085,4.644-.165.776-.391,1.55-.492,2.31a2.738,2.738,0,0,0,.4,2.155l-.146.139a2.13,2.13,0,0,1-.61-1.1,4.274,4.274,0,0,1-.063-1.244,21.65,21.65,0,0,1,.452-2.369q.538-2.33,1.2-4.631c.871-3.067,1.822-6.108,2.808-9.138Z" transform="translate(-72.814 -237.427)" fill="#fff"/>
            </g>
            <g id="Grupo_1180539" data-name="Grupo 1180539" transform="translate(10.809 4.024)">
              <path id="Trazado_1043457" data-name="Trazado 1043457" d="M88.94,220.743a36.727,36.727,0,0,1-.929,5.145,24.342,24.342,0,0,1-1.725,4.925l-.19-.068c.386-1.707,1.043-3.308,1.569-4.957a21.328,21.328,0,0,0,1.075-5.063Z" transform="translate(-86.095 -220.725)" fill="#fff"/>
            </g>
            <g id="Grupo_1180540" data-name="Grupo 1180540" transform="translate(3.293 16.597)">
              <path id="Trazado_1043458" data-name="Trazado 1043458" d="M83.338,236.237c-.854,2.518-1.757,5.019-2.752,7.487a42.852,42.852,0,0,1-3.548,7.145l-.178-.1c1.073-2.433,2.3-4.776,3.392-7.193a66.072,66.072,0,0,0,2.894-7.407Z" transform="translate(-76.86 -236.174)" fill="#fff"/>
            </g>
            <g id="Grupo_1180541" data-name="Grupo 1180541" transform="translate(5.193 6.64)">
              <path id="Trazado_1043459" data-name="Trazado 1043459" d="M85.257,224.026c-1.17,2.436-2.2,4.938-3.118,7.477s-1.745,5.1-2.752,7.619l-.193-.06a49.28,49.28,0,0,1,2.606-7.691c1.039-2.5,2.144-4.972,3.273-7.431Z" transform="translate(-79.195 -223.94)" fill="#fff"/>
            </g>
          </g>
          <path id="Trazado_1043460" data-name="Trazado 1043460" d="M33.4,225.834a90.139,90.139,0,0,0,3.655-11.291,9.685,9.685,0,0,1-.273,8.011,6.245,6.245,0,0,1-1.2,1.83A5.119,5.119,0,0,1,33.4,225.834Z" transform="translate(-25.721 -206.978)" fill="#8cd2f5" opacity="0.63"/>
          <g id="Grupo_1180544" data-name="Grupo 1180544" transform="translate(61.272 16.457)">
            <g id="Grupo_1180543" data-name="Grupo 1180543" transform="translate(0)">
              <path id="Trazado_1043461" data-name="Trazado 1043461" d="M101.051,227.778l.17-.083a1.232,1.232,0,0,0,.429-1.634l-.187-.242a1.185,1.185,0,0,0-.527-.307l-.317-.043a1.2,1.2,0,0,0-.6.163l-.171.083a1.232,1.232,0,0,0-.429,1.634l.186.242a1.185,1.185,0,0,0,.527.307l.317.042a1.182,1.182,0,0,0,.6-.162Z" transform="translate(-99.252 -225.469)" fill="#fff"/>
            </g>
          </g>
          <g id="Grupo_1180546" data-name="Grupo 1180546" transform="translate(65.567 20.399)">
            <g id="Grupo_1180545" data-name="Grupo 1180545" transform="translate(0)">
              <path id="Trazado_1043462" data-name="Trazado 1043462" d="M104.61,231.211l.083.17a.455.455,0,0,0,.154.168.442.442,0,0,0,.2.107.448.448,0,0,0,.238.011.453.453,0,0,0,.222-.071l.121-.094a.6.6,0,0,0,.154-.264c.007-.053.015-.106.021-.159a.591.591,0,0,0-.081-.3l-.083-.17a.455.455,0,0,0-.154-.168.442.442,0,0,0-.2-.107.448.448,0,0,0-.238-.011.454.454,0,0,0-.222.071l-.12.094a.6.6,0,0,0-.154.264c-.007.053-.014.106-.021.159a.592.592,0,0,0,.081.3Z" transform="translate(-104.529 -230.312)" fill="#fff"/>
            </g>
          </g>
          <g id="Grupo_1180548" data-name="Grupo 1180548" transform="translate(61.611 21.458)">
            <g id="Grupo_1180547" data-name="Grupo 1180547" transform="translate(0)">
              <path id="Trazado_1043463" data-name="Trazado 1043463" d="M100.842,232.5l.044-.127a.448.448,0,0,0,.011-.238.437.437,0,0,0-.071-.222.455.455,0,0,0-.154-.168.442.442,0,0,0-.2-.107l-.159-.021a.593.593,0,0,0-.3.081l-.12.094a.6.6,0,0,0-.154.264l-.044.127a.449.449,0,0,0-.011.238.437.437,0,0,0,.071.222.455.455,0,0,0,.154.168.442.442,0,0,0,.2.107l.159.021a.593.593,0,0,0,.3-.081l.121-.094a.6.6,0,0,0,.153-.264Z" transform="translate(-99.668 -231.614)" fill="#fff"/>
            </g>
          </g>
          <g id="Grupo_1180550" data-name="Grupo 1180550" transform="translate(49.378 45.148)">
            <g id="Grupo_1180549" data-name="Grupo 1180549">
              <path id="Trazado_1043464" data-name="Trazado 1043464" d="M85.214,261.916a.6.6,0,0,0,0-1.194.6.6,0,0,0,0,1.194Z" transform="translate(-84.637 -260.722)" fill="#fff"/>
            </g>
          </g>
          <g id="Grupo_1180552" data-name="Grupo 1180552" transform="translate(52.785 47.6)">
            <g id="Grupo_1180551" data-name="Grupo 1180551">
              <path id="Trazado_1043465" data-name="Trazado 1043465" d="M89.4,264.93a.6.6,0,0,0,0-1.195.6.6,0,0,0,0,1.195Z" transform="translate(-88.823 -263.735)" fill="#fff"/>
            </g>
          </g>
          <g id="Grupo_1180554" data-name="Grupo 1180554" transform="translate(54.229 43.419)">
            <g id="Grupo_1180553" data-name="Grupo 1180553">
              <path id="Trazado_1043466" data-name="Trazado 1043466" d="M91.175,259.793a.6.6,0,0,0,0-1.195.6.6,0,0,0,0,1.195Z" transform="translate(-90.598 -258.598)" fill="#fff"/>
            </g>
          </g>
          <path id="Trazado_1043467" data-name="Trazado 1043467" d="M67.183,231.874c3.229,1.61,4.646,5.347,6.735,8.287a18.552,18.552,0,0,0,8.842,6.686,11.6,11.6,0,0,0,7,.495c2.436-.7,4.421-2.447,6.731-3.489s5.477-1.126,6.935.946c1.5,2.125.286,5.073-1.217,7.192a31.342,31.342,0,0,1-11.5,9.8,19.9,19.9,0,0,1-5.486,1.921,18.972,18.972,0,0,1-5.337.076,25.956,25.956,0,0,1-17.335-9.357,22.7,22.7,0,0,1-4.882-15.044c.121-2.432.028-4.989,2.07-6.6A7.181,7.181,0,0,1,67.183,231.874Z" transform="translate(-30.234 -210.082)" fill="#8cd2f5" opacity="0.27"/>
          <g id="Grupo_1180559" data-name="Grupo 1180559" transform="translate(12.631 17.203)">
            <g id="Grupo_1180555" data-name="Grupo 1180555">
              <path id="Trazado_1043468" data-name="Trazado 1043468" d="M39.5,229.216c.249-.452.506-.885.717-1.344.229-.451.406-.921.611-1.394a.15.15,0,0,1,.287.074,4.757,4.757,0,0,1-.472,1.529,4.934,4.934,0,0,1-.929,1.3.137.137,0,0,1-.195,0A.141.141,0,0,1,39.5,229.216Z" transform="translate(-39.485 -226.385)" fill="#fff"/>
            </g>
            <g id="Grupo_1180556" data-name="Grupo 1180556" transform="translate(3.16 1.133)">
              <path id="Trazado_1043469" data-name="Trazado 1043469" d="M43.374,230.9a14.407,14.407,0,0,1,.636-1.567,13.117,13.117,0,0,1,.808-1.484.15.15,0,0,1,.269.128,13.178,13.178,0,0,1-.647,1.561,14.345,14.345,0,0,1-.82,1.479.138.138,0,0,1-.19.039A.135.135,0,0,1,43.374,230.9Z" transform="translate(-43.368 -227.777)" fill="#fff"/>
            </g>
            <g id="Grupo_1180557" data-name="Grupo 1180557" transform="translate(6.926 2.468)">
              <path id="Trazado_1043470" data-name="Trazado 1043470" d="M48,232.36a11.973,11.973,0,0,1,.48-1.47,10.986,10.986,0,0,1,.657-1.4.15.15,0,0,1,.276.111,10.94,10.94,0,0,1-.492,1.465,11.967,11.967,0,0,1-.669,1.394.137.137,0,0,1-.252-.1Z" transform="translate(-47.995 -229.417)" fill="#fff"/>
            </g>
            <g id="Grupo_1180558" data-name="Grupo 1180558" transform="translate(10.576 3.95)">
              <path id="Trazado_1043471" data-name="Trazado 1043471" d="M52.483,234.109a10.91,10.91,0,0,1,.386-1.427,9.988,9.988,0,0,1,.566-1.365.151.151,0,0,1,.282.1,10.085,10.085,0,0,1-.4,1.423,11.059,11.059,0,0,1-.578,1.361.138.138,0,0,1-.258-.09Z" transform="translate(-52.481 -231.239)" fill="#fff"/>
            </g>
          </g>
        </g>
        <g id="Grupo_1180563" data-name="Grupo 1180563" transform="translate(243.536 28.26)">
          <g id="Grupo_1180561" data-name="Grupo 1180561">
            <path id="Trazado_1043472" data-name="Trazado 1043472" d="M404.148,94.835l-5.21,12.729-47.706-19.61L358.7,73.884Z" transform="translate(-328.422 -71.666)" fill="#fff"/>
            <path id="Trazado_1043473" data-name="Trazado 1043473" d="M400.917,93.646s-39-22.824-44.743-22.483-9.047,7.821-9.047,7.821-21.343,39.411-23.7,49.491,14.965,15.163,14.965,15.163l30.048,13.794q13.1-26.925,28.215-52.809l-36.9-18.933s-9.15-5.181-5.671-8.908c0,0,1.259-2.812,9.553,1.639s35.621,18.8,35.621,18.8Z" transform="translate(-323.205 -71.158)" fill="#4867ae"/>
          </g>
          <g id="Grupo_1180562" data-name="Grupo 1180562" transform="translate(3.808 11.912)">
            <path id="Trazado_1043474" data-name="Trazado 1043474" d="M352.99,86.008Q350,92.349,346.932,98.655l-6.109,12.623-6.206,12.575-3.106,6.286-3.155,6.262-.472-.231,3.008-6.334,3.058-6.31,6.121-12.617L346.29,98.34q3.092-6.293,6.269-12.545Z" transform="translate(-327.884 -85.795)" fill="#3c3c3b"/>
          </g>
          <path id="Trazado_1043475" data-name="Trazado 1043475" d="M368.488,109.507c-1.983,2.755-4.4,5.252-5.77,8.357-2.017,4.576-1.476,9.912.064,14.67s4.011,9.156,5.882,13.794a11.561,11.561,0,0,1,1.046,4.177,4.5,4.5,0,0,1-1.742,3.778,4.683,4.683,0,0,1-3.924.4,17.036,17.036,0,0,1-3.644-1.805c-4.8-2.788-10.033-4.745-15.086-7.052a24.308,24.308,0,0,1-6.872-4.226,9.513,9.513,0,0,1-3.2-7.172,14.354,14.354,0,0,1,1.568-5.012c4.744-10.429,9.6-20.846,15.711-30.54a26.8,26.8,0,0,1,3.475-4.65c.983-.995,2.286-1.9,3.667-1.682a5.234,5.234,0,0,1,1.889.851l6.655,4.143c2.511,1.563,3.732,2.122,3.307,5.257A15.393,15.393,0,0,1,368.488,109.507Z" transform="translate(-325.442 -75.133)" fill="#4867ae" opacity="0.26"/>
          <line id="Línea_725" data-name="Línea 725" x2="36.167" y2="19.078" transform="translate(35.555 6.51)" fill="none" stroke="#3c3c3b" stroke-miterlimit="10" stroke-width="0.25"/>
          <line id="Línea_726" data-name="Línea 726" x2="38.321" y2="20.215" transform="translate(32.937 7.105)" fill="none" stroke="#3c3c3b" stroke-miterlimit="10" stroke-width="0.25"/>
          <line id="Línea_727" data-name="Línea 727" x2="37.568" y2="20.091" transform="translate(32.947 8.942)" fill="none" stroke="#3c3c3b" stroke-miterlimit="10" stroke-width="0.25"/>
          <line id="Línea_728" data-name="Línea 728" x2="36.966" y2="19.5" transform="translate(32.937 10.973)" fill="none" stroke="#3c3c3b" stroke-miterlimit="10" stroke-width="0.25"/>
        </g>
        <g id="Grupo_1180575" data-name="Grupo 1180575" transform="translate(261.117 141.459)">
          <path id="Trazado_1043476" data-name="Trazado 1043476" d="M410.247,220.594c-36.261-29.567-65.44,13.644-65.44,13.644l63.658,52.878S442.817,247.152,410.247,220.594ZM399.39,263.788,368,237.712s14.39-21.31,32.272-6.729C416.331,244.08,399.39,263.788,399.39,263.788Z" transform="translate(-344.807 -210.249)" fill="#1ab2bf"/>
          <g id="Grupo_1180574" data-name="Grupo 1180574" transform="translate(8.082 24.289)">
            <g id="Grupo_1180564" data-name="Grupo 1180564">
              <path id="Trazado_1043477" data-name="Trazado 1043477" d="M356.894,240.459a5.407,5.407,0,0,1-.69,1.26c-.146.186-.291.375-.451.552a3.712,3.712,0,0,1-.536.488.3.3,0,0,1-.463-.344,3.617,3.617,0,0,1,.313-.654c.122-.2.261-.4.4-.591a5.4,5.4,0,0,1,1.007-1.025.277.277,0,0,1,.424.314Z" transform="translate(-354.738 -240.094)" fill="#3c3c3b"/>
            </g>
            <g id="Grupo_1180565" data-name="Grupo 1180565" transform="translate(5.528 4.858)">
              <path id="Trazado_1043478" data-name="Trazado 1043478" d="M363.892,246.4a4.2,4.2,0,0,1-.718,1.452,5.949,5.949,0,0,1-.544.6,3.236,3.236,0,0,1-.659.482.3.3,0,0,1-.4-.411l0-.006a7.075,7.075,0,0,1,.421-.637l.45-.593a14.776,14.776,0,0,1,.988-1.145l0,0a.275.275,0,0,1,.459.26Z" transform="translate(-361.531 -246.063)" fill="#3c3c3b"/>
            </g>
            <g id="Grupo_1180566" data-name="Grupo 1180566" transform="translate(11.489 9.612)">
              <path id="Trazado_1043479" data-name="Trazado 1043479" d="M371.415,252.208a3.231,3.231,0,0,1-.732,1.6,4.013,4.013,0,0,1-.654.606,2.691,2.691,0,0,1-.8.4.3.3,0,0,1-.369-.208.3.3,0,0,1,.074-.29l.536-.553c.175-.179.348-.356.5-.55.341-.365.613-.775.942-1.2l.006-.007a.274.274,0,0,1,.488.2Z" transform="translate(-368.855 -251.904)" fill="#3c3c3b"/>
            </g>
            <g id="Grupo_1180567" data-name="Grupo 1180567" transform="translate(17.783 14.357)">
              <path id="Trazado_1043480" data-name="Trazado 1043480" d="M378.836,258.025a2.878,2.878,0,0,1-.591,1.466,3.637,3.637,0,0,1-.563.567,2.333,2.333,0,0,1-.7.382.3.3,0,0,1-.331-.467l.008-.011c.145-.191.3-.356.439-.529s.291-.333.421-.51c.291-.335.522-.7.822-1.078l.007-.008a.276.276,0,0,1,.491.188Z" transform="translate(-376.589 -257.734)" fill="#3c3c3b"/>
            </g>
            <g id="Grupo_1180568" data-name="Grupo 1180568" transform="translate(22.388 19.241)">
              <path id="Trazado_1043481" data-name="Trazado 1043481" d="M384.592,264.025a3.136,3.136,0,0,1-.613,1.581,3.926,3.926,0,0,1-.592.621,2.576,2.576,0,0,1-.741.429.3.3,0,0,1-.337-.465l.007-.01c.158-.2.322-.383.474-.57s.312-.365.449-.56c.308-.369.547-.777.85-1.195l.006-.007a.275.275,0,0,1,.5.176Z" transform="translate(-382.247 -263.736)" fill="#3c3c3b"/>
            </g>
            <g id="Grupo_1180569" data-name="Grupo 1180569" transform="translate(29.066 23.107)">
              <path id="Trazado_1043482" data-name="Trazado 1043482" d="M392.479,268.746a3.967,3.967,0,0,1-.409,1.782,5.114,5.114,0,0,1-.488.782,3.227,3.227,0,0,1-.661.641.3.3,0,0,1-.44-.371l0-.007c.121-.259.258-.5.383-.737s.261-.473.374-.718c.261-.474.456-.973.719-1.48l0-.006a.273.273,0,0,1,.368-.116A.27.27,0,0,1,392.479,268.746Z" transform="translate(-390.453 -268.486)" fill="#3c3c3b"/>
            </g>
            <g id="Grupo_1180570" data-name="Grupo 1180570" transform="translate(34.422 28.713)">
              <path id="Trazado_1043483" data-name="Trazado 1043483" d="M399.285,275.664a3.177,3.177,0,0,1-.578,1.545,4.069,4.069,0,0,1-.558.619,2.6,2.6,0,0,1-.7.444.3.3,0,0,1-.359-.448l.007-.01c.144-.208.3-.391.439-.581s.294-.368.425-.562c.294-.369.526-.771.828-1.178l.006-.007a.274.274,0,0,1,.495.178Z" transform="translate(-397.033 -275.374)" fill="#3c3c3b"/>
            </g>
            <g id="Grupo_1180571" data-name="Grupo 1180571" transform="translate(40.038 33.561)">
              <path id="Trazado_1043484" data-name="Trazado 1043484" d="M406.161,281.584a2.236,2.236,0,0,1-.52,1.507,2.731,2.731,0,0,1-.614.536,1.877,1.877,0,0,1-.763.273.3.3,0,0,1-.234-.52l.016-.015c.165-.151.325-.282.47-.426a4.081,4.081,0,0,0,.415-.439,6.449,6.449,0,0,0,.712-1.024l.01-.016a.275.275,0,0,1,.379-.089A.279.279,0,0,1,406.161,281.584Z" transform="translate(-403.933 -281.332)" fill="#3c3c3b"/>
            </g>
            <g id="Grupo_1180572" data-name="Grupo 1180572" transform="translate(44.925 38.308)">
              <path id="Trazado_1043485" data-name="Trazado 1043485" d="M412.117,287.518a2.878,2.878,0,0,1-.682,1.13,4.071,4.071,0,0,1-.505.426,2.218,2.218,0,0,1-.6.292.307.307,0,0,1-.379-.212.3.3,0,0,1,.037-.25l.006-.008a4.252,4.252,0,0,1,.379-.474l.4-.422a8.453,8.453,0,0,1,.9-.783l.007,0a.281.281,0,0,1,.428.306Z" transform="translate(-409.938 -287.164)" fill="#3c3c3b"/>
            </g>
            <g id="Grupo_1180573" data-name="Grupo 1180573" transform="translate(51.381 43.317)">
              <path id="Trazado_1043486" data-name="Trazado 1043486" d="M420.156,293.628a3.9,3.9,0,0,1-.625,1.571,5.157,5.157,0,0,1-.54.655,3.1,3.1,0,0,1-.677.517.3.3,0,0,1-.4-.41l0-.007c.132-.234.281-.442.422-.654s.3-.41.431-.623c.305-.4.56-.834.9-1.252l0,0a.274.274,0,0,1,.387-.04A.28.28,0,0,1,420.156,293.628Z" transform="translate(-417.871 -293.319)" fill="#3c3c3b"/>
            </g>
          </g>
          <path id="Trazado_1043487" data-name="Trazado 1043487" d="M432.725,267a22.7,22.7,0,0,1-4.481,7.75,3.9,3.9,0,0,1-1.621,1.18,2.937,2.937,0,0,1-3.347-1.958,6.73,6.73,0,0,1,.133-4.2c.63-2.195,1.62-4.271,2.306-6.449a24.59,24.59,0,0,0,.938-10.451c-.352-2.773-1.308-6.618,1.358-8.629,2.253-1.7,4.134.237,5.2,2.272C436.324,252.467,434.908,261,432.725,267Z" transform="translate(-359.361 -216.457)" fill="#fff" opacity="0.25"/>
          <path id="Trazado_1043488" data-name="Trazado 1043488" d="M409.159,222.982a2.512,2.512,0,0,1-1.715,2.2,6.163,6.163,0,0,1-2.931.178c-3.8-.461-7.465-1.807-11.282-2.065-7.866-.532-15.352,3.619-21.292,8.8a6.7,6.7,0,0,1-2.665,1.7,5.3,5.3,0,0,1-2.509-.142c-2.236-.554-4.635-1.983-4.855-4.276a5.82,5.82,0,0,1,.959-3.33c2.905-5.143,8.15-8.709,13.807-10.409a41.549,41.549,0,0,1,17.563-.876,27.588,27.588,0,0,1,8.911,2.5C404.87,218.137,409.147,220.741,409.159,222.982Z" transform="translate(-347.988 -210.989)" fill="#00abe0" opacity="0.53"/>
        </g>
        <g id="Grupo_1180581" data-name="Grupo 1180581" transform="translate(167.684 2.086)">
          <path id="Trazado_1043489" data-name="Trazado 1043489" d="M233.179,108.628a9.564,9.564,0,0,0,5.049,10.509c3.8,1.8,10.1-1.5,12.656-4.837Z" transform="translate(-230.552 -51.959)" fill="#6f6f6e"/>
          <path id="Trazado_1043490" data-name="Trazado 1043490" d="M254.747,92.618c1.375-2.613,4.192-4.068,6.8-5.459,4.619-2.466,9.141-5.268,12.733-9.078s6.2-8.75,6.372-13.983a23.627,23.627,0,0,0-.71-6.121c-1.009-4.317-2.845-8.565-6.027-11.652a22.777,22.777,0,0,0-5.571-3.835c-6.521-3.326-14.277-4.554-21.292-2.459s-13.07,7.783-14.736,14.911a26.328,26.328,0,0,0-.238,9.308,46.054,46.054,0,0,0,2.549,10.3c1.534,4.1,3.675,8.582,2.009,12.629" transform="translate(-230.333 -38.997)" fill="#f9db0e"/>
          <g id="Grupo_1180576" data-name="Grupo 1180576" transform="translate(11.42 18.124)">
            <path id="Trazado_1043491" data-name="Trazado 1043491" d="M250.71,93.78a43.485,43.485,0,0,1,10.719-22.653,6.213,6.213,0,0,1,2.991-2,3.627,3.627,0,0,1,2.054.111,2.773,2.773,0,0,1,1.768,3.679,5.177,5.177,0,0,1-.984,1.627,11.856,11.856,0,0,1-2.6,2.182,12.6,12.6,0,0,1-6.4,1.92,12.333,12.333,0,0,1-6.475-1.713,12.059,12.059,0,0,1-4.638-4.851,9.72,9.72,0,0,1-.9-6.739,7.748,7.748,0,0,1,.637-1.668,5.308,5.308,0,0,1,1.165-1.5,3.459,3.459,0,0,1,1.923-.888,3.1,3.1,0,0,1,2.121.587,4.492,4.492,0,0,1,1.75,3.393,18.245,18.245,0,0,1-.183,3.293,55.012,55.012,0,0,1-2.892,12.326,53.423,53.423,0,0,1-5.69,11.273l-1.046-.669a54.681,54.681,0,0,0,5.2-11.142,53.3,53.3,0,0,0,2.6-11.981,17.509,17.509,0,0,0,.13-2.934,2.6,2.6,0,0,0-.969-2,1.235,1.235,0,0,0-1.67.189,4.378,4.378,0,0,0-1.2,2.2,7.792,7.792,0,0,0,.773,5.367,10.584,10.584,0,0,0,9.328,5.52,10.691,10.691,0,0,0,5.429-1.592,10.028,10.028,0,0,0,2.183-1.8,3.369,3.369,0,0,0,.642-1.017,1.037,1.037,0,0,0,.01-.8,1.551,1.551,0,0,0-1.658-.585,4.534,4.534,0,0,0-2.114,1.435A43.8,43.8,0,0,0,251.833,93.97Z" transform="translate(-244.035 -61.267)" fill="#3c3c3b"/>
          </g>
          <path id="Trazado_1043492" data-name="Trazado 1043492" d="M253.662,110.991a5.128,5.128,0,0,1-1.438,1.965c-1.376.976-3.27.387-4.836-.243q-6.916-2.776-13.746-5.759c-1.3-.567-2.7-1.236-3.311-2.514a5.5,5.5,0,0,1,.073-3.881c.85-2.893,2.714-6.053,5.723-6.259a8.591,8.591,0,0,1,3.2.6c4.848,1.576,10.4,2.674,14.92,5.065C259.157,102.567,255.516,107.349,253.662,110.991Z" transform="translate(-230.003 -49.29)" fill="#9c9b9b"/>
          <path id="Trazado_1043493" data-name="Trazado 1043493" d="M285.218,64.26a20.146,20.146,0,0,1-2,9.914,6.7,6.7,0,0,1-2.266,2.957,2.8,2.8,0,0,1-3.47-.217,3.2,3.2,0,0,1-.7-2.134c-.039-2.471,1.3-4.969.559-7.325a11.978,11.978,0,0,0-1.9-3.1,9.912,9.912,0,0,1-1.931-4.873c-.258-3.5,3.266-7.412,6.9-5.489C283.5,55.621,285,61.151,285.218,64.26Z" transform="translate(-238.101 -41.694)" fill="#fff" opacity="0.49"/>
          <path id="Trazado_1043494" data-name="Trazado 1043494" d="M258.208,57.32c-1.945,1.267-4.326,1.681-6.374,2.775-4.457,2.384-6.667,7.69-6.914,12.738a5.943,5.943,0,0,1-.506,2.693c-.945,1.655-3.48,1.75-5.03.64a8.748,8.748,0,0,1-2.855-4.829c-1.5-5.048-1.886-10.561-.193-15.547s5.688-9.341,10.792-10.637c3.155-.8,9.516-1.306,12.2,1.153A7.027,7.027,0,0,1,258.208,57.32Z" transform="translate(-230.975 -40.021)" fill="#f9db0e"/>
          <g id="Grupo_1180580" data-name="Grupo 1180580" transform="translate(2.713 47.494)">
            <g id="Grupo_1180577" data-name="Grupo 1180577" transform="translate(2.826)">
              <path id="Trazado_1043495" data-name="Trazado 1043495" d="M255.179,105.266c-3.114-1.1-6.171-2.35-9.232-3.587L241.4,99.716q-2.271-.989-4.5-2.063a.157.157,0,0,1,.129-.286l4.549,1.942,4.562,1.909c3.029,1.3,6.094,2.518,9.142,3.78a.143.143,0,0,1-.1.268Z" transform="translate(-236.809 -97.355)" fill="#3c3c3b"/>
            </g>
            <g id="Grupo_1180578" data-name="Grupo 1180578" transform="translate(1.385 2.791)">
              <path id="Trazado_1043496" data-name="Trazado 1043496" d="M253.335,108.848c-3.119-1.085-6.172-2.346-9.223-3.608-1.516-.653-3.022-1.33-4.523-2.016s-2.993-1.394-4.465-2.145a.157.157,0,0,1,.136-.282c3.009,1.345,6.007,2.713,9.048,3.983,3.017,1.328,6.076,2.553,9.128,3.8a.144.144,0,0,1-.1.269Z" transform="translate(-235.038 -100.784)" fill="#3c3c3b"/>
            </g>
            <g id="Grupo_1180579" data-name="Grupo 1180579" transform="translate(0 6.176)">
              <path id="Trazado_1043497" data-name="Trazado 1043497" d="M251.422,112.435c-3.031-1.12-6.021-2.337-9.032-3.5l-4.485-1.827q-2.246-.9-4.472-1.861a.157.157,0,0,1-.085-.205.159.159,0,0,1,.2-.087q2.271.845,4.521,1.741l4.508,1.775c2.984,1.235,5.99,2.42,8.955,3.7a.143.143,0,0,1,.075.189A.146.146,0,0,1,251.422,112.435Z" transform="translate(-233.336 -104.943)" fill="#3c3c3b"/>
            </g>
          </g>
        </g>
        <g id="Grupo_1180598" data-name="Grupo 1180598" transform="translate(13.395 47.9)">
          <rect id="Rectángulo_415809" data-name="Rectángulo 415809" width="17.563" height="92.527" transform="matrix(0.552, -0.834, 0.834, 0.552, 0, 14.651)" fill="#79c29d"/>
          <g id="Grupo_1180597" data-name="Grupo 1180597" transform="translate(5.11 13.138)">
            <g id="Grupo_1180582" data-name="Grupo 1180582">
              <path id="Trazado_1043498" data-name="Trazado 1043498" d="M48.6,111.827a3,3,0,0,1-.528,1.034,3.069,3.069,0,0,1-.387.429,2.116,2.116,0,0,1-.474.346.35.35,0,0,1-.5-.393l.011-.046a2.209,2.209,0,0,1,.217-.533,2.78,2.78,0,0,1,.3-.45,2.9,2.9,0,0,1,.855-.723l.038-.02a.318.318,0,0,1,.43.131A.306.306,0,0,1,48.6,111.827Z" transform="translate(-46.703 -111.433)" fill="#3c3c3b"/>
            </g>
            <g id="Grupo_1180583" data-name="Grupo 1180583" transform="translate(3.263 2.869)">
              <path id="Trazado_1043499" data-name="Trazado 1043499" d="M52.458,115.286a2.321,2.321,0,0,1-.361,1.164,2.4,2.4,0,0,1-.378.476,1.782,1.782,0,0,1-.5.362.358.358,0,0,1-.492-.422l0-.014a2.757,2.757,0,0,1,.216-.512,4.308,4.308,0,0,1,.268-.453,4.59,4.59,0,0,1,.694-.837l.008-.007a.325.325,0,0,1,.459.023A.331.331,0,0,1,52.458,115.286Z" transform="translate(-50.712 -114.959)" fill="#3c3c3b"/>
            </g>
            <g id="Grupo_1180584" data-name="Grupo 1180584" transform="translate(7.61 5.957)">
              <path id="Trazado_1043500" data-name="Trazado 1043500" d="M57.678,119a1.8,1.8,0,0,1-.209,1.257,1.884,1.884,0,0,1-.4.506,1.472,1.472,0,0,1-.562.326.354.354,0,0,1-.422-.479l.013-.032a4.705,4.705,0,0,1,.233-.446c.074-.14.157-.268.235-.4.166-.262.311-.524.525-.824l.016-.023a.322.322,0,0,1,.45-.075A.331.331,0,0,1,57.678,119Z" transform="translate(-56.053 -118.753)" fill="#3c3c3b"/>
            </g>
            <g id="Grupo_1180585" data-name="Grupo 1180585" transform="translate(11.421 8.537)">
              <path id="Trazado_1043501" data-name="Trazado 1043501" d="M62,122.136a1.357,1.357,0,0,1-.055,1.025,1.389,1.389,0,0,1-.292.429,1.094,1.094,0,0,1-.443.286.369.369,0,0,1-.461-.243.381.381,0,0,1-.012-.168l.008-.049a2.118,2.118,0,0,1,.111-.38,2.6,2.6,0,0,1,.141-.321,3.719,3.719,0,0,1,.407-.638l.024-.03a.336.336,0,0,1,.572.09Z" transform="translate(-60.736 -121.923)" fill="#3c3c3b"/>
            </g>
            <g id="Grupo_1180586" data-name="Grupo 1180586" transform="translate(15.749 11.431)">
              <path id="Trazado_1043502" data-name="Trazado 1043502" d="M67.717,125.808a1.57,1.57,0,0,1-.363.977,1.62,1.62,0,0,1-.385.352,1.24,1.24,0,0,1-.493.2.369.369,0,0,1-.418-.312.374.374,0,0,1,.021-.188l.012-.03a2.055,2.055,0,0,1,.213-.382,2.7,2.7,0,0,1,.244-.315,3.359,3.359,0,0,1,.627-.564l.021-.014a.334.334,0,0,1,.464.093A.33.33,0,0,1,67.717,125.808Z" transform="translate(-66.053 -125.479)" fill="#3c3c3b"/>
            </g>
            <g id="Grupo_1180587" data-name="Grupo 1180587" transform="translate(20.847 14.274)">
              <path id="Trazado_1043503" data-name="Trazado 1043503" d="M73.978,129.267a2.041,2.041,0,0,1-.286,1.178,2.1,2.1,0,0,1-.374.481,1.63,1.63,0,0,1-.51.348.358.358,0,0,1-.474-.437l.007-.02a2.99,2.99,0,0,1,.209-.483,4.85,4.85,0,0,1,.244-.427,5.476,5.476,0,0,1,.614-.82l.011-.012a.325.325,0,0,1,.46-.012A.321.321,0,0,1,73.978,129.267Z" transform="translate(-72.318 -128.972)" fill="#3c3c3b"/>
            </g>
            <g id="Grupo_1180588" data-name="Grupo 1180588" transform="translate(24.742 17.523)">
              <path id="Trazado_1043504" data-name="Trazado 1043504" d="M78.739,133.307a3.136,3.136,0,0,1-.351,1.134,3.213,3.213,0,0,1-.312.5,2.193,2.193,0,0,1-.413.435.35.35,0,0,1-.56-.3l0-.043a2.27,2.27,0,0,1,.128-.575,2.939,2.939,0,0,1,.229-.51,3.055,3.055,0,0,1,.73-.888l.03-.024a.318.318,0,0,1,.516.273Z" transform="translate(-77.103 -132.964)" fill="#3c3c3b"/>
            </g>
            <g id="Grupo_1180589" data-name="Grupo 1180589" transform="translate(30.182 20.78)">
              <path id="Trazado_1043505" data-name="Trazado 1043505" d="M85.469,137.156a1.587,1.587,0,0,1-.139,1.4,1.7,1.7,0,0,1-.5.536,1.345,1.345,0,0,1-.681.253.347.347,0,0,1-.364-.33.343.343,0,0,1,.07-.226l.033-.044c.108-.143.208-.256.3-.377s.172-.236.248-.359a5.7,5.7,0,0,0,.435-.82l.019-.042a.317.317,0,0,1,.42-.158A.323.323,0,0,1,85.469,137.156Z" transform="translate(-83.788 -136.966)" fill="#3c3c3b"/>
            </g>
            <g id="Grupo_1180590" data-name="Grupo 1180590" transform="translate(34.931 23.716)">
              <path id="Trazado_1043506" data-name="Trazado 1043506" d="M91.038,140.778a1.468,1.468,0,0,1-.086,1.172,1.547,1.547,0,0,1-.364.478,1.21,1.21,0,0,1-.53.288.358.358,0,0,1-.412-.474l.018-.048a4.045,4.045,0,0,1,.179-.388c.055-.12.12-.227.179-.339.129-.221.24-.439.418-.71l.023-.036a.326.326,0,0,1,.575.056Z" transform="translate(-89.624 -140.574)" fill="#3c3c3b"/>
            </g>
            <g id="Grupo_1180591" data-name="Grupo 1180591" transform="translate(39.725 26.894)">
              <path id="Trazado_1043507" data-name="Trazado 1043507" d="M96.989,144.823a2.3,2.3,0,0,1-.263.968,2.234,2.234,0,0,1-.264.413,1.681,1.681,0,0,1-.37.356.371.371,0,0,1-.577-.308,1.683,1.683,0,0,1,.091-.506,2.467,2.467,0,0,1,.855-1.206.337.337,0,0,1,.529.284Z" transform="translate(-95.514 -144.478)" fill="#3c3c3b"/>
            </g>
            <g id="Grupo_1180592" data-name="Grupo 1180592" transform="translate(45.443 30.783)">
              <path id="Trazado_1043508" data-name="Trazado 1043508" d="M103.825,149.552a2.788,2.788,0,0,1-.334,1.539,1.848,1.848,0,0,1-.32.441.367.367,0,0,1-.518-.007.362.362,0,0,1-.1-.206,1.886,1.886,0,0,1,.02-.544,2.525,2.525,0,0,1,.133-.505,2.6,2.6,0,0,1,.552-.913.332.332,0,0,1,.47,0A.336.336,0,0,1,103.825,149.552Z" transform="translate(-102.54 -149.257)" fill="#3c3c3b"/>
            </g>
            <g id="Grupo_1180593" data-name="Grupo 1180593" transform="translate(50.047 34.416)">
              <path id="Trazado_1043509" data-name="Trazado 1043509" d="M109.726,154a1.581,1.581,0,0,1-.242,1.04,1.611,1.611,0,0,1-.351.407,1.268,1.268,0,0,1-.479.264.366.366,0,0,1-.444-.456l.01-.033a2.255,2.255,0,0,1,.176-.405,3.146,3.146,0,0,1,.208-.344,3.8,3.8,0,0,1,.55-.65l.02-.018a.332.332,0,0,1,.552.2Z" transform="translate(-108.196 -153.721)" fill="#3c3c3b"/>
            </g>
            <g id="Grupo_1180594" data-name="Grupo 1180594" transform="translate(55.026 37.835)">
              <path id="Trazado_1043510" data-name="Trazado 1043510" d="M116.113,158.237a2.386,2.386,0,0,1-.361,1.246,2.438,2.438,0,0,1-.4.51,1.871,1.871,0,0,1-.537.382.355.355,0,0,1-.479-.436l0-.015a3.55,3.55,0,0,1,.243-.525c.085-.165.184-.317.281-.47a6.343,6.343,0,0,1,.689-.9l.009-.009a.322.322,0,0,1,.554.216Z" transform="translate(-114.315 -157.922)" fill="#3c3c3b"/>
            </g>
            <g id="Grupo_1180595" data-name="Grupo 1180595" transform="translate(61.01 41.211)">
              <path id="Trazado_1043511" data-name="Trazado 1043511" d="M123,162.414a2.432,2.432,0,0,1-.156,1.007,2.285,2.285,0,0,1-.216.441,1.837,1.837,0,0,1-.332.408l-.037.033a.355.355,0,0,1-.5-.033.348.348,0,0,1-.086-.2,1.777,1.777,0,0,1,.042-.536,2.594,2.594,0,0,1,.157-.5,2.5,2.5,0,0,1,.591-.881.322.322,0,0,1,.537.216Z" transform="translate(-121.668 -162.07)" fill="#3c3c3b"/>
            </g>
            <g id="Grupo_1180596" data-name="Grupo 1180596" transform="translate(66.409 45.412)">
              <path id="Trazado_1043512" data-name="Trazado 1043512" d="M130.089,167.563a2.057,2.057,0,0,1-.394,1.117,2.107,2.107,0,0,1-.4.435,1.611,1.611,0,0,1-.523.3.36.36,0,0,1-.451-.234.356.356,0,0,1,.006-.233l.006-.018a2.766,2.766,0,0,1,.24-.465,4.221,4.221,0,0,1,.278-.4,4.708,4.708,0,0,1,.694-.746l.011-.01a.327.327,0,0,1,.46.044A.318.318,0,0,1,130.089,167.563Z" transform="translate(-128.301 -167.232)" fill="#3c3c3b"/>
            </g>
          </g>
          <path id="Trazado_1043513" data-name="Trazado 1043513" d="M61.255,108.888l14.866,10.786c4.623,3.354,9.3,6.761,12.931,11.217,1.046,1.284,2.026,3.116,1.145,4.515a3.1,3.1,0,0,1-2.142,1.241c-2.885.517-5.705-1.056-8.218-2.612a279.13,279.13,0,0,1-27.316-19.274c-1.554-1.242-3.255-2.866-3.049-4.868a4,4,0,0,1,2.722-3.133C55.414,105.587,58.63,106.984,61.255,108.888Z" transform="translate(-42.105 -97.346)" fill="#79c29d" opacity="0.62"/>
          <path id="Trazado_1043514" data-name="Trazado 1043514" d="M125.69,147.947a24.562,24.562,0,0,1,6.042,5.257c.693.924,1.266,2.223.621,3.181a2.377,2.377,0,0,1-1.92.884c-1.987.079-3.775-1.111-5.4-2.262q-7.514-5.337-14.8-10.992c-1.34-1.04-2.828-2.624-2.159-4.182C109.583,136.335,124.18,146.917,125.69,147.947Z" transform="translate(-52.987 -103.451)" fill="#fff" opacity="0.49"/>
        </g>
        <g id="Grupo_1180599" data-name="Grupo 1180599" transform="translate(32.834 11.91)">
          <path id="Trazado_1043515" data-name="Trazado 1043515" d="M74.114,54.659a76.871,76.871,0,0,0,6.619,6.232c1.583,1.323,3.348,2.634,5.4,2.8,1.4.116,2.927-.295,4.146.4a.527.527,0,0,1,.258.256.583.583,0,0,1-.177.518c-2.808,3.554-14.376,11.181-16.31,12.5-.4.274-1.305.621-1.727.377-.49-.284-.409-1.005-.261-1.553q.554-2.062,1.109-4.124a2.277,2.277,0,0,0-.212-2.21L67.445,59.778a10.508,10.508,0,0,0-1.622-.062,1.354,1.354,0,0,1-1.473-.726c-.177-.563.256-1.121.67-1.542A45.243,45.243,0,0,1,68.7,54.156c1.707-1.394,3.573-2.778,5.757-3.066a1.076,1.076,0,0,1,1.056.284C75.733,51.7,76,52.335,74.114,54.659Z" transform="translate(-64.309 -51.069)" fill="#6776b7"/>
          <line id="Línea_729" data-name="Línea 729" x2="8.414" y2="13.182" transform="translate(17.484 20.956)" fill="none" stroke="#3c3c3b" stroke-linecap="round" stroke-linejoin="round" stroke-miterlimit="10" stroke-width="1.383"/>
        </g>
        <g id="Grupo_1180606" data-name="Grupo 1180606" transform="translate(309.738 78.096)">
          <g id="Grupo_1180603" data-name="Grupo 1180603">
            <path id="Trazado_1043516" data-name="Trazado 1043516" d="M430.833,140.615s-.184,5.586-5.49,7.463-6.241.721-6.241.721l-13.3,7.972,15.864,24.809,12.85-8.517s-.593-4.746,4.607-7.4,8.6-.384,8.6-.384l12.182-7.639-16.081-25.252Z" transform="translate(-404.781 -132.393)" fill="#cf7fb3"/>
            <g id="Grupo_1180600" data-name="Grupo 1180600" transform="translate(9.239 12.232)">
              <path id="Trazado_1043517" data-name="Trazado 1043517" d="M423.688,175.8l-.011-.017c-2.548-4.129-5.178-8.309-7.716-12.555a.435.435,0,0,1,.144-.59l18.343-11.485-.041.028a21.719,21.719,0,0,1,6.2-3.217,11.151,11.151,0,0,1,3.532-.54,6.659,6.659,0,0,1,3.5,1.057,6.945,6.945,0,0,1,2.41,2.744,5.779,5.779,0,0,1,.5,3.64,9.065,9.065,0,0,1-1.416,3.3,16.844,16.844,0,0,1-2.253,2.69,28.7,28.7,0,0,1-5.516,4.2l-5.91,3.622Zm.126-.639.016-.011,11.4-7.3,5.682-3.592a27.806,27.806,0,0,0,5.288-4.09,11.2,11.2,0,0,0,3.351-5.482,5.331,5.331,0,0,0-2.49-5.31c-1.753-1.145-4.07-1.025-6.144-.393a20.753,20.753,0,0,0-5.889,3.006l-.019.015-.021.014-18.423,11.357.144-.59C419.11,166.85,421.421,170.982,423.814,175.163Z" transform="translate(-415.9 -147.422)" fill="#3c3c3b"/>
            </g>
            <g id="Grupo_1180601" data-name="Grupo 1180601" transform="translate(13.019 15.083)">
              <path id="Trazado_1043518" data-name="Trazado 1043518" d="M450.084,151.5q-3.57,2.266-7.174,4.474l-7.232,4.376-7.282,4.291q-3.653,2.127-7.347,4.184a.339.339,0,0,1-.348-.583q3.568-2.267,7.178-4.466l7.242-4.358,7.293-4.274q3.655-2.123,7.351-4.177a.311.311,0,0,1,.318.533Z" transform="translate(-420.544 -150.925)" fill="#3c3c3b"/>
            </g>
            <g id="Grupo_1180602" data-name="Grupo 1180602" transform="translate(0 24.04)">
              <path id="Trazado_1043519" data-name="Trazado 1043519" d="M459.954,163.005,461.462,166a.341.341,0,0,1-.129.446l-.007,0-7.833,4.643-7.858,4.6a.455.455,0,0,1-.406.027l-.037-.016a3.928,3.928,0,0,0-1.471-.238,6.581,6.581,0,0,0-1.592.212,11.158,11.158,0,0,0-3.021,1.3,9.6,9.6,0,0,0-2.529,2.058,6.055,6.055,0,0,0-.84,1.339,3.905,3.905,0,0,0-.363,1.432v.026a.52.52,0,0,1-.23.422l-7.557,5.006L420,192.214a.516.516,0,0,1-.715-.146s-.008-.013-.011-.018l-7.351-12.16c-2.452-4.052-4.906-8.1-7.319-12.178l0-.007a.379.379,0,0,1-.05-.243l.68-5.235a.34.34,0,0,1,.675.081l-.578,5.247-.055-.25c2.513,4.015,4.985,8.056,7.459,12.094l7.427,12.113-.726-.164,7.56-5,7.592-4.951-.23.447a5.805,5.805,0,0,1,1.458-3.45,10.589,10.589,0,0,1,2.8-2.256,12.091,12.091,0,0,1,3.294-1.386,7.5,7.5,0,0,1,1.816-.227,4.653,4.653,0,0,1,1.9.354l-.444.011,7.891-4.542,7.916-4.5-.136.45-1.448-3.02a.31.31,0,0,1,.556-.273Z" transform="translate(-404.548 -161.931)" fill="#3c3c3b"/>
            </g>
          </g>
          <g id="Grupo_1180605" data-name="Grupo 1180605" transform="translate(29.342 26.524)">
            <g id="Grupo_1180604" data-name="Grupo 1180604">
              <path id="Trazado_1043520" data-name="Trazado 1043520" d="M441.88,167.632a1.325,1.325,0,0,0,0-2.648,1.325,1.325,0,0,0,0,2.648Z" transform="translate(-440.601 -164.984)" fill="#3c3c3b"/>
            </g>
          </g>
        </g>
        <path id="Trazado_1043521" data-name="Trazado 1043521" d="M335.084,45.955a48.346,48.346,0,0,1-5.376,10.5,3,3,0,0,1-1.429,1.321,2.083,2.083,0,0,1-2.366-1.364,5.4,5.4,0,0,1-.066-2.963,32.554,32.554,0,0,1,5.491-13.018,11.02,11.02,0,0,1,3.184-3.216,4.8,4.8,0,0,1,4.361-.438,4.892,4.892,0,0,1,2.559,4.06,12.275,12.275,0,0,1-.83,4.922,41.485,41.485,0,0,1-9.088,15.766c-2.335,2.441-5.778,4.647-8.9,3.366-2.9-1.189-3.956-4.908-3.4-7.991s2.281-5.81,3.455-8.715" transform="translate(-78.9 -36.435)" fill="none" stroke="#3c3c3b" stroke-linecap="round" stroke-linejoin="round" stroke-miterlimit="10" stroke-width="2"/>
        <g id="Grupo_1180607" data-name="Grupo 1180607" transform="translate(17.345 100.346)">
          <path id="Trazado_1043522" data-name="Trazado 1043522" d="M74.911,178.821a4.834,4.834,0,0,1,.135,4.3,4.778,4.778,0,1,1-5.31-6.519S73.2,176.085,74.911,178.821Z" transform="translate(-49.107 -162.866)" fill="#3c3c3b"/>
          <path id="Trazado_1043523" data-name="Trazado 1043523" d="M72.656,178.01a55.738,55.738,0,0,0-3.532-18.278l-16.746,2.8a55.764,55.764,0,0,1,3.532,18.278" transform="translate(-46.599 -159.732)" fill="none" stroke="#3c3c3b" stroke-miterlimit="10" stroke-width="0.96"/>
          <path id="Trazado_1043524" data-name="Trazado 1043524" d="M53.344,165.413c-.369-1.244-.51-1.663-.966-2.879l16.746-2.8q.535,1.423.99,2.874Z" transform="translate(-46.599 -159.732)" fill="#3c3c3b" stroke="#3c3c3b" stroke-miterlimit="10" stroke-width="0.96"/>
          <path id="Trazado_1043525" data-name="Trazado 1043525" d="M54.335,182.264a4.834,4.834,0,0,1,.135,4.3,4.778,4.778,0,1,1-5.31-6.519S52.623,179.529,54.335,182.264Z" transform="translate(-45.277 -163.506)" fill="#3c3c3b"/>
        </g>
        <g id="Grupo_1180610" data-name="Grupo 1180610" transform="translate(32.488 22.025)">
          <g id="Grupo_1180608" data-name="Grupo 1180608" transform="translate(288.605)">
            <path id="Trazado_1043526" data-name="Trazado 1043526" d="M434.091,78.113a3.219,3.219,0,0,1-1.234.114,3.9,3.9,0,0,1-1.065-.262,3.4,3.4,0,0,1-.935-.552,2.776,2.776,0,0,1-.754-.955,1.522,1.522,0,0,1,.739-2.028,1.812,1.812,0,0,1,.206-.079,2.8,2.8,0,0,1,1.22-.084,3.426,3.426,0,0,1,1.039.32,3.865,3.865,0,0,1,.909.61,3.17,3.17,0,0,1,.741.986,1.4,1.4,0,0,1-.689,1.863A1.6,1.6,0,0,1,434.091,78.113Z" transform="translate(-420.634 -65.497)" fill="#3c3c3b"/>
            <path id="Trazado_1043527" data-name="Trazado 1043527" d="M421.6,72.205a2.215,2.215,0,0,1-.9.365,2.057,2.057,0,0,1-.786-.03,1.744,1.744,0,0,1-.7-.334,1.854,1.854,0,0,1-.57-.758,1.821,1.821,0,0,1,.654-2.213,1.892,1.892,0,0,1,.894-.333,1.749,1.749,0,0,1,.768.091,2.031,2.031,0,0,1,.678.4,2.179,2.179,0,0,1,.562.791A1.678,1.678,0,0,1,421.6,72.205Z" transform="translate(-418.501 -64.502)" fill="#3c3c3b"/>
            <path id="Trazado_1043528" data-name="Trazado 1043528" d="M427.025,67.568a3.267,3.267,0,0,1-1.252.015,4.011,4.011,0,0,1-1.056-.348,3.477,3.477,0,0,1-.9-.628,2.814,2.814,0,0,1-.693-1.017,1.515,1.515,0,0,1,.871-1.962,1.7,1.7,0,0,1,.23-.069,2.864,2.864,0,0,1,1.236.015,3.5,3.5,0,0,1,1.025.4,3.983,3.983,0,0,1,.874.684,3.232,3.232,0,0,1,.677,1.046,1.393,1.393,0,0,1-.811,1.8A1.235,1.235,0,0,1,427.025,67.568Z" transform="translate(-419.342 -63.498)" fill="#3c3c3b"/>
          </g>
          <g id="Grupo_1180609" data-name="Grupo 1180609" transform="translate(0 184.142)">
            <path id="Trazado_1043529" data-name="Trazado 1043529" d="M64.647,290.1a3.22,3.22,0,0,1,1.194-.331,3.907,3.907,0,0,1,1.095.069,3.4,3.4,0,0,1,1.018.378,2.778,2.778,0,0,1,.912.806,1.524,1.524,0,0,1-.367,2.127,1.733,1.733,0,0,1-.189.114,2.807,2.807,0,0,1-1.186.3,3.4,3.4,0,0,1-1.079-.131,3.871,3.871,0,0,1-1-.439,3.168,3.168,0,0,1-.9-.839,1.4,1.4,0,0,1,.348-1.956A1.588,1.588,0,0,1,64.647,290.1Z" transform="translate(-63.884 -289.757)" fill="#3c3c3b"/>
            <path id="Trazado_1043530" data-name="Trazado 1043530" d="M78.3,293.717a2.217,2.217,0,0,1,.824-.519,2.032,2.032,0,0,1,.779-.109,1.73,1.73,0,0,1,.745.206,1.857,1.857,0,0,1,.7.645,1.821,1.821,0,0,1-.251,2.294,1.878,1.878,0,0,1-.82.486,1.752,1.752,0,0,1-.772.046,2.041,2.041,0,0,1-.738-.269,2.191,2.191,0,0,1-.693-.679A1.679,1.679,0,0,1,78.3,293.717Z" transform="translate(-66.476 -290.377)" fill="#3c3c3b"/>
            <path id="Trazado_1043531" data-name="Trazado 1043531" d="M73.469,299.2a3.269,3.269,0,0,1,1.23-.236,4.016,4.016,0,0,1,1.1.155,3.485,3.485,0,0,1,1,.458,2.81,2.81,0,0,1,.862.877,1.515,1.515,0,0,1-.509,2.085,1.659,1.659,0,0,1-.214.108,2.873,2.873,0,0,1-1.219.2,3.51,3.51,0,0,1-1.08-.216,3.962,3.962,0,0,1-.982-.518,3.23,3.23,0,0,1-.852-.909,1.394,1.394,0,0,1,.479-1.916A1.588,1.588,0,0,1,73.469,299.2Z" transform="translate(-65.508 -291.471)" fill="#3c3c3b"/>
          </g>
        </g>
        <g id="Grupo_1180630" data-name="Grupo 1180630" transform="translate(69.036 84.85)">
          <g id="Grupo_1180622" data-name="Grupo 1180622" transform="translate(42.695 0)">
            <path id="Trazado_1043532" data-name="Trazado 1043532" d="M301.951,183.449c-.6,6.633-2.226,13.422-.614,19.842,1.509,6.008,5.609,10.681,8.923,15.71s6.011,11.471,4.162,17.359c-1.567,4.99-6.022,8.163-10.517,9.857-8.323,3.135-18.237,2.149-24.907-4.221-5.558-5.307-8.194-13.467-9.718-21.442-3.361-17.58-4.846-51.6,9.229-64.538a12.445,12.445,0,0,1,17.066-.072C302.608,162.152,302.767,174.387,301.951,183.449Z" transform="translate(-180.94 -142.907)" fill="#3c3c3b"/>
            <path id="Trazado_1043533" data-name="Trazado 1043533" d="M175.659,183.029c.6,6.633,2.226,13.422.614,19.842-1.509,6.008-5.609,10.681-8.923,15.71s-6.011,11.471-4.162,17.359c1.567,4.99,6.022,8.163,10.517,9.857,8.323,3.135,18.237,2.149,24.907-4.221,5.558-5.306,8.194-13.467,9.718-21.442,3.361-17.579,4.846-51.6-9.229-64.538a12.445,12.445,0,0,0-17.066-.072C175,161.733,174.842,173.969,175.659,183.029Z" transform="translate(-161.501 -142.829)" fill="#3c3c3b"/>
            <path id="Trazado_1043534" data-name="Trazado 1043534" d="M254.218,256.559v11.849s-3.187,4.772-13.84,4.842c-11.66.077-15.468-5.073-15.468-5.073V256.559Z" transform="translate(-173.103 -162.261)" fill="#f9c29b"/>
            <path id="Trazado_1043535" data-name="Trazado 1043535" d="M161.253,291.808c5.23-5.741,11.706-9.935,18.717-13.3a86.976,86.976,0,0,1,38-8.271l24.4.094h0a66.506,66.506,0,0,1,24.568,4.319c10.421,3.972,20.361,9,27.788,17.158l-63.205,21.56Z" transform="translate(-161.253 -164.807)" fill="#c361a2"/>
            <path id="Trazado_1043536" data-name="Trazado 1043536" d="M209.674,271.789a92.015,92.015,0,0,1,17.311-1.551l24.4.094h0A67.036,67.036,0,0,1,267.2,272s-4.881,11.014-30.467,11.014C209.674,283.012,209.674,271.789,209.674,271.789Z" transform="translate(-170.267 -164.807)" fill="#f9c29b"/>
            <path id="Trazado_1043537" data-name="Trazado 1043537" d="M279.8,190.895s2.869,50.854-45.371,50.854c-50.605,0-45.869-47.364-45.869-47.364s1.5-42.13,35.4-48.361S280.548,157.49,279.8,190.895Z" transform="translate(-166.314 -141.454)" fill="#f9c29b"/>
            <path id="Trazado_1043538" data-name="Trazado 1043538" d="M224.91,261.491a62.346,62.346,0,0,0,16.309,1.983,58.857,58.857,0,0,0,10.007-.814s-5.513,5.174-26.315,2.844v-4.013Z" transform="translate(-173.103 -163.179)" fill="#3c3c3b"/>
            <path id="Trazado_1043539" data-name="Trazado 1043539" d="M298.795,202.872a20.573,20.573,0,0,1,8.895-3.4,7.968,7.968,0,0,1,6.686,2.645,10.148,10.148,0,0,1,1.878,4.282,11.394,11.394,0,0,1,.278,4.064A9.066,9.066,0,0,1,309,217.717a12.278,12.278,0,0,1-10.209-3.509" transform="translate(-186.856 -151.63)" fill="#f9c29b"/>
            <g id="Grupo_1180611" data-name="Grupo 1180611" transform="translate(116.175 53.136)">
              <path id="Trazado_1043540" data-name="Trazado 1043540" d="M310.167,206.731a16.082,16.082,0,0,0-3.137,3.06,16.892,16.892,0,0,0-2.159,3.8l0,.006a.452.452,0,0,1-.866-.223,8.836,8.836,0,0,1,1.9-4.466,9,9,0,0,1,3.881-2.9.414.414,0,0,1,.392.719Z" transform="translate(-304 -205.982)" fill="#3c3c3b"/>
            </g>
            <g id="Grupo_1180612" data-name="Grupo 1180612" transform="translate(118.148 56.203)">
              <path id="Trazado_1043541" data-name="Trazado 1043541" d="M306.987,209.775a4.673,4.673,0,0,1,2.378,2.095,4.578,4.578,0,0,1,.586,3.121.458.458,0,0,1-.89.033l0-.018a11.08,11.08,0,0,0-.942-2.433,10.1,10.1,0,0,0-1.566-2.1l-.011-.011a.42.42,0,0,1,.449-.682Z" transform="translate(-306.424 -209.75)" fill="#3c3c3b"/>
            </g>
            <g id="Grupo_1180613" data-name="Grupo 1180613" transform="translate(83.506 63.571)">
              <path id="Trazado_1043542" data-name="Trazado 1043542" d="M264,221.32a10.7,10.7,0,0,1,3.773-2.021,11.736,11.736,0,0,1,4.3-.464,11.262,11.262,0,0,1,4.165,1.192,10.664,10.664,0,0,1,3.373,2.652.445.445,0,0,1-.633.62,13.2,13.2,0,0,0-3.3-2.084,12.325,12.325,0,0,0-3.728-.969,11.667,11.667,0,0,0-3.848.271,13.1,13.1,0,0,0-3.633,1.463.407.407,0,0,1-.47-.661Z" transform="translate(-263.86 -218.803)" fill="#3c3c3b"/>
            </g>
            <g id="Grupo_1180614" data-name="Grupo 1180614" transform="translate(36.224 62.397)">
              <path id="Trazado_1043543" data-name="Trazado 1043543" d="M221.009,220.538a13.09,13.09,0,0,0-3.633-1.463,11.646,11.646,0,0,0-3.848-.271,12.322,12.322,0,0,0-3.728.969,13.208,13.208,0,0,0-3.3,2.084.445.445,0,0,1-.633-.62,10.662,10.662,0,0,1,3.373-2.652,11.261,11.261,0,0,1,4.165-1.192,11.734,11.734,0,0,1,4.3.464,10.719,10.719,0,0,1,3.773,2.021.407.407,0,0,1-.47.661Z" transform="translate(-205.763 -217.36)" fill="#3c3c3b"/>
            </g>
            <g id="Grupo_1180615" data-name="Grupo 1180615" transform="translate(61.007 77.899)">
              <path id="Trazado_1043544" data-name="Trazado 1043544" d="M247.832,237.916a11.308,11.308,0,0,1-5.8,1.152,11.13,11.13,0,0,1-5.625-1.848.446.446,0,0,1,.416-.782,18.185,18.185,0,0,0,5.3,1.213,17.6,17.6,0,0,0,5.424-.495.409.409,0,0,1,.287.759Z" transform="translate(-236.214 -236.408)" fill="#3c3c3b"/>
            </g>
            <g id="Grupo_1180616" data-name="Grupo 1180616" transform="translate(65.166 69.64)">
              <path id="Trazado_1043545" data-name="Trazado 1043545" d="M242.821,226.9a1.773,1.773,0,0,0,0,1.541,1.844,1.844,0,0,0,1.265.833l.079.015a.451.451,0,0,1,.356.528.456.456,0,0,1-.258.326,2.178,2.178,0,0,1-2.013-3.824.414.414,0,0,1,.6.517Z" transform="translate(-241.325 -226.261)" fill="#3c3c3b"/>
            </g>
            <g id="Grupo_1180617" data-name="Grupo 1180617" transform="translate(72.654 47.099)">
              <path id="Trazado_1043546" data-name="Trazado 1043546" d="M287.6,217.205a18.347,18.347,0,0,1-5.212,13.1,18.9,18.9,0,1,1,5.269-13.1H287.6Zm-1.274,0a16.868,16.868,0,0,0-28.825-11.79,16.777,16.777,0,0,0,23.725,23.725A17.147,17.147,0,0,0,286.38,217.2h-.057Z" transform="translate(-250.525 -198.564)" fill="#3c3c3b"/>
            </g>
            <g id="Grupo_1180618" data-name="Grupo 1180618" transform="translate(25.862 46.195)">
              <path id="Trazado_1043547" data-name="Trazado 1043547" d="M230.1,216.094a18.347,18.347,0,0,1-5.212,13.1,18.9,18.9,0,1,1,5.269-13.1H230.1Zm-1.274,0A16.868,16.868,0,0,0,200,204.3a16.777,16.777,0,0,0,23.725,23.725,17.147,17.147,0,0,0,5.157-11.935h-.057Z" transform="translate(-193.031 -197.453)" fill="#3c3c3b"/>
            </g>
            <g id="Grupo_1180619" data-name="Grupo 1180619" transform="translate(61.899 61.845)">
              <path id="Trazado_1043548" data-name="Trazado 1043548" d="M237.31,219.23a7.161,7.161,0,0,1,2.853-2.013,7.493,7.493,0,0,1,3.531-.494,8.3,8.3,0,0,1,3.34,1.139,11.558,11.558,0,0,1,1.393,1c.4.4.8.8,1.156,1.22l-.91.987c-.454-.243-.855-.537-1.284-.783l-.646-.339a4.133,4.133,0,0,0-.641-.32c-.221-.086-.435-.18-.649-.277a6.511,6.511,0,0,0-.66-.207,6.927,6.927,0,0,0-1.327-.286,7.41,7.41,0,0,0-2.7.183,10.127,10.127,0,0,0-2.606,1.073Z" transform="translate(-237.31 -216.683)" fill="#3c3c3b"/>
            </g>
            <path id="Trazado_1043549" data-name="Trazado 1043549" d="M187.659,198.529c-1.939-1.563-7.935-3.832-10.419-4.008a7.969,7.969,0,0,0-6.686,2.645,10.148,10.148,0,0,0-1.878,4.282,11.392,11.392,0,0,0-.278,4.064,9.065,9.065,0,0,0,7.528,7.255,12.277,12.277,0,0,0,10.209-3.509" transform="translate(-162.568 -150.708)" fill="#f9c29b"/>
            <g id="Grupo_1180620" data-name="Grupo 1180620" transform="translate(12.995 49.109)">
              <path id="Trazado_1043550" data-name="Trazado 1043550" d="M177.777,201.058a8.995,8.995,0,0,1,3.881,2.9,8.833,8.833,0,0,1,1.9,4.466.452.452,0,0,1-.866.223l0-.006a16.86,16.86,0,0,0-2.159-3.8,16.06,16.06,0,0,0-3.137-3.06l0,0a.415.415,0,0,1,.391-.72Z" transform="translate(-177.221 -201.033)" fill="#3c3c3b"/>
            </g>
            <g id="Grupo_1180621" data-name="Grupo 1180621" transform="translate(13.757 52.173)">
              <path id="Trazado_1043551" data-name="Trazado 1043551" d="M181.633,205.517a10.04,10.04,0,0,0-1.566,2.1,11.094,11.094,0,0,0-.942,2.433l0,.017a.458.458,0,0,1-.89-.032,4.586,4.586,0,0,1,.586-3.121,4.676,4.676,0,0,1,2.378-2.095.42.42,0,0,1,.449.682Z" transform="translate(-178.157 -204.798)" fill="#3c3c3b"/>
            </g>
            <path id="Trazado_1043552" data-name="Trazado 1043552" d="M269.37,153.863c10.443,10.563,13.538,25.063,10.043,39.5a36,36,0,0,1-8.169-15.143c1.6,1.762.463,4.826-1.6,6.016s-4.6,1.054-6.974.883l-10.561-.759a10.861,10.861,0,0,1-4.436-.958c-2.453-1.325-3.5-4.292-3.874-7.055s-.295-5.648-1.39-8.212q.159,6.523-.086,13.048a6.156,6.156,0,0,1-1.068,3.91c-1.086,1.244-2.927,1.414-4.576,1.474a177.376,177.376,0,0,1-23.36-.7,7.481,7.481,0,0,1-3.3-.855c-3.536-2.214-1.566-8.24-4.33-11.365l-2.333,7.281a2.159,2.159,0,0,1-3.184,1.685l-6.4-1.407-5.184,8.83c-3.828-9.558,2.862-21.329,7.515-30.512,0,0,8.79-18.635,43.745-17.9C239.846,141.625,258.393,142.759,269.37,153.863Z" transform="translate(-166.129 -140.862)" fill="#3c3c3b"/>
            <circle id="Elipse_12513" data-name="Elipse 12513" cx="10.07" cy="10.07" r="10.07" transform="translate(94.428 20.466) rotate(-76.645)" fill="#3c3c3b"/>
            <circle id="Elipse_12514" data-name="Elipse 12514" cx="10.07" cy="10.07" r="10.07" transform="translate(19.274 19.596) rotate(-76.645)" fill="#3c3c3b"/>
          </g>
          <path id="Trazado_1043553" data-name="Trazado 1043553" d="M278.607,396.34c11.3,8.1,14.255,24.918,14.745,39.878a235.22,235.22,0,0,1-2.84,44.919l-122.167-.051a235.224,235.224,0,0,1-2.84-44.919c.489-14.96,3.444-31.781,14.745-39.878" transform="translate(-119.325 -188.271)" fill="#1ab2bf"/>
          <g id="Grupo_1180623" data-name="Grupo 1180623" transform="translate(105.163 235.272)">
            <path id="Trazado_1043554" data-name="Trazado 1043554" d="M239.124,430.166q.239,5.63.273,11.261c.009,1.877.046,3.753.023,5.63s-.008,3.753-.047,5.63l-.654-.654c2.436.043,4.872.1,7.308.212a.444.444,0,0,1,0,.886c-2.436.116-4.872.168-7.308.212a.643.643,0,0,1-.654-.632v-.024c-.04-1.877-.03-3.753-.047-5.63s.014-3.753.023-5.63q.031-5.63.273-11.261a.406.406,0,0,1,.811,0Z" transform="translate(-238.009 -429.777)" fill="#3c3c3b"/>
          </g>
          <line id="Línea_730" data-name="Línea 730" y1="16.373" transform="translate(109.288 275.991)" fill="none" stroke="#3c3c3b" stroke-linecap="round" stroke-linejoin="round" stroke-miterlimit="10" stroke-width="1.749"/>
          <line id="Línea_731" data-name="Línea 731" x2="11.124" transform="translate(103.964 275.566)" fill="none" stroke="#3c3c3b" stroke-linecap="round" stroke-linejoin="round" stroke-miterlimit="10" stroke-width="1.749"/>
          <g id="Grupo_1180624" data-name="Grupo 1180624" transform="translate(151.716 218.666)">
            <path id="Trazado_1043555" data-name="Trazado 1043555" d="M296.01,409.677a33.141,33.141,0,0,0,21.111,22.779.444.444,0,0,1-.255.849,27.816,27.816,0,0,1-7.69-3.306,31.091,31.091,0,0,1-11.277-12.23,27.926,27.926,0,0,1-2.683-7.92.407.407,0,0,1,.794-.172Z" transform="translate(-295.21 -409.373)" fill="#3c3c3b"/>
          </g>
          <g id="Grupo_1180625" data-name="Grupo 1180625" transform="translate(47.78 217.85)">
            <path id="Trazado_1043556" data-name="Trazado 1043556" d="M189.7,408.846a27.9,27.9,0,0,1-2.683,7.92A31.1,31.1,0,0,1,175.744,429a27.817,27.817,0,0,1-7.69,3.306.444.444,0,0,1-.256-.849,33.074,33.074,0,0,0,21.11-22.779.407.407,0,0,1,.794.172Z" transform="translate(-167.5 -408.371)" fill="#3c3c3b"/>
          </g>
          <path id="Trazado_1043557" data-name="Trazado 1043557" d="M124.111,285.64s37.947-7.526,97.86,16.128c0,0,54.782-19.821,96.014-16.78l-3.535,27.947L126.334,314.12Z" transform="translate(-111.644 -167.462)" fill="#fff"/>
          <g id="Grupo_1180626" data-name="Grupo 1180626" transform="translate(18.598 118.27)">
            <path id="Trazado_1043558" data-name="Trazado 1043558" d="M131.762,286.014c7.7.051,15.377.544,23.033,1.288q11.481,1.138,22.845,3.218l5.661,1.117,5.622,1.3c1.881.408,3.734.922,5.589,1.433l2.784.758c.929.247,1.857.5,2.769.809l5.5,1.751c.923.273,1.82.623,2.721.959l2.7,1.008,2.7,1.008c.9.329,1.768.755,2.655,1.129l5.287,2.315a.127.127,0,0,1-.1.232l-.007,0-5.284-2.292c-.886-.37-1.75-.793-2.654-1.117l-2.7-1-2.7-1c-.9-.333-1.8-.677-2.719-.947l-5.494-1.73a221.586,221.586,0,0,0-22.4-5.338q-11.326-2.111-22.8-3.3c-7.643-.771-15.32-1.292-23-1.371a.115.115,0,0,1-.118-.114A.12.12,0,0,1,131.762,286.014Z" transform="translate(-131.644 -286.014)" fill="#3c3c3b"/>
          </g>
          <g id="Grupo_1180627" data-name="Grupo 1180627" transform="translate(23.882 121.503)">
            <path id="Trazado_1043559" data-name="Trazado 1043559" d="M138.253,289.986c7.264.061,14.509.582,21.726,1.365q10.822,1.2,21.509,3.361a199.582,199.582,0,0,1,21.071,5.469l5.171,1.706c1.706.619,3.395,1.286,5.093,1.926l2.544.97,2.494,1.094,4.982,2.2a.127.127,0,0,1-.1.232l-.006,0-4.981-2.177-2.493-1.082-2.543-.96c-1.7-.633-3.386-1.293-5.091-1.905l-5.168-1.684a202.211,202.211,0,0,0-21.052-5.391q-10.648-2.188-21.464-3.44c-7.2-.811-14.444-1.359-21.688-1.449a.116.116,0,0,1-.119-.113A.118.118,0,0,1,138.253,289.986Z" transform="translate(-138.136 -289.986)" fill="#3c3c3b"/>
          </g>
          <g id="Grupo_1180628" data-name="Grupo 1180628" transform="translate(112.832 118.269)">
            <path id="Trazado_1043560" data-name="Trazado 1043560" d="M337.377,286.246c-7.68.08-15.357.6-23,1.371q-11.464,1.179-22.8,3.3a221.6,221.6,0,0,0-22.4,5.338l-5.494,1.73c-.922.27-1.818.615-2.719.947l-2.7,1-2.7,1c-.9.325-1.768.748-2.653,1.117l-5.284,2.292-.007,0a.127.127,0,0,1-.1-.232l5.287-2.315c.886-.373,1.751-.8,2.655-1.129l2.7-1.008,2.7-1.008c.9-.336,1.8-.685,2.721-.959l5.5-1.751c.912-.307,1.839-.562,2.769-.809l2.784-.759c1.855-.51,3.709-1.025,5.589-1.433l5.622-1.3,5.661-1.117q11.352-2.073,22.845-3.218c7.655-.743,15.336-1.236,23.033-1.287a.116.116,0,1,1,0,.233Z" transform="translate(-247.431 -286.013)" fill="#3c3c3b"/>
          </g>
          <g id="Grupo_1180629" data-name="Grupo 1180629" transform="translate(112.831 121.504)">
            <path id="Trazado_1043561" data-name="Trazado 1043561" d="M332.094,290.218c-7.245.09-14.487.638-21.688,1.449q-10.8,1.239-21.464,3.44A202.151,202.151,0,0,0,267.89,300.5l-5.168,1.684c-1.705.612-3.393,1.271-5.091,1.905l-2.543.96-2.493,1.082-4.981,2.177-.007,0a.127.127,0,1,1-.1-.232l4.982-2.2,2.494-1.094,2.544-.97c1.7-.64,3.387-1.308,5.093-1.926l5.171-1.706a199.539,199.539,0,0,1,21.071-5.469q10.674-2.15,21.509-3.361c7.216-.784,14.462-1.3,21.726-1.365a.116.116,0,0,1,.117.115A.121.121,0,0,1,332.094,290.218Z" transform="translate(-247.431 -289.987)" fill="#3c3c3b"/>
          </g>
          <path id="Trazado_1043562" data-name="Trazado 1043562" d="M211.29,305.343l-102.5-22.859,20.647,112.084,81.851,19.173H225.3l78.164-17.7s13.857-61.472,20.647-113.559l-96.841,22.955Z" transform="translate(-108.792 -167.087)" fill="#f9db0e"/>
          <line id="Línea_732" data-name="Línea 732" y2="108.398" transform="translate(102.498 138.257)" fill="none" stroke="#3c3c3b" stroke-miterlimit="10" stroke-width="1"/>
          <line id="Línea_733" data-name="Línea 733" x1="1.971" y2="108.302" transform="translate(116.508 138.352)" fill="none" stroke="#3c3c3b" stroke-miterlimit="10" stroke-width="1"/>
          <path id="Trazado_1043563" data-name="Trazado 1043563" d="M128.147,361.326a6.5,6.5,0,0,1,3.936.5,3.625,3.625,0,0,1,1.535,3.809,4.46,4.46,0,0,1-2.829,3.107,3.382,3.382,0,1,1,.579,6.574,7.738,7.738,0,0,1,2.727.733,2.629,2.629,0,0,1,1.46,2.269c-.066,1.511-1.737,2.349-3.159,2.866a1.836,1.836,0,0,1,2.42,1.34,2.852,2.852,0,0,1-1.215,2.761,6.819,6.819,0,0,1-2.967,1.082,16.021,16.021,0,0,1-7.618-.338,14.1,14.1,0,0,1-7.908-6.958,20.828,20.828,0,0,1-2.13-10.466,18.218,18.218,0,0,1,1.832-7.69,10.967,10.967,0,0,1,5.7-5.311l1.147,6.119Z" transform="translate(-109.567 -180.698)" fill="#f9c29b"/>
          <path id="Trazado_1043564" data-name="Trazado 1043564" d="M350.2,358.28a6.507,6.507,0,0,0-3.936.5,3.625,3.625,0,0,0-1.535,3.809,4.462,4.462,0,0,0,2.829,3.107,3.382,3.382,0,1,0-.579,6.574,7.738,7.738,0,0,0-2.727.733,2.63,2.63,0,0,0-1.46,2.268c.066,1.511,1.737,2.349,3.159,2.867a1.836,1.836,0,0,0-2.42,1.34,2.852,2.852,0,0,0,1.215,2.761,6.819,6.819,0,0,0,2.967,1.082,16.022,16.022,0,0,0,7.618-.338,14.1,14.1,0,0,0,7.908-6.958,20.819,20.819,0,0,0,2.13-10.466,18.217,18.217,0,0,0-1.832-7.69,10.962,10.962,0,0,0-5.7-5.31l-1.147,6.119Z" transform="translate(-152.35 -180.131)" fill="#f9c29b"/>
        </g>
      </g>
    </g>
  </g>
</svg>
