<svg xmlns="http://www.w3.org/2000/svg" xmlns:xlink="http://www.w3.org/1999/xlink" width="108" height="108" viewBox="0 0 108 108">
  <defs>
    <filter id="Trazado_978624" x="0" y="0" width="108" height="108" filterUnits="userSpaceOnUse">
      <feOffset dy="3" input="SourceAlpha"/>
      <feGaussianBlur stdDeviation="3" result="blur"/>
      <feFlood flood-opacity="0.161"/>
      <feComposite operator="in" in2="blur"/>
      <feComposite in="SourceGraphic"/>
    </filter>
  </defs>
  <g id="Grupo_1180640" data-name="Grupo 1180640" transform="translate(-199 -9856)">
    <g id="Grupo_1172416" data-name="Grupo 1172416" transform="translate(-428 7256)">
      <g id="Grupo_1168543" data-name="Grupo 1168543" transform="translate(431 -4452)">
        <g id="Grupo_1164524" data-name="Grupo 1164524" transform="translate(205 7058)">
          <g id="Grupo_1144123" data-name="Grupo 1144123">
            <g transform="matrix(1, 0, 0, 1, -9, -6)" filter="url(#Trazado_978624)">
              <g id="Trazado_978624-2" data-name="Trazado 978624" transform="translate(9 6)" fill="#effbfe">
                <path d="M 45 88.5 C 39.12687683105469 88.5 33.43022537231445 87.35007476806641 28.06830024719238 85.08217620849609 C 22.88852500915527 82.89131164550781 18.23629951477051 79.75458526611328 14.2408504486084 75.75914764404297 C 10.24541282653809 71.76370239257812 7.108687400817871 67.11147308349609 4.917825222015381 61.93170166015625 C 2.649924993515015 56.56977462768555 1.5 50.87312316894531 1.5 45 C 1.5 39.12687683105469 2.649924993515015 33.43022537231445 4.917825222015381 28.06830024719238 C 7.108687400817871 22.88852500915527 10.24541282653809 18.23629951477051 14.2408504486084 14.2408504486084 C 18.23629951477051 10.24541282653809 22.88852500915527 7.108687400817871 28.06830024719238 4.917825222015381 C 33.43022537231445 2.649924993515015 39.12687683105469 1.5 45 1.5 C 50.87312316894531 1.5 56.56977462768555 2.649924993515015 61.93170166015625 4.917825222015381 C 67.11147308349609 7.108687400817871 71.76370239257812 10.24541282653809 75.75914764404297 14.2408504486084 C 79.75458526611328 18.23629951477051 82.89131164550781 22.88852500915527 85.08217620849609 28.06830024719238 C 87.35007476806641 33.43022537231445 88.5 39.12687683105469 88.5 45 C 88.5 50.87312316894531 87.35007476806641 56.56977462768555 85.08217620849609 61.93170166015625 C 82.89131164550781 67.11147308349609 79.75458526611328 71.76370239257812 75.75914764404297 75.75914764404297 C 71.76370239257812 79.75458526611328 67.11147308349609 82.89131164550781 61.93170166015625 85.08217620849609 C 56.56977462768555 87.35007476806641 50.87312316894531 88.5 45 88.5 Z" stroke="none"/>
                <path d="M 45 3 C 39.32871246337891 3 33.82865524291992 4.110054016113281 28.65262985229492 6.299339294433594 C 23.65165710449219 8.414573669433594 19.15968322753906 11.44334411621094 15.301513671875 15.301513671875 C 11.44334411621094 19.15968322753906 8.414573669433594 23.65165710449219 6.299339294433594 28.65262985229492 C 4.110054016113281 33.82865524291992 3 39.32871246337891 3 45 C 3 50.67128753662109 4.110054016113281 56.17134475708008 6.299339294433594 61.34737396240234 C 8.414573669433594 66.34834289550781 11.44334411621094 70.84031677246094 15.301513671875 74.698486328125 C 19.15968322753906 78.55665588378906 23.65165710449219 81.58542633056641 28.65262985229492 83.70066070556641 C 33.82865524291992 85.88994598388672 39.32871246337891 87 45 87 C 50.67128753662109 87 56.17134475708008 85.88994598388672 61.34737396240234 83.70066070556641 C 66.34834289550781 81.58542633056641 70.84031677246094 78.55665588378906 74.698486328125 74.698486328125 C 78.55665588378906 70.84031677246094 81.58542633056641 66.34834289550781 83.70066070556641 61.34737396240234 C 85.88994598388672 56.17134475708008 87 50.67128753662109 87 45 C 87 39.32871246337891 85.88994598388672 33.82865524291992 83.70066070556641 28.65262985229492 C 81.58542633056641 23.65165710449219 78.55665588378906 19.15968322753906 74.698486328125 15.301513671875 C 70.84031677246094 11.44334411621094 66.34834289550781 8.414573669433594 61.34737396240234 6.299339294433594 C 56.17134475708008 4.110054016113281 50.67128753662109 3 45 3 M 45 0 C 69.85281372070312 0 90 20.14718627929688 90 45 C 90 69.85281372070312 69.85281372070312 90 45 90 C 20.14718627929688 90 0 69.85281372070312 0 45 C 0 20.14718627929688 20.14718627929688 0 45 0 Z" stroke="none" fill="#397b86"/>
              </g>
            </g>
          </g>
        </g>
      </g>
    </g>
    <g id="hablar_1_" data-name="hablar (1)" transform="translate(223.971 9878)">
      <g id="Grupo_1180638" data-name="Grupo 1180638" transform="translate(0.87 0.847)">
        <g id="Grupo_1180635" data-name="Grupo 1180635">
          <path id="Trazado_1043565" data-name="Trazado 1043565" d="M39.676,25.138l-16.927.006-7.417,0c-.967-4.007-3.324-13.053,4.43-16.474C25.729,6.04,31.849,8.9,31.849,8.9S45.3,6.287,39.676,25.138Z" transform="translate(-13.477 -7.559)" fill="#b16e3d"/>
          <path id="Trazado_1043566" data-name="Trazado 1043566" d="M21.848,22.669l.9,2.476-7.417,0c-.967-4.007-3.324-13.053,4.43-16.474C25.729,6.04,31.849,8.9,31.849,8.9,20.6,8.9,19.913,18.632,21.848,22.669Z" transform="translate(-13.477 -7.559)" fill="#985e33"/>
          <path id="Trazado_1043567" data-name="Trazado 1043567" d="M10.836,169.727a3.309,3.309,0,0,1-3.225-4.037,1.632,1.632,0,0,1,3.225.359H31.995a1.632,1.632,0,0,1,3.225-.359,3.309,3.309,0,0,1-3.225,4.037" transform="translate(-7.53 -146.839)" fill="#eaac9d"/>
          <path id="Trazado_1043568" data-name="Trazado 1043568" d="M58.188,105.666v5.393a7.711,7.711,0,0,1-7.711,7.711H44.74a7.711,7.711,0,0,1-7.711-7.711v-5.241c1.625-.222,3.353-.517,5.066-.9,4.153-.937,8.221-2.419,10.532-4.73C52.627,100.183,54.093,105.057,58.188,105.666Z" transform="translate(-33.723 -89.804)" fill="#ffcbbe"/>
          <path id="Trazado_1043569" data-name="Trazado 1043569" d="M49.806,156.254H44.74a7.711,7.711,0,0,1-7.711-7.711V143.3c1.625-.222,3.353-.517,5.066-.9v6.145A7.711,7.711,0,0,0,49.806,156.254Z" transform="translate(-33.723 -127.288)" fill="#eaac9d"/>
          <g id="Grupo_1180634" data-name="Grupo 1180634" transform="translate(5.922 20.749)">
            <ellipse id="Elipse_12517" data-name="Elipse 12517" cx="1.732" cy="1.053" rx="1.732" ry="1.053" transform="translate(12.463)" fill="#e490b7"/>
            <ellipse id="Elipse_12518" data-name="Elipse 12518" cx="1.732" cy="1.053" rx="1.732" ry="1.053" fill="#e490b7"/>
          </g>
        </g>
        <g id="Grupo_1180637" data-name="Grupo 1180637" transform="translate(27.921 27.526)">
          <path id="Trazado_1043570" data-name="Trazado 1043570" d="M260.009,408.24a3.309,3.309,0,0,1-3.225-4.037,1.632,1.632,0,0,1,3.225.359h21.158a1.633,1.633,0,0,1,3.225-.359,3.309,3.309,0,0,1-3.225,4.037" transform="translate(-256.703 -386.151)" fill="#b17a4a"/>
          <path id="Trazado_1043571" data-name="Trazado 1043571" d="M286.2,324.077V336.59a7.711,7.711,0,0,0,7.711,7.711h5.737a7.711,7.711,0,0,0,7.711-7.711V324.077" transform="translate(-282.898 -316.135)" fill="#c38959"/>
          <path id="Trazado_1043572" data-name="Trazado 1043572" d="M298.772,344.3h-4.856a7.711,7.711,0,0,1-7.711-7.711V324.076h4.856V336.59A7.711,7.711,0,0,0,298.772,344.3Z" transform="translate(-282.899 -316.134)" fill="#b17a4a"/>
          <g id="Grupo_1180636" data-name="Grupo 1180636" transform="translate(5.922 19.951)">
            <ellipse id="Elipse_12519" data-name="Elipse 12519" cx="1.732" cy="1.053" rx="1.732" ry="1.053" transform="translate(12.464)" fill="#e490b7"/>
            <ellipse id="Elipse_12520" data-name="Elipse 12520" cx="1.732" cy="1.053" rx="1.732" ry="1.053" fill="#e490b7"/>
          </g>
          <path id="Trazado_1043573" data-name="Trazado 1043573" d="M305.2,253.2H288.363a2.159,2.159,0,0,0-2.159,2.159v12.27a2.189,2.189,0,0,0,2.189-2.189v-2.676h16.78v2.676a2.189,2.189,0,0,0,2.189,2.189V255.361A2.159,2.159,0,0,0,305.2,253.2Z" transform="translate(-282.898 -253.202)" fill="#544f57"/>
          <path id="Trazado_1043574" data-name="Trazado 1043574" d="M293.33,253.2a2.158,2.158,0,0,0-2.159,2.159v7.405h-2.778v2.675a2.188,2.188,0,0,1-2.189,2.189V255.36a2.158,2.158,0,0,1,2.159-2.159h4.967Z" transform="translate(-282.898 -253.201)" fill="#454045"/>
        </g>
        <path id="Trazado_1043575" data-name="Trazado 1043575" d="M288.305,22.582a2.289,2.289,0,0,0,2.113,2.034l.272.019a1.281,1.281,0,0,1,1.2,1.278v2.548a1.036,1.036,0,0,0,1.663.824,18.989,18.989,0,0,0,3.915-3.819,1.277,1.277,0,0,1,1.059-.545q4.69.024,9.381-.3a2.286,2.286,0,0,0,1.942-1.379,2.253,2.253,0,0,0,.171-.65,58.159,58.159,0,0,0,0-12.692A2.286,2.286,0,0,0,307.9,7.867a124.644,124.644,0,0,0-13.973-.2q-1.756.073-3.512.2A2.286,2.286,0,0,0,288.306,9.9,58.129,58.129,0,0,0,288.305,22.582Z" transform="translate(-256.535 -7.56)" fill="#dd636e"/>
        <path id="Trazado_1043576" data-name="Trazado 1043576" d="M30.715,323.8a2.289,2.289,0,0,1-2.113,2.034l-.272.019a1.281,1.281,0,0,0-1.2,1.278v2.548a1.036,1.036,0,0,1-1.663.824,18.988,18.988,0,0,1-3.915-3.819,1.277,1.277,0,0,0-1.059-.546q-4.69.024-9.381-.3a2.286,2.286,0,0,1-1.942-1.379A2.252,2.252,0,0,1,9,323.8a58.155,58.155,0,0,1,0-12.692,2.285,2.285,0,0,1,2.112-2.029,124.638,124.638,0,0,1,13.973-.2q1.756.073,3.512.2a2.286,2.286,0,0,1,2.113,2.029A58.149,58.149,0,0,1,30.715,323.8Z" transform="translate(-8.531 -275.024)" fill="#f4dd45"/>
      </g>
      <g id="Grupo_1180639" data-name="Grupo 1180639" transform="translate(0.029 0)">
        <path id="Trazado_1043577" data-name="Trazado 1043577" d="M3.692,24.546a8.551,8.551,0,0,0,2.629,4.047.84.84,0,1,0,1.094-1.276,6.866,6.866,0,0,1-2.4-5.216V17.59c4.843-.715,10.857-2.136,14.421-4.945a11.426,11.426,0,0,0,.887,1.566,7.457,7.457,0,0,0,4.17,3.179V22.1a6.878,6.878,0,0,1-6.87,6.87H11.886a6.874,6.874,0,0,1-1.829-.246.84.84,0,0,0-.447,1.62,8.555,8.555,0,0,0,2.276.307h5.737a8.565,8.565,0,0,0,8.193-6.107,4.149,4.149,0,0,0,3.563-5.034,2.43,2.43,0,0,0-1.268-1.668c1.842-6.619,1.512-11.371-.988-14.128-2.62-2.89-6.679-2.55-7.77-2.4C18.1.8,12.448-1.293,6.815,1.192A9.675,9.675,0,0,0,.848,9.717a25.041,25.041,0,0,0,.839,8A2.414,2.414,0,0,0,.131,19.512a4.149,4.149,0,0,0,3.561,5.034ZM1.71,20.429a2.485,2.485,0,0,1,.061-.546.747.747,0,0,1,.86-.613.747.747,0,0,1,.7.781V22.1q0,.328.025.654a2.469,2.469,0,0,1-1.65-2.326Zm24.437,2.327c.016-.216.028-.434.028-.654V20.057h0a.792.792,0,0,1,1.565-.174,2.469,2.469,0,0,1-1.593,2.874ZM2.521,9.875A8,8,0,0,1,7.494,2.73c5.532-2.441,11.335.194,11.392.221a.841.841,0,0,0,.516.064c.041-.008,4.121-.765,6.476,1.832,2.088,2.3,2.273,6.722.544,12.8-.084.018-.167.041-.247.066v-1a.84.84,0,0,0-.717-.831A5.507,5.507,0,0,1,21.739,13.3a9.57,9.57,0,0,1-1.161-2.32.841.841,0,0,0-1.4-.352c-1.759,1.759-5.809,4.123-15.118,5.4a.84.84,0,0,0-.726.833v.52a23.676,23.676,0,0,1-.813-7.506Z" transform="translate(-0.029 0)"/>
        <path id="Trazado_1043578" data-name="Trazado 1043578" d="M76.067,160.246c0-.916-.45-1.661-1-1.661s-1,.745-1,1.661.45,1.661,1,1.661S76.067,161.163,76.067,160.246Z" transform="translate(-65.766 -140.814)"/>
        <path id="Trazado_1043579" data-name="Trazado 1043579" d="M172.938,160.246c0-.916-.45-1.661-1-1.661s-1,.745-1,1.661.45,1.661,1,1.661S172.938,161.163,172.938,160.246Z" transform="translate(-151.782 -140.814)"/>
        <path id="Trazado_1043580" data-name="Trazado 1043580" d="M107.484,199.135a.728.728,0,0,0-.388.954,2.905,2.905,0,0,0,5.355,0,.728.728,0,0,0-1.342-.566,1.449,1.449,0,0,1-2.67,0,.728.728,0,0,0-.954-.388Z" transform="translate(-95.048 -176.77)"/>
        <path id="Trazado_1043581" data-name="Trazado 1043581" d="M117.65,180.686a.84.84,0,1,0,0-1.681h-2.06a.84.84,0,0,0,0,1.681Z" transform="translate(-101.894 -158.946)"/>
        <path id="Trazado_1043582" data-name="Trazado 1043582" d="M278.655,265.324a4.162,4.162,0,0,0-.1-.916,2.412,2.412,0,0,0-2.686-1.913,2.672,2.672,0,0,0-.518.112V248.7a3,3,0,0,0-3-3H255.508a3,3,0,0,0-3,3v13.906a2.674,2.674,0,0,0-.518-.111,2.412,2.412,0,0,0-2.686,1.913,4.149,4.149,0,0,0,3.562,5.034,8.565,8.565,0,0,0,8.193,6.106H266.8a8.565,8.565,0,0,0,8.193-6.106A4.152,4.152,0,0,0,278.655,265.324ZM254.19,248.7a1.32,1.32,0,0,1,1.318-1.318h16.841a1.32,1.32,0,0,1,1.318,1.318v11.135a1.347,1.347,0,0,1-.508-1.054v-2.676a.84.84,0,0,0-.84-.84h-16.78a.84.84,0,0,0-.84.84v2.676a1.347,1.347,0,0,1-.508,1.054Zm-3.306,16.624a2.491,2.491,0,0,1,.06-.546.792.792,0,0,1,1.565.17V267c0,.221.011.438.028.655a2.47,2.47,0,0,1-1.653-2.327Zm15.913,8.543H261.06a6.878,6.878,0,0,1-6.87-6.87v-2.044h0s0,0,0-.005v-3.256a3.034,3.034,0,0,0,2.189-2.91v-1.835h15.1v1.835a3.034,3.034,0,0,0,2.189,2.91V267A6.878,6.878,0,0,1,266.8,273.867Zm8.524-6.215c.016-.216.028-.434.028-.655v-2.044h0a.792.792,0,0,1,1.565-.174,2.469,2.469,0,0,1-1.592,2.873Z" transform="translate(-221.281 -218.169)"/>
        <ellipse id="Elipse_12521" data-name="Elipse 12521" cx="1.002" cy="1.661" rx="1.002" ry="1.661" transform="translate(36.217 44.497)"/>
        <ellipse id="Elipse_12522" data-name="Elipse 12522" cx="1.002" cy="1.661" rx="1.002" ry="1.661" transform="translate(47.072 44.497)"/>
        <path id="Trazado_1043583" data-name="Trazado 1043583" d="M361.235,437.648a.728.728,0,0,0-.954.388,1.449,1.449,0,0,1-2.67,0,.728.728,0,0,0-1.342.566,2.906,2.906,0,0,0,5.355,0A.728.728,0,0,0,361.235,437.648Z" transform="translate(-316.298 -388.556)"/>
        <path id="Trazado_1043584" data-name="Trazado 1043584" d="M364.763,419.2h2.06a.84.84,0,1,0,0-1.681h-2.06a.84.84,0,1,0,0,1.681Z" transform="translate(-323.146 -370.732)"/>
        <path id="Trazado_1043585" data-name="Trazado 1043585" d="M283.71,18.8l.278.019a.441.441,0,0,1,.411.439v2.548a1.874,1.874,0,0,0,3.013,1.493,19.849,19.849,0,0,0,4.094-4.007.441.441,0,0,1,.363-.185h0c3.144.016,6.32-.088,9.444-.307a3.123,3.123,0,0,0,2.889-2.776,59.148,59.148,0,0,0,0-12.874A3.119,3.119,0,0,0,301.317.373,125.817,125.817,0,0,0,287.59.161a.84.84,0,0,0,.066,1.68A124.184,124.184,0,0,1,301.2,2.05a1.44,1.44,0,0,1,1.334,1.281,57.461,57.461,0,0,1,0,12.51,1.411,1.411,0,0,1-.107.409,1.439,1.439,0,0,1-1.229.872c-3.082.216-6.216.318-9.318.3h-.012a2.123,2.123,0,0,0-1.742.906,18.223,18.223,0,0,1-3.732,3.63.2.2,0,0,1-.314-.156V19.257a2.125,2.125,0,0,0-1.974-2.116l-.275-.019a1.447,1.447,0,0,1-1.337-1.287,57.643,57.643,0,0,1,0-12.5,1.442,1.442,0,0,1,1.338-1.281l.508-.034a.84.84,0,1,0-.11-1.677l-.516.035a3.121,3.121,0,0,0-2.891,2.775,59.336,59.336,0,0,0,0,12.87A3.127,3.127,0,0,0,283.71,18.8Z" transform="translate(-249.047 -0.058)"/>
        <path id="Trazado_1043586" data-name="Trazado 1043586" d="M332.622,68.314h11.722a.84.84,0,0,0,0-1.681H332.622a.84.84,0,1,0,0,1.681Z" transform="translate(-294.607 -59.166)"/>
        <path id="Trazado_1043587" data-name="Trazado 1043587" d="M332.622,95.881h7.567a.84.84,0,0,0,0-1.681h-7.567a.84.84,0,1,0,0,1.681Z" transform="translate(-294.607 -83.644)"/>
        <path id="Trazado_1043588" data-name="Trazado 1043588" d="M22.013,301.592c-1.172-.083-2.362-.149-3.536-.2a126.1,126.1,0,0,0-14.067.2,3.123,3.123,0,0,0-2.888,2.776,59.259,59.259,0,0,0,0,12.875,3.126,3.126,0,0,0,2.889,2.775c3.12.219,6.3.323,9.444.307a.431.431,0,0,1,.364.185,19.856,19.856,0,0,0,4.1,4.008,1.876,1.876,0,0,0,3.013-1.493v-2.548a.442.442,0,0,1,.409-.439l.257-.018h.02a3.126,3.126,0,0,0,2.89-2.781h0a59.264,59.264,0,0,0,0-12.87A3.123,3.123,0,0,0,22.013,301.592Zm1.219,15.462a1.446,1.446,0,0,1-1.337,1.287h-.02l-.25.017a2.128,2.128,0,0,0-1.979,2.117v2.548a.185.185,0,0,1-.109.175.182.182,0,0,1-.2-.019,18.228,18.228,0,0,1-3.734-3.63,2.117,2.117,0,0,0-1.741-.907h-.012c-3.1.016-6.239-.086-9.318-.3a1.44,1.44,0,0,1-1.229-.875,1.415,1.415,0,0,1-.107-.407,57.574,57.574,0,0,1,0-12.509,1.443,1.443,0,0,1,1.335-1.282,124.376,124.376,0,0,1,13.88-.2c1.159.048,2.332.114,3.488.2a1.444,1.444,0,0,1,1.337,1.282A57.583,57.583,0,0,1,23.232,317.054Z" transform="translate(-1.042 -267.524)"/>
        <path id="Trazado_1043589" data-name="Trazado 1043589" d="M57.733,367.851H46.011a.84.84,0,1,0,0,1.681H57.733a.84.84,0,0,0,0-1.681Z" transform="translate(-40.113 -326.631)"/>
        <path id="Trazado_1043590" data-name="Trazado 1043590" d="M53.579,395.417H46.011a.84.84,0,1,0,0,1.681h7.567a.84.84,0,0,0,0-1.681Z" transform="translate(-40.113 -351.108)"/>
      </g>
    </g>
  </g>
</svg>
