<svg xmlns="http://www.w3.org/2000/svg" xmlns:xlink="http://www.w3.org/1999/xlink" width="190" height="182" viewBox="0 0 190 182">
  <defs>
    <clipPath id="clip-path">
      <rect id="Rect치ngulo_415751" data-name="Rect치ngulo 415751" width="190" height="182" transform="translate(1230 1766)" fill="#fff" stroke="#707070" stroke-width="1" opacity="0.74"/>
    </clipPath>
    <clipPath id="clip-path-2">
      <rect id="Rect치ngulo_415750" data-name="Rect치ngulo 415750" width="162.38" height="177.751" transform="translate(0 0)" fill="none"/>
    </clipPath>
  </defs>
  <g id="Enmascarar_grupo_1098822" data-name="Enmascarar grupo 1098822" transform="translate(-1230 -1766)" clip-path="url(#clip-path)">
    <g id="Grupo_1180086" data-name="Grupo 1180086" transform="translate(3 4)">
      <ellipse id="Elipse_12475" data-name="Elipse 12475" cx="94.424" cy="77.711" rx="94.424" ry="77.711" transform="matrix(0.914, 0.407, -0.407, 0.914, 1266.531, 1748.819)" fill="#f3de50" opacity="0.6"/>
      <g id="Grupo_1180085" data-name="Grupo 1180085" transform="matrix(0.966, 0.259, -0.259, 0.966, 1269.061, 1745.196)">
        <g id="Grupo_1180084" data-name="Grupo 1180084" transform="translate(0 -0.004)" clip-path="url(#clip-path-2)">
          <path id="Trazado_1042642" data-name="Trazado 1042642" d="M324.167,426.654c15.7-10.7,29.724-28.137,29.724-51.1a55.763,55.763,0,0,0-111.525,0c0,22.96,5.367,32.355,29.191,50.469,2.041,1.552,3.224,7.448,3.863,12.2a5.831,5.831,0,0,0-2.378,1.293c-4.383,5.092,4.149,20.083,8.387,22.083,6.652,3.14,28.775,3.244,33.981,0,3.834-2.389,13.74-20.724,6.366-23.446-.36-.133-.736-.259-1.122-.381.492-4.483,1.492-9.743,3.513-11.121" transform="translate(-216.939 -286.244)" fill="#ffcc47"/>
          <path id="Trazado_1042643" data-name="Trazado 1042643" d="M20.394,716.215,3.388,718.832l-2.434.375a1.318,1.318,0,0,0-.914,1.61,1.341,1.341,0,0,0,1.61.914l17.006-2.617,2.433-.375a1.318,1.318,0,0,0,.914-1.61,1.341,1.341,0,0,0-1.61-.914" transform="translate(0 -641.054)" fill="#d7741f"/>
          <path id="Trazado_1042644" data-name="Trazado 1042644" d="M90.835,556.241,78.47,554.4a1.351,1.351,0,0,0-1.61.914,1.318,1.318,0,0,0,.914,1.61l12.366,1.837a1.351,1.351,0,0,0,1.61-.914,1.318,1.318,0,0,0-.914-1.61" transform="translate(-68.76 -496.22)" fill="#d7741f"/>
          <path id="Trazado_1042645" data-name="Trazado 1042645" d="M121.742,322.493l-15.956-14.2c-1.255-1.116-3.112.728-1.851,1.85l15.956,14.2c1.255,1.116,3.112-.728,1.851-1.851" transform="translate(-92.655 -275.643)" fill="#d7741f"/>
          <path id="Trazado_1042646" data-name="Trazado 1042646" d="M283.545,253.487l-7.475-9.16L275,243.011a1.318,1.318,0,0,0-1.851,0,1.339,1.339,0,0,0,0,1.851l7.475,9.16,1.074,1.316a1.318,1.318,0,0,0,1.851,0,1.338,1.338,0,0,0,0-1.851" transform="translate(-244.156 -217.176)" fill="#d7741f"/>
          <path id="Trazado_1042647" data-name="Trazado 1042647" d="M410,96.359,400.59,80.384l-1.307-2.219a1.309,1.309,0,0,0-2.26,1.321l9.409,15.975,1.307,2.219A1.309,1.309,0,0,0,410,96.359" transform="translate(-355.2 -69.401)" fill="#d7741f"/>
          <path id="Trazado_1042648" data-name="Trazado 1042648" d="M600.925,123.658l-2.9-9.679-.422-1.407a1.31,1.31,0,0,0-2.524.7l2.9,9.679.422,1.407a1.31,1.31,0,0,0,2.524-.7" transform="translate(-532.59 -99.941)" fill="#d7741f"/>
          <path id="Trazado_1042649" data-name="Trazado 1042649" d="M754.942,22.223c-.571-6.356-.833-12.746-1.114-19.12q-.041-.922-.079-1.844c-.069-1.678-2.686-1.687-2.617,0,.213,5.211.467,10.421.8,15.626.113,1.781.235,3.562.4,5.339a1.344,1.344,0,0,0,1.309,1.309,1.318,1.318,0,0,0,1.308-1.309" transform="translate(-672.327 0.004)" fill="#d7741f"/>
          <path id="Trazado_1042650" data-name="Trazado 1042650" d="M1338.595,736.257l17.006,2.617,2.434.375a1.351,1.351,0,0,0,1.61-.914,1.318,1.318,0,0,0-.914-1.61l-17.006-2.617-2.434-.375a1.35,1.35,0,0,0-1.609.914,1.318,1.318,0,0,0,.914,1.61" transform="translate(-1197.305 -656.735)" fill="#d7741f"/>
          <path id="Trazado_1042651" data-name="Trazado 1042651" d="M1329.9,576.271l12.366-1.837a1.318,1.318,0,0,0,.914-1.61,1.342,1.342,0,0,0-1.61-.914l-12.366,1.837a1.318,1.318,0,0,0-.914,1.61,1.342,1.342,0,0,0,1.61.914" transform="translate(-1188.898 -511.89)" fill="#d7741f"/>
          <path id="Trazado_1042652" data-name="Trazado 1042652" d="M1248.24,324.342l15.956-14.2c1.261-1.122-.6-2.967-1.85-1.85l-15.956,14.2c-1.261,1.122.6,2.967,1.85,1.851" transform="translate(-1115.25 -275.642)" fill="#d7741f"/>
          <path id="Trazado_1042653" data-name="Trazado 1042653" d="M1150.469,228.452l8.416-9.284,1.209-1.334a1.337,1.337,0,0,0,0-1.85,1.322,1.322,0,0,0-1.851,0l-8.415,9.284-1.21,1.334a1.338,1.338,0,0,0,0,1.851,1.322,1.322,0,0,0,1.851,0" transform="translate(-1027.78 -192.986)" fill="#d7741f"/>
          <path id="Trazado_1042654" data-name="Trazado 1042654" d="M1016.91,97.676l9.409-15.975,1.307-2.219a1.31,1.31,0,0,0-2.26-1.321l-9.409,15.975-1.307,2.219a1.309,1.309,0,0,0,2.26,1.321" transform="translate(-908.03 -69.397)" fill="#d7741f"/>
          <path id="Trazado_1042655" data-name="Trazado 1042655" d="M889.25,124.352l2.9-9.679.422-1.407a1.31,1.31,0,0,0-2.524-.7l-2.9,9.679-.422,1.407a1.31,1.31,0,0,0,2.524.7" transform="translate(-793.642 -99.939)" fill="#d7741f"/>
          <path id="Trazado_1042656" data-name="Trazado 1042656" d="M941.513,775.058A19.706,19.706,0,0,0,947.1,772.4a11.283,11.283,0,0,0,4.717-11.435,7.647,7.647,0,0,0-3.1-4.986,5.646,5.646,0,0,0-5.938.275,12.2,12.2,0,0,0-2.047,1.506,56.189,56.189,0,0,1,1.088,15.184,15.794,15.794,0,0,1-.3,2.119" transform="translate(-842.03 -676.013)" fill="#ffb438"/>
          <path id="Trazado_1042657" data-name="Trazado 1042657" d="M819.888,1137.83c-.12-3.033-.258-6.067-.384-9.1-2.066,3.018-3.518,5.386-3.24,6.621a6.3,6.3,0,0,0,3.7,4.3q-.036-.911-.072-1.822" transform="translate(-730.597 -1010.31)" fill="#ffb438"/>
          <path id="Trazado_1042658" data-name="Trazado 1042658" d="M893.513,476.31c-4.036-10.9-12-20.137-21.69-26.555-3.458-2.291-7.951-4.269-11.6-2.292-3.047,1.652-4.226,5.578-3.788,9.017s2.144,6.561,3.614,9.7a70.337,70.337,0,0,1,4.5,12.515,10.642,10.642,0,0,1,5.6-2.286,7.7,7.7,0,0,1,6.564,3.094c3.242,4.147,3.03,10.252.365,14.634-2.469,4.06-7.2,6.528-11.731,7.535-.059.013-.118.02-.177.033-1.589,4.453-4.562,9-7.27,12.924.08,1.925.171,3.849.247,5.772q.19,4.816.38,9.631a20.832,20.832,0,0,0,7.071.28c11.51-1.6,21.712-9.637,26.781-20.094s5.175-23.01,1.139-33.908" transform="translate(-766.507 -399.792)" fill="#ffb438"/>
          <path id="Trazado_1042659" data-name="Trazado 1042659" d="M551.106,702.844a7.7,7.7,0,0,0-6.564-3.094,11.64,11.64,0,0,0-7.159,3.655c-3.573,3.571-5.677,8.492-6.742,13.364-.287,1.313-.507,2.637-.677,3.967a17.023,17.023,0,0,1-5.571-5.281,24.494,24.494,0,0,0,2.688-3.979,23.963,23.963,0,0,0,2.609-7.562c.424-2.687.071-6.015-2.711-7.332-2.55-1.207-5.006.418-6.263,2.652a15.162,15.162,0,0,0-1.605,7.569,19.065,19.065,0,0,0,2.084,8.3,23.1,23.1,0,0,1-2.169,1.99,26.4,26.4,0,0,1-3.082,2.141,34.509,34.509,0,0,0-3.012-9.775c-2.2-4.461-6.193-9.484-11.587-9.724-5.578-.247-8.762,5.518-8.764,10.442a14.269,14.269,0,0,0,8.076,12.735,15.008,15.008,0,0,0,6.818,1.583,18.126,18.126,0,0,0,6.318-1.33,101.282,101.282,0,0,1,.087,12.119c-.433,11.861-.934,23.719-1.4,35.579l-.078,1.981q1.287-.115,2.625-.206.629-15.947,1.258-31.895c.241-6.1.675-12.522.029-18.732a26.788,26.788,0,0,0,6.279-4.594,18.794,18.794,0,0,0,2.918,3.268,20.007,20.007,0,0,0,4.176,2.847c-.227,2.945-.249,5.91-.184,8.855.135,6.09.452,12.179.692,18.266l.771,19.559q.046,1.157.091,2.314,1.331.079,2.625.194-.571-14.489-1.143-28.977c-.207-5.241-.526-10.5-.44-15.743.019-1.137.059-2.276.129-3.413a14.255,14.255,0,0,0,7.511.427c4.534-1.007,9.263-3.475,11.731-7.535,2.665-4.383,2.878-10.488-.365-14.634M505.742,721.8a12.239,12.239,0,0,1-9.727-7.353c-1.435-3.7-1.163-9.208,2.647-11.446,4.185-2.458,8.583,2.146,10.643,5.353a29.763,29.763,0,0,1,4.193,12.138,14.881,14.881,0,0,1-7.756,1.308m16.848-20.448c.529-1.338,1.976-3.429,3.565-2.227,1.867,1.412,1.02,4.532.511,6.4a22.1,22.1,0,0,1-3.629,7.409,15.648,15.648,0,0,1-.448-11.582m23.381,18.165c-3.243,2.2-7.523,3.815-11.469,2.993a14.39,14.39,0,0,1-2.042-.594,38.416,38.416,0,0,1,1.6-7.756c1.336-4.1,3.747-8.56,7.59-10.79a5.645,5.645,0,0,1,5.938-.275,7.648,7.648,0,0,1,3.1,4.986,11.283,11.283,0,0,1-4.717,11.435" transform="translate(-440.904 -623.133)" fill="#d7741f"/>
          <path id="Trazado_1042660" data-name="Trazado 1042660" d="M524.367,1426.152c-4.383,5.092,4.149,20.083,8.387,22.083,6.652,3.14,28.775,3.245,33.981,0,3.833-2.389,13.74-20.724,6.365-23.445-13.376-4.935-45.552-2.333-48.733,1.363" transform="translate(-468.264 -1272.878)" fill="#3a4d8e"/>
          <path id="Trazado_1042661" data-name="Trazado 1042661" d="M455.193,455.844l.654-.022-.261-1.928A33.88,33.88,0,0,0,444,461.816c-.87.915.515,2.306,1.388,1.388a31.581,31.581,0,0,1,10.722-7.418,1,1,0,0,0,.7-1.077.977.977,0,0,0-.964-.851l-.654.022c-1.26.043-1.265,2.006,0,1.963" transform="translate(-397.169 -406.242)" fill="#fff"/>
          <path id="Trazado_1042662" data-name="Trazado 1042662" d="M321.834,595.637a28.644,28.644,0,0,0-7.2,12.95,50.759,50.759,0,0,0-1.826,13.867,38.292,38.292,0,0,0,.425,5.874.988.988,0,0,0,1.207.685,1.006,1.006,0,0,0,.685-1.207c-.095-.6-.167-1.253-.226-2.012-.069-.882-.107-1.766-.122-2.651A52.546,52.546,0,0,1,315.04,617a39.9,39.9,0,0,1,3.593-13.507,23,23,0,0,1,4.589-6.465c.909-.88-.48-2.267-1.388-1.388" transform="translate(-279.988 -532.895)" fill="#fff"/>
          <path id="Trazado_1042663" data-name="Trazado 1042663" d="M426.7,566.523a29.344,29.344,0,0,0-7.067,9.557,1.01,1.01,0,0,0,.352,1.343.989.989,0,0,0,1.343-.352,27.954,27.954,0,0,1,6.76-9.16c.943-.844-.449-2.228-1.388-1.388" transform="translate(-375.502 -506.853)" fill="#fff"/>
          <path id="Trazado_1042664" data-name="Trazado 1042664" d="M533.719,534.58a.982.982,0,0,0,0-1.963.982.982,0,0,0,0,1.963" transform="translate(-476.876 -476.738)" fill="#fff"/>
          <path id="Trazado_1042665" data-name="Trazado 1042665" d="M577.286,505.832a.982.982,0,0,0,0-1.963.982.982,0,0,0,0,1.963" transform="translate(-515.873 -451.006)" fill="#fff"/>
          <path id="Trazado_1042666" data-name="Trazado 1042666" d="M369.422,837.68a31.968,31.968,0,0,0,1.171,15.987c.406,1.189,2.3.678,1.893-.522a29.912,29.912,0,0,1-1.171-14.944c.222-1.235-1.669-1.765-1.893-.522" transform="translate(-330.203 -749.161)" fill="#fff"/>
          <path id="Trazado_1042667" data-name="Trazado 1042667" d="M638.176,1489.234a75.814,75.814,0,0,1-26.17.738q-3.674-.542-7.281-1.442a.786.786,0,0,0-.418,1.514,77.567,77.567,0,0,0,26.743,1.87q3.8-.4,7.544-1.167c.989-.2.571-1.716-.417-1.514" transform="translate(-540.406 -1332.34)" fill="#fff"/>
          <path id="Trazado_1042668" data-name="Trazado 1042668" d="M835.4,1558.947l-11.1-.007a.786.786,0,0,0,0,1.57l11.1.007a.786.786,0,0,0,0-1.57" transform="translate(-737.144 -1395.387)" fill="#fff"/>
          <path id="Trazado_1042669" data-name="Trazado 1042669" d="M697.513,1560.423l-5.037-.187a.791.791,0,0,0-.785.785.8.8,0,0,0,.785.785l5.037.187a.791.791,0,0,0,.785-.785.8.8,0,0,0-.785-.785" transform="translate(-619.123 -1396.547)" fill="#fff"/>
          <path id="Trazado_1042670" data-name="Trazado 1042670" d="M630.473,1561.725a.786.786,0,0,0,0-1.57.786.786,0,0,0,0,1.57" transform="translate(-563.649 -1396.474)" fill="#fff"/>
          <path id="Trazado_1042671" data-name="Trazado 1042671" d="M592.24,1560.836a.786.786,0,0,0,0-1.57.786.786,0,0,0,0,1.57" transform="translate(-529.428 -1395.678)" fill="#fff"/>
          <path id="Trazado_1042672" data-name="Trazado 1042672" d="M720.215,1608.979l-15.949-.458a.786.786,0,0,0,0,1.57l15.949.458a.786.786,0,0,0,0-1.57" transform="translate(-629.701 -1439.766)" fill="#fff"/>
        </g>
      </g>
    </g>
  </g>
</svg>
