<svg xmlns="http://www.w3.org/2000/svg" xmlns:xlink="http://www.w3.org/1999/xlink" width="400" height="300" viewBox="0 0 400 300">
  <defs>
    <clipPath id="clip-path">
      <rect id="Rectángulo_415814" data-name="Rectángulo 415814" width="400" height="300" transform="translate(180 12289)" fill="#fff" stroke="#707070" stroke-width="1"/>
    </clipPath>
    <clipPath id="clip-path-2">
      <text id="A" transform="translate(0 201)" font-size="186" font-family="SegoeUI, Segoe UI"><tspan x="0" y="0">A</tspan></text>
    </clipPath>
    <clipPath id="clip-path-3">
      <text id="C" transform="translate(0 202)" font-size="187" font-family="SegoeUI, Segoe UI"><tspan x="0" y="0">C</tspan></text>
    </clipPath>
    <clipPath id="clip-path-4">
      <text id="B" transform="translate(0 202)" font-size="187" font-family="SegoeUI, Segoe UI"><tspan x="0" y="0">B</tspan></text>
    </clipPath>
  </defs>
  <g id="Enmascarar_grupo_1098829" data-name="Enmascarar grupo 1098829" transform="translate(-180 -12289)" clip-path="url(#clip-path)">
    <g id="Grupo_1180685" data-name="Grupo 1180685" transform="translate(2990.401 -331.631)">
      <path id="Trazado_1043591" data-name="Trazado 1043591" d="M67.849,244.438H453.6s0-54.274-20.184-44.855,5.382-59.208-29.155-43.509-39.023-65.936-76.7-45.752S288.983,50.666,214.076,92.381s-64.59,3.589-87.915,9.42-34.538,76.253-47.1,64.142S35.553,211.694,67.849,244.438Z" transform="translate(-2864 12578.844)" fill="#f3de50"/>
      <g id="OBJECTS" transform="translate(-2780.184 12629.392)">
        <g id="Grupo_1180683" data-name="Grupo 1180683" transform="translate(0 0)">
          <g id="Grupo_1180684" data-name="Grupo 1180684">
            <path id="Trazado_1043592" data-name="Trazado 1043592" d="M272.844,442.378c29.095,0,66.9-2.909,75.627-9.373s-64.782,3.713-73.113,4.6S262.5,442.378,272.844,442.378Z" transform="translate(-162.1 -179.299)" fill="#f3de50"/>
            <path id="Trazado_1043593" data-name="Trazado 1043593" d="M549.182,430.373c27.013,1.37,62.115.242,70.217-5.81s-60.147.661-67.883,1.159S539.58,429.886,549.182,430.373Z" transform="translate(-263.696 -176.061)" fill="#f3de50"/>
            <path id="Trazado_1043594" data-name="Trazado 1043594" d="M135.166,358.623c-52.68,0-27.795,10.989-2.909,12.281-5.494,9.373-45.247,18.1-9.7,21.331-25.209,3.232-33.2,13.015,5.539,16.85s67.587-3.711,24.722-6.4c-26.382-4.307-24.121-12.654-13.94-11.389s57.69,4.5,31.189-16.187c22.3,8.4,22.849,2.942,28.392.178,14.593,4.346,15.562-7.289,15.562-7.289l10.342.323s4.2,14.867,23.593,15.19c0,5.494,57.2,10.989,42.661-7.11a124.358,124.358,0,0,1,40.626-4.443s64.732,12.7,76.853,8.25c11.475,9.443,38.622,6.858,39.916.394s-26.179-13.574-26.179-13.574,23.916,3.555,24.239-6.141S135.166,358.623,135.166,358.623Z" transform="translate(-101.342 -151.779)" fill="#f3de50"/>
            <g id="Grupo_1180643" data-name="Grupo 1180643" transform="translate(180.121 219.167)">
              <path id="Trazado_1043595" data-name="Trazado 1043595" d="M394.2,409.182l55.752,19.068,68.571-27.415-60.612-10.77Z" transform="translate(-388.964 -383.487)" fill="#c6d6fe"/>
              <path id="Trazado_1043596" data-name="Trazado 1043596" d="M387.431,399.289,447.07,424.2l66.049-33-58.5-5.347Z" transform="translate(-386.481 -381.942)" fill="#dae4fe"/>
              <path id="Trazado_1043597" data-name="Trazado 1043597" d="M385.93,400.8l59.161,17.217L515.8,392.194l-63.159-12.522Z" transform="translate(-385.93 -379.672)" fill="#fff"/>
              <path id="Trazado_1043598" data-name="Trazado 1043598" d="M473.527,404.113c41.692-.323,38.46,12.281-.646,8.4-31.846-3.158-41.045-8.08.646-8.4" transform="translate(-407.81 -388.642)" fill="#dee7fe"/>
            </g>
            <g id="Grupo_1180645" data-name="Grupo 1180645" transform="translate(234.728 204.413)">
              <g id="Grupo_1180644" data-name="Grupo 1180644" transform="translate(0 0)">
                <path id="Trazado_1043599" data-name="Trazado 1043599" d="M532.891,364.449l-1.715,12.073-57.062-8.087a8.45,8.45,0,0,1-1.887-5.822,8.651,8.651,0,0,1,3.6-6.251C512.565,361.289,496.156,359.521,532.891,364.449Z" transform="translate(-472.208 -356.362)" fill="#cf6393"/>
                <line id="Línea_734" data-name="Línea 734" x2="56.837" y2="8.032" transform="translate(1.055 10.592)" fill="none" stroke="#c24a7f" stroke-linecap="round" stroke-linejoin="round" stroke-miterlimit="10" stroke-width="0.992"/>
                <line id="Línea_735" data-name="Línea 735" x2="57.048" y2="7.521" transform="translate(2.17 1.763)" fill="none" stroke="#c24a7f" stroke-linecap="round" stroke-linejoin="round" stroke-miterlimit="10" stroke-width="0.992"/>
                <line id="Línea_736" data-name="Línea 736" x2="58.121" y2="8.105" transform="translate(0.169 7.718)" fill="none" stroke="#c24a7f" stroke-linecap="round" stroke-linejoin="round" stroke-miterlimit="10" stroke-width="0.992"/>
                <line id="Línea_737" data-name="Línea 737" x2="58.29" y2="7.467" transform="translate(0.619 3.996)" fill="none" stroke="#c24a7f" stroke-linecap="round" stroke-linejoin="round" stroke-miterlimit="10" stroke-width="0.992"/>
                <path id="Trazado_1043600" data-name="Trazado 1043600" d="M566.377,369.157l-.1-.015a1.7,1.7,0,0,0-2,1.258,1.717,1.717,0,0,0,1.589,1.768l.077.01h0l-.1-.015a1.7,1.7,0,0,0-2,1.258,1.717,1.717,0,0,0,1.589,1.768l.077.01h0l-.1-.015a1.7,1.7,0,0,0-2,1.258,1.716,1.716,0,0,0,1.589,1.768l.077.01h0l-.1-.015a1.7,1.7,0,0,0-2,1.259,1.636,1.636,0,0,0,1.506,1.756c.6.085,14.173-4.167,14.173-4.167s-11.794-7.829-12.372-7.915l.077.011Z" transform="translate(-505.528 -361.046)" fill="#edb2a4"/>
                <path id="Trazado_1043601" data-name="Trazado 1043601" d="M579.618,381.424c2.731-.836,5.009-1.549,5.009-1.549s-2.173-1.435-4.705-3.084A5.381,5.381,0,0,0,579.618,381.424Z" transform="translate(-511.493 -363.861)" fill="#cf6393"/>
              </g>
            </g>
            <g id="Grupo_1180646" data-name="Grupo 1180646" transform="translate(68.975 228.998)">
              <path id="Trazado_1043602" data-name="Trazado 1043602" d="M283.589,412.974,253.8,424.04l-43.478-15.91,33.726-6.25Z" transform="translate(-210.322 -397.656)" fill="#c6d6fe"/>
              <path id="Trazado_1043603" data-name="Trazado 1043603" d="M286.639,408.569l-31.26,14.456-42.764-19.149,33.228-3.1Z" transform="translate(-211.164 -397.249)" fill="#dae4fe"/>
              <path id="Trazado_1043604" data-name="Trazado 1043604" d="M286.872,405.273,254.88,395.206l-44.542,14.88,34.951,7.349Z" transform="translate(-210.328 -395.206)" fill="#fff"/>
            </g>
            <g id="Grupo_1180656" data-name="Grupo 1180656" transform="translate(9.714)">
              <g id="Grupo_1180649" data-name="Grupo 1180649" transform="translate(0 6.531)">
                <path id="Trazado_1043605" data-name="Trazado 1043605" d="M239.8,358.6c1.558,3.985,19.147,7.787,34.676,6.413C255.189,353.373,239.8,358.6,239.8,358.6Z" transform="translate(-161.881 -158.87)" fill="#495aab"/>
                <path id="Trazado_1043606" data-name="Trazado 1043606" d="M116.69,359.129a70.91,70.91,0,0,0,28.4,4.672l-11.772-9.161Z" transform="translate(-116.69 -157.847)" fill="#495aab"/>
                <path id="Trazado_1043607" data-name="Trazado 1043607" d="M247.4,158.4s12.643,1.294,13.17,2.772c-6.081,2.886-10.421,1.637-10.421,1.637Z" transform="translate(-164.671 -85.81)" fill="#495aab"/>
                <text id="A-2" data-name="A" transform="translate(1.288 201)" fill="#495aab" font-size="186" font-family="SegoeUI, Segoe UI"><tspan x="0" y="0">A</tspan></text>
                <text id="A-3" data-name="A" transform="translate(12.053 203.153)" fill="#6073c9" font-size="186" font-family="SegoeUI, Segoe UI"><tspan x="0" y="0">A</tspan></text>
                <g id="Grupo_1180648" data-name="Grupo 1180648" transform="translate(12.053 2.153)">
                  <g id="Grupo_1180647" data-name="Grupo 1180647" clip-path="url(#clip-path-2)">
                    <circle id="Elipse_12524" data-name="Elipse 12524" cx="5.13" cy="5.13" r="5.13" transform="translate(44.82 103.422) rotate(-80.782)" fill="#808fd4"/>
                    <circle id="Elipse_12525" data-name="Elipse 12525" cx="5.13" cy="5.13" r="5.13" transform="translate(57.279 83.999) rotate(-80.782)" fill="#808fd4"/>
                    <circle id="Elipse_12526" data-name="Elipse 12526" cx="5.13" cy="5.13" r="5.13" transform="translate(69.758 91.483)" fill="#808fd4"/>
                    <circle id="Elipse_12527" data-name="Elipse 12527" cx="5.13" cy="5.13" r="5.13" transform="translate(80.751 76.825)" fill="#808fd4"/>
                    <circle id="Elipse_12528" data-name="Elipse 12528" cx="5.13" cy="5.13" r="5.13" transform="translate(26.15 108.34)" fill="#808fd4"/>
                    <circle id="Elipse_12529" data-name="Elipse 12529" cx="5.13" cy="5.13" r="5.13" transform="translate(30.914 129.961)" fill="#808fd4"/>
                    <circle id="Elipse_12530" data-name="Elipse 12530" cx="5.13" cy="5.13" r="5.13" transform="translate(8.174 148.13) rotate(-80.782)" fill="#808fd4"/>
                    <circle id="Elipse_12531" data-name="Elipse 12531" cx="5.13" cy="5.13" r="5.13" transform="translate(39.709 153.781)" fill="#808fd4"/>
                    <circle id="Elipse_12532" data-name="Elipse 12532" cx="5.13" cy="5.13" r="5.13" transform="translate(13.69 164.408)" fill="#808fd4"/>
                    <circle id="Elipse_12533" data-name="Elipse 12533" cx="5.13" cy="5.13" r="5.13" transform="translate(27.982 183.463)" fill="#808fd4"/>
                    <circle id="Elipse_12534" data-name="Elipse 12534" cx="5.13" cy="5.13" r="5.13" transform="translate(4.895 189.693)" fill="#808fd4"/>
                    <circle id="Elipse_12535" data-name="Elipse 12535" cx="5.13" cy="5.13" r="5.13" transform="translate(63.894 160.743)" fill="#808fd4"/>
                    <circle id="Elipse_12536" data-name="Elipse 12536" cx="5.13" cy="5.13" r="5.13" transform="translate(81.118 177.966)" fill="#808fd4"/>
                    <circle id="Elipse_12537" data-name="Elipse 12537" cx="5.13" cy="5.13" r="5.13" transform="translate(103.176 175.402) rotate(-45)" fill="#808fd4"/>
                    <circle id="Elipse_12538" data-name="Elipse 12538" cx="5.13" cy="5.13" r="5.13" transform="translate(88.081 154.88)" fill="#808fd4"/>
                    <circle id="Elipse_12539" data-name="Elipse 12539" cx="5.13" cy="5.13" r="5.13" transform="translate(73.113 146.617) rotate(-76.714)" fill="#808fd4"/>
                    <circle id="Elipse_12540" data-name="Elipse 12540" cx="5.13" cy="5.13" r="5.13" transform="translate(96.782 190.576) rotate(-22.382)" fill="#808fd4"/>
                    <circle id="Elipse_12541" data-name="Elipse 12541" cx="5.13" cy="5.13" r="5.13" transform="translate(88.081 123.731)" fill="#808fd4"/>
                    <circle id="Elipse_12542" data-name="Elipse 12542" cx="5.13" cy="5.13" r="5.13" transform="translate(65.727 115.669)" fill="#808fd4"/>
                    <circle id="Elipse_12543" data-name="Elipse 12543" cx="5.13" cy="5.13" r="5.13" transform="translate(88.081 101.378)" fill="#808fd4"/>
                    <circle id="Elipse_12544" data-name="Elipse 12544" cx="5.13" cy="5.13" r="5.13" transform="translate(34.945 78.657)" fill="#808fd4"/>
                  </g>
                </g>
              </g>
              <g id="Grupo_1180652" data-name="Grupo 1180652" transform="translate(213.424)">
                <path id="Trazado_1043608" data-name="Trazado 1043608" d="M593.567,295.231c2.565-2.794,13.146-6.275,16.491-3.527S590.04,305.355,593.567,295.231Z" transform="translate(-505.034 -127.846)" fill="#ab3a15"/>
                <path id="Trazado_1043609" data-name="Trazado 1043609" d="M588.565,207.427c3.3,1.008,13.467-2.015,16.582-4.123s-6.322-6.917-10.765-5.909S582.289,202.755,588.565,207.427Z" transform="translate(-502.459 -93.544)" fill="#ab3a15"/>
                <text id="C-2" data-name="C" transform="translate(14.353 202)" fill="#ab3a15" font-size="187" font-family="SegoeUI, Segoe UI"><tspan x="0" y="0">C</tspan></text>
                <text id="C-3" data-name="C" transform="translate(0 205.589)" fill="#dd5325" font-size="187" font-family="SegoeUI, Segoe UI"><tspan x="0" y="0">C</tspan></text>
                <g id="Grupo_1180651" data-name="Grupo 1180651" transform="translate(0 3.589)">
                  <g id="Grupo_1180650" data-name="Grupo 1180650" clip-path="url(#clip-path-3)">
                    <path id="Trazado_1043610" data-name="Trazado 1043610" d="M505.7,145.01c9.894-2.2,18.323,1.466,14.292,12.46s14.658,21.988,14.292,6.963,6.6-27.85,15.758-27.118,12.093,5.5,3.665,15.758-19.789,24.919-3.665,34.813,26.752,10.261,19.789.366-19.789-26.019,6.6-27.85" transform="translate(-472.913 -75.118)" fill="none" stroke="#e0643b" stroke-miterlimit="10" stroke-width="0.992"/>
                    <path id="Trazado_1043611" data-name="Trazado 1043611" d="M495.277,165.7c10.994.366,17.224,11.727,14.658,20.522s21.988,5.13,28.217,21.255" transform="translate(-469.087 -85.55)" fill="none" stroke="#e0643b" stroke-miterlimit="10" stroke-width="0.992"/>
                    <path id="Trazado_1043612" data-name="Trazado 1043612" d="M525.259,222.5c-14.658,4.031-21.987-1.466-27.851-11.36s-32.981-9.894-32.248-27.484" transform="translate(-458.026 -92.139)" fill="none" stroke="#e0643b" stroke-miterlimit="10" stroke-width="0.992"/>
                    <path id="Trazado_1043613" data-name="Trazado 1043613" d="M458.761,220.707c.733,12.46,24.186-.366,29.317,11.727s23.82,19.056,34.08,13.193l5.863,9.528s-38.111,4.764-46.173-8.062-24.919-2.565-26.019,8.429a24.729,24.729,0,0,0,5.13,17.957,100.253,100.253,0,0,0,12.826-10.261c5.13-5.13,21.988-3.665,18.689,10.261s-27.118,10.994-10.994,30.415,19.789,3.3,16.857-10.627,7.7-25.652,17.957-27.851,5.5.366-1.466,9.528,10.261,28.95.366,42.142c23.82,4.4,32.249,9.528,21.255-7.329s12.826-31.149,26.385-10.627" transform="translate(-454.559 -105.741)" fill="none" stroke="#e0643b" stroke-miterlimit="10" stroke-width="0.992"/>
                    <path id="Trazado_1043614" data-name="Trazado 1043614" d="M597.26,284.4c-9.161,21.988-34.813,30.05-28.95,4.764" transform="translate(-495.58 -129.121)" fill="none" stroke="#e0643b" stroke-miterlimit="10" stroke-width="0.992"/>
                  </g>
                </g>
              </g>
              <g id="Grupo_1180655" data-name="Grupo 1180655" transform="translate(110.53 18.314)">
                <path id="Trazado_1043615" data-name="Trazado 1043615" d="M407.586,159.158c9.711.412,27.118,6.23,32.431,11.818-34.4.6-35.134-5.451-35.134-5.451Z" transform="translate(-333.011 -97.873)" fill="#5f823c"/>
                <path id="Trazado_1043616" data-name="Trazado 1043616" d="M304.733,374.471c4.489,5.085,18.46,8.343,22.17,7.381s3.115-11.818-5.909-13.1S303.634,371.311,304.733,374.471Z" transform="translate(-296.212 -174.718)" fill="#5f823c"/>
                <text id="B-2" data-name="B" transform="translate(0 202)" fill="#5f823c" font-size="187" font-family="SegoeUI, Segoe UI"><tspan x="0" y="0">B</tspan></text>
                <text id="B-3" data-name="B" transform="translate(16.506 207.742)" fill="#8da664" font-size="187" font-family="SegoeUI, Segoe UI"><tspan x="0" y="0">B</tspan></text>
                <g id="Grupo_1180654" data-name="Grupo 1180654" transform="translate(16.506 5.742)">
                  <g id="Grupo_1180653" data-name="Grupo 1180653" clip-path="url(#clip-path-4)">
                    <path id="Trazado_1043617" data-name="Trazado 1043617" d="M340.261,299.171l-16.07-7.011,94.649-94.572-5.269-6.146-98.244,104.5L309.485,278l105.764-119.67-6.124-8.88L309.11,267.175l-1.727-18.566.249-.318,85.145-108.8-7.6-6.381L308.433,237.558l-9.29-17.653L375.4,119.2l-9.5-4.6-65.528,92.538-3-7.586,67.933-87.5,13.219,6.4L301.6,220.031l6.2,10.232,77.063-100.073,15.916,9.89-91.3,109.146,1.2,12.949,98.6-116.069,9.444,18.527L311.779,278.472l3.617,9.29L413.641,188.4l9.86,11.782-91.939,94.39,8.075,2.307,78.958-83,10.848,7.376-68.588,74.891-4.048-5.451,66.983-68.347-7.475-5.084Z" transform="translate(-310.05 -86.324)" fill="#a4b883"/>
                  </g>
                </g>
              </g>
            </g>
            <g id="Grupo_1180661" data-name="Grupo 1180661" transform="translate(138.369 12.901)">
              <g id="Grupo_1180658" data-name="Grupo 1180658" transform="translate(36.254 82.058)">
                <g id="Grupo_1180657" data-name="Grupo 1180657" transform="translate(0.253)">
                  <path id="Trazado_1043618" data-name="Trazado 1043618" d="M380,183.849l.4,8.012,9.96-.154c-.02-2.293-.475-5.946-.516-8.28C386.873,184.053,383.108,184.76,380,183.849Z" transform="translate(-378.508 -183.426)" fill="#b55934"/>
                  <path id="Trazado_1043619" data-name="Trazado 1043619" d="M377.642,202.757c.92-5.637,1.547-8.838,1.547-8.838,2.873,1.411,10.517-.138,10.517-.138a41.847,41.847,0,0,0,1.565,5.245c1.254.839,4.227,3.209,6.019,4.789a9.681,9.681,0,0,0-8.3,5.091,11.62,11.62,0,0,1-3.073-1.733A34.355,34.355,0,0,0,377.642,202.757Z" transform="translate(-377.642 -187.227)" fill="#373c40"/>
                  <path id="Trazado_1043620" data-name="Trazado 1043620" d="M403.706,207.458s-3.168.02-4.178.776" transform="translate(-385.676 -192.248)" fill="none" stroke="#fff" stroke-linecap="round" stroke-linejoin="round" stroke-miterlimit="10" stroke-width="0.992"/>
                  <path id="Trazado_1043621" data-name="Trazado 1043621" d="M400.283,204.336s-2.58.1-3.384.995" transform="translate(-384.711 -191.102)" fill="none" stroke="#fff" stroke-linecap="round" stroke-linejoin="round" stroke-miterlimit="10" stroke-width="0.992"/>
                  <path id="Trazado_1043622" data-name="Trazado 1043622" d="M397.236,201.5a12.942,12.942,0,0,0-3.273.755" transform="translate(-383.633 -190.06)" fill="none" stroke="#fff" stroke-linecap="round" stroke-linejoin="round" stroke-miterlimit="10" stroke-width="0.992"/>
                  <line id="Línea_738" data-name="Línea 738" x1="3.347" y2="0.522" transform="translate(9.267 9.201)" fill="none" stroke="#fff" stroke-linecap="round" stroke-linejoin="round" stroke-miterlimit="10" stroke-width="0.992"/>
                  <path id="Trazado_1043623" data-name="Trazado 1043623" d="M390.456,195.075a32.815,32.815,0,0,0,1.875,4.395c.621.881,5.473,5.889,5.473,5.889" transform="translate(-382.346 -187.702)" fill="none" stroke="#21262b" stroke-miterlimit="10" stroke-width="0.992"/>
                  <path id="Trazado_1043624" data-name="Trazado 1043624" d="M381.181,207.331s1.071-3.958-2.248-5.011" transform="translate(-378.116 -190.362)" fill="none" stroke="#21262b" stroke-miterlimit="10" stroke-width="0.992"/>
                </g>
                <path id="Trazado_1043625" data-name="Trazado 1043625" d="M385.77,212.378a11.638,11.638,0,0,0,3.073,1.733h0a9.683,9.683,0,0,1,8.3-5.091c1.657,1.455,2.884,4.464,1.13,8.294-4.252,1.084-11.1-.208-13.054-2.558-.818-.985-5.622-3.446-7.977-4.414a20.993,20.993,0,0,1,.253-2.38A34.383,34.383,0,0,1,385.77,212.378Z" transform="translate(-377.243 -192.433)" fill="#fff"/>
                <path id="Trazado_1043626" data-name="Trazado 1043626" d="M395.57,217.677a17.682,17.682,0,0,0,9.8,1.522" transform="translate(-383.971 -195.999)" fill="none" stroke="#b9c7ed" stroke-linecap="round" stroke-linejoin="round" stroke-miterlimit="10" stroke-width="0.992"/>
              </g>
              <g id="Grupo_1180660" data-name="Grupo 1180660" transform="translate(18.223 84.86)">
                <g id="Grupo_1180659" data-name="Grupo 1180659" transform="translate(0.637)">
                  <path id="Trazado_1043627" data-name="Trazado 1043627" d="M355.444,187.853l-.911,7.97,9.852,1.468c.353-2.266.5-5.944.838-8.255C362.192,189.173,358.361,189.257,355.444,187.853Z" transform="translate(-351.513 -187.853)" fill="#b55934"/>
                  <path id="Trazado_1043628" data-name="Trazado 1043628" d="M349.761,206.108c1.825-5.412,2.965-8.468,2.965-8.468,2.6,1.859,10.4,1.575,10.4,1.575a41.776,41.776,0,0,0,.691,5.43c1.1,1.032,3.648,3.854,5.159,5.7a9.683,9.683,0,0,0-9.018,3.672,11.613,11.613,0,0,1-2.749-2.21A34.369,34.369,0,0,0,349.761,206.108Z" transform="translate(-349.761 -191.446)" fill="#373c40"/>
                  <path id="Trazado_1043629" data-name="Trazado 1043629" d="M375.487,215.043s-3.129-.5-4.248.086" transform="translate(-357.645 -197.761)" fill="none" stroke="#fff" stroke-linecap="round" stroke-linejoin="round" stroke-miterlimit="10" stroke-width="0.992"/>
                  <path id="Trazado_1043630" data-name="Trazado 1043630" d="M372.6,211.4s-2.561-.325-3.5.431" transform="translate(-356.858 -196.473)" fill="none" stroke="#fff" stroke-linecap="round" stroke-linejoin="round" stroke-miterlimit="10" stroke-width="0.992"/>
                  <path id="Trazado_1043631" data-name="Trazado 1043631" d="M370.075,208.125a12.966,12.966,0,0,0-3.353.212" transform="translate(-355.987 -195.285)" fill="none" stroke="#fff" stroke-linecap="round" stroke-linejoin="round" stroke-miterlimit="10" stroke-width="0.992"/>
                  <line id="Línea_739" data-name="Línea 739" x1="3.388" y1="0.029" transform="translate(10.089 10.442)" fill="none" stroke="#fff" stroke-linecap="round" stroke-linejoin="round" stroke-miterlimit="10" stroke-width="0.992"/>
                  <path id="Trazado_1043632" data-name="Trazado 1043632" d="M364.5,200.389a32.83,32.83,0,0,0,1.135,4.642c.47.97,4.441,6.7,4.441,6.7" transform="translate(-355.172 -192.455)" fill="none" stroke="#21262b" stroke-miterlimit="10" stroke-width="0.992"/>
                  <path id="Trazado_1043633" data-name="Trazado 1043633" d="M353.356,210.972s1.7-3.731-1.4-5.31" transform="translate(-350.566 -194.39)" fill="none" stroke="#21262b" stroke-miterlimit="10" stroke-width="0.992"/>
                </g>
                <path id="Trazado_1043634" data-name="Trazado 1043634" d="M356.837,216.723a11.612,11.612,0,0,0,2.749,2.21h0a9.68,9.68,0,0,1,9.018-3.672c1.4,1.706,2.118,4.874-.235,8.367-4.372.378-10.921-2.013-12.463-4.648-.647-1.105-4.986-4.315-7.152-5.653a20.7,20.7,0,0,1,.637-2.307A34.34,34.34,0,0,1,356.837,216.723Z" transform="translate(-348.754 -196.357)" fill="#fff"/>
                <path id="Trazado_1043635" data-name="Trazado 1043635" d="M365.87,223.522a17.687,17.687,0,0,0,9.419,3.1" transform="translate(-355.037 -200.946)" fill="none" stroke="#b9c7ed" stroke-linecap="round" stroke-linejoin="round" stroke-miterlimit="10" stroke-width="0.992"/>
              </g>
              <path id="Trazado_1043636" data-name="Trazado 1043636" d="M360.048,158.536s6-3.848,10.853-3.337c5.249.553,10.511.786,12.459,5.929,1.077,2.843,1.415,16.562,1.415,16.562l-14.538,1.219.023-11.577L358.24,166.2" transform="translate(-334.013 -90.989)" fill="#6073c9"/>
              <path id="Trazado_1043637" data-name="Trazado 1043637" d="M331.471,156.369s-1.416,9.358,5.527,11.3,6.821,2.025,6.821,2.025l-1.059,10.787,14.906,1.363s3.629-14.869-1.49-19.837C352.123,158.073,344.872,153.11,331.471,156.369Z" transform="translate(-324.143 -91.048)" fill="#6073c9"/>
              <path id="Trazado_1043638" data-name="Trazado 1043638" d="M361.622,163.2c4.631-.352,7.315,2.432,8.122,7.029" transform="translate(-335.255 -93.933)" fill="none" stroke="#495aab" stroke-miterlimit="10" stroke-width="0.992"/>
              <path id="Trazado_1043639" data-name="Trazado 1043639" d="M350.154,188.167s11.089,1.468,15.615.3" transform="translate(-331.045 -103.108)" fill="none" stroke="#495aab" stroke-miterlimit="10" stroke-width="0.992"/>
              <path id="Trazado_1043640" data-name="Trazado 1043640" d="M377.2,184.594s11.61.063,14.127-1.616" transform="translate(-340.974 -101.203)" fill="none" stroke="#495aab" stroke-miterlimit="10" stroke-width="0.992"/>
              <line id="Línea_740" data-name="Línea 740" x1="0.124" y2="2.186" transform="translate(19.731 76.628)" fill="none" stroke="#495aab" stroke-miterlimit="10" stroke-width="0.992"/>
              <line id="Línea_741" data-name="Línea 741" x2="0.118" y2="3.235" transform="translate(36.072 73.195)" fill="none" stroke="#495aab" stroke-miterlimit="10" stroke-width="0.992"/>
              <path id="Trazado_1043641" data-name="Trazado 1043641" d="M335.663,86.729s-6.5-2.647-7.338-8.29c-2.506-2.713-.771-6.385,1.059-8.3-1.173-5.589.5-10.513,4.439-10.834.684-4.013,7.629-5.484,10.752-4.13,3.312-2.7,11.608-1.561,14.521,4.1S335.663,86.729,335.663,86.729Z" transform="translate(-322.573 -53.775)" fill="#762f0e"/>
              <path id="Trazado_1043642" data-name="Trazado 1043642" d="M359.362,114.529c11.511,0,13.765,2.048,14.522,13.492-4.25,1.532-11.8.889-11.8.889S357.625,118.251,359.362,114.529Z" transform="translate(-334.277 -76.077)" fill="#9466df"/>
              <path id="Trazado_1043643" data-name="Trazado 1043643" d="M398.789,138.18c-.842-4.066-2.036-4.465-3.763-4.86s-2.037,2.01-.57,2.728S398.789,138.18,398.789,138.18Z" transform="translate(-346.964 -82.959)" fill="#b55934"/>
              <path id="Trazado_1043644" data-name="Trazado 1043644" d="M336.765,89.984a4.938,4.938,0,1,1-4.516-5.327A4.938,4.938,0,0,1,336.765,89.984Z" transform="translate(-322.511 -65.105)" fill="#b55934"/>
              <path id="Trazado_1043645" data-name="Trazado 1043645" d="M364.481,82.465c-.761,9.251-7.663,12.791-15.761,12.124S334.393,89.3,335.154,80.051,332.847,63.286,351.2,64.508,365.243,73.214,364.481,82.465Z" transform="translate(-325.516 -57.667)" fill="#b55934"/>
              <path id="Trazado_1043646" data-name="Trazado 1043646" d="M334.3,73s-.62,7.082.968,6.984c1.672-.1,2.974-6.563,2.974-6.563a15.215,15.215,0,0,0,8.96-3.162c4.539,7.5,16.874,3.516,16.874,3.516s-2.035,8.051-.891,8.2c2.247.3,3.237-10.459,3.237-10.459,4.036-10.133-18.149-21.515-27.314-10.287C333.62,59.674,330.251,69.941,334.3,73Z" transform="translate(-324.569 -54.809)" fill="#762f0e"/>
              <path id="Trazado_1043647" data-name="Trazado 1043647" d="M355.024,93.6c-.149.666-.672,1.116-1.168,1a1.113,1.113,0,0,1-.629-1.406c.149-.666.672-1.116,1.168-1A1.114,1.114,0,0,1,355.024,93.6Z" transform="translate(-332.158 -67.872)" fill="#2f1f22"/>
              <path id="Trazado_1043648" data-name="Trazado 1043648" d="M370.782,95.63c-.133.667-.643,1.127-1.14,1.028a1.11,1.11,0,0,1-.66-1.387c.133-.667.643-1.127,1.14-1.028A1.11,1.11,0,0,1,370.782,95.63Z" transform="translate(-337.945 -68.626)" fill="#2f1f22"/>
              <path id="Trazado_1043649" data-name="Trazado 1043649" d="M363.721,98.1c3.195-1.462,2.56,2.61-.062,1.523" transform="translate(-336.002 -69.927)" fill="none" stroke="#762f0e" stroke-linecap="round" stroke-linejoin="round" stroke-miterlimit="10" stroke-width="0.992"/>
              <path id="Trazado_1043650" data-name="Trazado 1043650" d="M361.325,74.867a6.735,6.735,0,0,0,6.986,2.591" transform="translate(-335.146 -61.518)" fill="none" stroke="#a35141" stroke-linecap="round" stroke-linejoin="round" stroke-miterlimit="10" stroke-width="0.992" opacity="0.5"/>
              <path id="Trazado_1043651" data-name="Trazado 1043651" d="M363.339,69.1c.381.087,3.344,4.268,8.551,2.816" transform="translate(-335.885 -59.4)" fill="none" stroke="#a35141" stroke-linecap="round" stroke-linejoin="round" stroke-miterlimit="10" stroke-width="0.992" opacity="0.5"/>
              <path id="Trazado_1043652" data-name="Trazado 1043652" d="M365.988,65.253s5.546.622,7.153,2.892" transform="translate(-336.857 -57.989)" fill="none" stroke="#a35141" stroke-linecap="round" stroke-linejoin="round" stroke-miterlimit="10" stroke-width="0.992" opacity="0.5"/>
              <path id="Trazado_1043653" data-name="Trazado 1043653" d="M349.937,73.611a4.239,4.239,0,0,1-4.351,2.137" transform="translate(-329.368 -61.057)" fill="none" stroke="#a35141" stroke-linecap="round" stroke-linejoin="round" stroke-miterlimit="10" stroke-width="0.992" opacity="0.5"/>
              <path id="Trazado_1043654" data-name="Trazado 1043654" d="M349.845,64.173s-2.837,2.642-4.732,2.685" transform="translate(-329.194 -57.592)" fill="none" stroke="#a35141" stroke-linecap="round" stroke-linejoin="round" stroke-miterlimit="10" stroke-width="0.992" opacity="0.5"/>
              <path id="Trazado_1043655" data-name="Trazado 1043655" d="M350.64,60.528s-2.609.428-3.6,2.256" transform="translate(-329.903 -56.254)" fill="none" stroke="#a35141" stroke-linecap="round" stroke-linejoin="round" stroke-miterlimit="10" stroke-width="0.992" opacity="0.5"/>
              <path id="Trazado_1043656" data-name="Trazado 1043656" d="M337.146,70.438a7.456,7.456,0,0,0-1.065,5.017" transform="translate(-325.845 -59.892)" fill="none" stroke="#a35141" stroke-linecap="round" stroke-linejoin="round" stroke-miterlimit="10" stroke-width="0.992" opacity="0.5"/>
              <path id="Trazado_1043657" data-name="Trazado 1043657" d="M337.916,77.22s.046,4.635-.93,6.05" transform="translate(-326.211 -62.382)" fill="none" stroke="#a35141" stroke-linecap="round" stroke-linejoin="round" stroke-miterlimit="10" stroke-width="0.992" opacity="0.5"/>
              <path id="Trazado_1043658" data-name="Trazado 1043658" d="M330.611,142.008s19.857,6.187,26.243-1.994c1.284-15.307-.616-26.009-10.062-26.019-4.983-.006-9.3-1.57-12.67,2.266S330.611,142.008,330.611,142.008Z" transform="translate(-323.871 -75.763)" fill="#9466df"/>
              <path id="Trazado_1043659" data-name="Trazado 1043659" d="M322.729,136.039s-.663,7.754,1,9.357,10.893,1.306,10.893,1.306l-.718-8.467-2.921.05.3-2.7Z" transform="translate(-320.93 -83.807)" fill="#b55934"/>
              <path id="Trazado_1043660" data-name="Trazado 1043660" d="M337.652,138.318c2.169-3.22,3.511-3.242,5.391-3.121s1.418,2.238-.3,2.459S337.652,138.318,337.652,138.318Z" transform="translate(-326.456 -83.651)" fill="#b55934"/>
              <path id="Trazado_1043661" data-name="Trazado 1043661" d="M347.274,123.188l.558-2.5s13.98-1.011,16.726,3.922a17.082,17.082,0,0,1,12.541-4.851l2.336,2.331-11.351,9.125-17.568-2.963Z" transform="translate(-329.988 -77.991)" fill="#fff"/>
              <path id="Trazado_1043662" data-name="Trazado 1043662" d="M372.91,127.9a3.529,3.529,0,0,1-4.808.082l-5.586,19.846a3.573,3.573,0,0,0,2.159.908,3.652,3.652,0,0,0,2.648-.99Q370.116,137.825,372.91,127.9Z" transform="translate(-335.583 -80.986)" fill="#cf6393"/>
              <path id="Trazado_1043663" data-name="Trazado 1043663" d="M344.076,123.442l15.939,2.905-5.586,19.846-13.943-1.651Z" transform="translate(-327.496 -79.349)" fill="#d4739e"/>
              <path id="Trazado_1043664" data-name="Trazado 1043664" d="M375.7,125.732l12.9-3.741-5.586,19.846-12.9,3.741Z" transform="translate(-338.371 -78.816)" fill="#d4739e"/>
              <path id="Trazado_1043665" data-name="Trazado 1043665" d="M336.446,147.28c2.587,2.908,11.763.7,8.656-1.432,2.315.046,1.768-2.689.49-2.575,3.113-.139,1.821-2.855-.048-2.823,2.884-.563,1.382-2.505-1.25-2.8-2.419-.273-6.027-1.053-7.85,1.675S336.446,147.28,336.446,147.28Z" transform="translate(-325.715 -84.448)" fill="#b55934"/>
              <path id="Trazado_1043666" data-name="Trazado 1043666" d="M335.277,113.868c-12.049.353-14.048,3.315-15.315,14.672,3.725,1.4,12.183.393,12.183.393S336.9,117.533,335.277,113.868Z" transform="translate(-319.962 -75.834)" fill="#9466df"/>
              <line id="Línea_742" data-name="Línea 742" x2="3.43" y2="0.112" transform="translate(16.62 55.843)" fill="none" stroke="#762f0e" stroke-linecap="round" stroke-linejoin="round" stroke-miterlimit="10" stroke-width="0.992"/>
              <line id="Línea_743" data-name="Línea 743" x2="3.206" y2="0.073" transform="translate(17.115 58.701)" fill="none" stroke="#762f0e" stroke-linecap="round" stroke-linejoin="round" stroke-miterlimit="10" stroke-width="0.992"/>
              <line id="Línea_744" data-name="Línea 744" x2="2.32" y2="0.303" transform="translate(17.468 61.134)" fill="none" stroke="#762f0e" stroke-linecap="round" stroke-linejoin="round" stroke-miterlimit="10" stroke-width="0.992"/>
              <path id="Trazado_1043667" data-name="Trazado 1043667" d="M387.457,145.419c-.831-.837-1.016-1.752.128-2.241-1.8-.511-.539-3.013.413-2.6-2.361-.88-.528-3.186.9-2.707-2.054-1.234-.3-2.744,1.826-2.4,1.952.317,4.977.432,5.547,3.495a6.027,6.027,0,0,1-.111,2.354C395.152,145.921,390.314,148.3,387.457,145.419Z" transform="translate(-344.451 -83.747)" fill="#b55934"/>
              <line id="Línea_745" data-name="Línea 745" x1="2.683" y1="0.714" transform="translate(44.295 54.027)" fill="none" stroke="#762f0e" stroke-linecap="round" stroke-linejoin="round" stroke-miterlimit="10" stroke-width="0.992"/>
              <line id="Línea_746" data-name="Línea 746" x1="2.498" y1="0.698" transform="translate(43.221 56.677)" fill="none" stroke="#762f0e" stroke-linecap="round" stroke-linejoin="round" stroke-miterlimit="10" stroke-width="0.992"/>
              <line id="Línea_747" data-name="Línea 747" x1="1.884" y1="0.265" transform="translate(42.817 59.652)" fill="none" stroke="#762f0e" stroke-linecap="round" stroke-linejoin="round" stroke-miterlimit="10" stroke-width="0.992"/>
              <line id="Línea_748" data-name="Línea 748" y1="0.201" x2="1.716" transform="translate(8.448 54.419)" fill="none" stroke="#762f0e" stroke-linecap="round" stroke-linejoin="round" stroke-miterlimit="10" stroke-width="0.992"/>
              <path id="Trazado_1043668" data-name="Trazado 1043668" d="M348.17,122.051s13.225,0,15.63,3.4" transform="translate(-330.317 -78.838)" fill="none" stroke="#b9c7ed" stroke-miterlimit="10" stroke-width="0.992"/>
              <path id="Trazado_1043669" data-name="Trazado 1043669" d="M376.3,124.956c.23.053,6.228-4.056,11.265-4.142" transform="translate(-340.643 -78.384)" fill="none" stroke="#b9c7ed" stroke-miterlimit="10" stroke-width="0.992"/>
              <path id="Trazado_1043670" data-name="Trazado 1043670" d="M381.067,124.216s7-2.7,9.63-2.626" transform="translate(-342.393 -78.669)" fill="none" stroke="#b9c7ed" stroke-miterlimit="10" stroke-width="0.992"/>
              <path id="Trazado_1043671" data-name="Trazado 1043671" d="M347.551,122.875s11.925,1.056,13.95,2.28" transform="translate(-330.089 -79.141)" fill="none" stroke="#b9c7ed" stroke-miterlimit="10" stroke-width="0.992"/>
              <path id="Trazado_1043672" data-name="Trazado 1043672" d="M344.231,113.754s7.135,5.46,12.034.653A43.887,43.887,0,0,0,344.231,113.754Z" transform="translate(-328.871 -75.736)" fill="#b55934"/>
              <path id="Trazado_1043673" data-name="Trazado 1043673" d="M335.718,133.677l1.269.011a42.357,42.357,0,0,0,.766-7.379" transform="translate(-325.746 -80.401)" fill="none" stroke="#814bd9" stroke-miterlimit="10" stroke-width="0.992"/>
              <path id="Trazado_1043674" data-name="Trazado 1043674" d="M342.2,114.148a11.84,11.84,0,0,0,9.248,3.449c5.919-.359,5.522-2.991,5.522-2.991" transform="translate(-328.126 -75.937)" fill="none" stroke="#814bd9" stroke-miterlimit="10" stroke-width="0.992"/>
              <path id="Trazado_1043675" data-name="Trazado 1043675" d="M320.67,132.126s4.326,2.246,11.133.67" transform="translate(-320.222 -82.537)" fill="none" stroke="#814bd9" stroke-miterlimit="10" stroke-width="0.992"/>
              <path id="Trazado_1043676" data-name="Trazado 1043676" d="M348.588,109.42l-.546,3.273,7.48.559.2-3.61Z" transform="translate(-330.27 -74.202)" fill="#b55934"/>
              <path id="Trazado_1043677" data-name="Trazado 1043677" d="M362.883,59.5a7.629,7.629,0,0,1,4.844.584" transform="translate(-335.718 -55.819)" fill="none" stroke="#a35141" stroke-linecap="round" stroke-linejoin="round" stroke-miterlimit="10" stroke-width="0.992" opacity="0.5"/>
              <path id="Trazado_1043678" data-name="Trazado 1043678" d="M366.847,68.35a3.647,3.647,0,0,0,3.3,1.193" transform="translate(-337.173 -59.126)" fill="none" stroke="#a35141" stroke-linecap="round" stroke-linejoin="round" stroke-miterlimit="10" stroke-width="0.992" opacity="0.5"/>
              <path id="Trazado_1043679" data-name="Trazado 1043679" d="M337.473,64.915s-1.46-.341-2.311,2.085" transform="translate(-325.542 -57.858)" fill="none" stroke="#a35141" stroke-linecap="round" stroke-linejoin="round" stroke-miterlimit="10" stroke-width="0.992" opacity="0.5"/>
              <path id="Trazado_1043680" data-name="Trazado 1043680" d="M343.631,59.922a4.03,4.03,0,0,1,2.9-.97" transform="translate(-328.65 -55.668)" fill="none" stroke="#a35141" stroke-linecap="round" stroke-linejoin="round" stroke-miterlimit="10" stroke-width="0.992" opacity="0.5"/>
              <path id="Trazado_1043681" data-name="Trazado 1043681" d="M351.63,67.859s-1.3,2.068-3.117,2.175" transform="translate(-330.443 -58.945)" fill="none" stroke="#a35141" stroke-linecap="round" stroke-linejoin="round" stroke-miterlimit="10" stroke-width="0.992" opacity="0.5"/>
              <path id="Trazado_1043682" data-name="Trazado 1043682" d="M348.894,110.635s2.3,1.282,8.153.88" transform="translate(-330.582 -74.648)" fill="none" stroke="#762f0e" stroke-linecap="round" stroke-linejoin="round" stroke-miterlimit="10" stroke-width="0.992"/>
              <path id="Trazado_1043683" data-name="Trazado 1043683" d="M352.584,87.465s2.1-1.147,2.981-.82" transform="translate(-331.937 -65.82)" fill="none" stroke="#762f0e" stroke-linecap="round" stroke-linejoin="round" stroke-miterlimit="10" stroke-width="0.992"/>
              <path id="Trazado_1043684" data-name="Trazado 1043684" d="M370.663,88.5s1.531.549,1.879,1.328" transform="translate(-338.573 -66.524)" fill="none" stroke="#762f0e" stroke-linecap="round" stroke-linejoin="round" stroke-miterlimit="10" stroke-width="0.992"/>
              <text id="ABC" transform="translate(37.942 50.635) rotate(12.731)" fill="#fff" font-size="4" font-family="SegoeUI, Segoe UI"><tspan x="0" y="0">ABC</tspan></text>
              <path id="Trazado_1043685" data-name="Trazado 1043685" d="M356.668,103.1s1.154,2.023,4.167,1.4" transform="translate(-333.436 -71.884)" fill="none" stroke="#762f0e" stroke-linecap="round" stroke-linejoin="round" stroke-miterlimit="10" stroke-width="0.992"/>
            </g>
            <g id="Grupo_1180668" data-name="Grupo 1180668" transform="translate(4.546 111.792)">
              <path id="Trazado_1043686" data-name="Trazado 1043686" d="M191.438,288.119c11.687,18.934,21.989,6.506,24.026-7.383l-11.287-3.487Z" transform="translate(-138.96 -234.699)" fill="#e89f7c"/>
              <path id="Trazado_1043687" data-name="Trazado 1043687" d="M228.418,273.341c.851-5.545-.474-6.613-2.475-7.927s-3.527,1.584-2.008,3.185S228.418,273.341,228.418,273.341Z" transform="translate(-150.663 -230.233)" fill="#e89f7c"/>
              <g id="Grupo_1180663" data-name="Grupo 1180663" transform="translate(42.212 103.466)">
                <g id="Grupo_1180662" data-name="Grupo 1180662">
                  <path id="Trazado_1043688" data-name="Trazado 1043688" d="M176,374.109l.55,7.709,9.59-.356c-.067-2.209-.581-5.718-.67-7.965C182.624,374.162,179.011,374.921,176,374.109Z" transform="translate(-175.505 -373.496)" fill="#e89f7c"/>
                  <path id="Trazado_1043689" data-name="Trazado 1043689" d="M175.414,393.955a51.417,51.417,0,0,1,.116-10.157c2.8,1.3,10.493-.352,10.493-.352s.81,2.142,1.207,3.747c1.372.48,4.716,1.976,6.768,3.018a9.328,9.328,0,0,0-6.518,6.747,11.215,11.215,0,0,1-3.284-.877A33.093,33.093,0,0,0,175.414,393.955Z" transform="translate(-175.219 -377.148)" fill="#6073c9"/>
                  <path id="Trazado_1043690" data-name="Trazado 1043690" d="M199.828,392.72s-2.95.781-3.711,1.73" transform="translate(-182.89 -380.553)" fill="none" stroke="#fff" stroke-linecap="round" stroke-linejoin="round" stroke-miterlimit="10" stroke-width="0.992"/>
                  <path id="Trazado_1043691" data-name="Trazado 1043691" d="M195.913,390.744s-2.383.711-2.917,1.742" transform="translate(-181.744 -379.827)" fill="none" stroke="#fff" stroke-linecap="round" stroke-linejoin="round" stroke-miterlimit="10" stroke-width="0.992"/>
                  <path id="Trazado_1043692" data-name="Trazado 1043692" d="M192.466,389.366s-2.332.293-2.982,1.163" transform="translate(-180.455 -379.322)" fill="none" stroke="#fff" stroke-linecap="round" stroke-linejoin="round" stroke-miterlimit="10" stroke-width="0.992"/>
                  <line id="Línea_749" data-name="Línea 749" x1="3.765" y2="0.953" transform="translate(7.596 7.872)" fill="none" stroke="#fff" stroke-linecap="round" stroke-linejoin="round" stroke-miterlimit="10" stroke-width="0.992"/>
                  <path id="Trazado_1043693" data-name="Trazado 1043693" d="M185.721,384.823s.8,3.052,1.591,3.724,6.523,4.176,6.523,4.176" transform="translate(-179.074 -377.654)" fill="none" stroke="#495aab" stroke-linecap="round" stroke-linejoin="round" stroke-miterlimit="10" stroke-width="0.992"/>
                  <path id="Trazado_1043694" data-name="Trazado 1043694" d="M178.677,398.608s.047-3.95-3.3-4.133" transform="translate(-175.276 -381.197)" fill="none" stroke="#495aab" stroke-linecap="round" stroke-linejoin="round" stroke-miterlimit="10" stroke-width="0.992"/>
                </g>
                <path id="Trazado_1043695" data-name="Trazado 1043695" d="M184.309,400.006a11.174,11.174,0,0,0,3.284.877h0a9.327,9.327,0,0,1,6.518-6.747c1.9.958,3.765,3.47,3.051,7.465-3.706,2.035-10.408,2.479-12.794.756-1-.722-6.074-1.861-8.5-2.2a20.123,20.123,0,0,1-.337-2.281A33.063,33.063,0,0,1,184.309,400.006Z" transform="translate(-175.332 -381.073)" fill="#fff"/>
                <path id="Trazado_1043696" data-name="Trazado 1043696" d="M194.591,404.19a17.272,17.272,0,0,0,9.675-1.044" transform="translate(-182.33 -384.38)" fill="none" stroke="#b9c7ed" stroke-linecap="round" stroke-linejoin="round" stroke-miterlimit="10" stroke-width="0.992"/>
              </g>
              <path id="Trazado_1043697" data-name="Trazado 1043697" d="M174.034,266.494c11.1.964,15.1,5.418,22.279,10.588a72.031,72.031,0,0,0-6.472,14.336L177.328,283Z" transform="translate(-132.572 -230.751)" fill="#cf6393"/>
              <path id="Trazado_1043698" data-name="Trazado 1043698" d="M127.327,287.793s-6.824,10.775-5.99,13.515,6.787,13.121,6.787,13.121l6.4-8.572-1.372-5.3,4.414-8.5Z" transform="translate(-113.202 -238.57)" fill="#e89f7c"/>
              <g id="Grupo_1180665" data-name="Grupo 1180665" transform="translate(11.89 103.862)">
                <g id="Grupo_1180664" data-name="Grupo 1180664" transform="translate(1.24)">
                  <path id="Trazado_1043699" data-name="Trazado 1043699" d="M151.623,376.206l-1.211,8.127-10.793-.605c.175-2.275.634-7.333,1.115-9.605C143.487,375.288,148.445,376.514,151.623,376.206Z" transform="translate(-133.069 -374.122)" fill="#e89f7c"/>
                  <path id="Trazado_1043700" data-name="Trazado 1043700" d="M146.283,397.936c.689-5.636.987-10.477.987-10.477-2.113,1.277-11.881-.916-11.881-.916s-.246,2.07-.63,3.715c-1.766,1.682-4.454,3.127-5.489,5.447,2,.933,7.3,1.242,7.713,5.034a6.539,6.539,0,0,0,2.442-.832A20.323,20.323,0,0,1,146.283,397.936Z" transform="translate(-129.27 -378.681)" fill="#6073c9"/>
                  <path id="Trazado_1043701" data-name="Trazado 1043701" d="M135.607,396.513s3.616.089,4.113,1.084" transform="translate(-131.596 -382.341)" fill="none" stroke="#fff" stroke-linecap="round" stroke-linejoin="round" stroke-miterlimit="10" stroke-width="0.992"/>
                  <path id="Trazado_1043702" data-name="Trazado 1043702" d="M137.923,394.56s3.5.35,3.823,1.425" transform="translate(-132.446 -381.624)" fill="none" stroke="#fff" stroke-linecap="round" stroke-linejoin="round" stroke-miterlimit="10" stroke-width="0.992"/>
                  <path id="Trazado_1043703" data-name="Trazado 1043703" d="M140,392.853s3.363.5,3.784,1.407" transform="translate(-133.21 -380.998)" fill="none" stroke="#fff" stroke-linecap="round" stroke-linejoin="round" stroke-miterlimit="10" stroke-width="0.992"/>
                  <line id="Línea_750" data-name="Línea 750" x2="4.366" y2="1.208" transform="translate(7.396 9.631)" fill="none" stroke="#fff" stroke-linecap="round" stroke-linejoin="round" stroke-miterlimit="10" stroke-width="0.992"/>
                  <path id="Trazado_1043704" data-name="Trazado 1043704" d="M145.271,388.668s-.764,3.127-1.38,3.8-5,4.16-5,4.16" transform="translate(-132.802 -379.462)" fill="none" stroke="#495aab" stroke-linecap="round" stroke-linejoin="round" stroke-miterlimit="10" stroke-width="0.992"/>
                  <path id="Trazado_1043705" data-name="Trazado 1043705" d="M137.608,387s-.225,3.073-.841,3.749-5,4.16-5,4.16" transform="translate(-130.187 -378.849)" fill="none" stroke="#495aab" stroke-linecap="round" stroke-linejoin="round" stroke-miterlimit="10" stroke-width="0.992"/>
                  <path id="Trazado_1043706" data-name="Trazado 1043706" d="M154.327,403.022s0-3.716,1.435-4.219" transform="translate(-138.468 -383.182)" fill="none" stroke="#495aab" stroke-linecap="round" stroke-linejoin="round" stroke-miterlimit="10" stroke-width="0.992"/>
                </g>
                <path id="Trazado_1043707" data-name="Trazado 1043707" d="M138.706,403.968c.146-5.1-3.836-6.7-7.22-6.3s-4.413,3.368-4.131,7.5c2.577,2.179,9.329,2.944,11.168,1.222.771-.722,4.871-1.756,6.66-2.049.184-.962.267-1.407.382-2.343A20.318,20.318,0,0,0,138.706,403.968Z" transform="translate(-127.311 -382.743)" fill="#fff"/>
                <path id="Trazado_1043708" data-name="Trazado 1043708" d="M138.728,407.205a11.821,11.821,0,0,1-11.3-.525" transform="translate(-127.353 -386.073)" fill="none" stroke="#b9c7ed" stroke-linecap="round" stroke-linejoin="round" stroke-miterlimit="10" stroke-width="0.992"/>
              </g>
              <path id="Trazado_1043709" data-name="Trazado 1043709" d="M143.935,316.767l-6.129,40.078A40.229,40.229,0,0,0,144.753,359a43.411,43.411,0,0,0,7.012-.018c2.193-9,1.944-15.926,4.558-28.426l3.244,25.395a35.283,35.283,0,0,0,8.792.561,29.539,29.539,0,0,0,4.994-1.459c-1.335-13.125-3.479-24.886-4.813-38.01Z" transform="translate(-119.273 -249.206)" fill="#f1c754"/>
              <path id="Trazado_1043710" data-name="Trazado 1043710" d="M170.567,330.712l-2.556.841-1.134,5.176" transform="translate(-129.945 -254.325)" fill="none" stroke="#dea94d" stroke-miterlimit="10" stroke-width="0.992"/>
              <path id="Trazado_1043711" data-name="Trazado 1043711" d="M151.9,319.662s.008,8.35-3.622,7" transform="translate(-123.116 -250.268)" fill="none" stroke="#dea94d" stroke-miterlimit="10" stroke-width="0.992"/>
              <path id="Trazado_1043712" data-name="Trazado 1043712" d="M172.818,299.212c-8.984,6.507-28.283.7-28.283.7l.972-20.832c-.795-5.405,3.428-10.254,8.807-11.21a32.374,32.374,0,0,1,11.6.018,8.083,8.083,0,0,1,6.426,6.617C173.236,280.185,172.745,286.916,172.818,299.212Z" transform="translate(-121.743 -231.066)" fill="#cf6393"/>
              <path id="Trazado_1043713" data-name="Trazado 1043713" d="M146.376,268.448c-11.375,1.48-15.115,6.545-20.492,15.349,7.558,5.922,13.4,6.233,13.4,6.233Z" transform="translate(-114.897 -231.469)" fill="#cf6393"/>
              <path id="Trazado_1043714" data-name="Trazado 1043714" d="M169.694,266.754c1.236,6.109-10.844,6.418-11.648,1.032C158.046,267.786,165.935,266.228,169.694,266.754Z" transform="translate(-126.703 -230.807)" fill="#e89f7c"/>
              <path id="Trazado_1043715" data-name="Trazado 1043715" d="M127.731,290.176s6.527,5.961,12.622,5.961" transform="translate(-115.575 -239.444)" fill="none" stroke="#c24a7f" stroke-linecap="round" stroke-linejoin="round" stroke-miterlimit="10" stroke-width="0.992"/>
              <path id="Trazado_1043716" data-name="Trazado 1043716" d="M147.058,296.99c-.078-.584,3.545-9.584,3.545-9.584" transform="translate(-122.669 -238.428)" fill="none" stroke="#c24a7f" stroke-linecap="round" stroke-linejoin="round" stroke-miterlimit="10" stroke-width="0.992"/>
              <path id="Trazado_1043717" data-name="Trazado 1043717" d="M189.339,289.508c0-.584-.117-5.61-.117-5.61" transform="translate(-138.147 -237.14)" fill="none" stroke="#c24a7f" stroke-linecap="round" stroke-linejoin="round" stroke-miterlimit="10" stroke-width="0.992"/>
              <line id="Línea_751" data-name="Línea 751" y1="13.78" x2="6.885" transform="translate(55.516 45.834)" fill="none" stroke="#c24a7f" stroke-linecap="round" stroke-linejoin="round" stroke-miterlimit="10" stroke-width="0.992"/>
              <path id="Trazado_1043718" data-name="Trazado 1043718" d="M156.03,268.216c.584,5.844,14.843,6.9,14.258-1.169" transform="translate(-125.963 -230.954)" fill="none" stroke="#c24a7f" stroke-linecap="round" stroke-linejoin="round" stroke-miterlimit="10" stroke-width="0.992"/>
              <path id="Trazado_1043719" data-name="Trazado 1043719" d="M124.809,234.223c-5.175-6.156-14.344-1.4-11.374,8.124s-2.687,14.68-4.911,13.843c11.2,6.786,20.107.032,18.839-9.434S124.809,234.223,124.809,234.223Z" transform="translate(-108.524 -217.892)" fill="#8a4437"/>
              <path id="Trazado_1043720" data-name="Trazado 1043720" d="M137.837,236.209c.841,3.148-.553,6.254-3.115,6.938s-5.318-1.313-6.16-4.461.554-6.254,3.115-6.938S137,233.061,137.837,236.209Z" transform="translate(-115.79 -217.947)" fill="#495aab"/>
              <path id="Trazado_1043721" data-name="Trazado 1043721" d="M167.7,222.27c2.4,8.99-3.681,19.994-13.391,22.588s-19.37-4.2-21.772-13.194,3.523-18.381,13.234-20.974S165.3,213.281,167.7,222.27Z" transform="translate(-117.143 -210.021)" fill="#8a4437"/>
              <path id="Trazado_1043722" data-name="Trazado 1043722" d="M146.044,247.22a5.222,5.222,0,1,1-6.412-3.665A5.222,5.222,0,0,1,146.044,247.22Z" transform="translate(-118.53 -222.263)" fill="#e89f7c"/>
              <path id="Trazado_1043723" data-name="Trazado 1043723" d="M171.667,226.713c2.582,9.471-3,15.482-11.292,17.742s-16.152-.085-18.734-9.556-8.345-15.834,10.337-21.242S169.084,217.241,171.667,226.713Z" transform="translate(-119.615 -210.757)" fill="#e89f7c"/>
              <path id="Trazado_1043724" data-name="Trazado 1043724" d="M164.853,243.171a1.177,1.177,0,0,1-.8,1.42c-.534.069-1.041-.456-1.133-1.171a1.178,1.178,0,0,1,.8-1.42C164.253,241.931,164.761,242.456,164.853,243.171Z" transform="translate(-128.487 -221.758)" fill="#2f1f22"/>
              <path id="Trazado_1043725" data-name="Trazado 1043725" d="M181.248,239.5a1.174,1.174,0,0,1-.762,1.434c-.53.081-1.047-.429-1.156-1.14a1.174,1.174,0,0,1,.762-1.434C180.621,238.283,181.139,238.794,181.248,239.5Z" transform="translate(-134.508 -220.422)" fill="#2f1f22"/>
              <path id="Trazado_1043726" data-name="Trazado 1043726" d="M171.2,251.465c.558.894,2.634,1.4,3.987-.444" transform="translate(-131.531 -225.071)" fill="none" stroke="#ad5641" stroke-linecap="round" stroke-linejoin="round" stroke-miterlimit="10" stroke-width="0.992"/>
              <path id="Trazado_1043727" data-name="Trazado 1043727" d="M160.169,237.6s1.105-1.33,2.1-1.325" transform="translate(-127.482 -219.659)" fill="none" stroke="#8a4437" stroke-miterlimit="10" stroke-width="0.992"/>
              <path id="Trazado_1043728" data-name="Trazado 1043728" d="M179.214,232.4s1.721-.006,2.348.642" transform="translate(-134.473 -218.236)" fill="none" stroke="#8a4437" stroke-miterlimit="10" stroke-width="0.992"/>
              <path id="Trazado_1043729" data-name="Trazado 1043729" d="M173.967,243.615c1.318-1.7,3.936.133.695,2.122" transform="translate(-132.547 -222.107)" fill="none" stroke="#ad5641" stroke-linecap="round" stroke-linejoin="round" stroke-miterlimit="10" stroke-width="0.992"/>
              <path id="Trazado_1043730" data-name="Trazado 1043730" d="M138.182,231.984c2.26-1.225,4.864,2.323,5.831,5.17,1.911-4.857,2.534-9.888-.16-13,7.746,2.706,19.151-1.953,20.134-5.631,2.739,2.891,5.4,2.02,5.4,2.02,3.992-3.654-3.013-10.891-10.761-10.063S139.8,215.2,137.9,218.916,134.625,227.966,138.182,231.984Z" transform="translate(-118.6 -210.166)" fill="#8a4437"/>
              <path id="Trazado_1043731" data-name="Trazado 1043731" d="M147.628,225.114s13.894.268,17.911-4.841" transform="translate(-122.878 -213.784)" fill="none" stroke="#613126" stroke-miterlimit="10" stroke-width="0.992" opacity="0.5"/>
              <path id="Trazado_1043732" data-name="Trazado 1043732" d="M150.628,221.588s9.963-3.757,14.375-3.9" transform="translate(-123.98 -212.835)" fill="none" stroke="#613126" stroke-miterlimit="10" stroke-width="0.992" opacity="0.5"/>
              <path id="Trazado_1043733" data-name="Trazado 1043733" d="M144.756,219.568s4.457-8.067,16.067-6.119" transform="translate(-121.824 -211.168)" fill="none" stroke="#613126" stroke-miterlimit="10" stroke-width="0.992" opacity="0.5"/>
              <path id="Trazado_1043734" data-name="Trazado 1043734" d="M179,218.8s1.339,2.526,5.532,2.337" transform="translate(-134.396 -213.242)" fill="none" stroke="#613126" stroke-miterlimit="10" stroke-width="0.992" opacity="0.5"/>
              <path id="Trazado_1043735" data-name="Trazado 1043735" d="M178.266,214.364s2.028-.018,4.831,2.337" transform="translate(-134.125 -211.615)" fill="none" stroke="#613126" stroke-miterlimit="10" stroke-width="0.992" opacity="0.5"/>
              <path id="Trazado_1043736" data-name="Trazado 1043736" d="M143.181,228.89a12.949,12.949,0,0,1,2.493,8.415" transform="translate(-121.246 -216.948)" fill="none" stroke="#613126" stroke-miterlimit="10" stroke-width="0.992" opacity="0.5"/>
              <path id="Trazado_1043737" data-name="Trazado 1043737" d="M140.349,232.583s.049,4.512,1.948,5.61" transform="translate(-120.206 -218.303)" fill="none" stroke="#613126" stroke-miterlimit="10" stroke-width="0.992" opacity="0.5"/>
              <path id="Trazado_1043738" data-name="Trazado 1043738" d="M137.178,225.555s-1.184,4.792-.152,8.656" transform="translate(-118.831 -215.723)" fill="none" stroke="#613126" stroke-miterlimit="10" stroke-width="0.992" opacity="0.5"/>
              <path id="Trazado_1043739" data-name="Trazado 1043739" d="M134.464,238.633a21.168,21.168,0,0,0,1.2,3.716" transform="translate(-118.046 -220.524)" fill="none" stroke="#613126" stroke-miterlimit="10" stroke-width="0.992" opacity="0.5"/>
              <path id="Trazado_1043740" data-name="Trazado 1043740" d="M123.174,240.325c-3.265.092-5.063,2.544-3.823,6.31s2.7,10.727-1.057,12.167" transform="translate(-112.11 -221.145)" fill="none" stroke="#613126" stroke-miterlimit="10" stroke-width="0.992" opacity="0.5"/>
              <path id="Trazado_1043741" data-name="Trazado 1043741" d="M123.306,249.252c-.057.335,3.2,9.313.542,12.122" transform="translate(-113.95 -224.422)" fill="none" stroke="#613126" stroke-miterlimit="10" stroke-width="0.992" opacity="0.5"/>
              <path id="Trazado_1043742" data-name="Trazado 1043742" d="M126.645,255.026c-.179.739,2.64,8.461-1.972,10.459" transform="translate(-114.452 -226.542)" fill="none" stroke="#613126" stroke-miterlimit="10" stroke-width="0.992" opacity="0.5"/>
              <path id="Trazado_1043743" data-name="Trazado 1043743" d="M124.483,235.593a4.874,4.874,0,0,0-4.756,1.6" transform="translate(-112.636 -219.37)" fill="none" stroke="#613126" stroke-miterlimit="10" stroke-width="0.992" opacity="0.5"/>
              <path id="Trazado_1043744" data-name="Trazado 1043744" d="M139.18,373.437s9.584,2.454,14.025,1.87" transform="translate(-119.777 -270.008)" fill="none" stroke="#dea94d" stroke-miterlimit="10" stroke-width="0.992"/>
              <path id="Trazado_1043745" data-name="Trazado 1043745" d="M171.31,371.3s10.285.117,13.674-1.169" transform="translate(-131.572 -268.795)" fill="none" stroke="#dea94d" stroke-miterlimit="10" stroke-width="0.992"/>
              <line id="Línea_752" data-name="Línea 752" x1="5.63" y2="34.079" transform="translate(20.551 69.782)" fill="none" stroke="#dea94d" stroke-miterlimit="10" stroke-width="0.992"/>
              <path id="Trazado_1043746" data-name="Trazado 1043746" d="M159.061,261.6l.546,5.532,9.661-.546.078-5.687" transform="translate(-127.075 -228.697)" fill="#e89f7c"/>
              <g id="Grupo_1180667" data-name="Grupo 1180667" transform="translate(1.261 1.759)">
                <g id="Grupo_1180666" data-name="Grupo 1180666">
                  <path id="Trazado_1043747" data-name="Trazado 1043747" d="M195.128,221.415l9.149,9.279-83.948,84.08L111.18,305.5Z" transform="translate(-110.76 -215.963)" fill="#8da664"/>
                  <line id="Línea_753" data-name="Línea 753" y1="82.125" x2="81.983" transform="translate(9.532 14.651)" fill="none" stroke="#5f823c" stroke-linejoin="round" stroke-miterlimit="10" stroke-width="0.992"/>
                  <line id="Línea_754" data-name="Línea 754" y1="82.28" x2="82.139" transform="translate(2.298 7.473)" fill="none" stroke="#5f823c" stroke-linejoin="round" stroke-miterlimit="10" stroke-width="0.992"/>
                  <line id="Línea_755" data-name="Línea 755" y1="81.817" x2="81.669" transform="translate(7.722 12.497)" fill="none" stroke="#5f823c" stroke-linejoin="round" stroke-miterlimit="10" stroke-width="0.992"/>
                  <line id="Línea_756" data-name="Línea 756" y1="81.816" x2="81.669" transform="translate(4.419 9.148)" fill="none" stroke="#5f823c" stroke-linejoin="round" stroke-miterlimit="10" stroke-width="0.992"/>
                  <path id="Trazado_1043748" data-name="Trazado 1043748" d="M243.606,218.128l-.075.073a1.811,1.811,0,0,0-.224,2.513,1.834,1.834,0,0,0,2.532-.2l.058-.059h0l-.075.073a1.812,1.812,0,0,0-.225,2.513,1.834,1.834,0,0,0,2.532-.2l.058-.058h0l-.075.073a1.811,1.811,0,0,0-.224,2.513,1.833,1.833,0,0,0,2.531-.2l.059-.058h0l-.075.073a1.811,1.811,0,0,0-.224,2.513,1.747,1.747,0,0,0,2.468-.142c.464-.457,5.64-14.744,5.64-14.744s-14.293,4.952-14.741,5.387l.059-.06Z" transform="translate(-159.111 -212.801)" fill="#edb2a4"/>
                  <path id="Trazado_1043749" data-name="Trazado 1043749" d="M261.988,218.07c1.059-2.863,1.928-5.26,1.928-5.26s-2.627.917-5.668,2A5.744,5.744,0,0,0,261.988,218.07Z" transform="translate(-164.746 -212.804)" fill="#8da664"/>
                  <path id="Trazado_1043750" data-name="Trazado 1043750" d="M110.754,354.414c.822-.811,3.536.609,6.063,3.172s3.908,5.3,3.086,6.106-3.536-.61-6.063-3.172S109.932,355.225,110.754,354.414Z" transform="translate(-110.517 -264.701)" fill="#edb2a4"/>
                  <path id="Trazado_1043751" data-name="Trazado 1043751" d="M115.323,359.043c.312-.308,1.343.231,2.3,1.2s1.484,2.011,1.172,2.318-1.343-.231-2.3-1.2S115.011,359.35,115.323,359.043Z" transform="translate(-112.248 -266.452)" fill="#8da664"/>
                </g>
              </g>
              <path id="Trazado_1043752" data-name="Trazado 1043752" d="M208.725,277.688c-.658-1.452-.461-2.7,1.22-2.777-2.041-1.5.737-4.07,1.747-3.095-2.575-2.227.832-4.284,2.421-3-2.019-2.53.917-3.615,3.443-2.177,2.322,1.321,6.1,2.892,5.377,7.039a8.135,8.135,0,0,1-1.251,2.929C218.233,281.951,210.986,282.678,208.725,277.688Z" transform="translate(-145.178 -230.568)" fill="#e89f7c"/>
              <line id="Línea_757" data-name="Línea 757" x1="3.061" y1="2.168" transform="translate(68.782 38.048)" fill="none" stroke="#ad5641" stroke-linecap="round" stroke-linejoin="round" stroke-miterlimit="10" stroke-width="0.992"/>
              <line id="Línea_758" data-name="Línea 758" x1="2.834" y1="2.061" transform="translate(66.172 40.897)" fill="none" stroke="#ad5641" stroke-linecap="round" stroke-linejoin="round" stroke-miterlimit="10" stroke-width="0.992"/>
              <line id="Línea_759" data-name="Línea 759" x1="2.261" y1="1.223" transform="translate(64.259 44.473)" fill="none" stroke="#ad5641" stroke-linecap="round" stroke-linejoin="round" stroke-miterlimit="10" stroke-width="0.992"/>
              <path id="Trazado_1043753" data-name="Trazado 1043753" d="M208.928,284.47a6.548,6.548,0,0,0,5.292,3.027" transform="translate(-145.381 -237.35)" fill="none" stroke="#ad5641" stroke-linecap="round" stroke-linejoin="round" stroke-miterlimit="10" stroke-width="0.992"/>
              <line id="Línea_760" data-name="Línea 760" x2="2.572" y2="1.519" transform="translate(73.281 36.59)" fill="none" stroke="#ad5641" stroke-linecap="round" stroke-linejoin="round" stroke-miterlimit="10" stroke-width="0.992"/>
              <path id="Trazado_1043754" data-name="Trazado 1043754" d="M131.391,321.34c-.987,3.661,2.057,5.554,4.2,6.048.165,1.934.931,4.3,2.551,3.908,1.687-.411.494-4.484.494-4.484s.535,4.525,2.468,3.991c1.694-.468.411-6.006.411-6.006s-.778,5.368,1.851,4.443c2.222-.782-.247-6.418-.247-6.418s.905,4.772,3.085,3.661c2.346-1.2-3.085-11.807-9.38-10.82S131.391,321.34,131.391,321.34Z" transform="translate(-116.848 -248.776)" fill="#e89f7c"/>
              <line id="Línea_761" data-name="Línea 761" x2="0.37" y2="1.975" transform="translate(21.784 78.035)" fill="none" stroke="#ad5641" stroke-linecap="round" stroke-linejoin="round" stroke-miterlimit="10" stroke-width="0.992"/>
              <path id="Trazado_1043755" data-name="Trazado 1043755" d="M147.1,332.08a13.4,13.4,0,0,1,.658,3.085" transform="translate(-122.685 -254.827)" fill="none" stroke="#ad5641" stroke-linecap="round" stroke-linejoin="round" stroke-miterlimit="10" stroke-width="0.992"/>
              <path id="Trazado_1043756" data-name="Trazado 1043756" d="M150.352,329.155a4.549,4.549,0,0,1,.741,1.44" transform="translate(-123.878 -253.753)" fill="none" stroke="#ad5641" stroke-linecap="round" stroke-linejoin="round" stroke-miterlimit="10" stroke-width="0.992"/>
            </g>
            <g id="Grupo_1180675" data-name="Grupo 1180675" transform="translate(196.848 115.777)">
              <path id="Trazado_1043757" data-name="Trazado 1043757" d="M459.917,248.661c.288,2.9-2.178,5.527-5.509,5.857s-6.263-1.756-6.552-4.661,2.178-5.527,5.509-5.857S459.629,245.756,459.917,248.661Z" transform="translate(-425.38 -226.467)" fill="#762f0e"/>
              <path id="Trazado_1043758" data-name="Trazado 1043758" d="M512.741,291.456c13.271,17.86,22.467,4.592,23.3-9.42l-11.544-2.5Z" transform="translate(-449.207 -239.523)" fill="#e89f7c"/>
              <path id="Trazado_1043759" data-name="Trazado 1043759" d="M547.866,274.106c.371-5.6-1.041-6.548-3.146-7.685s-3.377,1.882-1.726,3.346S547.866,274.106,547.866,274.106Z" transform="translate(-460.034 -234.618)" fill="#e89f7c"/>
              <g id="Grupo_1180670" data-name="Grupo 1180670" transform="translate(22.942 102.017)">
                <g id="Grupo_1180669" data-name="Grupo 1180669" transform="translate(3.207)">
                  <path id="Trazado_1043760" data-name="Trazado 1043760" d="M476.68,378.117l-.55,7.709-9.59-.356c.067-2.209.581-5.718.67-7.965C470.056,378.17,473.669,378.929,476.68,378.117Z" transform="translate(-458.396 -377.504)" fill="#e89f7c"/>
                  <path id="Trazado_1043761" data-name="Trazado 1043761" d="M472.256,397.963a51.416,51.416,0,0,0-.116-10.157c-2.8,1.3-10.493-.352-10.493-.352s-.81,2.142-1.207,3.747c-1.372.48-4.716,1.976-6.768,3.018a9.329,9.329,0,0,1,6.518,6.747,11.214,11.214,0,0,0,3.284-.877A33.093,33.093,0,0,1,472.256,397.963Z" transform="translate(-453.672 -381.156)" fill="#42474b"/>
                  <path id="Trazado_1043762" data-name="Trazado 1043762" d="M456.581,396.728s2.95.781,3.711,1.73" transform="translate(-454.74 -384.561)" fill="none" stroke="#fff" stroke-linecap="round" stroke-linejoin="round" stroke-miterlimit="10" stroke-width="0.992"/>
                  <path id="Trazado_1043763" data-name="Trazado 1043763" d="M460.956,394.752s2.383.711,2.917,1.743" transform="translate(-456.346 -383.835)" fill="none" stroke="#fff" stroke-linecap="round" stroke-linejoin="round" stroke-miterlimit="10" stroke-width="0.992"/>
                  <path id="Trazado_1043764" data-name="Trazado 1043764" d="M464.365,393.374s2.332.293,2.982,1.163" transform="translate(-457.597 -383.33)" fill="none" stroke="#fff" stroke-linecap="round" stroke-linejoin="round" stroke-miterlimit="10" stroke-width="0.992"/>
                  <line id="Línea_762" data-name="Línea 762" x2="3.765" y2="0.953" transform="translate(7.418 7.872)" fill="none" stroke="#fff" stroke-linecap="round" stroke-linejoin="round" stroke-miterlimit="10" stroke-width="0.992"/>
                  <path id="Trazado_1043765" data-name="Trazado 1043765" d="M468.134,388.831s-.8,3.052-1.591,3.724-6.523,4.176-6.523,4.176" transform="translate(-456.002 -381.662)" fill="none" stroke="#21262b" stroke-linecap="round" stroke-linejoin="round" stroke-miterlimit="10" stroke-width="0.992"/>
                  <path id="Trazado_1043766" data-name="Trazado 1043766" d="M477.968,402.616s-.047-3.951,3.3-4.133" transform="translate(-462.591 -385.205)" fill="none" stroke="#21262b" stroke-linecap="round" stroke-linejoin="round" stroke-miterlimit="10" stroke-width="0.992"/>
                </g>
                <path id="Trazado_1043767" data-name="Trazado 1043767" d="M461.614,404.013a11.176,11.176,0,0,1-3.284.877h0a9.326,9.326,0,0,0-6.518-6.747c-1.9.958-3.765,3.47-3.051,7.465,3.706,2.035,10.408,2.479,12.794.756,1-.722,6.074-1.861,8.5-2.2a20.11,20.11,0,0,0,.337-2.281A33.113,33.113,0,0,0,461.614,404.013Z" transform="translate(-448.605 -385.08)" fill="#585c60"/>
                <path id="Trazado_1043768" data-name="Trazado 1043768" d="M458.359,408.2a17.27,17.27,0,0,1-9.675-1.044" transform="translate(-448.634 -388.388)" fill="none" stroke="#21262b" stroke-linecap="round" stroke-linejoin="round" stroke-miterlimit="10" stroke-width="0.992"/>
              </g>
              <path id="Trazado_1043769" data-name="Trazado 1043769" d="M493,272.04c11.145.007,15.507,4.1,23.106,8.635a72,72,0,0,0-5.216,14.839L497.7,288.2Z" transform="translate(-441.961 -236.773)" fill="#6073c9"/>
              <path id="Trazado_1043770" data-name="Trazado 1043770" d="M448.936,296.971s-5.873,11.321-4.806,13.981,7.889,12.489,7.889,12.489l5.637-9.089-1.822-5.16,3.668-8.848Z" transform="translate(-423.973 -245.924)" fill="#e89f7c"/>
              <g id="Grupo_1180672" data-name="Grupo 1180672" transform="translate(55.456 102.414)">
                <g id="Grupo_1180671" data-name="Grupo 1180671">
                  <path id="Trazado_1043771" data-name="Trazado 1043771" d="M499.977,380.214l1.211,8.127,10.793-.605c-.175-2.275-.634-7.333-1.115-9.605C508.112,379.3,503.154,380.522,499.977,380.214Z" transform="translate(-499.977 -378.13)" fill="#e89f7c"/>
                  <path id="Trazado_1043772" data-name="Trazado 1043772" d="M501.838,401.944c-.689-5.636-.987-10.477-.987-10.477,2.113,1.277,11.881-.916,11.881-.916s.246,2.07.63,3.715c1.766,1.682,4.454,3.127,5.489,5.447-2,.933-7.3,1.242-7.713,5.034a6.54,6.54,0,0,1-2.443-.832A20.306,20.306,0,0,0,501.838,401.944Z" transform="translate(-500.298 -382.689)" fill="#42474b"/>
                  <path id="Trazado_1043773" data-name="Trazado 1043773" d="M520.568,400.521s-3.616.089-4.113,1.084" transform="translate(-506.026 -386.349)" fill="none" stroke="#fff" stroke-linecap="round" stroke-linejoin="round" stroke-miterlimit="10" stroke-width="0.992"/>
                  <path id="Trazado_1043774" data-name="Trazado 1043774" d="M518.421,398.568s-3.5.35-3.823,1.425" transform="translate(-505.344 -385.632)" fill="none" stroke="#fff" stroke-linecap="round" stroke-linejoin="round" stroke-miterlimit="10" stroke-width="0.992"/>
                  <path id="Trazado_1043775" data-name="Trazado 1043775" d="M516.362,396.861s-3.363.5-3.784,1.407" transform="translate(-504.602 -385.006)" fill="none" stroke="#fff" stroke-linecap="round" stroke-linejoin="round" stroke-miterlimit="10" stroke-width="0.992"/>
                  <line id="Línea_763" data-name="Línea 763" x1="4.366" y2="1.208" transform="translate(6.791 9.631)" fill="none" stroke="#fff" stroke-linecap="round" stroke-linejoin="round" stroke-miterlimit="10" stroke-width="0.992"/>
                  <path id="Trazado_1043776" data-name="Trazado 1043776" d="M509.591,392.676s.764,3.127,1.38,3.8,5,4.16,5,4.16" transform="translate(-503.506 -383.47)" fill="none" stroke="#21262b" stroke-linecap="round" stroke-linejoin="round" stroke-miterlimit="10" stroke-width="0.992"/>
                  <path id="Trazado_1043777" data-name="Trazado 1043777" d="M517.567,391.007s.225,3.073.841,3.749,5,4.16,5,4.16" transform="translate(-506.434 -382.857)" fill="none" stroke="#21262b" stroke-linecap="round" stroke-linejoin="round" stroke-miterlimit="10" stroke-width="0.992"/>
                  <path id="Trazado_1043778" data-name="Trazado 1043778" d="M503.4,407.03s0-3.716-1.436-4.219" transform="translate(-500.707 -387.19)" fill="none" stroke="#21262b" stroke-linecap="round" stroke-linejoin="round" stroke-miterlimit="10" stroke-width="0.992"/>
                </g>
                <path id="Trazado_1043779" data-name="Trazado 1043779" d="M509.269,407.976c-.146-5.1,3.836-6.7,7.22-6.3s4.413,3.368,4.131,7.5c-2.577,2.178-9.328,2.944-11.168,1.222-.771-.722-4.871-1.756-6.66-2.049-.183-.962-.267-1.406-.382-2.343A20.312,20.312,0,0,1,509.269,407.976Z" transform="translate(-500.87 -386.751)" fill="#585c60"/>
                <path id="Trazado_1043780" data-name="Trazado 1043780" d="M513.277,411.213a11.821,11.821,0,0,0,11.3-.525" transform="translate(-504.859 -390.081)" fill="none" stroke="#21262b" stroke-linecap="round" stroke-linejoin="round" stroke-miterlimit="10" stroke-width="0.992"/>
              </g>
              <path id="Trazado_1043781" data-name="Trazado 1043781" d="M494.009,320.775l6.128,40.078a40.222,40.222,0,0,1-6.948,2.158,43.488,43.488,0,0,1-7.012-.018c-2.193-9-1.944-15.926-4.558-28.426l-3.244,25.395a35.282,35.282,0,0,1-8.792.561,29.549,29.549,0,0,1-4.994-1.459c1.335-13.124,3.479-24.886,4.813-38.01Z" transform="translate(-431.531 -254.662)" fill="#5f823c"/>
              <path id="Trazado_1043782" data-name="Trazado 1043782" d="M485.854,334.72l2.556.841,1.133,5.176" transform="translate(-439.337 -259.781)" fill="none" stroke="#4c6930" stroke-linecap="round" stroke-linejoin="round" stroke-miterlimit="10" stroke-width="0.992"/>
              <path id="Trazado_1043783" data-name="Trazado 1043783" d="M504.564,323.67s-.008,8.35,3.623,7" transform="translate(-446.205 -255.725)" fill="none" stroke="#4c6930" stroke-linecap="round" stroke-linejoin="round" stroke-miterlimit="10" stroke-width="0.992"/>
              <path id="Trazado_1043784" data-name="Trazado 1043784" d="M495.607,303.891c-8.392,7.255-28.119,3.128-28.119,3.128l-.822-20.839c-1.256-5.317,2.534-10.51,7.811-11.925a32.36,32.36,0,0,1,11.563-.978,8.081,8.081,0,0,1,6.97,6.04C494.388,284.9,494.478,291.646,495.607,303.891Z" transform="translate(-432.205 -237.165)" fill="#6073c9"/>
              <path id="Trazado_1043785" data-name="Trazado 1043785" d="M466.379,275.342c-11.206,2.453-14.5,7.82-19.1,17.053,8.039,5.251,13.888,5.059,13.888,5.059Z" transform="translate(-425.178 -237.985)" fill="#6073c9"/>
              <path id="Trazado_1043786" data-name="Trazado 1043786" d="M487.323,272.061c1.833,5.957-10.158,7.456-11.49,2.177C475.834,274.237,483.53,271.908,487.323,272.061Z" transform="translate(-435.659 -236.778)" fill="#e89f7c"/>
              <path id="Trazado_1043787" data-name="Trazado 1043787" d="M448.9,299.613s5.759,4.407,11.5,4.548" transform="translate(-425.773 -246.894)" fill="none" stroke="#495aab" stroke-linecap="round" stroke-linejoin="round" stroke-miterlimit="10" stroke-width="0.992"/>
              <line id="Línea_764" data-name="Línea 764" x1="0.844" y1="10.606" transform="translate(34.138 49.106)" fill="none" stroke="#495aab" stroke-linecap="round" stroke-linejoin="round" stroke-miterlimit="10" stroke-width="0.992"/>
              <path id="Trazado_1043788" data-name="Trazado 1043788" d="M510.227,293.654c-.05-.582-.6-5.579-.6-5.579" transform="translate(-448.064 -242.659)" fill="none" stroke="#c24a7f" stroke-linecap="round" stroke-linejoin="round" stroke-miterlimit="10" stroke-width="0.992"/>
              <line id="Línea_765" data-name="Línea 765" y1="14.321" x2="5.675" transform="translate(67.094 43.523)" fill="none" stroke="#495aab" stroke-linecap="round" stroke-linejoin="round" stroke-miterlimit="10" stroke-width="0.992"/>
              <path id="Trazado_1043789" data-name="Trazado 1043789" d="M473.872,274.656c1.158,5.758,15.451,5.4,14.073-2.57" transform="translate(-434.939 -236.789)" fill="none" stroke="#495aab" stroke-linecap="round" stroke-linejoin="round" stroke-miterlimit="10" stroke-width="0.992"/>
              <path id="Trazado_1043790" data-name="Trazado 1043790" d="M511.247,377.445s-9.584,2.454-14.025,1.87" transform="translate(-443.51 -275.465)" fill="none" stroke="#4c6930" stroke-linecap="round" stroke-linejoin="round" stroke-miterlimit="10" stroke-width="0.992"/>
              <path id="Trazado_1043791" data-name="Trazado 1043791" d="M479.32,375.31s-10.285.117-13.674-1.169" transform="translate(-431.919 -274.252)" fill="none" stroke="#4c6930" stroke-linecap="round" stroke-linejoin="round" stroke-miterlimit="10" stroke-width="0.992"/>
              <line id="Línea_766" data-name="Línea 766" x2="5.631" y2="34.079" transform="translate(60.958 68.334)" fill="none" stroke="#4c6930" stroke-linecap="round" stroke-linejoin="round" stroke-miterlimit="10" stroke-width="0.992"/>
              <path id="Trazado_1043792" data-name="Trazado 1043792" d="M476.209,268l1.089,5.451,9.56-1.5-.484-5.668" transform="translate(-435.796 -234.661)" fill="#e89f7c"/>
              <g id="Grupo_1180674" data-name="Grupo 1180674" transform="translate(0 19.007)">
                <g id="Grupo_1180673" data-name="Grupo 1180673">
                  <path id="Trazado_1043793" data-name="Trazado 1043793" d="M429.181,345.851l-9.912-8.458,76.413-90.982a9.027,9.027,0,0,1,6.333,1.63,9.242,9.242,0,0,1,3.579,6.828Z" transform="translate(-414.895 -246.349)" fill="#f1c754"/>
                  <line id="Línea_767" data-name="Línea 767" x1="76.236" y2="90.811" transform="translate(6.375 0.141)" fill="none" stroke="#dea94d" stroke-linejoin="round" stroke-miterlimit="10" stroke-width="0.992"/>
                  <line id="Línea_768" data-name="Línea 768" x1="75.896" y2="91.294" transform="translate(14.044 6.202)" fill="none" stroke="#dea94d" stroke-linejoin="round" stroke-miterlimit="10" stroke-width="0.992"/>
                  <line id="Línea_769" data-name="Línea 769" x1="77.036" y2="91.929" transform="translate(8.676 0.987)" fill="none" stroke="#dea94d" stroke-linejoin="round" stroke-miterlimit="10" stroke-width="0.992"/>
                  <line id="Línea_770" data-name="Línea 770" x1="76.557" y2="92.445" transform="translate(12.255 3.524)" fill="none" stroke="#dea94d" stroke-linejoin="round" stroke-miterlimit="10" stroke-width="0.992"/>
                  <path id="Trazado_1043794" data-name="Trazado 1043794" d="M426.528,398.374l.069-.079a1.812,1.812,0,0,0,.008-2.523,1.834,1.834,0,0,0-2.5.422l-.053.063h0l.068-.08a1.812,1.812,0,0,0,.008-2.523,1.834,1.834,0,0,0-2.5.422l-.053.063h0l.069-.08a1.812,1.812,0,0,0,.008-2.523,1.834,1.834,0,0,0-2.5.422l-.053.063h0l.069-.08a1.812,1.812,0,0,0,.008-2.523,1.747,1.747,0,0,0-2.446.353c-.423.5-4.353,15.174-4.353,15.174s13.814-6.161,14.224-6.633l-.054.063Z" transform="translate(-412.358 -298.736)" fill="#edb2a4"/>
                  <path id="Trazado_1043795" data-name="Trazado 1043795" d="M413.838,405.6c-.809,2.943-1.469,5.406-1.469,5.406s2.539-1.14,5.476-2.48A5.748,5.748,0,0,0,413.838,405.6Z" transform="translate(-412.362 -304.808)" fill="#f1c754"/>
                </g>
              </g>
              <path id="Trazado_1043796" data-name="Trazado 1043796" d="M529.036,279.861c-.78-1.39-.691-2.648.976-2.872-2.162-1.315.385-4.118,1.475-3.234-2.757-2,.461-4.339,2.154-3.2-2.229-2.347.6-3.68,3.243-2.465,2.427,1.117,6.324,2.358,5.961,6.551a8.126,8.126,0,0,1-.994,3.025C538.874,283.29,531.718,284.638,529.036,279.861Z" transform="translate(-455.014 -235.155)" fill="#e89f7c"/>
              <line id="Línea_771" data-name="Línea 771" x1="3.235" y1="1.897" transform="translate(78.458 35.217)" fill="none" stroke="#ad5641" stroke-linecap="round" stroke-linejoin="round" stroke-miterlimit="10" stroke-width="0.992"/>
              <line id="Línea_772" data-name="Línea 772" x1="3.001" y1="1.81" transform="translate(76.102 38.28)" fill="none" stroke="#ad5641" stroke-linecap="round" stroke-linejoin="round" stroke-miterlimit="10" stroke-width="0.992"/>
              <line id="Línea_773" data-name="Línea 773" x1="2.358" y1="1.025" transform="translate(74.503 42.007)" fill="none" stroke="#ad5641" stroke-linecap="round" stroke-linejoin="round" stroke-miterlimit="10" stroke-width="0.992"/>
              <path id="Trazado_1043797" data-name="Trazado 1043797" d="M529.311,286.952a6.547,6.547,0,0,0,5.533,2.561" transform="translate(-455.289 -242.246)" fill="none" stroke="#ad5641" stroke-linecap="round" stroke-linejoin="round" stroke-miterlimit="10" stroke-width="0.992"/>
              <line id="Línea_774" data-name="Línea 774" x2="2.692" y2="1.292" transform="translate(82.815 33.378)" fill="none" stroke="#ad5641" stroke-linecap="round" stroke-linejoin="round" stroke-miterlimit="10" stroke-width="0.992"/>
              <path id="Trazado_1043798" data-name="Trazado 1043798" d="M455.563,330.013c-.669,3.733,2.527,5.356,4.7,5.665.33,1.912,1.3,4.207,2.877,3.675,1.645-.554.106-4.51.106-4.51s.922,4.463,2.8,3.763c1.647-.612-.106-6.02-.106-6.02s-.313,5.415,2.226,4.268c2.146-.97-.8-6.373-.8-6.373s1.312,4.677,3.389,3.383c2.235-1.392-4.089-11.5-10.275-9.974S455.563,330.013,455.563,330.013Z" transform="translate(-428.179 -255.749)" fill="#e89f7c"/>
              <line id="Línea_775" data-name="Línea 775" x2="0.539" y2="1.935" transform="translate(35.068 79.094)" fill="none" stroke="#ad5641" stroke-linecap="round" stroke-linejoin="round" stroke-miterlimit="10" stroke-width="0.992"/>
              <path id="Trazado_1043799" data-name="Trazado 1043799" d="M471.8,339.7a13.4,13.4,0,0,1,.921,3.018" transform="translate(-434.179 -261.609)" fill="none" stroke="#ad5641" stroke-linecap="round" stroke-linejoin="round" stroke-miterlimit="10" stroke-width="0.992"/>
              <path id="Trazado_1043800" data-name="Trazado 1043800" d="M474.79,336.5a4.546,4.546,0,0,1,.861,1.371" transform="translate(-435.276 -260.436)" fill="none" stroke="#ad5641" stroke-linecap="round" stroke-linejoin="round" stroke-miterlimit="10" stroke-width="0.992"/>
              <path id="Trazado_1043801" data-name="Trazado 1043801" d="M486.219,221.316c10.561-2.039,13.9,11.65,9.85,14.124,4.211,3.97-1.359,14.191-5.423,9S480.1,218.472,486.219,221.316Z" transform="translate(-438.549 -218.055)" fill="#762f0e"/>
              <path id="Trazado_1043802" data-name="Trazado 1043802" d="M501.138,240.933a4.661,4.661,0,1,1-5.715-3.283A4.661,4.661,0,0,1,501.138,240.933Z" transform="translate(-441.585 -224.089)" fill="#e89f7c"/>
              <path id="Trazado_1043803" data-name="Trazado 1043803" d="M481.225,238.947c2.54,9.4-3.008,15.344-11.234,17.567S453.977,256.4,451.437,247s2.834-13.208,11.06-15.432S478.685,229.55,481.225,238.947Z" transform="translate(-426.47 -221.487)" fill="#e89f7c"/>
              <path id="Trazado_1043804" data-name="Trazado 1043804" d="M472.771,265.183c1.121,1.136,3.893.1,3.785-1.995" transform="translate(-434.535 -233.523)" fill="none" stroke="#ad5641" stroke-linecap="round" stroke-linejoin="round" stroke-miterlimit="10" stroke-width="0.992"/>
              <path id="Trazado_1043805" data-name="Trazado 1043805" d="M471.059,258.643c-1.3-.705-2.518,1.813.492,2.249" transform="translate(-433.399 -231.809)" fill="none" stroke="#ad5641" stroke-linecap="round" stroke-linejoin="round" stroke-miterlimit="10" stroke-width="0.992"/>
              <path id="Trazado_1043806" data-name="Trazado 1043806" d="M478.05,254.4c.306.746.993,1.169,1.534.947a1.308,1.308,0,0,0,.426-1.752c-.306-.745-.993-1.169-1.534-.947A1.309,1.309,0,0,0,478.05,254.4Z" transform="translate(-436.419 -229.634)" fill="#373c40"/>
              <path id="Trazado_1043807" data-name="Trazado 1043807" d="M459.8,260.975c.306.745.993,1.169,1.534.947a1.309,1.309,0,0,0,.427-1.752c-.306-.745-.993-1.169-1.534-.947A1.307,1.307,0,0,0,459.8,260.975Z" transform="translate(-429.721 -232.046)" fill="#373c40"/>
              <path id="Trazado_1043808" data-name="Trazado 1043808" d="M476.015,250.118a3.069,3.069,0,0,1,2.508-.5" transform="translate(-435.725 -228.512)" fill="none" stroke="#762f0e" stroke-linecap="round" stroke-linejoin="round" stroke-miterlimit="10" stroke-width="0.992"/>
              <path id="Trazado_1043809" data-name="Trazado 1043809" d="M459.773,256.382a2.027,2.027,0,0,0-2.23,1" transform="translate(-428.945 -231.004)" fill="none" stroke="#762f0e" stroke-linecap="round" stroke-linejoin="round" stroke-miterlimit="10" stroke-width="0.992"/>
              <path id="Trazado_1043810" data-name="Trazado 1043810" d="M476.119,223.874c-5.137-10.4-24.482-10.039-32.056.913-7.782,11.253,7.918,5.587,9.953,3.261" transform="translate(-423.207 -216.318)" fill="#762f0e"/>
              <path id="Trazado_1043811" data-name="Trazado 1043811" d="M477.63,255.088a5.809,5.809,0,0,0,.557-.2c2.529-1.068,3.664-3.561,2.584-5.675a4.924,4.924,0,0,0-5.88-2.068,5.8,5.8,0,0,0-.557.2c-2.529,1.068-3.663,3.561-2.584,5.675A4.863,4.863,0,0,0,477.63,255.088Z" transform="translate(-434.01 -227.539)" fill="none" stroke="#373c40" stroke-linecap="round" stroke-linejoin="round" stroke-miterlimit="10" stroke-width="0.992"/>
              <path id="Trazado_1043812" data-name="Trazado 1043812" d="M459,261.575q.233-.071.46-.163a4.936,4.936,0,0,0,2.845-2.751,3.677,3.677,0,0,0-.1-2.887,4.838,4.838,0,0,0-5.888-2.154c-.154.047-.308.1-.46.163a3.84,3.84,0,0,0-2.163,5.514A4.179,4.179,0,0,0,459,261.575Z" transform="translate(-427.361 -229.917)" fill="none" stroke="#373c40" stroke-linecap="round" stroke-linejoin="round" stroke-miterlimit="10" stroke-width="0.992"/>
              <path id="Trazado_1043813" data-name="Trazado 1043813" d="M470.123,255.879s-1.91-.547-2.837.684" transform="translate(-432.521 -230.795)" fill="none" stroke="#373c40" stroke-linecap="round" stroke-linejoin="round" stroke-miterlimit="10" stroke-width="0.992"/>
              <path id="Trazado_1043814" data-name="Trazado 1043814" d="M477.388,227.15c2.546,8.223,1.006,14.486-2.039,8.329-1.441,1.685-5.737-1.994-5.856-5.189.02,7.412-12.2,11.315-9.975,3.73-7.27,8.085-13.216,9.5-15.807,4.825C438.068,228.675,462.974,208.894,477.388,227.15Z" transform="translate(-423.567 -217.56)" fill="#762f0e"/>
              <line id="Línea_776" data-name="Línea 776" y1="7.986" x2="7.705" transform="translate(46.688 13.215)" fill="none" stroke="#373c40" stroke-linecap="round" stroke-linejoin="round" stroke-miterlimit="10" stroke-width="0.992"/>
              <path id="Trazado_1043815" data-name="Trazado 1043815" d="M449.991,242.293s4.423-6.811,11.982-9.119" transform="translate(-426.172 -222.505)" fill="none" stroke="#6b2b0d" stroke-miterlimit="10" stroke-width="0.992"/>
              <path id="Trazado_1043816" data-name="Trazado 1043816" d="M444.125,235.547c3.315-6.56,11.786-8.249,11.786-8.249" transform="translate(-424.019 -220.349)" fill="none" stroke="#6b2b0d" stroke-miterlimit="10" stroke-width="0.992"/>
              <path id="Trazado_1043817" data-name="Trazado 1043817" d="M454.719,232.79a27.816,27.816,0,0,1,14.785-6.565" transform="translate(-427.908 -219.955)" fill="none" stroke="#6b2b0d" stroke-miterlimit="10" stroke-width="0.992"/>
              <path id="Trazado_1043818" data-name="Trazado 1043818" d="M453.974,224.759s4.154-3.811,12.96-3.551" transform="translate(-427.634 -218.108)" fill="none" stroke="#6b2b0d" stroke-miterlimit="10" stroke-width="0.992"/>
              <path id="Trazado_1043819" data-name="Trazado 1043819" d="M476.634,232.23s-.215,4.978-3.133,6.967" transform="translate(-434.802 -222.159)" fill="none" stroke="#6b2b0d" stroke-miterlimit="10" stroke-width="0.992"/>
              <path id="Trazado_1043820" data-name="Trazado 1043820" d="M482.106,229.486a16.334,16.334,0,0,1-2.487,6.336" transform="translate(-437.048 -221.152)" fill="none" stroke="#6b2b0d" stroke-miterlimit="10" stroke-width="0.992"/>
              <path id="Trazado_1043821" data-name="Trazado 1043821" d="M487.4,230s.909,3.45,2.45,4.713" transform="translate(-439.906 -221.34)" fill="none" stroke="#6b2b0d" stroke-miterlimit="10" stroke-width="0.992"/>
              <path id="Trazado_1043822" data-name="Trazado 1043822" d="M491.172,227.388S494.3,230.335,494.6,232" transform="translate(-441.289 -220.382)" fill="none" stroke="#6b2b0d" stroke-miterlimit="10" stroke-width="0.992"/>
              <path id="Trazado_1043823" data-name="Trazado 1043823" d="M492.924,224.753s3.841,1.6,5.409,4.562" transform="translate(-441.932 -219.414)" fill="none" stroke="#6b2b0d" stroke-miterlimit="10" stroke-width="0.992"/>
            </g>
            <g id="Grupo_1180676" data-name="Grupo 1180676" transform="translate(74.138 162.172)">
              <path id="Trazado_1043824" data-name="Trazado 1043824" d="M256.952,379.728l-5.079-2.132s-.206-6.641,6.294-7.751S263.294,379.463,256.952,379.728Z" transform="translate(-230.737 -319.041)" fill="#ab3a15"/>
              <path id="Trazado_1043825" data-name="Trazado 1043825" d="M231.387,383.692l-5.4-2.144s.5-6.408,7-7.518S237.728,383.428,231.387,383.692Z" transform="translate(-221.234 -320.577)" fill="#ab3a15"/>
              <path id="Trazado_1043826" data-name="Trazado 1043826" d="M259,365.788l5.078,2.132s.206,6.641-6.294,7.751S252.659,366.053,259,365.788Z" transform="translate(-231.345 -317.581)" fill="#ab3a15"/>
              <path id="Trazado_1043827" data-name="Trazado 1043827" d="M248.112,338.447l5,1.994s.206,6.641-6.294,7.751S241.77,338.711,248.112,338.447Z" transform="translate(-227.331 -307.545)" fill="#ab3a15"/>
              <path id="Trazado_1043828" data-name="Trazado 1043828" d="M232.112,351.511l-5.079-2.132s-.206-6.641,6.294-7.751S238.453,351.247,232.112,351.511Z" transform="translate(-221.619 -308.683)" fill="#ab3a15"/>
              <text id="a-4" data-name="a" transform="translate(0 60)" fill="#ab3a15" font-size="56" font-family="SegoeUI, Segoe UI"><tspan x="0" y="0">a</tspan></text>
              <text id="a-5" data-name="a" transform="translate(5.073 62.022)" fill="#dd5325" font-size="56" font-family="SegoeUI, Segoe UI"><tspan x="0" y="0">a</tspan></text>
            </g>
            <g id="Grupo_1180677" data-name="Grupo 1180677" transform="translate(147.854 166.302)">
              <path id="Trazado_1043829" data-name="Trazado 1043829" d="M366.225,401.234c4.069,0,11.415-2.061,14.322-5.391S365.75,393.677,366.225,401.234Z" transform="translate(-346.426 -332.096)" fill="#495aab"/>
              <path id="Trazado_1043830" data-name="Trazado 1043830" d="M341.85,334.894c-.053-1.532,5.5-2.854,7.98-2.589s.211,5.6.211,5.6Z" transform="translate(-337.482 -309.407)" fill="#495aab"/>
              <text id="b-4" data-name="b" transform="translate(6.516 59)" fill="#495aab" font-size="55" font-family="SegoeUI, Segoe UI"><tspan x="0" y="0">b</tspan></text>
              <text id="b-5" data-name="b" transform="translate(0 61.325)" fill="#6073c9" font-size="55" font-family="SegoeUI, Segoe UI"><tspan x="0" y="0">b</tspan></text>
            </g>
            <g id="Grupo_1180678" data-name="Grupo 1180678" transform="translate(304.268 136.978)">
              <path id="Trazado_1043831" data-name="Trazado 1043831" d="M635.9,392.374c.158,2.748-4.175,4.6-9.671,4.968C620.207,394.752,634.793,391.106,635.9,392.374Z" transform="translate(-597.754 -302.05)" fill="#814bd9"/>
              <path id="Trazado_1043832" data-name="Trazado 1043832" d="M592.34,336.262c6.077-8.35,12.894-8.614,17.228-8.614s-2.061,5.232-2.272,5.337-10.146,3.277-10.358,3.329S592.34,336.262,592.34,336.262Z" transform="translate(-585.846 -278.386)" fill="#814bd9"/>
              <path id="Trazado_1043833" data-name="Trazado 1043833" d="M629.58,356.791a10.013,10.013,0,0,0,7.029-3.7c1.109-1.691-5.073-4.065-5.073-4.065Z" transform="translate(-599.516 -286.232)" fill="#814bd9"/>
              <text id="c-4" data-name="c" transform="translate(4.416 85)" fill="#814bd9" font-size="79" font-family="SegoeUI, Segoe UI"><tspan x="0" y="0">c</tspan></text>
              <text id="c-5" data-name="c" transform="translate(0 87.207)" fill="#9a6fe1" font-size="79" font-family="SegoeUI, Segoe UI"><tspan x="0" y="0">c</tspan></text>
            </g>
            <g id="Grupo_1180679" data-name="Grupo 1180679" transform="translate(4.537 240.917)">
              <path id="Trazado_1043834" data-name="Trazado 1043834" d="M165.251,419.333,111.03,414.04c-1.047-.1-2.141,2.32-2.442,5.409s.3,5.677,1.35,5.779l54.221,5.292c1.047.1,2.141-2.32,2.442-5.409S166.3,419.435,165.251,419.333Z" transform="translate(-108.51 -414.037)" fill="#dd5325"/>
              <path id="Trazado_1043835" data-name="Trazado 1043835" d="M118.418,420.408c.3-3.089,1.395-5.511,2.442-5.409l-1.839-.18c-1.047-.1-2.141,2.32-2.442,5.409s.3,5.677,1.35,5.779l1.839.18C118.72,426.085,118.116,423.5,118.418,420.408Z" transform="translate(-111.444 -414.323)" fill="#373c40"/>
              <path id="Trazado_1043836" data-name="Trazado 1043836" d="M160.453,424.512c.3-3.09,1.395-5.511,2.442-5.409l-38.245-3.734c-1.048-.1-2.141,2.32-2.442,5.409s.3,5.677,1.35,5.779L161.8,430.29C160.756,430.188,160.151,427.6,160.453,424.512Z" transform="translate(-113.51 -414.525)" fill="#373c40"/>
              <path id="Trazado_1043837" data-name="Trazado 1043837" d="M187.057,427.109c.3-3.09,1.395-5.511,2.442-5.409l-1.839-.18c-1.048-.1-2.141,2.32-2.442,5.409s.3,5.677,1.35,5.779l1.839.18C187.359,432.785,186.755,430.2,187.057,427.109Z" transform="translate(-136.64 -416.783)" fill="#373c40"/>
              <path id="Trazado_1043838" data-name="Trazado 1043838" d="M198.049,428.181c-.3,3.089-1.395,5.511-2.442,5.409s-1.652-2.69-1.35-5.779,1.395-5.511,2.442-5.409S198.351,425.092,198.049,428.181Z" transform="translate(-139.958 -417.107)" fill="#e37550"/>
              <path id="Trazado_1043839" data-name="Trazado 1043839" d="M210.166,428.871c-.166-.016-11.915-4.387-12.531-4.447-.817-.08-1.67,1.81-1.905,4.22s.236,4.428,1.053,4.508c.617.06,12.989-1.956,13.155-1.939.219.021.448-.485.511-1.132S210.385,428.893,210.166,428.871Z" transform="translate(-140.505 -417.849)" fill="#dd5325"/>
              <path id="Trazado_1043840" data-name="Trazado 1043840" d="M218.55,432.661c-.063.647-.292,1.153-.511,1.132s-.346-.563-.282-1.209.292-1.154.511-1.132S218.613,432.014,218.55,432.661Z" transform="translate(-148.607 -420.429)" fill="#e37550"/>
              <path id="Trazado_1043841" data-name="Trazado 1043841" d="M155.518,428.648l-25.377-2.477a2.327,2.327,0,0,1-2.084-2.536l.026-.267a2.328,2.328,0,0,1,2.535-2.084l25.377,2.477a2.328,2.328,0,0,1,2.084,2.535l-.026.267A2.328,2.328,0,0,1,155.518,428.648Z" transform="translate(-115.681 -416.693)" fill="#dd5325"/>
            </g>
            <g id="Grupo_1180680" data-name="Grupo 1180680" transform="translate(279.261 238.209)">
              <path id="Trazado_1043842" data-name="Trazado 1043842" d="M563.425,422.37,617.886,421c1.052-.027,1.841-2.564,1.763-5.667s-.994-5.6-2.046-5.571l-54.461,1.373c-1.052.027-1.841,2.564-1.763,5.667S562.373,422.4,563.425,422.37Z" transform="translate(-549.472 -409.759)" fill="#6073c9"/>
              <path id="Trazado_1043843" data-name="Trazado 1043843" d="M641.318,415.58c.078,3.1-.711,5.641-1.763,5.667l1.847-.047c1.052-.027,1.841-2.564,1.763-5.667s-.994-5.6-2.046-5.571l-1.847.047C640.323,409.982,641.239,412.476,641.318,415.58Z" transform="translate(-578.067 -409.833)" fill="#373c40"/>
              <path id="Trazado_1043844" data-name="Trazado 1043844" d="M577.887,416.644c.078,3.1-.711,5.641-1.763,5.667l38.415-.969c1.052-.027,1.841-2.564,1.763-5.667s-.994-5.6-2.046-5.571l-38.415.969C576.892,411.047,577.809,413.541,577.887,416.644Z" transform="translate(-554.783 -409.885)" fill="#373c40"/>
              <path id="Trazado_1043845" data-name="Trazado 1043845" d="M572.374,417.318c.079,3.1-.711,5.641-1.763,5.667l1.847-.047c1.052-.027,1.841-2.564,1.763-5.667s-.994-5.6-2.046-5.571l-1.847.047C571.38,411.721,572.3,414.214,572.374,417.318Z" transform="translate(-552.76 -410.471)" fill="#373c40"/>
              <path id="Trazado_1043846" data-name="Trazado 1043846" d="M561.378,417.6c-.078-3.1.711-5.641,1.763-5.667s1.968,2.468,2.046,5.571-.711,5.641-1.763,5.667S561.456,420.7,561.378,417.6Z" transform="translate(-549.472 -410.556)" fill="#808fd4"/>
              <path id="Trazado_1043847" data-name="Trazado 1043847" d="M543,419.787c.167,0,12.362,2.9,12.981,2.882.821-.021,1.436-2,1.375-4.421s-.776-4.367-1.6-4.346c-.62.016-12.653,3.529-12.819,3.533-.22.006-.385.537-.369,1.186S542.78,419.792,543,419.787Z" transform="translate(-542.57 -411.28)" fill="#6073c9"/>
              <path id="Trazado_1043848" data-name="Trazado 1043848" d="M542.571,420.67c-.017-.649.149-1.18.369-1.186s.412.516.428,1.166-.149,1.18-.369,1.186S542.588,421.319,542.571,420.67Z" transform="translate(-542.57 -413.329)" fill="#808fd4"/>
              <path id="Trazado_1043849" data-name="Trazado 1043849" d="M588.526,415.606l25.489-.643a2.327,2.327,0,0,1,2.379,2.261l.007.268a2.327,2.327,0,0,1-2.261,2.378l-25.489.643a2.328,2.328,0,0,1-2.379-2.261l-.007-.268A2.328,2.328,0,0,1,588.526,415.606Z" transform="translate(-558.609 -411.669)" fill="#6073c9"/>
            </g>
            <g id="Grupo_1180682" data-name="Grupo 1180682" transform="translate(107.943 243.246)">
              <g id="Grupo_1180681" data-name="Grupo 1180681" transform="translate(0 0)">
                <path id="Trazado_1043850" data-name="Trazado 1043850" d="M293.293,435.634l-1.22-12.133,57.341-5.784a8.448,8.448,0,0,1,3.223,5.2,8.651,8.651,0,0,1-2,6.931C313.785,433.844,330.141,431.639,293.293,435.634Z" transform="translate(-279.299 -417.717)" fill="#8da664"/>
                <line id="Línea_777" data-name="Línea 777" x1="57.109" y2="5.783" transform="translate(14.186 1.234)" fill="none" stroke="#5f823c" stroke-linejoin="round" stroke-miterlimit="10" stroke-width="0.992"/>
                <line id="Línea_778" data-name="Línea 778" x1="57.193" y2="6.33" transform="translate(15.129 10.074)" fill="none" stroke="#5f823c" stroke-linejoin="round" stroke-miterlimit="10" stroke-width="0.992"/>
                <line id="Línea_779" data-name="Línea 779" x1="58.373" y2="6.02" transform="translate(14.469 3.813)" fill="none" stroke="#5f823c" stroke-linejoin="round" stroke-miterlimit="10" stroke-width="0.992"/>
                <line id="Línea_780" data-name="Línea 780" x1="58.385" y2="6.679" transform="translate(14.91 7.534)" fill="none" stroke="#5f823c" stroke-linejoin="round" stroke-miterlimit="10" stroke-width="0.992"/>
                <path id="Trazado_1043851" data-name="Trazado 1043851" d="M285.717,438.985l.1-.009a1.7,1.7,0,0,0,1.639-1.7,1.716,1.716,0,0,0-1.965-1.337l-.077.008h0l.1-.009a1.7,1.7,0,0,0,1.639-1.7,1.716,1.716,0,0,0-1.965-1.337l-.077.008h0l.1-.009a1.7,1.7,0,0,0,1.639-1.7,1.716,1.716,0,0,0-1.965-1.337l-.077.008h0l.1-.009a1.7,1.7,0,0,0,1.639-1.7,1.635,1.635,0,0,0-1.882-1.346c-.606.061-12.767,7.433-12.767,7.433s13.323,4.784,13.905,4.73l-.076.008Z" transform="translate(-271.89 -421.053)" fill="#edb2a4"/>
                <path id="Trazado_1043852" data-name="Trazado 1043852" d="M276.4,434.3c-2.452,1.465-4.494,2.7-4.494,2.7s2.453.874,5.306,1.87A5.378,5.378,0,0,0,276.4,434.3Z" transform="translate(-271.895 -423.803)" fill="#8da664"/>
              </g>
            </g>
          </g>
        </g>
      </g>
    </g>
  </g>
</svg>
