<svg xmlns="http://www.w3.org/2000/svg" xmlns:xlink="http://www.w3.org/1999/xlink" width="113" height="113" viewBox="0 0 113 113">
  <defs>
    <filter id="Trazado_982547" x="0" y="0" width="113" height="113" filterUnits="userSpaceOnUse">
      <feOffset dy="3" input="SourceAlpha"/>
      <feGaussianBlur stdDeviation="3" result="blur"/>
      <feFlood flood-opacity="0.161"/>
      <feComposite operator="in" in2="blur"/>
      <feComposite in="SourceGraphic"/>
    </filter>
  </defs>
  <g id="Grupo_1180124" data-name="Grupo 1180124" transform="translate(-272 -1483.166)">
    <g id="Grupo_1179383" data-name="Grupo 1179383" transform="translate(0 -1519.834)">
      <g id="Grupo_1175141" data-name="Grupo 1175141" transform="translate(0.5 395.985)">
        <g id="Grupo_1173988" data-name="Grupo 1173988" transform="translate(280.5 2613.015)">
          <g id="Grupo_1172010" data-name="Grupo 1172010">
            <g id="Grupo_1171046" data-name="Grupo 1171046">
              <g id="Grupo_1148525" data-name="Grupo 1148525">
                <g transform="matrix(1, 0, 0, 1, -9, -6)" filter="url(#Trazado_982547)">
                  <g id="Trazado_982547-2" data-name="Trazado 982547" transform="translate(9 6)" fill="#effbfe">
                    <path d="M 47.5 93.5 C 41.28937149047852 93.5 35.26533508300781 92.28397369384766 29.59518623352051 89.88570404052734 C 24.11771965026855 87.56893157958984 19.19813346862793 84.25196075439453 14.97309303283691 80.02691650390625 C 10.74804019927979 75.80186462402344 7.431066513061523 70.88229370117188 5.114293098449707 65.40481567382812 C 2.716026782989502 59.73468017578125 1.5 53.71062850952148 1.5 47.5 C 1.5 41.28937149047852 2.716026782989502 35.26533508300781 5.114293098449707 29.59518623352051 C 7.431066513061523 24.11771965026855 10.74804019927979 19.19813346862793 14.97309303283691 14.97309303283691 C 19.19813346862793 10.74804019927979 24.11771965026855 7.431066513061523 29.59518623352051 5.114293098449707 C 35.26533508300781 2.716026782989502 41.28937149047852 1.5 47.5 1.5 C 53.71062850952148 1.5 59.73468017578125 2.716026782989502 65.40481567382812 5.114293098449707 C 70.88229370117188 7.431066513061523 75.80186462402344 10.74804019927979 80.02691650390625 14.97309303283691 C 84.25196075439453 19.19813346862793 87.56893157958984 24.11771965026855 89.88570404052734 29.59518623352051 C 92.28397369384766 35.26533508300781 93.5 41.28937149047852 93.5 47.5 C 93.5 53.71062850952148 92.28397369384766 59.73468017578125 89.88570404052734 65.40481567382812 C 87.56893157958984 70.88229370117188 84.25196075439453 75.80186462402344 80.02691650390625 80.02691650390625 C 75.80186462402344 84.25196075439453 70.88229370117188 87.56893157958984 65.40481567382812 89.88570404052734 C 59.73468017578125 92.28397369384766 53.71062850952148 93.5 47.5 93.5 Z" stroke="none"/>
                    <path d="M 47.5 3 C 41.49121475219727 3 35.66376876831055 4.176155090332031 30.17950439453125 6.495796203613281 C 24.88084411621094 8.736953735351562 20.12152099609375 11.94598388671875 16.03375244140625 16.03375244140625 C 11.94598388671875 20.12152099609375 8.736953735351562 24.88084411621094 6.495796203613281 30.17950439453125 C 4.176155090332031 35.66376876831055 3 41.49121475219727 3 47.5 C 3 53.50878524780273 4.176155090332031 59.33623123168945 6.495796203613281 64.82049560546875 C 8.736953735351562 70.11915588378906 11.94598388671875 74.87847900390625 16.03375244140625 78.96624755859375 C 20.12152099609375 83.05401611328125 24.88084411621094 86.26304626464844 30.17950439453125 88.50419616699219 C 35.66376876831055 90.82384490966797 41.49121475219727 92 47.5 92 C 53.50878524780273 92 59.33623123168945 90.82384490966797 64.82049560546875 88.50419616699219 C 70.11915588378906 86.26304626464844 74.87847900390625 83.05401611328125 78.96624755859375 78.96624755859375 C 83.05401611328125 74.87847900390625 86.26304626464844 70.11915588378906 88.50419616699219 64.82049560546875 C 90.82384490966797 59.33623123168945 92 53.50878524780273 92 47.5 C 92 41.49121475219727 90.82384490966797 35.66376876831055 88.50419616699219 30.17950439453125 C 86.26304626464844 24.88084411621094 83.05401611328125 20.12152099609375 78.96624755859375 16.03375244140625 C 74.87847900390625 11.94598388671875 70.11915588378906 8.736953735351562 64.82049560546875 6.495796203613281 C 59.33623123168945 4.176155090332031 53.50878524780273 3 47.5 3 M 47.5 0 C 73.7335205078125 0 95 21.2664794921875 95 47.5 C 95 73.7335205078125 73.7335205078125 95 47.5 95 C 21.2664794921875 95 0 73.7335205078125 0 47.5 C 0 21.2664794921875 21.2664794921875 0 47.5 0 Z" stroke="none" fill="#397b86"/>
                  </g>
                </g>
              </g>
            </g>
          </g>
        </g>
      </g>
    </g>
    <g id="cuerda-saltar" transform="translate(233.595 1499.784)">
      <g id="Grupo_1180122" data-name="Grupo 1180122" transform="translate(68.875 1.085)">
        <path id="Trazado_1042707" data-name="Trazado 1042707" d="M391.9,299.615l.987-4.228c.653-2.8,4.923-1.82,4.27.977l-.987,4.228C395.513,303.389,391.244,302.412,391.9,299.615Z" transform="translate(-346.231 -252.486)" fill="#83deff"/>
        <path id="Trazado_1042708" data-name="Trazado 1042708" d="M88.075,299.615l-.987-4.228c-.653-2.8-4.923-1.82-4.27.977l.987,4.228C84.459,303.389,88.728,302.412,88.075,299.615Z" transform="translate(-81.681 -252.486)" fill="#5ad6ff"/>
        <path id="Trazado_1042709" data-name="Trazado 1042709" d="M105.415,139.5c0-5.023,7.593-5.023,7.593,0S105.415,144.527,105.415,139.5Z" transform="translate(-101.08 -117.267)" fill="#db9e82"/>
        <path id="Trazado_1042710" data-name="Trazado 1042710" d="M361.479,139.5c0-5.023-7.593-5.023-7.593,0S361.479,144.527,361.479,139.5Z" transform="translate(-313.754 -117.267)" fill="#c8866a"/>
        <path id="Trazado_1042711" data-name="Trazado 1042711" d="M85.8,265.023a19.83,19.83,0,0,1-7.906-.961c-4.81-1.585-2.258-8.751,2.553-7.167a12.159,12.159,0,0,0,4.358.63Z" transform="translate(-75.323 -220.776)" fill="#c8866a"/>
        <path id="Trazado_1042712" data-name="Trazado 1042712" d="M372.131,264.062a19.77,19.77,0,0,1-7.857.964l.833-7.507a12.089,12.089,0,0,0,4.472-.624C374.389,255.312,376.942,262.478,372.131,264.062Z" transform="translate(-322.646 -220.776)" fill="#db9e82"/>
        <path id="Trazado_1042713" data-name="Trazado 1042713" d="M180.714,481.023l.122.119h-.122Z" transform="translate(-165.531 -412.809)" fill="#5c85da"/>
        <path id="Trazado_1042714" data-name="Trazado 1042714" d="M240.233,346.353v19.521h-5.855c-12.893-4.162-9.364-15.9-7.919-19.521Z" transform="translate(-203.355 -297.54)" fill="#83deff"/>
        <path id="Trazado_1042715" data-name="Trazado 1042715" d="M196.553,365.874H180.714V346.353h7.911C189.1,353.126,191.146,360.339,196.553,365.874Z" transform="translate(-165.531 -297.54)" fill="#5ad6ff"/>
        <path id="Trazado_1042716" data-name="Trazado 1042716" d="M236.2,236.728c-.635,7.464.315,8.55-4.832,7.2a.537.537,0,0,0-.7.559,5.1,5.1,0,0,1-5.086,5.476h-10.3s-9.072-9.6,1.327-18.759a4.627,4.627,0,0,1,.043.537,5.419,5.419,0,0,1-.046.866h2.809a5.442,5.442,0,0,1-.048-.867,4.981,4.981,0,0,1,.045-.536h9.033C231.655,236.463,236.44,233.924,236.2,236.728Z" transform="translate(-191.983 -198.979)" fill="#ffb3c2"/>
        <path id="Trazado_1042717" data-name="Trazado 1042717" d="M146.4,231.2q-.071.309-.143.64h0a63.684,63.684,0,0,0-1.151,7.34,50.427,50.427,0,0,0,.062,10.779h-4.842a5.1,5.1,0,0,1-5.086-5.476.536.536,0,0,0-.671-.566c-5.184,1.354-4.224.278-4.859-7.192-.241-2.827,4.531-.223,7.754-5.525Z" transform="translate(-121.869 -198.979)" fill="#ff9eb1"/>
        <path id="Trazado_1042718" data-name="Trazado 1042718" d="M239.956,237.752a4.339,4.339,0,0,1-7.13,3.322s-2.037-4.992,1.152-7.34a4.3,4.3,0,0,1,1.638-.321A4.34,4.34,0,0,1,239.956,237.752Z" transform="translate(-209.587 -200.871)" fill="#c8866a"/>
        <path id="Trazado_1042719" data-name="Trazado 1042719" d="M228.585,235.643a63.334,63.334,0,0,0-1.153,7.34,4.338,4.338,0,0,1,1.153-7.34Z" transform="translate(-204.193 -202.78)" fill="#b07058"/>
        <path id="Trazado_1042720" data-name="Trazado 1042720" d="M182.469,106.823a17.371,17.371,0,0,1-21.686,16.811c-19.848-11.684-6.695-22.911-6.695-22.911h27.278A17.3,17.3,0,0,1,182.469,106.823Z" transform="translate(-139.082 -87.297)" fill="#db9e82"/>
        <path id="Trazado_1042721" data-name="Trazado 1042721" d="M148.559,123.634a17.371,17.371,0,0,1-11.922-22.911h5.227C139.2,108.131,139.235,116.834,148.559,123.634Z" transform="translate(-126.86 -87.297)" fill="#c8866a"/>
        <path id="Trazado_1042722" data-name="Trazado 1042722" d="M182.007,465.806h-5.424c-4.305,0-4.305-6.509,0-6.509h5.424C186.313,459.3,186.313,465.806,182.007,465.806Z" transform="translate(-159.231 -394.212)" fill="#7888af"/>
        <path id="Trazado_1042723" data-name="Trazado 1042723" d="M259.321,465.806h5.506c4.283,0,4.237-6.509,0-6.509h-5.506C255.038,459.3,255.084,465.806,259.321,465.806Z" transform="translate(-230.078 -394.212)" fill="#7888af"/>
        <path id="Trazado_1042724" data-name="Trazado 1042724" d="M198.869,28.279a13.754,13.754,0,0,0-1.794-5.914,1.171,1.171,0,0,0-1.982.02,8.041,8.041,0,0,1-1.331,1.871,1.279,1.279,0,0,1-2.024-.3l-.337-.752a1.038,1.038,0,0,0-1.595-.3c-5.224,4.583-11.305,4.586-16.526,0a1.038,1.038,0,0,0-1.595.3l-.337.752a1.275,1.275,0,0,1-1.835.454C166.454,13.976,178.33,7.8,178.33,7.8a19,19,0,0,1,3.213-.271c9.585,0,17.356,7.068,17.356,15.788A48.843,48.843,0,0,1,198.869,28.279Z" transform="translate(-155.512 -7.533)" fill="#fbf198"/>
        <path id="Trazado_1042725" data-name="Trazado 1042725" d="M149.661,9.413c-2.729,3.3-7.287,9.624-8.817,16.608a1.214,1.214,0,0,1-.19-.156,8.252,8.252,0,0,1-1.357-1.838,1.171,1.171,0,0,0-1.978-.014,13.746,13.746,0,0,0-1.772,5.875,48.853,48.853,0,0,1-.029-4.957c0-7.722,6.093-14.147,14.143-15.518Z" transform="translate(-126.843 -9.142)" fill="#f8ea69"/>
      </g>
      <g id="Grupo_1180123" data-name="Grupo 1180123" transform="translate(67.79 0)">
        <path id="Trazado_1042726" data-name="Trazado 1042726" d="M115.467,36.183a11.675,11.675,0,0,1-2.326.517c-1.487-.91-3.716-.459-5.773-2.516a18.494,18.494,0,0,0,4.4-6.113,4.778,4.778,0,0,0,5.915-4.744,4.668,4.668,0,0,0-4.339-4.816c0-.474,0-1.013,0-1.632,0-13.738-16.952-21.574-29.026-13.811a1.08,1.08,0,1,0,1.169,1.818c10.063-6.469,24.09-.706,25.568,10.072a2.261,2.261,0,0,0-3.55.479,6.9,6.9,0,0,1-1.147,1.62c-.088.089-.253.02-.268.017-.977-2.18-2.533-2.385-3.631-1.422-4.8,4.212-10.3,4.212-15.1,0-1.092-.959-2.655-.764-3.625,1.412a.253.253,0,0,1-.276-.008,7.161,7.161,0,0,1-1.179-1.6,2.265,2.265,0,0,0-3.511-.49,13.811,13.811,0,0,1,2.982-6.746,1.081,1.081,0,0,0-1.682-1.357,15.812,15.812,0,0,0-3.6,10.014c0,.619,0,1.158,0,1.632a4.667,4.667,0,0,0-4.339,4.816,4.783,4.783,0,0,0,5.914,4.744,18.493,18.493,0,0,0,4.4,6.117,7.072,7.072,0,0,1-3.906,1.879,6.08,6.08,0,0,0-1.88.633,11.774,11.774,0,0,1-2.318-.516c-5.1-1.678-8.363,4.439-5.457,7.788-.109.854.222,1.865,1.064,5.47A3.128,3.128,0,0,0,71.96,51.76a22.491,22.491,0,0,0,10,17.016,4.234,4.234,0,0,0,4.265,4.987h5.424a4.168,4.168,0,0,0,3.249-1.4,4.168,4.168,0,0,0,3.218,1.4h5.506a4.213,4.213,0,0,0,4.229-4.99,22.5,22.5,0,0,0,9.995-17.013,3.128,3.128,0,0,0,2.015-2.319c.843-3.609,1.179-4.639,1.068-5.474,2.927-3.381-.408-9.447-5.461-7.784Zm.677,2.052a2.7,2.7,0,0,1,3.554,1.8,2.485,2.485,0,0,1-.683,2.783c-.968.792-3.978,1.3-5.222,1.427.036-.337.386-5.5.386-5.518A14.08,14.08,0,0,0,116.143,38.236ZM112.536,26a18.525,18.525,0,0,0,.806-5.313A2.689,2.689,0,0,1,112.536,26ZM74.288,23.327a2.5,2.5,0,0,1,2.176-2.64A18.568,18.568,0,0,0,77.269,26a2.584,2.584,0,0,1-2.981-2.673Zm4.38-1.594a12.628,12.628,0,0,1,1.61-5.221.2.2,0,0,1,.111,0,9.309,9.309,0,0,0,1.525,2.059c1,1.01,2.972,1.19,4.066-1.251a12.723,12.723,0,0,0,17.848,0l.285.635a2.357,2.357,0,0,0,3.78.617,9.007,9.007,0,0,0,1.5-2.1.2.2,0,0,1,.112,0,12.641,12.641,0,0,1,1.63,5.259,16.273,16.273,0,0,1-32.47,0ZM98.061,38.78a3.264,3.264,0,0,1-6.317,0A18.46,18.46,0,0,0,98.061,38.78Zm-19.067-.6a9.041,9.041,0,0,0,5.128-2.619,18.433,18.433,0,0,0,5.367,2.679,5.42,5.42,0,0,0,10.826,0,18.435,18.435,0,0,0,5.371-2.681c2.576,2.717,5.744,2.487,6.322,2.979a.727.727,0,0,1,0,.211c-.267,3.129-.292,6.359-.7,6.656-.147.107-.749.123-2.782-.411a1.617,1.617,0,0,0-2.049,1.687,4.019,4.019,0,0,1-4.008,4.313H87.332a4.02,4.02,0,0,1-4.008-4.313A1.617,1.617,0,0,0,81.3,44.985c-2.765.722-2.833.475-2.929.222-.443-2.427-.235-2.393-.581-6.46a.755.755,0,0,1,0-.218,4.657,4.657,0,0,1,1.2-.351Zm-8.886,1.862a2.7,2.7,0,0,1,3.553-1.8,14.176,14.176,0,0,0,1.966.5q0,.1.012.2c.2,2.355.238,4.048.373,5.313a19.36,19.36,0,0,1-4.227-.893,2.457,2.457,0,0,1-1.677-3.31Zm1.108,5.4a21.952,21.952,0,0,0,2.439.638c.57,2.44.828,2.894.314,3.375a1.129,1.129,0,0,1-1.92-.5Zm2.913,6.348a3.13,3.13,0,0,0,2.189-3.811l-.366-1.567c.214.019.428.036.642.048.931,1.563,2.809,1.227,4.563.8a6.194,6.194,0,0,0,1.818,4.1v5.037a1.081,1.081,0,0,0,2.161,0V52.756c1.425.539.6.4,17.337.4a6.192,6.192,0,0,0,2.2-.4V65.211a4.7,4.7,0,0,0-1.047-.117H98.116a4.366,4.366,0,0,0-2.132.515V58.582a1.081,1.081,0,0,0-2.161,0v7.044a4.4,4.4,0,0,0-2.174-.531c-5.794,0-5.812-.041-6.512.119v-4.5a1.081,1.081,0,0,0-2.161,0V66.5c-.064.074-.125.15-.184.228A20.321,20.321,0,0,1,74.13,51.784ZM91.649,71.6H86.225a2.174,2.174,0,0,1,0-4.348h5.424a2.174,2.174,0,0,1,0,4.348Zm11.973,0H98.116c-2.775,0-2.876-4.348,0-4.348h5.506C106.4,67.255,106.5,71.6,103.622,71.6Zm3.4-4.88c-.059-.078-.133-.173-.19-.237V51.355a6.2,6.2,0,0,0,1.818-4.1c1.768.437,3.627.767,4.558-.79.21-.011.426-.028.645-.048l-.364,1.557a3.131,3.131,0,0,0,2.188,3.811,20.335,20.335,0,0,1-8.655,14.938ZM117.756,48.95a1.109,1.109,0,0,1-2.164-.486l.559-2.393a22.627,22.627,0,0,0,2.438-.634Z" transform="translate(-67.79 0)"/>
        <path id="Trazado_1042727" data-name="Trazado 1042727" d="M187.119,152.075a1.08,1.08,0,0,0,1.081-1.081v-1.729a1.081,1.081,0,1,0-2.161,0v1.729A1.081,1.081,0,0,0,187.119,152.075Z" transform="translate(-169.002 -126.836)"/>
        <path id="Trazado_1042728" data-name="Trazado 1042728" d="M312.016,152.075a1.08,1.08,0,0,0,1.081-1.081v-1.729a1.081,1.081,0,1,0-2.161,0v1.729A1.08,1.08,0,0,0,312.016,152.075Z" transform="translate(-275.906 -126.836)"/>
        <path id="Trazado_1042729" data-name="Trazado 1042729" d="M235.473,163.069a4.226,4.226,0,0,0,3.186-1.451,1.081,1.081,0,1,0-1.629-1.42,2.063,2.063,0,0,1-3.115,0,1.081,1.081,0,1,0-1.629,1.42A4.227,4.227,0,0,0,235.473,163.069Z" transform="translate(-208.36 -136.801)"/>
      </g>
    </g>
  </g>
</svg>
