<svg xmlns="http://www.w3.org/2000/svg" xmlns:xlink="http://www.w3.org/1999/xlink" width="113" height="113" viewBox="0 0 113 113">
  <defs>
    <filter id="Trazado_982547" x="0" y="0" width="113" height="113" filterUnits="userSpaceOnUse">
      <feOffset dy="3" input="SourceAlpha"/>
      <feGaussianBlur stdDeviation="3" result="blur"/>
      <feFlood flood-opacity="0.161"/>
      <feComposite operator="in" in2="blur"/>
      <feComposite in="SourceGraphic"/>
    </filter>
  </defs>
  <g id="Grupo_1180129" data-name="Grupo 1180129" transform="translate(-587 -1483)">
    <g id="Grupo_1179384" data-name="Grupo 1179384" transform="translate(0 -1520)">
      <g id="Grupo_1175140" data-name="Grupo 1175140" transform="translate(0.5 395.985)">
        <g id="Grupo_1173989" data-name="Grupo 1173989" transform="translate(595.5 2613.015)">
          <g id="Grupo_1172010" data-name="Grupo 1172010">
            <g id="Grupo_1171046" data-name="Grupo 1171046">
              <g id="Grupo_1148525" data-name="Grupo 1148525">
                <g transform="matrix(1, 0, 0, 1, -9, -6)" filter="url(#Trazado_982547)">
                  <g id="Trazado_982547-2" data-name="Trazado 982547" transform="translate(9 6)" fill="#effbfe">
                    <path d="M 47.5 93.5 C 41.28937149047852 93.5 35.26533508300781 92.28397369384766 29.59518623352051 89.88570404052734 C 24.11771965026855 87.56893157958984 19.19813346862793 84.25196075439453 14.97309303283691 80.02691650390625 C 10.74804019927979 75.80186462402344 7.431066513061523 70.88229370117188 5.114293098449707 65.40481567382812 C 2.716026782989502 59.73468017578125 1.5 53.71062850952148 1.5 47.5 C 1.5 41.28937149047852 2.716026782989502 35.26533508300781 5.114293098449707 29.59518623352051 C 7.431066513061523 24.11771965026855 10.74804019927979 19.19813346862793 14.97309303283691 14.97309303283691 C 19.19813346862793 10.74804019927979 24.11771965026855 7.431066513061523 29.59518623352051 5.114293098449707 C 35.26533508300781 2.716026782989502 41.28937149047852 1.5 47.5 1.5 C 53.71062850952148 1.5 59.73468017578125 2.716026782989502 65.40481567382812 5.114293098449707 C 70.88229370117188 7.431066513061523 75.80186462402344 10.74804019927979 80.02691650390625 14.97309303283691 C 84.25196075439453 19.19813346862793 87.56893157958984 24.11771965026855 89.88570404052734 29.59518623352051 C 92.28397369384766 35.26533508300781 93.5 41.28937149047852 93.5 47.5 C 93.5 53.71062850952148 92.28397369384766 59.73468017578125 89.88570404052734 65.40481567382812 C 87.56893157958984 70.88229370117188 84.25196075439453 75.80186462402344 80.02691650390625 80.02691650390625 C 75.80186462402344 84.25196075439453 70.88229370117188 87.56893157958984 65.40481567382812 89.88570404052734 C 59.73468017578125 92.28397369384766 53.71062850952148 93.5 47.5 93.5 Z" stroke="none"/>
                    <path d="M 47.5 3 C 41.49121475219727 3 35.66376876831055 4.176155090332031 30.17950439453125 6.495796203613281 C 24.88084411621094 8.736953735351562 20.12152099609375 11.94598388671875 16.03375244140625 16.03375244140625 C 11.94598388671875 20.12152099609375 8.736953735351562 24.88084411621094 6.495796203613281 30.17950439453125 C 4.176155090332031 35.66376876831055 3 41.49121475219727 3 47.5 C 3 53.50878524780273 4.176155090332031 59.33623123168945 6.495796203613281 64.82049560546875 C 8.736953735351562 70.11915588378906 11.94598388671875 74.87847900390625 16.03375244140625 78.96624755859375 C 20.12152099609375 83.05401611328125 24.88084411621094 86.26304626464844 30.17950439453125 88.50419616699219 C 35.66376876831055 90.82384490966797 41.49121475219727 92 47.5 92 C 53.50878524780273 92 59.33623123168945 90.82384490966797 64.82049560546875 88.50419616699219 C 70.11915588378906 86.26304626464844 74.87847900390625 83.05401611328125 78.96624755859375 78.96624755859375 C 83.05401611328125 74.87847900390625 86.26304626464844 70.11915588378906 88.50419616699219 64.82049560546875 C 90.82384490966797 59.33623123168945 92 53.50878524780273 92 47.5 C 92 41.49121475219727 90.82384490966797 35.66376876831055 88.50419616699219 30.17950439453125 C 86.26304626464844 24.88084411621094 83.05401611328125 20.12152099609375 78.96624755859375 16.03375244140625 C 74.87847900390625 11.94598388671875 70.11915588378906 8.736953735351562 64.82049560546875 6.495796203613281 C 59.33623123168945 4.176155090332031 53.50878524780273 3 47.5 3 M 47.5 0 C 73.7335205078125 0 95 21.2664794921875 95 47.5 C 95 73.7335205078125 73.7335205078125 95 47.5 95 C 21.2664794921875 95 0 73.7335205078125 0 47.5 C 0 21.2664794921875 21.2664794921875 0 47.5 0 Z" stroke="none" fill="#397b86"/>
                  </g>
                </g>
              </g>
            </g>
          </g>
        </g>
      </g>
    </g>
    <g id="cognitivo_1_" data-name="cognitivo (1)" transform="translate(580.085 1493.001)">
      <g id="Grupo_1180128" data-name="Grupo 1180128" transform="translate(39.206 20.682)">
        <g id="Grupo_1180125" data-name="Grupo 1180125" transform="translate(25.24 0)">
          <path id="Trazado_1042730" data-name="Trazado 1042730" d="M263.558,96h3.121l1.471,3.821a19.681,19.681,0,0,1,5.763,2.389l3.745-1.663,4.414,4.414-1.663,3.744a19.678,19.678,0,0,1,2.39,5.765l3.821,1.471v6.242l-3.822,1.471a19.684,19.684,0,0,1-2.389,5.763l1.663,3.745-4.414,4.414-3.744-1.663a19.678,19.678,0,0,1-5.765,2.39l-1.471,3.821h-3.121V129.947a10.886,10.886,0,0,0,0-21.771Z" transform="translate(-263.558 -96)" fill="#ffe177" fill-rule="evenodd"/>
          <path id="Trazado_1042731" data-name="Trazado 1042731" d="M280.407,129.416l1.663,3.745-.6.6-1.555-3.5Q280.173,129.841,280.407,129.416Zm0-20.711a19.677,19.677,0,0,1,2.39,5.765l3.821,1.471v1.942l-3.821-1.471a26.2,26.2,0,0,0-2.879-6.6ZM263.557,96h3.121l1.471,3.821a19.681,19.681,0,0,1,5.763,2.389l3.745-1.663,4.414,4.414-.6,1.345-3.817-3.816-3.745,1.663a19.68,19.68,0,0,0-5.763-2.389l-1.471-3.821h-3.121V96Z" transform="translate(-263.557 -96)" fill="#ffd064" fill-rule="evenodd"/>
        </g>
        <g id="Grupo_1180126" data-name="Grupo 1180126" transform="translate(0 0)">
          <path id="Trazado_1042732" data-name="Trazado 1042732" d="M103.573,99.6a5.194,5.194,0,0,0-4.737,3.988,5.186,5.186,0,0,0-6.4,4.891,5.2,5.2,0,0,0-4,5.039,5.53,5.53,0,0,0,5.52,5.538h14.545a5.175,5.175,0,0,0,5.175-5.175V101.174A5.176,5.176,0,0,0,103.573,99.6Z" transform="translate(-88.441 -95.999)" fill="#fe646f" fill-rule="evenodd"/>
          <path id="Trazado_1042733" data-name="Trazado 1042733" d="M147.611,103.447a5.092,5.092,0,0,0-.541.048c.168.024.336.056.5.1C147.585,103.543,147.6,103.495,147.611,103.447Zm9.633,15.613h1.441a5.175,5.175,0,0,0,5.175-5.175V101.174a5.178,5.178,0,0,0-5.9-5.125,5.194,5.194,0,0,1,4.457,5.125v12.711A5.175,5.175,0,0,1,157.243,119.06Z" transform="translate(-138.62 -95.999)" fill="#fd4755" fill-rule="evenodd"/>
        </g>
        <g id="Grupo_1180127" data-name="Grupo 1180127" transform="translate(0 23.061)">
          <path id="Trazado_1042734" data-name="Trazado 1042734" d="M103.573,275.455a5.194,5.194,0,0,1-4.737-3.988,5.187,5.187,0,0,1-6.4-4.891,5.2,5.2,0,0,1-4-5.039A5.53,5.53,0,0,1,93.961,256h14.545a5.175,5.175,0,0,1,5.175,5.175v12.711a5.176,5.176,0,0,1-10.108,1.571Z" transform="translate(-88.441 -255.998)" fill="#fe646f" fill-rule="evenodd"/>
          <path id="Trazado_1042735" data-name="Trazado 1042735" d="M147.611,271.613a5.088,5.088,0,0,1-.541-.048c.168-.024.336-.056.5-.1C147.585,271.517,147.6,271.565,147.611,271.613ZM157.243,256h1.441a5.175,5.175,0,0,1,5.175,5.175v12.711a5.178,5.178,0,0,1-5.9,5.125,5.194,5.194,0,0,0,4.457-5.125V261.175A5.175,5.175,0,0,0,157.243,256Z" transform="translate(-138.62 -256)" fill="#fd4755" fill-rule="evenodd"/>
        </g>
      </g>
      <path id="Trazado_1042736" data-name="Trazado 1042736" d="M59.225,51.613a1.153,1.153,0,0,0-1.63-.044,4,4,0,0,1-3.811.967,4.044,4.044,0,0,1-2.918-3.169,1.154,1.154,0,0,0-2.27.413,6.348,6.348,0,0,0,6.247,5.2,6.289,6.289,0,0,0,4.337-1.74A1.153,1.153,0,0,0,59.225,51.613Zm.046,14.039a4.022,4.022,0,0,1-3.022-6.678,1.153,1.153,0,1,0-1.731-1.523,6.358,6.358,0,0,0-1.571,4.224,4.052,4.052,0,0,1-2.224-2.727,1.154,1.154,0,0,0-1.4-.856A3.865,3.865,0,0,1,45.8,51.374a1.153,1.153,0,0,0-1.48-1.769A6.35,6.35,0,0,0,42.3,52.711a4.062,4.062,0,0,1-1.938-3.43A4.381,4.381,0,0,1,44.727,44.9h9.658a6.37,6.37,0,0,0-.7,1.054,1.153,1.153,0,1,0,2.035,1.083,4.023,4.023,0,0,1,7.576,1.885V61.634A4.028,4.028,0,0,1,59.271,65.652ZM44.727,42.591h9.658a6.364,6.364,0,0,1-.7-1.054,1.153,1.153,0,1,1,2.035-1.083,4.023,4.023,0,0,0,7.576-1.887V25.851a4.023,4.023,0,1,0-7.044,2.662,1.152,1.152,0,1,1-1.731,1.522,6.353,6.353,0,0,1-1.571-4.224,4.055,4.055,0,0,0-2.224,2.729,1.154,1.154,0,0,1-1.4.856,3.943,3.943,0,0,0-.949-.116A3.837,3.837,0,0,0,45.8,36.113a1.153,1.153,0,0,1-1.48,1.769A6.356,6.356,0,0,1,42.3,34.776a4.058,4.058,0,0,0-1.938,3.429A4.382,4.382,0,0,0,44.727,42.591ZM65.6,21.836v9.925a12.038,12.038,0,0,1,0,23.965v9.926h1.176l1.186-3.082a1.148,1.148,0,0,1,.809-.708,18.514,18.514,0,0,0,5.427-2.25,1.15,1.15,0,0,1,1.073-.072l3.02,1.341,3.294-3.294-1.342-3.021a1.156,1.156,0,0,1,.072-1.073,18.518,18.518,0,0,0,2.25-5.427,1.156,1.156,0,0,1,.708-.809l3.083-1.186V41.414l-3.083-1.186a1.151,1.151,0,0,1-.706-.81,18.5,18.5,0,0,0-2.25-5.427,1.152,1.152,0,0,1-.072-1.073L81.584,29.9,78.29,26.6l-3.021,1.342a1.152,1.152,0,0,1-1.072-.072,18.547,18.547,0,0,0-5.427-2.25,1.152,1.152,0,0,1-.809-.706l-1.186-3.083ZM62.906,43.743A6.323,6.323,0,0,1,65.6,48.918V53.4a9.73,9.73,0,0,0,0-19.324v4.487a6.324,6.324,0,0,1-2.693,5.175ZM59.271,67.958a6.3,6.3,0,0,1-5.758-3.7,6.387,6.387,0,0,1-4.7-3.762,6.351,6.351,0,0,1-6.686-5.305,6.4,6.4,0,0,1-4.074-5.911,6.694,6.694,0,0,1,2.932-5.538A6.694,6.694,0,0,1,38.053,38.2a6.4,6.4,0,0,1,4.074-5.911,6.354,6.354,0,0,1,6.686-5.305,6.392,6.392,0,0,1,4.7-3.762,6.328,6.328,0,0,1,9.781-2.251v-.292a1.153,1.153,0,0,1,1.153-1.153h3.12a1.152,1.152,0,0,1,1.076.738L69.9,23.532a20.757,20.757,0,0,1,4.98,2.065l3.2-1.421a1.154,1.154,0,0,1,1.284.238l4.413,4.414a1.155,1.155,0,0,1,.239,1.284l-1.421,3.2a20.76,20.76,0,0,1,2.064,4.98l3.265,1.257a1.152,1.152,0,0,1,.739,1.075v6.242a1.154,1.154,0,0,1-.739,1.077L84.656,49.2a20.834,20.834,0,0,1-2.064,4.978l1.421,3.2a1.153,1.153,0,0,1-.239,1.283l-4.413,4.414a1.155,1.155,0,0,1-1.284.239l-3.2-1.421a20.8,20.8,0,0,1-4.98,2.066l-1.255,3.263a1.155,1.155,0,0,1-1.077.739h-3.12A1.153,1.153,0,0,1,63.293,66.8v-.294A6.3,6.3,0,0,1,59.271,67.958Zm-10.91,1.931a1.153,1.153,0,0,1-.577,2.153,1.135,1.135,0,0,1-.574-.155,32.433,32.433,0,0,1-16.3-28.144A32.443,32.443,0,0,1,63.357,11.3c1.059,0,2.121.055,3.176.157L65.007,9.98a1.152,1.152,0,1,1,1.6-1.656l4.146,4.014a1.153,1.153,0,0,1-.19,1.806l-4.891,3.062a1.141,1.141,0,0,1-.611.176,1.154,1.154,0,0,1-.614-2.131L66.77,13.8A30.14,30.14,0,0,0,48.361,69.889ZM91.3,27.253A32.445,32.445,0,0,1,63.357,76.185c-1.06,0-2.122-.054-3.177-.157l1.526,1.479a1.153,1.153,0,1,1-1.6,1.656l-4.146-4.014a1.152,1.152,0,0,1,.191-1.8l4.891-3.064a1.153,1.153,0,0,1,1.224,1.954l-2.316,1.452A30.14,30.14,0,0,0,78.353,17.6a1.153,1.153,0,0,1,1.149-2A32.632,32.632,0,0,1,91.3,27.253Zm-37.517,7.7a4.043,4.043,0,0,0-2.918,3.169,1.153,1.153,0,0,1-1.134.946,1.059,1.059,0,0,1-.206-.019,1.152,1.152,0,0,1-.93-1.34,6.363,6.363,0,0,1,4.591-4.984,6.29,6.29,0,0,1,5.993,1.521,1.152,1.152,0,1,1-1.585,1.673A4,4,0,0,0,53.784,34.951Z" transform="translate(0 0)" fill-rule="evenodd"/>
    </g>
  </g>
</svg>
