<svg xmlns="http://www.w3.org/2000/svg" xmlns:xlink="http://www.w3.org/1999/xlink" width="113" height="113" viewBox="0 0 113 113">
  <defs>
    <filter id="Trazado_982547" x="0" y="0" width="113" height="113" filterUnits="userSpaceOnUse">
      <feOffset dy="3" input="SourceAlpha"/>
      <feGaussianBlur stdDeviation="3" result="blur"/>
      <feFlood flood-opacity="0.161"/>
      <feComposite operator="in" in2="blur"/>
      <feComposite in="SourceGraphic"/>
    </filter>
  </defs>
  <g id="Grupo_1180132" data-name="Grupo 1180132" transform="translate(-901 -1483)">
    <g id="Grupo_1179385" data-name="Grupo 1179385" transform="translate(0 -1520)">
      <g id="Grupo_1175138" data-name="Grupo 1175138" transform="translate(910 3009)">
        <g id="Grupo_1172010" data-name="Grupo 1172010">
          <g id="Grupo_1171046" data-name="Grupo 1171046">
            <g id="Grupo_1148525" data-name="Grupo 1148525">
              <g transform="matrix(1, 0, 0, 1, -9, -6)" filter="url(#Trazado_982547)">
                <g id="Trazado_982547-2" data-name="Trazado 982547" transform="translate(9 6)" fill="#effbfe">
                  <path d="M 47.5 93.5 C 41.28937149047852 93.5 35.26533508300781 92.28397369384766 29.59518623352051 89.88570404052734 C 24.11771965026855 87.56893157958984 19.19813346862793 84.25196075439453 14.97309303283691 80.02691650390625 C 10.74804019927979 75.80186462402344 7.431066513061523 70.88229370117188 5.114293098449707 65.40481567382812 C 2.716026782989502 59.73468017578125 1.5 53.71062850952148 1.5 47.5 C 1.5 41.28937149047852 2.716026782989502 35.26533508300781 5.114293098449707 29.59518623352051 C 7.431066513061523 24.11771965026855 10.74804019927979 19.19813346862793 14.97309303283691 14.97309303283691 C 19.19813346862793 10.74804019927979 24.11771965026855 7.431066513061523 29.59518623352051 5.114293098449707 C 35.26533508300781 2.716026782989502 41.28937149047852 1.5 47.5 1.5 C 53.71062850952148 1.5 59.73468017578125 2.716026782989502 65.40481567382812 5.114293098449707 C 70.88229370117188 7.431066513061523 75.80186462402344 10.74804019927979 80.02691650390625 14.97309303283691 C 84.25196075439453 19.19813346862793 87.56893157958984 24.11771965026855 89.88570404052734 29.59518623352051 C 92.28397369384766 35.26533508300781 93.5 41.28937149047852 93.5 47.5 C 93.5 53.71062850952148 92.28397369384766 59.73468017578125 89.88570404052734 65.40481567382812 C 87.56893157958984 70.88229370117188 84.25196075439453 75.80186462402344 80.02691650390625 80.02691650390625 C 75.80186462402344 84.25196075439453 70.88229370117188 87.56893157958984 65.40481567382812 89.88570404052734 C 59.73468017578125 92.28397369384766 53.71062850952148 93.5 47.5 93.5 Z" stroke="none"/>
                  <path d="M 47.5 3 C 41.49121475219727 3 35.66376876831055 4.176155090332031 30.17950439453125 6.495796203613281 C 24.88084411621094 8.736953735351562 20.12152099609375 11.94598388671875 16.03375244140625 16.03375244140625 C 11.94598388671875 20.12152099609375 8.736953735351562 24.88084411621094 6.495796203613281 30.17950439453125 C 4.176155090332031 35.66376876831055 3 41.49121475219727 3 47.5 C 3 53.50878524780273 4.176155090332031 59.33623123168945 6.495796203613281 64.82049560546875 C 8.736953735351562 70.11915588378906 11.94598388671875 74.87847900390625 16.03375244140625 78.96624755859375 C 20.12152099609375 83.05401611328125 24.88084411621094 86.26304626464844 30.17950439453125 88.50419616699219 C 35.66376876831055 90.82384490966797 41.49121475219727 92 47.5 92 C 53.50878524780273 92 59.33623123168945 90.82384490966797 64.82049560546875 88.50419616699219 C 70.11915588378906 86.26304626464844 74.87847900390625 83.05401611328125 78.96624755859375 78.96624755859375 C 83.05401611328125 74.87847900390625 86.26304626464844 70.11915588378906 88.50419616699219 64.82049560546875 C 90.82384490966797 59.33623123168945 92 53.50878524780273 92 47.5 C 92 41.49121475219727 90.82384490966797 35.66376876831055 88.50419616699219 30.17950439453125 C 86.26304626464844 24.88084411621094 83.05401611328125 20.12152099609375 78.96624755859375 16.03375244140625 C 74.87847900390625 11.94598388671875 70.11915588378906 8.736953735351562 64.82049560546875 6.495796203613281 C 59.33623123168945 4.176155090332031 53.50878524780273 3 47.5 3 M 47.5 0 C 73.7335205078125 0 95 21.2664794921875 95 47.5 C 95 73.7335205078125 73.7335205078125 95 47.5 95 C 21.2664794921875 95 0 73.7335205078125 0 47.5 C 0 21.2664794921875 21.2664794921875 0 47.5 0 Z" stroke="none" fill="#397b86"/>
                </g>
              </g>
            </g>
          </g>
        </g>
      </g>
    </g>
    <g id="dia-internacional-del-nino_1_" data-name="dia-internacional-del-nino (1)" transform="translate(926 1506)">
      <g id="Grupo_1180130" data-name="Grupo 1180130" transform="translate(0.911 0.911)">
        <path id="Trazado_1042737" data-name="Trazado 1042737" d="M88.122,52.843,84.016,81.66a26.519,26.519,0,0,1-45.5-24.386c0-.012-.225.321,10.394-14.851a26.527,26.527,0,0,1,39.214,10.42Z" transform="translate(-33.963 -33.963)" fill="#a4e7ff"/>
        <path id="Trazado_1042738" data-name="Trazado 1042738" d="M56.994,84.087l-1.719,2.406a4.364,4.364,0,0,0-.813,2.539,4.367,4.367,0,0,1-5.652,4.174L44.99,92.031A26.546,26.546,0,0,1,55.384,77.18l1.3,1.446A4.369,4.369,0,0,1,56.994,84.087Z" transform="translate(-40.438 -68.72)" fill="#8ce09f"/>
        <path id="Trazado_1042739" data-name="Trazado 1042739" d="M355.237,191.826l-4.152-2.236a2.687,2.687,0,0,1-.7-4.186,2.687,2.687,0,0,0-1.707-4.414,2.688,2.688,0,0,1-2.354-2.666V163.01h13.023A26.515,26.515,0,0,1,355.237,191.826Z" transform="translate(-305.185 -144.13)" fill="#8ce09f"/>
        <path id="Trazado_1042740" data-name="Trazado 1042740" d="M239.826,25.784v4.584a3.642,3.642,0,0,1-3.642,3.642H206.9c-2.01,0-3.642.2-3.642-1.814V25.959A18.435,18.435,0,0,1,219.092,7.666a18.283,18.283,0,0,1,20.734,18.118Z" transform="translate(-179.493 -7.501)" fill="#485c70"/>
        <path id="Trazado_1042741" data-name="Trazado 1042741" d="M226.607,35.2H206.9c-2.011,0-3.642.2-3.642-1.814V27.153A18.435,18.435,0,0,1,219.092,8.86c-1.389,4.21-2.078,12.992,7.515,26.344Z" transform="translate(-179.493 -8.695)" fill="#3e4f61"/>
        <circle id="Elipse_12486" data-name="Elipse 12486" cx="4.571" cy="4.571" r="4.571" transform="translate(23.767 13.712)" fill="#ffbbae"/>
        <circle id="Elipse_12487" data-name="Elipse 12487" cx="4.571" cy="4.571" r="4.571" transform="translate(51.191 13.712)" fill="#ffcbbe"/>
        <path id="Trazado_1042742" data-name="Trazado 1042742" d="M268.334,58.862a13.712,13.712,0,0,1-13.712,13.712,13.548,13.548,0,0,1-1.787-.117,13.712,13.712,0,1,1,15.5-13.6Z" transform="translate(-212.572 -40.579)" fill="#ffddcf"/>
        <path id="Trazado_1042743" data-name="Trazado 1042743" d="M252.835,82.764a13.713,13.713,0,0,1-4.3-25.883C246.649,61.91,244.6,72.109,252.835,82.764Z" transform="translate(-212.572 -50.886)" fill="#ffcbbe"/>
        <circle id="Elipse_12488" data-name="Elipse 12488" cx="4.571" cy="4.571" r="4.571" transform="translate(27.424 42.05)" fill="#ffcbbe"/>
        <circle id="Elipse_12489" data-name="Elipse 12489" cx="4.571" cy="4.571" r="4.571" transform="translate(0 42.05)" fill="#ffbbae"/>
        <path id="Trazado_1042744" data-name="Trazado 1042744" d="M72.574,292.271a13.718,13.718,0,1,1-13.712-13.712A13.712,13.712,0,0,1,72.574,292.271Z" transform="translate(-40.579 -245.65)" fill="#ffddcf"/>
        <path id="Trazado_1042745" data-name="Trazado 1042745" d="M56.793,314.517a13.715,13.715,0,0,1-3.55-26.068C51.321,294.489,49.613,305.146,56.793,314.517Z" transform="translate(-40.579 -254.341)" fill="#ffcbbe"/>
        <path id="Trazado_1042746" data-name="Trazado 1042746" d="M48.86,252.057a3.479,3.479,0,0,1-5.468-.482,2.286,2.286,0,0,0-2.626-.947,4.642,4.642,0,0,1-3.6-.333,2.349,2.349,0,0,0-2.168-.061,5.8,5.8,0,0,1-5.189,0,2.2,2.2,0,0,0-.772-.225,2.434,2.434,0,0,0-1.4.285,4.641,4.641,0,0,1-3.6.333,2.285,2.285,0,0,0-2.626.947,3.479,3.479,0,0,1-5.468.482,3.549,3.549,0,0,1,.338-5.065,4.761,4.761,0,0,1,2.751-.822,2.306,2.306,0,0,0,2.049-1.53,4.641,4.641,0,0,1,5.182-3,2.273,2.273,0,0,0,2.008-.658,5.791,5.791,0,0,1,8.265,0,2.273,2.273,0,0,0,2.008.658,4.642,4.642,0,0,1,5.182,3,2.3,2.3,0,0,0,2.049,1.53,4.763,4.763,0,0,1,2.751.822A3.549,3.549,0,0,1,48.86,252.057Z" transform="translate(-14.117 -211.116)" fill="#485c70"/>
        <path id="Trazado_1042747" data-name="Trazado 1042747" d="M29.033,255.5a2.433,2.433,0,0,0-1.4.285,4.641,4.641,0,0,1-3.6.333,2.285,2.285,0,0,0-2.626.947,3.479,3.479,0,0,1-5.468.482,3.549,3.549,0,0,1,.338-5.065,4.761,4.761,0,0,1,2.751-.822,2.306,2.306,0,0,0,2.049-1.53,4.641,4.641,0,0,1,5.182-3,2.273,2.273,0,0,0,2.008-.658,5.762,5.762,0,0,1,1.264-.974A20.076,20.076,0,0,0,29.033,255.5Z" transform="translate(-14.117 -216.605)" fill="#3e4f61"/>
      </g>
      <g id="Grupo_1180131" data-name="Grupo 1180131" transform="translate(0)">
        <path id="Trazado_1042748" data-name="Trazado 1042748" d="M42.95,0A18.97,18.97,0,0,0,31.736,3.668l-.059,0A27.33,27.33,0,0,0,8.211,15.947a.911.911,0,1,0,1.518,1.007,25.775,25.775,0,0,1,6-6.368l.756.84a3.48,3.48,0,0,1,.244,4.322l-1.719,2.406a5.246,5.246,0,0,0-.983,3.068,3.455,3.455,0,0,1-4.473,3.3l-2.971-.914a25.4,25.4,0,0,1,.979-2.657.911.911,0,1,0-1.671-.724,27.218,27.218,0,0,0-1.9,15.1,3.844,3.844,0,0,0-1.518.773,4.44,4.44,0,0,0,.071,6.805,5.479,5.479,0,0,0,3.1,10.1,14.624,14.624,0,0,0,23.325,5.4A27.427,27.427,0,0,0,58.353,28.267a4.559,4.559,0,0,0,3.8-4.49V19.193A19.182,19.182,0,0,0,42.95,0ZM57.126,15.562a3.659,3.659,0,0,1,3.2,3.477c0,.124,0,.038,0,.235a3.658,3.658,0,0,1-3.206,3.548A14.664,14.664,0,0,0,57.126,15.562ZM42.951,1.821A17.367,17.367,0,0,1,59.732,14.648a5.485,5.485,0,0,0-3.215-.933A14.641,14.641,0,0,0,35.161,6.823a.911.911,0,0,0,.973,1.539,12.81,12.81,0,1,1-3.74,3.6.911.911,0,1,0-1.5-1.03A14.584,14.584,0,0,0,29.4,13.715a5.45,5.45,0,0,0-3.165.9,17.432,17.432,0,0,1,16.715-12.8Zm-14.157,21a3.662,3.662,0,0,1-3.2-3.576c0-.068,0-.135,0-.2a3.654,3.654,0,0,1,3.2-3.483,14.666,14.666,0,0,0,0,7.261Zm-3.206.445a5.461,5.461,0,0,0,3.815,1.4,14.6,14.6,0,0,0,.9,1.838l-2.489,0c-.844.006-1.8.015-2.068-.252a1.029,1.029,0,0,1-.158-.654ZM1.821,47.531a3.662,3.662,0,0,1,3.2-3.632,14.68,14.68,0,0,0,0,7.264,3.662,3.662,0,0,1-3.205-3.632ZM7.1,51.74A12.827,12.827,0,0,1,7.042,43.5a4.382,4.382,0,0,0,1.924-1.638,1.375,1.375,0,0,1,1.585-.574,5.565,5.565,0,0,0,4.311-.4,1.446,1.446,0,0,1,1.329-.049,6.726,6.726,0,0,0,6.006,0,1.446,1.446,0,0,1,1.328.048,5.568,5.568,0,0,0,4.312.4,1.375,1.375,0,0,1,1.586.575A4.377,4.377,0,0,0,31.345,43.5,12.8,12.8,0,0,1,7.1,51.74ZM33.361,43.9a3.662,3.662,0,0,1,0,7.267A14.678,14.678,0,0,0,33.361,43.9Zm17.385,3.558-3.5-1.886a1.778,1.778,0,0,1-.445-2.792,3.6,3.6,0,0,0-2.285-5.911,1.756,1.756,0,0,1-1-.477.911.911,0,0,0-1.26,1.315,3.565,3.565,0,0,0,2.038.968,1.775,1.775,0,0,1,1.131,2.915,3.6,3.6,0,0,0,.961,5.583l3.115,1.678a25.5,25.5,0,0,1-18.886,7.82,14.551,14.551,0,0,0,2.143-3.659,5.479,5.479,0,0,0,3.1-10.1,4.439,4.439,0,0,0,.071-6.806,5.406,5.406,0,0,0-3.305-1.048,1.4,1.4,0,0,1-1.241-.928,5.546,5.546,0,0,0-5.311-3.671.911.911,0,0,0,.015,1.821,3.726,3.726,0,0,1,3.582,2.465,3.212,3.212,0,0,0,2.856,2.132,3.648,3.648,0,0,1,2.2.6,2.641,2.641,0,0,1,.275,3.761,2.568,2.568,0,0,1-4.038-.355,3.176,3.176,0,0,0-3.667-1.32,3.739,3.739,0,0,1-2.9-.267,3.269,3.269,0,0,0-3.007-.072,4.9,4.9,0,0,1-4.373,0A3.267,3.267,0,0,0,14,39.289a3.735,3.735,0,0,1-2.894.266,3.177,3.177,0,0,0-3.666,1.319A2.558,2.558,0,0,1,5.5,42.04,2.528,2.528,0,0,1,2.738,39.4a2.774,2.774,0,0,1,.935-1.932,3.638,3.638,0,0,1,2.2-.595,3.216,3.216,0,0,0,2.858-2.131,3.724,3.724,0,0,1,4.166-2.409,3.179,3.179,0,0,0,2.816-.917,4.908,4.908,0,0,1,5.795-.879.911.911,0,0,0,.862-1.6,6.737,6.737,0,0,0-7.955,1.206,1.359,1.359,0,0,1-1.2.4,5.543,5.543,0,0,0-6.2,3.586,1.4,1.4,0,0,1-1.228.927,25.506,25.506,0,0,1,.322-9.682l2.906.894a5.276,5.276,0,0,0,6.83-5.044,3.436,3.436,0,0,1,.644-2.009l1.719-2.407a5.313,5.313,0,0,0-.373-6.6l-.6-.67A25.479,25.479,0,0,1,29.55,5.527a19.409,19.409,0,0,0-5.783,13.667v6.413a2.631,2.631,0,0,0,.7,1.947,3.946,3.946,0,0,0,2.912.783c.579,0-.589-.005,4.177-.005a14.6,14.6,0,0,0,22.814,0h2.161a25.445,25.445,0,0,1-5.783,19.125ZM57.6,26.509H55.617a14.581,14.581,0,0,0,.9-1.839,5.491,5.491,0,0,0,3.814-1.4h0v.505A2.735,2.735,0,0,1,57.6,26.509Z" transform="translate(0)"/>
        <path id="Trazado_1042749" data-name="Trazado 1042749" d="M281.681,133.372a.91.91,0,0,0,.911-.911V131a.911.911,0,0,0-1.821,0v1.457A.91.91,0,0,0,281.681,133.372Z" transform="translate(-246.682 -114.3)"/>
        <path id="Trazado_1042750" data-name="Trazado 1042750" d="M334.868,143.529a.911.911,0,1,0-1.373-1.2,1.873,1.873,0,0,1-2.826,0,.911.911,0,1,0-1.373,1.2A3.694,3.694,0,0,0,334.868,143.529Z" transform="translate(-289.12 -124.778)"/>
        <path id="Trazado_1042751" data-name="Trazado 1042751" d="M401.283,131.362a.91.91,0,0,0,.911-.911.778.778,0,0,1,1.555,0,.911.911,0,1,0,1.821,0,2.6,2.6,0,1,0-5.2,0A.91.91,0,0,0,401.283,131.362Z" transform="translate(-351.764 -112.331)"/>
        <path id="Trazado_1042752" data-name="Trazado 1042752" d="M203.508,363.993a2.582,2.582,0,0,0-5.163,0,.911.911,0,0,0,1.821,0,.761.761,0,0,1,1.521,0,.911.911,0,0,0,1.821,0Z" transform="translate(-174.264 -317.533)"/>
        <path id="Trazado_1042753" data-name="Trazado 1042753" d="M77.882,361.411a2.585,2.585,0,0,0-2.582,2.582.911.911,0,0,0,1.821,0,.761.761,0,0,1,1.521,0,.911.911,0,0,0,1.821,0A2.584,2.584,0,0,0,77.882,361.411Z" transform="translate(-66.158 -317.533)"/>
        <path id="Trazado_1042754" data-name="Trazado 1042754" d="M141.041,391.489a.91.91,0,0,0-1.285.088,1.438,1.438,0,0,1-2.172,0,.911.911,0,0,0-1.373,1.2,3.261,3.261,0,0,0,4.918,0A.911.911,0,0,0,141.041,391.489Z" transform="translate(-119.476 -343.762)"/>
      </g>
    </g>
  </g>
</svg>
