<svg xmlns="http://www.w3.org/2000/svg" xmlns:xlink="http://www.w3.org/1999/xlink" width="400" height="435" viewBox="0 0 400 435">
  <defs>
    <clipPath id="clip-path">
      <rect id="Rectángulo_415815" data-name="Rectángulo 415815" width="400" height="435" transform="translate(1021 2610)" fill="#fff" stroke="#707070" stroke-width="1"/>
    </clipPath>
    <clipPath id="clip-path-2">
      <rect id="Rectángulo_415817" data-name="Rectángulo 415817" width="506" height="506" transform="translate(-0.002 -0.002)" fill="none"/>
    </clipPath>
    <clipPath id="clip-path-3">
      <path id="Trazado_1043909" data-name="Trazado 1043909" d="M453.7,354.164c-18.123,7.543-93.046,38.728-114.03,115.9-21.548,79.241,17.466,167.444,94.96,202.965,9.485,4.347,33,1.475,54.477-1.4,15.84-2.118,30.577-4.237,37.769-3.46,74.117,8.008,112.282-11.694,148.7-73.224,35.141-59.373,44.738-152.327-9.723-212.932C633.053,345.513,589.819,335,550.9,335c-49.409,0-91.863,16.944-97.2,19.164" transform="translate(-333.793 -335)" fill="none"/>
    </clipPath>
    <clipPath id="clip-path-4">
      <rect id="Rectángulo_415818" data-name="Rectángulo 415818" width="240.854" height="302.291" fill="none"/>
    </clipPath>
    <clipPath id="clip-path-5">
      <rect id="Rectángulo_415819" data-name="Rectángulo 415819" width="345.299" height="321.542" fill="none"/>
    </clipPath>
    <clipPath id="clip-path-7">
      <rect id="Rectángulo_415820" data-name="Rectángulo 415820" width="118.822" height="51.931" fill="none"/>
    </clipPath>
    <clipPath id="clip-path-8">
      <rect id="Rectángulo_415821" data-name="Rectángulo 415821" width="177.378" height="86.392" fill="none"/>
    </clipPath>
    <clipPath id="clip-path-9">
      <rect id="Rectángulo_415824" data-name="Rectángulo 415824" width="98.759" height="101.779" fill="none"/>
    </clipPath>
    <clipPath id="clip-path-10">
      <rect id="Rectángulo_415822" data-name="Rectángulo 415822" width="20.414" height="38.113" fill="none"/>
    </clipPath>
    <clipPath id="clip-path-11">
      <rect id="Rectángulo_415823" data-name="Rectángulo 415823" width="63.549" height="101.779" fill="none"/>
    </clipPath>
  </defs>
  <g id="Enmascarar_grupo_1098830" data-name="Enmascarar grupo 1098830" transform="translate(-1021 -2610)" clip-path="url(#clip-path)">
    <g id="Grupo_1180735" data-name="Grupo 1180735" transform="translate(-3454.099 -2006.099)">
      <g id="Grupo_1180709" data-name="Grupo 1180709" transform="translate(4415.101 4595.101)">
        <g id="Grupo_1180708" data-name="Grupo 1180708" transform="translate(0 0)" clip-path="url(#clip-path-2)">
          <path id="Trazado_1043906" data-name="Trazado 1043906" d="M453.7,354.164c-18.123,7.543-93.046,38.728-114.031,115.9-21.547,79.241,17.466,167.444,94.96,202.965,16.479,7.554,75.3-6.688,92.246-4.857,74.117,8.008,112.282-11.694,148.7-73.224,35.141-59.373,44.738-152.327-9.724-212.932-74.447-82.844-202.616-31.82-212.15-27.852" transform="translate(-266.103 -267.066)" fill="#edf3fc"/>
        </g>
      </g>
      <g id="Grupo_1180717" data-name="Grupo 1180717" transform="translate(4482.791 4663.036)">
        <g id="Grupo_1180716" data-name="Grupo 1180716" transform="translate(0 0)" clip-path="url(#clip-path-3)">
          <g id="Grupo_1180712" data-name="Grupo 1180712" transform="translate(3.351 -3.335)" opacity="0.3">
            <g id="Grupo_1180711" data-name="Grupo 1180711">
              <g id="Grupo_1180710" data-name="Grupo 1180710" clip-path="url(#clip-path-4)">
                <path id="Trazado_1043907" data-name="Trazado 1043907" d="M556.87,318.517H443.164a212.294,212.294,0,0,1,49.768,66.767c10.175,21.571,20.89,44.288,17.787,74.631-.945,9.238-5.465,41.619-30.422,66.176-25.872,25.456-47.99,17.2-87.247,43.2a183.17,183.17,0,0,0-42.7,39.6v11.917c15.225-21.109,30.632-32.83,40.624-39.254,56.152-36.1,107.43-11.737,162.956-56.557,6.4-5.169,11.779-9.508,17.453-16.694,46.8-59.279-2.372-164.988-14.516-189.786" transform="translate(-350.353 -318.518)" fill="#fff"/>
              </g>
            </g>
          </g>
          <g id="Grupo_1180715" data-name="Grupo 1180715" transform="translate(3.351 -3.335)" opacity="0.3">
            <g id="Grupo_1180714" data-name="Grupo 1180714">
              <g id="Grupo_1180713" data-name="Grupo 1180713" clip-path="url(#clip-path-5)">
                <path id="Trazado_1043908" data-name="Trazado 1043908" d="M690.713,318.517h-92.6c4.894,12.781,45.855,123.948-6.336,193.03-22.2,29.39-55.278,43.231-64.012,46.886C472.405,581.6,436.016,560.3,390.981,588.55c-20.759,13.024-33.605,30.46-40.628,41.624v9.885a124.357,124.357,0,0,1,27.956-30.177c39.408-30.049,79.994-20.217,123.675-24.193,52.943-4.819,114.943-30.334,150.714-72.061,55.889-65.2,43.088-164.538,38.015-195.111" transform="translate(-347.353 -318.517)" fill="#cbddf7"/>
              </g>
            </g>
          </g>
        </g>
      </g>
      <g id="Grupo_1180734" data-name="Grupo 1180734" transform="translate(4415.101 4595.101)">
        <g id="Grupo_1180733" data-name="Grupo 1180733" transform="translate(0 0)" clip-path="url(#clip-path-2)">
          <path id="Trazado_1043910" data-name="Trazado 1043910" d="M373.4,1685.078c57.16,1.625,208.31-13.721,320.014,13.262a14.745,14.745,0,0,1,10.537,18.523c-7.308,24.637-40.27,69.056-182.307,62.328-103.037-4.88-140.948-30.538-162.921-41.624-24.495-12.359-46.7-54.233,14.677-52.489" transform="translate(-266.103 -1341.662)" fill="#b9d0f2"/>
          <g id="Grupo_1180720" data-name="Grupo 1180720" transform="translate(78.79 360.819)" opacity="0.2" style="mix-blend-mode: multiply;isolation: isolate">
            <g id="Grupo_1180719" data-name="Grupo 1180719">
              <g id="Grupo_1180718" data-name="Grupo 1180718" clip-path="url(#clip-path-7)">
                <path id="Trazado_1043911" data-name="Trazado 1043911" d="M391.064,1787.46s-8.389,7.626,6.1,20.59,62.915,27.454,85.793,26.31,29.742-18.3,20.59-27.073-92.275-35.842-112.484-19.828" transform="translate(-388.649 -1782.493)" fill="#9c4176"/>
              </g>
            </g>
          </g>
          <g id="Grupo_1180723" data-name="Grupo 1180723" transform="translate(242.174 349.394)" opacity="0.2" style="mix-blend-mode: multiply;isolation: isolate">
            <g id="Grupo_1180722" data-name="Grupo 1180722">
              <g id="Grupo_1180721" data-name="Grupo 1180721" clip-path="url(#clip-path-8)">
                <path id="Trazado_1043912" data-name="Trazado 1043912" d="M1196.2,1786.232c2.266,17.72,18.48,34.964,80.759,21.214,40.888-9.027,69.121-18.355,86.759-32.873,15.15-12.47,16.308-49.546-22.731-48.519-94.394,2.484-147.112,42-144.787,60.178" transform="translate(-1196.127 -1726.032)" fill="#9c4176"/>
              </g>
            </g>
          </g>
          <path id="Trazado_1043913" data-name="Trazado 1043913" d="M673.27,592.873c3.366-23.724,2.24-48.133,6.911-102.819,1.445-16.912,2.793-30.1,4.175-31.679,1.471-1.682,11.891-1.5,34.446-2.189,116.162-3.565,157.373-5.127,160.282-4.158,4.109,1.37.882,10.049-.9,52.236-1.648,39,1.711,91.647-.343,98.5s-96.572,2.055-133.557,2.739-61.168-2.185-65.866-2.185c-3.862,0-7.325,1.7-5.148-10.441" transform="translate(-536.353 -360.19)" fill="#fff"/>
          <path id="Trazado_1043914" data-name="Trazado 1043914" d="M877.757,533.279H866.6a3.351,3.351,0,0,1-3.351-3.351V519a3.351,3.351,0,0,1,3.351-3.351h11.154A3.351,3.351,0,0,1,881.107,519v10.928a3.351,3.351,0,0,1-3.351,3.351" transform="translate(-688.432 -411.163)" fill="#ffc73e"/>
          <path id="Trazado_1043915" data-name="Trazado 1043915" d="M899.984,531.259q-1.157.887-2.391,1.664c-.715.45-.055,1.588.664,1.135.474-.3.936-.612,1.393-.934q-.029,4.564-.229,9.125c-.038.846,1.278.845,1.315,0q.232-5.208.238-10.422c0-.452-.579-.883-.99-.568" transform="translate(-715.579 -423.528)" fill="#fff"/>
          <path id="Trazado_1043916" data-name="Trazado 1043916" d="M871.109,679.334H859.955a3.351,3.351,0,0,1-3.351-3.35V665.055a3.351,3.351,0,0,1,3.351-3.35h11.154a3.351,3.351,0,0,1,3.351,3.35v10.928a3.351,3.351,0,0,1-3.351,3.35" transform="translate(-683.129 -527.665)" fill="#f7582c"/>
          <path id="Trazado_1043917" data-name="Trazado 1043917" d="M889.64,686.233a8.508,8.508,0,0,1-1.669-.246,13.407,13.407,0,0,0-1.649-.174,12.538,12.538,0,0,0-2.229.118,3.042,3.042,0,0,1,.411-.711,5.455,5.455,0,0,1,1.192-1.05,11.538,11.538,0,0,0,2.61-2.068,4.972,4.972,0,0,0,1.088-3.45,3.454,3.454,0,0,0-.564-1.807,3.03,3.03,0,0,0-1.5-1.011,4.605,4.605,0,0,0-4.048.6c-.687.483-.031,1.624.664,1.136a3.184,3.184,0,0,1,3.6-.184,2.048,2.048,0,0,1,.546,1.707,3.671,3.671,0,0,1-.528,1.788,9.1,9.1,0,0,1-2.772,2.321,6.407,6.407,0,0,0-1.391,1.308,5.527,5.527,0,0,0-.887,2.072.666.666,0,0,0,.809.809,11.667,11.667,0,0,1,3.158-.26,10.82,10.82,0,0,1,1.527.19,7.175,7.175,0,0,0,1.635.223c.844-.028.848-1.343,0-1.315" transform="translate(-703.777 -538.756)" fill="#fff"/>
          <path id="Trazado_1043918" data-name="Trazado 1043918" d="M859.224,815.7H848.07a3.351,3.351,0,0,1-3.351-3.351V801.418a3.351,3.351,0,0,1,3.351-3.351h11.154a3.351,3.351,0,0,1,3.351,3.351v10.928a3.351,3.351,0,0,1-3.351,3.351" transform="translate(-673.649 -636.436)" fill="#cdcd00"/>
          <path id="Trazado_1043919" data-name="Trazado 1043919" d="M878.079,818.106a4.074,4.074,0,0,0-1.6-1.4,4.241,4.241,0,0,0,.957-1.011,2.956,2.956,0,0,0,.294-2.788,2.882,2.882,0,0,0-2.02-1.544,5.824,5.824,0,0,0-3.234.427c-.79.286-.449,1.558.35,1.268a5.174,5.174,0,0,1,2.356-.46,1.693,1.693,0,0,1,1.36.857c.591,1.328-.95,2.377-1.945,2.848a.664.664,0,0,0,.157,1.2,3.386,3.386,0,0,1,2.125,1.166,1.916,1.916,0,0,1,.111,2.253,4.2,4.2,0,0,1-2.315,1.29,3.23,3.23,0,0,1-2.674-.5.662.662,0,0,0-.9.236.672.672,0,0,0,.236.9,4.542,4.542,0,0,0,3.757.618,5.2,5.2,0,0,0,3.1-1.985,3.229,3.229,0,0,0-.113-3.371" transform="translate(-694.617 -646.968)" fill="#fff"/>
          <path id="Trazado_1043920" data-name="Trazado 1043920" d="M860.864,951.211H849.71a3.351,3.351,0,0,1-3.351-3.351V936.933a3.351,3.351,0,0,1,3.351-3.351h11.154a3.351,3.351,0,0,1,3.35,3.351v10.928a3.351,3.351,0,0,1-3.35,3.351" transform="translate(-674.957 -744.531)" fill="#f7582c"/>
          <path id="Trazado_1043921" data-name="Trazado 1043921" d="M878.382,954.2l-1.825-.04q-.077-3.373-.153-6.745a.663.663,0,0,0-1.226-.332q-2.236,3.591-4.289,7.291a.665.665,0,0,0,.568.989l3.813.084.06,2.643a.658.658,0,0,0,1.315,0q-.03-1.307-.06-2.614l1.8.039a.658.658,0,0,0,0-1.315m-5.813-.128q1.253-2.224,2.571-4.41.051,2.234.1,4.469l-2.672-.059" transform="translate(-694.456 -755.048)" fill="#fff"/>
          <path id="Trazado_1043922" data-name="Trazado 1043922" d="M855.779,1086.038H844.625a3.351,3.351,0,0,1-3.351-3.35V1071.76a3.351,3.351,0,0,1,3.351-3.35h11.154a3.35,3.35,0,0,1,3.35,3.35v10.928a3.35,3.35,0,0,1-3.35,3.35" transform="translate(-670.901 -852.078)" fill="#cdcd00"/>
          <path id="Trazado_1043923" data-name="Trazado 1043923" d="M872.908,1088.037a3.9,3.9,0,0,0-2.928-.463q.022-.89.043-1.781h4.116a.658.658,0,0,0,0-1.315s-4.761-.045-5.053.062a.588.588,0,0,0-.373.54c-.016.194-.07,3.427-.07,3.427a.665.665,0,0,0,.99.568,2.647,2.647,0,0,1,2.994.387,3.665,3.665,0,0,1,1.009,3.176,2.524,2.524,0,0,1-1.938,2.033,3.353,3.353,0,0,1-2.974-.416.662.662,0,0,0-.9.236.673.673,0,0,0,.236.9,4.412,4.412,0,1,0,4.849-7.353" transform="translate(-692.006 -864.887)" fill="#fff"/>
          <path id="Trazado_1043924" data-name="Trazado 1043924" d="M1323.076,522.027l-11.149-.346a3.351,3.351,0,0,1-3.245-3.453l.339-10.923a3.351,3.351,0,0,1,3.453-3.245l11.149.346a3.35,3.35,0,0,1,3.245,3.453l-.339,10.923a3.351,3.351,0,0,1-3.453,3.245" transform="translate(-1043.732 -401.916)" fill="#f7582c"/>
          <path id="Trazado_1043925" data-name="Trazado 1043925" d="M1342.941,524.15a3.976,3.976,0,0,0-5.163-.775,3.385,3.385,0,0,1,1.917-1.9c.77-.208,2.086-.1,2.475.709.368.763,1.524.134,1.156-.628a3.17,3.17,0,0,0-3.043-1.462,3.894,3.894,0,0,0-3.06,1.683,7.37,7.37,0,0,0-1.268,3.434,8.311,8.311,0,0,0-.153,2.007,9.6,9.6,0,0,0,.36,1.866,3.437,3.437,0,0,0,2.415,2.3,3.351,3.351,0,0,0,3.417-.637,5.719,5.719,0,0,0,1.2-1.358,5.113,5.113,0,0,0,.56-1.816,4.552,4.552,0,0,0-.816-3.429m-1.312,5.116a2.34,2.34,0,0,1-2.151,1,2.685,2.685,0,0,1-1.962-1.248,3.887,3.887,0,0,1-.1-3.417c.766-1.407,2.9-2.115,4.178-.99a3.44,3.44,0,0,1,.039,4.651" transform="translate(-1065.356 -414.709)" fill="#fff"/>
          <path id="Trazado_1043926" data-name="Trazado 1043926" d="M1315.536,669.579l-11.149-.346a3.351,3.351,0,0,1-3.245-3.453l.339-10.923a3.351,3.351,0,0,1,3.453-3.245l11.149.346a3.351,3.351,0,0,1,3.245,3.453l-.339,10.923a3.351,3.351,0,0,1-3.453,3.245" transform="translate(-1037.719 -519.613)" fill="#ffc73e"/>
          <path id="Trazado_1043927" data-name="Trazado 1043927" d="M1337.853,671.608l.01-1.674s0-.007,0-.011a.624.624,0,0,0-.611-.708l-5.707-.177a.658.658,0,0,0-.041,1.315l5.041.157,0,.5c0,.214.042.514.025.754-.09.042-.191.079-.263.122-.186.113-.364.243-.538.373a6.434,6.434,0,0,0-.826.736,7.025,7.025,0,0,0-1.262,1.854,12.733,12.733,0,0,0-1.161,5.118.658.658,0,0,0,1.315.041,11.175,11.175,0,0,1,.5-3.057,7.768,7.768,0,0,1,1.118-2.527,5.7,5.7,0,0,1,1.914-1.607c.486-.271.489-.712.491-1.21" transform="translate(-1061.447 -533.514)" fill="#fff"/>
          <path id="Trazado_1043928" data-name="Trazado 1043928" d="M1312.657,813.712l-11.149-.346a3.35,3.35,0,0,1-3.245-3.453l.339-10.923a3.351,3.351,0,0,1,3.453-3.245l11.149.346a3.351,3.351,0,0,1,3.245,3.453l-.339,10.923a3.351,3.351,0,0,1-3.453,3.245" transform="translate(-1035.422 -634.582)" fill="#cdcd00"/>
          <path id="Trazado_1043929" data-name="Trazado 1043929" d="M1329.465,817.222a9.264,9.264,0,0,0-2.178-1.53,3.943,3.943,0,0,0,1.417-1.339,2.772,2.772,0,0,0-.264-3.386,3.612,3.612,0,0,0-3.526-.482,2.746,2.746,0,0,0-1.772,3.021,3.75,3.75,0,0,0,1.472,2.344c-.09.051-.181.1-.27.155a4.647,4.647,0,0,0-2.426,2.466,2.937,2.937,0,0,0,.85,3.067,5.208,5.208,0,0,0,3.482.915,5.872,5.872,0,0,0,2.049-.448,3.68,3.68,0,0,0,1.3-.979,2.935,2.935,0,0,0,.652-1.975,2.329,2.329,0,0,0-.788-1.829m-2.628-5.6a1.076,1.076,0,0,1,.958.946,1.792,1.792,0,0,1-.424,1.455,3.451,3.451,0,0,1-1.495,1.089c-.019,0-.037,0-.056,0a2.529,2.529,0,0,1-1.4-2.191c.092-1.174,1.45-1.491,2.416-1.295m2.033,8.017c-.106.551-.7.942-1.182,1.166a4.015,4.015,0,0,1-1.714.335,5.988,5.988,0,0,1-1.885-.308,1.621,1.621,0,0,1-.785-2.288,3.083,3.083,0,0,1,1.169-1.078c.51-.319,1.041-.6,1.557-.909a7.827,7.827,0,0,1,2.526,1.617,1.417,1.417,0,0,1,.315,1.465" transform="translate(-1054.188 -646.145)" fill="#fff"/>
          <path id="Trazado_1043930" data-name="Trazado 1043930" d="M987.271,675.162c.058-.845-1.257-.841-1.315,0q-.166,2.415-.2,4.835a3.478,3.478,0,0,0-3.943,2.035,4.37,4.37,0,0,0-.324,2.86,2.949,2.949,0,0,0,1.737,1.885,3.519,3.519,0,0,0,2.7-.073c0,.073.007.145.012.218.055.84,1.371.846,1.315,0a87.722,87.722,0,0,1,.019-11.76m-1.526,10.175a2.289,2.289,0,0,1-2.218.132,1.723,1.723,0,0,1-.807-1.868,2.913,2.913,0,0,1,1.032-1.981,1.947,1.947,0,0,1,1.919-.283c.026.012.053.021.08.03q0,1.964.1,3.926a.693.693,0,0,0-.1.045" transform="translate(-782.653 -537.895)" fill="#f7582c"/>
          <path id="Trazado_1043931" data-name="Trazado 1043931" d="M1024.267,701.391a2.556,2.556,0,0,0-2.179-.285,3.165,3.165,0,0,0-1.325,1.143,4.358,4.358,0,0,0-.406,3.9,2.993,2.993,0,0,0,3.365,1.861,3.028,3.028,0,0,0,2.339-2.94,4.225,4.225,0,0,0-1.793-3.678m-.73,5.309a1.658,1.658,0,0,1-1.943-.981,3.115,3.115,0,0,1,.013-2.25c.453-.978,1.253-1.36,1.92-.988a2.807,2.807,0,0,1,1.215,2.289,1.769,1.769,0,0,1-1.2,1.93" transform="translate(-813.524 -558.988)" fill="#f7582c"/>
          <path id="Trazado_1043932" data-name="Trazado 1043932" d="M1058.144,701.626c-.561-.354-1.692-.459-1.647-1.343a.754.754,0,0,1,.571-.69.678.678,0,0,1,.732.408.664.664,0,0,0,.9.236.671.671,0,0,0,.236-.9,1.971,1.971,0,0,0-2.385-.958,2.094,2.094,0,0,0-1.309,2.43,2.169,2.169,0,0,0,.724,1.174,5.45,5.45,0,0,0,1.261.643.894.894,0,0,1,.595.684.961.961,0,0,1-.332.868,1.664,1.664,0,0,1-2.282-.379c-.579-.62-1.507.312-.93.93a3.166,3.166,0,0,0,2.633,1.06,2.512,2.512,0,0,0,2.132-1.665,2.184,2.184,0,0,0-.9-2.5" transform="translate(-840.66 -556.83)" fill="#f7582c"/>
          <path id="Trazado_1043933" data-name="Trazado 1043933" d="M968.566,972.3a3.486,3.486,0,0,1-2.434,1.287,1.976,1.976,0,0,1-1.921-1.177,4.071,4.071,0,0,1,0-2.523,4.447,4.447,0,0,1,1.308-2.388c.531-.428,1.612-.656,2.1-.021a.679.679,0,0,0,.9.236.662.662,0,0,0,.236-.9,2.722,2.722,0,0,0-3.172-.839,4.5,4.5,0,0,0-2.424,2.873,6.2,6.2,0,0,0-.3,3.621,3.229,3.229,0,0,0,2.613,2.377,4.568,4.568,0,0,0,4.033-1.616c.572-.623-.356-1.555-.93-.93" transform="translate(-767.755 -770.217)" fill="#f7582c"/>
          <path id="Trazado_1043934" data-name="Trazado 1043934" d="M1011.512,967.644c0-.719-1.148-.922-1.292-.175a26.055,26.055,0,0,0-.369,2.64,8.347,8.347,0,0,1-.369,1.031,9.027,9.027,0,0,1-.95,1.654,2.527,2.527,0,0,1-1.2,1.044c-1.083.3-1.3-1.47-1.316-2.15a40.665,40.665,0,0,1,.288-4.321.663.663,0,0,0-.658-.658.671.671,0,0,0-.658.658c-.107,1.32-.274,2.653-.29,3.978a4.368,4.368,0,0,0,1,3.242,2.22,2.22,0,0,0,3.093-.122,5.715,5.715,0,0,0,.978-1.124q.018.431.051.862a.674.674,0,0,0,.658.658.714.714,0,0,0,.658-.658c.152-1.317.373-5.65.372-6.56" transform="translate(-801.26 -770.956)" fill="#f7582c"/>
          <path id="Trazado_1043935" data-name="Trazado 1043935" d="M1054.145,970.752q-.019-.7,0-1.4c.02-.836.086-1.669.181-2.5a.537.537,0,0,0,.005-.056c.009-.075.013-.15.023-.225a3.929,3.929,0,0,0-1.5-2.1,2.9,2.9,0,0,0-2.281-.269,4.2,4.2,0,0,0-2.85,3.155c-.365,1.4-.467,3.178.614,4.3a2.368,2.368,0,0,0,1.914.755,4.188,4.188,0,0,0,2.021-1.017,4.528,4.528,0,0,0,.569-.536c.006.208.013.415.024.623.025.477-.035,1.157.478,1.4a.666.666,0,0,0,.664,0l.032-.022a.658.658,0,0,0,.326-.568c-.015-.148-.209-1.324-.214-1.545m-2.066-1.017a4.014,4.014,0,0,1-1.161,1.013,1.278,1.278,0,0,1-1.269.272c-.979-.469-.939-1.816-.788-2.72a3.439,3.439,0,0,1,1.54-2.625,1.965,1.965,0,0,1,1.548-.234,2.423,2.423,0,0,1,1.018,1.465,6.856,6.856,0,0,1-.888,2.828" transform="translate(-835.371 -768.862)" fill="#f7582c"/>
          <path id="Trazado_1043936" data-name="Trazado 1043936" d="M1095.111,941.32a2.892,2.892,0,0,1-1.727.224c-.576-.191-.551-.693-.549-1.218q.007-2.085.123-4.169c0-.027,0-.053.005-.08.228-.007.455-.022.682-.05a.719.719,0,0,0,.465-.193.668.668,0,0,0,.193-.465c-.014-.321-.292-.7-.658-.658-.2.024-.395.038-.593.047q.248-3.453.783-6.878a.678.678,0,0,0-.459-.809.663.663,0,0,0-.809.459q-.565,3.566-.831,7.169c-.2-.035-.4-.072-.6-.12a.658.658,0,1,0-.35,1.268,8.5,8.5,0,0,0,.875.158c-.021.371-.049.741-.065,1.113q-.051,1.2-.068,2.405a4.992,4.992,0,0,0,.228,2.277c.7,1.42,2.475,1.177,3.705.788.8-.255.461-1.525-.35-1.268" transform="translate(-869.546 -739.321)" fill="#f7582c"/>
          <path id="Trazado_1043937" data-name="Trazado 1043937" d="M1130.721,962.206a.665.665,0,0,0-.809.459s-.43-.012-.472-.02c-.1-.018-.194-.035-.292-.049a4.483,4.483,0,0,0-.7-.062,2.617,2.617,0,0,0-1.057.237c0-.149,0-.3,0-.446a.658.658,0,0,0-1.315,0q0,3.583-.208,7.162c-.05.846,1.266.843,1.315,0q.146-2.471.187-4.946a.747.747,0,0,1,.618-.612,3.579,3.579,0,0,1,.936-.045,2.948,2.948,0,0,0,1.343.064,1.259,1.259,0,0,0,.909-.934.675.675,0,0,0-.459-.809" transform="translate(-897.914 -766.953)" fill="#f7582c"/>
          <path id="Trazado_1043938" data-name="Trazado 1043938" d="M1164.219,966.56c-.153-1.514-.875-3.233-2.6-3.4a3.182,3.182,0,0,0-3.2,2.589c-.315,1.577-.585,3.331.6,4.623a2.793,2.793,0,0,0,3.865.151,4.434,4.434,0,0,0,1.343-3.961m-1.917,2.7a1.573,1.573,0,0,1-2.189.35,2.566,2.566,0,0,1-.641-2.437c.289-1.567.706-2.486,1.777-2.693,1.054-.2,1.522,1.122,1.636,1.92a3.617,3.617,0,0,1-.583,2.86" transform="translate(-923.657 -768.117)" fill="#f7582c"/>
          <path id="Trazado_1043939" data-name="Trazado 1043939" d="M981.348,1101.01a2.585,2.585,0,0,1-2.949.263,2.7,2.7,0,0,1-1.2-2.844,4.865,4.865,0,0,1,1.564-3.292,1.739,1.739,0,0,1,1.413-.342,1.177,1.177,0,0,1,.908.916.676.676,0,0,0,.658.658.662.662,0,0,0,.658-.658,2.548,2.548,0,0,0-2.613-2.272,3.759,3.759,0,0,0-3.1,2.192,7,7,0,0,0-.776,4.243,3.913,3.913,0,0,0,2.227,2.741,3.954,3.954,0,0,0,4.133-.674c.644-.551-.29-1.478-.93-.93" transform="translate(-778.233 -872.042)" fill="#cdcd00"/>
          <path id="Trazado_1043940" data-name="Trazado 1043940" d="M1015.867,1093.927l-.629,7.959c-.067.844,1.249.839,1.315,0l.629-7.959c.067-.844-1.249-.839-1.315,0" transform="translate(-809.663 -871.928)" fill="#cdcd00"/>
          <path id="Trazado_1043941" data-name="Trazado 1043941" d="M1020.988,1079.317a.675.675,0,0,0-.6-.4l-.175.024a.661.661,0,0,0-.29.169l-.1.133a.652.652,0,0,0-.09.332v.137a.737.737,0,0,0,.192.465.732.732,0,0,0,.465.193l.175-.023a.657.657,0,0,0,.29-.169l.1-.133a.656.656,0,0,0,.09-.332v-.137a.5.5,0,0,0-.057-.253" transform="translate(-813.247 -860.455)" fill="#cdcd00"/>
          <path id="Trazado_1043942" data-name="Trazado 1043942" d="M1039.145,1100.522a1.2,1.2,0,0,1-.065-.132,2.142,2.142,0,0,1-.039-.647,16.647,16.647,0,0,1,.154-1.767,7.582,7.582,0,0,0,.007-3.327,2.41,2.41,0,0,0-2.214-1.55,4.477,4.477,0,0,0-2.491.773c.011-.207.024-.414.034-.622.04-.846-1.275-.844-1.315,0q-.194,4.058-.592,8.1a.662.662,0,0,0,.658.657.672.672,0,0,0,.657-.657q.3-3,.479-6.011a.625.625,0,0,0,.346-.1,3.412,3.412,0,0,1,2.459-.788c.989.253.862,1.363.8,2.177-.082,1.132-.321,2.254-.3,3.393.017.887.518,2.089,1.622,1.788a.662.662,0,0,0-.2-1.293" transform="translate(-823.53 -871.387)" fill="#cdcd00"/>
          <path id="Trazado_1043943" data-name="Trazado 1043943" d="M1078.555,1099.789c-1.046.664-2.318,1.435-3.481.572a3.5,3.5,0,0,1-1.289-2.783,4.27,4.27,0,0,1,1.08-2.956,1.75,1.75,0,0,1,1.351-.66.924.924,0,0,1,.867.674c.193.824,1.461.475,1.269-.35a2.314,2.314,0,0,0-2.723-1.591,4.064,4.064,0,0,0-2.7,2.558c-.926,2.19-.46,5.242,1.8,6.446,1.559.829,3.127.087,4.483-.774.713-.453.053-1.591-.664-1.136" transform="translate(-855.329 -871.414)" fill="#cdcd00"/>
          <path id="Trazado_1043944" data-name="Trazado 1043944" d="M1116.819,1095.633a3.326,3.326,0,0,0-2.737.527,4.039,4.039,0,0,0-1.41,1.734c-.528,1.807-.618,4.052.861,5.51a3.711,3.711,0,0,0,4.5.364c2.97-1.932,2.428-7.319-1.219-8.135m.731,6.871a2.462,2.462,0,0,1-2.906.131c-1.041-.774-1.049-2.186-.873-3.424a2.462,2.462,0,0,1,2.576-2.336,2.943,2.943,0,0,1,2.287,2.591,3.344,3.344,0,0,1-1.085,3.037" transform="translate(-887.105 -873.72)" fill="#cdcd00"/>
          <path id="Trazado_1043945" data-name="Trazado 1043945" d="M1436.765,530.773c-.457-.264-.973-.414-1.411-.712-.484-.33-.459-.676-.264-1.192a2.087,2.087,0,0,1,.953-1.268c.257-.1.735-.071.822.24.226.813,1.506.509,1.279-.31a1.915,1.915,0,0,0-2.571-1.15,2.763,2.763,0,0,0-1.293,1.156,4.193,4.193,0,0,0-.657,1.8c-.09,1.332,1.128,1.909,2.139,2.39.412.2.855.44.91.941a1.247,1.247,0,0,1-.533,1.141c-1.143.783-2.515-.078-3.306-.941-.573-.625-1.531.276-.958.9a4.549,4.549,0,0,0,3.168,1.646,2.854,2.854,0,0,0,2.775-1.71,2.349,2.349,0,0,0-1.052-2.934" transform="translate(-1141.859 -419.61)" fill="#f7582c"/>
          <path id="Trazado_1043946" data-name="Trazado 1043946" d="M1478.889,530.316a6.637,6.637,0,0,0-.391-1.144,2.709,2.709,0,0,0-1.8-1.539,3.525,3.525,0,0,0-3.916,2.326,4.951,4.951,0,0,0,.306,4.307,4.2,4.2,0,0,0,1.925,1.777,3.549,3.549,0,0,0,2.978-.369c.766-.36.137-1.516-.628-1.156a2.28,2.28,0,0,1-1.857.312,2.738,2.738,0,0,1-1.185-1.064,4.809,4.809,0,0,1-.557-1.779c.138-.024,1.087,0,1.347.022l1.489.121c.749.061,1.82.287,2.274-.515a1.692,1.692,0,0,0,.01-1.3m-3.874.367a4.857,4.857,0,0,0-1.091-.014,2.309,2.309,0,0,1,2.39-1.779,1.517,1.517,0,0,1,1.081,1.031,6.256,6.256,0,0,1,.255.864.844.844,0,0,1,.017.106h-.039c-.862.009-1.754-.138-2.614-.208" transform="translate(-1174.35 -420.656)" fill="#f7582c"/>
          <path id="Trazado_1043947" data-name="Trazado 1043947" d="M1481.07,549.257h-.005c-.014.021-.012.027.005,0" transform="translate(-1181.229 -437.97)" fill="#f7582c"/>
          <path id="Trazado_1043948" data-name="Trazado 1043948" d="M1513.931,529.721c-.282,2.642-.408,4.51-.539,7.163a.658.658,0,0,0,1.315.041c.131-2.654.257-4.521.539-7.163.09-.842-1.225-.879-1.315-.041" transform="translate(-1207.022 -421.901)" fill="#f7582c"/>
          <path id="Trazado_1043949" data-name="Trazado 1043949" d="M1517.569,516.752a.658.658,0,0,0-.041,1.315.658.658,0,0,0,.041-1.315" transform="translate(-1209.832 -412.042)" fill="#f7582c"/>
          <path id="Trazado_1043950" data-name="Trazado 1043950" d="M1533.533,534.26a11.481,11.481,0,0,0-1.6-.793c-.432-.2-.7-.442-.69-.893a1.05,1.05,0,0,1,1.871-.528c.586.612,1.545-.288.959-.9a2.544,2.544,0,0,0-3.1-.474,2.3,2.3,0,0,0-.822,2.912c.556,1.133,2,1.186,2.882,1.944a1.25,1.25,0,0,1,.5,1.153c-.116.458-.714.623-1.112.724a2.576,2.576,0,0,1-2.814-.617.661.661,0,0,0-.93-.029.675.675,0,0,0-.029.93,3.316,3.316,0,0,0,2.859,1.17c1.083-.045,2.519-.344,3.1-1.369a2.525,2.525,0,0,0-1.085-3.23" transform="translate(-1219.063 -422.88)" fill="#f7582c"/>
          <path id="Trazado_1043951" data-name="Trazado 1043951" d="M1423.382,679.708c-.837-.829-2.333-.939-2.851-2.084a1.179,1.179,0,0,1,.316-1.456.691.691,0,0,1,1.02.3c.24.807,1.521.5,1.278-.31a2.014,2.014,0,0,0-2.877-1.171,2.5,2.5,0,0,0-.867,3.32,3.386,3.386,0,0,0,1.316,1.352,11.665,11.665,0,0,1,1.616.867,1.525,1.525,0,0,1-.446,2.5,2.494,2.494,0,0,1-3.17-1.282.658.658,0,0,0-1.156.628,4.131,4.131,0,0,0,2.962,2.142,3.254,3.254,0,0,0,3.175-1.4,2.814,2.814,0,0,0-.316-3.406" transform="translate(-1130.511 -538.063)" fill="#ffc73e"/>
          <path id="Trazado_1043952" data-name="Trazado 1043952" d="M1461.264,677.211a.673.673,0,0,0-.678.637q-.459,3.259-.63,6.547a3.219,3.219,0,0,0,.028,1.293.663.663,0,0,0,1.235-.294q.155-3.768.682-7.505a.662.662,0,0,0-.637-.678" transform="translate(-1164.358 -540.033)" fill="#ffc73e"/>
          <path id="Trazado_1043953" data-name="Trazado 1043953" d="M1463.512,664.094a.5.5,0,0,0-.129-.216l-.13-.107a.657.657,0,0,0-.329-.1l-.175.018a.658.658,0,0,0-.3.16l-.142.133a.677.677,0,0,0-.029.93l.13.107a.658.658,0,0,0,.329.1l.176-.018a.656.656,0,0,0,.3-.16l.142-.133a.637.637,0,0,0,.158-.714" transform="translate(-1166.112 -529.234)" fill="#ffc73e"/>
          <path id="Trazado_1043954" data-name="Trazado 1043954" d="M1482.573,681.937a3.217,3.217,0,0,0-3.8.406,4.813,4.813,0,0,0,.359,6.869,3.852,3.852,0,0,0,3.961.356c.757-.379.129-1.535-.628-1.156a2.468,2.468,0,0,1-2.236-.06,2.584,2.584,0,0,1-1.284-1.813l4.56-.578a.639.639,0,0,0,.473-.445,3.219,3.219,0,0,0-1.407-3.58m-1.173.926a1.862,1.862,0,0,1,1.381,1.872l-3.915.5c.147-1.351.977-2.779,2.534-2.368" transform="translate(-1178.397 -543.454)" fill="#ffc73e"/>
          <path id="Trazado_1043955" data-name="Trazado 1043955" d="M1520.322,654.8a.673.673,0,0,0-.892-.264c-.711.3-1.485.543-2.168.9-.166.086-.149-.006-.18-.244a9.028,9.028,0,0,1-.034-.951q-.054-2.265.04-4.53l.868.037a.658.658,0,1,0,.041-1.315l-.841-.036a68.114,68.114,0,0,1,.935-7.877.68.68,0,0,0-.434-.823.662.662,0,0,0-.823.434,71.393,71.393,0,0,0-.992,8.21l-.135-.006c-.115,0-.231-.008-.346-.015l-.044,0-.009,0a.647.647,0,0,0-.826.05.665.665,0,0,0-.029.93,1.36,1.36,0,0,0,.911.342c.139.007.277.012.416.018-.04.953-.068,1.907-.068,2.861q0,1.043.031,2.086a2.966,2.966,0,0,0,.335,1.629,1.392,1.392,0,0,0,1.777.379c.738-.292,1.468-.609,2.2-.914a.663.663,0,0,0,.264-.892" transform="translate(-1207.729 -510.086)" fill="#ffc73e"/>
          <path id="Trazado_1043956" data-name="Trazado 1043956" d="M1556.531,684.489a2.613,2.613,0,0,0,.227-1.213,2.231,2.231,0,0,0-.3-1.225,2.565,2.565,0,0,0-1.853-1.133,3.591,3.591,0,0,0-3.677,2.39,4.546,4.546,0,0,0,.662,4.384,3.259,3.259,0,0,0,4.59.808.663.663,0,0,0,.029-.93.672.672,0,0,0-.93-.029,1.9,1.9,0,0,1-2.488-.462,3.238,3.238,0,0,1-.844-2.253l2.471.254c.766.079,1.671.209,2.115-.591m-4.268-.949a2.354,2.354,0,0,1,1.639-1.306,1.517,1.517,0,0,1,1.205.25,1.209,1.209,0,0,1,.3,1.25.572.572,0,0,1-.022.1.854.854,0,0,1-.246,0c-.365-.023-.729-.072-1.092-.11l-1.787-.184" transform="translate(-1236.726 -542.968)" fill="#ffc73e"/>
          <path id="Trazado_1043957" data-name="Trazado 1043957" d="M1420.741,839.744a4.806,4.806,0,0,0-3.371-3.4,3.371,3.371,0,0,0-3.831,2.55,4.792,4.792,0,0,0,1.176,4.808,3.556,3.556,0,0,0,4.425.4,4.094,4.094,0,0,0,1.6-4.356m-2.061,3.058a2.323,2.323,0,0,1-2.908.088,3.167,3.167,0,0,1-1.05-3.278,2.231,2.231,0,0,1,2.012-2.041,3.329,3.329,0,0,1,2.635,2.17,2.849,2.849,0,0,1-.689,3.061" transform="translate(-1127.204 -666.906)" fill="#cdcd00"/>
          <path id="Trazado_1043958" data-name="Trazado 1043958" d="M1464.492,844.4a.663.663,0,0,0-.892-.264,2.647,2.647,0,0,1-3.536-.708,3.845,3.845,0,0,1,.165-4.374c.661-.83,1.685-.361,2.484,0a.662.662,0,0,0,.823-.434.674.674,0,0,0-.434-.823c-1.112-.5-2.375-.837-3.432-.023a4.513,4.513,0,0,0-1.453,2.891,4.429,4.429,0,0,0,2.823,5,3.687,3.687,0,0,0,3.189-.368.677.677,0,0,0,.264-.892" transform="translate(-1162.965 -667.717)" fill="#cdcd00"/>
          <path id="Trazado_1043959" data-name="Trazado 1043959" d="M1503.891,821.326a.833.833,0,0,1-.594-.568,2.31,2.31,0,0,1,.036-1.378,5.75,5.75,0,0,0,.348-3.1,2.622,2.622,0,0,0-1.965-1.8,2.546,2.546,0,0,0-1.9.386q.185-2.988.179-5.986c0-.845-1.317-.89-1.315-.041a92.355,92.355,0,0,1-.879,12.986.662.662,0,0,0,.637.678.673.673,0,0,0,.678-.637q.372-2.682.584-5.381a2.008,2.008,0,0,1,2.277-.476,1.884,1.884,0,0,1,.345,2.088,5.475,5.475,0,0,0-.335,2.878,2.187,2.187,0,0,0,1.861,1.666.664.664,0,0,0,.678-.637.67.67,0,0,0-.637-.678" transform="translate(-1194.585 -644.538)" fill="#cdcd00"/>
          <path id="Trazado_1043960" data-name="Trazado 1043960" d="M1544.931,839.747a3.479,3.479,0,0,0-1.494-1.931,3.4,3.4,0,0,0-2.378-.368,3.172,3.172,0,0,0-2.531,2.41,4.262,4.262,0,0,0,1.25,4.393,3.309,3.309,0,0,0,4.268-.1,4.343,4.343,0,0,0,.885-4.4m-1.569,3.19a1.894,1.894,0,0,1-2.5.458,2.363,2.363,0,0,1-1.116-1.576,2.479,2.479,0,0,1,1.335-3.015,2.045,2.045,0,0,1,1.423.015,1.972,1.972,0,0,1,1.069,1.044,3.19,3.19,0,0,1-.207,3.074" transform="translate(-1226.954 -667.79)" fill="#cdcd00"/>
          <path id="Trazado_1043961" data-name="Trazado 1043961" d="M978.532,807.694a3.963,3.963,0,0,1-1.7.7c-.393.057-1.047.124-1.3-.271a4.072,4.072,0,0,1-.331-1.829,14.369,14.369,0,0,1,.074-2.109c.041-.408.093-.816.149-1.223q1.012-.036,2.025-.056a.658.658,0,1,0,0-1.315c-.609.012-1.218.03-1.827.051.091-.572.184-1.143.272-1.714q.334-2.17.668-4.34a.678.678,0,0,0-.459-.809.663.663,0,0,0-.809.459l-.792,5.144c-.067.437-.139.876-.209,1.314-.4.018-.8.033-1.2.055a.658.658,0,1,0,0,1.315c.335-.018.67-.03,1.005-.046a22.6,22.6,0,0,0-.212,2.261,11.115,11.115,0,0,0,.179,2.5,2.274,2.274,0,0,0,1,1.659c1.242.716,3.049.14,4.132-.617.689-.481.032-1.622-.664-1.136" transform="translate(-775.524 -633.799)" fill="#cdcd00"/>
          <path id="Trazado_1043962" data-name="Trazado 1043962" d="M1020.777,826.819a.67.67,0,0,0-.9.236h0a.773.773,0,0,0-.1.02c-.076,0-.634-.07-.761-.083a2.2,2.2,0,0,0-.62.032,2.47,2.47,0,0,0-1,.457c0-.179.01-.357.013-.535a.658.658,0,0,0-1.315,0c-.047,2.236-.236,6.8-.25,6.851a.663.663,0,0,0,.459.809l.046.008a.665.665,0,0,0,.64-.169,1.354,1.354,0,0,0,.236-.921q.018-.49.034-.98.03-.909.056-1.819c.014-.5.024-1,.037-1.494.466-1.121,1.952-.879,2.08-.862a1.84,1.84,0,0,0,.466.011,1.417,1.417,0,0,0,1.116-.661.666.666,0,0,0-.236-.9" transform="translate(-810.131 -658.966)" fill="#cdcd00"/>
          <path id="Trazado_1043963" data-name="Trazado 1043963" d="M1080.918,829.057a3.314,3.314,0,0,0-1.188-.529c-.336-.093-.631-.123-.65-.5a1.473,1.473,0,0,1,.421-1.193.705.705,0,0,1,.9-.049c.619.576,1.551-.352.93-.93a2.037,2.037,0,0,0-2.761.049,2.723,2.723,0,0,0-.617,2.947,1.816,1.816,0,0,0,1.123.855,3.41,3.41,0,0,1,1.044.384,1.351,1.351,0,0,1-1.417,2.3c-.749-.392-1.415.743-.664,1.136a2.71,2.71,0,0,0,3.954-2.136,2.805,2.805,0,0,0-1.074-2.33" transform="translate(-859.496 -658.19)" fill="#cdcd00"/>
          <path id="Trazado_1043964" data-name="Trazado 1043964" d="M1048.6,829.086a2.368,2.368,0,0,0-1.957-1.047,3.652,3.652,0,0,0-3.3,1.862,4.916,4.916,0,0,0-.468,2.411,3.214,3.214,0,0,0,.614,2.179,3.359,3.359,0,0,0,4.624.7.661.661,0,0,0,0-.93.673.673,0,0,0-.93,0,2,2,0,0,1-2.476-.4,1.5,1.5,0,0,1-.509-1.205c-.009-.272-.015-.546,0-.819l2.634-.031c.721-.009,1.934.207,2.173-.716a2.843,2.843,0,0,0-.4-2m-1.067,1.4-1.094.013-1.931.022a2.361,2.361,0,0,1,1.645-1.141,1.535,1.535,0,0,1,1.135.177,1.342,1.342,0,0,1,.415.917c-.059,0-.117.01-.17.01" transform="translate(-831.706 -660.34)" fill="#cdcd00"/>
          <path id="Trazado_1043965" data-name="Trazado 1043965" d="M985.247,561.25a17.194,17.194,0,0,0,.059-1.983.658.658,0,0,0-1.315,0c-.034.637-.05,1.274-.058,1.912a5.633,5.633,0,0,1-.226,1.077c-.211.654-.709,1.594-1.46,1.711a1.008,1.008,0,0,1-.837-.317,2.156,2.156,0,0,1-.554-1.05,9.452,9.452,0,0,1-.166-3.095.663.663,0,0,0-.658-.658.671.671,0,0,0-.658.658,11.969,11.969,0,0,0,.125,3.037,3.479,3.479,0,0,0,1.364,2.346,2.233,2.233,0,0,0,2.586-.049,3.553,3.553,0,0,0,.542-.485c0,.059,0,.118.008.177a.672.672,0,0,0,.658.658.664.664,0,0,0,.658-.658c-.061-1.093-.081-2.187-.068-3.281" transform="translate(-781.024 -445.448)" fill="#ffc73e"/>
          <path id="Trazado_1043966" data-name="Trazado 1043966" d="M1023.812,562c-.221-.081-.345-.5-.4-.747a4.784,4.784,0,0,1-.033-1.21,5.009,5.009,0,0,0-.318-2.624,2.535,2.535,0,0,0-2.247-1.17,3.162,3.162,0,0,0-1.358.3.657.657,0,0,0-1.306.081q.061,2.983.121,5.965a.658.658,0,0,0,1.315,0q-.045-2.245-.091-4.491a1.855,1.855,0,0,1,1.527-.535,1.261,1.261,0,0,1,.809.359,1.5,1.5,0,0,1,.255.84c.056.783-.1,1.567-.014,2.35a2.361,2.361,0,0,0,1.389,2.146.664.664,0,0,0,.809-.459.672.672,0,0,0-.459-.809" transform="translate(-811.99 -443.347)" fill="#ffc73e"/>
          <path id="Trazado_1043967" data-name="Trazado 1043967" d="M1058.715,559.668a4.01,4.01,0,0,0-.622-2,3.042,3.042,0,0,0-1.563-1.128,2.8,2.8,0,0,0-3.309,1.706,4.179,4.179,0,0,0,.287,4.089,2.971,2.971,0,0,0,3.622.935,3.449,3.449,0,0,0,1.584-3.606m-1.957,2.3a1.577,1.577,0,0,1-2.047-.243,2.484,2.484,0,0,1-.434-2.6c.294-.825.994-1.475,1.678-1.372a1.654,1.654,0,0,1,.95.527,2.135,2.135,0,0,1,.462,1.145,2.64,2.64,0,0,1-.609,2.544" transform="translate(-839.651 -443.701)" fill="#ffc73e"/>
          <path id="Trazado_1043968" data-name="Trazado 1043968" d="M1564.393,766.559c-2.854-8.991-7.854-17.661-14.964-23.95s-16.873-10.049-26.425-8.361c-4.308.762-9.119,3.17-9.671,8.027a6.966,6.966,0,0,0,.687,3.762,8.562,8.562,0,0,0-.834-.828c-.148-.127-.373.116-.233.253,3.191,3.132,3.186,8.109,1.667,12.048-1.756,4.555-5.467,8.06-8.429,11.827-2.895,3.681-5.522,8.176-5.068,13.037.446,4.776,3.692,8.613,6.381,12.354a22.57,22.57,0,0,1,3.638,6.939,9.788,9.788,0,0,1-.582,7.12c-2.031,4.13-6.623,7.9-5.509,13.006.952,4.356,6.157,5.945,9.916,6.9a38.355,38.355,0,0,0,13.727.9,41.4,41.4,0,0,0,24.092-11.416,47.477,47.477,0,0,0,12.891-22.77,53.786,53.786,0,0,0-1.287-28.852" transform="translate(-1197.197 -585.208)" fill="#770e42"/>
          <path id="Trazado_1043969" data-name="Trazado 1043969" d="M1558.966,742.61c-7.124-6.3-16.873-10.049-26.424-8.361-4.308.762-9.119,3.17-9.671,8.027a6.969,6.969,0,0,0,.688,3.762,8.559,8.559,0,0,0-.834-.829c-.148-.127-.373.116-.233.254,3.191,3.132,3.186,8.108,1.667,12.048-1.69,4.386-5.192,7.8-8.093,11.409a20.581,20.581,0,0,0-2.383,4.612,12.331,12.331,0,0,0-.3,6.914c1.184,5,4.72,8.87,7.206,13.231a17.48,17.48,0,0,1,2.379,6.87,15.325,15.325,0,0,1-.842,6.67,14.848,14.848,0,0,1-3.561,5.577c-.788.774-1.641,1.487-2.461,2.232-1.23,2.068-2.065,4.257-1.516,6.768.952,4.356,6.156,5.945,9.916,6.9a38.355,38.355,0,0,0,13.727.9,41.4,41.4,0,0,0,24.092-11.417,47.474,47.474,0,0,0,12.892-22.77,53.785,53.785,0,0,0-1.287-28.852c-2.854-8.991-7.854-17.661-14.964-23.95" transform="translate(-1206.734 -585.208)" fill="#5d0935"/>
          <path id="Trazado_1043970" data-name="Trazado 1043970" d="M1537.536,930.679c-1-1.624-2.335-3-3.454-4.53a10.085,10.085,0,0,1-2.07-5.126,8.994,8.994,0,0,1,1.289-5.7c.041-.064-.054-.133-.1-.069a9.7,9.7,0,0,0-.613,9.977,38.5,38.5,0,0,0,3.266,4.56,13.208,13.208,0,0,1,1.587,2.669,16.368,16.368,0,0,1,.866,3.331.165.165,0,0,0,.311.048c.725-1.74-.167-3.666-1.086-5.162" transform="translate(-1221.458 -729.893)" fill="#770e42"/>
          <path id="Trazado_1043971" data-name="Trazado 1043971" d="M1532.414,809.121a.042.042,0,0,0-.081.013,18.616,18.616,0,0,1-1.89,10.15c-.731,1.425-5.022,8.144-6.837,4.973a1.351,1.351,0,0,1,.617-2.027.8.8,0,0,1,1.118.4.669.669,0,0,1-.43.876.438.438,0,0,0,.191.854,1.494,1.494,0,0,0,1-1.895,1.569,1.569,0,0,0-1.9-1.069c-2.051.421-2.114,3.053-.609,4.156,1.968,1.443,4.174-1.023,5.337-2.417a17.209,17.209,0,0,0,3.275-6.184,15.185,15.185,0,0,0,.2-7.831" transform="translate(-1214.337 -645.231)" fill="#5d0935"/>
          <path id="Trazado_1043972" data-name="Trazado 1043972" d="M1530.016,1040.774a14.911,14.911,0,0,0-4.116-6.794c-.048-.046-.137,0-.1.067.878,1.79,2.113,3.364,2.859,5.227a7.971,7.971,0,0,1,.339,5.818c-.618,1.5-2.46,2.894-3.87,1.352a1.647,1.647,0,0,1,.042-2.422c.89-.591,1.849.429.923,1.152-.362.283.02.838.424.661a1.388,1.388,0,0,0,.739-1.653,1.565,1.565,0,0,0-1.7-1.107c-2.016.188-2.157,2.83-.982,4.034a3,3,0,0,0,4.645-.511,6.93,6.93,0,0,0,.8-5.824" transform="translate(-1215.344 -824.6)" fill="#770e42"/>
          <path id="Trazado_1043973" data-name="Trazado 1043973" d="M1276.452,1089.689c-2.1-.092-22.409,6.592-22.409,6.592s3.275,26.278,10.442,38.155,35.31.516,45.943-15.773c0,0,6.375,26.264,7.312,45.674s69.025,16.577,79.887,12.418,28.817-30.455,28.817-30.455,12.975-4.052,8.62-19.018-16.724-62.208-41.52-64.942c-32.335-3.565-35.451-2-36.357-5.106,0,0-18.568,3.427-29.656,6.77-10.059,3.032-22.568,6.307-33.189,18.054s-13.917,15.818-13.917,15.818Z" transform="translate(-1000.15 -843.163)" fill="#f7582c"/>
          <path id="Trazado_1043974" data-name="Trazado 1043974" d="M1357.787,1258.1a21.419,21.419,0,0,1-5.628,8.208c-3.848,3.209,3.223,1.7,4.921.305s7.125,8.926,5.465,14.669,9.146-6.506,4.7-11.188a70.515,70.515,0,0,1-9.454-11.994" transform="translate(-1077.512 -1003.384)" fill="#e73e28"/>
          <path id="Trazado_1043975" data-name="Trazado 1043975" d="M1566.074,1296.555c13.38,11.123,37.124,5.623,26.373,1.637s-27.892-9.633.47-17.126c35.318-9.331,39.574-22.429,41.325-36.442,1.147-9.179,1.787-12.88,3.822-3.484,4.6,21.216,12.8,47.283,17.635,61.473-5.8,7-12.867,14.419-18.217,16.468-10.862,4.159-78.951,6.992-79.887-12.418a206.357,206.357,0,0,0-2.855-23.745,48.192,48.192,0,0,0,11.336,13.637" transform="translate(-1240.003 -985.489)" fill="#e73e28"/>
          <path id="Trazado_1043976" data-name="Trazado 1043976" d="M1276.452,1217.63l1.236,2.547c-4.686,7.185-20.541,7.986-17.87,21.919,1.954,10.192,8.715,23.908,28.149,16.964s17.545-29.749,19.78-23.712a47.925,47.925,0,0,1,2.681,11.256c-10.634,16.289-38.777,27.65-45.944,15.773s-10.442-38.155-10.442-38.155,20.314-6.684,22.409-6.592" transform="translate(-1000.15 -971.104)" fill="#e73e28"/>
          <path id="Trazado_1043977" data-name="Trazado 1043977" d="M1258.893,1200.527s9.9-2.918,12.694.812c1.9,2.537.854,7.073-8.073,10.173s-14.651,1.172-15.421-1.579,1.08-6.658,10.8-9.406" transform="translate(-995.279 -956.596)" fill="#fa703d"/>
          <path id="Trazado_1043978" data-name="Trazado 1043978" d="M1200.4,964.729s-12.392-43.677-20.117-52.953c-3.49-4.19-16.082-13.1-17.8-11.766s4.807,7.026,6.657,9.619c0,0-4.852-.112-4.04,4.128,0,0-3.665-.222-1.97,5.263,0,0-1.559,2.035.679,4.629s4.781,2.641,4.8.908c0,0,3.674,3.826,5.032,5.036,4.078,3.637,4.866,38,7.66,41,0,0,14.482,3.557,19.1-5.863" transform="translate(-926.886 -717.644)" fill="#d7866b"/>
          <path id="Trazado_1043979" data-name="Trazado 1043979" d="M1167.828,947.52a.361.361,0,0,0-.278-.25,3.714,3.714,0,0,0-3.295,1.123,4.142,4.142,0,0,0-1.05,3.01,2.614,2.614,0,0,0-2.257,1.295,3.64,3.64,0,0,0,.007,3.225,9.274,9.274,0,0,0,4.825,5.239c.068.028.153-.058.1-.109a16.287,16.287,0,0,1-3.818-4.5,4.787,4.787,0,0,1-.7-2.938,2.1,2.1,0,0,1,1.877-1.619c.007.062.01.125.019.187a11.744,11.744,0,0,0,1.359,4,9.969,9.969,0,0,0,1.233,1.8,4.525,4.525,0,0,0,1.735,1.391c.058.02.141-.037.109-.093a17.543,17.543,0,0,0-1.369-1.647,10.649,10.649,0,0,1-.933-1.451,11.676,11.676,0,0,1-1.2-3.568,4.518,4.518,0,0,1,.486-3.392,3.166,3.166,0,0,1,1.6-1.156,3.635,3.635,0,0,1,1.037-.1.617.617,0,0,0,.435-.131.225.225,0,0,0,.086-.265l-.014-.042" transform="translate(-925.591 -755.407)" fill="#cd6e61"/>
          <path id="Trazado_1043980" data-name="Trazado 1043980" d="M1214.019,1037.7c-.556-1.815-12.586-44.442-11.068-45.163a.459.459,0,1,0-.408-.82,6,6,0,0,1-6.345-1.162,9.945,9.945,0,0,1-2.729-6.261c-.045-.348-.718-.285-.706.07a5.976,5.976,0,0,1-1,3.518,6.85,6.85,0,0,1-1.291,1.413c-.221.188-.268.234-.322.471a.768.768,0,0,1-.943.643c-.355-.076-.577.258-.388.5a1.5,1.5,0,0,1-.283,1.969,1.11,1.11,0,0,0,1.083-1.173s3.674,3.826,5.032,5.036c1.591,1.419,4.777,32.058,7.66,41,.588,1.822,11.871.482,11.71-.044" transform="translate(-947.897 -784.8)" fill="#cd6e61"/>
          <path id="Trazado_1043981" data-name="Trazado 1043981" d="M1193.566,963.36a4.866,4.866,0,0,0-2.528-1.393,14.083,14.083,0,0,0-3.264-.681,13.928,13.928,0,0,0-3.347.113,4.606,4.606,0,0,0-2.516,1.034,1.666,1.666,0,0,0-.373,2.159,3.14,3.14,0,0,0,2.232,1.066c.97.117,2.141-.106,2.99.389.865.5.921,1.675,1.139,2.493a7.37,7.37,0,0,0,4.056,4.811c.063.029.132-.05.078-.092a8.746,8.746,0,0,1-3.2-4.419c-.367-1.325-.252-3-1.848-3.688a6.366,6.366,0,0,0-2.333-.35,3.1,3.1,0,0,1-2.178-.608c-.885-.995.909-1.776,1.769-1.921a14.039,14.039,0,0,1,5.753.3,12.12,12.12,0,0,1,1.424.48,7.287,7.287,0,0,0,1.846.7c.23.028.412-.234.306-.4" transform="translate(-942.113 -766.588)" fill="#cd6e61"/>
          <path id="Trazado_1043982" data-name="Trazado 1043982" d="M2036.6,1362.189s4.006-3.517,7.89-3.482a13.3,13.3,0,0,1,12.915,10.783c1.817,8.461,1.876-1.736,1.876-1.736s4.416,13.594-6.914,17.053-15.767-22.619-15.767-22.619" transform="translate(-1624.364 -1083.637)" fill="#e73e28"/>
          <path id="Trazado_1043983" data-name="Trazado 1043983" d="M1520.967,1308.181l-77.9-33.23a4.943,4.943,0,0,0-6.489,2.62l-3.814,8.98a4.961,4.961,0,0,0,2.614,6.5l77.9,33.23a4.943,4.943,0,0,0,6.489-2.62l3.815-8.98a4.961,4.961,0,0,0-2.614-6.5" transform="translate(-1142.391 -1016.511)" fill="#e3e3ee"/>
          <path id="Trazado_1043984" data-name="Trazado 1043984" d="M1476.842,1318.2l-7.446-3.432a3.351,3.351,0,0,1-1.64-4.446l3.353-7.275a3.351,3.351,0,0,1,4.446-1.64l7.446,3.432a3.35,3.35,0,0,1,1.64,4.445l-3.353,7.275a3.351,3.351,0,0,1-4.445,1.64" transform="translate(-1170.375 -1037.681)" fill="#cdcd00"/>
          <path id="Trazado_1043985" data-name="Trazado 1043985" d="M1498.585,1323.383a3.771,3.771,0,0,0-.246-2.8,2.724,2.724,0,0,0-2.46-1.332,3.038,3.038,0,0,0-2.61,1.226,3.964,3.964,0,0,0-.744,2.784,3.13,3.13,0,0,0,1.845,2.274,3.8,3.8,0,0,0,1.9.259,3.545,3.545,0,0,1-.717.718,2.671,2.671,0,0,1-2.044.479c-.485-.084-1.406-.433-1.384-1.066a.567.567,0,0,0-.453-.631.552.552,0,0,0-.631.452c-.073,2.059,2.521,2.711,4.118,2.192,1.9-.619,2.943-2.753,3.42-4.555m-4.812.2a2.241,2.241,0,0,1,.1-1.946,1.9,1.9,0,0,1,1.482-1.245,1.957,1.957,0,0,1,1.867.488,2.293,2.293,0,0,1,.382,1.849,6.9,6.9,0,0,1-.583,1.768,2.554,2.554,0,0,1-3.249-.914" transform="translate(-1189.198 -1052.163)" fill="#fff"/>
          <path id="Trazado_1043986" data-name="Trazado 1043986" d="M1565.274,1362.362a.562.562,0,0,0-.453-.63c-.268-.076-.131-.647-.087-.808a5.674,5.674,0,0,1,.613-1.283,4.382,4.382,0,0,0,.8-2.564,2.1,2.1,0,0,0-1.432-1.837,4.173,4.173,0,0,0-1.884-.192.583.583,0,0,0-.322-.51.56.56,0,0,0-.728.269l-2.828,5.079a.554.554,0,0,0,.269.728.56.56,0,0,0,.728-.269l2.286-4.1a.569.569,0,0,0,.259-.016,2.8,2.8,0,0,1,2.129.167c.609.376.473,1.246.241,1.8a20.814,20.814,0,0,0-1.2,2.5,1.6,1.6,0,0,0,.977,2.124.553.553,0,0,0,.631-.453" transform="translate(-1243.326 -1080.271)" fill="#cdcd00"/>
          <path id="Trazado_1043987" data-name="Trazado 1043987" d="M1608.371,1372.659l0-.006h0c.014-.047.032-.093.044-.14.168-.625-.764-.837-1.04-.319l-.951,1.786a7.96,7.96,0,0,1-.9.9c-.579.5-1.6,1.481-2.448,1.067-.772-.375-.6-1.575-.43-2.235a10.7,10.7,0,0,1,1.47-2.941.552.552,0,0,0-.269-.728.563.563,0,0,0-.728.269,12.408,12.408,0,0,0-1.429,2.785,4.045,4.045,0,0,0-.058,2.789,2.019,2.019,0,0,0,2.326,1.191,3.473,3.473,0,0,0,1.036-.418l-.214.4c-.332.624.665,1.081,1,.459l1.584-2.974a5.67,5.67,0,0,0,1-1.884" transform="translate(-1277.233 -1092.636)" fill="#cdcd00"/>
          <path id="Trazado_1043988" data-name="Trazado 1043988" d="M1674.925,1398.135a.561.561,0,0,0-.773.065,19.381,19.381,0,0,1-4.117,3.049q.288-2.366.578-4.732c.085-.7-1-.882-1.083-.178q-.353,2.893-.706,5.787c-.046.373.338.8.732.6a21.006,21.006,0,0,0,5.437-3.822.553.553,0,0,0-.066-.774" transform="translate(-1331 -1113.3)" fill="#cdcd00"/>
          <path id="Trazado_1043989" data-name="Trazado 1043989" d="M1698.918,1422.9a.562.562,0,0,0-.7-.325c-1.874.469-3.8-1.757-2.936-3.492a.836.836,0,0,0,.07.05q1.087.661,2.231,1.22c.644.313,1.543.78,2.035-.034a3.287,3.287,0,0,0,.442-1.891,1.765,1.765,0,0,0-1.27-1.463,3.731,3.731,0,0,0-3.874.775,3.292,3.292,0,0,0-.93,1.856,3.423,3.423,0,0,0,.444,2.089,3.724,3.724,0,0,0,4.167,1.92.552.552,0,0,0,.325-.7m-1.139-5.058c.35.045.928.138,1.123.478a1.442,1.442,0,0,1-.085,1.083c-.009.026-.077.172-.109.26a.207.207,0,0,1-.033-.011c-.292-.175-.634-.294-.939-.447-.587-.295-1.16-.615-1.724-.952a2.578,2.578,0,0,1,1.768-.411" transform="translate(-1351.052 -1129.918)" fill="#cdcd00"/>
          <path id="Trazado_1043990" data-name="Trazado 1043990" d="M1637.071,1392.168c.562.218,1.432.528,1.983.138a2.04,2.04,0,0,0,.653-1.78,2.262,2.262,0,0,0-.9-1.577,2.944,2.944,0,0,0-3.615.426,3.21,3.21,0,0,0-1.179,3.579,3.253,3.253,0,0,0,3.342,2.243c.7-.1.6-1.189-.106-1.092a2.308,2.308,0,0,1-2.342-2.24,1.752,1.752,0,0,1,.155-.577c.013.007.024.016.039.022.653.288,1.3.6,1.966.859m.639-2.543a1.168,1.168,0,0,1,.817.67,1.144,1.144,0,0,1,.093.517.988.988,0,0,1-.184.568h0a.586.586,0,0,0-.115-.006,2.676,2.676,0,0,1-.378-.068,4.546,4.546,0,0,1-.683-.247c-.517-.22-1.03-.452-1.545-.681a2.257,2.257,0,0,1,1.995-.755" transform="translate(-1303.096 -1107.399)" fill="#cdcd00"/>
          <path id="Trazado_1043991" data-name="Trazado 1043991" d="M1489.217,1350.206l-71.855-17.33a5.308,5.308,0,0,0-6.458,3.839l-2.586,10.149a5.321,5.321,0,0,0,3.831,6.472l71.855,17.33a5.308,5.308,0,0,0,6.458-3.839l2.586-10.149a5.321,5.321,0,0,0-3.831-6.471" transform="translate(-1123.077 -1062.899)" fill="#fff"/>
          <path id="Trazado_1043992" data-name="Trazado 1043992" d="M1442.085,1364.249l-10.711-2.729a3.351,3.351,0,0,1-2.42-4.074l2.674-10.493a3.351,3.351,0,0,1,4.074-2.42l10.711,2.729a3.351,3.351,0,0,1,2.42,4.074l-2.674,10.493a3.351,3.351,0,0,1-4.074,2.42" transform="translate(-1139.588 -1072.247)" fill="#ffc73e"/>
          <path id="Trazado_1043993" data-name="Trazado 1043993" d="M1480.8,1372.974a6,6,0,0,0-.3-3.646,3.752,3.752,0,0,0-2.22-2.038c-2.208-.9-4.147,1.044-5.1,2.871a7.738,7.738,0,0,0-.534,6.36,3.626,3.626,0,0,0,5.078,2.035c1.937-1.062,2.7-3.55,3.076-5.582m-1.854,1.8a5.386,5.386,0,0,1-1.2,2.125,2.186,2.186,0,0,1-3.66-.435,5.823,5.823,0,0,1-.145-4.77,6.741,6.741,0,0,1,1.495-2.439,2.446,2.446,0,0,1,1.931-.88c1.874.245,2.386,2.273,2.235,3.724a12.473,12.473,0,0,1-.657,2.674" transform="translate(-1174.149 -1090.301)" fill="#fff"/>
          <path id="Trazado_1043994" data-name="Trazado 1043994" d="M1454,1361.479a.66.66,0,0,0-.814-.79q-1.506.444-3.034.807c-.819.195-.458,1.452.361,1.257.646-.154,1.289-.322,1.929-.5q-1.185,4.471-2.171,8.99c-.178.821,1.088,1.147,1.267.323q1.1-5.076,2.462-10.09" transform="translate(-1156.211 -1085.197)" fill="#fff"/>
          <path id="Trazado_1043995" data-name="Trazado 1043995" d="M1536.249,1370.923q-.908,3.361-1.817,6.722a4.464,4.464,0,0,0-2.854-.343,4.263,4.263,0,0,0-2.375,2.043,4.475,4.475,0,0,0-.548,3.06,3.477,3.477,0,0,0,1.643,2.271,3.76,3.76,0,0,0,2.091.53l-.184.679a.654.654,0,0,0,1.267.323l4.043-14.962a.654.654,0,0,0-1.267-.323m-6.243,11.477a3.319,3.319,0,0,1,1.648-3.732,3.024,3.024,0,0,1,2.438.235l-1.333,4.932a2.344,2.344,0,0,1-2.754-1.435" transform="translate(-1219.139 -1093.005)" fill="#ffc73e"/>
          <path id="Trazado_1043996" data-name="Trazado 1043996" d="M1570.124,1412.918c.235-.809-1.033-1.131-1.267-.323a55.432,55.432,0,0,0-1.525,6.862.672.672,0,0,0,.472.795.658.658,0,0,0,.8-.472,55.464,55.464,0,0,1,1.525-6.862" transform="translate(-1250.04 -1126.247)" fill="#ffc73e"/>
          <path id="Trazado_1043997" data-name="Trazado 1043997" d="M1580.389,1397.593a.654.654,0,0,0-.323,1.267.654.654,0,0,0,.323-1.267" transform="translate(-1259.828 -1114.637)" fill="#ffc73e"/>
          <path id="Trazado_1043998" data-name="Trazado 1043998" d="M1598.094,1425.013a3.452,3.452,0,0,1-3.2-.614,3.125,3.125,0,0,1-1.106-3.027c.006-.034.018-.067.025-.1l3.141.848c.942.254,2.223.69,2.9-.315a1.8,1.8,0,0,0,.115-1.5,5.6,5.6,0,0,0-.471-1.325,3.122,3.122,0,0,0-2.356-1.589,4.235,4.235,0,0,0-4.267,2.554,4.609,4.609,0,0,0,.563,4.847,4.774,4.774,0,0,0,5.016,1.477c.8-.259.443-1.518-.361-1.257m-2.028-6.267a2.121,2.121,0,0,1,1.824.308,2.809,2.809,0,0,1,.848,1.723c.033.15.088.257-.015.331s-.293.034-.408.015c-.483-.079-.963-.251-1.435-.378l-2.568-.693a3.011,3.011,0,0,1,1.754-1.306" transform="translate(-1270.076 -1130.424)" fill="#ffc73e"/>
          <path id="Trazado_1043999" data-name="Trazado 1043999" d="M1638.977,1432.617q-1.511-.344-3.007-.75-.748-.2-1.49-.424c-.2-.06-.408-.122-.612-.184.031-.024.06-.05.091-.074.214-.164.437-.317.664-.461a9.982,9.982,0,0,1,1.5-.772c.54-.223,1.09-.417,1.64-.614a5.169,5.169,0,0,0,1.584-.721,1.44,1.44,0,0,0,.507-1.533c-.212-.626-.843-.824-1.4-1.046q-1.78-.711-3.617-1.266c-.806-.244-1.127,1.024-.323,1.268a36.731,36.731,0,0,1,3.853,1.362c.079.034.158.071.236.106-.044-.02.085-.082-.015.037a1.15,1.15,0,0,1-.482.277c-.6.228-1.205.429-1.8.656a12,12,0,0,0-3.33,1.825c-.472.38-1.139.916-.709,1.585a1.317,1.317,0,0,0,.776.482c.349.111.7.216,1.05.32q2.26.67,4.56,1.192a.654.654,0,0,0,.323-1.267" transform="translate(-1301.735 -1136.311)" fill="#ffc73e"/>
          <path id="Trazado_1044000" data-name="Trazado 1044000" d="M1688.71,1435.8a.67.67,0,0,0-.892.244q-1.181,1.6-2.39,3.176a14.756,14.756,0,0,1-1.492,1.783c-.213-1.831-.339-3.671-.369-5.514a.654.654,0,0,0-1.308.026,55.529,55.529,0,0,0,.516,6.708.663.663,0,0,0,.988.55,9.476,9.476,0,0,0,2.6-2.633q1.313-1.711,2.6-3.446a.658.658,0,0,0-.244-.892" transform="translate(-1341.721 -1144.391)" fill="#ffc73e"/>
          <path id="Trazado_1044001" data-name="Trazado 1044001" d="M1728.954,1443.729c-.519.082-1.027.776-1.121.88l-.663.722-1.325,1.444c-.534.582-1.057,1.2-1.6,1.782-.143-1.985-.274-3.971-.406-5.958-.056-.836-1.364-.818-1.308.026.165,2.468.321,4.938.51,7.4a.663.663,0,0,0,1.12.447,20.4,20.4,0,0,0,1.579-1.648l1.609-1.753,1.562-1.7a2.01,2.01,0,0,0,.566-.846c.1-.411-.121-.86-.518-.8" transform="translate(-1373.84 -1150.062)" fill="#ffc73e"/>
          <path id="Trazado_1044002" data-name="Trazado 1044002" d="M2023.568,1364.94s.809-3.711,6.1-4.223c4.429-.429,11.791,4.036,11.733,12.779s-4.526,10.743-11.147,10.489-6.683-19.046-6.683-19.046" transform="translate(-1613.971 -1085.218)" fill="#fa703d"/>
          <path id="Trazado_1044003" data-name="Trazado 1044003" d="M1772.243,1385.233c.552-5.695-.093-14.173-8.467-15.507,0,0-28.673,2.011-39.223,3.187s-17.224,4.694-21.955,11.34-9.106,16.41-7.791,19.239,3.811-3.48,4.7-5.4c0,0-1.149,5.167,3.014,5.4,0,0,3.571,1.926,5.261.2,0,0,3.83,1.63,5.141-.2s-.285-2.425-.285-2.425,5.605-6.8,7.056-9.028,2.285-3.408,6.789-3.423c3.534-.012,29.123,1.132,39.985,1.626a5.547,5.547,0,0,0,5.772-5.009" transform="translate(-1351.542 -1092.426)" fill="#d7866b"/>
          <path id="Trazado_1044004" data-name="Trazado 1044004" d="M1756.762,1499.812a12.209,12.209,0,0,1,.978-2.129c.272-.462.633-1.2,1.159-1.4a.1.1,0,0,1,.136.081,3.514,3.514,0,0,1-.531,1.395c-.245.532-.465,1.078-.669,1.627a10.358,10.358,0,0,0-.781,3.385,2.1,2.1,0,0,0,1.541,2.11,3.727,3.727,0,0,0,2.171-.055,3.872,3.872,0,0,1,1.4-.335.056.056,0,0,1,.046.075,2.207,2.207,0,0,1-1.287.97,4.159,4.159,0,0,1-2.069.31,3.112,3.112,0,0,1-2.576-1.945,6.529,6.529,0,0,1,.481-4.087" transform="translate(-1400.625 -1193.369)" fill="#cd6e61"/>
          <path id="Trazado_1044005" data-name="Trazado 1044005" d="M1730.8,1493.735a12.034,12.034,0,0,1,2.961-7.7c.04-.041.106.016.086.063a24.867,24.867,0,0,0-1.953,6.284,6.3,6.3,0,0,0,.118,3.135c.6,1.435,2.282,1.108,3.5,1.319a.142.142,0,0,1,.03.271,3.133,3.133,0,0,1-4.746-3.369" transform="translate(-1380.434 -1185.187)" fill="#cd6e61"/>
          <path id="Trazado_1044006" data-name="Trazado 1044006" d="M1716.017,1489.492a13.71,13.71,0,0,1,2.231-6.6c.089-.131.289-.01.237.133a22.605,22.605,0,0,0-1.421,5.957,7.5,7.5,0,0,0,.1,2.663,2.761,2.761,0,0,0,.525,1.011c.341.4.763.436,1.1.767a.076.076,0,0,1-.012.117c-.6.481-1.656-.327-2.038-.786a4.522,4.522,0,0,1-.718-3.263" transform="translate(-1368.627 -1182.651)" fill="#cd6e61"/>
          <path id="Trazado_1044007" data-name="Trazado 1044007" d="M1457.955,1442.46s-31.634,12-59.771-14.255-40.29-28.337-46.729-27.242,2.684,43.739,2.684,43.739,31.6,62.734,64.319,70.762c12.928,3.172,30.9,1.731,41.8-1.163,16.7-4.43,24.7-14.388,34.268-33.047,12.94-25.246,21.068-59.27,7.024-68.469s-43.6,29.675-43.6,29.675" transform="translate(-1076.017 -1117.167)" fill="#5d1f65"/>
          <path id="Trazado_1044008" data-name="Trazado 1044008" d="M1363.356,1452.365c12.278.97,51.107,43.849,68.355,47.018s74.769-24.144,74.769-24.144c-2.8,31.113-18.553,57.136-29.4,71.712a42.191,42.191,0,0,1-16.6,8.241c-10.908,2.894-28.876,4.335-41.8,1.163-32.715-8.028-64.319-70.762-64.319-70.762s-4.4-20.549-4.93-33.484a115.07,115.07,0,0,1,13.932.256" transform="translate(-1076.232 -1158.058)" fill="#411348"/>
          <path id="Trazado_1044009" data-name="Trazado 1044009" d="M1634.18,1714.3l-27.857,23.382s5.563,11.781,16.072,16.269a241.207,241.207,0,0,1,28.447-20.454Z" transform="translate(-1281.151 -1367.277)" fill="#d7866b"/>
          <path id="Trazado_1044010" data-name="Trazado 1044010" d="M1724.483,1704.8l-3.652,3.944a3.692,3.692,0,0,0-.823,3.585c1.219,4,5.116,12.487,16.7,15.771a3.7,3.7,0,0,0,3.01-.467l4.713-3.039Z" transform="translate(-1371.704 -1359.703)" fill="#872893"/>
          <path id="Trazado_1044011" data-name="Trazado 1044011" d="M1814.43,1443.856s3-11.536-5.606-18.4-16.36-10.093-25.1-3.847c-9.939,7.1-39.511,39.6-42.553,43.617s-7.276,9.993-7.622,13.034a33.586,33.586,0,0,0,18.777,19.106s10.782,1.729,25.8-12.284c11.742-10.96,31.152-32.221,34.759-34.015Z" transform="translate(-1382.632 -1131.153)" fill="#872893"/>
          <path id="Trazado_1044012" data-name="Trazado 1044012" d="M1736.767,1511.414c-.846,7.855,3.61,13.688,5.621,10.914,2.68-3.7,5.2-5.316,3.743,2.459s10.411,5.382,16.975,1.228,40.118-36.58,46.954-46.262a12.186,12.186,0,0,0,1.615-11.38c5.005,6.776,2.755,15.443,2.755,15.443l-1.551,7.215c-3.606,1.794-23.016,23.055-34.759,34.015-15.015,14.013-25.8,12.284-25.8,12.284a33.586,33.586,0,0,1-18.777-19.106c.189-1.661,1.54-4.2,3.22-6.81" transform="translate(-1382.632 -1171.113)" fill="#5d1f65"/>
          <path id="Trazado_1044013" data-name="Trazado 1044013" d="M1495.032,1904.574c.673-.817,1.5-1.74,2.422-2.728-2.5,5.656-1.517,10.306,4.094,16.709a17.431,17.431,0,0,0,16.359,5.568c-8.18,6.689-14.511,4.708-19,.162-5.146-5.208-9.84-12.468-3.872-19.711" transform="translate(-1190.151 -1516.878)" fill="#e3e3ee"/>
          <path id="Trazado_1044014" data-name="Trazado 1044014" d="M1516.99,1843.105c-5.612-6.4-6.595-12.361-4.094-18.018,7.268-7.768,21.067-19.76,22.23-19.465,1.311.332.755,3.032.755,3.032,4.607,7.938,13.382,13.211,13.382,13.211h2.684a1.7,1.7,0,0,1,1.488,2.541c-2.224,3.885-8.891,11.427-16.4,19.47a37.856,37.856,0,0,1-3.689,3.489c-4.939,1.01-11.7,1.055-16.359-4.26" transform="translate(-1205.592 -1440.119)" fill="#b1b000"/>
          <path id="Trazado_1044015" data-name="Trazado 1044015" d="M1553.054,1835.807l13.538-15.176s12.981,2.942,13.382,13.211l-14.485,13.893c-1.306,1.253-5.034,4.1-6.09,2.628-1.695-2.358-5.869-6.022-9-8.217-1.215-.851,1.67-5.231,2.658-6.339" transform="translate(-1236.305 -1452.095)" fill="#cdcd00"/>
          <path id="Trazado_1044016" data-name="Trazado 1044016" d="M1590.1,1878.81a1.424,1.424,0,0,0,1.349-1.873c-.171-.513-4.307-12.593-15.977-14.831a1.424,1.424,0,0,0-.535,2.8c10.012,1.92,13.778,12.825,13.815,12.935a1.424,1.424,0,0,0,1.348.972" transform="translate(-1255.194 -1485.157)" fill="#8c8c07"/>
          <path id="Trazado_1044017" data-name="Trazado 1044017" d="M1564.216,1911.523a1.344,1.344,0,0,0,.232-.031,1.306,1.306,0,0,0,.983-1.561c-.122-.542-3.115-13.275-14-13.61a1.306,1.306,0,0,0-.081,2.611c8.855.273,11.508,11.463,11.534,11.576a1.305,1.305,0,0,0,1.328,1.015" transform="translate(-1236.296 -1512.469)" fill="#8c8c07"/>
          <path id="Trazado_1044018" data-name="Trazado 1044018" d="M1364.855,1668.642l6.973,42s-13.206,6.988-21.352,2.209l-11.7-40.157Z" transform="translate(-1067.739 -1330.86)" fill="#d7866b"/>
          <path id="Trazado_1044019" data-name="Trazado 1044019" d="M1358.985,1638.941a29.209,29.209,0,0,1,.906,8.392,3.958,3.958,0,0,1-2.582,3.4c-4.365,1.606-16.316,5.68-23.8,5.094a3.783,3.783,0,0,1-3.289-2.566,19.906,19.906,0,0,1-.946-6.826Z" transform="translate(-1060.151 -1307.168)" fill="#872893"/>
          <path id="Trazado_1044020" data-name="Trazado 1044020" d="M1310.63,1410.8s5.665,23.277,4.726,34.807a6.622,6.622,0,0,1-2.922,4.943,37.176,37.176,0,0,1-25.032,5.692,9.867,9.867,0,0,1-8.281-6.858c-2.28-7.2-5.857-19.614-6.178-27.591-.459-11.393-1.639-25.642,19.633-23.833,15.392,1.309,18.054,12.84,18.054,12.84" transform="translate(-1015.081 -1114.823)" fill="#5d1f65"/>
          <path id="Trazado_1044021" data-name="Trazado 1044021" d="M1292.578,1397.96a23.136,23.136,0,0,1,10.974,3.537c1.039,7.954,3.815,30.192,3.488,38.368-.4,10.032-16.218,10.635-17.753,3.879s-4-4.348-3.169,1.605c.653,4.669-3.494,6.414-7.287,3.11-2.281-7.3-5.58-19.021-5.888-26.667-.459-11.393-1.639-25.642,19.633-23.833" transform="translate(-1015.081 -1114.823)" fill="#872893"/>
          <path id="Trazado_1044022" data-name="Trazado 1044022" d="M1349.492,1940.2c3.209-.849,8.8-6.651,13.938-15.415,3.746-6.388,5.368-16.076,5.972-20.861.365,1.29.686,2.5.949,3.554,1.683,6.761-2.256,18.463-8.92,27.587s-18.346,16.991-27.353,14.125c-4.957-1.578-6.019-6.472-5.8-11.492,6.787-1.062,18.638,3.183,21.218,2.5" transform="translate(-1059.341 -1518.537)" fill="#fff"/>
          <path id="Trazado_1044023" data-name="Trazado 1044023" d="M1337.324,1830.315s19.7.944,22.67-.448,1.725-7.609,1.725-7.609c2.532.24,5.811,9.558,7.785,16.525-.6,4.785-2.226,14.473-5.972,20.861-5.139,8.764-10.729,14.566-13.938,15.415-2.58.682-14.432-3.563-21.218-2.5a75.809,75.809,0,0,1,1.667-10.814c1.029-5.629,7.281-31.428,7.281-31.428" transform="translate(-1059.443 -1453.392)" fill="#cdcd00"/>
          <path id="Trazado_1044024" data-name="Trazado 1044024" d="M1360.666,1871.133l6.844-22.427a3.632,3.632,0,0,0-2.081-4.51c-17.105-6.119-17.731,3.043-17.731,3.043l-5.834,25.04s5.494,6.832,13.68,4.137a8,8,0,0,0,5.122-5.282" transform="translate(-1070.202 -1469.213)" fill="#e5e515"/>
          <path id="Trazado_1044025" data-name="Trazado 1044025" d="M1375.609,1906.66c-2.807-1.776-10.815-6.019-19.092-2.787a1.526,1.526,0,0,0-.958,1.2,1.506,1.506,0,0,0,1.828,1.689c3.62-.857,11.051-1.865,16.519,2.39a1.5,1.5,0,0,0,2.3-.644,1.515,1.515,0,0,0-.6-1.847" transform="translate(-1081.112 -1517.553)" fill="#b1b000"/>
          <path id="Trazado_1044026" data-name="Trazado 1044026" d="M1364.164,1949.544a19.8,19.8,0,0,0-17.846-2.671,1.743,1.743,0,0,0-1.165,1.416l-.028.208a1.736,1.736,0,0,0,2.052,1.936c3.489-.667,10.111-1.313,15.192,1.891a1.549,1.549,0,0,0,2.328-.892l.059-.213a1.55,1.55,0,0,0-.592-1.677" transform="translate(-1072.79 -1551.948)" fill="#b1b000"/>
          <path id="Trazado_1044027" data-name="Trazado 1044027" d="M1652.245,954.985a62.562,62.562,0,0,1,5.767,8.81,2.225,2.225,0,0,1-1.538,3.19l-3.961.819a2.687,2.687,0,0,0-1.755,4.03c3.976,6.479,13,10.845,34.84,2.588l-8.055-37.722-11.654,3.906Z" transform="translate(-1316.278 -747.019)" fill="#d7866b"/>
          <path id="Trazado_1044028" data-name="Trazado 1044028" d="M1690.627,962.572l-5.658-25.872-11.655,3.906-13.643,14.379a66.341,66.341,0,0,1,4.529,6.593,37.252,37.252,0,0,1,26.426.994" transform="translate(-1323.705 -747.018)" fill="#cd6e61"/>
          <path id="Trazado_1044029" data-name="Trazado 1044029" d="M1809.568,688.415c.219-.422,1.766-15.606,14.987-13.816s8.6,27.859-6.189,27.1-8.8-13.28-8.8-13.28" transform="translate(-1442.314 -537.833)" fill="#770e42"/>
          <path id="Trazado_1044030" data-name="Trazado 1044030" d="M1845.565,683.7c-1.19-1.592-3.345-1.607-5.087-1.095a10.716,10.716,0,0,0-4.612,2.835,9.281,9.281,0,0,0-2.628,5.287.115.115,0,0,0,.223.052,10.815,10.815,0,0,1,6.1-7.107c1.561-.661,3.719-1.164,5.1.136a1.914,1.914,0,0,1,.393,2.431,1.314,1.314,0,0,1-1.061.553,1.282,1.282,0,0,1-.426-.055,1.137,1.137,0,0,1-.281-.137,1.215,1.215,0,0,1-.278-.275c.224.034.5-.195.336-.43-.495-.725-1.361.046-1.088.76a1.845,1.845,0,0,0,2.014.947c1.828-.291,2.306-2.545,1.291-3.9" transform="translate(-1462.151 -544.096)" fill="#5d0935"/>
          <path id="Trazado_1044031" data-name="Trazado 1044031" d="M1855.018,724.223a3.241,3.241,0,0,0-1.677.061,3.076,3.076,0,0,0-2.078,2.353.156.156,0,0,0,.307.061,2.915,2.915,0,0,1,1.892-1.869,2.645,2.645,0,0,1,1.364-.025,2.747,2.747,0,0,1,.676.262,1.867,1.867,0,0,0,.753.334.187.187,0,0,0,.178-.231c-.091-.569-.928-.834-1.414-.947" transform="translate(-1476.527 -577.468)" fill="#5d0935"/>
          <path id="Trazado_1044032" data-name="Trazado 1044032" d="M1836.553,694.4c.874,6.273,1.133,15.554-4.352,14.987-8.389-.869-16.417-6.712-16.374,4.931,1.4,1.73,3.979,3.057,8.488,3.289,11.672.6,17.008-15.51,12.238-23.207" transform="translate(-1448.264 -553.742)" fill="#5d0935"/>
          <path id="Trazado_1044033" data-name="Trazado 1044033" d="M1783.226,805.594a14.183,14.183,0,0,0-4.187-1.277,8.233,8.233,0,0,1-4.449-1.752c-1.262-1.22-1.087-2.882-.475-4.38a35.041,35.041,0,0,0,1.882-4.462A12.171,12.171,0,0,0,1774.95,785a12,12,0,0,0-6.5-5.509,11.779,11.779,0,0,0-4.227-.692c-1.37.031-2.732.24-4.1.225a4.394,4.394,0,0,1-3.4-1.2c-1.119-1.277-.89-3.185-.341-4.656.572-1.533,1.448-2.929,2.01-4.468a15.6,15.6,0,0,0,.974-4.574,9.757,9.757,0,0,0-3.008-7.867,11.075,11.075,0,0,0-7.616-2.716,15.646,15.646,0,0,0-8.643,3.155,24.684,24.684,0,0,0-9.569,15.366,25,25,0,0,0,3.514,17.84,23.8,23.8,0,0,0,1.568,2.185,53.488,53.488,0,0,0-1.9,16.433,62.213,62.213,0,0,0,2.8,16.97c1.485,4.753,3.582,9.811,7.982,12.567a15.364,15.364,0,0,0,13.844.935,17.758,17.758,0,0,0,5.993-4.2,10.807,10.807,0,0,0,8.491,1.943,20.5,20.5,0,0,0,8.654-3.943c4.536-3.357,8.274-8.5,8.587-14.292.274-5.067-2.243-10.484-6.828-12.909" transform="translate(-1379.896 -600.921)" fill="#770e42"/>
          <path id="Trazado_1044034" data-name="Trazado 1044034" d="M1800.937,925a4.623,4.623,0,0,0-4.22-1.694l-.026,0c-3.065.454-7.262,2.288-9.8-.462-2.25-2.44-1.619-6.093-.97-9.013.674-3.033,1.381-6.312-.161-9.213a5.46,5.46,0,0,0-2.951-2.642,7.224,7.224,0,0,0-4.741.23c-3.138,1.076-6.384,4.039-9.906,3.15a8.141,8.141,0,0,1-3.584-2.523,12.455,12.455,0,0,0-3.271-2.639,9.314,9.314,0,0,0-8.281.448,12.828,12.828,0,0,0-5.143,5.287v.011a23.4,23.4,0,0,0,1.77,2.512,54.767,54.767,0,0,0-1.855,17.738,61.255,61.255,0,0,0,2.784,15.763c1.281,4.081,3.024,8.369,6.29,11.226a14.791,14.791,0,0,0,8.266,1.1,23.934,23.934,0,0,0,14.408-7.641,23.483,23.483,0,0,0,3.885-5.773c-.633,5.415-5.264,10.508-5.059,10.29a10.807,10.807,0,0,0,8.491,1.943,20.5,20.5,0,0,0,8.654-3.943c4.537-3.357,8.274-8.5,8.587-14.292a14.636,14.636,0,0,0-3.171-9.864" transform="translate(-1393.95 -717.285)" fill="#5d0935"/>
          <path id="Trazado_1044035" data-name="Trazado 1044035" d="M1861.2,963.681a2,2,0,0,0-2.186.22c-1.293,1.166.381,3.494,1.824,2.408.339-.255-.054-.77-.413-.594-.533.261-1.264-.481-.977-1s1.16-.451,1.541-.093a1.464,1.464,0,0,1-.016,1.854,2.418,2.418,0,0,1-2.144.805c-2.818-.2-4.446-3.181-4.978-5.638-.694-3.212-.136-6.621-1.262-9.755-.852-2.371-2.781-4.73-5.467-4.91-1.81-.121-3.443.8-5.222.9a3.057,3.057,0,0,1-2.445-.792,1.92,1.92,0,0,1-.43-2.287c.038-.064-.051-.132-.1-.069a2.306,2.306,0,0,0,.726,3.153c1.584,1.106,3.736.423,5.443.055a5.337,5.337,0,0,1,3.067.076,5.26,5.26,0,0,1,2.1,1.563,9.36,9.36,0,0,1,1.966,4.855c.523,3.815-.107,7.975,2.327,11.266a5.81,5.81,0,0,0,4.305,2.532,3.011,3.011,0,0,0,3.361-2.632,2.015,2.015,0,0,0-1.026-1.917" transform="translate(-1466.406 -753.403)" fill="#770e42"/>
          <path id="Trazado_1044036" data-name="Trazado 1044036" d="M1875.409,1013.7a1.721,1.721,0,0,0-2.28.058.419.419,0,0,0,.448.67c.6-.264,1.447-.259,1.68.507a1.447,1.447,0,0,1-1.216,1.659c-1.818.316-2.734-1.779-2.857-3.234-.15-1.775.249-3.558.151-5.342a9.288,9.288,0,0,0-1.446-4.758,5.926,5.926,0,0,0-3.819-2.573c-.229-.039-.333.306-.1.355a5.826,5.826,0,0,1,4.143,4.059c.715,2.189.391,4.418.2,6.655-.162,1.876.011,4.132,1.756,5.262a2.626,2.626,0,0,0,4.059-1.237,1.883,1.883,0,0,0-.717-2.08" transform="translate(-1488.156 -798.057)" fill="#770e42"/>
          <path id="Trazado_1044037" data-name="Trazado 1044037" d="M1861.938,823.488a1.469,1.469,0,0,0-1.971-.787,1.215,1.215,0,0,0-.465,1.71.43.43,0,0,0,.759-.325c-.1-.377.144-.719.545-.5a.829.829,0,0,1,.225,1.049,1.926,1.926,0,0,1-1.608,1.1c-1.658.162-2.428-1.593-2.323-3,.115-1.523,1.042-2.853,1.728-4.167a5.838,5.838,0,0,0,.747-4.4.049.049,0,0,0-.094.02c.312,2.136-1.215,4.027-2.186,5.792a5.771,5.771,0,0,0-.768,4.642,2.932,2.932,0,0,0,3.216,2.019c1.386-.2,2.872-1.679,2.2-3.155" transform="translate(-1480.552 -649.256)" fill="#770e42"/>
          <path id="Trazado_1044038" data-name="Trazado 1044038" d="M1574.5,760.339a69.651,69.651,0,0,1-4.359,17.367c-3.681,9.456-5.4,22.328,2.18,30.937s13.026,9.921,21.553,3.943a45.33,45.33,0,0,0,13.04-15.042s3.4-14.808,2.789-24.768-21.69-16.405-35.2-12.437" transform="translate(-1249.789 -605.395)" fill="#d7866b"/>
          <path id="Trazado_1044039" data-name="Trazado 1044039" d="M1600.58,958.079c-.79,6.7,5.009,10.836,9.413,9.9,3.691-.788,4.966-5.211,5.289-6.661a.355.355,0,0,0-.372-.428c-.29.017-.577.03-.861.039-7.217,3.025-11.7-.036-13.468-2.846" transform="translate(-1276.511 -764.071)" fill="#ad5645"/>
          <path id="Trazado_1044040" data-name="Trazado 1044040" d="M1614.335,960.507a27.377,27.377,0,0,1-13.458-2.952c0,.036-.006.07-.01.106,1.766,2.81,6.188,7.768,13.468,2.846" transform="translate(-1276.799 -763.653)" fill="#fff"/>
          <path id="Trazado_1044041" data-name="Trazado 1044041" d="M1680.159,849.229a5.04,5.04,0,0,0-1.4-2.895c-.056-.059-.117-.11-.175-.166-.024-.027-.046-.057-.071-.083a1.946,1.946,0,0,0-.363-.288,5.484,5.484,0,0,0-3.166-1.106c-1.162-.031-3.017.356-3.1,1.819a1.9,1.9,0,0,0,1.005,1.656,7.174,7.174,0,0,0,2.165.6,10.848,10.848,0,0,1,4.52,2.242c.28.233.855.127.821-.326a8.181,8.181,0,0,0-.241-1.457" transform="translate(-1333.448 -673.625)" fill="#5d0935"/>
          <path id="Trazado_1044042" data-name="Trazado 1044042" d="M1595.159,832.7a4.489,4.489,0,0,0-4.819-2.924,4.081,4.081,0,0,0-.9.227,2.067,2.067,0,0,0-.478.119,1.827,1.827,0,0,0-.9.719,1.634,1.634,0,0,0,.293,2.168,4.707,4.707,0,0,0,2.41.562,10.026,10.026,0,0,1,2.6.664,2.883,2.883,0,0,0,1.05.318.916.916,0,0,0,.941-.762,2.287,2.287,0,0,0-.2-1.091" transform="translate(-1266.364 -661.698)" fill="#5d0935"/>
          <path id="Trazado_1044043" data-name="Trazado 1044043" d="M1671.889,886.165a1.248,1.248,0,0,0-1.313-.433,1.686,1.686,0,0,0-.958.9,3.111,3.111,0,0,0-.323,1.085,1.471,1.471,0,0,0-.048.445,1.407,1.407,0,0,0,.687,1.169c1.1.564,2.033-.813,2.255-1.722a1.634,1.634,0,0,0-.3-1.442" transform="translate(-1331.341 -706.324)" fill="#261c28"/>
          <path id="Trazado_1044044" data-name="Trazado 1044044" d="M1598.566,863.635a1.08,1.08,0,0,0-1.572.059,2.259,2.259,0,0,0-.237.186,2.154,2.154,0,0,0-.54.844,2.109,2.109,0,0,0-.116.665,1.643,1.643,0,0,0,.01.64,1.258,1.258,0,0,0,1.432,1.031c.648-.135,1.007-.808,1.212-1.376a1.883,1.883,0,0,0-.187-2.049" transform="translate(-1272.975 -688.488)" fill="#261c28"/>
          <path id="Trazado_1044045" data-name="Trazado 1044045" d="M1604.088,850.557a.139.139,0,0,0-.275.019,42.471,42.471,0,0,1-1.132,5.934,19.264,19.264,0,0,1-2.507,5.079c-1,1.443-2.453,2.734-2.655,4.576-.161,1.462.911,3.18,2.549,2.972.61-.078.607-1.026-.025-.972a1.512,1.512,0,0,1-1.6-1.576,3.954,3.954,0,0,1,.918-2.359,34.242,34.242,0,0,0,2.739-3.925,19.1,19.1,0,0,0,1.731-4.58,11.658,11.658,0,0,0,.251-5.167" transform="translate(-1274.116 -678.219)" fill="#bf645a"/>
          <path id="Trazado_1044046" data-name="Trazado 1044046" d="M1588.326,676.681c0-.017-.007-.034-.01-.051a9.11,9.11,0,0,0-1.157-2.831,31.388,31.388,0,0,0-1.377-5.735,15.111,15.111,0,0,0-2.909-5.167,10.6,10.6,0,0,0-4.6-3.1,8.874,8.874,0,0,0-5.651.224c-2.016.688-3.89,1.793-6.007,2.168a6.06,6.06,0,0,1-3.152-.171,5.557,5.557,0,0,1-2.288-1.777c-.623-.749-1.16-1.566-1.784-2.314a15.123,15.123,0,0,0-1.975-1.952,16.674,16.674,0,0,0-4.944-2.8c-7.732-2.806-16.3.243-21.929,5.885a19.7,19.7,0,0,0-5.611,10.159,13.913,13.913,0,0,0,2.134,10.369,10.942,10.942,0,0,0,8.622,4.944,13.023,13.023,0,0,0,9.5-4.119,11.925,11.925,0,0,0,1.31-1.6,8.173,8.173,0,0,0,5.78,4.828,10.879,10.879,0,0,0,8.4-1.516,15.323,15.323,0,0,0,1.681-1.189,3.273,3.273,0,0,0,1.055,2.107c1.425,1.322,3.554,1.288,5.348,1.615a5.173,5.173,0,0,1,2.63,1.107,3.976,3.976,0,0,1,1.155,2.4c.285,2.012-.553,3.9-1.318,5.707a11.629,11.629,0,0,0-1.286,5.68,5.128,5.128,0,0,0,2.909,4.136c3.453,1.679,7.625-.187,10.315-2.491a15.408,15.408,0,0,0,3.629-4.527,11.877,11.877,0,0,0,1.537-5.052c.222-.418.43-.843.616-1.278a16.412,16.412,0,0,0,1.223-4.624,15.168,15.168,0,0,0-1.845-9.04" transform="translate(-1216.037 -520.021)" fill="#770e42"/>
          <path id="Trazado_1044047" data-name="Trazado 1044047" d="M1702.286,670.179c-.329-.125-.693-.14-1.03-.266a3.77,3.77,0,0,1-.76-.4,9.916,9.916,0,0,1-1.42-1.2,4.742,4.742,0,0,1-1.7-3.22c0-1,.778-2.2,1.91-2.057a1.336,1.336,0,0,1,1.061.88c.205.636-.251,1.063-.817,1.216-.538.146-.59.828.039.884a1.675,1.675,0,0,0,1.291-.688,1.872,1.872,0,0,0-.458-2.654,2.234,2.234,0,0,0-2.752.094,3.077,3.077,0,0,0-1.039,2.994,5.983,5.983,0,0,0,2.117,3.327,8,8,0,0,0,1.6,1.177,2.216,2.216,0,0,0,2,.269.206.206,0,0,0-.047-.35" transform="translate(-1353.128 -528.09)" fill="#770e42"/>
          <path id="Trazado_1044048" data-name="Trazado 1044048" d="M1590.373,768.71a6.87,6.87,0,0,0-.844,1.546,11.81,11.81,0,0,1-.939,1.617,12.612,12.612,0,0,1-2.4,2.585,16.313,16.313,0,0,1-7.234,2.969c-.1.021-.115.191-.005.208a10.744,10.744,0,0,0,7.895-2.484,12.6,12.6,0,0,0,2.6-2.792c.666-.972,1.544-2.26,1.471-3.479a.312.312,0,0,0-.547-.17" transform="translate(-1259.257 -612.933)" fill="#5d0935"/>
          <path id="Trazado_1044049" data-name="Trazado 1044049" d="M1661.9,784.014c-.557.3-.922.98-1.366,1.428a10.768,10.768,0,0,1-1.364,1.164,10.574,10.574,0,0,1-3.152,1.533,12.241,12.241,0,0,1-7.963-.556.094.094,0,0,0-.091.162,9.951,9.951,0,0,0,8.389,1.321,11.346,11.346,0,0,0,5.1-3.11,3.328,3.328,0,0,0,1.03-1.565.4.4,0,0,0-.578-.377" transform="translate(-1314.338 -625.194)" fill="#5d0935"/>
          <path id="Trazado_1044050" data-name="Trazado 1044050" d="M1590.365,682.559a12.3,12.3,0,0,1-11.689,3.133c-4.23-1.145-7.671-4.148-11.659-5.865a22.234,22.234,0,0,0-13.006-1.711c-3.876.749-7.974,2.913-9.774,6.592a6.521,6.521,0,0,0-.128,5.812,4.861,4.861,0,0,0,4.392,2.97c.232-.016.322-.4.059-.436a4.967,4.967,0,0,1-4.008-3.159,5.976,5.976,0,0,1,.535-5.237c2.036-3.53,6.324-5.378,10.214-5.838a22.66,22.66,0,0,1,12.7,2.522c3.654,1.828,7,4.517,11.078,5.362a11.773,11.773,0,0,0,6.191-.366,11.507,11.507,0,0,0,5.23-3.67c.072-.088-.057-.188-.134-.11" transform="translate(-1231.028 -540.481)" fill="#5d0935"/>
          <path id="Trazado_1044051" data-name="Trazado 1044051" d="M1566.15,717.495a4.714,4.714,0,0,0-1.228-.213,5.06,5.06,0,0,1-1.085-.385,4.478,4.478,0,0,1-2.033-2,4.4,4.4,0,0,1-.375-2.605,5.407,5.407,0,0,1,.284-1.125,6.471,6.471,0,0,1,.408-.864c.134-.237.332-.437.453-.678.025-.05-.041-.1-.086-.078a2.915,2.915,0,0,0-1.007,1.077,4.813,4.813,0,0,0-.6,1.542,5.055,5.055,0,0,0,.29,2.921,5.144,5.144,0,0,0,2.045,2.341,4.928,4.928,0,0,0,1.472.622,2.156,2.156,0,0,0,1.462.022.337.337,0,0,0,0-.58" transform="translate(-1244.828 -565.826)" fill="#5d0935"/>
          <path id="Trazado_1044052" data-name="Trazado 1044052" d="M1757.108,888.353s2.051-7.024,5.989-6.354c4.175.71,7.728,14.234-7.338,15.252Z" transform="translate(-1400.349 -703.349)" fill="#d7866b"/>
          <path id="Trazado_1044053" data-name="Trazado 1044053" d="M1773.733,914.8c-.156-.018-.315-.039-.471-.047a1.383,1.383,0,0,0-.438.067,4.579,4.579,0,0,0-.686.244,4.331,4.331,0,0,0-1.3.867,4.6,4.6,0,0,0-1.326,2.662.348.348,0,0,0,.6.283,3.325,3.325,0,0,1,1.27-.749,4.1,4.1,0,0,1,.82-.152,8.422,8.422,0,0,1,.878.018.415.415,0,0,0,.071-.816,3.009,3.009,0,0,0-1.065.025,4.293,4.293,0,0,0-.988.284,6.351,6.351,0,0,0-.693.349,3.971,3.971,0,0,1,.932-1.485,4.265,4.265,0,0,1,1.041-.771,4.028,4.028,0,0,1,.579-.242c.107-.035.219-.06.323-.1a4.519,4.519,0,0,1,.465-.2.122.122,0,0,0-.017-.234" transform="translate(-1411.319 -729.514)" fill="#bf645a"/>
          <path id="Trazado_1044054" data-name="Trazado 1044054" d="M679.655,799.962c4.782-3.716,16.624-1.1,12.386,12.13s-12.386-12.13-12.386-12.13" transform="translate(-541.984 -636.718)" fill="#261b26"/>
          <path id="Trazado_1044055" data-name="Trazado 1044055" d="M663.021,832.984s3.489,1.218,5.743,6.679,10.374,6.012,11.738,12.485.6,15.442-2.138,18.944-14.2,8.2-18.932,5.467-19.357-26.926,3.589-43.575" transform="translate(-518.707 -664.288)" fill="#d7866b"/>
          <path id="Trazado_1044056" data-name="Trazado 1044056" d="M694.463,961.662h-2.984a.452.452,0,1,1,0-.9H693.8a2.878,2.878,0,0,0-1.25-1.32,5.306,5.306,0,0,0-3.524-.185.452.452,0,0,1-.269-.863,6.142,6.142,0,0,1,4.211.245,3.927,3.927,0,0,1,1.926,2.44.452.452,0,0,1-.432.584" transform="translate(-548.992 -764.107)" fill="#bf645a"/>
          <path id="Trazado_1044057" data-name="Trazado 1044057" d="M680.288,985.178a2.334,2.334,0,0,1-2.387,1.79l-8.228,4.627c1.789,3.309,3.794,5.623,5.074,6.363,4.73,2.734,16.2-1.965,18.931-5.467,1.2-1.542,2.026-4.146,2.454-7.129-8.286,9.191-15.844-.184-15.844-.184" transform="translate(-534.021 -785.687)" fill="#cd6e61"/>
          <path id="Trazado_1044058" data-name="Trazado 1044058" d="M820.661,1359.773s9.471-1.91,9.967-8.341-18.369,1.027-18.369,1.027Z" transform="translate(-647.757 -1075.749)" fill="#e73e28"/>
          <path id="Trazado_1044059" data-name="Trazado 1044059" d="M722.18,1594.262a140.011,140.011,0,0,1,1.958,18.068c.382,9.675.318,22.584,4.443,33.583s14.708,5.36,14.708,5.36l.406-60.655Z" transform="translate(-575.904 -1268.624)" fill="#d7866b"/>
          <path id="Trazado_1044060" data-name="Trazado 1044060" d="M722.18,1594.262a140.228,140.228,0,0,1,1.945,17.783c1.846-2,5.02-3.844,9.591-1.116,7.178,4.285,6.836,27.382.884,41.383,4.249,1.321,8.688-1.039,8.688-1.039l.406-60.655Z" transform="translate(-575.904 -1268.624)" fill="#cd6e61"/>
          <path id="Trazado_1044061" data-name="Trazado 1044061" d="M742.4,1847.269s1.958-3.354,7.445-2.786,7.127,7.059,9.978,5.779c0,0,4.948,11.914,6.433,14.553s6.032,5.57-4.672,7.87-19.184-25.415-19.184-25.415" transform="translate(-592.034 -1471.07)" fill="#770e42"/>
          <path id="Trazado_1044062" data-name="Trazado 1044062" d="M745.767,1838.6a.933.933,0,0,1-1.253-.833c-.011-.68.354-1.516,1.881-2.107,2.818-1.091,12.723-2.637,12.747,4.986a.772.772,0,0,1-1.265.6c-2-1.685-6.495-4.574-12.11-2.645" transform="translate(-593.718 -1463.356)" fill="#5d0935"/>
          <path id="Trazado_1044063" data-name="Trazado 1044063" d="M733.743,1858.14s8.249-.612,10.451,1.3,5.431,10.573,6.565,15.9,2.432,7.885,7.7,6.33a4.758,4.758,0,0,0,1.374-1.6c.228-.717,1.546,2.277-1.6,3.609s-10.5,2.02-14.371,1.553-12.23-21.629-12.23-21.629a5.7,5.7,0,0,1,2.113-5.475" transform="translate(-583.376 -1481.941)" fill="#f2f2f9"/>
          <path id="Trazado_1044064" data-name="Trazado 1044064" d="M743.442,1871.576a13.5,13.5,0,0,0-7.8-1.561c-2.215.27-4.093,1.679-4.036,3.909.116,4.551,1.024,12.633,5.526,19.131a2.99,2.99,0,0,0,1.29,1.043c1.865.794,6.918,2.171,16.793-.053a10.372,10.372,0,0,1-6.37-6.875c-1.544-5.386-3.6-13.864-5.4-15.594" transform="translate(-583.423 -1491.419)" fill="#fff"/>
          <path id="Trazado_1044065" data-name="Trazado 1044065" d="M518.528,1585.947s-2.852,14.324-7.848,18.721-22.737,15.855-33.594,19.273l-4.8-14.648s2.285-5.384,9.338-8.5,12.284-4.3,13.783-16.032Z" transform="translate(-376.573 -1263.952)" fill="#d7866b"/>
          <path id="Trazado_1044066" data-name="Trazado 1044066" d="M508.625,1584.763c-.8,6.3-2.685,9.556-5.344,11.7,3.846-.416,8.453-.126,10.539,3.08,3.18,4.886-11.939,18.491-24.963,19.98l1.446,4.414c10.858-3.419,28.6-14.877,33.595-19.274s7.848-18.72,7.848-18.72Z" transform="translate(-389.791 -1263.953)" fill="#cd6e61"/>
          <path id="Trazado_1044067" data-name="Trazado 1044067" d="M437.469,1690.85s5.763,3.144,6.338,6.54a7.573,7.573,0,0,1-1.1,4.71,2.18,2.18,0,0,0,1.009,3.021c1.615.755,3.212,2.43,2.365,6.142-1.544,6.766-9.932,17.663-12.748,19.706s-6.186-35.151-6.186-35.151,7.664-4.813,10.317-4.967" transform="translate(-340.572 -1348.574)" fill="#770e42"/>
          <path id="Trazado_1044068" data-name="Trazado 1044068" d="M465.03,1687.156a10.046,10.046,0,0,1,3.414-2.612c1.689-.578,9.849,5.19,4.544,9.853,0,0-2.515-6.97-7.958-7.24" transform="translate(-370.786 -1343.512)" fill="#5d0935"/>
          <path id="Trazado_1044069" data-name="Trazado 1044069" d="M432.621,1719.5c-1.5-8.709-6.423-10.383-12.359-8a4.039,4.039,0,0,0-1.748,1.529c1.851-.949,2.84.6,5.89,1.529,5.545,1.683,2.727,23.652-.364,34.042a19.359,19.359,0,0,0,5.23-4.774s4.845-15.62,3.35-24.329" transform="translate(-333.682 -1364.264)" fill="#f2f2f9"/>
          <path id="Trazado_1044070" data-name="Trazado 1044070" d="M412.486,1717.969a9.684,9.684,0,0,0-7.431.645c-4.016,5.806-3.377,24.288-3.377,24.288-.107,8.654,3.661,12.8,6.391,12.26a8.453,8.453,0,0,0,2.513-.977c6.275-9.519,7.45-34.533,1.9-36.216" transform="translate(-320.223 -1369.842)" fill="#e3e3ee"/>
          <path id="Trazado_1044071" data-name="Trazado 1044071" d="M565.52,1371.1s-5.372,19.881-6.554,24.791-3.138,8.9,6.554,13.71a32.677,32.677,0,0,0,19.613,2.622s-.65,2.653,7.954,2.6,21.3-.587,25.521-2.6c0,0,2.933-40.236,2.781-51.467Z" transform="translate(-444.916 -1085.27)" fill="#961147"/>
          <path id="Trazado_1044072" data-name="Trazado 1044072" d="M654.977,1516.476a35.817,35.817,0,0,0-6.947-5.081,29.318,29.318,0,0,1-1.049,21.308,31.885,31.885,0,0,0,9.157-.322s1.652-13.092-1.161-15.906" transform="translate(-515.921 -1205.43)" fill="#7a0e35"/>
          <path id="Trazado_1044073" data-name="Trazado 1044073" d="M692.2,1615.437l-.01-.323a.8.8,0,0,0,.01.323" transform="translate(-551.975 -1288.162)" fill="#7a0e35"/>
          <path id="Trazado_1044074" data-name="Trazado 1044074" d="M660.619,1360.754l-53.473,9.9c2.52,2.106,7.549,4.674,17.537,6.014,18.738,2.514,24.4.809,22.876,22.4-.43,6.093-.851,11.128-1.233,15.218,4.938-.389,9.343-1.033,11.512-2.067,0,0,2.933-40.236,2.781-51.467" transform="translate(-484.146 -1085.27)" fill="#7a0e35"/>
          <path id="Trazado_1044075" data-name="Trazado 1044075" d="M954.181,748.787c-1.056-.748-3.422-1.316-9.32,2.99-4.484,3.274-9.836,14.576-13.461,21.553q.832.878,1.651,1.768c2.044,2.22,4.182,4.377,6.126,6.686,1.255,1.491,2.435,3.047,3.545,4.649a98.475,98.475,0,0,0,6.919-19.334,12.756,12.756,0,0,1,2.689-4.023,1.567,1.567,0,0,0-.316-2.541c1.891-2.344-.979-3.13-.979-3.13,2.195-2.066-.931-2.98-.931-2.98,1.023-2.678,6-4.278,4.076-5.638" transform="translate(-742.792 -596.713)" fill="#d7866b"/>
          <path id="Trazado_1044076" data-name="Trazado 1044076" d="M987.116,810.064l-.073.048c-2.35,1.543-4.77,3.19-6.213,5.673-1.46,2.511-1.921,5.46-2.672,8.227a49.045,49.045,0,0,1-3.125,8.358q1.3,1.635,2.494,3.356a98.486,98.486,0,0,0,6.92-19.335,12.762,12.762,0,0,1,2.689-4.023,1.472,1.472,0,0,0-.019-2.3" transform="translate(-777.595 -646.005)" fill="#cd6e61"/>
          <path id="Trazado_1044077" data-name="Trazado 1044077" d="M1025.506,793.239a2.239,2.239,0,0,0-.658-.56,2.094,2.094,0,0,0-.875-.268,1.237,1.237,0,0,0-.953.24.125.125,0,0,0,.073.216c.282.051.572.009.854.07a1.919,1.919,0,0,1,.692.289,1.771,1.771,0,0,1,.443.445c.083.124.174.238.259.361a.988.988,0,0,0,.126.171c.045.042.1.056.137.106a.069.069,0,0,0,.124-.02.986.986,0,0,1,.072-.171.661.661,0,0,0-.034-.375,1.266,1.266,0,0,0-.26-.5" transform="translate(-815.839 -631.919)" fill="#cd6e61"/>
          <path id="Trazado_1044078" data-name="Trazado 1044078" d="M1022.2,776.645a2.425,2.425,0,0,0-1.342-1.177,2.18,2.18,0,0,0-.474-.131c-.176-.023-.5-.048-.639.088a.22.22,0,0,0-.044.3,1.409,1.409,0,0,0,.571.26,2.517,2.517,0,0,1,.417.179,2.207,2.207,0,0,1,.659.583,2.45,2.45,0,0,1,.387.729,2.314,2.314,0,0,1,.115.506,1.213,1.213,0,0,0,.122.5.131.131,0,0,0,.2.032.868.868,0,0,0,.257-.7,2.367,2.367,0,0,0-.23-1.172" transform="translate(-813.194 -618.291)" fill="#cd6e61"/>
          <path id="Trazado_1044079" data-name="Trazado 1044079" d="M428.011,1372.355s-4.664,10.531-7.064,12.834-7.8,6.6-9.57,8.849c-1.508,1.915.028,2.936,1.8,1.82s3.9-2.376,3.9-2.376-5.686,5.148-4.762,7.555,7.348-5.187,7.348-5.187-4.331,6.2-2.557,6.991c1.25.558,6.566-6.983,6.566-6.983s-3.357,5.928-1.782,5.769c2.946-.3,5.4-7.34,6.633-8.145s4.032,1.27,5.9.819-2.6-5.439-2.313-6.7,5.894-9.053,5.894-9.053Z" transform="translate(-327.499 -1094.523)" fill="#d7866b"/>
          <path id="Trazado_1044080" data-name="Trazado 1044080" d="M433.826,1460.651a5.44,5.44,0,0,1-1.376,1.055,5.678,5.678,0,0,1-2.084.5,28.351,28.351,0,0,0-3.98.61,14.186,14.186,0,0,0-6.7,3.651.078.078,0,0,0,.1.12,26.214,26.214,0,0,1,7.141-2.994,29.232,29.232,0,0,0,3.955-.84,6.3,6.3,0,0,0,3.046-2.014c.042-.062-.047-.141-.1-.086" transform="translate(-334.602 -1164.939)" fill="#cd6e61"/>
          <path id="Trazado_1044081" data-name="Trazado 1044081" d="M579.3,850.648a14.173,14.173,0,0,1,10.914,9.369,3.3,3.3,0,0,1-.011,2.193,83.525,83.525,0,0,1-14.292,24.777c-10.7,12.758-17.676,21.722-17.676,21.722s11.341,30.579,11.607,45.32c0,0-7.063.087-15.487,6.366s-36.194,14.736-50.416,1.974l2.84-10.8s-6.212,9.142-7.547,12.031a1.116,1.116,0,0,1-1.141.651c-2.3-.268-8.506-1.413-12.23-6.139a2.506,2.506,0,0,1-.366-2.467c2.279-5.808,11.817-30.1,13.028-33.006,1.377-3.308,5.268-13.667,14.437-17.6s18.957-15.623,26.75-18.837c7.547-3.112,29.3-21.954,37.3-34.551a2.217,2.217,0,0,1,2.294-1" transform="translate(-386.975 -678.345)" fill="#ffc73e"/>
          <g id="Grupo_1180732" data-name="Grupo 1180732" transform="translate(102.462 188.883)" opacity="0.5" style="mix-blend-mode: multiply;isolation: isolate">
            <g id="Grupo_1180731" data-name="Grupo 1180731">
              <g id="Grupo_1180730" data-name="Grupo 1180730" clip-path="url(#clip-path-9)">
                <g id="Grupo_1180726" data-name="Grupo 1180726" transform="translate(0 58.921)" opacity="0.3" style="mix-blend-mode: multiply;isolation: isolate">
                  <g id="Grupo_1180725" data-name="Grupo 1180725">
                    <g id="Grupo_1180724" data-name="Grupo 1180724" clip-path="url(#clip-path-10)">
                      <path id="Trazado_1044082" data-name="Trazado 1044082" d="M524.889,1224.823c-3.469-5.484-8.181,16.433-10.157,22.661-1.6,5.043-3.125,9.108-9.09,11.61a21.412,21.412,0,0,0,8.658,2.962,1.116,1.116,0,0,0,1.141-.651c1.336-2.888,7.548-12.031,7.548-12.031s5.369-19.066,1.9-24.55" transform="translate(-505.642 -1223.951)" fill="#edadab"/>
                    </g>
                  </g>
                </g>
                <g id="Grupo_1180729" data-name="Grupo 1180729" transform="translate(35.21)" opacity="0.3" style="mix-blend-mode: multiply;isolation: isolate">
                  <g id="Grupo_1180728" data-name="Grupo 1180728">
                    <g id="Grupo_1180727" data-name="Grupo 1180727" clip-path="url(#clip-path-11)">
                      <path id="Trazado_1044083" data-name="Trazado 1044083" d="M743.2,932.746c-4.435,7.774-11.423,18.008-21.146,23.875-9.614,5.8-15.572,4.12-19.679,18.706-3.082,10.943-14.8,39.9-4.372,30.227s16.563-13.24,7.4,3.947a60.027,60.027,0,0,1-25.75,25.024c12.123-.1,24.55-4.764,29.713-8.611,8.424-6.279,15.487-6.366,15.487-6.366-.266-14.741-11.607-45.319-11.607-45.319s6.976-8.964,17.675-21.722a84.736,84.736,0,0,0,12.281-19.76" transform="translate(-679.655 -932.747)" fill="#edadab"/>
                    </g>
                  </g>
                </g>
              </g>
            </g>
          </g>
          <path id="Trazado_1044084" data-name="Trazado 1044084" d="M491.14,739.84s-.017-8.523-6.791-13.137c-6.7-4.562-19.26.624-20.056,6.2-.873,6.114,6.047.955,4.195,8.461-1.781,7.217,4.648,8.011,8.545,5.452s6.183-5.238,9.141-1.632Z" transform="translate(-370.137 -578.118)" fill="#382a38"/>
          <path id="Trazado_1044085" data-name="Trazado 1044085" d="M485.91,764.734a12.725,12.725,0,0,0-4.444-2.261l1.031.033c1.536.049,3.071.172,4.607.2.434.008.514-.523.348-.809-1.9-3.272-5.961-4.252-9.489-4.1-2.335.1-4.626.614-6.938.911-1.649.212-3.673.368-5.035-.787a3.479,3.479,0,0,1-1.112-1.907,4.88,4.88,0,0,0-.585,1.662c-.873,6.114,6.046.955,4.195,8.461-1.781,7.217,4.648,8.011,8.545,5.452s6.183-5.237,9.141-1.632l1.865-2.007a6.951,6.951,0,0,0-2.13-3.213" transform="translate(-370.137 -602.89)" fill="#261b26"/>
          <path id="Trazado_1044086" data-name="Trazado 1044086" d="M573.588,790.977s-.163-6.709-6.334-2.347-1.415,8.952-1.415,8.952Z" transform="translate(-449.801 -627.733)" fill="#f7582c"/>
          <path id="Trazado_1044087" data-name="Trazado 1044087" d="M475.748,792.517s1.448,6.353-1.157,8.952-4.795,6.129.779,9.435,3.089,6.742.378,8-6.725-4.524-9.762,1.035,4.562,8.8,8.171,8.586c0,0,8.184,8.95,2.387,16.839s-16.114,7.63-16.114,7.63-8.228,10.094-15.865,7.093-9.349-12.663-9.349-12.663-20.97,5.6-20.97-14.14c0-14.777,11.64-16.269,14.951-16.547,9.164-.771,3.542-12.879,18.983-24.436,11.955-8.947,19.769-5.634,21.232-2.258Z" transform="translate(-330.277 -627.243)" fill="#382a38"/>
          <path id="Trazado_1044088" data-name="Trazado 1044088" d="M474.158,974.936c-2.7.16-7.628-1.613-8.673-4.843.084,3.335,2.313,6.929,3.163,9.9a10.593,10.593,0,0,1-.113,7.181,5.671,5.671,0,0,1-5.242,3.544c-2.224-.1-4.226-2.317-3.543-4.582.008-.032.019-.063.027-.095.1-.383-.548-.58-.672-.2-.01.029-.015.059-.024.088h0c-1.009,4.042-4.024,8.262-8.346,9.092-3.8.729-8.244-1.337-8.9-5.414-.456-2.84.849-5.677,2.086-8.151.162-.324-.219-.727-.54-.5-5.391,3.758-11.889,6.552-18.578,5.424a14.783,14.783,0,0,1-7.989-3.891,13.044,13.044,0,0,1-2.546-3.624c-.009.274-.021.545-.021.83,0,19.74,20.97,14.14,20.97,14.14s1.712,9.661,9.349,12.663,15.865-7.093,15.865-7.093,10.317.26,16.114-7.63-2.387-16.839-2.387-16.839" transform="translate(-330.278 -773.654)" fill="#261b26"/>
          <path id="Trazado_1044089" data-name="Trazado 1044089" d="M519.421,856.475c-4.557,5.035-2.453,13.071-6.954,18.146a6.568,6.568,0,0,1-1.936,1.544,1.586,1.586,0,0,1-1.495.121.792.792,0,0,1-.271-1.1c.262-.307-.176-.749-.494-.506a1.478,1.478,0,0,0-.027,2.214,2.137,2.137,0,0,0,2.235.352,7.772,7.772,0,0,0,3.719-3.425c1.936-3.188,2.187-6.99,2.821-10.574a16.367,16.367,0,0,1,2.521-6.66c.058-.083-.048-.189-.12-.109" transform="translate(-404.869 -683.003)" fill="#261b26"/>
          <path id="Trazado_1044090" data-name="Trazado 1044090" d="M654.218,938.514a.213.213,0,0,0,.016-.217c-.006-.012-.02-.059-.043-.07l-.078-.038a.212.212,0,0,0-.213.04,9.886,9.886,0,0,0-3.311,6.266,10.805,10.805,0,0,0,.144,3.394,7.732,7.732,0,0,0,1.4,3.4.44.44,0,0,0,.736-.461,23.25,23.25,0,0,1-1.135-3.014,9.874,9.874,0,0,1-.176-3.34,11.513,11.513,0,0,1,2.663-5.962" transform="translate(-518.74 -748.194)" fill="#261b26"/>
          <path id="Trazado_1044091" data-name="Trazado 1044091" d="M626.672,941.049a6.136,6.136,0,0,0-3.527,3.242,11.94,11.94,0,0,0-1.076,5.612c.009,1.047.091,2.089.151,3.134a4.7,4.7,0,0,1-.412,2.787,1.544,1.544,0,0,1-2.17.646c-.975-.718-.528-2.081-.117-2.977a.217.217,0,0,0-.344-.235,2.421,2.421,0,0,0-.6.741,3.213,3.213,0,0,0-.288,1.11,2.511,2.511,0,0,0,.672,1.91,2.257,2.257,0,0,0,3.407-.429c1-1.266.764-3.01.657-4.508a20.981,20.981,0,0,1,.092-5.406,7.37,7.37,0,0,1,3.654-5.385.131.131,0,0,0-.1-.243" transform="translate(-493.028 -750.482)" fill="#261b26"/>
        </g>
      </g>
      <rect id="Rectángulo_415826" data-name="Rectángulo 415826" width="506" height="506" transform="translate(4415.099 4595.099)" fill="none"/>
    </g>
  </g>
</svg>
